<?xml version="1.0" encoding="UTF-8" standalone="no"?>
<svg width="65px" height="66px" viewBox="0 0 65 66" version="1.1" xmlns="http://www.w3.org/2000/svg" xmlns:xlink="http://www.w3.org/1999/xlink">
    <!-- Generator: Sketch 39.1 (31720) - http://www.bohemiancoding.com/sketch -->
    <title>Group 16</title>
    <desc>Created with Sketch.</desc>
    <defs></defs>
    <g id="Page-1" stroke="none" stroke-width="1" fill="none" fill-rule="evenodd">
        <g id="角色属性-copy" transform="translate(-780.000000, -974.000000)">
            <g id="Group-16" transform="translate(780.000000, 974.000000)">
                <rect id="Rectangle-Copy-7" fill="#F6B341" x="0" y="0" width="65" height="65"></rect>
                <g id="-娱乐推送" transform="translate(0.000000, 4.000000)">
                    <circle id="Oval-Copy-11" fill="#F6B341" cx="31" cy="31" r="31"></circle>
                    <g id="noun_584996_cc" transform="translate(15.000000, 14.000000)" fill="#FFFFFF">
                        <g id="Group">
                            <path d="M28.6315789,33.6842105 L11.7894737,33.6842105 C9.92842105,33.6842105 8.42105263,32.1768421 8.42105263,30.3157895 L8.42105263,28.6315789 L5.05263158,28.6315789 C2.26189474,28.6315789 0,26.3696842 0,23.5789474 L0,10.1052632 C0,7.31452632 2.26189474,5.05263158 5.05263158,5.05263158 L8.42105263,5.05263158 L8.42105263,0 L32,0 L32,30.3157895 C32,32.1768421 30.4926316,33.6842105 28.6315789,33.6842105 L28.6315789,33.6842105 Z M8.42105263,8.42105263 L5.05263158,8.42105263 C4.12294737,8.42105263 3.36842105,9.17557895 3.36842105,10.1052632 L3.36842105,23.5789474 C3.36842105,24.5086316 4.12294737,25.2631579 5.05263158,25.2631579 L8.42105263,25.2631579 L8.42105263,8.42105263 L8.42105263,8.42105263 Z M28.6315789,8.42105263 L28.6315789,3.36842105 L11.7894737,3.36842105 L11.7894737,8.42105263 L28.6315789,8.42105263 L28.6315789,8.42105263 Z" id="Shape"></path>
                        </g>
                    </g>
                </g>
            </g>
        </g>
    </g>
</svg>