<?xml version="1.0" encoding="UTF-8" standalone="no"?>
<svg width="65px" height="66px" viewBox="0 0 65 66" version="1.1" xmlns="http://www.w3.org/2000/svg" xmlns:xlink="http://www.w3.org/1999/xlink">
    <!-- Generator: Sketch 39.1 (31720) - http://www.bohemiancoding.com/sketch -->
    <title>Group 20</title>
    <desc>Created with Sketch.</desc>
    <defs></defs>
    <g id="Page-1" stroke="none" stroke-width="1" fill="none" fill-rule="evenodd">
        <g id="角色属性-copy" transform="translate(-776.000000, -1189.000000)">
            <g id="Group-20" transform="translate(776.000000, 1189.000000)">
                <rect id="Rectangle-Copy-9" fill="#86BEE2" x="0" y="0" width="65" height="65"></rect>
                <g id="新闻" transform="translate(3.000000, 4.000000)">
                    <circle id="Oval-Copy-19" fill="#86BEE2" cx="31" cy="31" r="31"></circle>
                    <g id="noun_571056_cc" transform="translate(15.000000, 15.000000)" fill="#FFFFFF">
                        <g id="Group">
                            <path d="M27.2,32 L19.2,32 L19.2,25.6 L4.8,25.6 C2.1488,25.6 0,23.4512 0,20.8 L0,4.8 C0,2.1488 2.1488,0 4.8,0 L9.6,0 L9.6,3.2 L27.2,3.2 C29.8512,3.2 32,5.3488 32,8 L32,27.2 C32,29.8512 29.8512,32 27.2,32 L27.2,32 Z M6.4,3.2 L4.8,3.2 C3.9168,3.2 3.2,3.9168 3.2,4.8 L3.2,16 L6.4,16 L6.4,3.2 L6.4,3.2 Z M28.8,7.6 C28.8,6.9376 28.2624,6.4 27.6,6.4 L9.6,6.4 L9.6,19.2 L4.8,19.2 C3.9168,19.2 3.2,19.9168 3.2,20.8 C3.2,21.6832 3.9168,22.4 4.8,22.4 L28.8,22.4 L28.8,7.6 L28.8,7.6 Z M27.2,25.6 L22.4,25.6 L22.4,28.8 L27.2,28.8 C28.0832,28.8 28.8,28.0832 28.8,27.2 C28.8,26.3168 28.0832,25.6 27.2,25.6 L27.2,25.6 Z M14.4,9.6 L24,9.6 C24.8832,9.6 25.6,10.3168 25.6,11.2 C25.6,12.0832 24.8832,12.8 24,12.8 L14.4,12.8 C13.5168,12.8 12.8,12.0832 12.8,11.2 C12.8,10.3168 13.5168,9.6 14.4,9.6 L14.4,9.6 Z M14.4,14.4 L24,14.4 C24.8832,14.4 25.6,15.1168 25.6,16 C25.6,16.8832 24.8832,17.6 24,17.6 L14.4,17.6 C13.5168,17.6 12.8,16.8832 12.8,16 C12.8,15.1168 13.5168,14.4 14.4,14.4 L14.4,14.4 Z" id="Shape"></path>
                        </g>
                    </g>
                </g>
            </g>
        </g>
    </g>
</svg>