<?xml version="1.0" encoding="UTF-8" standalone="no"?>
<svg width="65px" height="65px" viewBox="0 0 65 65" version="1.1" xmlns="http://www.w3.org/2000/svg" xmlns:xlink="http://www.w3.org/1999/xlink">
    <!-- Generator: Sketch 39.1 (31720) - http://www.bohemiancoding.com/sketch -->
    <title>Group 15</title>
    <desc>Created with Sketch.</desc>
    <defs></defs>
    <g id="Page-1" stroke="none" stroke-width="1" fill="none" fill-rule="evenodd">
        <g id="角色属性-copy" transform="translate(-261.000000, -974.000000)">
            <g id="Group-15" transform="translate(261.000000, 974.000000)">
                <rect id="Rectangle-Copy-17" fill="#86BEE2" x="0" y="0" width="65" height="65"></rect>
                <g id="日程创建" transform="translate(3.000000, 3.000000)">
                    <circle id="Oval-Copy-12" fill="#86BEE2" cx="31" cy="31" r="31"></circle>
                    <g id="noun_570936_cc" transform="translate(15.000000, 15.000000)" fill="#FFFFFF">
                        <g id="Group">
                            <path d="M27.2,32 L4.8,32 C2.1488,32 0,29.8512 0,27.2 L0,8 C0,5.3488 2.1488,3.2 4.8,3.2 L6.4,3.2 L6.4,1.6 C6.4,0.7168 7.1168,0 8,0 C8.8832,0 9.6,0.7168 9.6,1.6 L9.6,3.2 L22.4,3.2 L22.4,1.6 C22.4,0.7168 23.1168,0 24,0 C24.8832,0 25.6,0.7168 25.6,1.6 L25.6,3.2 L27.2,3.2 C29.8512,3.2 32,5.3488 32,8 L32,27.2 C32,29.8512 29.8512,32 27.2,32 L27.2,32 Z M28.8,9.6 L3.2,9.6 L3.2,27.2 C3.2,28.0832 3.9168,28.8 4.8,28.8 L27.2,28.8 C28.0832,28.8 28.8,28.0832 28.8,27.2 L28.8,9.6 L28.8,9.6 Z M24,25.6 L12.8,25.6 C11.9168,25.6 11.2,24.8832 11.2,24 C11.2,23.1168 11.9168,22.4 12.8,22.4 L24,22.4 C24.8832,22.4 25.6,23.1168 25.6,24 C25.6,24.8832 24.8832,25.6 24,25.6 L24,25.6 Z M24,20.8 L12.8,20.8 C11.9168,20.8 11.2,20.0832 11.2,19.2 C11.2,18.3168 11.9168,17.6 12.8,17.6 L24,17.6 C24.8832,17.6 25.6,18.3168 25.6,19.2 C25.6,20.0832 24.8832,20.8 24,20.8 L24,20.8 Z M24,16 L12.8,16 C11.9168,16 11.2,15.2832 11.2,14.4 C11.2,13.5168 11.9168,12.8 12.8,12.8 L24,12.8 C24.8832,12.8 25.6,13.5168 25.6,14.4 C25.6,15.2832 24.8832,16 24,16 L24,16 Z M8,25.6 C7.1168,25.6 6.4,24.8832 6.4,24 C6.4,23.1168 7.1168,22.4 8,22.4 C8.8832,22.4 9.6,23.1168 9.6,24 C9.6,24.8832 8.8832,25.6 8,25.6 L8,25.6 Z M8,20.8 C7.1168,20.8 6.4,20.0832 6.4,19.2 C6.4,18.3168 7.1168,17.6 8,17.6 C8.8832,17.6 9.6,18.3168 9.6,19.2 C9.6,20.0832 8.8832,20.8 8,20.8 L8,20.8 Z M8,16 C7.1168,16 6.4,15.2832 6.4,14.4 C6.4,13.5168 7.1168,12.8 8,12.8 C8.8832,12.8 9.6,13.5168 9.6,14.4 C9.6,15.2832 8.8832,16 8,16 L8,16 Z" id="Shape"></path>
                        </g>
                    </g>
                </g>
            </g>
        </g>
    </g>
</svg>