<?xml version="1.0" encoding="UTF-8" standalone="no"?>
<svg width="65px" height="65px" viewBox="0 0 65 65" version="1.1" xmlns="http://www.w3.org/2000/svg" xmlns:xlink="http://www.w3.org/1999/xlink">
    <!-- Generator: Sketch 39.1 (31720) - http://www.bohemiancoding.com/sketch -->
    <title>Group 11</title>
    <desc>Created with Sketch.</desc>
    <defs></defs>
    <g id="Page-1" stroke="none" stroke-width="1" fill="none" fill-rule="evenodd">
        <g id="角色属性-copy" transform="translate(-264.000000, -760.000000)">
            <g id="Group-11" transform="translate(264.000000, 760.000000)">
                <rect id="Rectangle-Copy-15" fill="#F6B341" x="0" y="0" width="65" height="65"></rect>
                <g id="查询天气" transform="translate(1.000000, 2.000000)">
                    <circle id="Oval-Copy-10" fill="#F6B341" cx="31" cy="31" r="31"></circle>
                    <g id="noun_590857_cc" transform="translate(15.000000, 16.000000)" fill="#FFFFFF">
                        <g id="Group">
                            <path d="M24.7259502,29.0932897 L8.72304055,29.0932897 L8.70412802,29.0932897 C3.8974359,29.0932897 0,25.1958538 0,20.3891617 C0,17.2409529 1.67157665,14.484088 4.1753046,12.9550827 C2.53282415,11.5933806 1.46499364,9.54646299 1.46499364,7.25077287 C1.46499364,3.24568103 4.71067467,0 8.7157665,0 C12.3775232,0 15.4049827,2.7146754 15.8967085,6.23967994 C16.8045099,5.98654301 17.844699,5.81778505 18.924168,5.81778505 C24.5382797,5.81778505 29.0903801,10.3698854 29.0903801,15.9839971 L29.0903801,16.0014548 L29.0903801,16.0116385 C30.8637934,17.3369704 32,19.4318967 32,21.7915985 L32,21.8206947 C31.9956356,25.8345154 28.7412257,29.0889253 24.7259502,29.0932897 L24.7259502,29.0932897 Z M8.72304055,2.90671031 C6.31533006,2.90961993 4.3644299,4.86342971 4.3644299,7.27114021 C4.3644299,8.49318058 4.86633933,9.59883615 5.67666849,10.3902528 C7.00345517,8.49754501 9.17548645,7.27404983 11.6312057,7.27114021 C12.1462084,7.28132388 12.6408438,7.34533552 13.1165666,7.45881069 C13.0685579,7.387525 13.0860156,7.33224223 13.0860156,7.27114021 C13.0860156,4.86052009 11.1322059,2.90671031 8.72158574,2.90671031 L8.72304055,2.90671031 Z M25.9741771,17.6570286 C26.097836,17.1551191 26.1691217,16.5790144 26.1691217,15.9854519 C26.1691217,11.9774504 22.9190762,8.72740498 18.9110747,8.72740498 C16.933988,8.72740498 15.1431169,9.51736679 13.833788,10.7990544 C13.2067649,10.4135297 12.4458993,10.1851246 11.6341153,10.1807601 C9.22204037,10.1807601 7.26823059,12.1345699 7.26823059,14.54519 C7.26823059,14.6135661 7.28568831,14.6775777 7.28859793,14.744499 C4.74704492,15.4006183 2.89943626,17.6730315 2.89943626,20.3760684 C2.89943626,23.5839243 5.49918167,26.1836698 8.70703764,26.1836698 L8.72304055,26.1836698 L24.7244954,26.1836698 L24.7375887,26.1836698 C27.1409347,26.1836698 29.0903801,24.2342244 29.0903801,21.8308783 C29.0903801,19.8668849 27.78978,18.2069467 26.0032733,17.6657574 L25.9741771,17.6570286 Z" id="Shape"></path>
                        </g>
                    </g>
                </g>
            </g>
        </g>
    </g>
</svg>