<?xml version="1.0" encoding="UTF-8"?>
<svg width="65px" height="65px" viewBox="0 0 65 65" version="1.1" xmlns="http://www.w3.org/2000/svg" xmlns:xlink="http://www.w3.org/1999/xlink">
    <!-- Generator: Sketch 41 (35326) - http://www.bohemiancoding.com/sketch -->
    <title>菜谱查询</title>
    <desc>Created with Sketch.</desc>
    <defs></defs>
    <g id="Page-1" stroke="none" stroke-width="1" fill="none" fill-rule="evenodd">
        <g id="角色属性-copy" transform="translate(-784.000000, -1804.000000)">
            <g id="菜谱查询" transform="translate(784.000000, 1804.000000)">
                <circle id="Oval-Copy-8" fill="#9F82D6" cx="32" cy="33" r="31"></circle>
                <rect id="Rectangle-Copy-19" fill="#9F82D6" x="0" y="0" width="65" height="65"></rect>
                <g id="noun_649635_cc" transform="translate(22.000000, 13.000000)" fill="#FFFFFF">
                    <g id="77--Hotel-Menu--(Solid)">
                        <g id="Group">
                            <g id="Shape">
                                <g>
                                    <path d="M7.700095,14.779245 L5.706545,14.529645 L8.456695,17.281095 L8.456695,15.635945 C8.456695,15.201095 8.131695,14.833195 7.700095,14.779245"></path>
                                    <path d="M16.73217,15.41657 L15.39187,16.78417 C15.02722,17.15662 14.53842,17.36332 14.01647,17.36592 L14.00672,17.36592 C13.66937,17.36592 13.34957,17.27232 13.06357,17.11177 L10.67612,19.49987 L14.76657,23.59032 C15.02007,23.84447 15.02007,24.25592 14.76657,24.50942 C14.63917,24.63682 14.47277,24.69987 14.30702,24.69987 C14.14062,24.69987 13.97422,24.63682 13.84747,24.50942 L9.75702,20.41897 L5.66657,24.50942 C5.53917,24.63682 5.37277,24.69987 5.20702,24.69987 C5.04062,24.69987 4.87422,24.63682 4.74747,24.50942 C4.49332,24.25592 4.49332,23.84447 4.74747,23.59032 L8.83727,19.49987 L8.64747,19.30942 L7.34747,18.00942 L3.44747,14.10942 C3.25117,13.91312 3.20112,13.61412 3.32267,13.36452 C3.44487,13.11557 3.70942,12.97192 3.98762,13.00507 L7.86162,13.48932 C8.94192,13.62387 9.75702,14.54687 9.75702,15.63627 L9.75702,18.58077 L12.13277,16.20437 C11.69532,15.47637 11.77137,14.53257 12.38172,13.88387 L13.86762,12.52082 C14.13282,12.27837 14.54362,12.29657 14.78607,12.56047 C15.02852,12.82632 15.01097,13.23647 14.74577,13.47957 L13.29432,14.80817 C13.08957,15.02787 13.09542,15.41982 13.34177,15.66617 L13.55432,15.87872 C13.67522,15.99897 13.83577,16.06592 14.00672,16.06592 L14.00997,16.06592 C14.18222,16.06462 14.34342,15.99702 14.46432,15.87352 L15.80397,14.50657 C16.05487,14.24982 16.46632,14.24527 16.72307,14.49747 C16.97982,14.74902 16.98372,15.15982 16.73217,15.41657 L16.73217,15.41657 Z M6.50702,31.84987 C6.50702,31.49042 6.79757,31.19987 7.15702,31.19987 L12.35702,31.19987 C12.71582,31.19987 13.00702,31.49042 13.00702,31.84987 C13.00702,32.20932 12.71582,32.49987 12.35702,32.49987 L7.15702,32.49987 C6.79757,32.49987 6.50702,32.20932 6.50702,31.84987 L6.50702,31.84987 Z M14.95702,35.09987 L4.55702,35.09987 C4.19757,35.09987 3.90702,34.80932 3.90702,34.44987 C3.90702,34.09042 4.19757,33.79987 4.55702,33.79987 L14.95702,33.79987 C15.31582,33.79987 15.60702,34.09042 15.60702,34.44987 C15.60702,34.80932 15.31582,35.09987 14.95702,35.09987 L14.95702,35.09987 Z M14.30702,1.65932 L14.30702,6.49987 L3.65742,6.49987 L14.30702,1.65932 Z M18.85702,6.49987 L15.60702,6.49987 L15.60702,0.64987 C15.60702,0.42887 15.49457,0.22347 15.30867,0.10322 C15.12277,-0.01573 14.88877,-0.03328 14.68727,0.05837 L0.40417,6.55122 L0.40352,6.55122 L0.38727,6.55837 C0.31642,6.59087 0.25402,6.63507 0.20072,6.68772 C0.19097,6.69747 0.18512,6.71112 0.17602,6.72152 C0.13312,6.76962 0.09607,6.82162 0.06877,6.88012 C0.05837,6.90352 0.05447,6.92952 0.04602,6.95422 C0.02977,7.00622 0.01742,7.05822 0.01417,7.11347 C0.01352,7.12647 0.00702,7.13687 0.00702,7.14987 L0.00702,38.34987 C0.00702,38.70932 0.29757,38.99987 0.65702,38.99987 L18.85702,38.99987 C19.21582,38.99987 19.50702,38.70932 19.50702,38.34987 L19.50702,7.14987 C19.50702,6.79042 19.21582,6.49987 18.85702,6.49987 L18.85702,6.49987 Z"></path>
                                </g>
                            </g>
                        </g>
                    </g>
                </g>
            </g>
        </g>
    </g>
</svg>