<?xml version="1.0" encoding="utf-8"?>
<!-- Generator: Adobe Illustrator 16.0.0, SVG Export Plug-In . SVG Version: 6.00 Build 0)  -->
<!DOCTYPE svg PUBLIC "-//W3C//DTD SVG 1.1//EN" "http://www.w3.org/Graphics/SVG/1.1/DTD/svg11.dtd">
<svg version="1.1" id="图层_1" xmlns="http://www.w3.org/2000/svg" xmlns:xlink="http://www.w3.org/1999/xlink" x="0px" y="0px"
	 width="100px" height="100px" viewBox="0 0 100 100" enable-background="new 0 0 100 100" xml:space="preserve">
<g>
	<circle fill="#77CDFF" cx="50" cy="50" r="50"/>
	<g>
		<defs>
			<circle id="SVGID_1_" cx="50" cy="50" r="50"/>
		</defs>
		<clipPath id="SVGID_2_">
			<use xlink:href="#SVGID_1_"  overflow="visible"/>
		</clipPath>
		<g clip-path="url(#SVGID_2_)">
			<path fill-rule="evenodd" clip-rule="evenodd" fill="#F7BA9D" d="M83.201,77.757c0.057-0.113,0.113-0.226,0.17-0.339
				C83.314,77.53,83.258,77.644,83.201,77.757z"/>
			<path fill="#262626" d="M41.81,84.249c-0.335,0.677-5.345,9.399-5.345,9.399c0.448-0.396-3.867,20.856-5.49,20.765
				c-0.26-0.015-0.539-0.152-0.82,0.131c1.143,0.694,2.408,0.536,3.617,0.589c0.482,0.021,0.646,0.027,0.671,0.57
				c0.038,0.833-0.431,1.911,0.926,3.395l0.913-1.84c-0.366-0.199-0.646-0.435-0.649-0.443c-0.355-1.008-0.319-2.058-0.267-3.098
				c0.198-3.857,6.121-21.621,6.131-21.689c0.094-0.708,5.451-3.71,5.451-5.039L41.81,84.249z"/>
			<path fill-rule="evenodd" clip-rule="evenodd" fill="#212121" d="M75.305,87.76c-0.592-0.266-0.105-0.69-0.131-1.029
				c-0.064-0.832-0.479-1.772,0.57-2.358c0.082-0.045,0.098-0.346,0.039-0.483c-0.527-1.259,0.006-2.371,0.49-3.472
				c0.645-1.46,1.236-2.947,2.088-4.31c0.234-0.374,0.516-0.749,0.957-0.676c0.404,0.066,0.285,0.572,0.393,0.88
				c1.029,2.94,2.176,5.851,3.025,8.842c1.264,4.439,2.572,8.893,3.186,13.47c0.48,3.574-0.115,7.136-1.109,10.606
				c-0.109,0.386-0.162,0.917-0.637,0.991c-0.492,0.078-0.615-0.461-0.869-0.773c-0.576-0.708-0.869-1.696-1.898-1.967
				c-0.162-0.043-0.318-0.16-0.576,0.121c1.055,0.83,1.654,2.034,2.475,3.069c0.625,0.79,0.363,1.361-0.146,2.021
				c-1.342,1.736-2.846,3.324-4.436,4.934c-0.336,0.035-0.26-0.483-0.619-0.588c-0.277,0.35-0.562,0.732-0.873,1.091
				c-0.283,0.325-0.607,0.297-0.684-0.127c-0.371-2.038-1.816-3.385-3.051-4.869c-0.045-0.052-0.068-0.117-0.146-0.254
				c1.221-0.645,2.639-0.723,3.996-1.396c-1.463,0.244-2.775,0.463-4.096,0.683c0.932-3.008,1.943-5.819,5.941-5.407
				c-0.861-0.342-1.9-0.354-2.633-0.093c-0.238,0.084-0.49,0.244-0.662,0.033c-0.24-0.297,0.051-0.529,0.258-0.688
				c0.574-0.435,0.527-0.911,0.166-1.44c-0.381-0.558-0.121-0.876,0.396-1.139c0.533-0.271,1.154-0.437,1.518-1.12
				c-0.818-0.024-1.34,0.552-2.004,0.666c-0.283,0.05-0.576,0.272-0.826-0.126c-0.193-0.308-0.371-0.549-0.145-0.933
				c0.357-0.604,0.326-1.224,0.021-1.866c-0.268-0.563-0.15-1.201-0.223-1.804c-0.35-2.884,0.047-5.739,0.322-8.598
				C75.451,88.939,75.559,87.096,75.305,87.76z M80.676,101.248c0.713,0.006,1.273-0.06,1.596-0.61
				c0.215-0.368,0.125-0.762-0.172-1.055c-0.496-0.49-0.828-1.271-1.725-1.125c-1.59,0.259-2.539,1.58-3.82,2.35
				c-0.17,0.104-0.268,0.341-0.148,0.556c0.123,0.223,0.361,0.234,0.549,0.144C78.209,100.898,79.498,100.899,80.676,101.248z"/>
			<path fill-rule="evenodd" clip-rule="evenodd" fill="#424242" d="M37.043,78.821"/>
			<path fill-rule="evenodd" clip-rule="evenodd" fill="#424242" d="M43.869,67.521"/>
			<path fill-rule="evenodd" clip-rule="evenodd" fill="#212121" d="M73.879,97.875c0.227,1.853,0.256,3.479,0.746,5.035
				c0.066,0.211,0.111,0.433-0.109,0.547c-1.174,0.611-1.053,1.761-0.768,2.631c0.645,1.973-0.344,3.476-1.105,5.067
				c-0.188,0.391-0.371,0.801-0.699,1.133c-0.283,0.286-0.799,0.428-0.906,0.283c-0.609-0.81-1.381-0.368-2.09-0.388
				c-0.293-0.009-0.656,0.31-0.863-0.036c-0.217-0.359-0.143-0.764,0.066-1.168c0.664-1.292,1.314-2.593,1.91-3.916
				c0.654-1.455,1.238-2.943,1.859-4.414c0.26-0.612,0.52-1.217,0.232-1.901c-0.146-0.348,0.074-0.598,0.307-0.818
				C73.016,99.403,73.463,98.796,73.879,97.875z"/>
			<path fill-rule="evenodd" clip-rule="evenodd" fill="#F7BA9D" d="M64.312,61.044"/>
			<path fill-rule="evenodd" clip-rule="evenodd" fill="#262626" d="M80.676,101.248c-1.178-0.349-2.467-0.35-3.721,0.259
				c-0.188,0.091-0.426,0.079-0.549-0.144c-0.119-0.215-0.021-0.452,0.148-0.556c1.281-0.77,2.23-2.091,3.82-2.35
				c0.896-0.146,1.229,0.635,1.725,1.125c0.297,0.293,0.387,0.687,0.172,1.055C81.949,101.188,81.389,101.254,80.676,101.248z"/>
			<path fill="#212121" d="M78.064,72.972c-1.021-0.935-2.24-1.527-3.596-1.776c-1.971-0.359-3.799-1.111-5.447-2.183
				c-1.17-0.758-1.598-2.74-3.119-2.537c-0.533,0.071-1.789,1.015-2.283,0.732c-0.816-0.467-1.703-0.378-2.359-0.027
				c-1.727,0.919-3.529,1.699-5.188,2.764c-0.877,0.562-1.92,1.128-2.918,1.183c-1.588,0.087-8.362-1.602-9.973-1.603l-4.341,7.832
				c0,0-4.834,7.402-7.269,13.451c-2.434,6.052-3.869,16.901-3.252,19.615c0.618,2.711,0.121,10.191,0.017,12.621
				c-0.06,1.386-0.024,1.348,1.376,1.405c1.863,0.076,3.752,0.046,5.512,0.832c0.582,0.262,0.698-0.108,0.647-0.541
				c-0.214-1.795-0.368-5.809-0.474-5.89c-1.074-0.822-0.906-2.027-0.957-3.141c-0.023-0.541-0.188-0.548-0.67-0.569
				c-1.209-0.052-2.476,0.106-3.618-0.589c0.282-0.284,0.562-0.145,0.821-0.131c1.623,0.092,1.605,0.088,2.016-1.417
				c0.086-0.315,2.895-20.666,8.906-27.144c0.609-0.657,0.584,1.422,1.559,1.194c0.161-0.037,0.629-0.254,0.82-0.163
				c0.02-0.189-0.162-0.473,0.09-0.55c0.242-0.076,0.303,0.227,0.365,0.402c0.344,0.979-0.192,2.272-1.689,2.812
				c-1.373,0.495-1.406,1.426-1.545,2.479c-0.01,0.068-5.933,17.832-6.131,21.691c-0.053,1.038-0.089,2.088,0.267,3.097
				c0.13,0.37,0.247,0.625,0.722,0.299c3.43-2.357,30.834-6.103,30.547-4.992c1.77-4.129,1.377-8.623,2.291-12.884
				c0.912-4.262,1.719-8.546,2.551-12.824c0.092,0.505,0.146,0.994,0.082,1.472c-0.471,3.51-1.047,7.002-1.916,10.44
				c-0.08,0.312-0.4,0.815,0.088,0.979c0.365,0.122,0.77-0.13,1.002-0.563c0.152-0.285,0.258-0.56,0.295-0.872
				c0.342-2.788,0.852-5.546,1.471-8.285c1.168-5.17,2.705-10.204,5.549-14.732C78.824,74.046,78.65,73.507,78.064,72.972z"/>
			<path fill-rule="evenodd" clip-rule="evenodd" fill="#424242" d="M23.493,110.146c-0.872-0.086-1.085-3.72-0.986-4.839
				c0.22-2.49,0.332-4.803,1.856-6.995c0.711-1.021,1.338-2.107,1.91-3.212c0.475-0.917,1.087-1.783,1.256-2.841
				c0.166-1.024,0.355-2.044,0.285-3.287c0.681,2.064,0.299,3.916-0.136,6.002c1.444-2.203,1.185-6.345-0.436-8.234
				c-0.036,2.939,0.289,5.857-1.431,8.424c-1.865-2.504-1.045-9.586,1.375-11.598c0.617,1.851,1.064,3.777,2.725,5.015
				c-1.068-1.416-1.787-2.983-2.203-4.713c-0.139-0.583-0.054-0.995,0.365-1.402c2.045-1.987,4.02-4.033,5.293-6.731
				c0.598,0.547,0.518,1.197,0.588,1.779c0.198,1.651,0.354,3.284-0.244,4.925c-0.451,1.231-0.173,2.585-0.334,3.878
				c-0.346,2.768-1.201,5.329-2.812,7.622c-0.093,0.132-0.143,0.295-0.252,0.523c0.662-0.446,1.105-1.02,1.725-2.157
				c0.684-1.258,1.194-2.589,1.511-3.98c0.176-0.773,0.478-0.907,1.222-0.219c-0.268-1.177-0.723-2.066-0.798-3.085
				c-0.128-1.739,1.255-4.529,2.802-5.383c0.712-0.393,0.842,0.057,0.959,0.571c0.673,2.96,0.685,5.879-0.197,8.831
				c-0.926,3.103-2.965,5.2-5.52,7.002c-1.832,1.291-3.776,2.469-5.199,4.284c-2.09,2.669-3.288,5.608-3.271,9.052
				C23.547,109.584,23.493,110.146,23.493,110.146z"/>
			<path fill-rule="evenodd" clip-rule="evenodd" fill="#424242" d="M39.336,60.86c2.076,2.164,3.414,4.475,3.439,7.284
				c0.053,5.528-2.598,8.764-6.825,11.3c0.459-1.156,1.343-1.834,2.087-2.612c0.813-0.852,1.615-1.679,2.119-2.788
				c0.463-1.021,0.676-2.029,0.486-3.153c-0.079,2.285-1.391,3.908-2.836,5.479c-0.453,0.491-2.121-2.284-2.819-3.302
				c-0.537-0.78-0.573-3.268-1.063-3.23c-0.363,0.027-1.266,6.663-3.197,9.136c-0.895,1.146-2.004,2.092-3.211,3.171
				c-0.289-1.582-0.1-3.326,0.426-4.666c2.529-6.469,7.639-10.854,8.711-12.284C37.018,64.706,39.285,61.927,39.336,60.86z"/>
			<path fill-rule="evenodd" clip-rule="evenodd" fill="#424242" d="M80.953,78.024c0.611-4.405-0.217-8.102-0.662-11.212
				c-0.195-1.35-0.318-2.714-0.656-4.059c0.691,0.589,0.988,1.391,1.271,2.16c1.133,3.081,1.648,5.36,1.166,8.677
				C82.01,74.027,81.027,78.03,80.953,78.024z"/>
			<path fill-rule="evenodd" clip-rule="evenodd" fill="#424242" d="M36.43,77.074c0.344,0.631-1.444,2.697-2.139,3.442
				c0.383-1.771-0.951-6.416,0.092-7.054c0.586,0.051,0.98,0.742,1.184,1.219C35.998,75.686,36.43,77.074,36.43,77.074z"/>
			<path fill-rule="evenodd" clip-rule="evenodd" fill="#424242" d="M43.182,87.516c-0.09,1.364-2.355,1.907-2.484,1.955
				c0.419,0.25,0.838,0.094,1.229,0.151c-1.489,1.056-2.931,0.304-3.185-1.728c-0.104-0.831-0.018-1.687,0.094-2.592
				c0.494,0.862,0.996,1.692,1.752,2.321C42.214,88.612,42.938,87.645,43.182,87.516z"/>
			<path fill-rule="evenodd" clip-rule="evenodd" fill="#424242" d="M29.6,99.389c-0.202-0.288-0.5-0.544-0.83-0.089
				c-1.314,0.916-1.266,0.901-0.58,2.203c0.572,1.091,1.188,2.199,1.068,3.745c-0.65-1.612-1.118-3.084-2.09-4.331
				c-0.295,0.34-0.639,0.513-0.857,0.778c-1.014,1.229-1.5,3.519-1.635,3.982c-0.512,1.768-0.716,3.633-0.283,5.427
				c0.271,1.121,1.592,2.35,2.514,2.132c0.254-0.06,0.156-0.559,1.061-1.03c1.277-0.665,2.898-1.759,3.563-3.567
				c0.147-0.507,0.288-1.574,0.376-2.088C32.383,103.885,31.158,101.614,29.6,99.389z"/>
			<path fill-rule="evenodd" clip-rule="evenodd" fill="#424242" d="M80.1,61.819c-0.506-0.93-0.768-1.93-0.883-2.969
				C79.748,59.771,79.936,60.791,80.1,61.819z"/>
			<path fill-rule="evenodd" clip-rule="evenodd" fill="#F7BA9D" d="M81.713,76.088c0.057-0.114,0.113-0.226,0.17-0.34
				C81.828,75.861,81.77,75.974,81.713,76.088z"/>
			<path fill-rule="evenodd" clip-rule="evenodd" fill="#212121" d="M22.139,77.356c-2.682,4.107-4.153,8.408-3.146,13.457
				c0.171-2.772,0.784-5.341,2.079-7.597c0.055,0.458-1.534,10.605-1.565,10.949c-0.812-0.373-1.274-5.107-1.282-5.241
				c-0.213-3.697,0.603-7.132,2.615-10.263C20.953,78.486,21.414,77.443,22.139,77.356z"/>
			<path fill="#718195" d="M76.436,63.474c-0.002-0.003-0.004-0.007-0.006-0.011c0,0.007,0,0.012,0,0.02L76.436,63.474z"/>
			<path fill-rule="evenodd" clip-rule="evenodd" fill="#718195" d="M18.621,91.969"/>
			<g>
				<g>
					<path fill="#262626" d="M78.391,74.462c-2.842,4.528-4.467,9.956-5.635,15.125c-0.617,2.74-1.127,5.498-1.469,8.287
						c-0.039,0.312-0.143,0.587-0.297,0.872c-0.232,0.432-0.637,0.684-1,0.562c-0.488-0.162-0.168-0.665-0.09-0.979
						c0.869-3.438,1.447-6.929,1.918-10.44c0.062-0.475,0.01-0.968-0.084-1.47c-0.832,4.278-1.639,8.562-2.551,12.825
						c-0.867,4.049-0.949,8.91-2.436,12.868l1.418,0.136c0.01-0.211-0.137-1.054-0.023-1.273c0.666-1.291,1.316-2.592,1.912-3.916
						c0.654-1.456,1.238-2.943,1.859-4.413c0.258-0.613,0.52-1.216,0.23-1.9c-0.146-0.349,0.076-0.598,0.309-0.817
						c0.557-0.527,1.004-1.135,1.418-2.057c0.229,1.853,0.256,3.479,0.746,5.035c0.066,0.212,0.111,0.433-0.107,0.547
						c-1.176,0.611-1.053,1.761-0.768,2.633c0.645,1.972-0.344,3.474-1.107,5.063c-0.133,0.279-0.266,0.565-0.807,0.954l1.758,1.132
						c1.484-0.606,2.541-1.154,3.756-1.757c-1.463,0.244-2.775,0.462-4.098,0.683c0.932-3.008,1.943-5.819,5.943-5.409
						c-0.861-0.34-1.9-0.353-2.633-0.093c-0.238,0.085-0.492,0.247-0.664,0.034c-0.238-0.296,0.053-0.528,0.258-0.686
						c0.574-0.436,0.529-0.913,0.168-1.443c-0.381-0.557-0.123-0.876,0.395-1.138c0.533-0.27,1.154-0.438,1.52-1.12
						c-0.818-0.024-1.34,0.552-2.006,0.666c-0.283,0.049-0.576,0.272-0.826-0.127c-0.191-0.306-0.369-0.548-0.143-0.931
						c0.355-0.604,0.326-1.226,0.021-1.867c-0.27-0.563-0.152-1.201-0.225-1.804c-0.348-2.884,0.049-5.738,0.324-8.599
						c0.068-0.71,2.826-3.452,2.764-3.546c-0.1-0.151-1.4,0.954-2.016,1.629c0,0.002,0,0.002,0,0.002l0,0
						c-0.264,0.388-0.574-0.64-0.826,0.026c-0.592-0.266-0.105-0.69-0.131-1.031c-0.066-0.831-0.479-1.771,0.57-2.357
						c0.08-0.046,0.096-0.346,0.037-0.484c-0.527-1.26,0.008-2.37,0.492-3.47c0.643-1.462,1.236-2.947,2.088-4.311
						c0.234-0.374,0.49-0.539,0.734-0.753L78.391,74.462z"/>
					<path fill="#212121" d="M67.506,61.957c0.225-1.319-0.059-1.548-1.375-1.295c-0.352,0.067-2.555-1.987-3.354-2.614
						c-0.734-0.244-5.57,2.35-7.963,3.503c-1.791,0.864-3.402,1.053-5.242,0.321c-1.463-0.58-3.014-0.937-4.526-1.391
						c-1.394-0.078-5.341-4.742-6.211-5.781c-0.104,0.698,1.481,5.482,1.286,6.16c1.619,1.916,3.039,4.226,3.061,6.661
						c0.01,0.917-0.083,1.544-0.219,2.341c0.091,0.508,8.596,1.347,10.186,1.261c0.996-0.055,2.039-0.621,2.918-1.184
						c1.658-1.064,6.762-2.886,7.58-2.418c0.492,0.282,1.107,0.219,1.641,0.147C65.287,67.669,67.32,63.065,67.506,61.957z"/>
				</g>
				<g>
					<path fill-rule="evenodd" clip-rule="evenodd" fill="#FFF0E1" d="M34.963,41.731c-0.877-0.938-0.443-4.14-0.302-5.953
						c0.51-1.642,0.724-1.934,1.84-3.306c1.394-1.717,2.799-3.261,4.374-4.839c3.153-3.158,6.902-5.229,11.035-6.704
						c0.664-0.237,1.404-0.652,2.096-0.394c1.412,0.532,2.895,0.902,4.172,1.784c0.795,0.55,1.602,1.204,2.41,1.585
						c1.92,0.902,3.752,1.889,4.828,3.709c0.85,1.438,2.189,2.744,1.979,4.668c-0.027,0.25-0.059,0.563,0.242,0.732
						c0.898,1.865,1.393,3.883,2.047,5.829c0.492,1.458,0.842,3.042,0.84,4.64c-0.217,0.781,0.273,1.109,0.883,1.36
						c0.252-0.261,0.34-0.575,0.299-0.932c0.014-0.087,0.029-0.173,0.045-0.261c0.379-0.006,0.762-0.433,1.137,0.007
						c-0.037,0.112-0.076,0.223,0.061,0.3l0.006-0.007c-0.059-0.029-0.143-0.098-0.17-0.078c-0.887,0.578-1.625,2.602-1.43,3.507
						c0.057,0.266,0.311,0.546,0.611,0.237c0.707-0.726,1.701-2.667,1.754-2.8c0.1-0.195,0.199-0.39,0.299-0.585
						c0.691,0.098,0.953,0.383,0.656,1.121c-0.605,1.495-1.312,2.883-2.658,3.881c-0.408,0.303-0.697,0.065-1.154,0.016
						c-0.691-0.731-1.051-1.788-0.826-3.025c0.027-0.328,0.305-0.571-0.041-1.001c-1.662,2.976-1.674,6.428-3.729,9.141
						c0,0-5.266,5.98-12.445,7.717c-1.789,0.862-3.352,0.906-5.24,0.321c-3.782-1.264-5.804-0.583-10.111-8.313
						c-0.398-0.938-0.604-2.098-0.604-3.048c0.138-0.723,0.007-1.448,0.666-2.109c0.248-0.249-0.183-0.579-0.579-0.613
						c-1.335-0.503-2.323-2.833-1.718-4.069c0.235,0.175,0.147,0.445,0.178,0.663c0.075,0.526,0.146,0.909,0.819,0.507
						c0.307-0.184,0.748-0.151,0.834,0.297c0.072,0.367-0.252,0.538-0.602,0.548c-0.854,0.021-0.576,0.415-0.287,0.829
						c1.658,2.371,4.706,2.487,5.922,0.216c0.383-0.719,0.474-1.515,0.488-2.322c0.455-0.031,0.317,0.618,0.854,0.6
						c0.08-1.344-0.872-2.142-1.586-3.053c0.241-0.274,0.332-0.561,0.163-0.926 M49.518,52.73c-0.15-0.446-0.789-0.539-1.272-0.8
						c-0.188-0.101-0.464,0.067-0.4,0.309c0.168,0.655,0.782,0.811,1.315,1.026C49.422,53.372,49.541,53.219,49.518,52.73z"/>
					<path fill-rule="evenodd" clip-rule="evenodd" fill="#F7BA9D" d="M68.018,30.694c0.049,0.078,0.104,0.152,0.158,0.228
						c0.186,0.818,0.354,1.631-0.539,2.184c-0.301-0.17-0.27-0.482-0.242-0.733c0.211-1.922-1.129-3.229-1.979-4.667
						c-1.076-1.82-2.908-2.807-4.828-3.708c-0.809-0.381-1.615-1.035-2.41-1.586c-1.277-0.882-2.76-1.253-4.172-1.783
						c-0.691-0.26-1.432,0.155-2.096,0.392c-4.133,1.477-7.882,3.545-11.035,6.704c-1.575,1.579-2.965,3.278-4.359,4.994
						c-1.116,1.372-1.07,3.256-0.79,4.856c-0.759,0.259-1.2,0.469-0.87-1.12c0.554-2.395,1.035-4.803,2.879-6.663
						c3.771-3.805,7.614-7.503,12.537-9.83c0.779-0.368,1.344-0.739,2.518-1.005c0.682-0.083,1.305,0.122,1.865,0.464
						c3.934,2.402,7.803,4.887,11.486,7.683c2.281,1.731,2.912,4.298,4.033,6.614c0.715,1.475,1.158,3.108,1.479,4.746
						c0.053,0.265,0.066,0.537,0.117,0.968c-0.668-0.455-0.799-1.094-1.068-1.595c-0.812-1.519-1.895-2.907-2.312-4.622
						l-0.002,0.003c0.268,0.008,0.424,0.358,0.777,0.228c-0.227-0.882-0.41-1.777-0.98-2.529"/>
					<path fill-rule="evenodd" clip-rule="evenodd" fill="#F7BA9D" d="M44.42,41.193c-0.354-0.203-0.648,0.332-1.092,0.024
						c-0.297-0.206-0.447,0.185-0.312,0.479c0.169,0.367,0.078,0.653-0.163,0.928c-1.346-0.947-2.807-1.664-4.438-1.908
						c-1.25-0.188-2.484-0.052-3.467,0.843c-0.328-0.834-0.299-1.665-0.299-2.493c0.001-1.32-0.535-1.599,1.689-1.359
						c2.373,0.256,4.402,1.019,6.594,1.561l-0.002-0.002C43.343,39.974,44.237,40.309,44.42,41.193z"/>
					<path fill-rule="evenodd" clip-rule="evenodd" fill="#424242" d="M75.441,39.505c0,1.265,0.014,2.532-0.012,3.797
						c-0.006,0.246-0.037,0.618-0.357,0.662c-0.332,0.046-0.549-0.226-0.705-0.514c-0.504-0.944-0.213-1.865,0.125-2.76
						c0.166-0.44,0.477-0.824,0.723-1.234C75.289,39.472,75.365,39.488,75.441,39.505z"/>
					<path fill-rule="evenodd" clip-rule="evenodd" fill="#F7BA9D" d="M41.946,47.818c-0.875,1.196-2.965,0.87-4.015-0.819
						c-0.078-0.126-0.168-0.267-0.035-0.355c0.287-0.197,0.641-0.166,0.877,0.04c0.756,0.656,1.611,0.497,2.473,0.384
						C41.289,47.497,41.463,47.804,41.946,47.818z"/>
					<path fill-rule="evenodd" clip-rule="evenodd" fill="#FFF0E1" d="M70.27,46.13c0.316,0.266,0.102,0.731,0.039,1.029
						c-0.188,0.891-0.227,1.764,0.465,2.496c-0.463,0.107-0.928,0.216-1.48,0.345C69.352,48.694,69.598,47.27,70.27,46.13z"/>
					<path fill-rule="evenodd" clip-rule="evenodd" fill="#F7BA9D" d="M37.951,48.409c0.396,0.034,0.827,0.364,0.579,0.612
						c-0.659,0.66-0.376,1.444-0.515,2.167c-0.137-0.235-0.259-0.479-0.412-0.706C37.053,49.675,36.765,48.92,37.951,48.409z"/>
					<path fill-rule="evenodd" clip-rule="evenodd" fill="#DD8866" d="M74.018,44.323c-0.1,0.195-0.199,0.39-0.299,0.585
						c-0.287,0.552-1.217,1.442-1.438,1.302c-0.275-0.179,0.311-1.411,0.672-2.169c0,0-0.006,0.008-0.004,0.006
						c0.268-0.02,0.283-0.188,0.236-0.396l0.004-0.005C73.576,43.734,73.811,44.012,74.018,44.323z"/>
					<path fill-rule="evenodd" clip-rule="evenodd" fill="#F7BA9D" d="M72.887,43.749c-0.375-0.439-0.758-0.013-1.137-0.006
						c0.068-0.58-0.293-1.481,0.434-1.598c0.387-0.062,0.977,0.771,1.006,1.5l-0.004,0.005
						C73.086,43.685,72.986,43.717,72.887,43.749z"/>
					<path fill-rule="evenodd" clip-rule="evenodd" fill="#F7BA9D" d="M71.705,44.003c0.041,0.356-0.047,0.671-0.299,0.932
						c-0.609-0.253-1.1-0.578-0.883-1.36c0.654-0.316,0.092-1.01,0.547-1.51c0.1,0.566,0.199,1.067,0.271,1.572
						C71.375,43.867,71.426,44.036,71.705,44.003z"/>
					<path fill-rule="evenodd" clip-rule="evenodd" fill="#FEFEFE" d="M41.946,47.818c-0.483-0.015-0.657-0.321-0.7-0.751
						c0.031-0.039,0.069-0.069,0.113-0.094c0.311,0.021,0.619,0.044,0.93,0.064C42.504,47.443,42.194,47.618,41.946,47.818z"/>
					<path fill-rule="evenodd" clip-rule="evenodd" fill="#F7BA9D" d="M42.289,47.038c-0.311-0.021-0.619-0.043-0.93-0.064
						c0.167-0.355,0.285-0.863,0.783-0.737C42.506,46.325,42.279,46.755,42.289,47.038z"/>
					<path fill-rule="evenodd" clip-rule="evenodd" fill="#F7BA9D" d="M57.947,20.7c-0.053-0.02-0.107-0.04-0.162-0.06
						c0.057,0.018,0.113,0.035,0.17,0.052L57.947,20.7z"/>
					<path fill-rule="evenodd" clip-rule="evenodd" fill="#F7BA9D" d="M68.389,33.214c-0.031-0.031-0.062-0.062-0.096-0.095
						c0.021,0.005,0.053,0.002,0.062,0.015c0.018,0.023,0.021,0.056,0.031,0.083L68.389,33.214z"/>
					<path fill-rule="evenodd" clip-rule="evenodd" fill="#F7BA9D" d="M57.445,43.094c0.975-0.272,1.184,0.758,1.799,1.104
						c0.623,0.351,1.037,0.496,1.498-0.111c0.35-0.462,0.973-0.613,1.242-1.192c0.209-0.446,0.488-0.183,0.697,0.082
						c0.357,0.448,0.182,1.002,0.301,1.494l-0.027,0.025c-0.168,0.014-0.381-0.166-0.547-0.152
						c-0.408,0.121-0.902-0.309-1.195,0.374c-0.199,0.465,0.217,0.597,0.529,0.724c-1.467,1.367-3.803,0.61-4.482-1.454
						C57.578,43.743,57.602,43.437,57.445,43.094z"/>
					<path fill-rule="evenodd" clip-rule="evenodd" fill="#F7BA9D" d="M64.045,42.369c0.021-0.403,0.004-0.81,0.004-1.269
						c0.584,0.241,0.527,0.646,0.508,1.07c-0.049,1.163-0.562,2.128-1.217,3.045c-0.219,0.306-0.398,0.641-0.594,0.963
						c-0.521,0.341-0.781,0.879-1.443,0.387C61.549,46.191,63.998,43.288,64.045,42.369z"/>
					<path fill-rule="evenodd" clip-rule="evenodd" fill="#DD8866" d="M49.518,52.821c0.023,0.486-0.096,0.642-0.357,0.534
						c-0.533-0.217-1.147-0.371-1.315-1.025c-0.063-0.243,0.212-0.41,0.4-0.308C48.729,52.282,49.367,52.374,49.518,52.821z"/>
					<path fill-rule="evenodd" clip-rule="evenodd" fill="#212121" d="M42.665,37.546c0.336,0.133,1.503,0.276,1.629,0.993
						c0.126,0.932-0.796,1.089-1.251,0.892c-1.018-0.438-1.585-0.562-2.664-0.865c-2.01-0.563-3.682-0.651-5.535-0.705
						c-0.169-0.067-1.033-0.122-1.687-0.738C33.811,37.211,39.958,36.479,42.665,37.546z"/>
					<path fill-rule="evenodd" clip-rule="evenodd" fill="#F7BA9D" d="M72.281,46.21c-0.131-0.848,1.139-2.241,0.904-2.56
						c-1.016,0.099-2.109,2.876-1.832,3.821c0.076,0.26,0.311,0.545,0.611,0.236c0.688-0.707,1.734-2.737,1.781-2.853
						C73.598,44.838,72.832,46.031,72.281,46.21z"/>
					<path fill-rule="evenodd" clip-rule="evenodd" fill="#718195" d="M67.471,41.438c0.08-0.017,0.16-0.035,0.24-0.051
						c-0.002,0.079-0.006,0.158-0.008,0.236C67.627,41.562,67.549,41.5,67.471,41.438z"/>
					<path fill-rule="evenodd" clip-rule="evenodd" fill="#F7BA9D" d="M66.059,39.617c-0.502-1.062-0.746-2.406-2.23-2.688
						c-0.254-0.048-0.291-0.32-0.246-0.51c0.211-0.906-0.363-1.263-1.041-1.563c-2.264,0.167-4.521,0.331-6.674,1.183
						c-1.184,0.469-2.42,0.797-3.621,1.221c-0.539,0.189-0.939,0.039-1.301-0.348c-0.549,0.127-0.627,0.423-0.215,0.776
						c0.197,0.167,0.496,0.277,0.756,0.296c0.771,0.051,0.934,0.449,0.754,1.123c-0.088,0.33-0.135,0.672-0.203,1.008
						c-0.252,1.272-0.117,2.402,1.113,3.155c0.199,0.122,0.398,0.246,0.457,0.527c0.061,0.297-0.195,0.835,0.314,0.824
						c0.406-0.009,0.248-0.573,0.396-0.868c0.102-0.206,0.094-0.47,0.137-0.706c-0.934-0.232-0.158-0.743-0.076-0.976
						c0.9-2.542,2.459-4.583,5.295-4.828c2.74-0.236,5.02,0.849,6.293,3.504c0.193,0.401,0.514,0.652,0.996,0.604
						C66.705,40.753,66.34,40.211,66.059,39.617z"/>
					<path fill-rule="evenodd" clip-rule="evenodd" fill="#FEFEFE" d="M61.742,45.44c-0.184-0.127-0.809-0.18-0.529-0.724
						c0.359-0.844,1.221-0.252,1.627-0.374C62.738,44.665,61.867,45.521,61.742,45.44z"/>
					<path fill-rule="evenodd" clip-rule="evenodd" fill="#212121" d="M67.471,41.438c-0.17-0.029-0.338-0.058-0.508-0.087
						c-0.482,0.049-0.803-0.202-0.996-0.604c-1.273-2.655-3.553-3.74-6.293-3.504c-2.836,0.245-4.395,2.286-5.295,4.828
						c-0.082,0.232-0.857,0.743,0.076,0.976c0.426-0.54,0.709-1.209,1.529-1.657c-0.121,1.203-0.064,2.207,1.461,1.703
						c0.975-0.272,1.184,0.758,1.799,1.104c0.623,0.351,1.037,0.496,1.498-0.111c0.35-0.462,0.973-0.613,1.242-1.192
						c0.209-0.446,0.488-0.183,0.697,0.082c0.248,0.31,0.24,0.671,0.25,1.027l0,0c0.004,0.567-0.904,1.233-1.189,1.438
						c-1.467,1.367-3.803,0.61-4.482-1.454c-0.264-0.058-0.588-0.229-0.777,0.001c-0.219,0.267,0.109,0.501,0.24,0.713
						c1.033,1.663,2.732,2.347,4.58,1.865c1.541-0.553,2.699-3.353,2.742-4.196c0.021-0.403,0.004-0.81,0.004-1.269
						c0.584,0.241,0.527,0.646,0.508,1.07c-0.049,1.163-0.562,2.128-1.217,3.045c-0.219,0.306-0.398,0.641-0.594,0.963
						c0.504,0.14,1.105-0.126,1.131-0.454c0.062-0.826,0.713-1.266,0.994-1.93c0.287-0.676,0.721-1.204,1.629-1.191
						c0.547,0.008,1.025-0.38,1.205-0.979C67.627,41.562,67.549,41.5,67.471,41.438z"/>
					<path fill-rule="evenodd" clip-rule="evenodd" fill="#212121" d="M68.385,33.21c0.002,0.001,0.002,0.003,0.004,0.004
						c0,0.002,0.002,0.002,0.002,0.002c0.266,0.013,0.422,0.357,0.773,0.229c-0.227-0.882-0.41-1.777-0.98-2.529l-0.008,0.007
						c0.186,0.818,0.354,1.631-0.539,2.184c0.898,1.864,1.393,3.883,2.047,5.827c0.492,1.46,0.842,3.044,0.84,4.641
						c0.654-0.315,0.092-1.009,0.547-1.509c0.1,0.566,0.199,1.067,0.271,1.572c0.033,0.23,0.084,0.399,0.363,0.366
						c0.014-0.086,0.029-0.173,0.045-0.26c0.068-0.58-0.293-1.481,0.434-1.598c0.387-0.062,0.977,0.771,1.006,1.5
						c0.387,0.089,0.621,0.366,0.828,0.678c0.691,0.097,0.953,0.383,0.656,1.12c-0.605,1.496-1.312,2.884-2.658,3.88
						c-0.408,0.305-0.783,0.381-1.24,0.332c-0.465,0.107-0.93,0.216-1.482,0.345c0.059-1.306,0.293-2.548,0.965-3.688
						c0.029-0.328,0.176-0.665-0.172-1.095c-1.66,2.974-1.766,6.523-3.82,9.238c0.939,0.015,2.723-0.364,2.719-0.02
						c0.438-0.393,4.807-5.715,5.211-6.269c0.01-0.017,1.059-1.465,1.059-1.462c0.201-0.279,0.604-1.146,0.613-1.303
						c0.135-2.346,0.088-4.703,0.102-7.055h-1.658c-0.344,0.528-0.688,1.06-0.945,1.65c-0.375-0.319-0.078-0.738-0.346-1.011
						c-0.361,0.061-0.229,0.778-0.676,0.603c-0.395-0.155-0.141-0.62-0.225-0.936c-0.449-1.669-0.906-3.336-1.355-5.006
						c-0.232-0.869-0.445-1.742-0.689-2.608c-0.178-0.627,0.031-0.771,0.602-0.539c0.785,0.319,1.572,0.637,2.375,0.963
						c0.031-0.292-0.113-0.399-0.258-0.485c-3.529-2.087-6.561-4.87-9.959-7.132c-1.613-1.071-3.32-2.001-4.887-3.147
						c-0.053-0.02-0.107-0.04-0.162-0.06c0.057,0.018,0.113,0.035,0.17,0.052c0.447,0.134,0.895,0.269,1.342,0.401
						c-0.768-0.873-1.738-1.378-2.742-1.82c-0.299-0.131-0.807-0.081-0.658-0.589c0.164-0.557,0.611-0.138,0.875-0.092
						c1.545,0.274,3.139,0.379,4.607,1.11c-0.711-1.044-1.666-1.77-2.736-2.36c-0.178-0.098-0.404-0.109-0.576-0.211
						c-0.934-0.552-1.088-0.938-0.488-1.574h-0.516v-0.112c-0.287,0.308-0.645,0.443-1.234-0.019
						c-0.484-0.376-0.896-0.188-0.648,0.544c0.121,0.354-0.025,0.473-0.355,0.585c-1.752,0.596-3.201,1.575-4.719,2.73
						c-0.971,0.739-2.199,1.17-3.264,1.821c-3.678,2.253-6.656,5.282-9.607,8.403c-2.768,2.93-3.162,8.351-3.059,10.506
						c0.046,0.935-0.035,2.544,0.109,3.718c0.146,1.174,2.025,4.987,2.547,6.304c0.1,0.261,1.582,2.09,1.184,1.15
						c-0.137-0.235-0.259-0.479-0.412-0.706c-0.551-0.808-0.839-1.562,0.348-2.073c-1.335-0.503-2.323-2.832-1.718-4.07
						c0.235,0.176,0.147,0.447,0.178,0.664c0.075,0.527,0.146,0.909,0.819,0.507c0.307-0.184,0.748-0.151,0.834,0.297
						c0.072,0.368-0.252,0.538-0.602,0.547c-0.854,0.021-0.576,0.417-0.287,0.83c1.658,2.371,4.706,2.487,5.922,0.215
						c0.383-0.717,0.474-1.514,0.488-2.323c0.455-0.029,0.317,0.621,0.854,0.602c0.08-1.345-0.872-2.142-1.586-3.053
						c-1.346-0.947-2.807-1.664-4.438-1.908c-1.25-0.188-2.484-0.052-3.467,0.843c-0.328-0.834-0.299-1.665-0.299-2.493
						c0.001-1.32,0.029-1.849,0.205-2.611c0.554-2.395,1.035-4.803,2.879-6.663c3.771-3.805,7.614-7.503,12.537-9.83
						c0.779-0.368,1.297-0.732,2.256-0.948c0.035-0.036,0.232-0.016,0.262-0.057c0.682-0.083,1.305,0.122,1.865,0.464
						c3.934,2.402,7.803,4.887,11.486,7.683c2.281,1.731,2.912,4.298,4.033,6.614c0.715,1.475,1.158,3.108,1.479,4.746
						c0.053,0.265,0.066,0.537,0.117,0.968c-0.668-0.455-0.799-1.094-1.068-1.595c-0.812-1.518-1.893-2.905-2.311-4.619
						c-0.002,0-0.004,0-0.004,0C68.385,33.215,68.385,33.212,68.385,33.21 M38.773,46.684c0.756,0.656,1.611,0.497,2.473,0.384
						c0.031-0.039,0.069-0.069,0.113-0.094c0.167-0.355,0.285-0.863,0.783-0.737c0.363,0.089,0.137,0.519,0.146,0.802
						c0.215,0.405-0.095,0.58-0.343,0.78c-0.875,1.196-2.965,0.87-4.015-0.819c-0.078-0.126-0.168-0.267-0.035-0.355
						C38.184,46.446,38.537,46.478,38.773,46.684z M75.43,43.302c-0.006,0.246-0.037,0.618-0.357,0.662
						c-0.332,0.046-0.549-0.226-0.705-0.514c-0.504-0.944-0.213-1.865,0.125-2.76c0.166-0.44,0.477-0.824,0.723-1.234
						c0.074,0.016,0.15,0.032,0.227,0.049C75.441,40.77,75.455,42.037,75.43,43.302z"/>
					<path fill-rule="evenodd" clip-rule="evenodd" fill="#212121" d="M51.383,36.788c-0.396,0.13-0.93,0.152-1.012,0.745
						c0.361,0.386,0.76,0.537,1.299,0.347c1.201-0.425,2.439-0.753,3.621-1.221c2.152-0.853,4.41-1.017,6.676-1.184
						c0.199-0.065,1.891-0.082,2.629-0.629C63.412,34.313,54.59,35.738,51.383,36.788z"/>
				</g>
				<g>
					<path fill="#C62828" d="M47.121,57.623c0,0,0.456-0.309,1.097-0.543c0.646-0.256,1.484-0.437,2.311-0.508
						c0.421-0.016,0.816-0.061,1.214-0.029c0.391,0.018,0.739,0.02,1.079,0.087c0.172,0.028,0.305,0.029,0.444,0.049
						c0.133,0.008,0.263,0.033,0.37,0.049c0.219,0.036,0.362,0.068,0.362,0.068s-0.059,0.114-0.195,0.293
						c-0.069,0.086-0.155,0.198-0.269,0.306c-0.11,0.108-0.244,0.26-0.398,0.34c-0.301,0.201-0.688,0.423-1.107,0.559
						c-0.416,0.122-0.881,0.249-1.333,0.271c-0.915,0.072-1.824-0.065-2.488-0.341C47.537,57.982,47.121,57.623,47.121,57.623z"/>
				</g>
				<path fill-rule="evenodd" clip-rule="evenodd" fill="#424242" d="M57.863,20.699c0.445,0.135,0.893,0.269,1.34,0.401
					c-0.768-0.873-3.703-1.973-3.555-2.48c0.162-0.557,4.17,0.358,5.637,1.091c-0.709-1.045-4.025-2.966-4.199-3.067
					c-1.025-0.607,2.998-4.199,2.865-4.396c-0.1-0.145-0.414-0.261-0.205-0.479c0.15-0.16,0.363-0.222,0.652-0.109
					c6.209,2.41,11.338,6.091,14.316,12.254c1.84,3.808,1.713,7.761,0.807,11.791c-0.377,1.672-1.592,2.795-2.248,4.302
					c-0.377-0.319-0.078-0.738-0.346-1.01c-0.363,0.061-0.23,0.776-0.676,0.601c-0.396-0.155-0.141-0.619-0.225-0.934
					c-0.451-1.669-0.906-3.337-1.355-5.005c-0.234-0.871-0.447-1.745-0.691-2.61c-0.176-0.626,0.031-0.771,0.604-0.539
					c0.785,0.318,1.57,0.638,2.375,0.963c0.031-0.293-0.113-0.4-0.26-0.486c-3.527-2.086-6.559-4.869-9.959-7.131
					c-1.611-1.072-3.318-2.001-4.885-3.147L57.863,20.699z M67.809,21.667c1.006,1.483,2.305,2.733,3.307,4.224
					c1.168,1.732,2.291,3.495,2.709,5.573c0.08,0.393-0.018,0.896,0.455,0.827c0.502-0.071,0.254-0.62,0.211-0.969
					c-0.033-0.271-0.145-0.534-0.236-0.796C73.004,26.925,70.486,24.234,67.809,21.667z"/>
				<path fill-rule="evenodd" clip-rule="evenodd" fill="#424242" d="M75.881,37.718c0.002-0.132,0.033-0.263,0.168-0.41
					c0.51,0.862,0.447,1.873,0.51,2.799c0.332,4.812,1.09,9.575,1.5,14.377c0.5,5.874,1.33,11.704,2.453,17.496
					c0.383,1.973,0.025,5.075-0.252,5.396c-1.213-3.523-2.65-5.429-3.248-9.082c-0.307,0.756,0.008,1.466,0.078,2.183
					c0.072,0.744,0.254,1.479,0.398,2.27c-0.49,0.066-4.162-0.718-5.588-2.361c-1.109-1.607-1.352-3.488-1.703-5.312
					c-0.758-3.925-0.43-7.844,0.105-11.783c0.227-1.658,0.912-2.661,2.346-3.337c0.762-0.358,1.104-1.122,1.482-1.827
					C74.365,47.688,75.852,40.281,75.881,37.718z"/>
				<path fill-rule="evenodd" clip-rule="evenodd" fill="#424242" d="M68.898,52.415c0.459,0.442,0.475,8.356,0.434,12.074
					c-0.02,1.755,0.627,4.215,1.234,5.9c-2.461,0-4.467-3.144-4.596-4.883c0.078-3.833-1.43-3.599-4.594-5.32
					C62.145,59.606,68.602,52.779,68.898,52.415z"/>
				<path fill-rule="evenodd" clip-rule="evenodd" fill="#424242" d="M75.348,39.511c0,1.267,0.016,2.533-0.012,3.797
					c-0.004,0.247-0.035,0.62-0.357,0.663c-0.332,0.046-0.549-0.225-0.703-0.514c-0.504-0.943-0.215-1.866,0.125-2.76
					c0.166-0.439,0.477-0.825,0.721-1.234C75.197,39.479,75.273,39.495,75.348,39.511z"/>
				<path fill-rule="evenodd" clip-rule="evenodd" fill="#424242" d="M22.801,60.031c-1.199-1.479-1.986-2.88-1.45-4.815
					C22.074,56.773,22.508,58.281,22.801,60.031z"/>
				<g>
					<path fill-rule="evenodd" clip-rule="evenodd" fill="#424242" d="M15.354,43.128c0,0.425,0.32,2.275,0.53,2.568
						c0.149,0.208,0.347,0.364,0.665,0.382c0.622,0.039,4.104-12.712,4.44-13.399C21.562,31.501,16.666,35.746,15.354,43.128z"/>
					<path fill-rule="evenodd" clip-rule="evenodd" fill="#424242" d="M20.926,32.594c0,0.005-0.002,0.011-0.002,0.017
						c0.004-0.003,0.008-0.007,0.012-0.009L20.926,32.594z"/>
				</g>
				<path fill-rule="evenodd" clip-rule="evenodd" fill="#424242" d="M20.756,53.434c0.488,0.996,0.006,1.769,0,2.532
					C20.756,55.202,20.756,54.438,20.756,53.434z"/>
				<path fill-rule="evenodd" clip-rule="evenodd" fill="#F7BA9D" d="M20.936,32.602c0.021-0.091,0.043-0.183,0.063-0.273
					c0.028,0.013,0.058,0.027,0.087,0.041c-0.054,0.075-0.107,0.149-0.16,0.225L20.936,32.602z"/>
				<path fill-rule="evenodd" clip-rule="evenodd" fill="#F7BA9D" d="M21.354,52.208c0.052,0.071,0.104,0.142,0.15,0.217
					c0.003,0.003-0.045,0.038-0.068,0.059c-0.035-0.087-0.071-0.172-0.105-0.256L21.354,52.208z"/>
				<path fill-rule="evenodd" clip-rule="evenodd" fill="#F7BA9D" d="M36.467,49.403c0.024,0.059,0.055,0.115,0.068,0.177
					c0.004,0.016-0.047,0.043-0.072,0.065c-0.024-0.059-0.055-0.115-0.069-0.177C36.391,49.454,36.44,49.427,36.467,49.403z"/>
				<path fill-rule="evenodd" clip-rule="evenodd" fill="#F7BA9D" d="M57.855,20.707c-0.055-0.02-0.109-0.039-0.164-0.06
					c0.059,0.018,0.113,0.035,0.172,0.052L57.855,20.707z"/>
				<path fill-rule="evenodd" clip-rule="evenodd" fill="#212121" d="M44.255,16.194c1.228-0.995,2.559-1.553,4.093-2.334
					c-2.484-0.194-4.52,0.399-6.449,1.328c-5.324,2.563-10.023,5.906-13.267,11.048c0.028-0.608,0.024-0.612,0.282-1.001
					c2.324-3.527,5.518-6.099,9.059-8.305c2.434-1.515,4.961-2.783,7.789-3.38c0.999-0.21,2.004-0.137,3.01-0.132
					c0.379,0.002,0.619,0.232,0.65,0.545c0.039,0.356-0.342,0.234-0.547,0.306c-1.354,0.461-2.621,1.107-3.861,1.809
					C44.837,16.178,44.684,16.334,44.255,16.194z"/>
				<path fill-rule="evenodd" clip-rule="evenodd" fill="#212121" d="M67.809,21.667c2.678,2.567,5.195,5.258,6.445,8.859
					c0.092,0.262,0.203,0.525,0.236,0.796c0.043,0.349,0.291,0.897-0.211,0.969c-0.473,0.069-0.375-0.435-0.455-0.827
					c-0.418-2.078-1.541-3.841-2.709-5.573C70.113,24.4,68.814,23.15,67.809,21.667z"/>
				<path fill-rule="evenodd" clip-rule="evenodd" fill="#212121" d="M76.975,53.727c0.742,4.902,1.043,11.26,0.072,11.438
					C77.273,63.482,76.945,56.205,76.975,53.727z"/>
				<path fill-rule="evenodd" clip-rule="evenodd" fill="#718195" d="M67.998,30.639"/>
				<path fill-rule="evenodd" clip-rule="evenodd" fill="#424242" d="M57.516,11.907c-2.186-1.882-4.504-3.317-7.502-3.812
					c-4.753-0.782-8.873,0.407-12.662,3.119c-2.423,1.733-4.271,4.053-6.117,6.365c-3.425,4.288-6.672,8.684-8.942,13.726
					c-2.143,4.762-3.946,9.633-5.038,14.748c-0.232,1.091-0.145,2.155,0.525,3.084c0.939,1.302,2.182,2.272,3.551,3.09l0.023-0.02
					c-0.723-5.057,0.678-9.766,2.328-14.431c-0.018,0.637-0.137,1.259-0.314,1.864c-0.805,2.738-1.24,4.51-1.377,7.403
					c-0.188,3.968,3.078,9.938,1.516,7.998c-0.35-0.435-0.691-1.023-1.469-1.007c0.428,1.88,0.883,3.689,1.246,5.518
					c0.635,3.19,0.771,6.396,0.079,9.604c-0.264,2.018-1.002,3.852-2.136,5.53c-0.861,1.272-3.397,5.357-4.594,6.052
					c0.705-0.17,3.667-2.137,3.558-1.977c-1.647,2.422-2.47,5.117-2.63,8.027c-0.496,2.052-0.705,6.149,3.104,10.562
					c0.404,0.471,2.355,2.261,2.764,2.087c0.393-0.166,0.779-2.067,0.52-2.564c-0.613-1.165-0.818-2.416-0.832-3.714
					c0.455,1.188,0.638,2.477,1.386,3.57c0.755-0.645,0.96-1.281,0.425-2.184c-0.924-1.556-1.023-3.281-0.791-5.045
					c0.121-0.921,0.191-1.849,0.285-2.771c-2.445,2.308-2.805,5.352-3.305,8.346c-0.355-1.997-0.041-3.862,0.641-5.734
					c0.947-2.596,3.062-4.248,4.76-6.24c0.225-0.265,0.626-0.453,0.551-0.863c-0.299-1.641-0.989-5.461-0.795-6.039
					c0.725-2.159,0.264-4.225,1.637-6.07c1.521-2.043,2.098-4.411,2.85-6.732c0.488-1.502,0.707-3.072,0.935-4.637
					c0.243,2.649-0.739,5.112-1.197,7.665c0.406,0.053,0.556-0.484,1.06-0.254c-1.844,1.752-3.329,3.718-4.273,6.048
					c-0.799,1.974-0.936,4.818-0.34,7.451c0.105-0.585,0.229-1.02,0.253-1.458c0.817-2.771,1.278-4.801,2.878-6.892
					c0.146-0.191,4.129-4.479,4.852-5.137c1.812-1.655,3.411-3.525,3.957-5.959c0.823-3.67-0.554-6.899-2.025-10.106
					c-0.031-0.064-0.166-0.08-0.389-0.179c0.264,1.847,0.362,3.608,0.298,5.375c-0.065,1.797-0.356,3.539-1.293,5.12
					c0.176-1.108,0.552-2.176,0.728-3.273c0.649-4.03-0.099-7.921-1.307-11.754c-0.137-0.434-0.281-0.529-0.727-0.225
					c-0.688,0.471-1.416,0.401-2.164-0.22c0.307-0.059,0.508-0.088,0.705-0.137c1.32-0.331,1.563-0.605,1.553-2.001
					c-0.009-0.935-0.131-1.866-0.176-2.803c-0.105-2.155,0.059-4.284,0.721-6.37c-1.188,1.34-2.43,2.682-2.959,4.351
					c-0.746,2.356-3.981,9.464-4.157,10.295c-0.479,2.264-0.312,4.554,0.229,6.808c0.17,0.707,0.33,1.416,0.494,2.124
					c-0.44-0.654-0.68-1.363-0.899-2.078c-0.431-1.399-0.728-2.849-0.645-4.296c0.255-4.477,1.825-8.553,3.964-12.451
					c1.76-3.213,3.924-6.126,6.311-8.887c2.809-3.25,5.929-6.151,9.607-8.402c1.062-0.653,2.338-1.026,3.264-1.823
					c1.422-1.225,2.965-2.136,4.719-2.729c0.33-0.112,0.475-0.231,0.354-0.586c-0.248-0.731,0.166-0.921,0.648-0.542
					c0.877,0.685,1.244,0.05,1.623-0.505C58.139,13.781,58.205,12.499,57.516,11.907z M18.225,88.925
					c-0.213-3.697,0.603-7.132,2.615-10.263c0.075-0.117,0.38-0.489,0.545-0.788c0.168-0.197,0.324-0.466,0.754-0.518
					c-2.682,4.107-4.153,8.408-3.146,13.457c0.171-2.772,0.743-5.227,2.038-7.482c0.055,0.459-0.163,0.851-0.328,1.26
					c-0.168,0.413-0.317,0.833-0.446,1.261c-0.722,2.381-0.718,7.97-0.751,8.312C18.906,93.555,18.232,89.059,18.225,88.925z
					 M48.875,14.27c-1.354,0.461-2.621,1.107-3.861,1.809c-0.177,0.1-0.33,0.256-0.759,0.116c1.228-0.995,2.559-1.553,4.093-2.334
					c-2.484-0.194-4.52,0.399-6.449,1.328c-5.324,2.563-10.023,5.906-13.267,11.048c0.028-0.608,0.024-0.612,0.282-1.001
					c2.324-3.527,5.518-6.099,9.059-8.305c2.434-1.515,4.961-2.783,7.789-3.38c0.999-0.21,2.004-0.137,3.01-0.132
					c0.379,0.002,0.619,0.232,0.65,0.545C49.461,14.32,49.08,14.198,48.875,14.27z"/>
				<path fill-rule="evenodd" clip-rule="evenodd" fill="#212121" d="M37.083,47.19 M34.763,36.461
					c0.28-1.868,1.035-4.804,2.88-6.663c3.77-3.805,7.613-7.503,12.537-9.83c0.779-0.368,1.525-0.833,2.424-0.887
					c0.033-0.037,0.064-0.076,0.094-0.119c0.68-0.081,1.303,0.123,1.865,0.466c3.934,2.402,7.803,4.886,11.484,7.681
					c2.281,1.732,2.912,4.3,4.033,6.615c0.715,1.476,1.16,3.109,1.48,4.746c0.053,0.265-1.127,3.514-1.129,5.11
					c0.654-0.315,0.746-0.441,0.818,0.064c0.031,0.229,0.195,0.545,0.361,0.365c0.207-0.164,0.609-0.828,1.328-0.664
					c1.479,0.339,1.646,1.671,1.348,2.409c-0.604,1.495-0.816,1.974-2.234,2.947c-1.619,1.113-1.99-0.965-1.887-2.381
					c0.029-0.329,0-1.505-0.172-1.098c0,0-3.729,7.517-6.17,10.987c-1.604,2.283-5.834,3.235-5.834,3.235
					c1.504,0.313,7.293,2.179,7.568,5.14c0.645,6.916,6.262,6.58,11.416,8.692c1.693,0.697,2.441,3.763,3.26,6.086
					c0.803-1.008,0.77-3.823,0.939-4.494c0.236-3.194-0.438-4.947-0.883-8.058c-0.195-1.35-0.318-2.714-0.656-4.059
					c0.691,0.589,0.988,1.391,1.271,2.16c1.133,3.081,1.459,5.727,0.977,9.044c-0.062,0.437-0.711,3.478-0.949,4.119
					c0.424,0.012,2.555-6.618,1.699-9.909c-1.34-5.168-2.994-10.076-3.895-15.304c-1.266-7.369-1.682-14.814-1.889-22.289
					c-0.178-6.377-2.912-11.606-8.209-15.271c-3.283-2.272-6.736-4.301-10.738-5.121c-0.23-0.047-0.445-0.189-0.65-0.315
					c-2.078-1.261-4.326-2.022-6.727-2.398c-4.297-0.67-8.328-0.165-12.138,2.134c-3.302,1.99-5.784,4.776-8.002,7.801
					c-4.168,5.681-8.347,11.359-12.165,17.287c-1.591,2.469-2.881,5.082-3.234,8.05c-0.172,1.436,0.084,2.784,1.252,3.779
					c0.303,0.259,0.299,0.528,0.264,0.83c-0.116,1.022,0.316,1.807,0.99,2.526c0.621,0.66,1.283,1.271,2.016,1.801
					c0.492,0.358,0.734,0.787,0.646,1.42c-0.34,2.444,0.506,4.572,1.789,6.582c0.373,0.582,0.915,1.172,0.996,1.806
					c0.359,2.834,0.521,5.692-0.241,8.49c-1.136,4.179-3.11,7.478-6.201,10.344c-0.47,0.437-1.017,0.817-1.855,0.685
					c1.368,0.332,3.476-0.543,3.997-0.543c-0.58,1.466-1.09,2.892-1.371,4.372c-1.037,5.448,0.373,11.056,5.068,14.604
					c0.648,0.707,0.267,1.318,0.025,2.108c-0.918,3.015-0.902,6.103,0.585,8.897c0.956,1.798,1.782,2.1,3.804,3.455
					c0.913-1.191,1.17-1.628,1.593-1.729c3.61-0.852,4.808-5.209,4.211-8.14c-0.194-0.956-1.749-4.149-2.17-4.637
					c-0.782-0.906-0.444-1.255,0.391-1.781c2.099-1.319,4.138-2.734,5.903-4.58c-0.027,0.454-0.05,0.908-0.072,1.36
					c1.031-1.163,0.161-3.725,1.613-4.454c5.554,1.69,4.983-2.611,4.964-2.421c-0.091,1.363-2.356,1.906-2.485,1.954
					c0.419,0.25,0.838,0.094,1.229,0.151c-1.489,1.056-2.931,0.304-3.185-1.728c-0.104-0.831-0.018-1.687,0.094-2.592
					c0.494,0.862,0.996,1.692,1.752,2.321c0.938,0.78,1.82,0.629,2.595-0.107c-1.458,0.336-3.741-0.101-2.649-3.305
					c0.064-0.191-0.794,0.597-0.963,1.152c-0.807-1.9-0.908-3.632-0.594-5.381c0.244-1.373,0.698-2.673,1.678-3.747
					c2.527-2.773,4.213-9.27,1.049-14.84c-0.202-0.355-0.957-1.762-1.328-2.26c-0.537-0.722-2.053-7.002-2.451-7.941
					c-1.037-2.732-2.062-4.902-2.324-6.206C35.339,43.686,34.482,38.332,34.763,36.461z M16.566,45.983
					c-0.284,0.148-0.484-0.167-0.633-0.375c-0.33-0.459,0.062-0.471,0.358-0.528c-0.573-0.32-0.776-0.809-0.777-1.463
					c-0.004-2.599,1.132-4.819,2.319-7.015c0.262-0.486,1.902-3.533,3.09-3.996c-0.145,0.906-0.568,1.712-0.925,2.541
					c-1.144,3.15-2.288,6.302-3.116,9.557c-0.033,0.127-0.108,0.244-0.164,0.367C16.658,45.379,16.941,45.79,16.566,45.983z
					 M20.756,55.966c0-0.764,0-1.528,0-2.532C21.244,54.43,20.762,55.202,20.756,55.966z M21.351,55.216
					c0.724,1.558,1.157,3.065,1.45,4.815C21.602,58.552,20.814,57.151,21.351,55.216z M31.539,107.994
					c-0.477,1.735-1.64,3.168-3.221,3.756c-0.234-0.445-0.223-0.831,0.145-1.422c-0.367,0.241-0.491,0.464-0.829,0.53
					c-0.304-0.525-0.198-0.908-0.102-1.727c-0.595,0.296-0.277,2.303-0.523,2.604c-0.364,0.446-1.303,0.67,0.073,0.924
					c0.025,0.004-1.672,0.8-2.537-1.641c-0.616-1.737-0.381-3.573,0.131-5.341c0.135-0.464,0.321-0.913,0.542-1.534
					c1.343,1.068,2.436,3.164,3.202,5.704c0.215-2.071-0.617-3.799-1.893-5.313c-1.044-1.242-1.12-1.525-0.105-2.754
					c0.219-0.267,0.451-0.523,0.746-0.863c0.972,1.247,1.439,2.719,2.09,4.331c0.119-1.546-0.496-2.654-1.068-3.745
					c-0.686-1.302-0.734-1.287,0.582-2.205c0.467-0.34,0.626-0.197,0.828,0.091C31.41,101.976,32.454,104.574,31.539,107.994z
					 M37.535,89.039c-0.926,3.103-2.965,5.2-5.52,7.002c-1.832,1.291-3.776,2.469-5.199,4.284c-2.09,2.669-3.377,5.616-3.359,9.06
					c0,0.204-0.016,0.408-0.025,0.612c-1.293-3.15-0.593-9.493,0.932-11.686c0.711-1.021,1.338-2.107,1.91-3.212
					c0.475-0.917,1.087-1.783,1.256-2.841c0.166-1.024,0.355-2.044,0.285-3.287c0.681,2.064,0.299,3.916-0.136,6.002
					c1.444-2.203,1.185-6.345-0.436-8.234c-0.036,2.939,0.289,5.857-1.431,8.424c-1.865-2.504-1.045-9.586,1.375-11.598
					c0.617,1.851,1.064,3.777,2.725,5.015c-1.068-1.416-1.787-2.983-2.203-4.713c-0.139-0.583-0.054-0.995,0.365-1.402
					c2.045-1.987,4.02-4.033,5.293-6.731c0.598,0.547,0.941,5.063,0.344,6.704c-0.451,1.231-0.173,2.585-0.334,3.878
					c-0.346,2.768-1.201,5.329-2.812,7.622c-0.093,0.132-0.143,0.295-0.252,0.523c0.662-0.446,1.105-1.02,1.725-2.157
					c0.684-1.258,1.194-2.589,1.511-3.98c0.176-0.773,0.478-0.907,1.222-0.219c-0.268-1.177-0.723-2.066-0.798-3.085
					c-0.128-1.739,1.299-3.792,2.731-5.168c0.588-0.562,0.912-0.158,1.029,0.356C38.405,83.168,38.417,86.087,37.535,89.039z
					 M34.383,73.613c0.369-0.469,2.49,3.2,1.812,4.33c-0.512,0.855-1.084,1.63-1.777,2.375
					C34.969,78.339,33.47,74.779,34.383,73.613z M39.336,60.86c2.076,2.164,3.414,4.475,3.439,7.284
					c0.053,5.528-2.598,8.764-6.825,11.3c0.459-1.156,1.343-1.834,2.087-2.612c0.813-0.852,1.615-1.679,2.119-2.788
					c0.463-1.021,0.676-2.029,0.486-3.153c-0.079,2.285-1.391,3.908-2.836,5.479c-0.418,0.453-1.912-2.062-2.594-3.056
					c-0.537-0.781-0.799-3.514-1.289-3.477c-0.363,0.027-1.266,6.663-3.197,9.136c-0.895,1.146-2.004,2.092-3.211,3.171
					c-0.289-1.582,0.236-4.658,2.836-8.969C31.572,71.151,39.469,63.707,39.336,60.86z M55.734,15.436
					c-0.482-0.379-0.896-0.189-0.648,0.542c0.121,0.354-0.023,0.474-0.354,0.586c-1.754,0.594-12.672,4.774-18.072,12.446
					c-2.1,2.985-4.068,6.183-5.828,9.396c-2.139,3.898-3.709,7.975-3.964,12.451c-0.083,1.447,0.214,2.896,0.645,4.296
					c0.22,0.715,0.459,1.424,0.899,2.078c-0.164-0.708-0.379-1.406-0.494-2.124c-0.786-4.908,1.234-9.27,1.301-9.246
					c0.197,0.068-2.156,8.537,1.062,12.327C28.893,54.013,30.09,48.402,30.4,45.3c0.251-2.495,1.027-4.544,1.773-6.899
					c0.529-1.669,1.443-3.407,2.631-4.747c-0.662,2.086-0.826,4.215-0.721,6.37c0.045,0.937,0.167,1.868,0.176,2.803
					c0.011,1.396-0.232,1.67-1.553,2.001c-0.197,0.049-0.398,0.078-0.705,0.137c0.748,0.621,1.477,0.69,2.164,0.22
					c0.445-0.305,0.59-0.209,0.727,0.225c1.208,3.833,1.956,7.724,1.307,11.754c-0.176,1.098-0.552,2.165-0.728,3.273
					c0.937-1.581,1.228-3.323,1.293-5.12c0.064-1.767-0.034-3.528-0.298-5.375c0.223,0.099,3.237,6.615,2.414,10.285
					c-0.546,2.434-1.637,3.558-3.807,5.254c-4.403,3.439-7.592,8.938-7.88,12.733c-0.033,0.438-0.147,0.873-0.253,1.458
					c-0.596-2.633-0.459-5.478,0.34-7.451c0.944-2.33,2.43-4.296,4.273-6.048c-0.504-0.23-0.653,0.307-1.06,0.254
					c0.458-2.553,1.44-5.016,1.197-7.665c-0.228,1.564-2.264,9.326-3.784,11.369c-1.373,1.846-3.14,7.446-2.928,8.146
					c0.422-0.641,0.553-0.84,1.092-0.981c0.305,1.677,0.602,3.317,0.9,4.958c0.075,0.41-0.232,0.586-0.457,0.851
					c-1.698,1.992-3.812,3.645-4.76,6.24c-0.682,1.872-0.996,3.737-0.641,5.734c0.5-2.994,0.859-6.038,3.305-8.346
					c-0.094,0.923-0.164,1.851-0.285,2.771c-0.232,1.764-0.133,3.489,0.791,5.045c0.535,0.902,0.33,1.539-0.425,2.184
					c-0.748-1.094-0.931-2.382-1.386-3.57c0.014,1.298,0.219,2.549,0.832,3.714c0.26,0.497-0.198,2.179-0.657,2.408
					c-0.206,0.104-2.153-1.865-2.535-2.308c-1.495-1.392-3.612-3.705-3.194-10.186c0.785-5.573,3.442-8.798,3.442-8.798
					c-0.608,0.12-1.542,0.79-2.264,1.37c-0.241,0.168-0.537,0.312-0.852,0.448c1.333-1.487,2.795-3.929,3.421-4.855
					c1.135-1.678,1.79-3.78,2.054-5.798c0.692-3.207,0.556-6.413-0.079-9.604c-0.363-1.828-0.818-3.638-1.246-5.518
					c0.777-0.017,1.119,0.572,1.469,1.007c1.562,1.939,3.132,3.873,4.201,6.161c0.71,1.52-0.523,5.833-2.053,6.961
					c-0.238,0.175,1.514-0.398,2.26-1.875c1.108-2.191,1-6.431,0.751-6.586c-0.04,0.572-0.079,1.143-0.12,1.715
					c-0.699-1.989-2.181-3.396-3.354-4.993c-1.84-2.51-2.725-5.348-3.014-8.395c-0.271-2.886,1.895-9.962,1.504-10.254
					c-1.65,4.665-3.051,9.374-2.328,14.431l-0.023,0.02c-1.369-0.817-2.611-1.788-3.551-3.09c-0.67-0.929-0.758-1.993-0.525-3.084
					c1.092-5.115,2.896-9.986,5.038-14.748c2.271-5.042,5.518-9.438,8.942-13.726c1.846-2.312,3.694-4.632,6.117-6.365
					c3.789-2.712,7.909-3.901,12.662-3.119c2.998,0.494,5.316,1.93,7.502,3.812c0.689,0.592,0.623,1.874-0.158,3.023
					C56.979,15.485,56.611,16.12,55.734,15.436z M73.273,40.006c-0.377-0.319-0.078-0.738-0.346-1.01
					c-0.363,0.061-0.23,0.776-0.676,0.601c-0.396-0.155-0.141-0.619-0.225-0.934c-0.451-1.669-0.906-3.337-1.355-5.005
					c-0.234-0.871-0.447-1.745-0.691-2.61c-0.176-0.626,0.031-0.771,0.604-0.539c0.785,0.318,1.57,0.638,2.375,0.963
					c0.031-0.293-0.113-0.4-0.26-0.486c-3.527-2.086-6.559-4.869-9.959-7.131c-1.611-1.072-3.318-2.001-4.885-3.147
					c-0.055-0.02-0.109-0.039-0.164-0.06c0.059,0.018,0.113,0.035,0.172,0.052c0.445,0.135,0.893,0.269,1.34,0.401
					c-0.768-0.873-1.738-1.377-2.742-1.819c-0.297-0.132,3.357-0.303,4.824,0.43c-0.709-1.045-3.139-2.469-3.312-2.571
					c-1.025-0.607-1.113-1.014-0.287-1.774c0.85-0.781,2.398-2.921,2.266-3.118c-0.1-0.145-0.414-0.261-0.205-0.479
					c0.15-0.16,0.363-0.222,0.652-0.109c6.209,2.41,11.338,6.091,14.316,12.254c1.84,3.808,1.713,7.761,0.807,11.791
					C75.145,37.376,73.93,38.499,73.273,40.006z M74.275,43.457c-0.504-0.943-0.215-1.866,0.125-2.76
					c0.166-0.439,0.477-0.825,0.721-1.234c0.076,0.016,0.152,0.032,0.227,0.048c0,1.267,0.016,2.533-0.012,3.797
					c-0.004,0.247-0.035,0.62-0.357,0.663C74.646,44.017,74.43,43.746,74.275,43.457z M66.229,63.463
					c-0.248-1.509-3.791-3.029-4.408-3.276c-0.156,0.025,4.539-2.417,7.016-7.563c0.131-0.272,0.361,8.211,0.32,11.931
					c-0.021,1.753,0.387,3.458,0.992,5.144C68.646,69.612,67.271,69.836,66.229,63.463z M80.512,71.979
					c0.383,1.973-0.055,4.85-0.33,5.17c-1.215-3.523-2.572-5.203-3.17-8.856c-0.672,0.57,0.332,3.661,0.477,4.452
					c-0.49,0.066-5.244-1.865-5.588-2.361c-1.109-1.607-1.352-3.488-1.703-5.312c-0.758-3.925-0.43-7.844,0.105-11.783
					c0.227-1.658,0.912-2.661,2.346-3.337c0.762-0.358,1.104-1.122,1.482-1.827c0.234-0.436,0.363-0.952,1.029-1.421
					c0,2.093-0.027,3.983,0.006,5.871c0.062,3.542,0.439,7.053,1.1,10.534c0.023,0.123,0.105,0.237,0.164,0.354
					c-0.26-3.413-0.588-6.823-0.75-10.242c-0.125-2.599-0.055-5.205,0.094-7.812c0.148-2.557,0.078-5.128,0.107-7.691
					c0.002-0.132,0.033-0.263,0.168-0.41c0.51,0.862,0.447,1.873,0.51,2.799c0.332,4.812,1.09,9.575,1.5,14.377
					C78.559,60.357,79.389,66.188,80.512,71.979z M79.217,58.851c0.531,0.921,0.719,1.94,0.883,2.969
					C79.594,60.89,79.332,59.89,79.217,58.851z"/>
			</g>
		</g>
	</g>
</g>
</svg>
