<?xml version="1.0" encoding="UTF-8" standalone="no"?>
<svg width="62px" height="62px" viewBox="0 0 62 62" version="1.1" xmlns="http://www.w3.org/2000/svg" xmlns:xlink="http://www.w3.org/1999/xlink">
    <!-- Generator: Sketch 39.1 (31720) - http://www.bohemiancoding.com/sketch -->
    <title>中译英</title>
    <desc>Created with Sketch.</desc>
    <defs></defs>
    <g id="Page-1" stroke="none" stroke-width="1" fill="none" fill-rule="evenodd">
        <g id="角色属性-copy" transform="translate(-781.000000, -1120.000000)">
            <g id="中译英" transform="translate(781.000000, 1120.000000)">
                <circle id="Oval-Copy-15" fill="#AAD16B" cx="31" cy="31" r="31"></circle>
                <g id="noun_574770_cc" transform="translate(15.000000, 15.000000)" fill="#FFFFFF">
                    <g id="Group">
                        <path d="M28.952381,4.57142857 L29.7828571,5.40190476 C29.3531429,6.31619048 28.8685714,7.26704762 28.3352381,8.22704762 L25.9047619,7.61904762 L27.6617143,9.37752381 C27.0857143,10.3329524 26.5386667,11.1344762 25.9535238,11.9070476 L21.3333333,10.6666667 L24.3809524,13.7142857 C23.7074286,14.3878095 22.9257143,14.9546667 22.0647619,15.384381 L15.2380952,13.7142857 L18.072381,16.5485714 C15.008,17.0270476 11.8613333,17.0910476 9.14285714,19.8095238 C4.4632381,24.4891429 4.57142857,28.952381 4.57142857,28.952381 L0,32 C0,32 1.62438095,21.2327619 12.1904762,10.6666667 C22.7565714,0.100571429 32,0 32,0 C32,0 31.2868571,2.13333333 30.0419048,4.84419048 L28.952381,4.57142857 Z" id="Shape"></path>
                    </g>
                </g>
            </g>
        </g>
    </g>
</svg>