<?xml version="1.0" encoding="UTF-8" standalone="no"?>
<svg width="62px" height="62px" viewBox="0 0 62 62" version="1.1" xmlns="http://www.w3.org/2000/svg" xmlns:xlink="http://www.w3.org/1999/xlink">
    <!-- Generator: Sketch 39.1 (31720) - http://www.bohemiancoding.com/sketch -->
    <title>计算器</title>
    <desc>Created with Sketch.</desc>
    <defs></defs>
    <g id="Page-1" stroke="none" stroke-width="1" fill="none" fill-rule="evenodd">
        <g id="角色属性-copy" transform="translate(-267.000000, -1012.000000)">
            <g id="计算器" transform="translate(267.000000, 1012.000000)">
                <circle id="Oval-Copy-8" fill="#9F82D6" cx="31" cy="31" r="31"></circle>
                <g id="noun_595949_cc" transform="translate(15.000000, 10.000000)" fill="#FFFFFF">
                    <g id="Group">
                        <path d="M26,40 L6,40 C2.686,40 0,37.314 0,34 L0,6 C0,2.686 2.686,0 6,0 L26,0 C29.314,0 32,2.686 32,6 L32,34 C32,37.314 29.314,40 26,40 L26,40 Z M28,6 C28,4.896 27.104,4 26,4 L6,4 C4.896,4 4,4.896 4,6 L4,34 C4,35.104 4.896,36 6,36 L26,36 C27.104,36 28,35.104 28,34 L28,6 L28,6 Z M22,32 C20.896,32 20,31.104 20,30 C20,28.896 20.896,28 22,28 C23.104,28 24,28.896 24,30 C24,31.104 23.104,32 22,32 L22,32 Z M22,26 C20.896,26 20,25.104 20,24 C20,22.896 20.896,22 22,22 C23.104,22 24,22.896 24,24 C24,25.104 23.104,26 22,26 L22,26 Z M22,20 C20.896,20 20,19.104 20,18 C20,16.896 20.896,16 22,16 C23.104,16 24,16.896 24,18 C24,19.104 23.104,20 22,20 L22,20 Z M8,8 L24,8 L24,14 L8,14 L8,8 L8,8 Z M10,16 C11.104,16 12,16.896 12,18 C12,19.104 11.104,20 10,20 C8.896,20 8,19.104 8,18 C8,16.896 8.896,16 10,16 L10,16 Z M10,22 C11.104,22 12,22.896 12,24 C12,25.104 11.104,26 10,26 C8.896,26 8,25.104 8,24 C8,22.896 8.896,22 10,22 L10,22 Z M10,28 C11.104,28 12,28.896 12,30 C12,31.104 11.104,32 10,32 C8.896,32 8,31.104 8,30 C8,28.896 8.896,28 10,28 L10,28 Z M16,16 C17.104,16 18,16.896 18,18 C18,19.104 17.104,20 16,20 C14.896,20 14,19.104 14,18 C14,16.896 14.896,16 16,16 L16,16 Z M16,22 C17.104,22 18,22.896 18,24 C18,25.104 17.104,26 16,26 C14.896,26 14,25.104 14,24 C14,22.896 14.896,22 16,22 L16,22 Z M16,28 C17.104,28 18,28.896 18,30 C18,31.104 17.104,32 16,32 C14.896,32 14,31.104 14,30 C14,28.896 14.896,28 16,28 L16,28 Z" id="Shape"></path>
                    </g>
                </g>
            </g>
        </g>
    </g>
</svg>