<?xml version="1.0" encoding="UTF-8" standalone="no"?>
<svg width="62px" height="62px" viewBox="0 0 62 62" version="1.1" xmlns="http://www.w3.org/2000/svg" xmlns:xlink="http://www.w3.org/1999/xlink">
    <!-- Generator: Sketch 39.1 (31720) - http://www.bohemiancoding.com/sketch -->
    <title>实时百科</title>
    <desc>Created with Sketch.</desc>
    <defs></defs>
    <g id="Page-1" stroke="none" stroke-width="1" fill="none" fill-rule="evenodd">
        <g id="角色属性-copy" transform="translate(-268.000000, -1877.000000)">
            <g id="实时百科" transform="translate(268.000000, 1877.000000)">
                <circle id="Oval-Copy-24" fill="#86BEE2" cx="31" cy="31" r="31"></circle>
                <g id="noun_595972_cc" transform="translate(14.000000, 13.000000)" fill="#FFFFFF">
                    <g id="Group">
                        <path d="M25.0434783,17.0744348 L21.8532174,20.2646957 L23.8093913,22.2208696 C24.754087,21.6114783 25.9088696,21.2483478 27.1485217,21.2483478 C28.8723478,21.2483478 30.432,21.9495652 31.5575652,23.082087 L22.7033043,31.9363478 C21.5707826,30.8093913 20.8695652,29.2497391 20.8695652,27.5273043 C20.8695652,26.2876522 21.2326957,25.1328696 21.8573913,24.1631304 L19.885913,22.232 L16.6956522,25.4222609 L14.6086957,23.3353043 L6.95652174,30.9874783 L0,24.0309565 L7.65217391,16.3787826 L5.56521739,14.2918261 L13.9130435,5.944 L16,8.03095652 L23.6521739,0.378782609 L30.6086957,7.33530435 L22.9565217,14.9874783 L25.0434783,17.0744348 Z M5.85321739,22.1123478 L3.9346087,24.0309565 L6.95652174,27.0528696 L8.87513043,25.1342609 L5.85321739,22.1123478 Z M9.61947826,18.346087 L7.82052174,20.1450435 L10.8424348,23.1669565 L12.6413913,21.368 L9.61947826,18.346087 Z M17.9673043,9.99826087 L20.9892174,13.0201739 L22.7881739,11.2212174 L19.7662609,8.19930435 L17.9673043,9.99826087 Z M24.7554783,9.25391304 L26.674087,7.33530435 L23.6521739,4.3133913 L21.7335652,6.232 L24.7554783,9.25391304 Z M29.2173913,28.2048696 C29.9853913,28.2048696 30.6086957,28.8281739 30.6086957,29.5961739 C30.6086957,30.3641739 29.9853913,30.9874783 29.2173913,30.9874783 C28.4493913,30.9874783 27.826087,30.3641739 27.826087,29.5961739 C27.826087,28.8281739 28.4493913,28.2048696 29.2173913,28.2048696 L29.2173913,28.2048696 Z" id="Shape"></path>
                    </g>
                </g>
            </g>
        </g>
    </g>
</svg>