<?xml version="1.0" encoding="UTF-8"?>
<svg width="62px" height="62px" viewBox="0 0 62 62" version="1.1" xmlns="http://www.w3.org/2000/svg" xmlns:xlink="http://www.w3.org/1999/xlink">
    <!-- Generator: Sketch 39.1 (31720) - http://www.bohemiancoding.com/sketch -->
    <title>悦耳声音</title>
    <desc>Created with Sketch.</desc>
    <defs></defs>
    <g id="Page-1" stroke="none" stroke-width="1" fill="none" fill-rule="evenodd">
        <g id="角色属性-copy" transform="translate(-780.000000, -1877.000000)">
            <g id="悦耳声音" transform="translate(780.000000, 1877.000000)">
                <circle id="Oval-Copy-20" fill="#AAD16B" cx="31" cy="31" r="31"></circle>
                <path d="M42.6666667,33.7 C42.6666667,36.1858 40.6773333,38.2 38.2222222,38.2 L37.3333333,38.2 L37.3333333,29.2 L38.2222222,29.2 C40.6773333,29.2 42.6666667,31.2142 42.6666667,33.7 L42.6666667,33.7 Z M33.7777778,49 L30.2222222,49 C29.2408889,49 28.4444444,48.1936 28.4444444,47.2 L28.4444444,43.6 C28.4444444,42.6064 29.2408889,41.8 30.2222222,41.8 L32,41.8 C32.9813333,41.8 33.7777778,42.6064 33.7777778,43.6 L33.7777778,45.4 C39.6693333,45.4 44.4444444,40.5652 44.4444444,34.6 L44.4444444,29.2 C44.4444444,22.2412 38.8728889,16.6 32,16.6 C25.1271111,16.6 19.5555556,22.2412 19.5555556,29.2 L19.5555556,34.6 L16,34.6 L16,29.2 C16,20.2522 23.1626667,13 32,13 C40.8373333,13 48,20.2522 48,29.2 L48,34.6 C48,42.5524 41.632,49 33.7777778,49 L33.7777778,49 Z M25.7777778,29.2 L26.6666667,29.2 L26.6666667,38.2 L25.7777778,38.2 C23.3226667,38.2 21.3333333,36.1858 21.3333333,33.7 C21.3333333,31.2142 23.3226667,29.2 25.7777778,29.2 L25.7777778,29.2 Z" id="Shape" fill="#FFFFFF"></path>
            </g>
        </g>
    </g>
</svg>