<?xml version="1.0" encoding="UTF-8" standalone="no"?>
<svg width="62px" height="62px" viewBox="0 0 62 62" version="1.1" xmlns="http://www.w3.org/2000/svg" xmlns:xlink="http://www.w3.org/1999/xlink">
    <!-- Generator: Sketch 39.1 (31720) - http://www.bohemiancoding.com/sketch -->
    <title>有声资源</title>
    <desc>Created with Sketch.</desc>
    <defs></defs>
    <g id="Page-1" stroke="none" stroke-width="1" fill="none" fill-rule="evenodd">
        <g id="角色属性-copy" transform="translate(-775.000000, -1660.000000)">
            <g id="有声资源" transform="translate(775.000000, 1660.000000)">
                <circle id="Oval-Copy-23" fill="#4DB6AC" cx="31" cy="31" r="31"></circle>
                <g id="noun_579476_cc" transform="translate(15.000000, 17.130859)" fill="#FFFFFF">
                    <g id="Group">
                        <path d="M28.8,24 L28.8,16 C28.8,8.9312 23.0688,3.2 16,3.2 C8.9312,3.2 3.2,8.9312 3.2,16 L3.2,24 L0,24 L0,15.968 C0,7.1488 7.1488,0 15.968,0 L15.968,0 L16.032,0 L16.032,0 C24.8512,0 32,7.1488 32,15.968 L32,15.968 L32,24 L28.8,24 L28.8,24 Z M9.6,17.6 L9.6,17.6 L9.6,27.2 C6.9488,27.2 4.8,25.0512 4.8,22.4 L4.8,22.4 C4.8,19.7488 6.9488,17.6 9.6,17.6 L9.6,17.6 Z M27.2,22.4 L27.2,22.4 C27.2,25.0512 25.0512,27.2 22.4,27.2 L22.4,27.2 L22.4,17.6 C25.0512,17.6 27.2,19.7488 27.2,22.4 L27.2,22.4 Z" id="Shape"></path>
                    </g>
                </g>
            </g>
        </g>
    </g>
</svg>