<?xml version="1.0" encoding="UTF-8" standalone="no"?>
<svg width="62px" height="62px" viewBox="0 0 62 62" version="1.1" xmlns="http://www.w3.org/2000/svg" xmlns:xlink="http://www.w3.org/1999/xlink">
    <!-- Generator: Sketch 39.1 (31720) - http://www.bohemiancoding.com/sketch -->
    <title>查询黄历</title>
    <desc>Created with Sketch.</desc>
    <defs></defs>
    <g id="Page-1" stroke="none" stroke-width="1" fill="none" fill-rule="evenodd">
        <g id="角色属性-copy" transform="translate(-780.000000, -1230.000000)">
            <g id="查询黄历" transform="translate(780.000000, 1230.000000)">
                <circle id="Oval-Copy-13" fill="#9F82D6" cx="31" cy="31" r="31"></circle>
                <g id="noun_570942_cc" transform="translate(15.000000, 15.000000)" fill="#FFFFFF">
                    <g id="Group">
                        <path d="M27.2,32 L4.8,32 C2.1488,32 0,29.8512 0,27.2 L0,8 C0,5.3488 2.1488,3.2 4.8,3.2 L6.4,3.2 L6.4,1.6 C6.4,0.7168 7.1168,0 8,0 C8.8832,0 9.6,0.7168 9.6,1.6 L9.6,3.2 L22.4,3.2 L22.4,1.6 C22.4,0.7168 23.1168,0 24,0 C24.8832,0 25.6,0.7168 25.6,1.6 L25.6,3.2 L27.2,3.2 C29.8512,3.2 32,5.3488 32,8 L32,27.2 C32,29.8512 29.8512,32 27.2,32 L27.2,32 Z M28.8,9.6 L3.2,9.6 L3.2,27.2 C3.2,28.0832 3.9168,28.8 4.8,28.8 L27.2,28.8 C28.0832,28.8 28.8,28.0832 28.8,27.2 L28.8,9.6 L28.8,9.6 Z" id="Shape"></path>
                        <text id="宜" font-family="FZYANS_ZHONGJW--GB1-0, FZYanSongS-DB-GB" font-size="14" font-weight="normal">
                            <tspan x="9" y="24">宜</tspan>
                        </text>
                    </g>
                </g>
            </g>
        </g>
    </g>
</svg>