<?xml version="1.0" encoding="UTF-8" standalone="no"?>
<svg width="62px" height="62px" viewBox="0 0 62 62" version="1.1" xmlns="http://www.w3.org/2000/svg" xmlns:xlink="http://www.w3.org/1999/xlink">
    <!-- Generator: Sketch 39.1 (31720) - http://www.bohemiancoding.com/sketch -->
    <title>终端助理属性</title>
    <desc>Created with Sketch.</desc>
    <defs></defs>
    <g id="Page-1" stroke="none" stroke-width="1" fill="none" fill-rule="evenodd">
        <g id="角色属性-copy" transform="translate(-782.000000, -328.000000)">
            <g id="终端助理属性" transform="translate(782.000000, 328.000000)">
                <circle id="Oval-Copy-3" fill="#86BEE2" cx="31" cy="31" r="31"></circle>
                <path d="M45.5454545,29.8181818 L45.5454545,30.4 C45.5454545,33.2916364 43.2007273,35.6363636 40.3090909,35.6363636 C36.6989091,35.632 33.6589091,33.1941818 32.744,29.8734545 L29.2690909,29.8181818 C28.3410909,33.1941818 25.3010909,35.632 21.6909091,35.6363636 C18.7978182,35.6363636 16.4545455,33.2916364 16.4545455,30.4 L16.4545455,29.8181818 L15,29.8181818 L15,26.9090909 L16.7163636,26.9090909 C17.3345455,25.2058182 18.936,24.0087273 20.8167273,24 L26.6363636,24 C28.2436364,24 29.5454545,25.3018182 29.5454545,26.9090909 L32.4545455,26.9090909 C32.4545455,25.3018182 33.7563636,24 35.3636364,24 L41.1818182,24 C43.064,24.0087273 44.6654545,25.2058182 45.2734545,26.8785455 L47,26.9090909 L47,29.8181818 L45.5454545,29.8181818 L45.5454545,29.8181818 Z" id="Shape" fill="#FFFFFF"></path>
            </g>
        </g>
    </g>
</svg>