<?xml version="1.0" encoding="UTF-8"?>
<svg width="62px" height="62px" viewBox="0 0 62 62" version="1.1" xmlns="http://www.w3.org/2000/svg" xmlns:xlink="http://www.w3.org/1999/xlink">
    <!-- Generator: Sketch 41 (35326) - http://www.bohemiancoding.com/sketch -->
    <title>英语对话</title>
    <desc>Created with Sketch.</desc>
    <defs></defs>
    <g id="Page-1" stroke="none" stroke-width="1" fill="none" fill-rule="evenodd">
        <g id="角色属性-copy" transform="translate(-267.000000, -1842.000000)">
            <g id="英语对话" transform="translate(267.000000, 1842.000000)">
                <circle id="Oval-Copy-7" fill="#F5718A" cx="31" cy="31" r="31"></circle>
                <g id="noun_625995_cc" transform="translate(15.000000, 14.000000)" fill="#FFFFFF">
                    <g id="Group">
                        <path d="M9.12205207,5.38461538 C7.06165662,5.38461538 5.38461538,7.06165662 5.38461538,9.12205207 L5.38461538,14.4612473 L6.45245444,14.4612473 L6.45245444,12.3255692 L11.7916497,12.3255692 L11.7916497,14.4612473 L12.8594888,14.4612473 L12.8594888,9.12205207 C12.8594888,7.06165662 11.1824475,5.38461538 9.12205207,5.38461538 Z M11.7916497,11.2577302 L6.45245444,11.2577302 L6.45245444,9.12205207 C6.45245444,7.65003594 7.65003594,6.45245444 9.12205207,6.45245444 C10.5940682,6.45245444 11.7916497,7.65003594 11.7916497,9.12205207 L11.7916497,11.2577302 Z" id="Shape"></path>
                        <path d="M12.8594888,22.5949456 C12.8594888,21.2702912 11.7815052,20.1923077 10.4568509,20.1923077 L5.91853491,20.1923077 C5.62327741,20.1923077 5.38461538,20.4309697 5.38461538,20.7262272 L5.38461538,24.4636639 L5.38461538,28.2011006 C5.38461538,28.4963581 5.62327741,28.7350201 5.91853491,28.7350201 L10.4568509,28.7350201 C11.7815052,28.7350201 12.8594888,27.6570366 12.8594888,26.3323823 C12.8594888,25.5736826 12.4990931,24.9041475 11.9480881,24.4636639 C12.4990931,24.0231803 12.8594888,23.3536452 12.8594888,22.5949456 Z M11.7916497,26.3323823 C11.7916497,27.0686573 11.1931259,27.6671811 10.4568509,27.6671811 L6.45245444,27.6671811 L6.45245444,24.9975834 L10.4568509,24.9975834 C11.1931259,24.9975834 11.7916497,25.5961072 11.7916497,26.3323823 Z M6.45245444,23.9297444 L6.45245444,21.2601467 L10.4568509,21.2601467 C11.1931259,21.2601467 11.7916497,21.8586705 11.7916497,22.5949456 C11.7916497,23.3312206 11.1931259,23.9297444 10.4568509,23.9297444 L6.45245444,23.9297444 Z" id="Shape"></path>
                        <path d="M28.2977349,17.6420544 L17.6193444,17.6420544 C16.7431824,17.6420544 15.9706009,18.0723936 15.4836663,18.726445 C15.3277618,18.5171486 15.1430256,18.3318785 14.9331952,18.175974 C15.5872467,17.6890394 16.0175858,16.9164578 16.0175858,16.0402959 L16.0175858,5.36190533 C16.0175858,3.88988919 14.8200043,2.69230769 13.3479882,2.69230769 L2.66959763,2.69230769 C1.1975815,2.69230769 0,3.88988919 0,5.36190533 L0,16.0402959 C0,16.9164578 0.430339139,17.6890394 1.08439056,18.175974 C0.430339139,18.6629086 0,19.4354901 0,20.3116521 L0,30.9900426 C0,32.4620588 1.1975815,33.6596403 2.66959763,33.6596403 L13.3479882,33.6596403 C14.2241501,33.6596403 14.9967317,33.2293011 15.4836663,32.5752497 C15.9706009,33.2293011 16.7431824,33.6596403 17.6193444,33.6596403 L28.2977349,33.6596403 C29.7697511,33.6596403 30.9673326,32.4620588 30.9673326,30.9900426 L30.9673326,20.3116521 C30.9673326,18.8396359 29.7697511,17.6420544 28.2977349,17.6420544 Z M1.06783905,16.0402959 L1.06783905,5.36190533 C1.06783905,4.47880243 1.78649474,3.76014675 2.66959763,3.76014675 L13.3479882,3.76014675 C14.2310911,3.76014675 14.9497468,4.47880243 14.9497468,5.36190533 L14.9497468,16.0402959 C14.9497468,16.9233988 14.2310911,17.6420544 13.3479882,17.6420544 L2.66959763,17.6420544 C1.78649474,17.6420544 1.06783905,16.9233988 1.06783905,16.0402959 Z M13.3479882,32.5918012 L2.66959763,32.5918012 C1.78649474,32.5918012 1.06783905,31.8731455 1.06783905,30.9900426 L1.06783905,20.3116521 C1.06783905,19.4285492 1.78649474,18.7098935 2.66959763,18.7098935 L13.3479882,18.7098935 C14.2310911,18.7098935 14.9497468,19.4285492 14.9497468,20.3116521 L14.9497468,30.9900426 C14.9497468,31.8731455 14.2310911,32.5918012 13.3479882,32.5918012 Z M29.8994935,30.9900426 C29.8994935,31.8731455 29.1808378,32.5918012 28.2977349,32.5918012 L17.6193444,32.5918012 C16.7362415,32.5918012 16.0175858,31.8731455 16.0175858,30.9900426 L16.0175858,20.3116521 C16.0175858,19.4285492 16.7362415,18.7098935 17.6193444,18.7098935 L28.2977349,18.7098935 C29.1808378,18.7098935 29.8994935,19.4285492 29.8994935,20.3116521 L29.8994935,30.9900426 Z" id="Shape"></path>
                        <path d="M26.599342,20.1923077 L24.7306237,20.1923077 C22.2281428,20.1923077 20.1923077,22.2281428 20.1923077,24.7306237 C20.1923077,27.2331045 22.2281428,29.2689397 24.7306237,29.2689397 L27.1332615,29.2689397 L27.1332615,28.2011006 L24.7306237,28.2011006 C22.8170561,28.2011006 21.2601467,26.6441913 21.2601467,24.7306237 C21.2601467,22.8170561 22.8170561,21.2601467 24.7306237,21.2601467 L26.0654225,21.2601467 L26.0654225,22.3279858 L27.1332615,22.3279858 L27.1332615,20.7262272 C27.1332615,20.4309697 26.8945995,20.1923077 26.599342,20.1923077 Z" id="Shape"></path>
                        <path d="M31.9159283,0 L24.4410549,0 C22.9690388,0 21.7714573,1.1975815 21.7714573,2.66959763 L21.7714573,5.65207211 L17.6565395,9.76698991 C17.5038385,9.91969089 17.4579214,10.1492763 17.5406789,10.3489622 C17.6229025,10.5486481 17.8183171,10.6783905 18.0340206,10.6783905 L31.9159283,10.6783905 C33.3879444,10.6783905 34.5855259,9.48080904 34.5855259,8.0087929 L34.5855259,2.66959763 C34.5855259,1.1975815 33.3879444,0 31.9159283,0 Z M33.5176869,8.0087929 C33.5176869,8.8918958 32.7990312,9.61055149 31.9159283,9.61055149 L19.3229023,9.61055149 L22.6828579,6.2505959 C22.7827008,6.15021903 22.8392963,6.01513739 22.8392963,5.8731148 L22.8392963,2.66959763 C22.8392963,1.78649474 23.557952,1.06783905 24.4410549,1.06783905 L31.9159283,1.06783905 C32.7990312,1.06783905 33.5176869,1.78649474 33.5176869,2.66959763 L33.5176869,8.0087929 Z" id="Shape"></path>
                        <rect id="Rectangle-path" x="24.2307692" y="2.69230769" width="8.54271243" height="1.06783905"></rect>
                        <rect id="Rectangle-path" x="24.2307692" y="5.38461538" width="8.54271243" height="1.06783905"></rect>
                        <rect id="Rectangle-path" x="24.2307692" y="6.73076923" width="8.54271243" height="1.06783905"></rect>
                        <rect id="Rectangle-path" x="30.9615385" y="12.1153846" width="1.06783905" height="1.06783905"></rect>
                        <rect id="Rectangle-path" x="28.2692308" y="12.1153846" width="1.06783905" height="1.06783905"></rect>
                        <rect id="Rectangle-path" x="25.5769231" y="12.1153846" width="1.06783905" height="1.06783905"></rect>
                        <rect id="Rectangle-path" x="28.2692308" y="13.4615385" width="1.06783905" height="1.06783905"></rect>
                        <rect id="Rectangle-path" x="25.5769231" y="13.4615385" width="1.06783905" height="1.06783905"></rect>
                        <rect id="Rectangle-path" x="24.2307692" y="13.4615385" width="1.06783905" height="1.06783905"></rect>
                        <rect id="Rectangle-path" x="12.1153846" y="16.1538462" width="1.06783905" height="1.06783905"></rect>
                        <rect id="Rectangle-path" x="10.7692308" y="16.1538462" width="1.06783905" height="1.06783905"></rect>
                        <rect id="Rectangle-path" x="8.07692308" y="16.1538462" width="1.06783905" height="1.06783905"></rect>
                        <rect id="Rectangle-path" x="12.1153846" y="30.9615385" width="1.06783905" height="1.06783905"></rect>
                        <rect id="Rectangle-path" x="10.7692308" y="30.9615385" width="1.06783905" height="1.06783905"></rect>
                        <rect id="Rectangle-path" x="8.07692308" y="30.9615385" width="1.06783905" height="1.06783905"></rect>
                        <rect id="Rectangle-path" x="28.2692308" y="30.9615385" width="1.06783905" height="1.06783905"></rect>
                        <rect id="Rectangle-path" x="25.5769231" y="30.9615385" width="1.06783905" height="1.06783905"></rect>
                        <rect id="Rectangle-path" x="22.8846154" y="30.9615385" width="1.06783905" height="1.06783905"></rect>
                    </g>
                </g>
            </g>
        </g>
    </g>
</svg>