<?xml version="1.0" encoding="UTF-8"?>
<svg width="62px" height="62px" viewBox="0 0 62 62" version="1.1" xmlns="http://www.w3.org/2000/svg" xmlns:xlink="http://www.w3.org/1999/xlink">
    <!-- Generator: Sketch 41 (35326) - http://www.bohemiancoding.com/sketch -->
    <title>音乐</title>
    <desc>Created with Sketch.</desc>
    <defs></defs>
    <g id="Page-1" stroke="none" stroke-width="1" fill="none" fill-rule="evenodd">
        <g id="角色属性-copy" transform="translate(-789.000000, -1854.000000)">
            <g id="音乐" transform="translate(789.000000, 1854.000000)">
                <g id="Group">
                    <circle id="Oval-Copy-17" fill="#9F82D6" cx="31" cy="31" r="31"></circle>
                    <path d="M40.7192476,14.954758 C39.3147047,13.9861078 37.6195667,13.7439452 36.0212937,14.2767028 L27.4971711,17.2310862 C25.414573,17.957574 24.0100301,19.9433071 24.0100301,22.1227702 L24.0100301,32.5357609 C23.4288399,32.2451658 22.7507847,32.0998683 22.0727295,32.0998683 C20.6681865,32.0514358 19.1667786,32.5357609 17.9075332,33.4559787 C16.0186651,34.8120891 14.9531498,36.7978222 15.0015823,38.6382578 L15.0015823,38.7351228 L15.0015823,41.6895062 C15.0015823,42.609724 15.2437449,43.4815092 15.7765026,44.1595644 C16.5514228,45.2735123 17.8591007,45.903135 19.4089412,45.9515675 L19.6026712,45.9515675 C20.9587816,45.9515675 22.3633246,45.4672423 23.6225699,44.5954571 C25.414573,43.3362117 26.5285208,41.3989111 26.5285208,39.510043 L26.5285208,36.3619296 L26.5285208,36.2650645 L26.5285208,29.0001873 L40.5739501,24.2538009 L40.5739501,32.5841934 C39.9927599,32.2935983 39.3147047,32.1483008 38.6366495,32.1483008 C37.2321066,32.0998683 35.7306986,32.5841934 34.4714532,33.5044112 C32.5825852,34.8605216 31.5170698,36.8462547 31.5655024,38.6866903 L31.5655024,38.7835553 L31.5655024,41.7379387 C31.5655024,42.6581565 31.8076649,43.5299417 32.3404226,44.207997 C33.1153428,45.3219448 34.4230207,45.9515675 35.9728612,46 L36.1665913,46 C37.5227017,46 38.9272446,45.5156749 40.18649,44.6438896 C41.978493,43.3846442 43.0924409,41.4473436 43.0924409,39.5584755 L43.0924409,36.3619296 L43.0924409,36.2650645 L43.0924409,19.1683868 C42.8987108,17.4732488 42.1237906,15.9234083 40.7192476,14.954758 Z M28.2720914,19.5074144 L36.796214,16.553031 C37.6679992,16.2624359 38.5397845,16.4077335 39.3147047,16.8920586 C39.7990299,17.2310862 40.18649,17.7638439 40.3317875,18.2966016 L26.3832233,22.9945555 L26.3832233,22.0743377 C26.4316558,20.9603899 27.206576,19.8948746 28.2720914,19.5074144 Z M19.3120761,35.4417118 C20.1354289,34.8605216 21.0556467,34.5699265 21.9274319,34.5699265 L22.024297,34.5699265 C22.4601896,34.5699265 23.2835423,34.7152241 23.719435,35.3448468 C24.4943552,36.4587946 23.7678675,38.3476627 22.1695945,39.4616105 C21.3462418,40.0428007 20.3291589,40.3818283 19.4573737,40.3333958 C19.021481,40.3333958 18.1981283,40.1880982 17.7622357,39.5584755 C16.9388829,38.4445277 17.6653706,36.5556596 19.3120761,35.4417118 Z M35.7791311,35.4417118 C36.6024839,34.8605216 37.5227017,34.5699265 38.3944869,34.5699265 L38.491352,34.5699265 C38.9272446,34.5699265 39.7505974,34.7152241 40.18649,35.3448468 C40.6223826,35.9744694 40.4770851,36.7978222 40.3317875,37.2337148 C40.0411924,38.0570676 39.4115698,38.8804203 38.588217,39.510043 C37.7648642,40.1396657 36.7477814,40.4302608 35.8759962,40.3818283 C35.4401035,40.3818283 34.6167508,40.2365307 34.1808582,39.6069081 C33.4059379,38.4445277 34.1324256,36.5556596 35.7791311,35.4417118 Z" id="Shape" fill="#FFFFFF"></path>
                </g>
            </g>
        </g>
    </g>
</svg>