<?xml version="1.0" encoding="UTF-8"?>
<svg width="62px" height="62px" viewBox="0 0 62 62" version="1.1" xmlns="http://www.w3.org/2000/svg" xmlns:xlink="http://www.w3.org/1999/xlink">
    <!-- Generator: Sketch 41 (35326) - http://www.bohemiancoding.com/sketch -->
    <title>鹦鹉学舌</title>
    <desc>Created with Sketch.</desc>
    <defs></defs>
    <g id="Page-1" stroke="none" stroke-width="1" fill="none" fill-rule="evenodd">
        <g id="角色属性-copy" transform="translate(-789.000000, -1618.000000)">
            <g id="鹦鹉学舌" transform="translate(789.000000, 1618.000000)">
                <circle id="Oval-Copy-24" fill="#86BEE2" cx="31" cy="31" r="31"></circle>
                <g id="noun_759895_cc" transform="translate(18.000000, 15.000000)" fill="#FFFFFF">
                    <g id="Group">
                        <g id="Shape">
                            <path d="M21.7480851,3.65446809 C19.4682553,1.45668085 16.3717447,0.100425532 12.962383,0.100425532 C5.97617021,0.100425532 0.292425532,5.78417021 0.292425532,12.770383 C0.292425532,18.4932766 4.10757447,23.3399149 9.32731915,24.9062128 L9.32731915,31.8995745 L11.4508936,31.8995745 L11.4508936,25.3470638 C11.9468936,25.4062979 12.4507234,25.4403404 12.962383,25.4403404 C13.2721702,25.4403404 13.5782128,25.4253617 13.8825532,25.403234 L13.8825532,31.8995745 L16.0061277,31.8995745 L16.0061277,25.0682553 C21.5264681,23.7014468 25.632,18.7074043 25.632,12.770383 C25.632,12.3642553 25.6108936,11.9628936 25.5734468,11.5662979 L27.6224681,5.70961702 L21.7480851,3.65446809 Z M12.962383,23.1186383 C7.25617021,23.1186383 2.61378723,18.4762553 2.61378723,12.770383 C2.61378723,7.06451064 7.25617021,2.42212766 12.962383,2.42212766 C18.6685957,2.42212766 23.3106383,7.06451064 23.3106383,12.770383 C23.3106383,18.4762553 18.6685957,23.1186383 12.962383,23.1186383 Z"></path>
                            <path d="M15.1448511,6.53242553 C11.7048511,5.3293617 7.92817021,7.14859574 6.72442553,10.5879149 C5.52102128,14.0275745 7.34025532,17.8045957 10.7799149,19.008 C11.4944681,19.2578723 12.2325106,19.3821277 12.9674894,19.3821277 C13.9468936,19.3821277 14.9215319,19.1618723 15.8297872,18.7240851 C17.4199149,17.9581277 18.6171915,16.6185532 19.2,14.9525106 C19.7828085,13.2861277 19.682383,11.492766 18.9164255,9.9026383 C18.1504681,8.31251064 16.8108936,7.11557447 15.1448511,6.53242553 Z M17.9972766,14.5320851 C17.5268085,15.8771064 16.5606809,16.9579574 15.2769362,17.5765106 C13.9931915,18.1950638 12.5453617,18.2760851 11.2006809,17.8052766 C9.85565957,17.3348085 8.77446809,16.3686809 8.15625532,15.0849362 C7.53804255,13.8011915 7.45668085,12.3537021 7.92714894,11.0086809 C8.8987234,8.23217021 11.9475745,6.76289362 14.7237447,7.73514894 C17.5002553,8.7067234 18.9688511,11.7555745 17.9972766,14.5320851 Z"></path>
                            <path d="M14.1453617,9.38859574 C13.7538723,9.25174468 13.3545532,9.1867234 12.9620426,9.1867234 C11.4818723,9.1867234 10.0970213,10.1109787 9.58025532,11.5874043 C8.9266383,13.4549787 9.91114894,15.4988936 11.7787234,16.1525106 C12.1702128,16.2893617 12.5695319,16.354383 12.9620426,16.354383 C14.4422128,16.354383 15.8274043,15.4301277 16.3438298,13.9537021 C16.9974468,12.0857872 16.0132766,10.0418723 14.1453617,9.38859574 Z"></path>
                        </g>
                    </g>
                </g>
            </g>
        </g>
    </g>
</svg>