<?xml version="1.0" standalone="no"?><!DOCTYPE svg PUBLIC "-//W3C//DTD SVG 1.1//EN" "http://www.w3.org/Graphics/SVG/1.1/DTD/svg11.dtd"><svg t="1505803480950" class="icon" style="" viewBox="0 0 1025 1024" version="1.1" xmlns="http://www.w3.org/2000/svg" p-id="2987" xmlns:xlink="http://www.w3.org/1999/xlink" width="200.1953125" height="200"><defs><style type="text/css"></style></defs><path d="M1010.20848 513.28l-97.552-80.456c22.112-26.504 40.264-54.288 54.232-82.216 9.32-18.664 1.76-41.36-16.88-50.688-18.656-9.32-41.368-1.752-50.688 16.904-29.904 59.832-83.944 119.352-158.736 162.096-49.048 28.04-106.848 48.672-172.456 57.328l-1.088 0.152c-20.144 2.608-41 4.096-62.576 4.304-30.624 0.312-59.816-2.128-87.512-6.864-0.96-0.192-1.904-0.368-2.864-0.504-46.96-8.336-89.544-23.344-127.368-42.912-0.856-0.856-1.768-1.68-2.728-2.464-4.736-3.888-10.128-6.424-15.736-7.664-33.928-19.68-63.568-42.992-88.608-68.184-0.656-0.72-1.352-1.416-2.064-2.088-28.88-29.472-51.512-61.44-67.376-93.192-9.336-18.656-32.032-26.224-50.688-16.904-18.664 9.328-26.224 32.024-16.904 50.688 13.064 26.104 29.8 52.288 50.016 77.472L18.88048 470.776c-18.08 10.48-24.256 33.632-13.776 51.704 10.464 18.096 33.632 24.248 51.704 13.776l89.28-51.664c17.16 15.456 35.832 30.112 55.952 43.648l-61.896 75.608c-13.256 16.184-10.864 40.08 5.344 53.336 16.192 13.248 40.08 10.856 53.344-5.328l70.136-85.688c28.136 13.232 58.352 24.328 90.552 32.688l-24.92 73.008c-6.704 19.824 3.904 41.312 23.704 48.024 19.808 6.696 41.312-3.912 48.024-23.712l28.48-83.456c22.632 2.568 46.056 3.792 70.256 3.552 10.504-0.12 20.864-0.464 31.088-1.08l2.496 76.248c0.656 20.856 18.104 37.256 38.976 36.6 20.856-0.656 37.232-18.12 36.576-38.976l-2.696-83.256c32.088-6.136 62.416-14.776 90.888-25.504l51.368 99.832c9.544 18.552 32.392 25.848 50.976 16.28 18.576-9.568 25.872-32.4 16.28-50.976l-49.8-96.8c2.352-1.296 4.688-2.608 7-3.936 29.904-17.08 57.056-36.584 81.312-57.72l102.664 84.672c16.112 13.256 39.936 10.936 53.192-5.184C1028.65648 550.36 1026.32048 526.528 1010.20848 513.28z" p-id="2988" fill="#cdcdcd"></path></svg>