<?xml version="1.0" standalone="no"?><!DOCTYPE svg PUBLIC "-//W3C//DTD SVG 1.1//EN" "http://www.w3.org/Graphics/SVG/1.1/DTD/svg11.dtd"><svg t="1505112677144" class="icon" style="" viewBox="0 0 1024 1024" version="1.1" xmlns="http://www.w3.org/2000/svg" p-id="683" xmlns:xlink="http://www.w3.org/1999/xlink" width="200" height="200"><defs><style type="text/css"></style></defs><path d="M473.069 614.216S594.063 380.978 733.254 289.19c-17.147 43.987-10.933 126.337 0 170.24-67.875 15.495-207.422 189.62-252.671 274.739-64.075-81.278-138.925-133.786-192.31-162.513l73.396-70.16 111.4 112.72z" fill="#7ED321" p-id="684"></path><path d="M510.763 66.68c-245.767 0-445 199.233-445 445s199.233 445 445 445 445-199.233 445-445-199.233-445-445-445z m0 883c-241.901 0-438-196.099-438-438s196.099-438 438-438 438 196.099 438 438-196.099 438-438 438z" fill="#7ED321" p-id="685"></path></svg>