<?xml version="1.0" encoding="utf-8"?>
<!-- Generator: Adobe Illustrator 21.0.0, SVG Export Plug-In . SVG Version: 6.00 Build 0)  -->
<svg version="1.1" id="图层_1" xmlns="http://www.w3.org/2000/svg" xmlns:xlink="http://www.w3.org/1999/xlink" x="0px" y="0px"
	 viewBox="0 0 25.1 25.1" style="enable-background:new 0 0 25.1 25.1;" xml:space="preserve">
<style type="text/css">
	.st0{fill:#C9C9C9;}
</style>
<path class="st0" d="M23.9,9.9h-2.2c-0.2-0.4-0.5-1.4-0.9-2l1.6-1.5c0.5-0.5,0.5-1.3,0-1.8l-1.8-1.8c-0.5-0.5-1.3-0.5-1.8,0
	l-1.5,1.6c-0.7-0.4-1.6-0.7-2-0.9V1.3c0-0.7-0.7-1.3-1.4-1.3h-2.5c-0.7,0-1.4,0.6-1.4,1.3v2.2C9.4,3.7,8.5,4,7.8,4.4L6.3,2.8
	C5.8,2.3,5,2.3,4.6,2.8L2.8,4.6c-0.5,0.5-0.5,1.3,0,1.8l1.6,1.5C4,8.5,3.7,9.4,3.5,9.9H1.3C0.6,9.9,0,10.6,0,11.3v2.5
	c0,0.7,0.6,1.4,1.3,1.4h2.2c0.2,0.4,0.5,1.4,0.9,2l-1.6,1.5c-0.5,0.5-0.5,1.3,0,1.8l1.8,1.8c0.5,0.5,1.3,0.5,1.8,0l1.5-1.6
	c0.7,0.4,1.6,0.7,2,0.9v2.2c0,0.7,0.7,1.3,1.4,1.3h2.5c0.7,0,1.4-0.6,1.4-1.3v-2.2c0.4-0.2,1.4-0.5,2-0.9l1.5,1.6
	c0.5,0.5,1.3,0.5,1.8,0l1.8-1.8c0.5-0.5,0.5-1.3,0-1.8l-1.6-1.5c0.4-0.7,0.7-1.6,0.9-2h2.2c0.7,0,1.3-0.7,1.3-1.4v-2.5
	C25.1,10.6,24.6,9.9,23.9,9.9L23.9,9.9z M12.6,18.2c-3.1,0-5.7-2.5-5.7-5.7c0-3.1,2.5-5.7,5.7-5.7c3.1,0,5.7,2.5,5.7,5.7
	C18.2,15.7,15.7,18.2,12.6,18.2L12.6,18.2z"/>
</svg>
