<?xml version="1.0" encoding="utf-8"?>
<!-- Generator: Adobe Illustrator 19.0.0, SVG Export Plug-In . SVG Version: 6.00 Build 0)  -->
<svg version="1.1" id="图层_1" xmlns="http://www.w3.org/2000/svg" xmlns:xlink="http://www.w3.org/1999/xlink" x="0px" y="0px"
	 viewBox="10.5 -8.5 36 36" style="enable-background:new 10.5 -8.5 36 36;" xml:space="preserve">
<style type="text/css">
	.st0{fill:#3F6C96;}
	.st1{fill:#FFFFFF;}
</style>
<g id="XMLID_1370_">
	<circle id="XMLID_1375_" class="st0" cx="28.5" cy="9.5" r="18"/>
	<path id="XMLID_1371_" class="st1" d="M33.7,8.2H23.1V4.8c0-0.8,0.1-1.5,0.4-2.3c0.3-0.7,0.7-1.3,1.1-1.9c0.5-0.5,1-1,1.7-1.3
		S27.7-1,28.4-1c0.7,0,1.4,0.2,2.1,0.5c0.6,0.3,1.2,0.7,1.7,1.3c0.5,0.5,0.8,1.2,1.1,1.9s0.4,1.5,0.4,2.3V8.2L33.7,8.2z M28.4,16.2
		c-0.7,0-1.4-0.1-2.1-0.3s-1.2-0.5-1.7-0.9c-0.5-0.4-0.9-0.9-1.1-1.4s-0.4-1.2-0.4-1.9v-1.5V9.6h10.6v2.1c0,0.6-0.1,1.1-0.4,1.7
		c-0.3,0.5-0.7,1-1.1,1.4c-0.5,0.4-1,0.8-1.7,1C29.8,16.1,29.2,16.2,28.4,16.2L28.4,16.2z M37.9,9.6c0.4,0,0.7,0,0.9,0.1
		c0.2,0.1,0.3,0.3,0.3,0.5c0,0.3-0.1,0.5-0.3,0.6c-0.2,0.1-0.4,0.1-0.7,0.1h-0.4c-0.1,0.7-0.2,1.4-0.4,2c-0.2,0.6-0.4,1.2-0.6,1.9
		c-0.3,0.7-0.6,1.3-1,1.9c-0.8,1.1-1.8,1.9-3.1,2.5c-1.3,0.6-2.7,0.9-4.2,0.9c-1.5,0-2.9-0.2-4.1-0.7c-1.2-0.5-2.3-1.3-3.2-2.4
		c-0.5-0.6-0.8-1.2-1.1-1.9c-0.3-0.7-0.5-1.4-0.6-2c-0.2-0.7-0.3-1.5-0.3-2.2h-0.3c-0.5,0-0.8-0.1-0.9-0.2c-0.1-0.1-0.2-0.3-0.2-0.6
		c0-0.3,0.1-0.4,0.3-0.5c0.2-0.1,0.5-0.1,0.9-0.1c0.4,0,0.7,0,1,0c0.3,0,0.5,0,0.7,0c0.3,0,0.5,0,0.7,0.1c0.2,0,0.3,0.1,0.3,0.2
		c0.1,0.1,0.1,0.2,0.1,0.4v0.5c0,0.1,0,0.3-0.1,0.6c0,0.3-0.1,0.6,0,1s0.1,0.8,0.3,1.4c0.1,0.5,0.4,1.1,0.8,1.7
		c0.4,0.6,0.8,1.1,1.3,1.4c0.5,0.3,1.1,0.5,1.6,0.7c0.5,0.1,1.1,0.2,1.5,0.2s0.9,0,1.2,0c0.5,0,1,0,1.5-0.1c0.5,0,0.9-0.1,1.4-0.2
		c0.4-0.1,0.8-0.3,1.2-0.5s0.8-0.6,1.1-1c0.4-0.5,0.7-1,0.9-1.4c0.2-0.5,0.3-0.9,0.4-1.3c0.1-0.4,0.1-0.8,0.1-1.2c0-0.4,0-0.7,0-1
		c0-0.4,0-0.7,0.1-0.9c0-0.2,0.1-0.3,0.2-0.4c0.1-0.1,0.2-0.1,0.4-0.1h0.6L37.9,9.6L37.9,9.6z"/>
</g>
</svg>
