<?xml version="1.0" encoding="utf-8"?>
<!-- Generator: Adobe Illustrator 19.0.0, SVG Export Plug-In . SVG Version: 6.00 Build 0)  -->
<svg version="1.1" id="图层_1" xmlns="http://www.w3.org/2000/svg" xmlns:xlink="http://www.w3.org/1999/xlink" x="0px" y="0px"
	 viewBox="39.5 -42.5 61 105" style="enable-background:new 39.5 -42.5 61 105;" xml:space="preserve">
<style type="text/css">
	.st0{clip-path:url(#XMLID_2_);}
	.st1{fill:#2E3945;}
	.st2{opacity:0.9;fill:#FFFFFF;}
</style>
<g id="XMLID_1085_">
	<defs>
		<rect id="XMLID_1086_" x="31.1" y="-42.5" width="69.4" height="105"/>
	</defs>
	<clipPath id="XMLID_2_">
		<use xlink:href="#XMLID_1086_"  style="overflow:visible;"/>
	</clipPath>
	<g id="XMLID_452_" class="st0">
		<circle id="XMLID_532_" class="st1" cx="92" cy="10" r="52.5"/>
		<circle id="XMLID_531_" class="st1" cx="92" cy="10" r="49.4"/>
		<path id="XMLID_454_" class="st2" d="M69,19.2c0.4,0,0.9,0.1,1.3,0.2c0.4,0.2,0.7,0.4,1,0.7c0.3,0.3,0.5,0.6,0.7,1
			c0.2,0.4,0.3,0.8,0.3,1.3c0,0.4-0.1,0.9-0.3,1.3c-0.2,0.4-0.4,0.7-0.7,1c-0.3,0.3-0.6,0.5-1,0.7s-0.8,0.3-1.3,0.3
			c-0.5,0-0.9-0.1-1.3-0.3s-0.7-0.4-1-0.7c-0.3-0.3-0.5-0.6-0.7-1c-0.2-0.4-0.3-0.8-0.3-1.3s0.1-0.9,0.3-1.3c0.2-0.4,0.4-0.7,0.7-1
			c0.3-0.3,0.6-0.5,1-0.7C68.1,19.3,68.5,19.2,69,19.2z M83.5,19.3c0.4,0,0.9,0.1,1.3,0.2c0.4,0.2,0.8,0.4,1.1,0.7s0.5,0.6,0.7,1
			c0.2,0.4,0.3,0.8,0.3,1.3s-0.1,0.9-0.3,1.3c-0.2,0.4-0.4,0.7-0.7,1c-0.3,0.3-0.6,0.5-1.1,0.7c-0.4,0.2-0.8,0.3-1.3,0.3
			c-0.4,0-0.9-0.1-1.3-0.3c-0.4-0.2-0.7-0.4-1-0.7c-0.3-0.3-0.5-0.6-0.7-1c-0.2-0.4-0.3-0.8-0.3-1.3s0.1-0.9,0.3-1.3s0.4-0.7,0.7-1
			c0.3-0.3,0.6-0.5,1-0.7C82.7,19.3,83.1,19.3,83.5,19.3z M89.4-0.6c0.7,0,1.2,0.1,1.5,0.3c0.4,0.2,0.6,0.4,0.8,0.6s0.2,0.5,0.2,0.8
			c0,0.3-0.1,0.5-0.1,0.8c-0.1,0.2-0.2,0.6-0.5,1.3c-0.2,0.7-0.5,1.4-0.8,2.2c-0.3,0.8-0.5,1.6-0.8,2.3S89.3,9,89.1,9.5
			c-0.3,0.9-0.7,1.6-1.1,1.9c-0.5,0.4-1,0.5-1.7,0.5h-1.2h-2.2h-2.9h-3.3h-8.7l0.5,3.2h17.7c1.1,0,1.7,0.5,1.7,1.4
			c0,0.5-0.1,0.9-0.3,1.2c-0.2,0.4-0.7,0.5-1.3,0.5h-1.7h-3.2h-4.1h-4.1h-3.4h-1.9c-0.5,0-0.9-0.1-1.2-0.3c-0.3-0.2-0.6-0.5-0.8-0.8
			c-0.2-0.3-0.4-0.7-0.5-1.1c-0.1-0.4-0.2-0.8-0.3-1.1c0-0.1-0.1-0.5-0.2-1c-0.1-0.5-0.2-1.2-0.4-2c-0.2-0.8-0.3-1.7-0.5-2.7
			s-0.4-2-0.6-3c-0.4-2.4-0.9-5-1.5-7.9h-2.6c-0.4,0-0.6-0.1-0.9-0.3s-0.4-0.4-0.6-0.6s-0.3-0.5-0.3-0.8c-0.1-0.3-0.1-0.5-0.1-0.8
			c0-0.5,0.2-0.9,0.5-1.2s0.7-0.4,1.3-0.4h3.5c0.5,0,0.8,0.1,1.1,0.2c0.3,0.1,0.5,0.3,0.7,0.5c0.2,0.2,0.3,0.4,0.4,0.6
			s0.1,0.4,0.2,0.6c0,0.2,0.1,0.4,0.1,0.8c0,0.3,0.1,0.7,0.1,1c0.1,0.4,0.1,0.9,0.2,1.3L89.4-0.6z M88.1,2.5L66.2,2.4l1.2,6.3
			l18.3,0L88.1,2.5z"/>
	</g>
</g>
</svg>
