<?xml version="1.0" encoding="utf-8"?>
<!-- Generator: Adobe Illustrator 15.0.0, SVG Export Plug-In . SVG Version: 6.00 Build 0)  -->
<!DOCTYPE svg PUBLIC "-//W3C//DTD SVG 1.1//EN" "http://www.w3.org/Graphics/SVG/1.1/DTD/svg11.dtd">
<svg version="1.1" id="图层_1" xmlns="http://www.w3.org/2000/svg" xmlns:xlink="http://www.w3.org/1999/xlink" x="0px" y="0px"
	 width="70px" height="69.998px" viewBox="0 0 70 69.998" enable-background="new 0 0 70 69.998" xml:space="preserve">
<g>
	<g>
		<g>
			<path fill="#AAAAAA" d="M34.716,69.713c-19.3,0-35.002-15.7-35.002-34.999S15.416-0.287,34.716-0.287
				c19.298,0,34.998,15.702,34.998,35.001S54.014,69.713,34.716,69.713z M34.716,2.59C17.002,2.59,2.591,17,2.591,34.714
				c0,17.712,14.411,32.122,32.125,32.122c17.712,0,32.121-14.409,32.121-32.122C66.837,17,52.428,2.59,34.716,2.59z"/>
		</g>
	</g>
	<g>
		<g>
			<path fill="#AAAAAA" d="M34.714,53.341c-0.794,0-1.438-0.645-1.438-1.438v-8.939c0-0.794,0.644-1.438,1.438-1.438
				c7.272,0,13.188-5.918,13.188-13.191c0-7.274-5.916-13.191-13.188-13.191c-7.273,0-13.189,5.917-13.189,13.191
				c0,0.794-0.644,1.438-1.438,1.438s-1.438-0.644-1.438-1.438c0-8.86,7.208-16.068,16.066-16.068
				c8.857,0,16.066,7.208,16.066,16.068c0,8.375-6.439,15.275-14.629,16.006v7.562C36.152,52.696,35.508,53.341,34.714,53.341z"/>
		</g>
	</g>
	<g>
		<circle fill="#AAAAAA" cx="34.714" cy="58.376" r="1.885"/>
	</g>
</g>
</svg>
