<?xml version="1.0" encoding="utf-8"?>
<!-- Generator: Adobe Illustrator 16.0.0, SVG Export Plug-In . SVG Version: 6.00 Build 0)  -->
<!DOCTYPE svg PUBLIC "-//W3C//DTD SVG 1.1//EN" "http://www.w3.org/Graphics/SVG/1.1/DTD/svg11.dtd">
<svg version="1.1" id="图层_1" xmlns="http://www.w3.org/2000/svg" xmlns:xlink="http://www.w3.org/1999/xlink" x="0px" y="0px"
	 width="16px" height="16px" viewBox="0 0 16 16" enable-background="new 0 0 16 16" xml:space="preserve">
<path fill="#00AA88" d="M8,0C3.582,0,0,3.582,0,8s3.582,8,8,8s8-3.582,8-8S12.418,0,8,0z M13.136,5.397l-5.488,5.485
	c-0.104,0.104-0.241,0.156-0.377,0.156c-0.137,0-0.273-0.052-0.377-0.155L3.463,7.456c-0.208-0.209-0.208-0.546,0-0.755
	c0.208-0.208,0.546-0.208,0.755,0l3.053,3.051l5.11-5.108c0.208-0.209,0.545-0.209,0.754,0C13.344,4.852,13.344,5.189,13.136,5.397z
	"/>
</svg>
