<?xml version="1.0" encoding="utf-8"?>
<!-- Generator: Adobe Illustrator 16.0.0, SVG Export Plug-In . SVG Version: 6.00 Build 0)  -->
<!DOCTYPE svg PUBLIC "-//W3C//DTD SVG 1.1//EN" "http://www.w3.org/Graphics/SVG/1.1/DTD/svg11.dtd">
<svg version="1.1" id="图层_1" xmlns="http://www.w3.org/2000/svg" xmlns:xlink="http://www.w3.org/1999/xlink" x="0px" y="0px"
	 width="142.305px" height="88.873px" viewBox="0 0 142.305 88.873" enable-background="new 0 0 142.305 88.873"
	 xml:space="preserve">
<g>
	<g>
		<path fill="#FFFFFF" d="M71.152,0.5C32.13,0.5,0.5,18.326,0.5,40.309C0.5,54,12.772,66.071,31.445,73.239
			c0,0.012,0.335,0.142,0.95,0.354c-0.713,5.207-5.626,10.571-7.886,13.492h0.009c-0.192,0.34-0.307,0.717-0.307,1.111
			c0,1.391,23.821-5.862,30.963-9.281c4.971,0.714,10.401,1.203,15.978,1.203c39.021,0,70.652-17.825,70.652-39.81
			S110.171,0.5,71.152,0.5z"/>
		<path fill="#C9CACA" d="M24.712,88.873c-0.87,0-1-0.423-1-0.675c0-0.441,0.107-0.871,0.327-1.277
			c0.017-0.05,0.042-0.097,0.072-0.14c0.326-0.421,0.706-0.894,1.121-1.407c2.347-2.902,5.851-7.245,6.604-11.445
			c-0.268-0.094-0.451-0.164-0.583-0.228C11.684,66.187,0,53.704,0,40.309C0,18.083,31.919,0,71.152,0
			c39.233,0,71.152,18.083,71.152,40.31s-31.919,40.31-71.152,40.31c-5.021,0-10.367-0.398-15.896-1.188
			C48.61,82.565,28.228,88.873,24.712,88.873z M24.959,87.323c-0.002,0.005-0.004,0.009-0.007,0.013
			c-0.104,0.175-0.169,0.354-0.207,0.537c3.562-0.04,23.807-6.34,30.214-9.407c0.089-0.042,0.188-0.056,0.287-0.044
			c5.535,0.795,10.887,1.198,15.903,1.198c38.686,0,70.152-17.635,70.152-39.31C141.304,18.634,109.835,1,71.152,1
			C32.47,1,1,18.634,1,40.309c0,12.967,11.448,25.103,30.625,32.463c0.022,0.01,0.05,0.021,0.073,0.035
			c0.102,0.043,0.396,0.15,0.859,0.312c0.228,0.078,0.364,0.305,0.332,0.54c-0.63,4.6-4.39,9.258-6.877,12.34
			C25.626,86.481,25.269,86.924,24.959,87.323z"/>
	</g>
	<g>
		<path fill="#2D2C2C" d="M31.561,25.764c-0.104-0.125-0.219-0.25-0.344-0.375c1.166-0.854,2.041-1.948,2.625-3.281l0.406,0.188
			C33.602,23.649,32.706,24.806,31.561,25.764z M37.873,29.201c-0.062-0.083-0.156-0.198-0.281-0.344
			c-0.125-0.167-0.219-0.292-0.281-0.375c-1.375,0.042-2.844,0.104-4.406,0.188c-0.271,0.042-0.528,0.073-0.778,0.094l-0.222-0.469
			c0.229-0.062,0.416-0.177,0.562-0.344c0.771-0.875,1.479-1.885,2.125-3.031l0.469,0.25c-0.812,1.208-1.584,2.25-2.312,3.125
			c0.562-0.021,1.361-0.052,2.403-0.094c0.771-0.021,1.375-0.042,1.812-0.062c-0.188-0.25-0.479-0.604-0.875-1.062
			c-0.188-0.229-0.323-0.396-0.406-0.5l0.344-0.281c0.166,0.188,0.416,0.479,0.75,0.875c0.646,0.75,1.146,1.323,1.5,1.719
			L37.873,29.201z M35.717,22.139l0.438-0.156c0.541,1.396,1.416,2.458,2.625,3.188c-0.125,0.125-0.237,0.261-0.344,0.406
			C37.123,24.66,36.217,23.514,35.717,22.139z"/>
		<path fill="#2D2C2C" d="M42.29,24.545h0.469c-0.021,0.167-0.042,0.396-0.062,0.688c-0.042,0.188-0.062,0.323-0.062,0.406
			c0.333,0.333,0.802,0.823,1.406,1.469c-0.021-0.021,0.01,0.011,0.094,0.094l-0.344,0.312c-0.438-0.5-0.49-0.562-0.156-0.188
			c-0.334-0.375-0.698-0.781-1.094-1.219c-0.209,1.208-0.875,2.208-2,3c-0.062-0.104-0.167-0.219-0.312-0.344
			C41.623,27.868,42.311,26.462,42.29,24.545z M47.509,24.795c-1.625-0.667-2.781-1.469-3.469-2.406
			c-0.812,1.021-1.979,1.886-3.5,2.594c-0.042-0.104-0.115-0.229-0.222-0.375c-0.021-0.021-0.042-0.042-0.062-0.062
			c1.75-0.75,3-1.708,3.75-2.875l0.469,0.094c-0.062,0.125-0.136,0.229-0.219,0.312c0.812,0.958,1.989,1.729,3.531,2.312
			C47.706,24.493,47.612,24.628,47.509,24.795z M45.165,24.545h0.438c-0.021,0.188-0.031,0.354-0.031,0.5
			c0.146,1.604,0.888,2.833,2.222,3.688c-0.146,0.146-0.25,0.271-0.312,0.375c-1.209-0.875-1.896-1.864-2.062-2.969
			c-0.188,1.208-0.906,2.239-2.156,3.094c-0.104-0.125-0.219-0.25-0.344-0.375C44.478,27.962,45.228,26.524,45.165,24.545z"/>
		<path fill="#2D2C2C" d="M50.427,26.92l0.5-1.375H49.24v-0.438h7.562v0.438h-5.406l-0.344,0.969h4.656
			c-0.021,0.292-0.056,0.656-0.097,1.094c-0.021,0.167-0.028,0.292-0.028,0.375c-0.062,0.708-0.597,1.062-1.597,1.062
			c-0.5,0.021-1.028,0.031-1.594,0.031c-0.021-0.146-0.053-0.312-0.094-0.5c0.333,0.021,0.885,0.031,1.656,0.031
			c0.75,0.042,1.146-0.198,1.188-0.719c0.021-0.104,0.041-0.271,0.062-0.5c0.021-0.229,0.028-0.385,0.028-0.469L50.427,26.92
			L50.427,26.92z M50.458,22.107h5.125v2.125h-5.125V22.107z M50.896,22.514v1.312h4.25v-1.312H50.896z"/>
		<path fill="#2D2C2C" d="M59.625,25.795v-0.812h0.781v0.812H59.625z M59.625,29.014v-0.75h0.781v0.75H59.625z"/>
		<path fill="#2D2C2C" d="M67.418,26.639c-0.062-0.146-0.136-0.271-0.219-0.375c0.604-0.688,1.094-1.5,1.469-2.438l0.375,0.188
			c-0.167,0.396-0.344,0.761-0.531,1.094v4.125h-0.375v-3.5C67.907,26.045,67.668,26.347,67.418,26.639z M67.543,24.139
			c-0.042-0.104-0.125-0.229-0.25-0.375c0.562-0.521,1.041-1.188,1.438-2l0.347,0.219C68.678,22.795,68.168,23.514,67.543,24.139z
			 M71.168,26.607h-1.25v0.375c0.041,0.854-0.229,1.521-0.812,2c-0.104-0.125-0.209-0.229-0.312-0.312
			c0.541-0.333,0.781-0.948,0.719-1.844v-0.594h2.031v1.562c0.125-0.125,0.375-0.354,0.75-0.688c0,0.062,0.01,0.136,0.031,0.219
			c0,0.083,0.01,0.156,0.028,0.219c-0.521,0.458-0.886,0.771-1.094,0.938l-0.31-0.312c0.166-0.167,0.236-0.385,0.219-0.656
			L71.168,26.607L71.168,26.607z M70.48,21.857h0.375v2h0.781v-1.406h0.375v1.781h-2.719v-1.781h0.375v1.406h0.812L70.48,21.857
			L70.48,21.857z M69.418,25.045h2.406v0.375h-2.406V25.045z M73.105,21.764l0.406,0.062c-0.125,0.5-0.261,0.969-0.406,1.406h1.781
			v0.375h-0.438c-0.104,1.583-0.389,2.792-0.847,3.625c0.25,0.479,0.666,1,1.25,1.562c-0.021,0.042-0.062,0.104-0.125,0.188
			c-0.084,0.083-0.136,0.135-0.153,0.156c-0.521-0.542-0.917-1.052-1.188-1.531c-0.229,0.438-0.667,0.958-1.312,1.562
			c-0.021-0.021-0.056-0.052-0.097-0.094c-0.125-0.104-0.195-0.177-0.219-0.219c0.646-0.562,1.125-1.114,1.438-1.656
			c-0.312-0.646-0.529-1.521-0.654-2.625c-0.042,0.083-0.104,0.198-0.188,0.344c-0.084,0.167-0.146,0.292-0.188,0.375
			c-0.084-0.125-0.181-0.239-0.281-0.344C72.428,24.097,72.834,23.035,73.105,21.764z M73.418,26.764
			c0.354-0.771,0.572-1.823,0.656-3.156H72.98c-0.062,0.125-0.112,0.25-0.153,0.375C72.949,25.149,73.146,26.076,73.418,26.764z"/>
		<path fill="#2D2C2C" d="M76.461,25.889c-0.062-0.167-0.125-0.312-0.188-0.438c0.729-1.062,1.291-2.292,1.688-3.688l0.406,0.125
			c-0.188,0.625-0.417,1.229-0.688,1.812v5.5h-0.406v-4.656C77.002,25.045,76.731,25.493,76.461,25.889z M80.68,21.889l0.406-0.156
			c0.083,0.188,0.208,0.448,0.375,0.781c-0.021-0.042,0,0.011,0.062,0.156l-0.344,0.125h2.656v0.406h-5.344v-0.406h2.625
			c0-0.021-0.014-0.052-0.031-0.094C80.961,22.431,80.825,22.16,80.68,21.889z M78.93,24.076h4.438v0.375H78.93V24.076z
			 M78.93,25.326h4.438v0.406H78.93V25.326z M79.023,26.607h4.25v2.594h-0.403v-0.469H79.43v0.469h-0.406L79.023,26.607
			L79.023,26.607z M79.43,26.982v1.375h3.438v-1.375H79.43z"/>
		<path fill="#2D2C2C" d="M86.065,23.951h5.938v1.688h-2.75v0.906h3.156c0,0.104-0.014,0.24-0.031,0.406
			c0,0.375-0.021,0.656-0.062,0.844c-0.042,0.583-0.396,0.864-1.062,0.844c-0.312,0-0.625,0-0.938,0
			c0-0.021-0.011-0.062-0.028-0.125c0-0.125-0.021-0.208-0.062-0.25c0.312,0.021,0.646,0.031,1,0.031
			c0.458,0,0.688-0.198,0.688-0.594c0.041-0.229,0.062-0.5,0.062-0.812h-2.719v2.344H88.85v-2.344
			c-0.75,0.979-1.875,1.698-3.375,2.156c-0.062-0.146-0.136-0.281-0.219-0.406c1.375-0.354,2.416-0.938,3.125-1.75h-2.5l0.344-1.625
			h2.625v-0.938h-2.781v-0.375H86.065z M86.815,21.67l0.438,0.062c-0.042,0.104-0.125,0.25-0.25,0.438
			c-0.062,0.104-0.115,0.188-0.156,0.25h2.281v0.344h-2.531c-0.292,0.396-0.625,0.75-1,1.062c-0.146-0.146-0.25-0.239-0.312-0.281
			C85.93,23.003,86.44,22.378,86.815,21.67z M86.534,25.639l-0.156,0.906h2.469v-0.906H86.534z M88.034,23.545l-0.312,0.25
			c-0.25-0.292-0.469-0.542-0.656-0.75l0.281-0.219c0.062,0.062,0.166,0.177,0.312,0.344C87.825,23.337,87.95,23.462,88.034,23.545z
			 M90.097,21.67l0.438,0.062c-0.104,0.25-0.222,0.479-0.347,0.688h2.562v0.344H89.97c-0.188,0.333-0.428,0.646-0.719,0.938
			c-0.084-0.083-0.209-0.167-0.375-0.25C89.44,22.91,89.847,22.316,90.097,21.67z M91.565,24.326h-2.312v0.938h2.312V24.326z
			 M91.565,23.545l-0.312,0.25c-0.25-0.292-0.49-0.531-0.719-0.719l0.25-0.25c0.041,0.042,0.104,0.094,0.188,0.156
			C91.117,23.087,91.315,23.274,91.565,23.545z"/>
		<path fill="#2D2C2C" d="M94.39,28.201h7.375v0.375H94.39V28.201z M94.89,22.545h6.375v0.438H94.89V22.545z M95.233,25.232h5.656
			v0.438h-5.656V25.232z"/>
		<path fill="#2D2C2C" d="M105.495,25.201c0.021-0.229,0.041-0.604,0.062-1.125c0.021-0.25,0.031-0.438,0.031-0.562H103.4v-0.406
			h7.375v0.406h-4.75c0,0.5-0.028,1-0.094,1.5h3.781c0,0.458-0.031,1.188-0.094,2.188c-0.021,0.188-0.031,0.323-0.031,0.406
			c-0.062,0.938-0.604,1.396-1.625,1.375c-0.479,0-0.875,0-1.188,0c-0.021-0.188-0.053-0.344-0.094-0.469c0.354,0,0.791,0,1.312,0
			c0.729,0.042,1.111-0.281,1.153-0.969c0.041-0.312,0.083-0.906,0.125-1.781c0-0.167,0-0.281,0-0.344h-3.375
			c-0.062,1.667-0.812,2.938-2.25,3.812c-0.104-0.104-0.219-0.219-0.344-0.344C104.724,28.056,105.453,26.826,105.495,25.201z
			 M106.683,21.857l0.438-0.125c0.188,0.417,0.361,0.812,0.528,1.188l-0.438,0.156c-0.042-0.104-0.115-0.281-0.219-0.531
			C106.849,22.232,106.745,22.003,106.683,21.857z"/>
		<path fill="#2D2C2C" d="M112.381,26.357l-0.094-0.438c0.146-0.042,0.361-0.114,0.653-0.219c0.166-0.062,0.291-0.104,0.375-0.125
			v-1.812h-0.903v-0.375h0.903v-1.656h0.406v1.656h0.844v0.375h-0.844v1.656c0.104-0.042,0.25-0.094,0.438-0.156
			c0.188-0.083,0.319-0.135,0.403-0.156c0,0.062,0.013,0.146,0.031,0.25c0,0.083,0,0.136,0,0.156
			c-0.084,0.021-0.198,0.062-0.344,0.125c-0.229,0.083-0.406,0.146-0.531,0.188v2.625c0.021,0.458-0.209,0.688-0.688,0.688
			c-0.042,0-0.125,0.01-0.25,0.031c-0.146,0-0.24,0-0.281,0c-0.021-0.167-0.053-0.312-0.094-0.438c0.146,0,0.319,0,0.528,0
			c0.271,0.021,0.396-0.094,0.375-0.344v-2.375C113.006,26.118,112.693,26.232,112.381,26.357z M115.162,26.139v-0.375h3.938v0.438
			c-0.438,0.771-0.938,1.365-1.5,1.781c0.583,0.312,1.333,0.562,2.25,0.75c-0.084,0.125-0.156,0.26-0.219,0.406
			c-1.042-0.25-1.844-0.552-2.406-0.906c-0.584,0.354-1.459,0.688-2.625,1c-0.062-0.125-0.136-0.261-0.219-0.406
			c1.062-0.25,1.896-0.531,2.5-0.844c-0.521-0.458-0.948-1.073-1.281-1.844H115.162z M114.881,24.326h3.281
			c0.291-0.5,0.562-0.989,0.812-1.469l0.406,0.188c-0.271,0.479-0.531,0.906-0.781,1.281h1.125v1.062h-0.438V24.7h-3.972v0.688
			h-0.438v-1.062H114.881z M119.6,22.42c-1.375,0.125-2.917,0.219-4.625,0.281c0-0.146-0.021-0.281-0.062-0.406
			c1.583-0.042,3.104-0.135,4.562-0.281L119.6,22.42z M115.256,23.139l0.344-0.156c0.25,0.354,0.447,0.667,0.594,0.938l-0.375,0.188
			C115.631,23.774,115.443,23.451,115.256,23.139z M118.631,26.139h-2.562c0.25,0.625,0.646,1.156,1.188,1.594
			C117.776,27.399,118.234,26.868,118.631,26.139z M116.85,23.014l0.375-0.125c0.166,0.312,0.312,0.656,0.438,1.031l-0.406,0.125
			C117.172,23.732,117.037,23.389,116.85,23.014z"/>
		<path fill="#2D2C2C" d="M22.361,37.139c-0.084-0.25-0.146-0.417-0.188-0.5c0.625-0.75,1.083-1.719,1.375-2.907H22.36v-0.375h1.188
			v-1.594h0.406v1.594h1.125v0.375h-1.125v1.407l0.278-0.25c0.083,0.083,0.229,0.239,0.438,0.469c0.312,0.333,0.5,0.541,0.562,0.625
			l-0.312,0.281c-0.125-0.167-0.375-0.448-0.75-0.844c-0.104-0.125-0.178-0.209-0.219-0.25v4h-0.406v-4.594
			C23.277,35.555,22.882,36.41,22.361,37.139z M25.08,32.732v-0.406h4.125v0.438c-0.354,1.833-0.917,3.229-1.688,4.188
			c0.521,0.604,1.281,1.188,2.281,1.75c-0.125,0.125-0.229,0.26-0.312,0.406c-1.042-0.625-1.792-1.229-2.25-1.812
			c-0.562,0.646-1.403,1.281-2.528,1.906c-0.084-0.125-0.188-0.25-0.312-0.375c1.083-0.562,1.938-1.188,2.562-1.875
			c-0.75-0.959-1.24-2.365-1.472-4.219L25.08,32.732L25.08,32.732z M28.768,32.732h-2.844c0.166,1.625,0.604,2.917,1.312,3.875
			C27.944,35.711,28.455,34.42,28.768,32.732z"/>
		<path fill="#2D2C2C" d="M33.651,34.389c-0.729,0.062-1.112,0.635-1.153,1.719v2.469h-0.438v-4.531h0.438v0.844h0.028
			c0.208-0.604,0.604-0.928,1.188-0.969c0.312-0.021,0.594,0.062,0.844,0.25l-0.219,0.438
			C34.172,34.461,33.942,34.389,33.651,34.389z"/>
		<path fill="#2D2C2C" d="M39.723,34.045h0.438v4.531h-0.438v-0.875c-0.334,0.604-0.875,0.926-1.625,0.969
			c-1.104,0.02-1.646-0.542-1.625-1.688v-2.969h0.438v2.906c-0.021,0.938,0.403,1.395,1.278,1.375c0.916-0.042,1.43-0.542,1.531-1.5
			L39.723,34.045L39.723,34.045z"/>
		<path fill="#2D2C2C" d="M46.075,34.014h0.5l-2.062,4.812c-0.354,0.957-0.75,1.395-1.188,1.312c-0.334,0-0.584-0.062-0.75-0.188
			l0.062-0.25c0.166,0.062,0.354,0.082,0.562,0.062c0.354,0.082,0.677-0.293,0.969-1.125c0.021-0.021,0.041-0.062,0.062-0.125
			c0.021-0.043,0.041-0.084,0.062-0.125l-1.906-4.375h0.5l1.594,3.969L46.075,34.014z"/>
		<path fill="#2D2C2C" d="M48.709,32.326h0.469v0.688h-0.469V32.326z M48.709,34.014h0.469v4.562h-0.469V34.014z"/>
		<path fill="#2D2C2C" d="M52.03,38.545v-0.75h0.75v0.75H52.03z"/>
		<path fill="#2D2C2C" d="M56.008,35.389l-0.438-0.156c0.188-0.896,0.854-1.334,2-1.312c1.25-0.042,1.847,0.5,1.781,1.625v2.031
			c-0.021,0.438,0.062,0.76,0.25,0.969h-0.469c-0.167-0.188-0.25-0.469-0.25-0.844c-0.334,0.625-1,0.947-2,0.969
			c-0.938-0.021-1.417-0.428-1.438-1.219c0-0.834,0.555-1.312,1.656-1.438c1.041-0.084,1.635-0.25,1.781-0.5
			c0.062-0.854-0.375-1.261-1.312-1.219C56.653,34.274,56.133,34.639,56.008,35.389z M58.914,36.764v-0.906
			c-0.146,0.25-0.656,0.427-1.531,0.531c-1.062,0.083-1.562,0.438-1.5,1.062c-0.042,0.583,0.364,0.863,1.219,0.844
			C58.227,38.253,58.83,37.743,58.914,36.764z"/>
		<path fill="#2D2C2C" d="M62.017,32.326h0.469v0.688h-0.469V32.326z M62.017,34.014h0.469v4.562h-0.469V34.014z"/>
		<path fill="#2D2C2C" d="M67.024,37.077v0.688c0.021,0.707-0.229,1.229-0.75,1.562l-0.219-0.188c0.458-0.334,0.677-0.75,0.656-1.25
			h-0.438v-0.812H67.024z"/>
		<path fill="#2D2C2C" d="M74.596,39.233c-0.021-0.084-0.084-0.188-0.188-0.312c-0.021-0.062-0.042-0.105-0.062-0.125
			c2.062-0.396,3.302-1,3.719-1.812H74.41v-0.406h3.844c0.208-0.562,0.312-1.511,0.312-2.844h0.438c0,1.313-0.094,2.26-0.281,2.844
			h3.031v0.406h-3.188c-0.021,0.021-0.042,0.062-0.062,0.125c-0.042,0.083-0.084,0.146-0.125,0.188
			c0.229,0.104,0.552,0.25,0.969,0.438c0.958,0.396,1.719,0.719,2.281,0.969l-0.25,0.406c-0.542-0.271-1.25-0.594-2.125-0.969
			c-0.479-0.229-0.854-0.406-1.125-0.531C77.522,38.295,76.346,38.836,74.596,39.233z M77.627,31.889l0.375-0.156
			c0.021,0.021,0.041,0.062,0.062,0.125c0.208,0.312,0.364,0.583,0.472,0.812l-0.347,0.156h3.375v1.313h-0.438v-0.907h-6.125v0.907
			h-0.438v-1.313h3.562c-0.062-0.104-0.146-0.26-0.25-0.469C77.772,32.149,77.689,31.993,77.627,31.889z M76.752,36.139
			c-0.459-0.292-0.959-0.562-1.5-0.812l0.219-0.344c0.458,0.208,0.969,0.469,1.531,0.781L76.752,36.139z M77.471,34.983
			c-0.459-0.271-0.948-0.553-1.469-0.844l0.219-0.312c0.312,0.166,0.729,0.385,1.25,0.656c0.104,0.062,0.188,0.104,0.25,0.125
			L77.471,34.983z"/>
		<path fill="#2D2C2C" d="M83.948,35.014h1.028v-2.188h-1.153v-0.375h2.719v0.375h-1.125v2.188h1.031v0.375h-1.031v2.188
			c0.146-0.021,0.344-0.053,0.594-0.094c0.271-0.042,0.458-0.073,0.562-0.094c0,0.041,0.01,0.125,0.028,0.25
			c0,0.083,0,0.135,0,0.156c-0.729,0.104-1.646,0.25-2.75,0.438l-0.094-0.438c0.083,0,0.281-0.021,0.594-0.062
			c0.271-0.042,0.479-0.073,0.625-0.094v-2.25h-1.028V35.014z M88.604,33.232h0.406c0,0.688-0.011,1.135-0.031,1.344
			c-0.042,1.312-0.25,2.26-0.625,2.844c-0.354,0.583-1.084,1.176-2.188,1.781c-0.021-0.021-0.062-0.074-0.125-0.156
			c-0.084-0.084-0.146-0.146-0.188-0.188c1.062-0.543,1.76-1.094,2.094-1.656c0.354-0.521,0.555-1.344,0.597-2.469
			c0-0.021,0-0.053,0-0.094C88.583,34.16,88.604,33.691,88.604,33.232z M86.854,32.139h3.875v4.532h-0.438v-4.157h-3v4.219h-0.438
			L86.854,32.139L86.854,32.139z M88.823,36.202h0.438v1.844c-0.021,0.395,0.166,0.572,0.562,0.531h0.375
			c0.375,0,0.594-0.146,0.653-0.438c0.062-0.354,0.097-0.678,0.097-0.969c0.083,0.041,0.219,0.094,0.403,0.156
			c0,0.166-0.021,0.427-0.062,0.781c0.041-0.25,0.041-0.219,0,0.094c-0.084,0.52-0.459,0.77-1.125,0.75h-0.471
			c-0.584,0.02-0.875-0.271-0.875-0.875v-1.874H88.823z"/>
		<path fill="#2D2C2C" d="M95.488,37.608l0.25,0.312c-0.75,0.333-1.487,0.645-2.219,0.938c-0.042-0.105-0.115-0.23-0.219-0.375
			C94.071,38.253,94.801,37.961,95.488,37.608z M94.176,33.482h2.719v-0.656h-3.219v-0.344h3.219v-0.781h0.406v0.781h3.188v0.344
			h-3.188v0.656h2.688v0.344h-2.688v0.656h3.469v0.344h-3.938l0.312,0.188c-0.229,0.083-0.584,0.197-1.062,0.344
			c-0.417,0.125-0.74,0.229-0.972,0.312c0.938-0.042,1.822-0.073,2.656-0.094c0.416-0.167,0.791-0.323,1.125-0.469l0.344,0.281
			c-1.312,0.521-2.761,1.041-4.344,1.562c0.521-0.021,1.333-0.042,2.438-0.062c0.791-0.042,1.361-0.062,1.719-0.062
			c-0.25-0.167-0.5-0.344-0.75-0.531l0.281-0.25c0.708,0.458,1.312,0.885,1.812,1.281l-0.281,0.281
			c-0.188-0.125-0.386-0.271-0.594-0.438c-0.917,0-1.636,0.01-2.156,0.031v1.031c0.041,0.562-0.25,0.844-0.875,0.844
			c-0.312,0-0.594,0-0.844,0c0-0.043-0.011-0.105-0.031-0.188c-0.021-0.104-0.042-0.178-0.062-0.219c0.25,0,0.521,0,0.812,0
			c0.416,0.02,0.614-0.146,0.597-0.5v-0.969c-0.229,0-0.306,0-0.222,0c-0.938,0.041-1.57,0.062-1.903,0.062
			c-0.084,0-0.198,0.01-0.347,0.031c-0.167,0-0.292,0.01-0.375,0.031l-0.188-0.406c0.208-0.042,0.469-0.115,0.781-0.219
			c0.104-0.042,0.271-0.094,0.5-0.156c0.771-0.271,1.354-0.49,1.75-0.656c-1.125,0.021-2.014,0.062-2.656,0.125l-0.156-0.406
			c0.271-0.062,0.479-0.115,0.625-0.156c0.646-0.188,1.229-0.396,1.75-0.625h-3.156V34.48h3.531v-0.656h-2.719L94.176,33.482
			L94.176,33.482z M98.363,37.92l0.25-0.344c0.812,0.354,1.541,0.666,2.188,0.938l-0.281,0.344
			c-0.271-0.146-0.834-0.387-1.688-0.719C98.623,38.035,98.467,37.961,98.363,37.92z"/>
		<path fill="#2D2C2C" d="M103.028,37.17c-0.062-0.125-0.136-0.292-0.219-0.5c0.583-0.812,1.041-1.792,1.375-2.938h-1.25v-0.375
			h1.281v-1.594h0.438v1.594h1.156v0.375h-1.156v1.25l0.25-0.25c0.479,0.396,0.888,0.739,1.222,1.031l-0.347,0.312
			c-0.292-0.292-0.667-0.646-1.125-1.062v4.188h-0.438v-4.562C103.924,35.555,103.528,36.399,103.028,37.17z M106.31,33.357h2.531
			v-1.594h0.438v1.594h1.097v0.406h-1.097v4.282c0.041,0.645-0.312,0.969-1.062,0.969c-0.209,0.02-0.553,0.031-1.031,0.031
			c0-0.105-0.021-0.23-0.062-0.375c-0.021-0.043-0.031-0.074-0.031-0.094c0.062,0,0.188,0,0.375,0
			c0.291,0.02,0.51,0.031,0.656,0.031c0.5,0.02,0.736-0.188,0.719-0.625v-4.219h-0.062c-0.646,1.75-1.688,3.177-3.125,4.282
			c-0.104-0.125-0.222-0.24-0.347-0.344c1.438-1.042,2.458-2.354,3.062-3.938h-2.062V33.357L106.31,33.357z"/>
		<path fill="#2D2C2C" d="M113.287,39.108h-0.438V32.17h6.5v6c0.041,0.582-0.271,0.875-0.938,0.875
			c-0.354,0.02-0.722,0.031-1.097,0.031c-0.021-0.146-0.053-0.303-0.094-0.469c0.291,0.02,0.635,0.031,1.031,0.031
			c0.479,0.02,0.697-0.156,0.656-0.531v-5.532h-5.625v6.533H113.287z M113.881,33.67h4.406v0.407h-4.406V33.67z M114.537,35.17
			h3.125v2.375h-3.125V35.17z M114.943,35.545v1.594h2.312v-1.594H114.943z"/>
		<path fill="#2D2C2C" d="M25.986,41.733h0.438v1.125h2.656v0.406h-2.656v1.312h3.25v0.405h-7.375v-0.405h1.344V42.42h0.438v2.156
			h1.903L25.986,41.733L25.986,41.733z M22.518,49.233c-0.021-0.084-0.094-0.219-0.219-0.406c2.812-0.355,4.969-1.229,6.469-2.625
			l0.344,0.281C27.569,47.878,25.371,48.795,22.518,49.233z M24.58,45.765l0.312,0.312c-0.709,0.583-1.406,1.113-2.094,1.594
			c-0.062-0.104-0.156-0.219-0.281-0.344C23.246,46.868,23.934,46.347,24.58,45.765z M25.955,45.327h0.438v2.25h-0.438V45.327z"/>
		<path fill="#2D2C2C" d="M33.467,47.077v0.688c0.021,0.707-0.229,1.229-0.75,1.562l-0.219-0.188c0.458-0.334,0.677-0.75,0.653-1.25
			h-0.438v-0.812H33.467z"/>
		<path fill="#2D2C2C" d="M43.853,41.733h0.438v1.125h3.403v0.406H44.29v1.312h2.188v0.405c-0.438,1.104-1.125,2-2.062,2.688
			c0.646,0.438,1.75,0.781,3.312,1.031c-0.104,0.146-0.198,0.291-0.281,0.438c-1.646-0.354-2.792-0.74-3.438-1.156
			c-0.792,0.457-1.938,0.887-3.438,1.281c-0.021-0.084-0.084-0.188-0.188-0.312c-0.021-0.062-0.042-0.104-0.062-0.125
			c1.5-0.334,2.604-0.72,3.312-1.156c-0.771-0.625-1.386-1.521-1.844-2.688h-0.722v-0.404h2.781v-1.312h-3.56v-0.406h3.562
			L43.853,41.733L43.853,41.733z M46.009,44.983h-3.75c0.438,1.125,1.031,1.938,1.781,2.438
			C44.894,46.858,45.55,46.045,46.009,44.983z"/>
		<path fill="#2D2C2C" d="M49.24,45.92c0.146-0.042,0.354-0.084,0.625-0.125c0.229-0.062,0.403-0.104,0.528-0.125v-1.875H49.3
			v-0.406h1.094v-1.656H50.8v1.656h0.938v0.406H50.8v1.75c0.312-0.062,0.625-0.136,0.938-0.219c0,0.166,0,0.302,0,0.405
			c-0.104,0.021-0.261,0.062-0.469,0.125c-0.209,0.041-0.365,0.084-0.469,0.125v2.345c0,0.5-0.25,0.76-0.75,0.78
			c-0.292,0-0.5,0-0.625,0c0-0.043-0.011-0.094-0.031-0.155c-0.021-0.146-0.042-0.25-0.062-0.312c0.229,0,0.438,0,0.625,0
			c0.291,0,0.438-0.115,0.438-0.347v-2.219c-0.334,0.062-0.695,0.153-1.094,0.278L49.24,45.92z M52.208,42.827h1.904v-1.094h0.438
			v1.094h1.906v0.375h-1.906v1.281h2.25v0.375h-4.938v-0.375h2.25v-1.281h-1.904V42.827z M55.146,45.265h0.406v0.75h1.25v0.375
			h-1.25v1.875c0.021,0.562-0.312,0.832-1,0.812c-0.271,0.021-0.604,0.029-1,0.029c0-0.146-0.021-0.303-0.062-0.469
			c0.271,0.021,0.604,0.03,1,0.03c0.458,0.021,0.677-0.168,0.653-0.562v-1.719h-3.278v-0.375h3.278L55.146,45.265L55.146,45.265z
			 M52.271,47.045l0.312-0.28c0.291,0.25,0.654,0.604,1.094,1.062l-0.344,0.279c-0.125-0.125-0.375-0.375-0.75-0.75
			C52.437,47.211,52.333,47.108,52.271,47.045z"/>
		<path fill="#2D2C2C" d="M58.656,42.045h6.719v7.156h-0.406v-0.375h-5.906v0.375h-0.403L58.656,42.045L58.656,42.045z
			 M59.062,42.42v6h5.906v-6H59.062z M59.812,44.733c-0.062-0.104-0.146-0.198-0.25-0.281c0.646-0.5,1.197-1.084,1.656-1.75
			l0.344,0.188c-0.042,0.062-0.125,0.166-0.25,0.312c-0.062,0.062-0.104,0.114-0.125,0.156h2.847v0.375
			c-0.417,0.5-0.906,0.916-1.472,1.25c0.604,0.25,1.291,0.438,2.062,0.562c-0.062,0.125-0.115,0.25-0.156,0.375
			c-0.834-0.167-1.594-0.405-2.281-0.719c-0.729,0.375-1.594,0.666-2.594,0.875c-0.062-0.125-0.125-0.25-0.188-0.375
			c0.916-0.146,1.722-0.386,2.406-0.72c-0.417-0.271-0.812-0.593-1.188-0.968c-0.062,0.041-0.156,0.125-0.281,0.25
			C60.302,44.327,60.125,44.483,59.812,44.733z M60.094,47.39l0.125-0.375c1.291,0.188,2.479,0.385,3.562,0.594l-0.125,0.375
			C62.302,47.69,61.115,47.493,60.094,47.39z M63.562,43.702h-2.653l-0.031,0.031c0.375,0.438,0.812,0.791,1.312,1.062
			C62.729,44.483,63.188,44.118,63.562,43.702z M60.906,46.358l0.125-0.375c0.229,0.041,0.604,0.104,1.125,0.188
			c0.538,0.104,0.913,0.178,1.125,0.219l-0.125,0.344C62.406,46.565,61.656,46.44,60.906,46.358z"/>
		<path fill="#2D2C2C" d="M67.355,43.077H74.7v0.438h-1.438c-0.312,1.562-0.938,2.781-1.875,3.656
			c0.812,0.625,1.927,1.104,3.344,1.438c-0.042,0.062-0.104,0.179-0.188,0.347c-0.021,0.041-0.042,0.082-0.062,0.125
			c-1.625-0.521-2.771-1.056-3.438-1.597c-0.584,0.5-1.719,1.054-3.406,1.656c-0.084-0.168-0.178-0.312-0.281-0.438
			c1.458-0.417,2.572-0.917,3.347-1.5c-0.979-1-1.604-2.229-1.875-3.688h-1.472L67.355,43.077L67.355,43.077z M71.043,46.89
			c0.958-0.875,1.541-2,1.75-3.375h-3.531C69.512,44.847,70.105,45.972,71.043,46.89z M70.543,41.92l0.406-0.188
			c0.083,0.146,0.219,0.364,0.403,0.656c0.125,0.208,0.222,0.364,0.281,0.469l-0.438,0.219C70.99,42.66,70.771,42.274,70.543,41.92z
			"/>
		<path fill="#2D2C2C" d="M77.586,48.265c0.291-0.188,0.614-0.418,0.969-0.688c0.021,0.041,0.031,0.125,0.031,0.25
			c0.021,0.125,0.031,0.208,0.031,0.25c-0.521,0.291-0.99,0.604-1.406,0.938L76.93,48.64c0.146-0.168,0.219-0.365,0.219-0.595
			v-3.219h-0.875v-0.375h1.312V48.265z M77.773,43.358c-0.334-0.375-0.719-0.761-1.153-1.156l0.312-0.281
			c0.5,0.458,0.896,0.833,1.188,1.125L77.773,43.358z M78.492,42.483v-0.375h5v0.375h-2.972l-0.188,1.094h2.594v1.656h0.906v0.375
			h-5.562v-0.375h1.375l0.222-1.312H78.68v-0.344h1.25l0.188-1.094H78.492L78.492,42.483z M78.992,46.545h4.125v2.656h-0.406v-0.5
			H79.43v0.5h-0.438V46.545z M79.43,46.92v1.406h3.281V46.92H79.43z M82.492,43.92h-2.222l-0.219,1.312h2.438L82.492,43.92
			L82.492,43.92z"/>
		<path fill="#2D2C2C" d="M87.159,43.452l0.344-0.219c0.104,0.104,0.239,0.26,0.406,0.469c0.125,0.146,0.219,0.26,0.278,0.344
			l-0.344,0.219h2.031c0.25-0.354,0.488-0.709,0.719-1.062L91,43.453c-0.021,0.021-0.054,0.062-0.095,0.125
			c-0.229,0.291-0.417,0.521-0.562,0.688h2.438v0.406h-7.472v-0.406h2.5C87.606,43.972,87.388,43.702,87.159,43.452z M88.628,41.827
			l0.406-0.156c0.062,0.083,0.146,0.219,0.25,0.406c0.104,0.166,0.177,0.302,0.219,0.406l-0.344,0.156h3.25v0.375h-6.688v-0.375
			h3.344c-0.062-0.146-0.167-0.344-0.312-0.594C88.69,41.941,88.648,41.868,88.628,41.827z M86.284,45.515h5.5v3.655h-0.438v-0.469
			h-4.625v0.5h-0.438L86.284,45.515L86.284,45.515z M86.722,45.89v1.094h4.625V45.89H86.722z M86.722,47.327v1h4.625v-1H86.722z"/>
		<path fill="#2D2C2C" d="M94.421,43.764v-0.406h2.25v0.438c-0.271,0.521-0.542,0.958-0.812,1.312v4.094h-0.438V45.64
			c-0.271,0.334-0.594,0.666-0.969,1c-0.021-0.041-0.062-0.146-0.125-0.312c-0.021-0.062-0.042-0.115-0.062-0.156
			c0.75-0.584,1.406-1.386,1.969-2.406h-1.812L94.421,43.764L94.421,43.764z M95.108,41.983l0.375-0.188
			c0.062,0.104,0.18,0.302,0.347,0.594c0.166,0.312,0.278,0.521,0.344,0.625l-0.406,0.188
			C95.431,42.535,95.212,42.128,95.108,41.983z M96.046,45.545l0.281-0.25c0.146,0.146,0.344,0.354,0.594,0.625
			c0.146,0.166,0.239,0.271,0.281,0.312l-0.347,0.281C96.691,46.306,96.421,45.983,96.046,45.545z M99.14,43.233h0.406
			c0,0.896-0.021,1.541-0.062,1.938c-0.021,1.854-0.938,3.197-2.75,4.031c-0.104-0.105-0.219-0.219-0.344-0.344
			c1.812-0.812,2.708-2.043,2.688-3.688C99.118,44.524,99.14,43.878,99.14,43.233z M97.483,42.108h3.75v4.5h-0.403v-4.094h-2.906
			v4.219h-0.438L97.483,42.108L97.483,42.108z M99.452,46.202h0.403v1.844c-0.021,0.375,0.166,0.551,0.562,0.531h0.344
			c0.333,0,0.531-0.146,0.594-0.438c0.062-0.354,0.097-0.681,0.097-0.972c0.083,0.041,0.219,0.097,0.403,0.156
			c0,0.271-0.028,0.562-0.094,0.875c-0.062,0.521-0.396,0.771-1,0.75h-0.438c-0.584,0.021-0.875-0.271-0.875-0.875L99.452,46.202
			L99.452,46.202z"/>
		<path fill="#2D2C2C" d="M105.214,41.764h0.406v1.25h1.062v0.344h-1.062v1.25h1.219v0.344h-3.531v-0.344h0.625v-2.125h0.375v2.125
			h0.906V41.764z M103.683,47.515l-0.344-0.188c0.25-0.438,0.479-0.959,0.688-1.562l0.375,0.125
			C104.234,46.41,103.995,46.952,103.683,47.515z M103.651,49.233c-0.084-0.125-0.178-0.24-0.278-0.344
			c1.416-0.584,2.385-1.543,2.903-2.875l0.347,0.153C106.036,47.586,105.047,48.608,103.651,49.233z M104.964,45.295h0.406v1.938
			h-0.406V45.295z M108.651,44.764h0.406v0.562c0,1.062-0.125,1.833-0.375,2.312l0.25-0.281c0.75,0.541,1.406,1.021,1.969,1.438
			l-0.278,0.312c-0.209-0.168-0.604-0.459-1.188-0.875c-0.334-0.25-0.584-0.438-0.75-0.562c-0.271,0.583-0.979,1.104-2.125,1.562
			c-0.062-0.125-0.156-0.25-0.281-0.375c1.041-0.375,1.688-0.778,1.938-1.219c0.312-0.396,0.458-1.166,0.438-2.312L108.651,44.764
			L108.651,44.764z M107.183,43.733h1.156l0.25-1.188h-1.75V42.17h4.031v0.375h-1.875l-0.25,1.188h1.778v3.875h-0.403v-3.531h-2.531
			v3.531h-0.406V43.733z"/>
		<path fill="#2D2C2C" d="M113.85,41.67l0.406,0.062c-0.104,0.229-0.24,0.479-0.406,0.75h2.312v0.344h-2.531
			c-0.312,0.416-0.656,0.781-1.031,1.094c-0.021-0.042-0.094-0.115-0.219-0.219c-0.042-0.042-0.073-0.073-0.094-0.094
			C112.933,43.108,113.453,42.461,113.85,41.67z M112.35,45.515h3.469v-0.907h-2.938v-0.375h2.938v-0.5h0.438v0.5h3.062v0.375
			h-3.062v0.907h3.625v0.375h-7.531L112.35,45.515L112.35,45.515z M117.506,46.17h0.406v0.595h1.688v0.344h-1.688v1.096
			c0.021,0.604-0.306,0.904-0.972,0.904c-0.459,0-0.803,0-1.028,0c0-0.043-0.014-0.113-0.031-0.219
			c-0.021-0.084-0.042-0.156-0.062-0.22c0.25,0.021,0.597,0.031,1.031,0.031c0.458,0.021,0.677-0.179,0.656-0.595v-1H112.6v-0.344
			h4.906V46.17z M113.912,47.515l0.312-0.281c0.104,0.082,0.291,0.25,0.562,0.5c0.271,0.229,0.458,0.396,0.562,0.5l-0.312,0.25
			c-0.062-0.043-0.167-0.125-0.312-0.25C114.35,47.878,114.078,47.64,113.912,47.515z M115.068,43.67l-0.312,0.25
			c-0.209-0.292-0.428-0.542-0.656-0.75l0.312-0.219C114.641,43.18,114.859,43.42,115.068,43.67z M117.162,41.67l0.403,0.062
			c-0.125,0.271-0.25,0.521-0.375,0.75h2.597v0.344h-2.847c-0.167,0.25-0.362,0.5-0.594,0.75c-0.125-0.104-0.25-0.188-0.375-0.25
			C116.495,42.827,116.891,42.274,117.162,41.67z M118.6,43.67l-0.312,0.25c-0.084-0.084-0.209-0.209-0.375-0.375
			c-0.167-0.167-0.292-0.281-0.375-0.344l0.278-0.25C118.089,43.18,118.35,43.42,118.6,43.67z"/>
		<path fill="#2D2C2C" d="M25.955,51.64l0.469,0.125c-0.271,0.25-0.562,0.488-0.875,0.719h3.531v0.406
			c-1.459,1.354-3.639,2.396-6.531,3.125c-0.021-0.062-0.062-0.168-0.125-0.312c-0.042-0.042-0.062-0.073-0.062-0.095
			c2.646-0.625,4.688-1.53,6.125-2.719h-3.438c-0.125,0.082-0.271,0.176-0.438,0.279c0.438,0.25,0.864,0.531,1.281,0.846
			l-0.281,0.312c-0.146-0.104-0.344-0.24-0.594-0.406c-0.312-0.229-0.562-0.403-0.75-0.528c-0.167,0.104-0.448,0.26-0.844,0.469
			c-0.188,0.082-0.334,0.156-0.438,0.219c-0.062-0.125-0.146-0.25-0.25-0.375C23.986,53.181,25.059,52.493,25.955,51.64z
			 M26.893,54.702l0.375,0.219c-0.25,0.208-0.5,0.406-0.75,0.594h2.906v0.438c-1.5,1.666-3.75,2.76-6.75,3.28
			c-0.021-0.043-0.053-0.104-0.094-0.188c-0.042-0.104-0.073-0.178-0.097-0.219c2.812-0.438,4.947-1.417,6.406-2.938h-2.938
			c-0.229,0.188-0.472,0.344-0.722,0.469c0.166,0.125,0.416,0.304,0.75,0.531c0.208,0.146,0.364,0.26,0.472,0.344l-0.312,0.312
			c-0.438-0.375-0.865-0.697-1.281-0.969c-0.521,0.291-1.094,0.562-1.719,0.812l-0.25-0.406
			C24.413,56.42,25.746,55.66,26.893,54.702z"/>
		<path fill="#2D2C2C" d="M31.099,54.545h7.375v0.406h-2.469v2.938c-0.042,0.438,0.166,0.635,0.625,0.594h0.562
			c0.479,0.02,0.75-0.168,0.812-0.562c0.041-0.125,0.072-0.386,0.094-0.781c0.021-0.084,0.031-0.146,0.031-0.188
			c0.125,0.041,0.271,0.083,0.438,0.125c0,0.041-0.011,0.094-0.028,0.156c-0.021,0.354-0.056,0.604-0.097,0.75
			c-0.084,0.666-0.487,0.979-1.219,0.938h-0.688c-0.667,0.02-0.99-0.281-0.972-0.906v-3.062h-1.778c0,0.25-0.014,0.416-0.031,0.5
			c0.083,1.771-0.688,3.021-2.312,3.75c-0.084-0.125-0.188-0.25-0.312-0.375c0.916-0.459,1.489-0.896,1.719-1.312
			c0.291-0.418,0.447-1.097,0.469-2.031c0.021-0.084,0.031-0.262,0.031-0.531h-2.25V54.545z M31.849,52.265h5.906v0.405h-5.906
			V52.265z"/>
		<path fill="#2D2C2C" d="M40.523,56.452c0.021,0,0.055,0,0.097,0c0.458-0.062,1.01-0.146,1.653-0.25
			c0,0.041-0.011,0.113-0.028,0.219c0,0.083-0.014,0.156-0.031,0.219c-0.896,0.084-1.615,0.188-2.156,0.312l-0.188-0.406
			c0.146-0.084,0.26-0.188,0.344-0.312c0.208-0.229,0.562-0.719,1.062-1.469c-0.542,0-1,0.021-1.375,0.062l-0.125-0.375
			c0.125-0.084,0.229-0.188,0.312-0.312c0.521-0.875,0.947-1.678,1.281-2.406l0.438,0.156c-0.5,0.979-0.99,1.822-1.469,2.531
			c0.166,0,0.385-0.011,0.656-0.031c0.229,0,0.396,0,0.5,0c0.229-0.354,0.416-0.666,0.562-0.938l0.406,0.188
			C41.689,54.847,41.044,55.785,40.523,56.452z M39.867,58.608l-0.097-0.375c0.833-0.125,1.697-0.281,2.597-0.469
			c-0.021,0.082-0.031,0.229-0.031,0.438C41.523,58.306,40.7,58.44,39.867,58.608z M42.836,54.702h1.875v-1.375h-2.125V52.92h2.125
			v-1.155h0.406v1.155h2.188v0.406h-2.188v1.375h1.875v0.405h-4.156V54.702z M42.961,56.202h3.906v3h-0.406v-0.5h-3.062v0.5h-0.438
			V56.202z M43.398,56.577v1.719h3.062v-1.719H43.398z"/>
		<path fill="#2D2C2C" d="M55.855,55.015c-1.542-0.75-2.688-1.625-3.438-2.625c-0.834,1-2,1.905-3.5,2.719
			c-0.021-0.043-0.062-0.113-0.125-0.219c-0.062-0.084-0.115-0.146-0.156-0.188c1.625-0.792,2.875-1.792,3.75-3l0.469,0.094
			c-0.062,0.083-0.125,0.178-0.188,0.281c0.875,1.083,2.031,1.916,3.469,2.5C56.053,54.681,55.959,54.827,55.855,55.015z
			 M49.73,55.952h5.281v3.25h-0.438v-0.5h-4.406v0.5H49.73V55.952z M50.168,56.358v1.938h4.406v-1.938H50.168z M50.199,54.42h4.375
			v0.406h-4.375V54.42z"/>
		<path fill="#2D2C2C" d="M58.562,57.89c0.062-0.646,0.416-1,1.062-1.062c0.646,0.062,1,0.416,1.062,1.062
			c-0.062,0.604-0.417,0.938-1.062,1C58.978,58.827,58.624,58.493,58.562,57.89z M58.843,57.89c0.041,0.438,0.302,0.676,0.781,0.719
			c0.458-0.043,0.708-0.279,0.75-0.719c-0.042-0.459-0.292-0.709-0.75-0.75C59.145,57.181,58.884,57.431,58.843,57.89z"/>
	</g>
	<g>
		<path fill="#C9CACA" d="M79.316,71.215v-1c25.142,0,47.139-9.831,52.309-23.377l0.934,0.356
			C127.244,61.114,104.854,71.215,79.316,71.215z"/>
	</g>
</g>
</svg>
