<?xml version="1.0" encoding="utf-8"?>
<!-- Generator: Adobe Illustrator 16.0.0, SVG Export Plug-In . SVG Version: 6.00 Build 0)  -->
<!DOCTYPE svg PUBLIC "-//W3C//DTD SVG 1.1//EN" "http://www.w3.org/Graphics/SVG/1.1/DTD/svg11.dtd">
<svg version="1.1" id="图层_1" xmlns="http://www.w3.org/2000/svg" xmlns:xlink="http://www.w3.org/1999/xlink" x="0px" y="0px"
	 width="142.305px" height="88.873px" viewBox="0 0 142.305 88.873" enable-background="new 0 0 142.305 88.873"
	 xml:space="preserve">
<g>
	<g>
		<path fill="#FFFFFF" d="M71.152,0.5C32.13,0.5,0.5,18.325,0.5,40.309C0.5,54,12.772,66.071,31.445,73.238
			c0,0.012,0.335,0.142,0.95,0.355C31.683,78.8,26.77,84.165,24.51,87.085h0.009c-0.195,0.341-0.307,0.717-0.307,1.112
			c0,1.391,23.821-5.863,30.963-9.282c4.971,0.714,10.401,1.203,15.978,1.203c39.019,0,70.652-17.825,70.652-39.81
			S110.171,0.5,71.152,0.5z"/>
		<path fill="#C9CACA" d="M24.712,88.873c-0.87,0-1-0.423-1-0.675c0-0.441,0.11-0.87,0.327-1.278
			c0.017-0.049,0.042-0.097,0.075-0.141c0.326-0.42,0.706-0.892,1.121-1.406c2.344-2.903,5.848-7.245,6.602-11.445
			c-0.265-0.094-0.452-0.164-0.583-0.228C11.683,66.185,0,53.704,0,40.309C0,18.083,31.919,0,71.152,0s71.152,18.083,71.152,40.31
			s-31.919,40.31-71.152,40.31c-5.021,0-10.37-0.399-15.899-1.188C48.609,82.564,28.228,88.873,24.712,88.873z M24.959,87.322
			c-0.002,0.004-0.004,0.008-0.007,0.012c-0.101,0.176-0.17,0.355-0.207,0.539c3.562-0.04,23.806-6.34,30.214-9.408
			c0.089-0.042,0.19-0.058,0.287-0.044c5.535,0.795,10.887,1.198,15.906,1.198c38.683,0,70.152-17.635,70.152-39.31
			S109.835,1,71.152,1S1,18.634,1,40.309c0,12.966,11.448,25.102,30.624,32.462c0.026,0.01,0.051,0.021,0.073,0.035
			c0.102,0.044,0.398,0.153,0.862,0.314c0.225,0.078,0.363,0.305,0.331,0.541c-0.629,4.598-4.389,9.257-6.877,12.34
			C25.626,86.481,25.269,86.923,24.959,87.322z"/>
	</g>
	<g>
		<path fill="#3E3A39" d="M21.184,20.995c0-0.083-0.021-0.197-0.062-0.344c-0.021-0.166-0.042-0.281-0.062-0.344
			c1.021-0.062,2.062-0.177,3.125-0.344l0.156,0.688c-0.104,0-0.261,0.021-0.469,0.062c-0.312,0.021-0.542,0.042-0.688,0.062v1.156
			h1.844c-0.062-0.812-0.094-1.572-0.094-2.281h0.75c0,0.479,0.021,1.24,0.062,2.281h2.688v0.688h-2.656l0.062,0.469
			c0.062,0.521,0.125,0.99,0.188,1.406c0.5-0.458,0.947-0.969,1.344-1.531l0.594,0.438c-0.521,0.709-1.094,1.323-1.719,1.844
			c0.041,0.062,0.083,0.156,0.125,0.281c0.062,0.125,0.104,0.219,0.125,0.281c0.208,0.375,0.447,0.552,0.719,0.531
			c0.166,0,0.291-0.114,0.375-0.344c0.041-0.208,0.104-0.562,0.188-1.062c0.291,0.146,0.51,0.24,0.656,0.281
			c-0.062,0.5-0.156,0.906-0.281,1.219c-0.146,0.438-0.459,0.656-0.938,0.656c-0.562,0.021-1.021-0.292-1.375-0.938
			c-0.021-0.041-0.053-0.114-0.094-0.219c-0.042-0.083-0.073-0.146-0.094-0.188c-0.5,0.334-1.062,0.656-1.688,0.969
			c-0.209-0.312-0.354-0.5-0.438-0.562c0.625-0.291,1.25-0.666,1.875-1.125c-0.125-0.541-0.219-1.166-0.281-1.875l-0.062-0.531
			h-1.875v1.219c0.188-0.021,0.469-0.062,0.844-0.125c0.25-0.041,0.438-0.072,0.562-0.094c0,0.042,0,0.115,0,0.219
			c-0.021,0.188-0.021,0.344,0,0.469c-0.125,0.021-0.312,0.053-0.562,0.094c-0.375,0.062-0.656,0.104-0.844,0.125v1.594
			c0.021,0.562-0.25,0.854-0.812,0.875c-0.188,0.021-0.531,0.031-1.031,0.031c-0.021-0.084-0.042-0.198-0.062-0.344
			c-0.042-0.167-0.073-0.292-0.094-0.375c0.104,0.021,0.364,0.031,0.781,0.031c0.333,0.021,0.489-0.114,0.469-0.406v-1.25
			l-1.469,0.25l-0.125-0.75c0.104-0.021,0.281-0.041,0.531-0.062c0.458-0.062,0.812-0.114,1.062-0.156V22.62h-1.562v-0.688h1.562
			V20.87c-0.25,0.042-0.584,0.073-1,0.094C21.309,20.985,21.225,20.995,21.184,20.995z M27.402,21.651
			c-0.354-0.396-0.781-0.802-1.281-1.219l0.5-0.438c0.291,0.25,0.729,0.625,1.312,1.125L27.402,21.651z"/>
		<path fill="#3E3A39" d="M29.827,24.182l-0.188-1c0.688-1.083,1.188-2.229,1.5-3.438l0.75,0.188
			c-0.021,0.062-0.053,0.156-0.094,0.281c-0.146,0.396-0.323,0.844-0.531,1.344v5.594h-0.719v-4.156
			C30.316,23.412,30.077,23.807,29.827,24.182z M32.358,27.057v-5.5h0.75v5.5H32.358z M33.296,21.338
			c-0.312-0.458-0.615-0.864-0.906-1.219l0.594-0.375c0.416,0.459,0.739,0.844,0.969,1.156L33.296,21.338z M34.546,27.057
			c-0.062-0.25-0.115-0.511-0.156-0.781c0.333,0.021,0.688,0.031,1.062,0.031c0.479,0.041,0.697-0.156,0.656-0.594v-4.719h-1.781
			v-0.719h2.562v5.594c0.021,0.791-0.344,1.188-1.094,1.188H34.546z"/>
		<path fill="#3E3A39" d="M38.752,27.057v-6.125h0.844c0.021-0.083,0.052-0.197,0.094-0.344c0.083-0.229,0.156-0.531,0.219-0.906
			l0.781,0.125c-0.104,0.375-0.219,0.75-0.344,1.125h1.406v6.062h-0.688v-0.594h-1.594v0.656H38.752z M39.471,21.62v1.719h1.594
			V21.62H39.471z M39.471,24.026v1.781h1.594v-1.781H39.471z M42.971,26.995c-0.021-0.229-0.073-0.479-0.156-0.75
			c0.271,0.021,0.677,0.031,1.219,0.031c0.583,0.041,0.875-0.219,0.875-0.781c0.041-0.458,0.072-1.438,0.094-2.938
			c0.021-0.438,0.031-0.75,0.031-0.938h-1.875c-0.084,0.188-0.219,0.459-0.406,0.812c-0.084,0.167-0.146,0.292-0.188,0.375
			c-0.188-0.125-0.396-0.25-0.625-0.375c0.5-0.896,0.885-1.812,1.156-2.75l0.719,0.156c-0.042,0.125-0.104,0.303-0.188,0.531
			c-0.084,0.25-0.146,0.438-0.188,0.562h2.312c0,1.334-0.042,2.896-0.125,4.688c0,0.896-0.448,1.354-1.344,1.375
			C43.866,26.995,43.429,26.995,42.971,26.995z M43.689,24.838c-0.104-0.146-0.261-0.364-0.469-0.656
			c-0.292-0.438-0.521-0.771-0.688-1l0.562-0.375c0.146,0.209,0.364,0.5,0.656,0.875c0.25,0.312,0.438,0.562,0.562,0.75
			L43.689,24.838z"/>
		<path fill="#3E3A39" d="M47.428,22.463v-0.719h3.188c0.041-0.479,0.062-1.156,0.062-2.031h0.812l-0.062,2.031h3.25v0.719h-3.219
			c0.271,1.854,1.385,3.125,3.344,3.812c-0.146,0.188-0.323,0.438-0.531,0.75c-1.729-0.75-2.803-1.906-3.219-3.469
			c-0.292,1.479-1.365,2.667-3.219,3.562c-0.042-0.062-0.125-0.178-0.25-0.344c-0.125-0.146-0.219-0.261-0.281-0.344
			c2.041-0.896,3.125-2.219,3.25-3.969H47.428z"/>
		<path fill="#3E3A39" d="M56.54,27.12l-0.531-0.5c0.354-0.521,0.51-1.531,0.469-3.031v-3.5h2.125v6.156
			c0,0.5-0.229,0.76-0.688,0.781c-0.125,0.021-0.365,0.031-0.719,0.031c-0.021-0.209-0.053-0.428-0.094-0.656
			c0.104,0.021,0.271,0.031,0.5,0.031c0.291,0.021,0.427-0.104,0.406-0.375V24.62h-0.906C57.061,25.599,56.873,26.432,56.54,27.12z
			 M57.103,20.713v1.375h0.906v-1.375H57.103z M57.103,23.838v0.188h0.906v-1.375h-0.906V23.838z M59.04,21.37v-0.625h2.031
			c-0.084-0.333-0.188-0.656-0.312-0.969l0.719-0.125c0.125,0.354,0.229,0.719,0.312,1.094h1.844v0.625H59.04z M59.259,26.776v-4.5
			h0.625v3.938h2.781v-3.938h0.656v4.875h-0.656v-0.375H59.259z M59.946,21.932l0.531-0.312c0.291,0.438,0.572,0.917,0.844,1.438
			c0.229-0.438,0.447-0.927,0.656-1.469l0.562,0.219c-0.167,0.417-0.417,0.959-0.75,1.625c-0.062,0.104-0.104,0.188-0.125,0.25
			c0.312,0.562,0.625,1.136,0.938,1.719l-0.562,0.344c-0.062-0.104-0.146-0.26-0.25-0.469c-0.209-0.416-0.375-0.729-0.5-0.938
			c-0.271,0.479-0.573,0.938-0.906,1.375l-0.469-0.438c0.375-0.5,0.729-1.021,1.062-1.562c-0.062-0.104-0.156-0.271-0.281-0.5
			C60.362,22.61,60.112,22.182,59.946,21.932z"/>
		<path fill="#3E3A39" d="M66.34,27.307l-0.281-0.312c0.521-0.334,0.771-0.74,0.75-1.219h-0.562v-1.094h1.031
			c0,0.167,0,0.479,0,0.938C67.298,26.37,66.985,26.932,66.34,27.307z"/>
		<path fill="#3E3A39" d="M74.171,21.338v-0.656h2.906v-1h0.75v1h2.906v0.656h-2.906v1.969h3.312v0.656h-3
			c0.771,0.854,1.802,1.511,3.094,1.969c-0.042,0.084-0.115,0.188-0.219,0.312c-0.084,0.146-0.156,0.26-0.219,0.344
			c-1.375-0.562-2.365-1.26-2.969-2.094v2.656h-0.75v-2.688c-0.709,0.896-1.719,1.636-3.031,2.219
			c-0.084-0.167-0.229-0.365-0.438-0.594c1.271-0.541,2.312-1.25,3.125-2.125h-2.969v-0.656h3.312v-1.969H74.171z M75.702,23.12
			c-0.146-0.188-0.375-0.458-0.688-0.812c-0.146-0.166-0.25-0.291-0.312-0.375l0.562-0.406c0.208,0.209,0.5,0.542,0.875,1
			c-0.25-0.291-0.209-0.239,0.125,0.156L75.702,23.12z M79.046,23.182l-0.5-0.469c0.416-0.375,0.781-0.771,1.094-1.188l0.562,0.438
			c-0.021,0.021-0.042,0.042-0.062,0.062C79.702,22.505,79.337,22.891,79.046,23.182z"/>
		<path fill="#3E3A39" d="M83.221,27.151v-6.5h2.062c0.021-0.104,0.062-0.25,0.125-0.438c0.062-0.25,0.104-0.427,0.125-0.531
			l0.844,0.062c-0.021,0.125-0.073,0.312-0.156,0.562c-0.062,0.146-0.104,0.261-0.125,0.344h3.188v6.5h-0.781v-0.5h-4.531v0.5
			H83.221z M83.971,21.307v1.188h4.531v-1.188H83.971z M83.971,23.088v1.188h4.531v-1.188H83.971z M83.971,24.87v1.188h4.531V24.87
			H83.971z"/>
		<path fill="#3E3A39" d="M92.365,24.182v2.406h-0.812v-4.594h0.812v0.844l0.031,0.031c0.229-0.646,0.625-0.979,1.188-1
			c0.333,0,0.614,0.084,0.844,0.25l-0.312,0.719c-0.146-0.125-0.365-0.188-0.656-0.188C92.75,22.693,92.386,23.204,92.365,24.182z"
			/>
		<path fill="#3E3A39" d="M99.821,26.588h-0.812v-0.812c-0.334,0.583-0.854,0.885-1.562,0.906c-1.125,0.021-1.688-0.572-1.688-1.781
			v-2.906h0.812v2.812c-0.021,0.875,0.364,1.303,1.156,1.281c0.771-0.062,1.197-0.521,1.281-1.375v-2.719h0.812V26.588z"/>
		<path fill="#3E3A39" d="M104.965,21.995h0.906c-1.125,2.75-1.792,4.354-2,4.812c-0.396,1.083-0.886,1.583-1.469,1.5
			c-0.292,0-0.573-0.053-0.844-0.156v-0.594c0.166,0.062,0.354,0.094,0.562,0.094c0.416,0.041,0.719-0.188,0.906-0.688
			c0.021-0.042,0.062-0.167,0.125-0.375l0.094-0.188l-1.938-4.406h0.906c0.729,1.896,1.135,2.948,1.219,3.156
			c0.062,0.188,0.125,0.386,0.188,0.594c0.021-0.021,0.062-0.125,0.125-0.312c0.062-0.166,0.094-0.26,0.094-0.281
			C103.923,24.901,104.298,23.849,104.965,21.995z"/>
		<path fill="#3E3A39" d="M107.296,21.088v-0.906h0.844v0.906H107.296z M107.296,26.588v-4.594h0.844v4.594H107.296z"/>
		<path fill="#3E3A39" d="M111.346,25.526v1.031h-1.062v-1.031H111.346z"/>
		<path fill="#3E3A39" d="M117.771,26.588h-0.781c-0.167-0.188-0.25-0.458-0.25-0.812c-0.375,0.583-1.042,0.885-2,0.906
			c-0.959-0.042-1.459-0.458-1.5-1.25c0.021-0.854,0.583-1.344,1.688-1.469c1.021-0.146,1.614-0.312,1.781-0.5
			c0.062-0.688-0.334-1.01-1.188-0.969c-0.75,0-1.198,0.292-1.344,0.875l-0.781-0.156c0.229-0.916,0.947-1.364,2.156-1.344
			c1.375-0.062,2.031,0.531,1.969,1.781c0,0.584,0,1.24,0,1.969C117.5,25.974,117.584,26.296,117.771,26.588z M116.771,24.651
			v-0.656c-0.25,0.229-0.729,0.386-1.438,0.469c-0.896,0.125-1.323,0.438-1.281,0.938c-0.021,0.479,0.322,0.709,1.031,0.688
			C116.125,26.047,116.688,25.568,116.771,24.651z"/>
		<path fill="#3E3A39" d="M119.446,21.088v-0.906h0.844v0.906H119.446z M119.446,26.588v-4.594h0.844v4.594H119.446z"/>
	</g>
	<g>
		<path fill="#898989" d="M31.92,37.792v-0.688c0-0.729,0.26-1.271,0.781-1.625l0.188,0.188c-0.438,0.354-0.646,0.792-0.625,1.312
			h0.438v0.812H31.92z M33.139,37.792v-0.688c0-0.729,0.26-1.271,0.781-1.625l0.188,0.188c-0.438,0.354-0.646,0.792-0.625,1.312
			h0.438v0.812H33.139z"/>
		<path fill="#898989" d="M37.854,37.479l0.469,0.156c-0.5,1.375-1.073,2.667-1.719,3.875c-0.146-0.104-0.303-0.188-0.469-0.25
			C36.801,40.198,37.374,38.937,37.854,37.479z M39.729,35.76h0.469v6.344c0.021,0.604-0.303,0.917-0.969,0.938
			c-0.334,0-0.688,0-1.062,0c-0.021-0.146-0.062-0.302-0.125-0.469c0.333,0,0.666,0,1,0c0.5,0.042,0.729-0.156,0.688-0.594V35.76z
			 M41.385,37.698l0.406-0.188c0.396,0.708,1.021,1.927,1.875,3.656l-0.469,0.219C42.635,40.135,42.03,38.906,41.385,37.698z"/>
		<path fill="#898989" d="M46.912,40.51l0.375,0.25c-0.584,0.708-1.219,1.364-1.906,1.969c-0.104-0.104-0.219-0.198-0.344-0.281
			C45.828,41.74,46.453,41.093,46.912,40.51z M45.787,39.792v-0.5c0.458-0.729,0.844-1.406,1.156-2.031h-1.812v-0.406h2.031
			c0.188-0.375,0.375-0.771,0.562-1.188l0.469,0.125c-0.167,0.312-0.344,0.667-0.531,1.062h4.844v0.406h-5.062
			c-0.459,0.875-0.854,1.583-1.188,2.125h2.625v-1.594h0.438v1.594H52.1v0.406h-2.781v2.219c0.041,0.667-0.312,1-1.062,1
			c-0.167,0.021-0.511,0.031-1.031,0.031c-0.021-0.188-0.053-0.344-0.094-0.469c0.25,0.021,0.594,0.031,1.031,0.031
			c0.521,0.021,0.76-0.198,0.719-0.656v-2.156H45.787z M50.256,40.823l0.312-0.281c0.688,0.542,1.364,1.104,2.031,1.688
			l-0.344,0.312c-0.062-0.062-0.156-0.146-0.281-0.25C51.203,41.604,50.631,41.115,50.256,40.823z"/>
		<path fill="#898989" d="M54.502,37.854h2.156v-0.156v-1.156h-2.625v-0.406h7.438v0.406h-2.594v1.312h2.219v5.281h-0.438v-0.5
			h-5.719v0.5h-0.438V37.854z M59.314,40.792c-0.604,0.021-0.896-0.239-0.875-0.781v-1.75h-1.344
			c0.021,1.229-0.469,2.208-1.469,2.938c-0.021-0.042-0.073-0.094-0.156-0.156c-0.084-0.083-0.146-0.136-0.188-0.156
			c0.958-0.646,1.416-1.521,1.375-2.625h-1.719v4h5.719v-4h-1.781v1.719c-0.021,0.292,0.156,0.427,0.531,0.406
			c0.354,0,0.677-0.011,0.969-0.031c0,0.042-0.011,0.114-0.031,0.219c-0.021,0.104-0.042,0.177-0.062,0.219
			C59.991,40.792,59.668,40.792,59.314,40.792z M57.096,37.698v0.156h1.344v-1.312h-1.344V37.698z"/>
		<path fill="#898989" d="M63.437,37.135h6.25v0.469c-1.459,1.521-3.094,2.823-4.906,3.906c0,0.021,0.01,0.031,0.031,0.031
			c0.458,0.5,1.177,0.761,2.156,0.781c1.041,0.062,2.208,0.062,3.5,0c-0.021,0.083-0.062,0.208-0.125,0.375
			c-0.021,0.042-0.031,0.073-0.031,0.094c-0.959,0-1.646,0-2.062,0c-0.5,0-0.938-0.011-1.312-0.031
			c-1.167-0.021-2.021-0.354-2.562-1c-0.084-0.083-0.198-0.083-0.344,0c-0.042,0.042-0.094,0.094-0.156,0.156
			c-0.354,0.312-0.615,0.583-0.781,0.812l-0.25-0.406c0.291-0.292,0.541-0.542,0.75-0.75c0.25-0.229,0.447-0.344,0.594-0.344
			c0.021,0,0.052,0,0.094,0c0.041,0.021,0.072,0.031,0.094,0.031c1.916-1.188,3.5-2.427,4.75-3.719h-5.688V37.135z M66.124,35.885
			l0.406-0.188c0.041,0.062,0.094,0.146,0.156,0.25c0.271,0.417,0.458,0.719,0.562,0.906l-0.438,0.219
			C66.645,36.74,66.415,36.343,66.124,35.885z"/>
		<path fill="#898989" d="M75.401,40.698h0.406v0.812h2.969v0.344h-2.969v0.688h3.594v0.344h-7.562v-0.344h3.562v-0.688h-2.969
			V41.51h2.969V40.698z M71.901,39.635h3.5v-0.656h-2.969v-0.344h2.969V38.01h-2.906v-2.031h6.25v2.031h-2.938v0.625h2.969v0.344
			h-2.969v0.656h3.531v0.344h-7.438V39.635z M71.995,40.948c0.291-0.333,0.531-0.614,0.719-0.844l0.344,0.219
			c-0.209,0.25-0.459,0.542-0.75,0.875L71.995,40.948z M72.87,36.323v1.344h2.531v-1.344H72.87z M73.558,36.76l0.25-0.25
			c0.312,0.208,0.604,0.427,0.875,0.656l-0.281,0.281C74.13,37.198,73.849,36.968,73.558,36.76z M74.558,41.104
			c-0.125-0.271-0.261-0.542-0.406-0.812l0.344-0.156c0.083,0.104,0.219,0.344,0.406,0.719c0.021,0.042,0.041,0.073,0.062,0.094
			L74.558,41.104z M78.37,36.323h-2.562v1.344h2.562V36.323z M76.151,40.292l0.344-0.188c0.188,0.25,0.364,0.521,0.531,0.812
			l-0.344,0.188C76.516,40.792,76.339,40.521,76.151,40.292z M76.808,37.448l-0.25-0.281c0.208-0.125,0.458-0.302,0.75-0.531
			c0.062-0.062,0.114-0.104,0.156-0.125l0.281,0.25c-0.146,0.125-0.406,0.323-0.781,0.594
			C76.901,37.396,76.849,37.427,76.808,37.448z M78.745,41.198c-0.084-0.104-0.198-0.25-0.344-0.438
			c-0.167-0.188-0.292-0.333-0.375-0.438l0.312-0.219c0.25,0.271,0.5,0.562,0.75,0.875L78.745,41.198z"/>
		<path fill="#898989" d="M84.46,38.792h-2.844c-0.084,0.292-0.271,0.604-0.562,0.938c-0.084-0.062-0.188-0.136-0.312-0.219
			c0.438-0.333,0.635-0.844,0.594-1.531v-0.375h3.125V38.792z M81.116,39.948h3.25V39.51c-0.646,0-1.334,0-2.062,0
			c0-0.062-0.021-0.156-0.062-0.281c1.771-0.021,3.281-0.062,4.531-0.125l0.094,0.312c-0.562,0.042-1.271,0.062-2.125,0.062v0.469
			h3.25v0.312h-3.125c0.812,0.375,1.958,0.667,3.438,0.875c-0.062,0.062-0.136,0.167-0.219,0.312c-1.5-0.25-2.615-0.594-3.344-1.031
			v0.594h-0.375v-0.562c-0.584,0.354-1.698,0.698-3.344,1.031c-0.084-0.146-0.156-0.261-0.219-0.344
			c1.604-0.229,2.75-0.521,3.438-0.875h-3.125V39.948z M81.147,36.917h1.531v-0.5h-1.844v-0.281h1.844v-0.469h0.375v0.469h1.75
			v0.281h-1.75v0.5h1.5v0.281h-3.406V36.917z M81.679,38.073c0,0.167-0.011,0.312-0.031,0.438h1.062v-0.625h-1.031V38.073z
			 M82.179,41.26h4.75v1.906h-0.375v-0.25h-4v0.25h-0.375V41.26z M82.554,41.542v0.438h4v-0.438H82.554z M82.554,42.229v0.406h4
			v-0.406H82.554z M84.116,37.885h-1.062v0.625h1.062V37.885z M88.022,39.135c-0.209-0.083-0.521-0.208-0.938-0.375
			c-0.229-0.104-0.406-0.177-0.531-0.219c-0.396,0.167-0.959,0.312-1.688,0.438c-0.062-0.083-0.125-0.188-0.188-0.312
			c0.541-0.062,1.01-0.156,1.406-0.281c-0.334-0.167-0.667-0.292-1-0.375l0.188-0.281c0.146,0.042,0.364,0.125,0.656,0.25
			c0.271,0.104,0.469,0.177,0.594,0.219c0.312-0.125,0.625-0.323,0.938-0.594h-2.406v-0.312h2.844v0.344
			c-0.375,0.354-0.698,0.594-0.969,0.719c0.188,0.062,0.458,0.167,0.812,0.312c0.208,0.083,0.364,0.146,0.469,0.188L88.022,39.135z
			 M85.772,36.198c0.021,0.5-0.219,0.833-0.719,1c-0.021-0.021-0.062-0.052-0.125-0.094c-0.062-0.062-0.115-0.114-0.156-0.156
			c0.458-0.146,0.666-0.406,0.625-0.781v-0.25h2.094v0.562c-0.021,0.188,0.083,0.271,0.312,0.25h0.531
			c0,0.021-0.011,0.062-0.031,0.125c-0.021,0.104-0.042,0.167-0.062,0.188h-0.562c-0.375,0-0.562-0.146-0.562-0.438v-0.406H85.772z"
			/>
		<path fill="#898989" d="M91.081,39.729v-0.812h0.781v0.812H91.081z M91.081,42.948v-0.75h0.781v0.75H91.081z"/>
		<path fill="#898989" d="M98.733,40.76l-0.125-0.438c0.062,0,0.146-0.011,0.25-0.031c0.604-0.104,1.104-0.188,1.5-0.25v-1.625
			h-1.75v-0.375h1.75v-1.344c-0.125,0.021-0.312,0.042-0.562,0.062c-0.438,0.042-0.719,0.073-0.844,0.094
			c-0.021-0.083-0.053-0.188-0.094-0.312c-0.021-0.042-0.031-0.073-0.031-0.094c1.041-0.104,2.083-0.239,3.125-0.406l0.125,0.375
			c-0.062,0.021-0.167,0.042-0.312,0.062c-0.167,0.021-0.49,0.073-0.969,0.156v1.406h2.219c-0.042-0.75-0.062-1.542-0.062-2.375
			h0.438c0,0.833,0.021,1.625,0.062,2.375h2.781v0.375h-2.781c0.021,0.146,0.041,0.364,0.062,0.656
			c0.041,0.208,0.062,0.364,0.062,0.469c0.062,0.479,0.135,0.875,0.219,1.188c0.541-0.479,1.041-1.042,1.5-1.688l0.375,0.25
			c-0.667,0.875-1.25,1.5-1.75,1.875c0.083,0.271,0.188,0.511,0.312,0.719c0.25,0.5,0.541,0.75,0.875,0.75
			c0.229,0,0.385-0.146,0.469-0.438c0.104-0.292,0.177-0.636,0.219-1.031c0.021,0.021,0.062,0.042,0.125,0.062
			s0.156,0.052,0.281,0.094c-0.062,0.375-0.146,0.729-0.25,1.062c-0.125,0.458-0.406,0.688-0.844,0.688
			c-0.5,0.021-0.928-0.323-1.281-1.031c-0.104-0.167-0.188-0.354-0.25-0.562c-0.542,0.417-1.198,0.802-1.969,1.156
			c-0.125-0.188-0.219-0.302-0.281-0.344c0.729-0.292,1.427-0.708,2.094-1.25c-0.125-0.438-0.219-0.917-0.281-1.438
			c0-0.083-0.011-0.219-0.031-0.406c-0.042-0.333-0.062-0.594-0.062-0.781h-2.25v1.531c0.25-0.042,0.614-0.114,1.094-0.219
			c0.208-0.042,0.364-0.073,0.469-0.094c0,0.125,0,0.261,0,0.406c-0.146,0.021-0.375,0.073-0.688,0.156
			c-0.375,0.062-0.667,0.114-0.875,0.156v1.812c0.021,0.521-0.24,0.792-0.781,0.812C99.868,43,99.566,43.01,99.108,43.01
			c-0.021-0.167-0.053-0.312-0.094-0.438c0.229,0,0.51,0,0.844,0c0.354,0.021,0.521-0.114,0.5-0.406v-1.719
			c-0.084,0.021-0.219,0.042-0.406,0.062C99.723,40.552,99.316,40.635,98.733,40.76z M103.983,36.417l0.312-0.281
			c0.396,0.312,0.822,0.688,1.281,1.125l-0.312,0.281c-0.042-0.042-0.146-0.136-0.312-0.281
			C104.473,36.843,104.149,36.562,103.983,36.417z"/>
		<path fill="#898989" d="M109.104,40.292l0.406,0.062c-0.021,0.062-0.042,0.156-0.062,0.281c-0.042,0.167-0.073,0.292-0.094,0.375
			c0.416,0.812,1.062,1.261,1.938,1.344v-2.375h-3.594v-0.375h7.344v0.375h-3.344v1h2.812v0.344h-2.812v1.062
			c0.062,0,0.104,0,0.125,0c0.75,0.021,1.854,0.031,3.312,0.031c-0.062,0.104-0.104,0.25-0.125,0.438
			c-0.917,0-1.979-0.021-3.188-0.062c-1.229,0.021-2.104-0.417-2.625-1.312c-0.229,0.625-0.688,1.188-1.375,1.688
			c-0.021-0.021-0.062-0.062-0.125-0.125c-0.062-0.083-0.115-0.146-0.156-0.188C108.438,42.25,108.958,41.396,109.104,40.292z
			 M108.792,36.042h5.125v2.75h-5.125V36.042z M109.198,36.385v0.844h4.281v-0.844H109.198z M109.198,37.573v0.844h4.281v-0.844
			H109.198z"/>
		<path fill="#898989" d="M30.889,48.26c-0.042-0.062-0.104-0.136-0.188-0.219c-0.104-0.104-0.178-0.188-0.219-0.25
			c-1.188,0.042-2.053,0.083-2.594,0.125c-0.209,0-0.386,0.021-0.531,0.062l-0.188-0.406c0.146-0.083,0.302-0.208,0.469-0.375
			c0.5-0.542,0.927-1.073,1.281-1.594l0.406,0.188c-0.562,0.708-1.062,1.292-1.5,1.75c0.083,0,0.219-0.011,0.406-0.031
			c0.854-0.021,1.5-0.052,1.938-0.094c-0.209-0.25-0.438-0.489-0.688-0.719l0.312-0.25c0.458,0.438,0.938,0.948,1.438,1.531
			L30.889,48.26z M28.045,53.073h-0.406v-4.406h2.938v3.594c0.021,0.5-0.219,0.75-0.719,0.75c-0.229,0-0.479,0-0.75,0
			c0-0.125-0.021-0.261-0.062-0.406c0.062,0,0.177,0,0.344,0c0.166,0.021,0.291,0.031,0.375,0.031c0.291,0,0.427-0.125,0.406-0.375
			v-0.812h-2.125V53.073z M28.045,49.01v0.875h2.125V49.01H28.045z M28.045,50.229v0.875h2.125v-0.875H28.045z M31.576,49.51h0.406
			v1.344c0.833-0.312,1.625-0.677,2.375-1.094l0.219,0.375c-0.854,0.438-1.719,0.823-2.594,1.156v0.75
			c-0.021,0.354,0.177,0.521,0.594,0.5h0.906c0.396,0,0.625-0.136,0.688-0.406c0.041-0.188,0.072-0.458,0.094-0.812
			c0.062,0.021,0.146,0.042,0.25,0.062c0.062,0.042,0.114,0.062,0.156,0.062c-0.021,0.208-0.062,0.469-0.125,0.781
			c-0.084,0.5-0.417,0.739-1,0.719h-1.062c-0.625,0.021-0.928-0.261-0.906-0.844V49.51z M31.576,45.698h0.406v1.469
			c0.604-0.208,1.344-0.552,2.219-1.031l0.25,0.344c-0.75,0.396-1.573,0.771-2.469,1.125v0.5c-0.021,0.375,0.177,0.552,0.594,0.531
			h0.906c0.375,0,0.594-0.156,0.656-0.469c0.062-0.167,0.104-0.448,0.125-0.844c0.146,0.062,0.281,0.104,0.406,0.125
			c-0.021,0.167-0.053,0.386-0.094,0.656c-0.021,0.083-0.031,0.136-0.031,0.156c-0.104,0.521-0.448,0.771-1.031,0.75h-1
			c-0.646,0.021-0.959-0.261-0.938-0.844V45.698z"/>
		<path fill="#898989" d="M37.596,46.542h1.812v5.406h-0.406v-0.531h-1v0.656h-0.406V46.542z M38.002,46.917v4.125h1v-4.125H38.002z
			 M40.127,49.729h4.188v3.406h-0.406v-0.406h-3.375v0.406h-0.406V49.729z M40.408,45.979h3.625v2.938h-3.625V45.979z
			 M40.533,50.073v1h3.375v-1H40.533z M40.533,51.417v0.938h3.375v-0.938H40.533z M40.814,46.354v0.906h2.812v-0.906H40.814z
			 M40.814,47.635v0.906h2.812v-0.906H40.814z"/>
		<path fill="#898989" d="M54.521,48.792c-1.542-0.667-2.678-1.511-3.406-2.531c-0.917,1.042-2.104,1.938-3.562,2.688
			c-0.084-0.146-0.188-0.281-0.312-0.406c1.666-0.771,2.947-1.75,3.844-2.938l0.5,0.094c-0.062,0.083-0.136,0.167-0.219,0.25
			c0.75,0.979,1.906,1.802,3.469,2.469C54.749,48.479,54.646,48.604,54.521,48.792z M53.708,53.135
			c-0.062-0.062-0.156-0.156-0.281-0.281c-0.104-0.125-0.178-0.208-0.219-0.25c-1.688,0.042-3.053,0.104-4.094,0.188
			c-0.042,0-0.115,0.011-0.219,0.031c-0.209,0.021-0.354,0.042-0.438,0.062l-0.281-0.469c0.166-0.083,0.354-0.188,0.562-0.312
			c0.541-0.479,1.052-1.021,1.531-1.625h-2.719v-0.438h7v0.438h-3.688c-0.562,0.667-1.188,1.302-1.875,1.906
			c1.312-0.062,2.583-0.114,3.812-0.156c-0.062-0.042-0.156-0.125-0.281-0.25c-0.104-0.083-0.312-0.292-0.625-0.625l0.344-0.25
			c0.833,0.771,1.447,1.354,1.844,1.75L53.708,53.135z M48.958,48.448h4.156v0.406h-4.156V48.448z"/>
		<path fill="#898989" d="M57.696,49.135h0.375v2.938c0.083-0.021,0.208-0.042,0.375-0.062c0.146-0.042,0.26-0.062,0.344-0.062
			v-3.562h-0.969v-2.312h2v2.312h-0.625v1.188h0.812v0.375h-0.812v1.906c0.291-0.042,0.572-0.094,0.844-0.156
			c0,0.167,0,0.302,0,0.406c-0.854,0.104-1.74,0.261-2.656,0.469l-0.094-0.375c0.041-0.021,0.114-0.031,0.219-0.031
			c0.083-0.021,0.146-0.031,0.188-0.031V49.135z M58.196,46.417v1.625h1.25v-1.625H58.196z M61.478,45.729h0.406v3.281
			c0.083,1.938-0.511,3.312-1.781,4.125c-0.021-0.021-0.062-0.073-0.125-0.156c-0.084-0.083-0.146-0.146-0.188-0.188
			c1.041-0.646,1.583-1.625,1.625-2.938c-0.375,0.292-0.803,0.625-1.281,1l-0.219-0.406c0.229-0.146,0.521-0.354,0.875-0.625
			c0.291-0.188,0.51-0.333,0.656-0.438c0-0.042,0-0.104,0-0.188c0.021-0.083,0.031-0.156,0.031-0.219V45.729z M60.071,47.073
			l0.375-0.188c0.188,0.333,0.447,0.854,0.781,1.562c-0.25-0.521-0.24-0.489,0.031,0.094l-0.375,0.219
			c0-0.021-0.011-0.052-0.031-0.094C60.603,48.104,60.342,47.573,60.071,47.073z M64.509,50.698
			c-0.167-0.104-0.375-0.25-0.625-0.438c-0.292-0.188-0.511-0.333-0.656-0.438v2.312c0,0.25,0.146,0.375,0.438,0.375h0.25
			c0.312,0,0.489-0.136,0.531-0.406c0.062-0.292,0.094-0.573,0.094-0.844c0.062,0.042,0.177,0.083,0.344,0.125
			c0.021,0,0.041,0,0.062,0c-0.021,0.146-0.053,0.344-0.094,0.594c-0.021,0.125-0.031,0.208-0.031,0.25
			c-0.084,0.479-0.365,0.708-0.844,0.688h-0.375c-0.542,0-0.812-0.239-0.812-0.719v-6.5h0.438v3.688
			c0.041,0.021,0.094,0.052,0.156,0.094c0.562,0.333,1.01,0.614,1.344,0.844L64.509,50.698z M63.384,48.573
			c0.312-0.5,0.625-1.062,0.938-1.688l0.375,0.188c-0.209,0.417-0.521,0.979-0.938,1.688L63.384,48.573z"/>
		<path fill="#898989" d="M67.685,46.979h0.812c0.166-0.5,0.291-0.927,0.375-1.281l0.438,0.094c-0.125,0.417-0.25,0.812-0.375,1.188
			h1.594v6h-0.438v-0.625h-2v0.688h-0.406V46.979z M68.091,47.354v2.125h2v-2.125H68.091z M68.091,49.854v2.156h2v-2.156H68.091z
			 M71.216,48.667c-0.042-0.021-0.104-0.062-0.188-0.125c-0.084-0.042-0.146-0.073-0.188-0.094c0.458-0.75,0.854-1.667,1.188-2.75
			l0.438,0.094c-0.125,0.375-0.271,0.761-0.438,1.156h2.594c0,0.104,0,0.271,0,0.5c-0.042,1.854-0.094,3.281-0.156,4.281
			c0.021,0.812-0.428,1.229-1.344,1.25c-0.417,0-0.823,0-1.219,0c0-0.021-0.011-0.052-0.031-0.094
			c-0.021-0.167-0.053-0.281-0.094-0.344c0.291,0.021,0.719,0.031,1.281,0.031c0.666,0.021,1-0.281,1-0.906
			c0.041-0.521,0.072-1.614,0.094-3.281c0.021-0.479,0.031-0.823,0.031-1.031h-2.312C71.601,47.958,71.382,48.396,71.216,48.667z
			 M71.56,49.042l0.312-0.25c0.041,0.062,0.104,0.146,0.188,0.25c0.458,0.562,0.812,1.031,1.062,1.406l-0.344,0.25
			C72.382,50.115,71.976,49.562,71.56,49.042z"/>
		<path fill="#898989" d="M79.422,45.854h0.438v2.531c0,1.25-0.136,2.177-0.406,2.781c-0.271,0.667-0.823,1.302-1.656,1.906
			c-0.021-0.021-0.062-0.062-0.125-0.125c-0.084-0.104-0.167-0.188-0.25-0.25c0.791-0.542,1.322-1.104,1.594-1.688
			c0.271-0.583,0.406-1.458,0.406-2.625V45.854z M81.828,45.823h0.469v6c-0.021,0.438,0.197,0.646,0.656,0.625h0.625
			c0.5,0.021,0.771-0.167,0.812-0.562c0.062-0.417,0.114-0.917,0.156-1.5c0.062,0.042,0.177,0.073,0.344,0.094
			c0.041,0.021,0.072,0.031,0.094,0.031c0,0.062-0.011,0.156-0.031,0.281c-0.042,0.583-0.094,1-0.156,1.25
			c-0.084,0.583-0.469,0.864-1.156,0.844h-0.781c-0.709,0.021-1.053-0.323-1.031-1.031V45.823z"/>
		<path fill="#898989" d="M88.41,48.542h5.688v2.438h-2.656v0.594h2.969v0.344h-2.969v0.594h3.562v0.344h-7.531V52.51h3.562v-0.594
			h-2.969v-0.344h2.969v-0.594H88.41V48.542z M90.973,45.698l0.406-0.062c0.021,0.083,0.052,0.208,0.094,0.375
			c0.021,0.188,0.041,0.323,0.062,0.406h3.031v0.344h-1.562l0.312,0.188c-0.229,0.25-0.438,0.489-0.625,0.719h2.25v0.312h-7.375
			v-0.312h2.344c-0.062-0.062-0.156-0.167-0.281-0.312c-0.167-0.208-0.281-0.344-0.344-0.406l0.281-0.188h-1.594v-0.344h3.125
			c0-0.042-0.011-0.094-0.031-0.156C91.066,46.177,91.035,45.99,90.973,45.698z M88.816,48.885v0.719h2.219v-0.719H88.816z
			 M88.816,49.917v0.719h2.219v-0.719H88.816z M90.316,47.479l-0.25,0.188h2.125c0.062-0.062,0.146-0.167,0.25-0.312
			c0.229-0.271,0.385-0.469,0.469-0.594h-3.281C89.982,47.115,90.212,47.354,90.316,47.479z M93.691,48.885h-2.25v0.719h2.25V48.885
			z M91.441,49.917v0.719h2.25v-0.719H91.441z"/>
		<path fill="#898989" d="M97.68,51.01c-0.021-0.042-0.053-0.104-0.094-0.188c-0.042-0.104-0.084-0.188-0.125-0.25
			c0.562-0.75,1-1.739,1.312-2.969h-1.125v-0.375h1.125v-1.531h0.406v1.531h1.094v0.375H99.18v1.281l0.219-0.25
			c0.458,0.417,0.802,0.739,1.031,0.969l-0.281,0.281c-0.125-0.125-0.312-0.302-0.562-0.531c-0.188-0.188-0.323-0.323-0.406-0.406
			v4.156h-0.406v-4.688C98.481,49.562,98.117,50.427,97.68,51.01z M101.43,46.604v2.219c0,1.208-0.094,2.083-0.281,2.625
			c-0.167,0.542-0.553,1.094-1.156,1.656c-0.084-0.083-0.209-0.188-0.375-0.312c0.604-0.542,0.989-1.052,1.156-1.531
			c0.166-0.479,0.25-1.302,0.25-2.469v-2.594h2.625v5.875c0,0.271,0.104,0.396,0.312,0.375h0.156c0.291,0,0.447-0.146,0.469-0.438
			c0.062-0.333,0.104-0.75,0.125-1.25c0.146,0.062,0.281,0.114,0.406,0.156c-0.021,0.562-0.062,0.969-0.125,1.219
			c-0.084,0.5-0.354,0.739-0.812,0.719h-0.281c-0.459,0-0.688-0.239-0.688-0.719v-5.531H101.43z"/>
		<path fill="#898989" d="M114.886,50.573c-1.834-0.083-2.979-0.552-3.438-1.406h-0.188c-0.209,0.729-1.365,1.219-3.469,1.469
			c-0.021-0.042-0.053-0.104-0.094-0.188c-0.062-0.083-0.104-0.146-0.125-0.188c1.916-0.208,3-0.573,3.25-1.094h-3v-0.344h3.156
			c0.062-0.188,0.104-0.406,0.125-0.656h0.406c-0.021,0.25-0.062,0.469-0.125,0.656h1.594c-0.084-0.146-0.188-0.323-0.312-0.531
			l0.375-0.156c0.125,0.208,0.25,0.438,0.375,0.688h1.531v0.344h-3.062c0.479,0.646,1.552,0.979,3.219,1
			c-0.021,0.042-0.073,0.136-0.156,0.281C114.906,50.51,114.886,50.552,114.886,50.573z M108.229,46.104h2.562v1.906h-2.562V46.104z
			 M108.229,50.823h2.594v2.281h-0.375v-0.375h-1.812v0.406h-0.406V50.823z M108.636,46.448v1.219h1.781v-1.219H108.636z
			 M108.636,51.167v1.219h1.812v-1.219H108.636z M111.823,46.104h2.594v1.906h-2.594V46.104z M111.823,50.823h2.625v2.312h-0.406
			v-0.406h-1.812v0.375h-0.406V50.823z M112.229,46.448v1.219h1.781v-1.219H112.229z M112.229,51.167v1.219h1.812v-1.219H112.229z"
			/>
		<path fill="#898989" d="M34.357,62.948c-2-1-3.125-2.636-3.375-4.906c-0.292,2.229-1.438,3.896-3.438,5
			c-0.021-0.021-0.062-0.062-0.125-0.125c-0.084-0.125-0.146-0.198-0.188-0.219c1.979-1.104,3.114-2.761,3.406-4.969
			c0.062-0.417,0.094-1.062,0.094-1.938h0.469c0,0.146-0.011,0.344-0.031,0.594c0,0.271-0.011,0.469-0.031,0.594
			c0.333,2.896,1.51,4.761,3.531,5.594c-0.042,0.042-0.104,0.114-0.188,0.219C34.42,62.875,34.378,62.927,34.357,62.948z"/>
		<path fill="#898989" d="M37.345,59.729v-0.812h0.781v0.812H37.345z M37.345,62.948v-0.75h0.781v0.75H37.345z"/>
		<path fill="#898989" d="M48.332,60.698h0.406v0.812h2.969v0.344h-2.969v0.688h3.594v0.344H44.77v-0.344h3.562v-0.688h-2.969V61.51
			h2.969V60.698z M44.832,59.635h3.5v-0.656h-2.969v-0.344h2.969V58.01h-2.906v-2.031h6.25v2.031h-2.938v0.625h2.969v0.344h-2.969
			v0.656h3.531v0.344h-7.438V59.635z M44.926,60.948c0.291-0.333,0.531-0.614,0.719-0.844l0.344,0.219
			c-0.209,0.25-0.459,0.542-0.75,0.875L44.926,60.948z M45.801,56.323v1.344h2.531v-1.344H45.801z M46.488,56.76l0.25-0.25
			c0.312,0.208,0.604,0.427,0.875,0.656l-0.281,0.281C47.061,57.198,46.779,56.968,46.488,56.76z M47.488,61.104
			c-0.125-0.271-0.261-0.542-0.406-0.812l0.344-0.156c0.083,0.104,0.219,0.344,0.406,0.719c0.021,0.042,0.041,0.073,0.062,0.094
			L47.488,61.104z M51.301,56.323h-2.562v1.344h2.562V56.323z M49.082,60.292l0.344-0.188c0.188,0.25,0.364,0.521,0.531,0.812
			l-0.344,0.188C49.446,60.792,49.27,60.521,49.082,60.292z M49.738,57.448l-0.25-0.281c0.208-0.125,0.458-0.302,0.75-0.531
			c0.062-0.062,0.114-0.104,0.156-0.125l0.281,0.25c-0.146,0.125-0.406,0.323-0.781,0.594
			C49.832,57.396,49.779,57.427,49.738,57.448z M51.676,61.198c-0.084-0.104-0.198-0.25-0.344-0.438
			c-0.167-0.188-0.292-0.333-0.375-0.438l0.312-0.219c0.25,0.271,0.5,0.562,0.75,0.875L51.676,61.198z"/>
		<path fill="#898989" d="M57.258,58.792h-2.844c-0.084,0.292-0.271,0.604-0.562,0.938c-0.084-0.062-0.188-0.136-0.312-0.219
			c0.438-0.333,0.635-0.844,0.594-1.531v-0.375h3.125V58.792z M53.914,59.948h3.25V59.51c-0.646,0-1.334,0-2.062,0
			c0-0.062-0.021-0.156-0.062-0.281c1.771-0.021,3.281-0.062,4.531-0.125l0.094,0.312c-0.562,0.042-1.271,0.062-2.125,0.062v0.469
			h3.25v0.312h-3.125c0.812,0.375,1.958,0.667,3.438,0.875c-0.062,0.062-0.136,0.167-0.219,0.312c-1.5-0.25-2.615-0.594-3.344-1.031
			v0.594h-0.375v-0.562c-0.584,0.354-1.698,0.698-3.344,1.031c-0.084-0.146-0.156-0.261-0.219-0.344
			c1.604-0.229,2.75-0.521,3.438-0.875h-3.125V59.948z M53.945,56.917h1.531v-0.5h-1.844v-0.281h1.844v-0.469h0.375v0.469h1.75
			v0.281h-1.75v0.5h1.5v0.281h-3.406V56.917z M54.477,58.073c0,0.167-0.011,0.312-0.031,0.438h1.062v-0.625h-1.031V58.073z
			 M54.977,61.26h4.75v1.906h-0.375v-0.25h-4v0.25h-0.375V61.26z M55.352,61.542v0.438h4v-0.438H55.352z M55.352,62.229v0.406h4
			v-0.406H55.352z M56.914,57.885h-1.062v0.625h1.062V57.885z M60.82,59.135c-0.209-0.083-0.521-0.208-0.938-0.375
			c-0.229-0.104-0.406-0.177-0.531-0.219c-0.396,0.167-0.959,0.312-1.688,0.438c-0.062-0.083-0.125-0.188-0.188-0.312
			c0.541-0.062,1.01-0.156,1.406-0.281c-0.334-0.167-0.667-0.292-1-0.375l0.188-0.281c0.146,0.042,0.364,0.125,0.656,0.25
			c0.271,0.104,0.469,0.177,0.594,0.219c0.312-0.125,0.625-0.323,0.938-0.594h-2.406v-0.312h2.844v0.344
			c-0.375,0.354-0.698,0.594-0.969,0.719c0.188,0.062,0.458,0.167,0.812,0.312c0.208,0.083,0.364,0.146,0.469,0.188L60.82,59.135z
			 M58.57,56.198c0.021,0.5-0.219,0.833-0.719,1c-0.021-0.021-0.062-0.052-0.125-0.094c-0.062-0.062-0.115-0.114-0.156-0.156
			c0.458-0.146,0.666-0.406,0.625-0.781v-0.25h2.094v0.562c-0.021,0.188,0.083,0.271,0.312,0.25h0.531
			c0,0.021-0.011,0.062-0.031,0.125c-0.021,0.104-0.042,0.167-0.062,0.188h-0.562c-0.375,0-0.562-0.146-0.562-0.438v-0.406H58.57z"
			/>
		<path fill="#898989" d="M63.995,55.542v0.688c0.021,0.75-0.229,1.292-0.75,1.625l-0.219-0.188
			c0.458-0.312,0.677-0.739,0.656-1.281h-0.438v-0.844H63.995z M65.245,55.542v0.688c0.021,0.729-0.24,1.271-0.781,1.625
			l-0.188-0.188c0.438-0.333,0.646-0.761,0.625-1.281h-0.438v-0.844H65.245z"/>
	</g>
	<g>
		<path fill="#C9CACA" d="M79.316,71.215v-1c25.139,0,47.136-9.831,52.306-23.378l0.934,0.357
			C127.244,61.113,104.854,71.215,79.316,71.215z"/>
	</g>
</g>
</svg>
