<?xml version="1.0" encoding="utf-8"?>
<!-- Generator: Adobe Illustrator 16.0.0, SVG Export Plug-In . SVG Version: 6.00 Build 0)  -->
<!DOCTYPE svg PUBLIC "-//W3C//DTD SVG 1.1//EN" "http://www.w3.org/Graphics/SVG/1.1/DTD/svg11.dtd">
<svg version="1.1" id="图层_1" xmlns="http://www.w3.org/2000/svg" xmlns:xlink="http://www.w3.org/1999/xlink" x="0px" y="0px"
	 width="142.305px" height="88.873px" viewBox="0 0 142.305 88.873" enable-background="new 0 0 142.305 88.873"
	 xml:space="preserve">
<g>
	<path fill="#FFFFFF" d="M71.152,0.5C32.131,0.5,0.502,18.326,0.502,40.309c0,13.691,12.271,25.762,30.942,32.93
		c0,0.012,0.335,0.142,0.95,0.354c-0.713,5.207-5.626,10.571-7.886,13.492h0.009c-0.19,0.34-0.307,0.717-0.307,1.111
		c0,1.391,23.821-5.862,30.963-9.281c4.971,0.714,10.401,1.203,15.978,1.203c39.022,0,70.653-17.825,70.653-39.81
		S110.172,0.5,71.152,0.5z"/>
	<path fill="#B5B5B6" d="M24.713,88.873c-0.87,0-1-0.423-1-0.675c0-0.441,0.105-0.871,0.327-1.277c0.017-0.05,0.042-0.097,0.07-0.14
		c0.326-0.421,0.706-0.894,1.121-1.407c2.349-2.902,5.853-7.245,6.604-11.445c-0.27-0.094-0.451-0.164-0.583-0.228
		C11.684,66.187,0.001,53.704,0.001,40.309C0.001,18.083,31.92,0,71.152,0c39.233,0,71.153,18.083,71.153,40.31
		s-31.92,40.31-71.153,40.31c-5.021,0-10.365-0.398-15.896-1.188C48.61,82.565,28.228,88.873,24.713,88.873z M24.96,87.323
		c-0.002,0.005-0.004,0.009-0.007,0.013c-0.104,0.175-0.169,0.354-0.207,0.537c3.562-0.04,23.807-6.34,30.214-9.407
		c0.088-0.042,0.188-0.056,0.287-0.044c5.535,0.795,10.887,1.198,15.901,1.198c38.686,0,70.153-17.635,70.153-39.31
		C141.303,18.634,109.832,1,71.15,1C32.47,1,1.001,18.634,1.001,40.309c0,12.967,11.448,25.103,30.625,32.463
		c0.021,0.01,0.05,0.021,0.073,0.035c0.102,0.043,0.396,0.148,0.857,0.312c0.229,0.078,0.364,0.305,0.332,0.54
		c-0.63,4.6-4.39,9.258-6.877,12.34C25.627,86.481,25.269,86.924,24.96,87.323z"/>
</g>
<g>
	<path fill="#B5B5B6" d="M79.317,71.215v-1c25.143,0,47.141-9.831,52.309-23.377l0.936,0.356
		C127.246,61.114,104.854,71.215,79.317,71.215z"/>
</g>
<g>
	<path fill="#2D2C2C" d="M31.162,34.746l-0.125-0.438c0.062,0,0.146-0.01,0.25-0.031c0.604-0.104,1.104-0.188,1.5-0.25v-1.625h-1.75
		v-0.375h1.75v-1.344c-0.125,0.021-0.312,0.042-0.562,0.062c-0.438,0.042-0.719,0.073-0.844,0.094
		c-0.021-0.083-0.053-0.188-0.094-0.312c-0.021-0.042-0.031-0.073-0.031-0.094c1.041-0.104,2.083-0.239,3.125-0.406l0.125,0.375
		c-0.062,0.021-0.167,0.042-0.312,0.062c-0.167,0.021-0.488,0.073-0.969,0.156v1.406h2.219c-0.042-0.75-0.062-1.542-0.062-2.375
		h0.438c0,0.833,0.021,1.625,0.062,2.375h2.781v0.375h-2.781c0.021,0.146,0.041,0.365,0.062,0.656
		c0.041,0.208,0.062,0.365,0.062,0.469c0.062,0.479,0.135,0.875,0.219,1.188c0.541-0.479,1.041-1.042,1.5-1.688l0.375,0.25
		c-0.667,0.875-1.25,1.5-1.75,1.875c0.083,0.271,0.188,0.511,0.312,0.719c0.25,0.5,0.541,0.75,0.875,0.75
		c0.229,0,0.385-0.146,0.469-0.438c0.104-0.292,0.177-0.635,0.219-1.031c0.021,0.021,0.062,0.042,0.125,0.062
		c0.062,0.021,0.156,0.052,0.281,0.094c-0.062,0.375-0.146,0.729-0.25,1.062c-0.125,0.458-0.406,0.688-0.844,0.688
		c-0.5,0.021-0.93-0.323-1.281-1.031c-0.104-0.167-0.188-0.354-0.25-0.562c-0.542,0.417-1.198,0.802-1.969,1.156
		c-0.125-0.188-0.221-0.302-0.281-0.344c0.729-0.292,1.427-0.708,2.094-1.25c-0.125-0.438-0.219-0.917-0.281-1.438
		c0-0.083-0.011-0.219-0.029-0.406c-0.042-0.333-0.062-0.594-0.062-0.781h-2.25v1.531c0.25-0.042,0.614-0.114,1.094-0.219
		c0.208-0.042,0.364-0.073,0.471-0.094c0,0.125,0,0.261,0,0.406c-0.146,0.021-0.375,0.073-0.688,0.156
		c-0.375,0.062-0.667,0.115-0.875,0.156v1.812c0.021,0.521-0.24,0.792-0.78,0.812c-0.146,0.021-0.447,0.031-0.905,0.031
		c-0.021-0.167-0.055-0.312-0.095-0.438c0.229,0,0.511,0,0.845,0c0.354,0.021,0.521-0.115,0.5-0.406v-1.719
		c-0.084,0.021-0.22,0.042-0.406,0.062C32.152,34.538,31.745,34.621,31.162,34.746z M36.412,30.402l0.312-0.281
		c0.396,0.312,0.822,0.688,1.281,1.125l-0.312,0.281c-0.042-0.042-0.146-0.135-0.312-0.281
		C36.902,30.83,36.578,30.548,36.412,30.402z"/>
	<path fill="#2D2C2C" d="M41.401,34.277l0.406,0.062c-0.021,0.062-0.042,0.156-0.062,0.281c-0.042,0.167-0.073,0.292-0.096,0.375
		c0.416,0.812,1.062,1.26,1.938,1.344v-2.375h-3.594V33.59h7.344v0.375h-3.344v1h2.812v0.344h-2.812v1.062c0.062,0,0.104,0,0.125,0
		c0.75,0.021,1.854,0.031,3.312,0.031c-0.062,0.104-0.104,0.25-0.125,0.438c-0.917,0-1.979-0.021-3.188-0.062
		c-1.229,0.021-2.104-0.417-2.625-1.312c-0.229,0.625-0.688,1.188-1.375,1.688c-0.021-0.021-0.062-0.062-0.125-0.125
		c-0.062-0.083-0.115-0.146-0.156-0.188C40.734,36.235,41.254,35.382,41.401,34.277z M41.088,30.027h5.125v2.75h-5.125V30.027z
		 M41.494,30.371v0.844h4.279v-0.844H41.494z M41.494,31.559v0.844h4.279v-0.844H41.494z"/>
	<path fill="#2D2C2C" d="M51.107,34.527c0,0.646-0.238,1-0.719,1.062C50.2,35.61,49.971,35.62,49.7,35.62
		c0-0.146-0.021-0.281-0.062-0.406c0.229,0.021,0.416,0.021,0.562,0c0.354,0,0.521-0.229,0.5-0.688
		c0.021-0.604-0.229-1.198-0.75-1.781l0.719-2.281h-1.281v6.656h-0.406v-7.03h2.096v0.406l-0.721,2.188
		C50.877,33.267,51.127,33.882,51.107,34.527z M51.263,32.84h2.812c0.333-0.5,0.654-0.989,0.969-1.469l0.375,0.219
		c-0.25,0.375-0.542,0.792-0.875,1.25h1.688v0.375h-4.969V32.84z M53.263,29.809l0.344-0.188c0.188,0.271,0.375,0.562,0.562,0.875
		l-0.312,0.188h2.125v0.375h-4.375v-0.375h2.156C53.616,30.413,53.45,30.121,53.263,29.809z M51.825,34.152h3.779v2.969h-0.438
		V36.59H52.23v0.531h-0.404V34.152L51.825,34.152z M52.138,31.59l0.312-0.219c0.104,0.104,0.237,0.271,0.404,0.5
		c0.188,0.208,0.322,0.375,0.406,0.5l-0.344,0.25c-0.084-0.125-0.209-0.302-0.375-0.531C52.377,31.882,52.241,31.715,52.138,31.59z
		 M52.232,34.527v1.688h2.938v-1.688H52.232z"/>
	<path fill="#2D2C2C" d="M57.656,33.902c0-0.021-0.013-0.052-0.031-0.094c-0.042-0.104-0.104-0.239-0.188-0.406
		c0.833-1.083,1.458-2.333,1.875-3.75l0.438,0.156c-0.209,0.625-0.459,1.24-0.75,1.844v5.469h-0.438v-4.656
		C58.271,33.007,57.969,33.486,57.656,33.902z M62.094,29.684h0.438v2.938h2.188v0.406h-2.188v1.438h2.5v0.438h-2.5v2.219h-0.438
		v-2.219h-2.469v-0.438h2.469v-1.438h-2.125v-0.406h2.125V29.684z M59.938,30.715l0.346-0.25c0.375,0.438,0.729,0.896,1.062,1.375
		l-0.375,0.25C60.531,31.465,60.188,31.007,59.938,30.715z M63.563,32.121l-0.344-0.25c0.438-0.5,0.802-0.969,1.094-1.406
		l0.375,0.25c-0.062,0.083-0.154,0.198-0.279,0.344C64.073,31.517,63.791,31.871,63.563,32.121z"/>
	<path fill="#2D2C2C" d="M66.331,34.371l-0.096-0.469c0.396-0.125,0.791-0.26,1.188-0.406v-1.344l1.125-1.5h-2.188v-0.375h2.625
		v0.469l-1.125,1.562v1.062c0.146-0.042,0.375-0.125,0.688-0.25c0.125-0.042,0.219-0.073,0.281-0.094
		c-0.021,0.167-0.021,0.312,0,0.438c-0.292,0.104-0.615,0.219-0.971,0.344v2.406c0.021,0.5-0.261,0.76-0.844,0.781
		c-0.25,0-0.479,0-0.688,0c0-0.042,0-0.115,0-0.219c-0.021-0.103-0.03-0.176-0.03-0.217c0.146,0,0.354,0,0.625,0
		c0.354,0.021,0.521-0.104,0.5-0.375v-2.219c-0.146,0.042-0.375,0.125-0.688,0.25C66.55,34.277,66.414,34.33,66.331,34.371z
		 M68.988,35.777c-0.042-0.062-0.104-0.146-0.188-0.25c-0.042-0.062-0.073-0.104-0.094-0.125c1.146-0.542,2.07-1.25,2.779-2.125
		c-0.542,0.021-1.029,0.052-1.469,0.094c-0.188,0.021-0.375,0.052-0.562,0.094l-0.188-0.406c0.146-0.062,0.25-0.156,0.312-0.281
		c0.375-0.417,0.779-0.958,1.219-1.625h-1.5v-0.375h4.438v0.375h-2.469c-0.479,0.708-0.938,1.333-1.375,1.875
		c0.25-0.021,0.677-0.062,1.281-0.125c0.271,0,0.479-0.01,0.625-0.031c0.188-0.271,0.354-0.562,0.5-0.875l0.406,0.188
		C71.872,33.746,70.633,34.944,68.988,35.777z M69.425,37.121c-0.084-0.125-0.178-0.25-0.281-0.375c1.75-0.688,3.083-1.823,4-3.406
		l0.406,0.188c-0.417,0.688-0.875,1.281-1.375,1.781c0.188,0.146,0.458,0.365,0.812,0.656c0.375,0.271,0.646,0.479,0.812,0.625
		l-0.375,0.375c-0.354-0.333-0.834-0.75-1.438-1.25c-0.062-0.042-0.104-0.073-0.125-0.094
		C71.175,36.184,70.363,36.684,69.425,37.121z M71.05,29.777l0.375-0.156c0.041,0.083,0.104,0.208,0.188,0.375
		c0.146,0.25,0.25,0.448,0.312,0.594l-0.375,0.156c-0.062-0.104-0.136-0.25-0.219-0.438C71.206,30.08,71.113,29.902,71.05,29.777z"
		/>
	<path fill="#2D2C2C" d="M78.725,32.277l2.406-1.719h-5.219V30.12h5.904v0.5l-2.625,1.875v0.719h3.438v0.438h-3.438v2.406
		c0.021,0.604-0.312,0.917-1,0.938c-0.25,0.021-0.625,0.031-1.125,0.031c0-0.188-0.029-0.365-0.094-0.531
		c0.271,0.021,0.635,0.031,1.094,0.031c0.458,0,0.679-0.188,0.656-0.562v-2.312h-3.656v-0.438h3.656L78.725,32.277L78.725,32.277z"
		/>
	<path fill="#2D2C2C" d="M87.588,34.121l1.688-0.969h-3.875v-0.406h4.406v0.5l-1.781,1.062v0.312h3.375v0.406h-3.375v1.156
		c0.021,0.604-0.279,0.906-0.904,0.906c-0.312,0-0.656,0-1.031,0c0-0.042-0.011-0.094-0.031-0.156
		c-0.021-0.146-0.042-0.261-0.062-0.344c0.312,0.021,0.646,0.031,1,0.031c0.438,0.042,0.635-0.136,0.594-0.531v-1.062h-3.688V34.62
		h3.688v-0.499H87.588z M84.182,31.371h6.969v1.469h-0.438v-1.062h-6.094v1.062h-0.438L84.182,31.371L84.182,31.371z M84.807,30.059
		l0.344-0.219c0.375,0.417,0.679,0.781,0.906,1.094l-0.375,0.281C85.473,30.902,85.182,30.517,84.807,30.059z M86.932,29.84
		l0.375-0.188c0.291,0.375,0.572,0.781,0.844,1.219l-0.404,0.219C87.473,30.632,87.202,30.215,86.932,29.84z M89.401,31.277
		l-0.375-0.281c0.396-0.396,0.75-0.802,1.062-1.219l0.375,0.281c-0.104,0.125-0.271,0.312-0.5,0.562
		C89.713,30.913,89.526,31.132,89.401,31.277z"/>
	<path fill="#2D2C2C" d="M93.2,35.746l-0.188-0.5c2-0.625,3.729-1.198,5.188-1.719c0,0.188,0.021,0.365,0.062,0.531
		C96.304,34.684,94.616,35.246,93.2,35.746z M93.169,30.34h6.344c0,0.167,0,0.417,0,0.75c-0.042,1.833-0.084,3.198-0.125,4.094
		c0,1.167-0.573,1.729-1.719,1.688c-0.334,0.021-0.792,0.031-1.375,0.031c-0.021-0.188-0.062-0.365-0.125-0.531
		c0.354,0.021,0.833,0.031,1.438,0.031c0.938,0.062,1.375-0.375,1.312-1.312c0.083-1.667,0.125-3.114,0.125-4.344h-5.875V30.34z
		 M93.982,31.996l0.25-0.375c1.125,0.5,1.971,0.906,2.531,1.219l-0.25,0.406C95.575,32.726,94.732,32.309,93.982,31.996z"/>
	<path fill="#2D2C2C" d="M105.781,29.652h0.404c0,0.188,0.01,0.448,0.031,0.781c0,0.354,0.01,0.615,0.031,0.781h2.719v0.406h-2.688
		c0.083,1.396,0.229,2.458,0.438,3.188c0.458-0.604,0.896-1.385,1.312-2.344l0.406,0.188c-0.521,1.146-1.042,2.021-1.562,2.625
		c0.312,0.917,0.666,1.375,1.062,1.375c0.229,0,0.396-0.156,0.5-0.469c0.104-0.396,0.166-0.729,0.188-1
		c0.021,0.021,0.062,0.042,0.125,0.062c0.062,0.021,0.154,0.052,0.279,0.094c-0.062,0.396-0.136,0.719-0.219,0.969
		c-0.167,0.521-0.459,0.771-0.875,0.75c-0.542,0.021-1-0.448-1.375-1.406c-0.334,0.375-0.834,0.812-1.5,1.312
		c-0.104-0.104-0.209-0.219-0.312-0.344c0.646-0.417,1.195-0.896,1.654-1.438c-0.292-0.792-0.479-1.979-0.562-3.562h-3.125v1.312
		h2.219c0,0.604-0.03,1.323-0.094,2.156c0,0.75-0.344,1.115-1.031,1.094c-0.146,0.021-0.375,0.031-0.688,0.031
		c-0.021-0.146-0.055-0.302-0.096-0.469c0.25,0.021,0.489,0.031,0.721,0.031c0.458,0.021,0.688-0.198,0.688-0.656
		c0-0.083,0.01-0.198,0.031-0.344c0.021-0.583,0.031-1.062,0.031-1.438h-1.781c-0.021,0.979-0.094,1.708-0.219,2.188
		c-0.104,0.458-0.346,0.989-0.721,1.594c-0.021-0.021-0.071-0.062-0.154-0.125c-0.084-0.083-0.146-0.136-0.188-0.156
		c0.375-0.562,0.604-1.083,0.688-1.562c0.104-0.438,0.154-1.229,0.154-2.375v-1.688h3.531c0-0.146,0-0.385,0-0.719
		C105.791,30.121,105.781,29.84,105.781,29.652z M106.875,30.152l0.25-0.281c0.5,0.312,0.896,0.573,1.188,0.781l-0.279,0.312
		c-0.042-0.042-0.115-0.094-0.221-0.156C107.416,30.517,107.104,30.298,106.875,30.152z"/>
	<path fill="#2D2C2C" d="M110.331,32.934h1.404v-3.281h0.438v3.281h5.531v0.438h-3.471c0.646,1.479,1.822,2.479,3.531,3
		c-0.021,0.021-0.042,0.042-0.062,0.062c-0.062,0.083-0.146,0.208-0.25,0.375c-1.812-0.708-3.031-1.854-3.656-3.438h-1.625v3.031
		c0.208-0.083,0.531-0.219,0.969-0.406c0.416-0.208,0.729-0.354,0.938-0.438c0,0.208,0.01,0.365,0.029,0.469
		c-0.729,0.271-1.312,0.521-1.75,0.75c-0.209,0.083-0.386,0.188-0.529,0.312l-0.312-0.375c0.146-0.146,0.22-0.323,0.22-0.531v-2.812
		h-1.405L110.331,32.934L110.331,32.934z M113.081,32.277c-0.062-0.146-0.138-0.281-0.221-0.406
		c1.458-0.521,2.762-1.135,3.906-1.844l0.25,0.375C115.956,31.048,114.644,31.673,113.081,32.277z"/>
	<path fill="#2D2C2C" d="M19.699,42.965h0.812c0.166-0.5,0.291-0.927,0.375-1.281l0.438,0.094c-0.125,0.417-0.25,0.812-0.375,1.188
		h1.594v6h-0.438V48.34h-2v0.688H19.7L19.699,42.965L19.699,42.965z M20.106,43.34v2.125h2V43.34H20.106z M20.106,45.84v2.156h2
		V45.84H20.106z M23.231,44.652c-0.042-0.021-0.104-0.062-0.188-0.125c-0.084-0.042-0.146-0.073-0.188-0.094
		c0.458-0.75,0.854-1.667,1.188-2.75l0.438,0.094c-0.125,0.375-0.271,0.761-0.438,1.156h2.594c0,0.104,0,0.271,0,0.5
		c-0.042,1.854-0.094,3.281-0.156,4.281c0.021,0.812-0.428,1.229-1.344,1.25c-0.417,0-0.823,0-1.219,0
		c0-0.021-0.011-0.052-0.031-0.094c-0.021-0.167-0.053-0.281-0.094-0.344c0.291,0.021,0.719,0.031,1.281,0.031
		c0.666,0.021,1-0.281,1-0.906c0.041-0.521,0.07-1.614,0.094-3.281c0.021-0.479,0.031-0.823,0.031-1.031h-2.312
		C23.615,43.944,23.397,44.382,23.231,44.652z M23.574,45.026l0.312-0.25c0.041,0.062,0.104,0.146,0.188,0.25
		c0.458,0.562,0.812,1.031,1.062,1.406l-0.344,0.25C24.397,46.101,23.99,45.548,23.574,45.026z"/>
	<path fill="#2D2C2C" d="M31.749,45.526c-0.062-0.041-0.146-0.104-0.25-0.188c-0.521-0.417-0.93-0.719-1.221-0.906
		c-0.25,0.542-0.854,1.042-1.812,1.5c-0.062-0.125-0.146-0.25-0.25-0.375c1-0.375,1.594-0.875,1.781-1.5H28.31v-0.375h1.781
		c0.062-0.271,0.094-0.594,0.094-0.969h-1.031c-0.146,0.25-0.344,0.479-0.594,0.688c-0.062-0.062-0.156-0.146-0.281-0.25
		c0.521-0.479,0.887-1,1.096-1.562l0.344,0.094c-0.042,0.104-0.104,0.24-0.188,0.406c-0.062,0.125-0.104,0.219-0.125,0.281h2.406
		v0.344h-1.219c0,0.375-0.021,0.698-0.062,0.969h1.531v0.375h-1.625v0.031c-0.021,0-0.031,0.011-0.031,0.031
		c0.062,0.042,0.156,0.104,0.281,0.188c0.375,0.229,0.812,0.531,1.312,0.906L31.749,45.526z M29.468,45.81h5.062v3.312h-0.404
		v-0.346h-4.25v0.346h-0.406L29.468,45.81L29.468,45.81z M29.874,46.185v0.938h4.25v-0.938H29.874z M29.874,47.496v0.905h4.25
		v-0.905H29.874z M32.499,42.277h2.779v2.812h-2.779V42.277z M32.906,42.652v2.062h1.969v-2.062H32.906z"/>
	<path fill="#2D2C2C" d="M40.705,44.246c-0.042-0.062-0.104-0.135-0.188-0.219c-0.104-0.104-0.178-0.188-0.219-0.25
		c-1.188,0.042-2.053,0.083-2.594,0.125c-0.209,0-0.388,0.021-0.531,0.062l-0.188-0.406c0.146-0.083,0.304-0.208,0.471-0.375
		c0.5-0.542,0.927-1.073,1.279-1.594l0.406,0.188c-0.562,0.708-1.062,1.292-1.5,1.75c0.083,0,0.219-0.01,0.406-0.031
		c0.854-0.021,1.5-0.052,1.938-0.094c-0.209-0.25-0.438-0.489-0.688-0.719l0.312-0.25c0.458,0.438,0.938,0.948,1.438,1.531
		L40.705,44.246z M37.862,49.06h-0.404v-4.407h2.938v3.594c0.021,0.5-0.219,0.75-0.719,0.75c-0.229,0-0.479,0-0.75,0
		c0-0.125-0.021-0.262-0.062-0.406c0.062,0,0.179,0,0.346,0c0.166,0.021,0.291,0.031,0.375,0.031c0.291,0,0.427-0.125,0.404-0.375
		v-0.812h-2.125L37.862,49.06L37.862,49.06z M37.862,44.996v0.875h2.125v-0.875H37.862z M37.862,46.215v0.875h2.125v-0.875H37.862z
		 M41.393,45.496h0.406v1.344c0.833-0.312,1.625-0.677,2.375-1.094l0.219,0.375c-0.854,0.438-1.719,0.823-2.594,1.155v0.75
		c-0.021,0.354,0.177,0.521,0.594,0.5h0.906c0.396,0,0.625-0.135,0.688-0.405c0.041-0.188,0.072-0.458,0.096-0.812
		c0.062,0.021,0.146,0.041,0.25,0.062c0.062,0.042,0.112,0.062,0.154,0.062c-0.021,0.209-0.062,0.469-0.125,0.781
		c-0.084,0.5-0.417,0.739-1,0.719H42.3c-0.625,0.021-0.928-0.261-0.906-0.844L41.393,45.496L41.393,45.496z M41.393,41.684h0.406
		v1.469c0.604-0.208,1.344-0.552,2.219-1.031l0.25,0.344c-0.75,0.396-1.573,0.771-2.469,1.125v0.5
		c-0.021,0.375,0.177,0.552,0.594,0.531h0.906c0.375,0,0.594-0.156,0.656-0.469c0.062-0.167,0.104-0.448,0.125-0.844
		c0.146,0.062,0.279,0.104,0.404,0.125c-0.021,0.167-0.053,0.386-0.094,0.656c-0.021,0.083-0.031,0.136-0.031,0.156
		c-0.104,0.521-0.446,0.771-1.029,0.75h-1c-0.646,0.021-0.959-0.26-0.938-0.844L41.393,41.684L41.393,41.684z"/>
	<path fill="#2D2C2C" d="M45.944,46.996c-0.021-0.042-0.053-0.104-0.094-0.188c-0.042-0.104-0.084-0.188-0.125-0.25
		c0.562-0.75,1-1.739,1.312-2.969h-1.125v-0.375h1.125v-1.531h0.404v1.531h1.096v0.375h-1.096v1.281l0.221-0.25
		c0.458,0.417,0.802,0.738,1.029,0.969l-0.279,0.281c-0.125-0.125-0.312-0.303-0.562-0.531c-0.188-0.188-0.323-0.322-0.406-0.406
		v4.156h-0.404v-4.688C46.745,45.548,46.381,46.413,45.944,46.996z M49.694,42.59v2.219c0,1.208-0.094,2.083-0.279,2.625
		c-0.167,0.541-0.555,1.094-1.156,1.654c-0.084-0.083-0.209-0.188-0.375-0.312c0.604-0.543,0.989-1.053,1.156-1.53
		c0.166-0.479,0.25-1.304,0.25-2.469v-2.594h2.625v5.875c0,0.271,0.104,0.396,0.312,0.375h0.156c0.291,0,0.447-0.146,0.469-0.438
		c0.062-0.333,0.104-0.75,0.125-1.25c0.146,0.062,0.281,0.113,0.406,0.154c-0.021,0.562-0.062,0.971-0.125,1.221
		c-0.084,0.5-0.354,0.738-0.812,0.719h-0.279c-0.459,0-0.688-0.238-0.688-0.719v-5.53H49.694z"/>
	<path fill="#2D2C2C" d="M61.9,46.56c-1.834-0.084-2.979-0.553-3.438-1.406h-0.188c-0.209,0.729-1.363,1.22-3.469,1.47
		c-0.021-0.042-0.053-0.104-0.094-0.188c-0.062-0.084-0.104-0.146-0.125-0.188c1.916-0.208,3-0.573,3.25-1.096h-3v-0.342h3.156
		c0.062-0.188,0.104-0.406,0.125-0.656h0.404c-0.021,0.25-0.062,0.469-0.125,0.656h1.596c-0.084-0.146-0.188-0.323-0.312-0.531
		l0.375-0.156c0.125,0.208,0.25,0.438,0.375,0.688h1.531v0.343H58.9c0.479,0.646,1.554,0.979,3.221,1
		c-0.021,0.041-0.073,0.137-0.156,0.281C61.92,46.496,61.9,46.538,61.9,46.56z M55.243,42.09h2.562v1.906h-2.562V42.09z
		 M55.243,46.81h2.594v2.28h-0.375v-0.375H55.65v0.406h-0.404L55.243,46.81L55.243,46.81z M55.65,42.434v1.219h1.781v-1.219H55.65z
		 M55.65,47.151v1.22h1.812v-1.22H55.65z M58.837,42.09h2.594v1.906h-2.594V42.09z M58.837,46.81h2.625v2.312h-0.406v-0.406h-1.812
		v0.375h-0.406L58.837,46.81L58.837,46.81z M59.243,42.434v1.219h1.779v-1.219H59.243z M59.243,47.151v1.22h1.812v-1.22H59.243z"/>
	<path fill="#2D2C2C" d="M70.574,48.935c-2-1-3.125-2.637-3.375-4.907c-0.292,2.229-1.438,3.896-3.438,5
		c-0.021-0.021-0.062-0.062-0.125-0.125c-0.084-0.125-0.146-0.198-0.188-0.219c1.979-1.104,3.112-2.763,3.404-4.971
		c0.062-0.417,0.096-1.062,0.096-1.938h0.469c0,0.146-0.011,0.344-0.031,0.594c0,0.271-0.011,0.469-0.031,0.594
		c0.333,2.896,1.512,4.762,3.531,5.596c-0.042,0.041-0.104,0.112-0.188,0.219C70.637,48.86,70.595,48.913,70.574,48.935z"/>
	<path fill="#2D2C2C" d="M71.968,45.215h7.969v0.375h-7.969V45.215z"/>
	<path fill="#2D2C2C" d="M80.768,45.215h7.969v0.375h-7.969V45.215z"/>
	<path fill="#2D2C2C" d="M90.975,42.152h2.312v2.219h-1.75l-0.156,1.438h1.875c-0.021,0.207-0.042,0.529-0.062,0.969
		c-0.042,0.541-0.071,0.916-0.094,1.125c-0.021,0.707-0.417,1.062-1.188,1.062c-0.271,0-0.555,0-0.846,0
		c-0.021-0.083-0.042-0.177-0.062-0.28c-0.021-0.062-0.031-0.115-0.031-0.156c0.188,0.021,0.479,0.031,0.875,0.031
		c0.541,0,0.822-0.22,0.844-0.656c0.041-0.25,0.072-0.697,0.096-1.344c0.021-0.168,0.029-0.293,0.029-0.375h-1.875l0.221-2.188
		h1.719v-1.438h-1.906L90.975,42.152L90.975,42.152z M94.381,41.746h0.406v3.25h3.5v0.375h-2.25c0.375,1.396,1.135,2.396,2.279,3
		c-0.125,0.125-0.238,0.25-0.344,0.375c-1.271-0.833-2.042-1.958-2.312-3.375h-0.875v3c0.041-0.021,0.112-0.062,0.219-0.125
		c0.438-0.208,0.76-0.375,0.969-0.5c0.021,0.042,0.041,0.114,0.062,0.219c0.021,0.083,0.029,0.156,0.029,0.22
		c-0.375,0.146-0.779,0.354-1.219,0.625c-0.146,0.104-0.281,0.197-0.406,0.28l-0.279-0.344c0.146-0.146,0.219-0.333,0.219-0.562
		v-2.812h-0.844v-0.375h0.844L94.381,41.746L94.381,41.746z M95.537,44.402c-0.042-0.062-0.138-0.167-0.281-0.312
		c0.958-0.646,1.76-1.271,2.406-1.875l0.279,0.281C97.402,43.017,96.6,43.652,95.537,44.402z"/>
	<path fill="#2D2C2C" d="M101.337,43.465l0.469,0.156c-0.5,1.375-1.073,2.667-1.719,3.875c-0.146-0.104-0.303-0.188-0.469-0.25
		C100.284,46.185,100.858,44.923,101.337,43.465z M103.212,41.746h0.469v6.344c0.021,0.604-0.303,0.917-0.969,0.938
		c-0.334,0-0.688,0-1.062,0c-0.021-0.146-0.062-0.303-0.125-0.469c0.333,0,0.666,0,1,0c0.5,0.041,0.729-0.156,0.688-0.596
		L103.212,41.746L103.212,41.746z M104.868,43.684l0.404-0.188c0.396,0.708,1.021,1.927,1.875,3.655l-0.469,0.22
		C106.118,46.121,105.514,44.892,104.868,43.684z"/>
	<path fill="#2D2C2C" d="M115.699,44.027c-1.5-0.458-2.68-1.073-3.531-1.844c-0.875,0.771-2.053,1.427-3.531,1.969
		c-0.062-0.146-0.146-0.281-0.25-0.406c1.625-0.542,2.906-1.25,3.844-2.125l0.471,0.125c-0.021,0.021-0.062,0.052-0.125,0.094
		c-0.042,0.042-0.084,0.073-0.125,0.094c0.896,0.771,2.062,1.333,3.5,1.688C115.845,43.746,115.762,43.882,115.699,44.027z
		 M108.449,48.496h0.938v-1.812h5.562v1.812h0.938v0.344h-7.438V48.496z M109.762,45.965v-1.562h4.812v1.562H109.762z
		 M109.793,47.026v1.47h1.312v-1.47H109.793z M110.168,44.746v0.875h4v-0.875H110.168z M110.574,43.746v-0.344h3.188v0.344H110.574z
		 M111.512,47.026v1.47h1.312v-1.47H111.512z M114.543,47.026h-1.312v1.47h1.312V47.026z"/>
</g>
</svg>
