<?xml version="1.0" encoding="utf-8"?>
<!-- Generator: Adobe Illustrator 16.0.0, SVG Export Plug-In . SVG Version: 6.00 Build 0)  -->
<!DOCTYPE svg PUBLIC "-//W3C//DTD SVG 1.1//EN" "http://www.w3.org/Graphics/SVG/1.1/DTD/svg11.dtd">
<svg version="1.1" id="图层_1" xmlns="http://www.w3.org/2000/svg" xmlns:xlink="http://www.w3.org/1999/xlink" x="0px" y="0px"
	 width="100px" height="35.801px" viewBox="0 0 100 35.801" enable-background="new 0 0 100 35.801" xml:space="preserve">
<g>
	<polygon fill="#0078F2" points="34.213,10.593 37.006,10.593 37.006,22.237 38.776,22.237 38.776,10.593 39.43,10.593 39.43,9.38 
		34.213,9.38 	"/>
	<polygon fill="#0078F2" points="30.579,5.283 27.04,5.283 27.04,4.445 25.177,4.445 25.177,5.283 21.825,5.283 21.825,6.587 
		30.579,6.587 	"/>
	<polygon fill="#0078F2" points="30.487,10.034 29.485,10.034 30.225,8.078 28.244,8.078 27.259,9.939 24.79,9.939 24.218,8.078 
		22.062,8.078 22.556,9.939 21.825,9.939 21.825,11.245 30.487,11.245 	"/>
	<polygon fill="#0078F2" points="50.605,16.088 48.464,16.088 48.464,17.672 41.013,17.672 41.013,19.068 48.464,19.068 
		48.464,22.237 50.605,22.237 50.605,19.068 58.521,19.068 58.521,17.672 50.605,17.672 	"/>
	<g>
		<path fill="#0078F2" d="M56.844,6.428c0,0.779-0.531,1.042-0.963,1.042c-0.062,0-5.368,0.003-5.368,0.003V4.631h-1.863v9.018
			c0,0.388-0.02,0.856,0.218,1.09c0.218,0.214,0.535,0.255,1.056,0.245l8.507-0.001v-1.688h-6.878h-0.127
			c-0.371,0-0.598-0.086-0.715-0.221c-0.18-0.209-0.203-0.454-0.197-0.829l-0.006-3.424h6.798h0.27c0.279,0,0.556-0.06,0.696-0.195
			c0.258-0.254,0.251-0.646,0.251-1.275v-2.72h-1.678V6.428z"/>
		<rect x="60.851" y="5.283" fill="#0078F2" width="7.73" height="1.304"/>
		<path fill="#0078F2" d="M75.195,20.56V7.984h2.888v-1.21h-2.888V4.723h-1.77v2.051h-3.353v1.21h3.353V20.56h-3.995l-0.214-0.008
			c-0.096,0-0.17-0.084-0.17-0.184v-7.881c0-0.858-0.714-1.617-1.568-1.617h-1.598V9.753h2.981V8.729h-8.198v1.025h3.54v1.117
			h-1.881c-0.855,0-1.565,0.759-1.565,1.617v9.561h1.397v-9.561c0-0.096,0.072-0.311,0.168-0.311h1.881v9.963h1.677v-9.963h1.598
			c0.098,0,0.077,0.215,0.077,0.311v7.881c0,0.86,0.797,1.494,1.652,1.494H69.8h1.446h6.929V20.56H75.195z"/>
		<path fill="#0078F2" d="M32.442,6.514V20.37c0,0.098-0.055,0.189-0.152,0.189h-1.732c-0.097,0-0.164-0.092-0.164-0.189v-2.838
			c0-0.857-0.71-1.629-1.565-1.629h-1.879v-1.211h3.538V13.48h-3.538v-1.211h-1.493v1.211h-3.631v1.211h3.631v1.211h-2.088
			c-0.858,0-1.543,0.772-1.543,1.629v4.516h1.302v-4.516c0-0.096,0.146-0.234,0.241-0.234h2.088v5.124h1.493v-5.124h1.879
			c0.096,0,0.169,0.138,0.169,0.234v2.838c0,0.858,0.705,1.492,1.561,1.492h1.732c0.856,0,1.549-0.634,1.549-1.492V6.514
			c0-0.096,0.083-0.207,0.183-0.207h5.408V4.911h-5.408C33.165,4.911,32.442,5.66,32.442,6.514"/>
		<path fill="#0078F2" d="M42.409,14.878h1.96h0.048l0.003-7.606l1.194-2.549h-2.078c0,0-0.609,1.186-0.992,1.938
			c-0.385,0.754-1.147,0.763-1.309,0.763h-0.223v1.396h1.396V14.878z"/>
		<path fill="#0078F2" d="M48.172,26.232c0-0.474,0.261-0.73,0.777-0.73h0.04v-0.247h-2.125v0.247h0.162
			c0.317,0,0.572,0.257,0.572,0.572v2.325c0,0.991-0.52,1.498-1.577,1.521c-0.971-0.022-1.445-0.475-1.445-1.36v-2.485
			c0-0.315,0.254-0.572,0.569-0.572h0.245v-0.247h-4.984v0.247h0.102c0.472,0,0.633,0.236,0.633,0.669v1.293h-2.694v-1.329
			c0-0.406,0.185-0.633,0.638-0.633h0.096v-0.247h-4.496v0.247h0.328c0.272,0,0.491,0.219,0.491,0.49v2.764l-3.375-3.501h-6.352
			v0.247h0.268c0.237,0,0.365,0.078,0.386,0.189c0.022,0.084-0.075,0.259-0.289,0.495L25.299,27.1l-0.84-1.062
			c-0.131-0.173-0.186-0.316-0.161-0.381c0.042-0.088,0.182-0.154,0.42-0.154h0.24v-0.247h-3.105v0.247h0.211
			c0.195,0,0.378,0.078,0.552,0.189c0.151,0.105,0.366,0.335,0.646,0.657l1.229,1.561l-1.271,1.36
			c-0.453,0.498-0.951,0.759-1.368,0.78v0.356h2.289v-0.33h-0.232c-0.238,0-0.401-0.054-0.486-0.142
			c-0.062-0.085-0.032-0.201,0.098-0.33l1.295-1.297l1,1.193c0.152,0.175,0.204,0.315,0.162,0.403
			c-0.042,0.107-0.172,0.172-0.388,0.172h-0.141v0.33h6.945v-0.33h-0.245c-0.269,0-0.488-0.22-0.488-0.491v-3.32l3.895,4.142h0.438
			v-4.332c0-0.315,0.256-0.572,0.571-0.572h0.164c0.316,0,0.572,0.257,0.572,0.572v3.433c0,0.314-0.256,0.569-0.572,0.569h-0.164
			v0.33h2.615v-0.33h-0.096c-0.434,0-0.638-0.233-0.638-0.641v-1.482h2.694v1.446c0,0.433-0.161,0.677-0.569,0.677h-0.165v0.33
			h2.697v-0.33h-0.327c-0.226,0-0.408-0.181-0.408-0.409V25.91c0-0.228,0.183-0.408,0.408-0.408h0.245
			c0.227,0,0.408,0.181,0.408,0.408v2.649c0,1.232,0.825,1.856,2.42,1.876c1.53-0.02,2.322-0.73,2.322-2.134V26.232z M28.718,29.585
			c0,0.271-0.22,0.491-0.492,0.491h-0.244c-0.3,0-0.505-0.257-0.897-0.771l-1.46-1.841l1.163-1.262c0.7-0.7,1.021-0.7,1.194-0.7
			h0.244c0.272,0,0.492,0.219,0.492,0.49V29.585z M31.17,29.585c0,0.271-0.219,0.491-0.491,0.491h-0.324
			c-0.122,0-0.229-0.04-0.314-0.109c-0.063-0.044-0.105-0.1-0.133-0.173c-0.028-0.062-0.044-0.132-0.044-0.209v-3.593
			c0-0.271,0.22-0.49,0.491-0.49h0.324c0.272,0,0.491,0.219,0.491,0.49V29.585z M53.297,29.304l-1.647-4.131h-1.23l0.1,0.231
			l-1.424,3.88c-0.173,0.542-0.441,0.792-0.809,0.792h-0.114v0.33h2.123v-0.33h-0.036c-0.367,0-0.594-0.054-0.679-0.142
			c-0.087-0.063-0.078-0.246,0.031-0.502l0.324-0.906h1.811l0.389,0.898c0.108,0.192,0.128,0.364,0.065,0.471
			c-0.065,0.107-0.217,0.181-0.454,0.181h-0.307v0.33h2.697V30.05C53.81,30.05,53.469,29.798,53.297,29.304 M50.098,28.114
			l0.71-1.938l0.777,1.938H50.098z M74.407,25.255H73.1v0.247h0.351c0.182,0,0.281,0.137,0.223,0.308l-0.977,2.854l-0.932-2.854
			c-0.058-0.167,0.045-0.308,0.225-0.308h0.291v-0.247h-2.288v0.247h0.133c0.181,0,0.378,0.137,0.438,0.308l0.036,0.101l0.034,0.099
			c0.001,0,0.001,0,0.001,0l0.108,0.31l-0.104,0.308l0,0l-0.744,2.117l-0.856-2.621l0,0l-0.1-0.312
			c-0.059-0.167,0.046-0.308,0.223-0.308h0.344v-0.247h-8.909v0.247l0.002,0.006c0.026-0.002,0.051-0.006,0.077-0.006h0.247
			c0.315,0,0.572,0.257,0.572,0.572v2.682l-3.417-3.501h-1.65v0.247h0.082c0.317,0,0.571,0.257,0.571,0.572v3.433
			c0,0.314-0.254,0.569-0.571,0.569h-0.163v0.33h1.962V30.05c-0.572,0.045-0.819-0.183-0.819-0.68v-3.105l4.017,4.142h0.398v-4.332
			c0-0.315,0.258-0.572,0.571-0.572h0.246c0.314,0,0.572,0.257,0.572,0.572v3.433c0,0.314-0.258,0.569-0.572,0.569h-0.328v0.33
			h4.904l0.098-1.389h-0.324c-0.107,0.649-0.418,0.896-0.938,0.896h-0.144h-1.144c-0.224,0-0.407-0.181-0.407-0.407v-1.472h1.551
			c0.227,0,0.41,0.183,0.41,0.408v0.162h0.326v-1.632h-0.326v0.082c0,0.223-0.184,0.408-0.41,0.408h-1.551v-1.802h3.206
			c0.028,0.082,0.06,0.147,0.091,0.24l1.595,4.586h0.211l1.365-3.598h0.054l1.263,3.598h0.204l1.502-4.575
			c0.046-0.147,0.089-0.268,0.175-0.35c0.088-0.083,0.224-0.134,0.306-0.145V25.255z M77.658,27.85
			c-0.259-0.259-0.69-0.538-1.294-0.84c-0.666-0.366-1.003-0.689-1.003-0.97c0-0.349,0.314-0.518,0.811-0.538
			c0.669,0.021,1.12,0.325,1.357,1.146h0.323l-0.162-1.393h-0.161c-0.045,0-0.054,0.02-0.03,0.02
			c-0.065,0.046-0.12,0.059-0.164,0.059c-0.021,0-0.098-0.023-0.225-0.068c-0.39-0.107-0.733-0.16-1.036-0.16
			c-1.054,0.064-1.686,0.589-1.682,1.358c0.002,0.763,0.613,1.333,1.456,1.614c0.712,0.281,1.194,0.73,1.194,1.198
			c0,0.517-0.354,0.784-0.937,0.805c-0.691,0-1.163-0.413-1.422-1.228H74.36l0.193,1.472h0.226c0.044,0,0.099-0.122,0.164-0.122
			c0.042,0,0.139,0.024,0.291,0.069c0.473,0.106,0.851,0.164,1.13,0.164c1.102-0.044,1.779-0.644,1.779-1.488
			C78.144,28.594,77.981,28.194,77.658,27.85"/>
	</g>
</g>
</svg>
