<?xml version="1.0" encoding="utf-8"?>
<!-- Generator: Adobe Illustrator 19.0.0, SVG Export Plug-In . SVG Version: 6.00 Build 0)  -->
<svg version="1.1" id="图层_1" xmlns="http://www.w3.org/2000/svg" xmlns:xlink="http://www.w3.org/1999/xlink" x="0px" y="0px"
	 viewBox="-247 403.089 100 35.801" enable-background="new -247 403.089 100 35.801" xml:space="preserve">
<g id="_x31_Yk9H7.tif">
	<g>
		<path fill="#2A8DCE" d="M-230.417,431.221c-2.167,0-4.335,0.006-6.503-0.001c-2.271-0.008-3.79-1.524-3.791-3.783
			c-0.003-4.285-0.003-8.569,0-12.854c0.001-2.272,1.568-3.827,3.851-3.827c4.31-0.001,8.62-0.002,12.929,0
			c2.067,0.001,3.721,1.48,3.748,3.546c0.058,4.46,0.054,8.921,0.001,13.381c-0.025,2.063-1.605,3.52-3.657,3.535
			C-226.032,431.233-228.225,431.221-230.417,431.221z"/>
		<path fill="#2A8DCE" d="M-154.816,421.041c0,1.612,0.02,3.224-0.01,4.835c-0.012,0.643,0.203,0.986,0.867,0.879
			c0.732-0.118,0.643,0.341,0.67,0.811c0.03,0.522-0.126,0.725-0.667,0.678c-0.525-0.045-1.058,0.006-1.586-0.014
			c-0.849-0.033-1.061-0.257-1.064-1.103c-0.005-1.385-0.019-2.771,0.008-4.155c0.01-0.533-0.199-0.692-0.707-0.708
			c-2.326-0.075-2.326-0.086-2.326,2.258c0,1.033-0.03,2.066,0.013,3.097c0.022,0.526-0.18,0.676-0.651,0.618
			c-0.099-0.012-0.203-0.014-0.302,0c-0.659,0.096-0.925-0.112-0.894-0.846c0.063-1.483,0.003-2.971,0.027-4.457
			c0.008-0.495-0.169-0.694-0.655-0.665c-0.326,0.019-0.658-0.028-0.981,0.01c-0.579,0.069-0.798-0.119-0.772-0.736
			c0.021-0.501,0.117-0.696,0.669-0.693c1.731,0.009,1.731-0.016,1.731-1.739c0-0.68-0.024-1.361,0.008-2.04
			c0.022-0.473-0.164-0.634-0.616-0.598c-0.325,0.026-0.654,0.006-0.982,0.005c-0.698-0.002-1.092-0.69-0.755-1.302
			c0.114-0.206,0.296-0.161,0.462-0.161c2.544-0.003,5.087-0.003,7.631-0.001c0.64,0,0.887,0.357,0.884,0.964
			C-154.821,417.666-154.816,419.353-154.816,421.041z"/>
		<path fill="#2A8DCE" d="M-170.568,426.58c-0.667-0.488-1.182-0.886-1.719-1.248c-0.239-0.161-0.222-0.369-0.222-0.593
			c-0.001-0.579-0.021-1.159,0.005-1.737c0.024-0.533-0.241-0.728-0.725-0.728c-0.907,0-1.813-0.004-2.72,0.001
			c-0.27,0.001-0.597-0.054-0.678,0.315c-0.072,0.328-0.049,0.662,0.256,0.89c0.523,0.393,1.05,0.781,1.579,1.166
			c1.58,1.15,3.161,2.297,4.891,3.554c-1.552,0.061-2.872,0.225-4.032-0.874c-0.887-0.841-1.999-1.44-2.961-2.21
			c-0.52-0.416-0.89-0.449-1.428-0.02c-1.062,0.846-2.212,1.581-3.276,2.423c-0.667,0.527-1.348,0.828-2.209,0.724
			c-0.435-0.052-0.882-0.009-1.36-0.164c1.315-0.958,2.63-1.915,3.945-2.873c0.732-0.533,1.46-1.074,2.2-1.596
			c0.372-0.262,0.562-0.608,0.432-1.034c-0.126-0.414-0.532-0.297-0.843-0.301c-0.831-0.011-1.662,0.007-2.493-0.007
			c-0.604-0.01-0.896,0.252-0.843,0.867c0.006,0.075-0.012,0.153,0.003,0.226c0.292,1.512-0.344,2.494-1.803,3.019
			c-0.151-0.076-0.055-0.276-0.056-0.43c-0.009-1.385,0.005-2.77-0.009-4.155c-0.006-0.626,0.256-0.935,0.896-0.934
			c4.08,0.005,8.16,0.004,12.239,0.001c0.636-0.001,0.924,0.339,0.929,0.935C-170.561,423.33-170.568,424.861-170.568,426.58z"/>
		<path fill="#2B8FCF" d="M-193.753,418.643c1.839,0,3.678-0.004,5.517,0.002c0.854,0.003,1.053,0.211,1.057,1.074
			c0.004,0.882-0.011,1.764,0.006,2.645c0.008,0.396-0.129,0.714-0.316,1.058c-0.463,0.855-1.118,1.115-2.091,1.096
			c-3.223-0.064-6.449-0.023-9.674-0.025c-0.958-0.001-1.163-0.198-1.168-1.138c-0.007-1.209-0.009-2.419,0.001-3.628
			c0.007-0.848,0.238-1.08,1.075-1.083C-197.482,418.639-195.617,418.643-193.753,418.643z"/>
		<path fill="#2B8FCF" d="M-209.795,422.792c-2.113,0-4.227-0.018-6.34,0.012c-0.555,0.008-0.74-0.129-0.723-0.709
			c0.036-1.206,0.002-1.207,1.175-1.207c4.025,0,8.051,0.013,12.076-0.014c0.626-0.004,0.895,0.093,0.846,0.805
			c-0.085,1.243,0.174,1.106-1.148,1.111C-205.87,422.798-207.832,422.792-209.795,422.792z"/>
		<path fill="#2B8FCF" d="M-164.557,423.418c0,1.258-0.015,2.516,0.006,3.774c0.012,0.698-0.308,1.028-0.987,1.036
			c-0.654,0.007-1.308,0.008-1.962,0.008c-0.901,0.001-1.153-0.352-0.928-1.225c0.09-0.348,0.339-0.25,0.533-0.242
			c1.862,0.076,1.544-0.158,1.559-1.629c0.013-1.283,0.003-2.566,0.003-3.849c0-1.174-0.001-1.202-1.162-1.169
			c-0.564,0.016-0.797-0.1-0.781-0.733c0.015-0.58,0.143-0.81,0.757-0.757c0.649,0.056,1.307,0.026,1.961,0.009
			c0.701-0.018,1.01,0.313,1.004,1.005C-164.566,420.902-164.557,422.16-164.557,423.418z"/>
		<path fill="#2B8FCF" d="M-181.621,418.643c1.842,0.299,3.814-0.519,5.84-0.976c0.484-0.109,0.924-0.128,1.404,0.003
			c1.066,0.291,2.146,0.532,3.219,0.798c0.492,0.122,0.849,1.087,0.558,1.495c-0.145,0.203-0.325,0.054-0.472,0.018
			c-1.125-0.268-2.248-0.541-3.366-0.837c-0.429-0.114-0.839-0.134-1.259,0.008c-2.711,0.915-5.505,1.073-8.339,0.976
			c-0.625-0.021-0.605-0.316-0.602-0.749c0.002-0.426-0.044-0.798,0.598-0.748C-183.34,418.685-182.631,418.643-181.621,418.643z"/>
		<path fill="#2B8FCF" d="M-191.737,417.348c-1.308,0-2.616,0.008-3.924-0.003c-0.814-0.007-1.031-0.234-1.045-1.027
			c-0.003-0.176,0-0.352,0-0.528c0-1.265,0-1.247,1.293-1.241c0.443,0.002,0.664,0.107,0.615,0.586
			c-0.062,0.603,0.256,0.776,0.82,0.77c2.062-0.02,4.125,0.017,6.187-0.023c0.594-0.012,0.636,0.24,0.625,0.708
			c-0.011,0.463,0.021,0.805-0.648,0.776C-189.12,417.307-190.43,417.348-191.737,417.348z"/>
		<path fill="#2B8FCF" d="M-175.552,416.631c-0.73,0-1.46-0.008-2.19,0.003c-0.372,0.005-0.755-0.026-0.896-0.408
			c-0.186-0.501-0.161-1.048-0.028-1.557c0.062-0.237,1.67-0.156,1.8,0.109c0.185,0.378,0.474,0.39,0.813,0.389
			c1.435-0.005,2.87-0.006,4.305-0.001c0.922,0.003,1.178,0.244,1.179,1.153c0.001,1.611,0.15,1.353-1.29,1.022
			c-0.264-0.061-0.6-0.024-0.704-0.441c-0.069-0.278-0.388-0.27-0.646-0.269C-173.991,416.632-174.771,416.631-175.552,416.631z"/>
		<path fill="#2B8FCF" d="M-193.431,428.236c0.672-0.93,1.225-1.735,1.82-2.508c0.476-0.618,3.365-0.583,3.842,0.038
			c0.505,0.656,0.973,1.34,1.469,2.003c0.244,0.326,0.223,0.48-0.225,0.47c-0.502-0.012-1.005-0.02-1.506,0.002
			c-0.594,0.026-0.707-0.498-0.965-0.832c-0.627-0.811-0.844-0.863-1.358-0.032c-0.421,0.682-0.919,0.986-1.714,0.869
			C-192.456,428.189-192.859,428.236-193.431,428.236z"/>
		<path fill="#2990D0" d="M-182.085,416.631c-0.679,0-1.36-0.031-2.037,0.009c-0.645,0.038-0.504-0.395-0.508-0.748
			c-0.004-0.361-0.118-0.758,0.517-0.741c1.382,0.038,2.766,0.005,4.149,0.005c0.436,0,0.469,0.114,0.469,0.784
			c0,0.643,0,0.699-0.478,0.699C-180.676,416.639-181.381,416.631-182.085,416.631z"/>
		<path fill="#2990D0" d="M-197.074,425.334c-0.687,0.949-1.28,1.754-1.856,2.573c-0.162,0.23-0.349,0.335-0.626,0.331
			c-0.623-0.009-1.246-0.003-2.055-0.003c0.725-0.991,1.359-1.871,2.008-2.74c0.176-0.236,0.461-0.156,0.705-0.159
			C-198.334,425.329-197.769,425.334-197.074,425.334z"/>
		<path fill="#2990D0" d="M-197.521,428.237c0.686-0.948,1.277-1.756,1.856-2.572c0.159-0.224,0.346-0.338,0.627-0.333
			c0.622,0.012,1.244,0.004,2.052,0.004c-0.728,0.999-1.356,1.883-2.011,2.747c-0.19,0.252-0.514,0.146-0.783,0.151
			C-196.3,428.245-196.822,428.237-197.521,428.237z"/>
		<path fill="#2C90D0" d="M-166.342,415.012c0.3,0,0.6,0,0.901,0c0.846,0.001,1.116,0.382,0.881,1.198
			c-0.076,0.264-0.248,0.271-0.455,0.271c-0.926-0.001-1.852-0.016-2.777,0.005c-0.669,0.015-0.43-0.468-0.455-0.789
			c-0.026-0.337-0.103-0.732,0.479-0.691C-167.295,415.038-166.818,415.012-166.342,415.012z"/>
		<path fill="#FFFFFF" d="M-229.219,420.807c0,1.409,0.001,2.817,0,4.226c0,1.251-0.395,1.78-1.321,1.776
			c-0.906-0.004-1.273-0.5-1.273-1.728c-0.001-1.761-0.015-3.522,0.009-5.282c0.007-0.485-0.123-0.694-0.634-0.646
			c-0.373,0.035-0.756,0.022-1.13-0.015c-0.49-0.049-0.852-0.289-0.96-0.81c-0.111-0.538,0.075-0.968,0.568-1.183
			c0.976-0.426,1.726-1.1,2.359-1.937c0.394-0.52,0.937-0.681,1.544-0.459c0.587,0.214,0.835,0.696,0.836,1.304
			C-229.217,417.637-229.219,419.222-229.219,420.807z"/>
		<path fill="#FEFFFF" d="M-226.106,426.81c-0.941-0.008-1.604-0.679-1.601-1.619c0.003-0.938,0.671-1.601,1.616-1.604
			c0.95-0.003,1.702,0.743,1.671,1.656C-224.45,426.137-225.182,426.817-226.106,426.81z"/>
		<path fill="#FEFFFF" d="M-159.632,418.656c0-0.478,0.036-0.959-0.009-1.433c-0.06-0.623,0.213-0.757,0.785-0.756
			c2.249,0.004,2.249-0.013,2.249,2.198c0,0.553-0.009,1.107,0.002,1.66c0.007,0.379-0.15,0.55-0.538,0.542
			c-0.654-0.014-1.308-0.013-1.962,0c-0.393,0.008-0.538-0.175-0.529-0.551C-159.622,419.763-159.632,419.21-159.632,418.656z"/>
		<path fill="#FFFFFF" d="M-193.8,420.109c1.308,0,2.617,0.02,3.925-0.009c0.585-0.013,0.843,0.193,0.798,0.786
			c-0.027,0.35,0.015,0.706-0.012,1.056c-0.053,0.689-0.48,1.083-1.169,1.085c-2.491,0.004-4.982-0.01-7.473,0.01
			c-0.585,0.005-0.834-0.197-0.796-0.79c0.031-0.476,0.023-0.957,0.002-1.434c-0.023-0.525,0.215-0.716,0.723-0.71
			C-196.468,420.12-195.134,420.109-193.8,420.109z"/>
	</g>
</g>
</svg>
