<?xml version="1.0" encoding="utf-8"?>
<!-- Generator: Adobe Illustrator 16.0.0, SVG Export Plug-In . SVG Version: 6.00 Build 0)  -->
<!DOCTYPE svg PUBLIC "-//W3C//DTD SVG 1.1//EN" "http://www.w3.org/Graphics/SVG/1.1/DTD/svg11.dtd">
<svg version="1.1" id="图层_1" xmlns="http://www.w3.org/2000/svg" xmlns:xlink="http://www.w3.org/1999/xlink" x="0px" y="0px"
	 width="100px" height="35.801px" viewBox="0 0 100 35.801" enable-background="new 0 0 100 35.801" xml:space="preserve">
<rect fill="#FFFFFF" width="100" height="35.801"/>
<g>
	<g>
		<path fill="#0073C5" d="M80.889,9.146c0.009,0.041,0.015,0.08,0.021,0.121c-1.087,1.163-2.162,2.34-3.275,3.478
			c-0.197,0.202-0.554,0.289-0.851,0.34c-0.332,0.056-0.679,0-1.017,0.02c-0.114,0.008-0.247,0.076-0.333,0.158
			c-0.159,0.157-0.291,0.342-0.435,0.52c-0.349,0.435-0.695,0.872-1.006,1.259c1.237,0,2.479-0.002,3.718,0
			c0.762,0.001,1.368-0.313,1.874-0.869c0.265-0.29,0.57-0.542,0.881-0.833c0.32,0.428,0.594,0.858,0.938,1.227
			c0.212,0.225,0.52,0.477,0.8,0.497c0.858,0.064,1.729,0.023,2.561,0.023c0-0.62,0-1.247,0-1.958
			c-1.28,0.377-1.979-0.391-2.682-1.201c0.819-0.842,1.622-1.667,2.424-2.498c0.073-0.077,0.168-0.179,0.17-0.271
			c0.019-0.55,0.01-1.101,0.01-1.682c-0.186,0-0.331,0-0.474,0c-2.887-0.002-5.772-0.002-8.663,0.001
			c-0.145,0-0.354,0.01-0.433,0.101c-0.39,0.475-0.748,0.977-1.191,1.568C76.31,9.146,78.6,9.146,80.889,9.146z M77.63,31.165
			c0-1.394-0.004-2.751,0.006-4.108c0.002-0.146,0.093-0.401,0.173-0.413c0.14-0.022,0.357,0.054,0.454,0.166
			c1.087,1.286,2.184,2.565,3.219,3.893c0.561,0.722,1.334,0.811,2.089,0.592c0.664-0.187,1.085-0.883,1.085-1.673
			c0-1.474,0-2.944,0-4.417c0-0.118,0-0.238,0-0.354c-0.644,0-1.243,0-1.859,0c0,0.134,0,0.244,0,0.356c0,1.234,0.009,2.469,0,3.703
			c0,0.117-0.061,0.329-0.123,0.341c-0.12,0.021-0.271-0.05-0.396-0.11c-0.074-0.036-0.129-0.122-0.187-0.192
			c-0.974-1.146-1.948-2.291-2.912-3.441c-0.407-0.484-0.881-0.788-1.528-0.821c-1.161-0.056-1.84,0.86-1.823,1.622
			c0.036,1.52-0.002,3.341,0,4.857c0,0.097-0.007-0.111,0,0C76.419,31.165,77.021,31.165,77.63,31.165z M25.146,29.375
			c-1.009,0-1.984-0.002-2.956,0c-1.096,0.007-2.192,0.019-3.293,0c-0.582-0.008-0.925-0.408-0.93-0.986c0-0.283,0-0.566,0-0.849
			c0-0.855,0.406-1.26,1.266-1.263c1.844-0.007,3.691,0.009,5.536,0c0.108,0,0.22,0.007,0.336,0c0-0.479,0-0.973,0-1.424
			c-0.754,0-1.477,0-2.197,0c-1.688,0.002-3.375,0-5.063,0.004c-0.877,0.005-1.809,0.897-1.826,1.771
			c-0.016,0.781-0.005,1.562-0.003,2.343c0.001,0.448,0.137,0.844,0.447,1.177c0.531,0.569,1.21,0.755,1.96,0.751
			c1.823-0.006,3.646,0.006,5.47,0c0.414,0,0.826,0,1.254,0C25.146,30.357,25.146,29.886,25.146,29.375z"/>
		<path fill="#0073C5" d="M47.517,4.403c0.009,0.146,0.029,0.292,0.029,0.437c0,5.392,0,10.782,0,16.173c0,0.136,0,0.27,0,0.43
			c0.115,0.012,0.213,0.024,0.307,0.025c0.692,0.017,1.38,0.043,2.069,0.037c0.381-0.001,0.562-0.302,0.701-0.604
			c0.149-0.331,0.282-0.664,0.423-0.998c0.161-0.385,0.305-0.775,0.489-1.152c0.249-0.508,0.34-1.031,0.335-1.6
			c-0.021-2.083-0.008-4.167-0.008-6.25c0-0.134,0-0.269,0-0.426c0.771,0,1.521,0,2.307,0c0,0.17,0,0.324,0,0.479
			c0,2.242-0.004,4.484,0.005,6.727c0,0.173,0.044,0.36,0.121,0.515c0.461,0.917,0.939,1.823,1.414,2.733
			c0.14,0.269,0.357,0.446,0.669,0.448c2.105,0.014,4.21,0.025,6.317,0.036c0.098,0,0.199,0,0.319,0c0-3.63,0-7.237,0-10.865
			c-0.145,0-0.285,0-0.456,0c-0.213,1.081-0.427,2.16-0.639,3.243c-0.212,1.086-0.416,2.172-0.635,3.255
			c-0.172,0.842-0.64,1.245-1.481,1.247c-1.518,0.008-3.032-0.013-4.55-0.021c-0.032,0-0.062-0.015-0.125-0.031
			c0-3.016,0-6.034,0-9.051c-1.331,0-2.627,0-3.924,0c0,2.997,0,5.956,0,8.941c-0.734,0-1.478,0-2.241,0c0-3.625,0-7.253,0-10.911
			c2.732,0,5.442,0,8.168,0c0,3.082,0,6.155,0,9.321c0.566-0.043,1.143-0.08,1.719-0.142c0.079-0.009,0.192-0.136,0.209-0.225
			c0.375-1.89,0.739-3.782,1.107-5.699c-0.435,0-0.847,0-1.36,0c0-0.593-0.009-1.167,0.016-1.737c0.001-0.066,0.2-0.176,0.31-0.176
			c1.179-0.017,2.356-0.013,3.534-0.014c0.122,0,0.248,0,0.392,0c-0.022-0.454-0.043-0.879-0.068-1.338c0.73,0,1.447,0,2.196,0
			c-0.026,0.397-0.052,0.809-0.08,1.259c1.005,0,1.981,0,3.004,0c-0.304,0.669-0.579,1.296-0.876,1.916
			c-0.035,0.07-0.172,0.127-0.263,0.13c-0.53,0.011-1.065,0.004-1.604,0.004c0,3.633,0,7.249,0,10.933c4.706,0,9.372,0,14.064,0
			c0-0.982,0-2.002,0-3.031c-0.846,0-1.68,0.025-2.513-0.011c-0.45-0.017-0.771,0.121-1.049,0.465
			c-0.21,0.265-0.481,0.481-0.7,0.738c-0.171,0.195-0.356,0.265-0.616,0.264c-1.935-0.002-3.868,0.011-5.807,0.021
			c-0.122,0.002-0.244,0-0.397,0c0-0.661-0.007-1.29,0.009-1.924c0.005-0.127,0.088-0.256,0.154-0.369
			c0.57-0.952,1.141-1.897,1.712-2.846c0.033-0.058,0.06-0.115,0.123-0.223c-0.666,0-1.289,0-1.948,0
			c0-0.878-0.001-1.714,0.005-2.55c0.002-0.084,0.049-0.172,0.094-0.251c0.771-1.354,1.544-2.706,2.326-4.055
			c0.053-0.091,0.178-0.195,0.267-0.197c0.812-0.017,1.625-0.01,2.51-0.01c-0.938,1.768-1.85,3.483-2.785,5.25
			c0.363-0.034,0.687-0.055,1.005-0.101c0.076-0.01,0.168-0.097,0.201-0.17c0.18-0.363,0.332-0.744,0.52-1.1
			c0.055-0.102,0.204-0.21,0.312-0.213c0.734-0.019,1.472-0.011,2.27-0.011c-1.208,2.249-2.398,4.461-3.597,6.689
			c0.83,0,1.626,0.005,2.422-0.011c0.092-0.001,0.196-0.098,0.271-0.176c0.328-0.344,0.654-0.69,0.965-1.047
			c0.147-0.168,0.309-0.224,0.529-0.224c2.458,0.007,4.916,0.002,7.372,0.002c0.544,0,1.086,0,1.651,0c0,0.686,0,1.361,0,2.075
			c-0.971,0-1.948,0-2.921,0c0,1.008,0,1.973,0,2.958c0.998,0,1.953,0,2.928,0c0,0.67,0,1.433,0,2.103c-0.109,0.01-0.208,0-0.307,0
			c-9.626,0.009-19.251,0-28.879,0c-0.223,0-0.451,0.053-0.671,0c-0.314-0.07-0.53-0.412-0.648-0.729
			c-0.366-0.959-0.747-1.907-1.147-2.926c-0.215,0.559-0.407,1.049-0.596,1.546c-0.145,0.381-0.283,0.763-0.431,1.139
			c-0.278,0.715-0.662,0.98-1.444,0.971c-1.383-0.014-2.765,0.007-4.142,0c-4.1-0.008-8.2,0-12.301,0c-0.137,0-0.27,0-0.454,0
			c0-6.354,0-12.759,0-19.096C38.32,4.403,42.918,4.403,47.517,4.403z M47.361,7.233c-3.925,0.5-7.79,0.994-11.703,1.492
			c0.387,0.444,0.719,0.861,1.092,1.23c0.206,0.204,0.204,0.379,0.134,0.625c-0.846,2.957-1.685,5.917-2.525,8.875
			c-0.174,0.612-0.346,1.228-0.527,1.87c3.224,0.105,6.401,0.208,9.594,0.311C44.737,16.84,46.041,12.064,47.361,7.233z"/>
		<path fill="#0073C5" d="M15.235,21.595c0.895,0,1.789-0.006,2.683,0c0.351,0.003,0.568,0.076,0.676-0.272
			c0.229-0.716,0.48-1.425,0.737-2.175c-1.343,0-2.639,0-3.983,0c0-1.334,0-2.643,0-3.99c2.394,0,4.821,0,7.273,0
			c0-0.379,0-0.722,0-1.092c-2.425,0-4.843,0-7.291,0c0-0.573,0-1.121,0-1.694c5.548,0,11.101,0,16.678,0
			c0.008,0.08,0.022,0.165,0.022,0.251c0.002,0.849,0.007,1.699,0,2.548c-0.011,1.104-0.583,1.667-1.684,1.669
			c-1.632,0-3.263,0-4.892,0c-0.112,0-0.223,0-0.348,0c0,0.24,0,0.449,0,0.699c2.3,0,4.593,0,6.925,0c0,0.259,0,0.482,0,0.705
			c0,0.953,0.004,1.904,0,2.859c-0.002,0.628-0.181,1.196-0.604,1.678c-0.306,0.351-0.708,0.709-1.156,0.718
			c-1.199,0.03-2.394,0-3.602,0c0-0.604,0-1.316,0-1.904c0.399,0,0.769-0.002,1.139,0c0.565,0.004,1.131-0.004,1.698,0
			c0.206,0.001,0.321-0.102,0.323-0.31c0.003-0.676,0.001-1.354,0.001-2.075c-1.565,0-3.109,0-4.705,0c0,1.397,0,2.843,0,4.289
			c-0.831,0-1.615,0-2.413,0c0-2.2,0-4.419,0-6.637c-1.646,0-3.282,0-4.934,0c-0.025,0.229-0.054,0.452-0.085,0.714
			c1.307,0,2.609,0,3.956,0c-0.105,0.597-0.2,1.15-0.302,1.701c-0.161,0.879-0.326,1.755-0.494,2.628
			c-0.198,1.031-0.856,1.588-1.916,1.599c-1.236,0.01-2.469,0-3.702,0C15.235,22.935,15.235,22.163,15.235,21.595z M25.238,15.142
			c1.395,0,2.76,0.005,4.127-0.013c0.102-0.002,0.278-0.168,0.299-0.279c0.046-0.25,0.014-0.511,0.014-0.778
			c-1.503,0-2.964,0-4.441,0C25.238,14.426,25.238,14.761,25.238,15.142z"/>
		<path fill="#0073C5" d="M15.235,9.771c0.698-0.012,0.789-0.086,0.9-0.768c0.093-0.568,0.179-1.137,0.272-1.73
			c2.379,0,4.761,0,7.167,0c0,0.593,0,1.188,0,1.818c-0.433,0-0.866,0-1.359,0c0.142,0.264,0.249,0.485,0.379,0.688
			c0.056,0.089,0.157,0.167,0.255,0.208c0.869,0.358,1.744-0.183,1.834-1.117c0.05-0.525,0.138-1.046,0.209-1.581
			c2.449,0,4.869,0,7.295,0c0,0.605,0,1.197,0,1.809c-0.565,0-1.094,0-1.627,0c0.076,0.586,0.1,0.602,0.638,0.615
			c0.291,0.008,0.583,0.038,0.893,0.061c0,0.672,0,1.322,0,1.992c-0.084,0.012-0.157,0.028-0.235,0.03
			c-0.667,0.004-1.335,0.014-2.003,0.008c-0.612-0.005-0.997-0.32-1.158-0.896c-0.144-0.521-0.315-1.035-0.455-1.558
			c-0.048-0.185-0.121-0.255-0.321-0.255c-0.755,0-0.752-0.009-1.006,0.725c-0.169,0.489-0.352,0.975-0.526,1.461
			c-0.125,0.35-0.373,0.539-0.739,0.543c-1.289,0.02-2.582,0.034-3.871,0.042c-0.304,0.001-0.612-0.001-0.913-0.04
			c-0.5-0.063-0.805-0.369-0.945-0.847c-0.155-0.519-0.309-1.041-0.486-1.551c-0.033-0.097-0.162-0.21-0.26-0.226
			c-0.175-0.028-0.375-0.072-0.476,0.185c-0.189,0.471-0.406,0.931-0.618,1.393c-0.325,0.708-0.848,1.085-1.658,1.025
			c-0.393-0.032-0.791,0.002-1.187,0.009C15.235,11.133,15.235,10.451,15.235,9.771z"/>
		<path fill="#0073C5" d="M54.015,27.855c0.174,0.13,0.413,0.269,0.596,0.461c0.126,0.134,0.223,0.338,0.241,0.521
			c0.037,0.347,0.018,0.702,0.011,1.052c-0.012,0.575-0.374,0.984-0.942,0.987c-2.501,0.012-5.003,0.003-7.501,0
			c-0.009,0-0.019,0.042-0.072,0c0-1.89,0-3.875,0-5.84c0.387,0,0.78-0.003,1.172,0c1.901,0.006,3.8,0.013,5.701,0.021
			c0.849,0.002,1.367,0.517,1.365,1.362c-0.002,0.25,0.03,0.521-0.059,0.736C54.419,27.412,54.195,27.619,54.015,27.855z
			 M47.743,27.266c0.06,0.011,0.104,0.022,0.147,0.022c1.551,0,3.102,0.002,4.652-0.004c0.119,0,0.25-0.028,0.358-0.08
			c0.322-0.15,0.356-0.45,0.063-0.662c-0.107-0.078-0.269-0.116-0.405-0.116c-1.539-0.008-3.078-0.007-4.617-0.006
			c-0.064,0-0.132,0.014-0.2,0.019C47.743,26.727,47.743,26.991,47.743,27.266z M48.198,28.685c-0.108,0-0.215,0-0.325,0
			c0,0.283,0,0.519,0,0.788c1.7,0,3.361,0,5.021-0.001c0.044,0,0.106,0.011,0.132-0.016c0.116-0.115,0.303-0.24,0.312-0.371
			c0.004-0.114-0.172-0.269-0.301-0.354c-0.092-0.06-0.239-0.044-0.364-0.044L48.198,28.685z"/>
		<path fill="#0073C5" d="M77.63,31.165c-0.609,0-1.211,0-1.806,0c-0.008-0.112,0,0.098,0,0c-0.002-1.517,0.036-3.338,0-4.856
			c-0.018-0.763,0.662-1.679,1.822-1.621c0.649,0.031,1.123,0.336,1.53,0.819c0.964,1.149,1.938,2.296,2.911,3.441
			c0.058,0.07,0.111,0.156,0.187,0.192c0.125,0.061,0.276,0.132,0.397,0.11c0.062-0.013,0.123-0.224,0.123-0.341
			c0.008-1.235,0-3.927,0-4.059c0.616,0,1.216,0,1.856,0c0,0.114,0,3.298,0,4.771c0,0.79-0.418,1.485-1.081,1.674
			c-0.757,0.219-1.53,0.129-2.091-0.592c-1.035-1.328-2.131-2.608-3.22-3.894c-0.096-0.112-0.312-0.188-0.453-0.166
			c-0.081,0.012-0.171,0.267-0.172,0.412C77.626,28.414,77.63,29.771,77.63,31.165z"/>
		<path fill="#0073C5" d="M25.146,29.375c0,0.511,0,0.982,0,1.524c-0.428,0-4.901-0.006-6.724,0c-0.75,0.004-1.43-0.182-1.96-0.751
			c-0.31-0.334-0.445-0.729-0.447-1.177c-0.002-0.78-0.013-1.56,0.003-2.343c0.017-0.874,0.949-1.767,1.826-1.771
			c1.688-0.004,3.375-0.002,5.063-0.004c0.721,0,1.443,0,2.197,0c0,0.451,0,0.944,0,1.424c-0.116,0.007-4.028-0.007-5.872,0
			c-0.859,0.003-1.266,0.407-1.266,1.263c0,0.282,0,0.565,0,0.849c0.005,0.578,0.348,0.979,0.93,0.986
			C19.997,29.394,24.137,29.375,25.146,29.375z"/>
	</g>
</g>
</svg>
