<?xml version="1.0" encoding="utf-8"?>
<!-- Generator: Adobe Illustrator 16.0.0, SVG Export Plug-In . SVG Version: 6.00 Build 0)  -->
<!DOCTYPE svg PUBLIC "-//W3C//DTD SVG 1.1//EN" "http://www.w3.org/Graphics/SVG/1.1/DTD/svg11.dtd">
<svg version="1.1" id="图层_1" xmlns="http://www.w3.org/2000/svg" xmlns:xlink="http://www.w3.org/1999/xlink" x="0px" y="0px"
	 width="100px" height="35.801px" viewBox="0 0 100 35.801" enable-background="new 0 0 100 35.801" xml:space="preserve">
<g>
	<rect fill-rule="evenodd" clip-rule="evenodd" fill="#FFFFFF" width="100" height="35.801"/>
	<g>
		<defs>
			<path id="SVGID_1_" d="M15.002,25.996v0.639H14.51v0.975h0.492v1.22c0,0.388,0.038,0.671,0.113,0.843
				c0.074,0.174,0.192,0.3,0.349,0.385c0.156,0.084,0.402,0.128,0.735,0.128c0.286,0,0.594-0.036,0.925-0.108l-0.098-0.918
				c-0.179,0.057-0.314,0.085-0.415,0.085c-0.109,0-0.185-0.036-0.229-0.11c-0.028-0.049-0.043-0.146-0.043-0.294v-1.229h0.735
				v-0.975h-0.735v-1.32L15.002,25.996z"/>
		</defs>
		<clipPath id="SVGID_2_">
			<use xlink:href="#SVGID_1_"  overflow="visible"/>
		</clipPath>
		<rect x="11.861" y="22.666" clip-path="url(#SVGID_2_)" fill="#090708" width="7.912" height="10.166"/>
	</g>
	<g>
		<defs>
			<path id="SVGID_3_" d="M21.008,27.596c0.128-0.167,0.294-0.252,0.509-0.252c0.183,0,0.331,0.057,0.444,0.166
				c0.111,0.113,0.18,0.297,0.207,0.553h-1.315C20.876,27.855,20.926,27.699,21.008,27.596 M20.015,27.06
				c-0.35,0.334-0.524,0.773-0.524,1.317c0,0.383,0.089,0.713,0.262,0.996c0.175,0.281,0.396,0.488,0.658,0.619
				c0.265,0.127,0.627,0.192,1.09,0.192c0.53,0,0.939-0.075,1.224-0.226c0.285-0.154,0.526-0.403,0.728-0.752l-1.316-0.12
				c-0.083,0.103-0.161,0.177-0.232,0.218c-0.118,0.066-0.243,0.098-0.374,0.098c-0.206,0-0.374-0.074-0.506-0.225
				c-0.092-0.104-0.149-0.264-0.173-0.477h2.678v-0.15c0-0.457-0.076-0.83-0.227-1.115c-0.152-0.285-0.371-0.504-0.66-0.654
				c-0.287-0.149-0.682-0.226-1.181-0.226C20.847,26.556,20.364,26.724,20.015,27.06"/>
		</defs>
		<clipPath id="SVGID_4_">
			<use xlink:href="#SVGID_3_"  overflow="visible"/>
		</clipPath>
		<rect x="16.843" y="23.908" clip-path="url(#SVGID_4_)" fill="#090708" width="9.332" height="8.924"/>
	</g>
	<g>
		<defs>
			<path id="SVGID_5_" d="M26.958,26.717c-0.164,0.068-0.324,0.17-0.48,0.308c-0.154,0.138-0.277,0.294-0.367,0.47
				c-0.122,0.235-0.184,0.533-0.184,0.891c0,0.343,0.051,0.615,0.151,0.822c0.101,0.205,0.24,0.387,0.416,0.542
				c0.178,0.153,0.39,0.267,0.636,0.333c0.246,0.067,0.552,0.103,0.923,0.103c0.381,0,0.698-0.054,0.946-0.159
				c0.248-0.108,0.451-0.257,0.612-0.449c0.158-0.193,0.274-0.423,0.344-0.688l-1.269-0.143c-0.06,0.185-0.149,0.322-0.268,0.414
				c-0.118,0.086-0.267,0.133-0.441,0.133c-0.209,0-0.382-0.076-0.519-0.223s-0.204-0.363-0.204-0.648
				c0-0.321,0.067-0.559,0.206-0.717c0.136-0.158,0.315-0.236,0.537-0.236c0.173,0,0.314,0.038,0.417,0.111
				c0.104,0.076,0.177,0.188,0.215,0.336l1.258-0.168c-0.122-0.388-0.331-0.686-0.629-0.887c-0.3-0.205-0.732-0.306-1.301-0.306
				C27.551,26.556,27.218,26.609,26.958,26.717"/>
		</defs>
		<clipPath id="SVGID_6_">
			<use xlink:href="#SVGID_5_"  overflow="visible"/>
		</clipPath>
		<rect x="23.279" y="23.908" clip-path="url(#SVGID_6_)" fill="#090708" width="9.324" height="8.924"/>
	</g>
	<g>
		<defs>
			<path id="SVGID_7_" d="M32.402,25.314v4.792h1.335v-1.669c0-0.315,0.052-0.533,0.149-0.656c0.102-0.123,0.233-0.185,0.395-0.185
				c0.146,0,0.261,0.048,0.343,0.136c0.078,0.094,0.12,0.246,0.12,0.465v1.909h1.342v-2.207c0-0.456-0.104-0.792-0.312-1.013
				c-0.21-0.222-0.496-0.331-0.858-0.331c-0.246,0-0.457,0.042-0.637,0.121c-0.18,0.08-0.359,0.216-0.541,0.401v-1.764H32.402z"/>
		</defs>
		<clipPath id="SVGID_8_">
			<use xlink:href="#SVGID_7_"  overflow="visible"/>
		</clipPath>
		<rect x="29.754" y="22.666" clip-path="url(#SVGID_8_)" fill="#090708" width="8.979" height="10.09"/>
	</g>
	<g>
		<defs>
			<path id="SVGID_9_" d="M44.811,25.231c-0.141,0.303-0.337,0.556-0.59,0.759c-0.251,0.206-0.604,0.383-1.062,0.529v1.09
				c0.31-0.094,0.567-0.192,0.771-0.295c0.204-0.104,0.416-0.236,0.635-0.401v3.193h1.353v-4.875H44.811z"/>
		</defs>
		<clipPath id="SVGID_10_">
			<use xlink:href="#SVGID_9_"  overflow="visible"/>
		</clipPath>
		<rect x="40.512" y="22.584" clip-path="url(#SVGID_10_)" fill="#090708" width="8.053" height="10.172"/>
	</g>
	<g>
		<defs>
			<path id="SVGID_11_" d="M50.922,29.137c-0.132-0.146-0.198-0.35-0.198-0.609c0-0.256,0.063-0.451,0.189-0.588
				c0.125-0.137,0.281-0.208,0.468-0.208c0.181,0,0.332,0.071,0.453,0.214c0.125,0.141,0.187,0.348,0.187,0.617
				c0,0.264-0.06,0.463-0.176,0.598c-0.12,0.131-0.267,0.196-0.441,0.196C51.214,29.356,51.053,29.285,50.922,29.137 M49.872,25.837
				c-0.366,0.401-0.547,1.034-0.547,1.899c0,0.592,0.084,1.064,0.261,1.424c0.173,0.359,0.405,0.619,0.697,0.781
				c0.289,0.165,0.675,0.246,1.157,0.246c0.4,0,0.731-0.066,0.998-0.199c0.266-0.137,0.474-0.334,0.623-0.596
				c0.15-0.261,0.225-0.549,0.225-0.865c0-0.469-0.147-0.854-0.443-1.16c-0.298-0.305-0.661-0.457-1.088-0.457
				c-0.222,0-0.416,0.038-0.584,0.114c-0.17,0.078-0.333,0.198-0.492,0.359c0.041-0.516,0.106-0.852,0.192-1.008
				c0.122-0.216,0.29-0.326,0.506-0.326c0.121,0,0.222,0.038,0.305,0.114c0.081,0.075,0.14,0.209,0.175,0.392l1.328-0.161
				c-0.076-0.258-0.188-0.471-0.334-0.643c-0.147-0.171-0.331-0.299-0.554-0.386c-0.22-0.088-0.523-0.135-0.906-0.135
				C50.743,25.231,50.238,25.435,49.872,25.837"/>
		</defs>
		<clipPath id="SVGID_12_">
			<use xlink:href="#SVGID_11_"  overflow="visible"/>
		</clipPath>
		<rect x="46.676" y="22.584" clip-path="url(#SVGID_12_)" fill="#090708" width="9.259" height="10.252"/>
	</g>
	<g>
		<defs>
			<path id="SVGID_13_" d="M56.383,25.555c-0.297,0.213-0.498,0.52-0.604,0.921l1.263,0.226c0.035-0.238,0.102-0.405,0.201-0.5
				c0.097-0.095,0.225-0.141,0.383-0.141c0.152,0,0.272,0.045,0.36,0.129c0.087,0.088,0.132,0.205,0.132,0.352
				c0,0.15-0.061,0.283-0.177,0.396c-0.116,0.108-0.263,0.166-0.438,0.166c-0.041,0-0.1-0.005-0.174-0.017l-0.068,0.949
				c0.185-0.051,0.327-0.078,0.432-0.078c0.198,0,0.354,0.062,0.468,0.186c0.115,0.123,0.173,0.293,0.173,0.516
				c0,0.217-0.06,0.393-0.18,0.523c-0.119,0.13-0.268,0.195-0.447,0.195c-0.17,0-0.311-0.053-0.421-0.155
				c-0.111-0.104-0.192-0.29-0.244-0.558l-1.336,0.177c0.089,0.3,0.213,0.546,0.376,0.745c0.163,0.196,0.369,0.346,0.624,0.449
				c0.253,0.104,0.597,0.152,1.034,0.152c0.449,0,0.811-0.069,1.086-0.206c0.274-0.14,0.486-0.339,0.632-0.592
				c0.146-0.257,0.22-0.524,0.22-0.804c0-0.225-0.045-0.414-0.133-0.574c-0.088-0.159-0.211-0.289-0.371-0.387
				c-0.1-0.061-0.241-0.115-0.426-0.16c0.229-0.126,0.401-0.273,0.514-0.44c0.115-0.168,0.172-0.356,0.172-0.563
				c0-0.352-0.14-0.646-0.421-0.88c-0.279-0.233-0.733-0.35-1.362-0.35C57.106,25.231,56.683,25.338,56.383,25.555"/>
		</defs>
		<clipPath id="SVGID_14_">
			<use xlink:href="#SVGID_13_"  overflow="visible"/>
		</clipPath>
		<rect x="53.057" y="22.584" clip-path="url(#SVGID_14_)" fill="#090708" width="9.271" height="10.252"/>
	</g>
	<g>
		<defs>
			<path id="SVGID_15_" d="M67.356,26.717c-0.162,0.068-0.32,0.17-0.479,0.308c-0.154,0.138-0.277,0.294-0.366,0.47
				c-0.123,0.235-0.185,0.533-0.185,0.891c0,0.343,0.052,0.615,0.151,0.822c0.1,0.205,0.239,0.387,0.418,0.542
				c0.175,0.153,0.387,0.267,0.634,0.333c0.246,0.067,0.554,0.103,0.923,0.103c0.383,0,0.698-0.054,0.946-0.159
				c0.248-0.108,0.452-0.257,0.61-0.449c0.161-0.193,0.276-0.423,0.346-0.688l-1.271-0.143c-0.057,0.185-0.146,0.322-0.267,0.414
				c-0.117,0.086-0.266,0.133-0.44,0.133c-0.211,0-0.383-0.076-0.519-0.223c-0.137-0.146-0.205-0.363-0.205-0.648
				c0-0.321,0.07-0.559,0.206-0.717c0.137-0.158,0.316-0.236,0.538-0.236c0.174,0,0.313,0.038,0.417,0.111
				c0.104,0.076,0.177,0.188,0.215,0.336l1.256-0.168c-0.12-0.388-0.33-0.686-0.629-0.887c-0.298-0.205-0.73-0.306-1.299-0.306
				C67.95,26.556,67.618,26.609,67.356,26.717"/>
		</defs>
		<clipPath id="SVGID_16_">
			<use xlink:href="#SVGID_15_"  overflow="visible"/>
		</clipPath>
		<rect x="63.68" y="23.908" clip-path="url(#SVGID_16_)" fill="#090708" width="9.323" height="8.924"/>
	</g>
	<g>
		<defs>
			<path id="SVGID_17_" d="M74.279,29.062c-0.125-0.148-0.188-0.377-0.188-0.686c0-0.307,0.063-0.534,0.189-0.682
				c0.129-0.15,0.288-0.224,0.484-0.224c0.183,0,0.338,0.073,0.461,0.22c0.126,0.148,0.188,0.371,0.188,0.674
				c0,0.32-0.062,0.555-0.185,0.701s-0.282,0.219-0.476,0.219C74.563,29.285,74.405,29.211,74.279,29.062 M73.289,27.071
				c-0.357,0.345-0.537,0.778-0.537,1.309c0,0.571,0.213,1.03,0.638,1.379c0.344,0.284,0.798,0.426,1.358,0.426
				c0.627,0,1.117-0.169,1.474-0.513c0.355-0.34,0.534-0.777,0.534-1.313c0-0.472-0.144-0.872-0.432-1.197
				c-0.355-0.404-0.883-0.605-1.581-0.605C74.135,26.556,73.648,26.729,73.289,27.071"/>
		</defs>
		<clipPath id="SVGID_18_">
			<use xlink:href="#SVGID_17_"  overflow="visible"/>
		</clipPath>
		<rect x="70.104" y="23.908" clip-path="url(#SVGID_18_)" fill="#090708" width="9.299" height="8.924"/>
	</g>
	<g>
		<defs>
			<path id="SVGID_19_" d="M83.439,26.679c-0.173,0.083-0.364,0.235-0.573,0.462c-0.104-0.192-0.236-0.339-0.397-0.438
				c-0.161-0.098-0.383-0.147-0.66-0.147c-0.26,0-0.479,0.045-0.662,0.135c-0.185,0.091-0.364,0.239-0.544,0.45v-0.506h-1.247v3.472
				h1.339v-1.771c0-0.267,0.05-0.456,0.147-0.569c0.1-0.115,0.225-0.172,0.379-0.172c0.095,0,0.177,0.024,0.248,0.08
				c0.07,0.053,0.118,0.124,0.146,0.209c0.019,0.057,0.026,0.158,0.026,0.309v1.915h1.339v-1.792c0-0.25,0.049-0.432,0.144-0.545
				c0.097-0.113,0.223-0.173,0.381-0.173c0.133,0,0.242,0.062,0.332,0.181c0.063,0.078,0.092,0.193,0.092,0.35v1.979h1.339v-2.181
				c0-0.471-0.104-0.816-0.316-1.039c-0.209-0.22-0.5-0.331-0.873-0.331C83.825,26.556,83.611,26.599,83.439,26.679"/>
		</defs>
		<clipPath id="SVGID_20_">
			<use xlink:href="#SVGID_19_"  overflow="visible"/>
		</clipPath>
		<rect x="76.709" y="23.908" clip-path="url(#SVGID_20_)" fill="#090708" width="11.206" height="8.846"/>
	</g>
	<g>
		<defs>
			<rect id="SVGID_21_" x="39.003" y="28.186" width="1.093" height="1.021"/>
		</defs>
		<clipPath id="SVGID_22_">
			<use xlink:href="#SVGID_21_"  overflow="visible"/>
		</clipPath>
		<rect x="36.354" y="25.536" clip-path="url(#SVGID_22_)" fill="#090708" width="6.392" height="6.318"/>
	</g>
	<g>
		<defs>
			<rect id="SVGID_23_" x="62.584" y="28.186" width="1.092" height="1.021"/>
		</defs>
		<clipPath id="SVGID_24_">
			<use xlink:href="#SVGID_23_"  overflow="visible"/>
		</clipPath>
		<rect x="59.935" y="25.536" clip-path="url(#SVGID_24_)" fill="#090708" width="6.39" height="6.318"/>
	</g>
	<g>
		<defs>
			<path id="SVGID_25_" d="M26.993,16.904c-0.08,0.045-0.215,0.072-0.404,0.084c-0.204,0.011-0.351,0.029-0.44,0.051
				c-0.08,0.033-0.187,0.062-0.321,0.086c-0.18,0.009-0.331,0.094-0.455,0.252c-0.078,0.145-0.123,0.279-0.135,0.404
				c0.012,0.178,0.095,0.318,0.253,0.418c0.304,0.08,0.557,0.084,0.76,0.019c0.066-0.033,0.146-0.052,0.236-0.052
				c0.078,0,0.151-0.003,0.22-0.016c0.011-0.011,0.072-0.006,0.186,0.016c0.383,0.047,0.679,0,0.894-0.135
				c0.168-0.1,0.248-0.281,0.236-0.539c-0.033-0.235-0.146-0.402-0.336-0.504c-0.15-0.084-0.298-0.127-0.442-0.127
				C27.158,16.861,27.075,16.876,26.993,16.904 M17.758,16.736c-0.045,0.047-0.1,0.08-0.168,0.104c-0.045,0-0.1,0.088-0.166,0.268
				c-0.049,0.381-0.087,0.65-0.12,0.807c-0.035,0.203-0.005,0.605,0.083,1.211c-0.012,0.169,0.063,0.365,0.22,0.588
				c0.113,0.213,0.227,0.314,0.339,0.303c0.111,0,0.24-0.076,0.386-0.234c0.08-0.111,0.13-0.218,0.153-0.319
				c0.012-0.078,0.023-0.196,0.035-0.354c0.109-0.246,0.158-0.479,0.135-0.705c-0.068-0.248-0.097-0.516-0.083-0.809
				c0.01-0.166-0.014-0.352-0.07-0.555c-0.068-0.145-0.18-0.246-0.338-0.303c-0.117-0.04-0.211-0.061-0.277-0.061
				C17.817,16.676,17.776,16.696,17.758,16.736 M15.97,16.383c-0.203,0.068-0.343,0.258-0.423,0.572
				c-0.043,0.135-0.133,0.27-0.269,0.402c-0.238,0.281-0.354,0.602-0.354,0.961c-0.033,0.247-0.097,0.459-0.187,0.639
				c-0.068,0.234-0.073,0.465-0.017,0.689c0.045,0.201,0.163,0.33,0.354,0.387c0.203,0.046,0.371,0.022,0.506-0.065
				c0.134-0.068,0.23-0.215,0.287-0.438c0.068-0.214,0.14-0.405,0.22-0.573c0.135-0.146,0.243-0.314,0.322-0.504
				c0.077-0.18,0.089-0.377,0.032-0.59c-0.01-0.213-0.005-0.42,0.017-0.621c0.102-0.279,0.102-0.506,0-0.674
				c-0.102-0.137-0.222-0.205-0.359-0.205C16.06,16.363,16.015,16.37,15.97,16.383 M19.532,16.166
				c-0.035,0.068-0.081,0.123-0.135,0.168c-0.045,0.012-0.08,0.116-0.103,0.318c0.034,0.18,0.051,0.311,0.051,0.387
				c0,0.102,0.062,0.285,0.187,0.555c0.031,0.18,0.166,0.359,0.404,0.539c0.182,0.178,0.326,0.246,0.439,0.203
				c0.111-0.033,0.219-0.152,0.32-0.353c0.045-0.146,0.062-0.271,0.05-0.372c-0.012-0.1-0.033-0.225-0.067-0.369
				c0.011-0.078,0.011-0.152,0-0.221c-0.032-0.066-0.057-0.146-0.067-0.235c-0.034-0.168-0.112-0.341-0.235-0.519
				c-0.113-0.148-0.258-0.221-0.439-0.221c-0.026,0-0.052-0.001-0.076-0.001C19.66,16.046,19.553,16.086,19.532,16.166
				 M24.005,9.167c-0.033,0.068-0.08,0.118-0.137,0.151c-0.042,0.012-0.071,0.113-0.083,0.305c0.031,0.18,0.05,0.301,0.05,0.369
				c0.012,0.102,0.075,0.281,0.187,0.539c0.033,0.168,0.169,0.33,0.405,0.486c0.168,0.17,0.305,0.229,0.406,0.188
				c0.109-0.037,0.206-0.146,0.286-0.338c0.045-0.146,0.062-0.265,0.05-0.354c-0.01-0.077-0.035-0.196-0.068-0.353
				c0.012-0.078,0.012-0.146,0-0.203c-0.031-0.066-0.062-0.14-0.083-0.217c-0.033-0.169-0.106-0.337-0.22-0.505
				c-0.113-0.113-0.253-0.173-0.423-0.187c-0.022,0-0.048-0.002-0.069-0.002C24.116,9.047,24.015,9.088,24.005,9.167 M22.941,13.943
				c0.045-0.135,0.072-0.311,0.084-0.537c0.033-0.08,0.079-0.146,0.135-0.203c0.045-0.078,0.129-0.156,0.254-0.232
				c0.012-0.012,0.045-0.029,0.102-0.052c0.111,0,0.236-0.011,0.371-0.033c0.113-0.012,0.265-0.067,0.455-0.168h0.019
				c0.166,0.033,0.314,0.09,0.438,0.168c0.045,0.012,0.083,0.038,0.118,0.085v0.201v0.218c0.033,0.102,0.047,0.213,0.033,0.336
				c-0.01,0.034-0.017,0.067-0.017,0.102c-0.08,0.068-0.196,0.146-0.354,0.234h-0.033c-0.113-0.033-0.232-0.033-0.354,0
				c-0.136,0.035-0.266,0.035-0.389,0c-0.113-0.011-0.258,0.017-0.439,0.085c-0.214,0.045-0.381,0.14-0.504,0.286
				C22.846,14.253,22.874,14.092,22.941,13.943 M24.427,8.174c0.451-0.213,0.917-0.261,1.4-0.149
				c0.371,0.079,0.669,0.085,0.896,0.017c0.417-0.146,0.935,0.05,1.553,0.589c0.248,0.279,0.388,0.579,0.423,0.892
				c0.01,0.381-0.002,0.666-0.035,0.857c-0.043,0.18-0.062,0.393-0.05,0.639v0.234c-0.045,0.068-0.102,0.135-0.17,0.202
				c-0.033,0.013-0.06,0.036-0.085,0.069c-0.01-0.014-0.026-0.018-0.048-0.018c-0.17,0.012-0.357,0.004-0.558-0.016
				c-0.214-0.036-0.396-0.047-0.54-0.036c-0.014-0.032-0.023-0.05-0.035-0.05c-0.033-0.043-0.066-0.084-0.103-0.117
				c0.013-0.066,0.024-0.129,0.036-0.186c0.01-0.279,0.078-0.492,0.201-0.639c0.113-0.133,0.203-0.281,0.271-0.438
				c0.045-0.145,0.083-0.309,0.118-0.487c0.01-0.235-0.028-0.449-0.118-0.639c-0.078-0.146-0.182-0.236-0.307-0.27
				c-0.133-0.033-0.312,0.038-0.538,0.216c-0.202,0.148-0.305,0.35-0.305,0.609c-0.01,0.135-0.062,0.303-0.151,0.502
				c-0.012,0.08-0.012,0.186,0,0.319c0.033,0.181,0.052,0.321,0.052,0.423c-0.033,0.146-0.073,0.258-0.12,0.336
				c-0.043,0.045-0.073,0.105-0.083,0.186c-0.045,0.043-0.085,0.088-0.12,0.133c-0.043,0.045-0.123,0.101-0.234,0.17h-0.017
				c-0.282-0.014-0.483,0.004-0.608,0.051c-0.113,0.078-0.258,0.105-0.438,0.084c-0.148-0.035-0.295-0.027-0.44,0.016
				c-0.18,0.035-0.35,0.035-0.506,0c-0.113-0.01-0.241,0.006-0.39,0.051c-0.01-0.014-0.028-0.027-0.048-0.051
				c-0.148-0.1-0.322-0.234-0.524-0.402l-0.034-0.02v-0.031c-0.135-0.216-0.191-0.494-0.168-0.842
				c-0.012-0.146-0.045-0.398-0.102-0.756c-0.012-0.148,0.078-0.411,0.27-0.791c0.012-0.046,0.021-0.079,0.034-0.103
				c0.146-0.111,0.409-0.246,0.792-0.403c0.012-0.011,0.04-0.022,0.085-0.032c0.078-0.011,0.168-0.011,0.271,0
				c0.01,0,0.021,0.001,0.033,0.001C24.091,8.295,24.235,8.258,24.427,8.174 M25.219,6.947c-0.1,0.046-0.183,0.062-0.251,0.051
				c-0.115-0.031-0.288,0.006-0.524,0.118c-0.102,0.033-0.241,0.028-0.422-0.019c-0.246-0.043-0.501-0.021-0.761,0.068
				c-0.133,0.012-0.235,0.017-0.304,0.017c-0.111-0.01-0.189-0.01-0.236,0c-0.01,0-0.01,0.007,0,0.017
				c-0.201-0.145-0.433-0.149-0.692-0.017c-0.168,0.079-0.348,0.343-0.538,0.792c-0.205,0.381-0.276,0.802-0.22,1.261
				c0.012,0.448,0.118,0.818,0.321,1.107c0.145,0.203,0.235,0.485,0.269,0.843c0.045,0.617,0.057,1.031,0.033,1.246
				c-0.033,0.236-0.026,0.492,0.019,0.771c0.01,0.168-0.012,0.338-0.068,0.506c-0.012,0.076-0.028,0.213-0.05,0.402
				c0.078,0.248,0.066,0.499-0.034,0.759c-0.18,0.414-0.27,0.847-0.27,1.296c0,0.111-0.035,0.24-0.102,0.387
				c-0.045,0.201-0.118,0.43-0.22,0.689c-0.045,0.043-0.08,0.127-0.102,0.25c0,0.146-0.097,0.334-0.288,0.557
				c-0.111,0.18-0.207,0.314-0.286,0.404c-0.044,0.112-0.089,0.24-0.134,0.385c-0.012,0.146,0,0.293,0.033,0.438
				c0.045,0.146,0.14,0.276,0.286,0.388c0.169,0.079,0.327,0.113,0.474,0.102c0.168-0.033,0.353-0.135,0.557-0.303
				c0.134-0.146,0.229-0.304,0.286-0.471c0.047-0.246,0.153-0.579,0.321-0.995c0.047-0.143,0.066-0.256,0.066-0.334
				c0-0.135,0.028-0.264,0.085-0.387c0.047-0.111,0.068-0.22,0.068-0.32c-0.012-0.102,0-0.191,0.035-0.27
				c0.01-0.101,0.021-0.202,0.033-0.303c-0.012-0.133,0.021-0.292,0.1-0.47c0.047-0.215,0.068-0.393,0.068-0.538
				c-0.011-0.034-0.017-0.062-0.017-0.084c0.066,0.045,0.151,0.095,0.253,0.151c0.078,0.01,0.169,0.017,0.271,0.017
				c0.033,0.033,0.066,0.083,0.1,0.149c0.035,0.045,0.062,0.108,0.085,0.187v0.135c-0.012,0.1-0.028,0.218-0.05,0.354
				c-0.035,0.279-0.007,0.648,0.083,1.109c0.113,0.348,0.286,0.557,0.524,0.624c0.102,0.032,0.186,0.06,0.253,0.083
				c0.067,0.01,0.146,0.01,0.235,0c0.148-0.068,0.255-0.186,0.323-0.352c0.078-0.17,0.045-0.299-0.102-0.391
				c-0.035-0.043-0.063-0.101-0.085-0.168c-0.047-0.1-0.068-0.219-0.068-0.35v-0.356c-0.012-0.077-0.005-0.179,0.017-0.302
				c0.102-0.28,0.135-0.504,0.102-0.673l-0.017-0.017c0.168-0.111,0.484-0.246,0.945-0.402h0.017c0.181,0.043,0.37,0.036,0.573-0.02
				c0.271-0.043,0.529-0.032,0.778,0.034c0.348,0.113,0.657,0.118,0.928,0.019c0.235-0.113,0.35-0.27,0.338-0.471
				c0-0.234-0.097-0.418-0.287-0.541c-0.17-0.111-0.343-0.173-0.522-0.184c-0.172,0.011-0.361,0.011-0.574,0
				c-0.203-0.032-0.379-0.045-0.523-0.032l-0.035-0.036c-0.111-0.077-0.213-0.172-0.305-0.283c0-0.035,0.007-0.057,0.019-0.068
				c0.033-0.078,0.045-0.161,0.033-0.254c-0.012-0.145-0.017-0.278-0.017-0.402c0-0.011-0.005-0.029-0.017-0.051
				c0.045-0.043,0.102-0.078,0.168-0.102c0.045-0.031,0.13-0.061,0.253-0.083c0.113,0,0.244-0.017,0.389-0.052
				c0.35-0.066,0.699-0.049,1.048,0.052c0.033,0.012,0.061,0.022,0.084,0.034c0.067,0.045,0.169,0.134,0.304,0.269
				c0.078,0.045,0.168,0.123,0.27,0.235c0.012,0.202,0.033,0.37,0.068,0.505c0.033,0.246,0.021,0.481-0.035,0.705
				c-0.043,0.17-0.055,0.399-0.033,0.69c0.012,0.246,0.012,0.433,0,0.554c-0.01,0.113-0.01,0.237,0,0.371
				c0.08,0.483,0.09,0.976,0.033,1.479c-0.033,0.169-0.005,0.423,0.085,0.76c0.033,0.134,0.033,0.261,0,0.386
				c-0.033,0.102-0.033,0.197,0,0.287c0.045,0.101,0.063,0.217,0.052,0.354c-0.012,0.143,0.057,0.336,0.201,0.57
				c0.137,0.182,0.298,0.274,0.49,0.286c0.213,0,0.406-0.073,0.572-0.218c0.047-0.047,0.092-0.13,0.137-0.253
				c0.01-0.078,0.045-0.18,0.102-0.303c0.045-0.169,0.038-0.392-0.017-0.672c-0.066-0.235-0.113-0.516-0.135-0.841
				c-0.012-0.404-0.125-0.932-0.338-1.58c-0.113-0.248-0.137-0.631-0.069-1.145c0.046-0.305,0.029-0.669-0.051-1.095
				c-0.043-0.18-0.043-0.353,0-0.521c0.047-0.203,0.051-0.376,0.019-0.521c-0.045-0.181-0.052-0.319-0.019-0.423
				c0.08-0.18,0.12-0.408,0.12-0.688c-0.035-0.416-0.019-0.814,0.05-1.195c0.035-0.145,0.035-0.27,0-0.372
				c-0.033-0.1-0.021-0.216,0.035-0.353c0.031-0.043,0.055-0.127,0.066-0.251c0.01-0.112,0.057-0.213,0.135-0.303
				c0.081-0.067,0.135-0.175,0.17-0.321c0.045-0.209,0.045-0.412,0-0.605c-0.102-0.346-0.295-0.599-0.576-0.755
				c-0.168-0.078-0.28-0.18-0.336-0.303c-0.046-0.079-0.141-0.156-0.287-0.237c-0.111-0.044-0.258-0.062-0.439-0.051
				c-0.135,0.012-0.265-0.021-0.389-0.1c-0.077-0.068-0.179-0.102-0.303-0.102c-0.101,0.014-0.231,0.007-0.388-0.016
				c-0.248-0.045-0.548-0.039-0.895,0.016c-0.215,0.047-0.43,0.04-0.641-0.016c-0.076-0.025-0.158-0.037-0.241-0.037
				C25.546,6.844,25.39,6.877,25.219,6.947 M17.642,14.601c-0.068-0.045-0.187-0.073-0.356-0.083c-0.133,0-0.263-0.035-0.388-0.1
				c-0.168-0.184-0.274-0.373-0.319-0.574c-0.012-0.111,0.057-0.234,0.203-0.369c0.111-0.104,0.18-0.248,0.201-0.438
				c0.012-0.137,0.09-0.25,0.236-0.338c0.213-0.135,0.366-0.307,0.456-0.52c0.045-0.146,0.146-0.232,0.304-0.254
				c0.18-0.012,0.313-0.057,0.404-0.136c0-0.009,0.007-0.015,0.017-0.015c0.172,0.045,0.316,0.1,0.439,0.168
				c0.035,0.033,0.057,0.068,0.068,0.1c0.01,0.035,0.04,0.074,0.085,0.119c0.078,0.076,0.14,0.18,0.185,0.303
				c0.034,0.1,0.062,0.17,0.085,0.203c0.079,0.078,0.129,0.218,0.15,0.419c0.012,0.213-0.01,0.393-0.066,0.539
				c-0.045,0.111-0.067,0.27-0.067,0.471v0.032c-0.135,0.18-0.305,0.315-0.508,0.405c-0.199,0.076-0.364,0.104-0.489,0.085
				c-0.078-0.035-0.196-0.023-0.354,0.033c-0.027,0.008-0.054,0.015-0.084,0.015C17.784,14.667,17.716,14.646,17.642,14.601
				 M17.59,5.955c-0.066,0.047-0.151,0.066-0.253,0.066c-0.102-0.01-0.243,0.146-0.423,0.473c-0.066,0.133-0.133,0.213-0.201,0.236
				c-0.078,0.043-0.135,0.116-0.169,0.217c-0.011,0.079-0.05,0.139-0.118,0.186c-0.078,0.066-0.142,0.145-0.187,0.236
				c-0.035,0.111-0.073,0.185-0.118,0.218C16.055,7.653,15.915,7.89,15.7,8.294C15.52,8.64,15.43,8.869,15.43,8.982
				c0.012,0.08-0.022,0.151-0.102,0.22c-0.066,0.045-0.095,0.229-0.085,0.556c0.012,0.102,0.058,0.189,0.138,0.268
				c0.077,0.078,0.11,0.151,0.099,0.219c-0.011,0.099,0.029,0.176,0.119,0.219c0.068,0.033,0.123,0.078,0.168,0.135
				c0.045,0.114,0.165,0.201,0.354,0.27c0.08,0.012,0.153,0.068,0.222,0.168c0.066,0.078,0.106,0.162,0.116,0.252
				c0.08,0.18,0.074,0.365-0.017,0.557c-0.146,0.213-0.225,0.395-0.236,0.551c-0.012,0.17-0.073,0.283-0.185,0.336
				c-0.17,0.07-0.34,0.301-0.509,0.694c-0.111,0.211-0.15,0.402-0.116,0.57c0.045,0.168,0.062,0.313,0.05,0.438
				c-0.011,0.178,0.118,0.487,0.389,0.925c0.305,0.246,0.617,0.359,0.946,0.336c0.201-0.01,0.416,0.045,0.643,0.168
				c0.166,0.102,0.346,0.13,0.537,0.085c0.146-0.045,0.299-0.067,0.457-0.067c0.404-0.033,0.714-0.181,0.928-0.437
				c0.145-0.18,0.326-0.338,0.541-0.473c0.111-0.078,0.196-0.149,0.251-0.22c0.104-0.043,0.198-0.111,0.288-0.199
				c0.136-0.168,0.208-0.376,0.221-0.623c0.01-0.112-0.013-0.245-0.069-0.403c-0.045-0.111-0.078-0.284-0.102-0.521
				c-0.009-0.182-0.061-0.388-0.151-0.625c-0.044-0.146-0.106-0.24-0.187-0.286c-0.078-0.075-0.14-0.173-0.185-0.284
				c-0.045-0.135-0.123-0.225-0.236-0.268c-0.045-0.014-0.085-0.051-0.116-0.119c-0.014-0.012-0.023-0.023-0.035-0.035
				c-0.012-0.166-0.028-0.307-0.052-0.418c-0.012-0.012-0.017-0.033-0.017-0.066c0.012-0.07,0.035-0.131,0.068-0.188
				c0.012-0.102,0.066-0.195,0.168-0.287c0.146-0.145,0.359-0.262,0.643-0.353c0.111-0.011,0.213-0.118,0.303-0.317
				c0.044-0.135,0.044-0.27,0-0.404c-0.067-0.145-0.072-0.265-0.016-0.354c0.045-0.068,0.005-0.185-0.119-0.353
				c-0.203-0.27-0.461-0.416-0.775-0.438c-0.115,0-0.205-0.017-0.271-0.049c-0.1-0.046-0.191-0.041-0.27,0.014
				c-0.067,0.047-0.141,0.073-0.221,0.085c-0.145,0-0.246,0.057-0.303,0.171c-0.078,0.177-0.075,0.295,0.015,0.352
				c0.215,0.111,0.328,0.213,0.34,0.303c0.034,0.078,0.012,0.163-0.066,0.252c-0.045,0.045-0.09,0.129-0.135,0.254
				c-0.047,0.168-0.125,0.284-0.238,0.351c-0.045,0.034-0.085,0.093-0.118,0.169c-0.045,0.146-0.13,0.224-0.253,0.233
				c-0.078,0.013-0.163,0.063-0.253,0.153c-0.101,0.113-0.23,0.128-0.389,0.05c-0.033-0.033-0.111-0.054-0.234-0.066
				c-0.137-0.011-0.22-0.06-0.255-0.149c-0.01-0.047-0.055-0.08-0.135-0.104c-0.078-0.045-0.18-0.162-0.303-0.353
				c-0.068-0.146-0.029-0.37,0.117-0.672c0.045-0.271,0.107-0.433,0.186-0.487c0.045-0.014,0.097-0.092,0.151-0.236
				c0.045-0.135,0.108-0.234,0.187-0.305c0.066-0.031,0.111-0.109,0.135-0.236c0.012-0.064,0.062-0.152,0.151-0.266
				c0.068-0.08,0.137-0.113,0.203-0.104c0.045,0,0.102-0.026,0.169-0.083c0.078-0.066,0.168-0.09,0.27-0.066
				c0.113,0.011,0.213-0.017,0.305-0.085c0.045-0.045,0.135-0.062,0.27-0.05c0.111,0.012,0.26-0.055,0.439-0.201
				c0.079-0.046,0.111-0.169,0.101-0.372c-0.01-0.21-0.151-0.413-0.422-0.604c-0.236-0.135-0.444-0.18-0.624-0.135
				c-0.068,0.012-0.17-0.006-0.305-0.051c-0.067-0.018-0.131-0.027-0.19-0.027C17.734,5.895,17.656,5.914,17.59,5.955"/>
		</defs>
		<clipPath id="SVGID_26_">
			<use xlink:href="#SVGID_25_"  overflow="visible"/>
		</clipPath>
		<rect x="12.033" y="3.244" clip-path="url(#SVGID_26_)" fill="#D31816" width="20.862" height="19.506"/>
	</g>
	<g>
		<defs>
			<path id="SVGID_27_" d="M42.1,15.341c-0.281,0.247-0.58,0.466-0.895,0.657c-0.137,0.078-0.243,0.184-0.321,0.318
				c-0.135,0.08-0.354,0.23-0.656,0.453c-0.385,0.248-0.705,0.451-0.963,0.607c-0.146,0.078-0.34,0.201-0.576,0.369
				c-0.133,0.135-0.286,0.24-0.454,0.32c-0.18,0.076-0.327,0.184-0.438,0.32c-0.182,0.146-0.584,0.336-1.216,0.57
				c-0.27,0.045-0.471,0.111-0.607,0.201c-0.203,0.136-0.562,0.236-1.079,0.304c-0.305,0.012-0.559,0.118-0.76,0.319
				c-0.215,0.215-0.305,0.414-0.271,0.604c0.068,0.271,0.208,0.473,0.424,0.609c0.168,0.1,0.411,0.133,0.724,0.1
				c0.248-0.012,0.508-0.106,0.776-0.288c0.236-0.166,0.406-0.246,0.508-0.234c0.18-0.012,0.5-0.13,0.961-0.353
				c0.35-0.146,0.598-0.275,0.742-0.386c0.181-0.181,0.349-0.303,0.507-0.371c0.281-0.112,0.478-0.225,0.591-0.337
				c0.113-0.146,0.249-0.269,0.407-0.369c0.01-0.011,0.021-0.018,0.031-0.018c0.014-0.012,0.04-0.016,0.085-0.016
				c0.146-0.012,0.26-0.023,0.338-0.034c0.102-0.013,0.196-0.013,0.286,0c0.014-0.013,0.038-0.112,0.085-0.302
				c0.012-0.137,0.045-0.26,0.102-0.37c0.214-0.103,0.45-0.276,0.71-0.524c0.109-0.178,0.258-0.313,0.438-0.402
				c0.215-0.169,0.45-0.359,0.71-0.57c0.1-0.146,0.213-0.26,0.336-0.338c0.248-0.146,0.396-0.33,0.44-0.557
				c0.011-0.232-0.112-0.385-0.372-0.452c-0.037-0.011-0.075-0.017-0.115-0.017C42.435,15.156,42.276,15.219,42.1,15.341
				 M40.699,12.531c-0.247,0.104-0.377,0.27-0.389,0.506c0,0.246,0.078,0.414,0.236,0.504l0.017,0.017
				c-0.213,0.168-0.444,0.317-0.692,0.454c-0.111,0.08-0.213,0.17-0.305,0.27c-0.111,0.078-0.309,0.213-0.59,0.402
				c-0.348,0.213-0.646,0.393-0.894,0.539c-0.146,0.068-0.327,0.175-0.54,0.32c-0.115,0.11-0.248,0.209-0.406,0.285
				c-0.18,0.066-0.32,0.158-0.422,0.27c-0.168,0.146-0.541,0.314-1.113,0.506c-0.247,0.043-0.429,0.1-0.54,0.166
				c-0.182,0.113-0.514,0.193-0.996,0.236c-0.271,0.012-0.501,0.105-0.692,0.285c-0.203,0.201-0.286,0.381-0.253,0.539
				c0.044,0.246,0.168,0.433,0.371,0.557c0.146,0.1,0.366,0.139,0.659,0.115c0.235-0.01,0.472-0.094,0.708-0.252
				c0.215-0.146,0.366-0.211,0.456-0.203c0.168,0,0.46-0.094,0.878-0.285c0.316-0.135,0.544-0.246,0.691-0.334
				c0.168-0.171,0.321-0.283,0.456-0.338c0.248-0.078,0.426-0.18,0.541-0.304c0.111-0.134,0.241-0.233,0.387-0.302
				c0.18-0.102,0.356-0.234,0.524-0.403c0.111-0.112,0.225-0.196,0.336-0.253c0.182-0.1,0.395-0.258,0.642-0.471
				c0.113-0.146,0.248-0.263,0.406-0.354c0.213-0.144,0.434-0.312,0.658-0.502c0.078-0.113,0.178-0.21,0.305-0.286
				c0.213-0.137,0.348-0.287,0.404-0.455h0.033c0.111,0.033,0.276,0.02,0.49-0.034c0.111-0.043,0.314-0.04,0.607,0.017
				c0.08,0,0.146,0.01,0.203,0.035c0.01,0.031,0.038,0.085,0.083,0.15c0.08,0.169,0.153,0.363,0.221,0.59
				c0.045,0.213,0.101,0.322,0.168,0.336c0.068-0.014,0.156-0.028,0.271-0.05c0.102-0.014,0.236-0.035,0.404-0.067
				c0.08-0.013,0.197-0.022,0.354-0.034c0.045,0.012,0.096,0.034,0.151,0.066c0.317,0.281,0.535,0.601,0.658,0.96
				c0.102,0.201,0.106,0.539,0.017,1.008c-0.135,0.449-0.303,0.775-0.506,0.977c-0.08,0.078-0.169,0.191-0.27,0.334
				c-0.28,0.351-0.54,0.574-0.778,0.676c-0.1,0.01-0.178,0.061-0.234,0.148c-0.146,0.146-0.49,0.27-1.031,0.373
				c-0.416,0.109-0.731,0.133-0.944,0.066c-0.08,0-0.156-0.023-0.236-0.066c-0.146-0.113-0.276-0.205-0.389-0.27
				c-0.248-0.137-0.449-0.146-0.607-0.033c-0.102,0.066-0.146,0.193-0.135,0.386c0.01,0.18,0.078,0.353,0.203,0.521
				c0.066,0.078,0.111,0.163,0.135,0.252c0.01,0.112,0.066,0.216,0.168,0.306c0.102,0.109,0.175,0.229,0.219,0.353
				c0.068,0.111,0.222,0.185,0.456,0.218c0.113,0.012,0.265,0.05,0.456,0.118c0.146,0.033,0.36-0.007,0.642-0.118
				s0.529-0.191,0.743-0.237c0.248-0.044,0.719-0.3,1.418-0.771c0.349-0.215,0.606-0.435,0.776-0.657
				c0.068-0.146,0.142-0.248,0.22-0.303c0.102-0.014,0.292-0.186,0.573-0.521c0.215-0.336,0.321-0.6,0.321-0.792
				c0-0.146,0.01-0.263,0.035-0.353c0.145-0.379,0.18-0.634,0.102-0.757c-0.047-0.179-0.037-0.327,0.033-0.452
				c0.045-0.104,0.038-0.198-0.019-0.288c-0.078-0.101-0.128-0.22-0.151-0.353c0.01-0.18-0.04-0.336-0.151-0.471
				c-0.104-0.213-0.187-0.383-0.255-0.504c-0.01-0.17-0.078-0.299-0.201-0.389c-0.281-0.213-0.502-0.41-0.658-0.588
				c-0.08-0.145-0.236-0.27-0.475-0.371c-0.268-0.1-0.526-0.239-0.774-0.419c-0.148-0.101-0.276-0.14-0.39-0.116
				c-0.18,0.008-0.337-0.019-0.472-0.086c-0.146-0.011-0.265,0-0.354,0.034c-0.135,0.045-0.333,0.022-0.589-0.067
				c-0.248-0.045-0.48-0.074-0.693-0.084c-0.026-0.002-0.055-0.002-0.083-0.002C41.119,12.43,40.916,12.463,40.699,12.531
				 M39.078,8.377c-0.383,0.111-0.69,0.13-0.93,0.053c-0.246-0.079-0.444-0.048-0.589,0.099c-0.146,0.146-0.231,0.321-0.253,0.521
				C37.295,9.264,37.38,9.443,37.56,9.59c0.246,0.111,0.544,0.111,0.895,0c0.473-0.115,0.849-0.135,1.131-0.068
				c0.281,0.111,0.586,0.106,0.912-0.018c0.269-0.079,0.578-0.072,0.928,0.018c0.18,0.08,0.371,0.072,0.573-0.018
				c0.146-0.079,0.241-0.235,0.288-0.472c-0.012-0.246-0.118-0.442-0.321-0.589c-0.202-0.111-0.457-0.128-0.76-0.05
				c-0.246,0.066-0.534,0.058-0.861-0.034c-0.194-0.035-0.388-0.054-0.584-0.054C39.533,8.306,39.308,8.328,39.078,8.377
				 M39.01,5.67c-0.371,0-0.703,0.057-0.996,0.166c-0.213,0.047-0.414,0.076-0.605,0.086c-0.316,0.01-0.58,0.107-0.795,0.286
				c-0.178,0.135-0.265,0.326-0.253,0.571c0,0.247,0.165,0.415,0.49,0.505c0.381,0.068,0.775,0.005,1.182-0.185
				c0.483-0.236,1.008-0.298,1.569-0.186c0.416,0.046,0.94,0.062,1.568,0.053c0.915,0.043,1.426,0.138,1.537,0.283
				c0.08,0.069,0.18,0.124,0.305,0.169c0.078,0.045,0.14,0.135,0.186,0.27c0.011,0.066,0.084,0.185,0.22,0.353
				c0.045,0.133,0.071,0.263,0.083,0.389c0,0.177,0.039,0.38,0.12,0.603c0.102,0.248,0.128,0.539,0.083,0.876
				c-0.102,0.303-0.227,0.512-0.371,0.623c-0.181,0.211-0.434,0.297-0.758,0.25c-0.385-0.01-0.729,0.029-1.031,0.121
				c-0.305,0.109-0.652,0.123-1.046,0.033c-0.619-0.146-1.256-0.125-1.908,0.066c-0.506,0.146-0.968,0.156-1.384,0.033
				c-0.281-0.078-0.49-0.236-0.625-0.471c-0.113-0.145-0.203-0.398-0.27-0.758c-0.045-0.28-0.028-0.688,0.05-1.227
				c0.045-0.449,0.028-0.775-0.05-0.977c-0.045-0.168-0.118-0.297-0.22-0.387c-0.102-0.044-0.22-0.077-0.355-0.101
				c-0.112,0.011-0.218,0.057-0.319,0.134c-0.113,0.079-0.208,0.202-0.288,0.372c-0.111,0.234-0.163,0.502-0.151,0.808
				c0.01,0.144,0.007,0.283-0.017,0.42c-0.045,0.199-0.04,0.402,0.017,0.605c0.045,0.336,0.073,0.767,0.085,1.293
				c-0.035,0.347,0.033,0.572,0.203,0.674c0.213,0.145,0.337,0.309,0.37,0.488c0.078,0.178,0.316,0.318,0.709,0.418
				c0.371,0.113,0.642,0.137,0.81,0.066c0.248-0.109,0.513-0.121,0.795-0.031c-0.067,0.078-0.135,0.186-0.202,0.32
				c-0.172,0.201-0.385,0.363-0.643,0.486c-0.18,0.033-0.349,0.113-0.506,0.236c-0.169,0.146-0.36,0.236-0.575,0.27
				c-0.214,0.01-0.405,0.084-0.573,0.22c-0.18,0.1-0.376,0.161-0.591,0.183c-0.213,0-0.395-0.017-0.54-0.05
				c-0.215-0.046-0.428-0.038-0.641,0.017c-0.203,0.066-0.354,0.151-0.456,0.253c-0.113,0.135-0.158,0.291-0.135,0.471
				c0.012,0.114,0.038,0.187,0.083,0.218c0.045,0.014,0.073,0.063,0.084,0.153c0.013,0.078,0.129,0.151,0.355,0.218
				c0.281,0.078,0.558,0.068,0.826-0.031c0.079-0.035,0.187-0.047,0.321-0.035c0.113,0.01,0.276-0.035,0.489-0.139
				c0.203-0.131,0.439-0.204,0.71-0.215c0.314-0.011,0.553-0.078,0.709-0.201c0.18-0.112,0.364-0.213,0.557-0.304
				c0.248-0.078,0.468-0.218,0.659-0.421c0.111-0.113,0.247-0.196,0.403-0.252c0.137-0.044,0.243-0.15,0.321-0.32
				c0.08-0.109,0.17-0.207,0.27-0.285c0.203-0.146,0.354-0.297,0.456-0.455c0.102-0.178,0.181-0.371,0.235-0.57
				c0.18-0.047,0.35-0.035,0.508,0.033c0.213,0.1,0.442,0.088,0.691-0.033c0.215-0.07,0.423-0.057,0.626,0.033
				c0.213,0.066,0.445,0.055,0.693-0.033c0.211-0.047,0.471-0.059,0.773-0.035c0.439,0.045,0.793-0.012,1.066-0.168
				c0.381-0.145,0.656-0.346,0.824-0.605c0.215-0.213,0.326-0.555,0.34-1.025v-1.01c0-0.312-0.047-0.544-0.137-0.688
				c-0.066-0.146-0.118-0.319-0.151-0.522c0.012-0.414-0.057-0.7-0.201-0.857c-0.113-0.101-0.176-0.219-0.188-0.354
				c-0.011-0.133-0.156-0.285-0.439-0.453c-0.248-0.202-0.489-0.309-0.724-0.318c-0.216,0.01-0.379-0.025-0.492-0.104
				c-0.45-0.213-0.966-0.279-1.552-0.201c-0.383,0.045-0.748,0.021-1.098-0.068c-0.218-0.034-0.496-0.053-0.838-0.053
				C39.185,5.666,39.1,5.666,39.01,5.67"/>
		</defs>
		<clipPath id="SVGID_28_">
			<use xlink:href="#SVGID_27_"  overflow="visible"/>
		</clipPath>
		<rect x="30.433" y="3.017" clip-path="url(#SVGID_28_)" fill="#D31816" width="18.819" height="20.738"/>
	</g>
	<g>
		<defs>
			<rect id="SVGID_29_" x="14.631" y="22.729" width="70.858" height="0.913"/>
		</defs>
		<clipPath id="SVGID_30_">
			<use xlink:href="#SVGID_29_"  overflow="visible"/>
		</clipPath>
		<rect x="11.981" y="20.08" clip-path="url(#SVGID_30_)" fill="#090708" width="76.157" height="6.211"/>
	</g>
	<g>
		<defs>
			<path id="SVGID_31_" d="M75.507,12.541c0.154,0.641,0.327,1.166,0.521,1.579c0.191,0.414,0.412,0.8,0.658,1.159
				c0.25,0.362,0.622,0.785,1.119,1.27c0.425-0.627,0.755-1.271,0.993-1.925c0.238-0.655,0.456-1.351,0.652-2.083H75.507z"/>
		</defs>
		<clipPath id="SVGID_32_">
			<use xlink:href="#SVGID_31_"  overflow="visible"/>
		</clipPath>
		<rect x="72.858" y="9.895" clip-path="url(#SVGID_32_)" fill="#D31816" width="9.241" height="9.303"/>
	</g>
	<g>
		<defs>
			<path id="SVGID_33_" d="M60.974,14.816c-0.27,0-0.469-0.069-0.599-0.209s-0.205-0.328-0.225-0.565v-0.526
				c-0.01-0.174-0.04-0.359-0.085-0.557c-0.048-0.196-0.118-0.352-0.211-0.464l-0.217-0.233c-0.196-0.194-0.124-0.275,0.217-0.246
				c1.026,0.113,1.661,0.361,1.911,0.742c0.247,0.383,0.376,0.697,0.381,0.945c0.003,0.246-0.089,0.498-0.281,0.748
				c-0.184,0.246-0.464,0.365-0.845,0.365C61.005,14.816,60.988,14.816,60.974,14.816 M60.707,10.747
				c-0.123-0.103-0.204-0.271-0.247-0.511l-0.047-0.527c-0.02-0.174-0.062-0.357-0.123-0.549c-0.062-0.189-0.146-0.341-0.248-0.455
				l-0.218-0.219c-0.093-0.081-0.13-0.145-0.108-0.192c0.019-0.047,0.118-0.068,0.295-0.068c0.165,0.012,0.331,0.026,0.497,0.047
				c0.165,0.019,0.431,0.091,0.8,0.214c0.366,0.125,0.636,0.303,0.807,0.536c0.17,0.229,0.269,0.478,0.295,0.735
				c0.024,0.258-0.045,0.516-0.21,0.773c-0.166,0.258-0.422,0.391-0.769,0.4c-0.026,0.002-0.055,0.004-0.081,0.004
				C61.045,10.936,60.832,10.871,60.707,10.747 M52.535,8.689c-0.007-0.062,0.105-0.119,0.334-0.171l0.248-0.045
				c0.517-0.093,1.176-0.282,1.979-0.572c0.8-0.29,1.421-0.567,1.856-0.837l0.232-0.139l0.265-0.172
				c0.06,0.014,0.284,0.166,0.667,0.465c0.383,0.301,0.629,0.502,0.737,0.604c0.109,0.104,0.228,0.222,0.357,0.348
				c0.13,0.13,0.186,0.214,0.171,0.256s-0.04,0.067-0.069,0.077l-0.295,0.015l-0.404,0.048l-0.528,0.045l-0.761,0.078
				c-0.053,0.145-0.135,0.274-0.247,0.387v2.397h0.263c0.237-0.279,0.442-0.534,0.613-0.765c0.172-0.232,0.288-0.35,0.352-0.355
				c0.06-0.004,0.157,0.047,0.292,0.16l0.527,0.435c0.468,0.413,0.679,0.655,0.637,0.729c-0.039,0.071-0.098,0.106-0.169,0.106
				h-2.515v1.533c0.164,0.02,0.331,0.043,0.497,0.068c0.164,0.027,0.572,0.137,1.226,0.334c0.652,0.197,0.941,0.546,0.87,1.05
				c-0.073,0.507-0.239,0.872-0.497,1.091c-0.26,0.225-0.515,0.268-0.762,0.132c-0.248-0.134-0.404-0.26-0.466-0.378
				c-0.062-0.119-0.108-0.299-0.14-0.543c-0.03-0.24-0.082-0.455-0.146-0.641c-0.068-0.187-0.263-0.435-0.582-0.744v4.891
				l0.062,1.593c-0.021,0.153-0.077,0.296-0.163,0.426c-0.09,0.13-0.341,0.206-0.762,0.233c-0.418,0.022-0.659,0.006-0.722-0.056
				c-0.062-0.062-0.104-0.133-0.125-0.214l0.093-2.168v-3.004c-0.239,0.279-0.44,0.515-0.612,0.699
				c-0.171,0.185-0.429,0.436-0.776,0.75s-0.575,0.529-0.684,0.643c-0.108,0.112-0.189,0.189-0.239,0.23l-0.265,0.201l-0.093,0.094
				c-0.083,0.072-0.153,0.09-0.21,0.053c-0.058-0.035-0.04-0.135,0.054-0.301l0.093-0.141l0.156-0.264
				c0-0.01,0.116-0.193,0.35-0.556c0.232-0.359,0.49-0.849,0.774-1.462c0.285-0.613,0.515-1.162,0.684-1.648
				c0.172-0.484,0.366-1.117,0.584-1.902h-1.848l-0.591,0.047l-0.403-0.433l0.76,0.076h2.267V8.796
				c-1.127,0.063-1.888,0.073-2.281,0.032l-0.31-0.032h-0.188C52.588,8.786,52.538,8.751,52.535,8.689 M76.778,9.586V8.102
				l-0.062-1.547c0.072-0.011,0.182-0.018,0.326-0.018c1.357,0.094,2.01,0.246,1.956,0.451c-0.052,0.206-0.231,0.386-0.542,0.541
				v2.057h1.816c0.58-0.783,0.941-1.176,1.086-1.176c0.114,0.012,0.381,0.223,0.8,0.635c0.421,0.413,0.608,0.656,0.567,0.736
				c-0.042,0.078-0.094,0.114-0.156,0.114h-4.113v2.354h0.854l0.372-0.513c0.071-0.104,0.177-0.162,0.312-0.184
				c0.134-0.022,0.479,0.145,1.032,0.495c0.553,0.351,0.835,0.587,0.845,0.71c0,0.166-0.185,0.31-0.559,0.433
				c-0.527,1.344-0.925,2.261-1.194,2.754c-0.27,0.495-0.62,1.021-1.056,1.579c0.612,0.361,1.081,0.602,1.412,0.72
				s0.717,0.226,1.159,0.325c0.438,0.098,0.708,0.146,0.813,0.146l0.698,0.03c0.052,0.011,0.088,0.036,0.109,0.078
				c0.019,0.04,0.027,0.069,0.023,0.085c-0.007,0.016-0.076,0.055-0.209,0.116l-0.39,0.187c-0.115,0.061-0.298,0.206-0.551,0.433
				c-0.254,0.226-0.427,0.456-0.521,0.688c-0.093,0.23-0.158,0.355-0.192,0.373c-0.037,0.013-0.104,0.006-0.195-0.027
				c-0.499-0.133-0.891-0.295-1.179-0.485c-0.291-0.19-0.637-0.439-1.034-0.742c-0.399-0.302-0.712-0.58-0.94-0.828
				c-0.703,0.464-1.349,0.835-1.933,1.114c-0.585,0.277-1.474,0.489-2.662,0.634l-0.762,0.093c-0.3,0.041-0.48,0.057-0.543,0.047
				c-0.062-0.012-0.095-0.038-0.101-0.085c-0.005-0.046,0.084-0.103,0.272-0.163l0.589-0.17c0.382-0.103,0.984-0.385,1.801-0.844
				c0.818-0.456,1.589-1.033,2.313-1.725c-0.457-0.711-0.731-1.17-0.83-1.369c-0.1-0.201-0.223-0.513-0.374-0.937
				c-0.149-0.423-0.271-0.812-0.364-1.167c-0.093-0.358-0.181-0.86-0.263-1.51l-0.747,0.047l-0.372-0.432l1.133,0.093h1.553V9.896
				h-1.086l-0.901,0.032L74.42,9.479l1.148,0.107H76.778z M70.74,9.896V8.008l-0.062-1.547c0.062-0.01,0.169-0.017,0.325-0.017
				c0.227,0.023,0.574,0.077,1.04,0.165s0.729,0.174,0.791,0.254c0.062,0.084,0.089,0.162,0.078,0.232
				c-0.029,0.123-0.202,0.254-0.512,0.387v2.413h0.108c0.331-0.504,0.544-0.807,0.637-0.905c0.092-0.098,0.232-0.084,0.419,0.039
				c0.083,0.072,0.201,0.186,0.357,0.341c0.155,0.154,0.291,0.288,0.411,0.394c0.12,0.107,0.171,0.207,0.156,0.297
				c-0.017,0.086-0.066,0.129-0.148,0.129h-1.94v3.127c0.579-0.126,0.968-0.211,1.164-0.264l0.527-0.141l0.343-0.092
				c0.113,0.021,0.145,0.067,0.093,0.139c-0.052,0.073-0.119,0.137-0.203,0.185L74,13.361l-0.714,0.418l-0.885,0.542v4.981
				c0,0.228-0.075,0.482-0.227,0.767c-0.149,0.282-0.673,0.472-1.575,0.565c-0.134,0.02-0.226,0.014-0.271-0.019
				c-0.049-0.028-0.082-0.058-0.102-0.091c-0.02-0.03-0.045-0.184-0.07-0.456c-0.024-0.272-0.334-0.536-0.924-0.782l-0.42-0.17
				c-0.103-0.031-0.147-0.076-0.131-0.133c0.015-0.057,0.064-0.084,0.147-0.084l0.466,0.016l0.418,0.047
				c0.073,0.008,0.229,0.008,0.467,0c0.205,0,0.352-0.035,0.435-0.102s0.125-0.186,0.125-0.363v-3.219
				c-0.684,0.402-1.062,0.625-1.133,0.665l-0.436,0.263l-0.155,0.109c-0.053,0.021-0.085,0.027-0.103,0.016
				c-0.014-0.008-0.032-0.078-0.054-0.199l-0.374-1.766c-0.03-0.143-0.042-0.229-0.038-0.256c0.007-0.026,0.013-0.043,0.024-0.053
				l0.402-0.03l0.576-0.095c0.684-0.102,1.11-0.182,1.289-0.23v-3.514h-1.118l-0.809,0.047l-0.327-0.419l0.871,0.078H70.74z
				 M57.371,16.533l0.807-0.14l4.72-0.929V8.147l-0.093-1.733c0.052-0.01,0.145-0.013,0.281-0.013
				c1.312,0.103,2.002,0.259,2.063,0.479c0.032,0.123-0.134,0.313-0.497,0.57v7.644l0.419-0.108c0.383-0.898,0.617-1.357,0.7-1.377
				c0.082-0.02,0.19,0.005,0.324,0.076c0.321,0.177,0.524,0.291,0.607,0.343l0.589,0.386c0.188,0.113,0.272,0.201,0.258,0.264
				c-0.015,0.061-0.066,0.098-0.148,0.107l-2.749,0.602v2.926l0.078,2.01c-0.029,0.176-0.098,0.322-0.201,0.436
				c-0.104,0.113-0.394,0.18-0.871,0.201c-0.393,0.031-0.627,0-0.705-0.094c-0.078-0.093-0.128-0.193-0.148-0.307l0.093-2.061v-2.74
				l-4.362,0.869l-0.745,0.156L57.371,16.533z M49.684,21.189H85.44V5.613H49.684V21.189z"/>
		</defs>
		<clipPath id="SVGID_34_">
			<use xlink:href="#SVGID_33_"  overflow="visible"/>
		</clipPath>
		<rect x="47.036" y="2.965" clip-path="url(#SVGID_34_)" fill="#D31816" width="41.054" height="20.873"/>
	</g>
</g>
</svg>
