<?xml version="1.0" encoding="utf-8"?>
<!-- Generator: Adobe Illustrator 19.0.0, SVG Export Plug-In . SVG Version: 6.00 Build 0)  -->
<svg version="1.1" id="图层_1" xmlns="http://www.w3.org/2000/svg" xmlns:xlink="http://www.w3.org/1999/xlink" x="0px" y="0px"
	 viewBox="-247 403.089 100 35.801" enable-background="new -247 403.089 100 35.801" xml:space="preserve">
<g id="jtCMZj.tif">
	<g>
		<path fill="#DD4112" d="M-230.347,416.878c1.174,0.015,2.348,0.05,3.522,0.033c0.436-0.006,0.567,0.11,0.563,0.557
			c-0.021,2.509-0.019,5.018-0.002,7.526c0.003,0.391-0.114,0.494-0.497,0.486c-1.195-0.025-2.391-0.011-3.587-0.013
			C-230.347,422.604-230.347,419.741-230.347,416.878z"/>
		<path fill="#DD4112" d="M-216.344,433.469c0.011-2.329,0.046-4.658,0.018-6.987c-0.007-0.586,0.164-0.72,0.717-0.694
			c0.977,0.047,1.958,0.025,2.937,0.006c0.33-0.006,0.438,0.091,0.434,0.429c-0.016,1.469-0.018,2.938,0.001,4.407
			c0.004,0.329-0.138,0.483-0.396,0.637c-1.204,0.724-2.397,1.466-3.594,2.202C-216.266,433.469-216.305,433.469-216.344,433.469z"
			/>
		<path fill="#DD4112" d="M-220.947,417.009c0-2.647,0.01-5.294-0.01-7.941c-0.003-0.425,0.08-0.574,0.539-0.556
			c0.998,0.039,2,0.035,2.999,0.002c0.424-0.014,0.511,0.123,0.509,0.524c-0.015,3.902,0,7.804-0.02,11.706
			c-0.003,0.51,0.089,0.703,0.659,0.695c2.45-0.035,4.902-0.013,7.353-0.016c1.141-0.001,1.918-0.731,1.99-1.874
			c0.028-0.45,0.022-0.899-0.111-1.34c-0.274-0.91-0.823-1.294-1.773-1.275c-0.98,0.02-1.961,0.022-2.941-0.001
			c-0.374-0.009-0.51,0.086-0.5,0.484c0.027,1.078-0.006,2.157,0.017,3.235c0.008,0.364-0.1,0.47-0.463,0.462
			c-1.058-0.023-2.118-0.019-3.176-0.002c-0.324,0.005-0.443-0.08-0.441-0.424c0.013-2.471,0.011-4.941,0.001-7.412
			c-0.001-0.297,0.072-0.411,0.391-0.41c2.569,0.015,5.139-0.049,7.705,0.033c2.856,0.091,4.948,2.129,5.291,4.966
			c0.116,0.961,0.149,1.918-0.045,2.868c-0.578,2.823-2.944,4.737-5.833,4.737c-3.804,0-7.608-0.018-11.412,0.017
			c-0.639,0.006-0.75-0.19-0.742-0.774C-220.929,422.147-220.947,419.578-220.947,417.009z"/>
		<path fill="#DD4112" d="M-168.664,424.316c0.825,0,1.628,0,2.431,0c0.198,0,0.403,0.022,0.419-0.273
			c0.016-0.288-0.164-0.345-0.376-0.301c-0.623,0.129-0.874-0.243-1.063-0.735c-0.104-0.27-0.236-0.53-0.392-0.874
			c-0.13,0.22-0.225,0.372-0.312,0.529c-0.673,1.22-0.749,1.256-2.228,1.006c0.142-0.254,0.281-0.5,0.473-0.843
			c-0.895,0.287-0.896-0.493-1.268-0.905c-0.183,0.436-0.391,0.823-0.508,1.237c-0.139,0.491-0.424,0.663-0.901,0.579
			c-0.442-0.078-0.559,0.101-0.552,0.543c0.023,1.293,0.001,1.272-1.32,1.292c-0.447,0.007-0.552-0.122-0.55-0.558
			c0.019-3.117,0.009-6.233,0.011-9.35c0.001-0.981,0.409-1.41,1.384-1.414c2.685-0.009,5.371-0.01,8.056,0
			c1.007,0.004,1.377,0.392,1.379,1.4c0.003,2.882,0.003,5.763,0,8.645c-0.001,0.778-0.289,1.175-1.039,1.223
			c-1.015,0.065-2.037,0.031-3.055,0.044c-0.16,0.002-0.254-0.059-0.3-0.213C-168.475,425.017-168.651,424.707-168.664,424.316z"/>
		<path fill="#DD4112" d="M-225.648,419.167c0-1.922,0.017-3.843-0.012-5.765c-0.007-0.455,0.128-0.552,0.556-0.539
			c1.038,0.032,2.078,0.021,3.117,0.004c0.309-0.005,0.398,0.093,0.397,0.399c-0.009,3.941-0.009,7.883,0.001,11.824
			c0.001,0.321-0.114,0.391-0.409,0.387c-1.059-0.015-2.118-0.024-3.176,0.004c-0.392,0.01-0.486-0.112-0.482-0.49
			C-225.638,423.049-225.648,421.108-225.648,419.167z"/>
		<path fill="#DD4112" d="M-194.343,425.442c-1.195,0-2.39,0.004-3.585-0.001c-0.991-0.004-1.353-0.365-1.355-1.339
			c-0.002-0.862-0.005-1.724,0.001-2.586c0.005-0.779,0.406-1.2,1.194-1.203c2.488-0.01,4.976-0.012,7.464,0.001
			c0.975,0.005,1.334,0.396,1.338,1.376c0.003,0.823,0.004,1.646,0,2.468c-0.005,0.9-0.381,1.277-1.295,1.283
			C-191.835,425.448-193.089,425.442-194.343,425.442z"/>
		<path fill="#DD4112" d="M-194.164,414.27c1.47,0,2.941,0.015,4.41-0.01c0.401-0.007,0.5,0.128,0.477,0.499
			c-0.02,0.322,0.047,0.603-0.46,0.582c-0.998-0.041-1.999-0.024-2.998-0.002c-0.199,0.004-0.586-0.201-0.567,0.252
			c0.018,0.435,0.392,0.218,0.593,0.223c0.921,0.026,1.842,0.007,2.764,0.012c0.897,0.005,1.278,0.387,1.285,1.286
			c0.005,0.666-0.016,1.334,0.008,1.999c0.013,0.362-0.066,0.508-0.474,0.508c-1.345,0-1.345,0.019-1.345-1.331
			c0-1.393,0-1.393-1.396-1.393c-1.449,0-1.449,0-1.449,1.464c0,0.412-0.023,0.825,0.007,1.234c0.028,0.376-0.128,0.451-0.474,0.454
			c-1.39,0.014-1.39,0.026-1.39-1.344c0-0.49-0.009-0.98,0.004-1.47c0.007-0.252-0.08-0.347-0.338-0.342
			c-0.686,0.013-1.372,0.015-2.058,0c-0.359-0.008-0.489,0.143-0.482,0.49c0.014,0.607-0.005,1.215,0.007,1.823
			c0.005,0.265-0.069,0.367-0.361,0.383c-1.462,0.08-1.462,0.09-1.462-1.389c0-0.392-0.007-0.784,0.002-1.176
			c0.016-0.78,0.428-1.191,1.205-1.196c1-0.006,1.999,0.006,2.999-0.009c0.175-0.003,0.468,0.148,0.483-0.229
			c0.015-0.381-0.279-0.254-0.46-0.256c-1.039-0.011-2.079-0.033-3.116,0.007c-0.477,0.018-0.433-0.241-0.437-0.546
			c-0.004-0.311-0.031-0.548,0.437-0.538C-197.223,414.291-195.693,414.27-194.164,414.27z"/>
		<path fill="#DD4112" d="M-184.845,414.159c-0.216,1.272-0.211,1.342,0.996,1.249c0.831-0.064,0.696,0.446,0.703,1.021
			c0.538-0.642,0.872-1.278,1.195-1.913c0.137-0.269,0.296-0.363,0.589-0.35c0.524,0.022,1.051,0.006,1.566,0.006
			c0.08,0.248-0.177,0.374-0.119,0.622c0.869,0,1.749-0.001,2.629,0c0.319,0,0.648,0.004,0.804,0.354
			c0.158,0.354-0.005,0.63-0.234,0.905c-0.502,0.603-1.121,1.079-1.758,1.647c0.82,0.523,1.604,1.023,2.525,1.61
			c-0.978,0-1.806,0.011-2.633-0.01c-0.161-0.004-0.35-0.097-0.473-0.208c-0.492-0.446-0.964-0.483-1.473-0.03
			c-0.28,0.249-0.634,0.267-0.996,0.257c-0.585-0.016-1.171-0.004-1.756-0.004c-0.06-0.222,0.134-0.23,0.228-0.29
			c0.462-0.295,0.944-0.559,1.396-0.867c0.211-0.143,0.666-0.292,0.547-0.493c-0.185-0.313-0.464-0.69-0.957-0.668
			c-0.333,0.015-0.668,0.021-0.999-0.006c-0.127-0.01-0.5,0.199-0.322-0.267c0.051-0.132-0.173-0.093-0.273-0.096
			c-0.333-0.01-0.67,0.03-0.999-0.011c-0.565-0.07-0.949,0.062-1.024,0.698c-0.027,0.229-0.18,0.312-0.416,0.3
			c-0.487-0.026-1.126,0.15-1.417-0.096c-0.234-0.198,0.214-0.821,0.314-1.269c0.127-0.573,0.277-1.141,0.383-1.718
			c0.046-0.25,0.109-0.388,0.396-0.378C-185.914,414.171-185.405,414.159-184.845,414.159z"/>
		<path fill="#DD4112" d="M-177.561,424.365c-0.118,0-0.235,0-0.353,0c-0.917,0-0.937-0.001-0.995,0.903
			c-0.022,0.339-0.216,0.361-0.421,0.3c-0.461-0.137-1.065,0.363-1.391-0.266c-0.133-0.256,0.141-0.722-0.131-0.867
			c-0.278-0.149-0.684-0.061-1.035-0.069c-0.274-0.006-0.551-0.025-0.822,0.004c-0.427,0.047-0.567-0.09-0.573-0.544
			c-0.008-0.5,0.147-0.639,0.627-0.601c0.525,0.042,1.057,0.006,1.586,0.011c0.198,0.002,0.344-0.018,0.335-0.277
			c-0.008-0.23-0.109-0.306-0.328-0.3c-0.352,0.01-0.707-0.023-1.057,0.009c-0.406,0.037-0.532-0.098-0.535-0.515
			c-0.003-0.44,0.12-0.6,0.565-0.553c0.349,0.037,0.704,0.005,1.057,0.008c0.181,0.001,0.296-0.047,0.296-0.263
			c-0.001-0.217-0.12-0.26-0.299-0.259c-0.49,0.002-0.981-0.024-1.469,0.007c-0.439,0.028-0.418-0.242-0.397-0.525
			c0.02-0.261-0.139-0.632,0.376-0.603c0.351,0.02,0.706,0.021,1.057-0.002c0.306-0.019,0.751,0.19,0.765-0.411
			c0.003-0.114,0.153-0.093,0.244-0.094c0.411-0.004,0.823-0.001,1.234-0.002c0.165-0.001,0.325-0.001,0.305,0.235
			c-0.026,0.314,0.199,0.277,0.392,0.278c0.509,0.002,1.022,0.035,1.527-0.009c0.489-0.043,0.533,0.19,0.53,0.586
			c-0.003,0.376-0.057,0.582-0.506,0.55c-0.526-0.038-1.057-0.01-1.586-0.008c-0.174,0.001-0.355-0.028-0.361,0.25
			c-0.006,0.27,0.155,0.271,0.342,0.27c0.47-0.001,0.942,0.023,1.41-0.007c0.466-0.03,0.372,0.28,0.373,0.54
			c0.002,0.262,0.087,0.568-0.378,0.527c-0.389-0.034-0.785-0.028-1.174,0.002c-0.207,0.016-0.551-0.184-0.57,0.268
			c-0.019,0.468,0.336,0.28,0.539,0.288c0.606,0.023,1.216,0.033,1.821,0c0.47-0.025,0.378,0.283,0.367,0.537
			c-0.011,0.258,0.148,0.635-0.371,0.604C-176.894,424.348-177.228,424.365-177.561,424.365z"/>
		<path fill="#DD4112" d="M-185.347,417.962c0.333,0,0.665,0,0.998,0c0.803,0,0.944,0.194,0.792,1.01
			c-0.072,0.388-0.359,0.25-0.55,0.236c-0.695-0.049-0.394,0.462-0.443,0.761c-0.055,0.336-0.031,0.644,0.456,0.558
			c0.076-0.013,0.156-0.002,0.235-0.002c0.67,0.001,0.902,0.346,0.698,1.014c-0.09,0.295-0.32,0.161-0.484,0.165
			c-0.91,0.025-0.91,0.018-0.91,0.942c0,0.352,0.023,0.706-0.006,1.056c-0.038,0.461,0.138,0.631,0.604,0.613
			c0.166-0.006,0.512-0.226,0.542,0.185c0.036,0.485-0.293,0.999-0.616,1.008c-0.332,0.009-0.665,0.005-0.998,0.002
			c-0.951-0.008-1.286-0.351-1.291-1.326c-0.003-0.646-0.03-1.294,0.009-1.937c0.028-0.445-0.11-0.598-0.552-0.548
			c-0.169,0.019-0.463,0.127-0.512-0.111c-0.065-0.316-0.047-0.665,0.015-0.985c0.03-0.154,0.285-0.097,0.425-0.072
			c0.543,0.095,0.698-0.149,0.616-0.641c-0.013-0.076-0.01-0.157,0-0.234c0.037-0.304-0.035-0.444-0.4-0.444
			c-0.449,0-0.433,0-0.433-0.81c0-0.448,0.143-0.448,0.455-0.448C-186.248,417.956-185.798,417.962-185.347,417.962z"/>
		<path fill="#8E8E8D" d="M-199.398,428.997c0.182,0.012,0.382-0.06,0.597,0.133c-0.39,0.229-0.807,0.021-1.21,0.23
			c0.471,0.305,1.02-0.041,1.478,0.289c-0.465,0.3-0.961,0.021-1.419,0.217c0.17,0.166,0.369,0.12,0.535,0.101
			c0.477-0.056,0.609,0.145,0.595,0.603c-0.014,0.461,0.034,0.875-0.65,0.665c-0.147-0.045-0.349-0.066-0.531,0.112
			c0.401,0.27,0.877-0.007,1.324,0.217c-0.421,0.31-0.903,0.015-1.343,0.252c0.363,0.279,0.737,0.107,1.074,0.159
			c0.127,0.02,0.323-0.047,0.343,0.131c0.024,0.208-0.181,0.16-0.302,0.161c-0.882,0.005-1.764,0.002-2.646,0.001
			c-0.102,0-0.195-0.022-0.245-0.175c0.436-0.286,0.979,0.032,1.485-0.23c-0.429-0.304-0.909-0.016-1.352-0.247
			c0.424-0.311,0.903-0.011,1.332-0.238c-0.283-0.25-0.59-0.17-0.862-0.104c-0.254,0.062-0.323-0.013-0.318-0.242
			c0.003-0.137,0.018-0.277-0.004-0.411c-0.085-0.525,0.134-0.72,0.65-0.651c0.145,0.02,0.313,0.051,0.477-0.081
			c-0.424-0.275-0.975,0.145-1.343-0.271c0.192-0.467,0.604-0.069,0.852-0.216c-0.188-0.01-0.41,0.072-0.6-0.089
			c-0.012-0.024-0.023-0.049-0.035-0.073c0.037-0.042,0.074-0.084,0.11-0.125c0.521-0.096,1.043-0.174,1.575-0.17
			c0.06-0.013,0.121-0.023,0.182-0.032C-199.555,428.906-199.47,428.932-199.398,428.997z"/>
		<path fill="#8C8C8B" d="M-187.382,432.054c-0.568,0-1.135,0.003-1.703-0.003c-0.126-0.001-0.313,0.042-0.316-0.158
			c-0.002-0.194,0.178-0.172,0.31-0.173c0.705-0.003,1.409-0.007,2.114,0c0.272,0.002,0.492,0.007,0.51-0.376
			c0.021-0.441-0.27-0.339-0.504-0.343c-0.489-0.007-0.98-0.027-1.467,0.005c-0.453,0.03-0.537-0.154-0.445-0.553
			c0.083-0.361,0.129-0.731,0.173-1.099c0.034-0.28,0.141-0.625-0.364-0.58c-0.102,0.009-0.199-0.033-0.194-0.16
			c0.005-0.123,0.099-0.16,0.203-0.16c1.115-0.001,2.231-0.001,3.346,0.002c0.106,0,0.201,0.05,0.193,0.169
			c-0.011,0.164-0.152,0.152-0.264,0.152c-0.665,0.004-1.331,0.016-1.996-0.002c-0.328-0.009-0.55,0.071-0.534,0.435
			c0.016,0.367,0.317,0.21,0.495,0.218c0.469,0.022,0.94,0.024,1.409,0.002c0.331-0.015,0.463,0.095,0.424,0.435
			c-0.052,0.446-0.064,0.897-0.114,1.344c-0.04,0.356,0.032,0.572,0.454,0.515c0.124-0.017,0.316-0.043,0.324,0.15
			c0.01,0.253-0.215,0.175-0.35,0.177C-186.247,432.06-186.815,432.055-187.382,432.054z"/>
		<path fill="#8B8B8B" d="M-169.876,430.295c0.374,0.608,0.878,0.896,1.371,1.206c0.124,0.078,0.492,0.049,0.299,0.356
			c-0.152,0.24-0.353,0.031-0.509-0.057c-0.491-0.276-0.893-0.668-1.36-1.222c0,0.62,0.002,1.063-0.001,1.505
			c-0.001,0.115,0.005,0.26-0.159,0.26c-0.146,0-0.183-0.126-0.183-0.25c-0.003-0.423-0.001-0.846-0.001-1.421
			c-0.52,0.508-0.937,0.912-1.432,1.213c-0.119,0.072-0.251,0.257-0.398,0.059c-0.192-0.26,0.101-0.285,0.217-0.362
			c0.517-0.342,1.028-0.687,1.449-1.287c-0.549,0-1.011,0.002-1.474-0.001c-0.114-0.001-0.257,0.005-0.254-0.162
			c0.003-0.157,0.137-0.169,0.256-0.17c0.411-0.003,0.824-0.017,1.234,0.001c0.313,0.014,0.402-0.117,0.404-0.413
			c0.002-0.312-0.122-0.4-0.418-0.408c-0.406-0.011-0.832,0.102-1.341-0.149c0.453-0.211,0.821-0.122,1.17-0.129
			c0.33-0.007,0.654,0.032,0.588-0.467c-0.018-0.134,0.012-0.301,0.208-0.276c0.155,0.02,0.142,0.174,0.13,0.282
			c-0.047,0.434,0.216,0.437,0.545,0.469c0.378,0.036,0.802-0.213,1.135,0.152c-0.348,0.258-0.746,0.091-1.119,0.117
			c-0.313,0.022-0.575-0.004-0.567,0.45c0.008,0.461,0.308,0.361,0.565,0.367c0.372,0.008,0.744,0.002,1.117,0.007
			c0.124,0.001,0.251,0.037,0.249,0.184c-0.003,0.169-0.155,0.144-0.264,0.145C-168.869,430.298-169.319,430.295-169.876,430.295z"
			/>
		<path fill="#8B8B8B" d="M-174.458,429.879c0.142,0.11,0.242,0.206,0.358,0.275c0.195,0.116,0.27,0.515,0.492,0.411
			c0.256-0.12,0.249-0.496,0.33-0.775c0.061-0.209-0.183-0.636,0.205-0.593c0.353,0.039,0.17,0.458,0.141,0.698
			c-0.032,0.264-0.116,0.548-0.262,0.766c-0.314,0.468-0.096,0.665,0.33,0.792c0.119,0.035,0.306-0.036,0.293,0.181
			c-0.014,0.231-0.21,0.185-0.357,0.194c-0.077,0.005-0.191,0.014-0.226-0.029c-0.405-0.501-0.79-0.198-1.233-0.037
			c-0.924,0.337-1.704-0.194-1.627-1.032c0.039-0.428,0.469-0.578,0.596-0.871c0.096-0.22-0.33-0.585-0.191-0.958
			c0.133-0.356,0.421-0.492,0.782-0.505c0.351-0.012,0.672,0.052,0.837,0.406c0.151,0.324,0.06,0.609-0.196,0.845
			C-174.258,429.714-174.335,429.774-174.458,429.879z"/>
		<path fill="#8A8A8A" d="M-165.289,430.663c0.359,0.436,0.864,0.653,1.35,0.9c0.11,0.056,0.303,0.059,0.21,0.265
			c-0.086,0.189-0.233,0.168-0.391,0.086c-0.534-0.278-1.013-0.631-1.51-1.189c0,0.551,0.004,0.953-0.002,1.355
			c-0.002,0.126,0.03,0.305-0.186,0.285c-0.157-0.015-0.15-0.155-0.151-0.27c-0.003-0.406-0.001-0.813-0.001-1.312
			c-0.514,0.414-0.927,0.824-1.433,1.102c-0.136,0.075-0.303,0.272-0.434,0.013c-0.11-0.218,0.123-0.244,0.239-0.318
			c0.442-0.282,0.918-0.517,1.268-0.925c0.043-0.246-0.149-0.18-0.263-0.183c-0.352-0.011-0.704-0.002-1.056-0.005
			c-0.124-0.001-0.254-0.025-0.251-0.176c0.003-0.151,0.137-0.166,0.259-0.17c0.369-0.013,0.734,0.001,1.104-0.088
			c0.307-0.073,0.37-0.241,0.366-0.497c-0.004-0.285-0.195-0.354-0.433-0.363c-0.35-0.013-0.686-0.105-1.025-0.182
			c-0.011-0.312,0.22-0.256,0.403-0.26c0.29-0.006,0.581-0.005,0.871-0.001c0.208,0.002,0.39-0.008,0.386-0.295
			c-0.002-0.138-0.055-0.36,0.189-0.338c0.228,0.021,0.12,0.241,0.153,0.376c0.014,0.056,0.023,0.113,0.034,0.17
			c0.399,0.14,0.811,0.022,1.214,0.066c0.156,0.017,0.407-0.094,0.421,0.17c0.013,0.23-0.222,0.148-0.361,0.18
			c-0.247,0.057-0.494,0.113-0.749,0.125c-0.224,0.011-0.368,0.126-0.37,0.367c-0.003,0.228,0.035,0.401,0.32,0.471
			c0.367,0.091,0.732,0.096,1.103,0.098c0.133,0.001,0.309-0.015,0.302,0.181c-0.007,0.194-0.185,0.164-0.317,0.165
			c-0.332,0.004-0.665-0.003-0.997,0.004C-165.153,430.472-165.329,430.43-165.289,430.663z"/>
		<path fill="#8B8B8B" d="M-195.997,430.967c-0.178,0.149-0.353,0.303-0.536,0.445c-0.084,0.065-0.176,0.176-0.29,0.025
			c-0.1-0.133-0.026-0.21,0.076-0.285c0.332-0.246,0.606-0.545,0.834-0.916c-0.264-0.029-0.447,0.141-0.662,0.201
			c-0.346-0.243-0.346-0.301,0.032-0.508c0.244-0.134,0.613-0.178,0.372-0.605c0.002-0.359,0.235-0.309,0.434-0.214
			c0.294,0.14,0.517,0.085,0.707-0.16c-0.795-0.086-0.89-0.06-1.244,0.344c-0.203,0.148-0.42,0.424-0.56-0.056
			c0.188-0.198,0.376-0.396,0.564-0.595c0.211-0.223,0.304-0.809,0.772-0.187c0.102,0.135,0.521,0.042,0.793,0.037
			c0.444-0.007,0.459,0.212,0.264,0.511c-0.215,0.33-0.504,0.596-0.837,0.807c-0.142,0.09-0.229,0.169-0.173,0.361
			c0.062,0.213,0.219,0.099,0.332,0.128c0.055,0.014,0.119-0.008,0.175,0.004c0.253,0.053,0.611-0.16,0.747,0.14
			c0.134,0.295-0.152,0.545-0.328,0.765c-0.525,0.656-1.27,0.947-2.048,1.171c-0.123,0.035-0.249,0.028-0.288-0.112
			c-0.046-0.165,0.104-0.174,0.209-0.208c0.037-0.012,0.076-0.017,0.114-0.027c0.495-0.131,0.981-0.267,0.544-0.938
			c0.112-0.076,0.225-0.052,0.328,0.01c0.381,0.23,0.605,0.038,0.816-0.29C-195.272,430.725-195.639,430.815-195.997,430.967z"/>
		<path fill="#8C8C8B" d="M-183.489,432.175c-0.211,0.348-0.375,0.212-0.355-0.085c0.044-0.639-0.293-0.541-0.688-0.432
			c-0.161,0.044-0.368,0.14-0.492-0.028c-0.136-0.185,0.174-0.242,0.177-0.362c0.017-0.843,0.215-1.709-0.106-2.518
			c-0.127-0.32-0.047-0.336,0.192-0.335c0.528,0.002,1.055,0.017,1.583,0.027c-0.195,0.57-0.182,1.161-0.179,1.751
			c0.001,0.157-0.047,0.344,0.03,0.464C-182.968,431.217-183.27,431.688-183.489,432.175z"/>
		<path fill="#8C8C8B" d="M-191.868,431.592c0.291-0.498,0.464-1.03,0.482-1.611c0.01-0.325,0.115-0.705-0.44-0.648
			c-0.085,0.009-0.14-0.057-0.147-0.146c-0.01-0.123,0.065-0.193,0.173-0.178c0.456,0.062,0.45-0.23,0.441-0.545
			c-0.005-0.151-0.022-0.353,0.206-0.346c0.223,0.008,0.212,0.215,0.189,0.359c-0.077,0.48,0.171,0.582,0.571,0.521
			c0.431-0.065,0.591,0.089,0.556,0.543c-0.051,0.662-0.018,1.331-0.054,1.995c-0.032,0.578-0.416,0.848-0.953,0.738
			c-0.166-0.034-0.258-0.116-0.243-0.266c0.017-0.177,0.168-0.117,0.276-0.103c0.462,0.059,0.578-0.205,0.579-0.598
			c0.002-0.509,0.012-1.018,0.031-1.526c0.01-0.264-0.011-0.449-0.361-0.444c-0.308,0.004-0.475,0.063-0.462,0.417
			c0.029,0.848-0.204,1.626-0.713,2.308c-0.087,0.116-0.161,0.364-0.389,0.225c-0.228-0.139-0.02-0.306,0.01-0.461
			C-192.077,431.703-191.958,431.663-191.868,431.592z"/>
		<path fill="#8B8B8B" d="M-182.457,428.987c0.4,0.126,0.489-0.192,0.645-0.436c0.101-0.157,0.14-0.516,0.425-0.325
			c0.232,0.155-0.074,0.322-0.133,0.486c-0.025,0.07-0.066,0.134-0.09,0.18c0.046,0.127,0.133,0.107,0.205,0.117
			c0.144,0.021,0.367-0.045,0.354,0.188c-0.013,0.232-0.241,0.117-0.376,0.154c-0.208,0.057-0.532-0.167-0.584,0.272
			c-0.049,0.421,0.111,0.553,0.52,0.534c0.197-0.009,0.567-0.152,0.573,0.154c0.005,0.226-0.365,0.127-0.557,0.113
			c-0.492-0.035-0.538,0.136-0.307,0.518c0.183,0.304,0.384,0.587,0.657,0.82c0.105,0.09,0.398,0.121,0.182,0.375
			c-0.227,0.267-0.334-0.012-0.459-0.117c-0.317-0.267-0.519-0.629-0.758-1.073c-0.2,0.479-0.418,0.858-0.747,1.161
			c-0.164,0.151-0.309,0.234-0.502,0.066c-0.117-0.239,0.073-0.359,0.199-0.497c0.147-0.16,0.284-0.324,0.387-0.516
			c0.167-0.313,0.2-0.563-0.262-0.615c-0.154-0.017-0.347-0.049-0.355-0.243c-0.009-0.239,0.211-0.243,0.38-0.277
			c0.115-0.023,0.235-0.023,0.344-0.073c0.097-0.045,0.155-0.118,0.138-0.231c-0.017-0.114-0.105-0.154-0.199-0.19
			c-0.233-0.088-0.681-0.043-0.532-0.435C-183.16,428.711-182.773,428.809-182.457,428.987z"/>
		<path fill="#8D8D8C" d="M-180.104,432.259c-0.249,0.081-0.255-0.091-0.255-0.253c-0.002-1.094,0.005-2.188-0.005-3.281
			c-0.003-0.301,0.149-0.354,0.402-0.352c0.957,0.007,1.914,0.01,2.871-0.002c0.294-0.004,0.419,0.084,0.414,0.397
			c-0.015,0.996-0.008,1.992-0.005,2.988c0.001,0.236-0.066,0.444-0.31,0.503c-0.263,0.063-0.54,0.077-0.803-0.019
			c-0.034-0.013-0.063-0.098-0.059-0.147c0.017-0.169,0.156-0.145,0.266-0.14c0.344,0.017,0.66,0.013,0.528-0.485
			c-0.294-0.575-0.143-1.19-0.146-1.787c-0.005-0.852,0.011-0.868-0.829-0.852c-0.584,0.011-1.174-0.092-1.749,0.083
			c-0.224,0.175-0.153,0.425-0.152,0.647C-179.93,430.464-179.931,431.366-180.104,432.259z"/>
		<path fill="#FDFEFE" d="M-179.964,428.648c0.823,0.005,1.646,0.024,2.469,0.007c0.355-0.008,0.486,0.098,0.471,0.465
			c-0.032,0.783-0.026,1.567-0.036,2.35c-0.04-0.002-0.079-0.004-0.119-0.007c-0.463-0.604-0.834-1.22-0.367-1.741
			c-0.25,0.409-0.25,0.409-0.935-0.23c-0.047-0.024-0.092-0.05-0.137-0.076c-0.311-0.103-0.263,0.204-0.371,0.328
			c-0.087,0.1-0.148,0.262-0.312,0.182c-0.303-0.147-0.388-0.508-0.669-0.703C-180.12,429.118-180.098,428.841-179.964,428.648z"/>
		<path fill="#8C8C8B" d="M-196.692,430.645c-0.251,0.406-0.407-0.079-0.696-0.064c0,0.493,0.003,0.991-0.002,1.49
			c-0.001,0.127,0.032,0.313-0.17,0.306c-0.189-0.007-0.166-0.185-0.167-0.318c-0.004-0.4-0.001-0.8-0.102-1.219
			c-0.076,0.127-0.14,0.262-0.231,0.377c-0.07,0.088-0.095,0.311-0.28,0.182c-0.125-0.088-0.099-0.237-0.012-0.368
			c0.087-0.13,0.194-0.26,0.232-0.406c0.096-0.373,0.798-0.89-0.241-0.969c0.084-0.258,0.246-0.2,0.367-0.204
			c0.258-0.008,0.265-0.176,0.264-0.363c-0.001-0.168-0.013-0.313-0.243-0.314c-0.122,0-0.325,0.064-0.328-0.134
			c-0.004-0.218,0.223-0.176,0.361-0.197c0.212-0.032,0.432-0.056,0.644-0.034c0.163,0.017,0.449-0.209,0.473,0.115
			c0.019,0.259-0.299,0.167-0.459,0.249c-0.081,0.323-0.22,0.663,0.354,0.645c0.184-0.006,0.231,0.211,0.102,0.285
			c-0.496,0.283-0.148,0.472,0.046,0.687C-196.716,430.463-196.643,430.533-196.692,430.645z"/>
		<path fill="#8D8D8C" d="M-204.114,429.837c-0.003,0.078,0.003,0.158-0.01,0.234c-0.105,0.595,0.018,0.972,0.745,0.82
			c0.117-0.024,0.308-0.048,0.313,0.155c0.005,0.202-0.177,0.169-0.305,0.171c-0.285,0.006-0.57,0.002-0.896,0.124
			c0.323,0.192,0.647,0.383,0.968,0.577c0.094,0.057,0.238,0.098,0.16,0.252c-0.08,0.158-0.228,0.169-0.341,0.059
			c-0.652-0.639-1.291-0.478-1.944-0.002c-0.106,0.077-0.252,0.103-0.383,0.14c-0.146,0.041-0.224-0.06-0.259-0.174
			c-0.042-0.136,0.091-0.149,0.172-0.181c0.423-0.17,0.881-0.284,1.221-0.792c-0.355,0-0.621,0.022-0.882-0.008
			c-0.183-0.021-0.514,0.152-0.515-0.175c0-0.268,0.312-0.109,0.482-0.152c0.335-0.085,0.697,0.109,1.022-0.095
			c0.09-0.228,0.028-0.458,0.022-0.69C-204.552,429.796-204.424,429.653-204.114,429.837z"/>
		<path fill="#FDFEFE" d="M-182.457,428.987c-0.019,0.002-0.04,0-0.058,0.006c-0.239,0.088-0.682-0.142-0.701,0.182
			c-0.02,0.344,0.399,0.138,0.618,0.168c0.263,0.037,0.248,0.195,0.244,0.374c-0.004,0.198,0.01,0.408-0.274,0.425
			c-0.243,0.015-0.486,0.03-0.768,0.047c0.128,0.332,0.356,0.248,0.521,0.239c0.466-0.027,0.451,0.177,0.341,0.538
			c-0.157,0.513-0.632,0.774-0.873,1.212c-0.027-0.001-0.054-0.002-0.081-0.002c0.006-0.289-0.19-0.635,0.233-0.806
			c0.084-0.034,0.122-0.164,0.072-0.186c-0.658-0.279-0.262-0.838-0.318-1.257c-0.068-0.511-0.117-1.064,0.324-1.485
			c0.016-0.108,0.033-0.217,0.159-0.257c0.194,0.228,0.365,0.474,0.563,0.699C-182.456,428.919-182.456,428.953-182.457,428.987z"/>
		<path fill="#8D8D8C" d="M-191.868,431.592c-0.008,0.158-0.098,0.228-0.249,0.234c-0.41-0.196-0.834-0.127-1.258-0.068
			c-0.166,0.023-0.347,0.125-0.484-0.065c-0.14-0.194,0.019-0.317,0.106-0.466c0.117-0.203,0.219-0.416,0.311-0.631
			c0.123-0.287,0.31-0.617-0.279-0.568c-0.125,0.01-0.236-0.056-0.213-0.21c0.02-0.132,0.142-0.115,0.233-0.116
			c0.529-0.004,1.058-0.004,1.588,0c0.116,0.001,0.251,0.004,0.233,0.178c-0.012,0.12-0.113,0.168-0.212,0.151
			c-1.105-0.189-0.95,0.802-1.417,1.402c0.436-0.043,0.721-0.072,0.99-0.098c0.102-0.288-0.383-0.619-0.048-0.736
			c0.341-0.119,0.299,0.395,0.456,0.609C-192.022,431.329-192.026,431.511-191.868,431.592z"/>
		<path fill="#8E8E8D" d="M-179.964,428.648c-0.072,0.262-0.162,0.484,0.251,0.594c0.24,0.064,0.245,0.473,0.513,0.634
			c0.088-0.206,0.152-0.415,0.262-0.596c0.152-0.252,0.287-0.226,0.353,0.068c0.006,0.038,0.02,0.082,0.004,0.113
			c-0.327,0.611-0.173,1.166,0.191,1.698c-0.012,0.118-0.023,0.237-0.195,0.19c-0.298-0.107-0.473-0.338-0.621-0.694
			c-0.263,0.609-0.914,0.906-0.896,1.603c0-1.008-0.005-2.016,0.004-3.024C-180.098,429.035-180.189,428.801-179.964,428.648z"/>
		<path fill="#8E8E8E" d="M-205.987,429.373c0.234-0.008,0.47,0.001,0.7-0.03c0.179-0.024,0.495,0.141,0.483-0.224
			c-0.009-0.295-0.284-0.186-0.459-0.208c-0.2-0.025-0.42,0.051-0.607-0.097c0.083-0.274,0.291-0.166,0.442-0.184
			c0.282-0.035,0.655,0.126,0.684-0.385c0.007-0.12,0.236-0.185,0.253-0.062c0.092,0.667,0.594,0.384,0.947,0.444
			c0.122,0.021,0.279-0.045,0.356,0.173c-0.187,0.181-0.43,0.073-0.64,0.111c-0.207,0.038-0.554-0.131-0.571,0.214
			c-0.019,0.392,0.346,0.165,0.536,0.218c0.109,0.03,0.235,0.02,0.349,0.003c0.412-0.063,0.465,0.149,0.378,0.476
			c-0.035,0.133,0.05,0.379-0.193,0.34c-0.283-0.045-0.133-0.253-0.082-0.407c-0.252-0.224-0.541-0.117-0.807-0.065
			c-0.544,0.106-1.076,0.041-1.61-0.051C-205.988,429.612-206.09,429.554-205.987,429.373z"/>
		<path fill="#DE4513" d="M-196.6,418.85c0.156,0,0.315,0.017,0.469-0.003c0.363-0.049,0.42,0.139,0.405,0.445
			c-0.013,0.268,0.018,0.519-0.381,0.48c-0.252-0.024-0.508-0.002-0.762-0.005c-0.331-0.004-0.685,0.121-0.681-0.48
			c0.004-0.588,0.362-0.414,0.657-0.437C-196.796,418.844-196.697,418.85-196.6,418.85z"/>
		<path fill="#DE4513" d="M-191.961,419.768c-0.156,0-0.313-0.017-0.466,0.003c-0.427,0.056-0.39-0.219-0.407-0.506
			c-0.021-0.338,0.101-0.449,0.429-0.42c0.27,0.024,0.544,0.004,0.816,0.005c0.301,0.001,0.598-0.085,0.599,0.435
			c0.002,0.523-0.274,0.503-0.621,0.485C-191.727,419.763-191.844,419.768-191.961,419.768z"/>
		<path fill="#959494" d="M-201.874,429.36c-0.266-0.011-0.137,0.194-0.139,0.292c-0.012,0.761-0.002,1.523-0.01,2.284
			c-0.002,0.157,0.063,0.417-0.204,0.389c-0.205-0.021-0.115-0.257-0.116-0.396c-0.008-1.152-0.007-2.304-0.001-3.455
			c0.001-0.122-0.071-0.32,0.113-0.345c0.232-0.031,0.22,0.188,0.206,0.331c-0.042,0.406,0.266,0.567,0.508,0.778
			c0,0-0.002-0.01-0.002-0.01C-201.547,429.516-201.722,429.406-201.874,429.36z"/>
		<path fill="#F8F8F8" d="M-165.289,430.663c-0.24-0.198-0.111-0.215,0.101-0.229c0.472-0.029,0.956,0.088,1.421-0.136
			c-0.441-0.208-0.917-0.143-1.372-0.122c-0.445,0.021-0.528-0.17-0.499-0.549c0.025-0.323-0.084-0.681,0.473-0.633
			c0.384,0.034,0.787,0.063,1.336-0.095c-0.674-0.321-1.261-0.01-1.764-0.259c0.423,0,0.845-0.006,1.268,0.003
			c0.177,0.004,0.427-0.07,0.443,0.224c0.017,0.306-0.245,0.218-0.416,0.257c-0.054,0.012-0.102,0.05-0.152,0.075
			c-0.077,0.304-0.64,0.392-0.378,0.847c0.233,0.002,0.468-0.006,0.7,0.011c0.191,0.014,0.488-0.095,0.476,0.252
			c-0.01,0.294-0.278,0.192-0.454,0.219C-164.5,430.59-164.922,430.389-165.289,430.663z"/>
		<path fill="#8E8E8D" d="M-178.586,431.349c0.098-0.038,0.126-0.12,0.133-0.214c-0.078-0.112-0.049-0.23,0.013-0.326
			c0.206-0.317,0.15-0.611-0.024-0.922c-0.093-0.166-0.284-0.371,0.029-0.529c0.337,0.029,0.302,0.431,0.565,0.556
			c0.207-0.104,0.21-0.345,0.315-0.52c0.064-0.108,0.061-0.315,0.255-0.242c0.24,0.091,0.095,0.277,0.022,0.386
			c-0.38,0.568-0.396,1.107,0.061,1.644c0.051,0.06,0.027,0.184,0.037,0.278c-0.49,0.075-0.378-0.471-0.663-0.627
			c-0.23,0.124-0.283,0.396-0.432,0.592c-0.119,0.157-0.225,0.218-0.353,0.017c-0.008-0.013-0.008-0.039-0.001-0.054
			C-178.62,431.374-178.6,431.363-178.586,431.349z"/>
		<path fill="#DD4112" d="M-196.647,418.316c-0.136,0-0.274-0.012-0.409,0.002c-0.323,0.035-0.495-0.029-0.485-0.427
			c0.009-0.352,0.088-0.502,0.458-0.457c0.23,0.028,0.468-0.009,0.701,0.009c0.286,0.022,0.659-0.168,0.668,0.42
			c0.008,0.569-0.328,0.446-0.64,0.452C-196.452,418.318-196.549,418.316-196.647,418.316z"/>
		<path fill="#DD4112" d="M-191.87,417.44c0.155,0,0.312,0.017,0.465-0.003c0.365-0.048,0.398,0.152,0.402,0.448
			c0.004,0.313-0.069,0.469-0.416,0.436c-0.269-0.026-0.543,0.001-0.814-0.007c-0.284-0.008-0.602,0.123-0.612-0.414
			c-0.01-0.553,0.305-0.463,0.625-0.461C-192.103,417.441-191.987,417.44-191.87,417.44z"/>
		<path fill="#F8F8F8" d="M-167.63,428.99c0.33,0.005,0.661,0.013,0.991,0.015c0.608,0.003,0.891,0.445,0.653,1.005
			c-0.087,0.205-0.251,0.141-0.394,0.154c-0.484,0.044-0.983-0.084-1.584,0.118c0.525,0.257,0.969,0.098,1.385,0.164
			c0.092,0.015,0.415-0.15,0.247,0.207c-0.352-0.247-0.751-0.066-1.123-0.125c-0.189-0.03-0.488,0.106-0.503-0.223
			c-0.017-0.342,0.286-0.232,0.476-0.246c0.231-0.018,0.465-0.009,0.697-0.012c0.285-0.463-0.285-0.532-0.378-0.82
			C-167.264,429.043-167.536,429.193-167.63,428.99z"/>
		<path fill="#919192" d="M-199.639,428.993c-0.574,0.271-1.18,0.055-1.768,0.12c0.119-0.216,0.57,0.055,0.522-0.273
			c-0.042-0.288-0.398-0.118-0.611-0.17c-0.068-0.017-0.133-0.048-0.267-0.098c0.355-0.264,0.874-0.004,1.061-0.459
			c0.041,0.033,0.105,0.058,0.12,0.1c0.129,0.361,0.544,0.268,0.629,0.182c0.534-0.54,0.875,0.344,1.418-0.039
			c-0.214,0.551-0.887,0.005-0.865,0.641c-0.081-0.001-0.163-0.001-0.244-0.002c-0.158-0.113-0.324-0.205-0.543-0.181
			C-199.997,428.881-199.793,428.864-199.639,428.993z"/>
		<path fill="#8F8F8F" d="M-206.984,429.631c0.451-0.075,0.554,0.07,0.542,0.371c-0.016,0.428-0.006,0.858-0.002,1.287
			c0.001,0.158-0.018,0.357,0.246,0.198c0.099-0.06,0.206-0.149,0.272,0.035c0.039,0.109-0.018,0.193-0.096,0.254
			c-0.138,0.108-0.284,0.206-0.428,0.306c-0.094,0.066-0.191,0.155-0.314,0.075c-0.113-0.074-0.089-0.18-0.08-0.306
			c0.033-0.465,0.038-0.933,0.045-1.4c0.004-0.243,0.075-0.534-0.337-0.523c-0.119,0.003-0.17-0.099-0.123-0.204
			C-207.174,429.532-206.988,429.632-206.984,429.631z"/>
		<path fill="#F6F6F6" d="M-196.692,430.645c-0.125-0.12-0.252-0.239-0.376-0.361c-0.11-0.11-0.37-0.081-0.314-0.347
			c0.053-0.251,0.269-0.171,0.422-0.222c0.049-0.016,0.089-0.059,0.193-0.13c-0.376-0.166-0.921-0.233-0.515-0.809
			c0.049,0.251-0.167,0.761,0.448,0.461c0.166,0.408,0.336,0.064,0.505,0.003c0.128-0.069,0.158,0.039,0.206,0.114
			c0.449,0.234,0.38,0.42-0.053,0.573c-0.147,0.052-0.299,0.095-0.438,0.163c-0.291,0.142-0.145,0.25,0.038,0.347
			C-196.579,430.526-196.605,430.602-196.692,430.645z"/>
		<path fill="#FBFBFC" d="M-195.997,430.967c0.331-0.624,0.888-0.196,1.334-0.343c0.029,0.26-0.126,0.366-0.236,0.489
			c-0.251,0.281-0.511,0.489-0.834,0.072c-0.047-0.061-0.172-0.061-0.261-0.089C-195.996,431.053-195.996,431.01-195.997,430.967z"
			/>
		<path fill="#979696" d="M-205.987,429.373c0.056,0.284,0.284,0.206,0.462,0.209c0.538,0.007,1.076-0.003,1.614,0.006
			c0.178,0.003,0.398-0.079,0.5,0.167c-0.227-0.096-0.46-0.084-0.695-0.033c-0.338,0.072-0.674,0.177-0.907,0.086
			c-0.195-0.03-0.161,0.108-0.15,0.03c0.003-0.019,0.011-0.025,0.026-0.025c0.257-0.009,0.454,0.056,0.454,0.366
			c-0.102,0.153-0.203,0.154-0.383,0.083c-0.384-0.153-0.531-0.639-0.995-0.674C-206.108,429.584-206.109,429.416-205.987,429.373z"
			/>
		<path fill="#8B8B8B" d="M-192.925,428.808c-0.267-0.096-0.745,0.133-0.75-0.17c-0.005-0.274,0.484-0.131,0.747-0.133
			c0.291-0.002,0.859-0.086,0.828,0.102C-192.166,429.017-192.65,428.671-192.925,428.808z"/>
		<path fill="#9B9B9B" d="M-202.831,429.706c0.09-0.182-0.107-0.529,0.234-0.559c0.215-0.019,0.152,0.258,0.109,0.375
			c-0.086,0.234,0.062,0.657-0.257,0.673C-203.031,430.211-202.786,429.886-202.831,429.706z"/>
		<path fill="#939293" d="M-164.829,430.048c-0.243-0.003-0.424-0.089-0.227-0.339c0.16-0.203,0.281-0.487,0.605-0.508
			C-164.203,429.65-164.758,429.742-164.829,430.048z"/>
		<path fill="#F8F8F8" d="M-204.683,430.179c-0.079-0.245-0.399-0.215-0.523-0.456c0.38-0.091,0.741-0.005,1.1,0
			c0,0.039-0.003,0.077-0.008,0.115c-0.254-0.084-0.354,0.007-0.354,0.274c0,0.228,0.052,0.471-0.099,0.68
			C-204.615,430.589-204.5,430.355-204.683,430.179z"/>
		<path fill="#8F8F8F" d="M-206.173,428.913c-0.041,0.112-0.111,0.178-0.213,0.193c-0.101,0.015-0.636-0.563-0.607-0.658
			c0.03-0.1,0.133-0.195,0.219-0.146C-206.516,428.445-206.329,428.672-206.173,428.913z"/>
		<path fill="#909091" d="M-167.162,429.227c0.378-0.003,0.53,0.304,0.667,0.559c0.082,0.153-0.121,0.247-0.289,0.262
			C-166.792,429.72-167.332,429.637-167.162,429.227z"/>
		<path fill="#959494" d="M-182.456,428.884c-0.413-0.052-0.517-0.352-0.563-0.699
			C-182.577,428.214-182.404,428.459-182.456,428.884z"/>
		<path fill="#989898" d="M-205.648,430.225c0.188,0.129,0.49,0.139,0.583,0.41c0.036,0.105-0.097,0.179-0.193,0.132
			c-0.22-0.107-0.503-0.148-0.602-0.411C-205.893,430.269-205.787,430.188-205.648,430.225z"/>
		<path fill="#F2F2F2" d="M-201.874,429.36c0.147,0.033,0.269-0.001,0.355-0.132c0.355,0.213,0.77-0.012,1.294,0.129
			c-0.582,0.279-1.094-0.01-1.51,0.259C-201.781,429.531-201.827,429.445-201.874,429.36z"/>
		<path fill="#FFFEFE" d="M-169.493,416.293c-0.434-0.246-0.901-0.084-1.352-0.106c-0.188-0.009-0.169,0.177-0.196,0.306
			c-0.048,0.227-0.098,0.454-0.157,0.726c-0.069-0.089-0.148-0.143-0.155-0.205c-0.082-0.734-0.496-0.975-1.194-0.848
			c-0.178,0.032-0.396,0.064-0.389-0.262c0.007-0.284,0.081-0.438,0.397-0.437c2.111,0.006,4.223,0.005,6.334,0
			c0.318-0.001,0.395,0.17,0.404,0.444c0.01,0.327-0.22,0.253-0.403,0.26c-0.948,0.038-0.947,0.037-1.208,0.928
			c-0.032,0.11-0.079,0.216-0.147,0.401c-0.062-0.191-0.106-0.304-0.136-0.421c-0.249-0.955-0.398-1.039-1.368-0.918
			c-0.285,0.036-0.224,0.197-0.239,0.358C-169.496,416.553-169.424,416.364-169.493,416.293z"/>
		<path fill="#FFFEFE" d="M-169.493,416.293c0.064,0.076,0.127,0.152,0.191,0.228c0.215,0.89,0.376,1.799,0.664,2.665
			c0.221,0.666,0.187,1.246-0.142,1.843c-0.159,0.288-0.277,0.599-0.444,0.965c-0.502-0.701-0.774-1.449-1.082-2.178
			c-0.026-0.062,0.002-0.153,0.02-0.227C-170.024,418.49-169.758,417.392-169.493,416.293z"/>
		<path fill="#FCF3EF" d="M-165.816,422.315c-0.503-0.606-0.712-1.338-0.978-2.045c-0.026-0.069-0.037-0.161-0.016-0.229
			c0.304-0.973,0.615-1.943,0.994-2.896C-165.816,418.868-165.816,420.591-165.816,422.315z"/>
		<path fill="#FFFEFE" d="M-172.888,417.105c0.238,0.627,0.385,1.157,0.632,1.635c0.408,0.788,0.402,1.543,0.038,2.338
			c-0.233,0.509-0.4,1.047-0.67,1.562C-172.888,420.832-172.888,419.024-172.888,417.105z"/>
		<path fill="#FFFFFE" d="M-196.241,423.342c0.176,0,0.354,0.015,0.528-0.003c0.362-0.037,0.567,0.015,0.558,0.48
			c-0.008,0.427-0.146,0.537-0.541,0.505c-0.389-0.031-0.784-0.024-1.174-0.002c-0.372,0.021-0.56-0.047-0.567-0.497
			c-0.007-0.454,0.176-0.526,0.55-0.487C-196.674,423.36-196.457,423.342-196.241,423.342z"/>
		<path fill="#FFFEFD" d="M-192.218,423.341c0.176,0,0.353,0.009,0.528-0.002c0.333-0.02,0.584-0.035,0.579,0.458
			c-0.005,0.485-0.211,0.552-0.605,0.525c-0.351-0.024-0.711-0.048-1.055,0.004c-0.611,0.093-0.612-0.259-0.591-0.689
			c0.011-0.235,0.105-0.306,0.322-0.298C-192.766,423.349-192.492,423.342-192.218,423.341z"/>
		<path fill="#FEFAF9" d="M-196.298,422.3c-0.214,0-0.428-0.01-0.642,0.002c-0.299,0.017-0.514,0.01-0.495-0.411
			c0.017-0.382,0.145-0.523,0.519-0.505c0.407,0.02,0.817,0.015,1.225,0.001c0.324-0.012,0.531,0.003,0.538,0.447
			c0.007,0.473-0.213,0.498-0.562,0.469C-195.908,422.287-196.104,422.3-196.298,422.3z"/>
		<path fill="#FDF9F7" d="M-192.229,422.3c-0.214,0-0.428-0.012-0.641,0.003c-0.305,0.021-0.514,0.002-0.502-0.415
			c0.011-0.366,0.087-0.535,0.489-0.506c0.445,0.032,0.893,0.015,1.34,0.006c0.394-0.008,0.407,0.24,0.424,0.539
			c0.019,0.328-0.125,0.398-0.41,0.376C-191.762,422.286-191.996,422.3-192.229,422.3z"/>
		<path fill="#FFFEFE" d="M-181.122,416.271c0.741-0.61,1.485-0.167,2.179-0.396c-0.399,0.733-0.55,0.77-1.225,0.51
			C-180.411,416.291-180.698,416.316-181.122,416.271z"/>
		<path fill="#FFFFFF" d="M-200.744,430.518c-0.171-0.035-0.419,0.051-0.404-0.157c0.017-0.232,0.276-0.144,0.434-0.145
			c0.131-0.001,0.371-0.074,0.334,0.173C-200.411,430.605-200.647,430.445-200.744,430.518z"/>
		<path fill="#FFFFFF" d="M-199.601,430.512c-0.14-0.031-0.388,0.058-0.369-0.155c0.02-0.23,0.278-0.135,0.437-0.143
			c0.123-0.006,0.335-0.051,0.332,0.125C-199.206,430.605-199.459,430.468-199.601,430.512z"/>
		<path fill="#FFFFFF" d="M-200.211,430.882c-0.423,0.124-0.674,0.14-1.089-0.026C-200.878,430.709-200.627,430.692-200.211,430.882
			z"/>
		<path fill="#FFFFFF" d="M-200.127,430.856c0.422-0.148,0.674-0.164,0.983-0.025C-199.44,431.064-199.696,431.008-200.127,430.856z
			"/>
		<path fill="#FDFEFE" d="M-187.462,430.665c-0.155,0-0.32,0.032-0.464-0.008c-0.193-0.053-0.558,0.212-0.55-0.25
			c0.006-0.371-0.013-0.77,0.575-0.695c0.325,0.041,0.662-0.014,0.989,0.015c0.201,0.018,0.578-0.179,0.519,0.295
			c-0.04,0.322,0.032,0.757-0.546,0.648C-187.108,430.638-187.288,430.665-187.462,430.665z"/>
		<path fill="#FDFEFE" d="M-174.861,431.474c-0.426-0.007-0.743-0.18-0.742-0.641c0.001-0.395,0.265-0.654,0.64-0.739
			c0.25-0.057,1,0.641,1.011,0.896C-173.941,431.21-174.437,431.474-174.861,431.474z"/>
		<path fill="#FCFDFD" d="M-174.823,429.66c-0.256-0.046-0.4-0.23-0.417-0.472c-0.019-0.272,0.156-0.427,0.43-0.444
			c0.237-0.015,0.436,0.058,0.466,0.325C-174.305,429.406-174.546,429.542-174.823,429.66z"/>
		<path fill="#F6F5F5" d="M-196.123,429.353c-0.069-0.038-0.137-0.076-0.206-0.114c0.357-0.706,0.977-0.416,1.633-0.456
			c-0.371,0.388-0.546,0.949-1.13,0.416C-196,429.041-196.107,429.142-196.123,429.353z"/>
		<path fill="#F6F6F6" d="M-184.2,430.561c0.231-0.021,0.345,0.057,0.346,0.289c0.001,0.22-0.037,0.371-0.305,0.391
			c-0.235,0.018-0.316-0.073-0.308-0.293C-184.459,430.75-184.487,430.534-184.2,430.561z"/>
		<path fill="#FDFEFE" d="M-183.863,429.964c0.023,0.209-0.048,0.323-0.282,0.322c-0.208-0.001-0.323-0.056-0.32-0.289
			c0.002-0.204,0.051-0.327,0.287-0.325C-183.971,429.674-183.841,429.73-183.863,429.964z"/>
		<path fill="#FFFFFF" d="M-184.174,428.748c0.215-0.024,0.315,0.063,0.316,0.289c0.001,0.212-0.061,0.317-0.292,0.315
			c-0.21-0.001-0.32-0.058-0.315-0.291C-184.461,428.855-184.41,428.723-184.174,428.748z"/>
		<path fill="#FBFBFC" d="M-178.434,429.359c-0.071,0.105-0.102,0.215-0.007,0.319c0.451,0.49,0.354,0.974-0.011,1.457
			c-0.65-0.679-0.661-0.835-0.134-1.787C-178.535,429.352-178.485,429.355-178.434,429.359z"/>
		<path fill="#FBFBFC" d="M-179.987,431.163c0-0.591,0-1.143,0-1.698C-179.303,430.162-179.299,430.385-179.987,431.163z"/>
		<path fill="#EFEEEE" d="M-199.639,428.993c-0.116,0.006-0.236,0.03-0.349,0.013c-0.191-0.029-0.431,0.124-0.563-0.131
			c-0.017-0.033,0.021-0.132,0.055-0.147c0.239-0.097,0.488-0.122,0.716,0.016c0.07,0.043,0.093,0.164,0.137,0.25
			C-199.642,428.995-199.639,428.993-199.639,428.993z"/>
	</g>
</g>
</svg>
