<?xml version="1.0" encoding="utf-8"?>
<!-- Generator: Adobe Illustrator 16.0.0, SVG Export Plug-In . SVG Version: 6.00 Build 0)  -->
<!DOCTYPE svg PUBLIC "-//W3C//DTD SVG 1.1//EN" "http://www.w3.org/Graphics/SVG/1.1/DTD/svg11.dtd">
<svg version="1.1" id="图层_1" xmlns="http://www.w3.org/2000/svg" xmlns:xlink="http://www.w3.org/1999/xlink" x="0px" y="0px"
	 width="20px" height="20px" viewBox="0 0 20 20" enable-background="new 0 0 20 20" xml:space="preserve">
<g>
	<rect x="0.022" y="0.022" fill="#F4F4F4" width="19.955" height="19.955"/>
	<g>
		<g transform="scale(0.1953125, 0.1953125)">
			<path fill="#B1BCC2" d="M57.055,80.445H45.343c-11.03,0-19.743,0-19.743-5.605v-1.155c0-10.715,8.853-19.435,19.743-19.435
				h11.713c10.885,0,19.745,8.72,19.745,19.435v1.155C76.8,80.445,67.645,80.445,57.055,80.445z M50.613,52.768
				c-8.62,0-15.638-6.913-15.638-15.408s7.018-15.408,15.638-15.408c8.618,0,15.638,6.913,15.638,15.408S59.23,52.768,50.613,52.768
				z"/>
		</g>
	</g>
</g>
</svg>
