<?xml version="1.0" encoding="utf-8"?>
<!-- Generator: Adobe Illustrator 16.0.0, SVG Export Plug-In . SVG Version: 6.00 Build 0)  -->
<!DOCTYPE svg PUBLIC "-//W3C//DTD SVG 1.1//EN" "http://www.w3.org/Graphics/SVG/1.1/DTD/svg11.dtd">
<svg version="1.1" id="图层_1" xmlns="http://www.w3.org/2000/svg" xmlns:xlink="http://www.w3.org/1999/xlink" x="0px" y="0px"
	 width="29.713px" height="23.768px" viewBox="0 0 29.713 23.768" enable-background="new 0 0 29.713 23.768" xml:space="preserve">
<g>
	<rect fill="#FFFFFF" width="29.713" height="23.768"/>
	<g>
		<g transform="scale(0.1953125, 0.1953125)">
			<path fill="#E0E0E0" d="M15.22,0h121.69c2.18,0,4.28,0.46,6.22,1.345L76.07,79.58L9.008,1.333C10.948,0.46,13.045,0,15.22,0
				L15.22,0z M0.013,106.48V15.213c0-0.325,0.013-0.64,0.025-0.95L44.648,66.3L0.53,110.42C0.193,109.14,0,107.83,0,106.48H0.013z
				 M136.91,121.69H15.22c-1.338,0-2.663-0.18-3.938-0.52l43.295-43.29l21.493,25.08l21.49-25.08l43.28,43.29
				C139.57,121.51,138.26,121.69,136.91,121.69z M152.13,106.48c0,1.35-0.19,2.66-0.53,3.94L107.49,66.3l44.61-52.038
				c0.01,0.31,0.01,0.625,0.01,0.95v91.268H152.13z"/>
		</g>
	</g>
	<g>
		<circle fill="#FFFFFF" cx="24.392" cy="17.967" r="5.321"/>
		<g>
			<g transform="scale(0.1953125, 0.1953125)">
				<path fill="#7CB342" d="M124.88,64.74c-15.04,0-27.24,12.2-27.24,27.25c0,15.04,12.2,27.24,27.24,27.24
					c15.05,0,27.25-12.2,27.25-27.24C152.13,76.94,139.93,64.74,124.88,64.74z M122.01,105.89l-14.3-14.45l4.47-4.43l9.81,9.9
					l17.76-17.61l4.43,4.48L122.01,105.89z"/>
			</g>
		</g>
	</g>
</g>
</svg>
