<?xml version="1.0" encoding="utf-8"?>
<!-- Generator: Adobe Illustrator 16.0.0, SVG Export Plug-In . SVG Version: 6.00 Build 0)  -->
<!DOCTYPE svg PUBLIC "-//W3C//DTD SVG 1.1//EN" "http://www.w3.org/Graphics/SVG/1.1/DTD/svg11.dtd">
<svg version="1.1" id="图层_1" xmlns="http://www.w3.org/2000/svg" xmlns:xlink="http://www.w3.org/1999/xlink" x="0px" y="0px"
	 width="140.513px" height="22px" viewBox="15.5 13.906 140.513 22" enable-background="new 15.5 13.906 140.513 22"
	 xml:space="preserve">
<g>
	<g>
		<path fill="#00ABFF" d="M48.927,22.551c2.343-1.593,4.171-3.632,5.484-6.117l0.984,0.211c-0.048,0.047-0.118,0.165-0.211,0.352
			c-0.095,0.141-0.165,0.258-0.211,0.352c1.171,1.031,2.602,2.345,4.289,3.938l-0.773,0.703c-1.032-1.125-2.345-2.414-3.938-3.867
			c-1.313,1.969-2.978,3.727-4.992,5.273c-0.048-0.046-0.118-0.141-0.211-0.281C49.208,22.879,49.067,22.691,48.927,22.551z
			 M50.896,22.691h6.961c0,1.172-0.048,2.367-0.141,3.586c-0.095,1.453-0.914,2.156-2.461,2.109c-0.657,0.047-1.266,0.07-1.828,0.07
			c0-0.141-0.024-0.305-0.07-0.492c-0.048-0.234-0.095-0.397-0.141-0.492c0.187,0,0.492,0,0.914,0
			c0.468,0.047,0.819,0.07,1.055,0.07c0.984,0.047,1.522-0.422,1.617-1.406c0.046-0.234,0.07-0.656,0.07-1.266
			c0.046-0.608,0.07-1.055,0.07-1.336H51.81v7.102c-0.048,0.844,0.468,1.241,1.547,1.195h2.602c1.077,0,1.71-0.306,1.898-0.914
			c0.141-0.562,0.257-1.241,0.352-2.039c0.327,0.188,0.655,0.306,0.984,0.352c-0.048,0.657-0.211,1.336-0.492,2.039
			c-0.235,0.984-1.079,1.477-2.531,1.477h-3.023c-1.547,0.046-2.298-0.633-2.25-2.039V22.691z M60.317,18.402h0.914V29.23h-0.914
			V18.402z M64.044,16.574h0.984v14.484c0,1.219-0.657,1.852-1.969,1.898c-0.703,0.046-1.431,0.07-2.18,0.07
			c-0.048-0.376-0.118-0.703-0.211-0.984c0.703,0,1.452,0,2.25,0c0.749,0,1.125-0.352,1.125-1.055V16.574z"/>
		<path fill="#00ABFF" d="M76.7,32.605c-3.001-0.047-5.203-0.68-6.609-1.898c-0.61,0.797-1.454,1.663-2.531,2.602
			c-0.048-0.047-0.095-0.095-0.141-0.141c-0.235-0.281-0.422-0.469-0.562-0.562c1.312-1.079,2.155-1.944,2.531-2.602
			c-0.798-0.984-1.477-2.296-2.039-3.938l0.844-0.352c0.468,1.406,1.055,2.556,1.758,3.445c0.515-0.984,0.914-2.577,1.195-4.781
			h-3.656v-1.055l3.656-4.359h-3.797v-0.844H72.2v0.914l-3.797,4.5h3.656v0.844c-0.329,2.531-0.821,4.384-1.477,5.555
			c1.171,1.172,3.257,1.758,6.258,1.758c0.984,0.046,3.351,0.07,7.102,0.07c-0.141,0.187-0.259,0.492-0.352,0.914
			C80.73,32.676,78.434,32.651,76.7,32.605z M73.396,18.191h3.656v-1.688h0.914v1.688h4.289v2.602h1.617v0.773h-1.617v2.672h-4.289
			v1.828h4.711v0.773h-4.711v1.828h5.273v0.773h-5.273v1.617h-0.914v-1.617h-4.5v-0.773h4.5V26.84h-3.938v-0.773h3.938v-1.828
			h-3.656v-0.773h3.656v-1.898h-4.57v-0.773h4.57v-1.828h-3.656V18.191z M81.341,18.965h-3.375v1.828h3.375V18.965z M77.966,21.566
			v1.898h3.375v-1.898H77.966z"/>
		<path fill="#00ABFF" d="M87.599,20.934v4.289c0.141,3.375-0.54,6.047-2.039,8.016c-0.235-0.188-0.492-0.398-0.773-0.633
			c1.358-1.641,1.991-4.102,1.898-7.383V20.09h5.906v-3.656h0.984v1.406h7.102v0.844h-7.102v1.406h8.086l-0.211,2.531
			c-0.281-0.046-0.587-0.07-0.914-0.07l0.211-1.617H87.599z M95.825,26.84h0.984v5.062h4.922v0.844H87.739v-0.844h4.57V26.91h0.914
			v4.992h2.602V26.84z M88.513,23.184l3.938-0.281v-1.406h0.914v1.336l5.203-0.352l0.07,0.773l-5.273,0.422v0.352
			c-0.095,0.798,0.374,1.172,1.406,1.125h3.375c0.796,0.047,1.266-0.211,1.406-0.773c0-0.046,0.022-0.116,0.07-0.211
			c0.093-0.422,0.163-0.749,0.211-0.984c0.281,0.141,0.562,0.235,0.844,0.281c-0.048,0.469-0.141,0.891-0.281,1.266
			c-0.235,0.891-0.984,1.312-2.25,1.266H94.56c-1.454,0.047-2.157-0.562-2.109-1.828v-0.422l-3.867,0.281L88.513,23.184z
			 M88.583,27.613l0.773-0.492c0.703,0.984,1.312,1.923,1.828,2.812l-0.844,0.492C89.778,29.441,89.191,28.504,88.583,27.613z
			 M98.567,30.496l-0.703-0.562c0.749-0.938,1.429-1.852,2.039-2.742l0.844,0.492C99.996,28.763,99.271,29.699,98.567,30.496z"/>
		<path fill="#00ABFF" d="M103.067,26.84l-0.141-0.984c0.187-0.046,0.492-0.141,0.914-0.281c0.703-0.187,1.241-0.327,1.617-0.422
			v-4.289h-2.32V20.02h2.32v-3.375h0.914v3.375h2.039v0.844h-2.039v4.008c0.281-0.094,0.703-0.234,1.266-0.422
			c0.422-0.141,0.726-0.234,0.914-0.281c0,0.281,0,0.587,0,0.914c-0.188,0.047-0.492,0.141-0.914,0.281
			c-0.562,0.188-0.984,0.328-1.266,0.422v5.484c0.093,1.219-0.492,1.828-1.758,1.828c-0.376,0-0.773,0-1.195,0
			c-0.048-0.376-0.118-0.703-0.211-0.984c0.422,0,0.844,0,1.266,0c0.703,0.046,1.03-0.258,0.984-0.914v-5.133
			c-0.235,0.095-0.562,0.211-0.984,0.352C103.863,26.605,103.395,26.746,103.067,26.84z M110.521,28.949
			c0.233-0.187,0.562-0.468,0.984-0.844c0.89-0.749,1.547-1.312,1.969-1.688c0.046,0.328,0.163,0.633,0.352,0.914
			c-0.844,0.657-1.898,1.547-3.164,2.672c-0.376,0.376-0.657,0.68-0.844,0.914l-0.703-0.773c0.327-0.375,0.492-0.867,0.492-1.477
			V17.98h0.914V28.949z M116.989,16.785h0.914c0,1.594,0,2.742,0,3.445c-0.048,0.891-0.095,1.758-0.141,2.602
			c-0.095,2.204-0.422,4.008-0.984,5.414c0.703,0.798,1.758,1.969,3.164,3.516c-0.095-0.095,0,0.023,0.281,0.352l-0.844,0.703
			c-0.984-1.312-1.993-2.531-3.023-3.656c-0.751,1.406-2.204,2.812-4.359,4.219c-0.048-0.141-0.188-0.328-0.422-0.562
			c-0.095-0.141-0.165-0.235-0.211-0.281c3.656-1.874,5.484-5.108,5.484-9.703C116.941,20.77,116.989,18.754,116.989,16.785z
			 M112.067,16.855l0.773-0.352c0.703,1.312,1.406,2.648,2.109,4.008l-0.844,0.492c-0.235-0.468-0.562-1.171-0.984-2.109
			C112.652,18.005,112.301,17.324,112.067,16.855z"/>
		<path fill="#00ABFF" d="M121.138,31.48l-0.141-0.844c0.233,0,0.655-0.046,1.266-0.141c-0.422,0.095-0.352,0.095,0.211,0V17.699
			h5.766v12.023c0.046,0,0.116,0,0.211,0c0.281-0.094,0.585-0.141,0.914-0.141c0,0.328,0,0.633,0,0.914
			c-1.595,0.188-4.103,0.492-7.523,0.914C121.512,31.456,121.278,31.48,121.138,31.48z M123.388,18.543v3.305h3.938v-3.305H123.388z
			 M123.388,22.621v3.305h3.938v-3.305H123.388z M123.388,30.355c0.422-0.046,1.077-0.141,1.969-0.281
			c0.89-0.094,1.547-0.164,1.969-0.211v-3.164h-3.938V30.355z M131.825,16.645h0.984c-0.048,0.376-0.07,0.984-0.07,1.828
			c-0.048,0.798-0.07,1.406-0.07,1.828h4.43c-0.048,1.031-0.095,2.556-0.141,4.57c-0.095,2.859-0.165,4.806-0.211,5.836
			c0,1.5-0.751,2.25-2.25,2.25c-0.188,0-0.492,0-0.914,0c-0.562,0.046-1.009,0.07-1.336,0.07c-0.048-0.376-0.118-0.703-0.211-0.984
			c0.281,0,0.679,0.023,1.195,0.07c0.468,0,0.796,0,0.984,0c1.03,0,1.569-0.469,1.617-1.406c0.187-3.328,0.281-6.492,0.281-9.492
			h-3.445c0,0.188,0,0.492,0,0.914c-0.048,0.422-0.07,0.75-0.07,0.984c-0.095,4.688-1.36,8.086-3.797,10.195
			c-0.235-0.235-0.492-0.469-0.773-0.703c2.391-1.781,3.608-4.945,3.656-9.492c0-0.187,0-0.468,0-0.844
			c0.046-0.468,0.07-0.819,0.07-1.055h-2.18v-0.914h2.18C131.801,19.082,131.825,17.864,131.825,16.645z"/>
		<path fill="#00ABFF" d="M139.208,24.027h2.25v-5.062h-2.391v-0.844h5.625v0.844h-2.32v5.062h2.25v0.773h-2.25v5.273
			c0.844-0.141,1.617-0.327,2.32-0.562c0,0.095,0.022,0.258,0.07,0.492c0,0.235,0,0.398,0,0.492
			c-0.329,0.095-0.844,0.211-1.547,0.352c-1.688,0.328-3.048,0.608-4.078,0.844l-0.211-0.844c0.374-0.094,1.007-0.234,1.898-0.422
			c0.281-0.046,0.492-0.094,0.633-0.141v-5.484h-2.25V24.027z M145.466,28.176h4.43v-2.461h-4.078v-8.227h9.07v8.227h-4.078v2.461
			h4.5v0.844h-4.5v2.812h5.203v0.844h-11.602v-0.844h5.484V29.02h-4.43V28.176z M146.731,18.262v2.953h3.164v-2.953H146.731z
			 M146.731,21.988v2.883h3.164v-2.883H146.731z M153.974,18.262h-3.164v2.953h3.164V18.262z M150.81,21.988v2.883h3.164v-2.883
			H150.81z"/>
	</g>
	<g>
		<g>
			<path fill="#00ABFF" d="M35.592,25.814H17.409c-0.502,0-0.909-0.406-0.909-0.909s0.407-0.909,0.909-0.909h18.183
				c0.502,0,0.908,0.407,0.908,0.909S36.094,25.814,35.592,25.814z"/>
		</g>
		<g>
			<path fill="#00ABFF" d="M26.5,34.906c-0.502,0-0.908-0.406-0.908-0.908V15.815c0-0.502,0.406-0.909,0.908-0.909
				s0.908,0.407,0.908,0.909v18.183C27.408,34.5,27.002,34.906,26.5,34.906z"/>
		</g>
	</g>
</g>
</svg>
