<?xml version="1.0" standalone="no"?><!DOCTYPE svg PUBLIC "-//W3C//DTD SVG 1.1//EN" "http://www.w3.org/Graphics/SVG/1.1/DTD/svg11.dtd"><svg t="1505115369956" class="icon" style="" viewBox="0 0 3686 1024" version="1.1" xmlns="http://www.w3.org/2000/svg" p-id="2821" xmlns:xlink="http://www.w3.org/1999/xlink" width="719.921875" height="200"><defs><style type="text/css"></style></defs><path d="M2588.432744 345.19457c17.691485-18.007404 34.961744-36.646647 51.810777-56.023036 133.107363 53.706294 589.29494 199.450432 1045.69313-97.51378 0 0-672.802962 101.726039-857.089264-186.918963 0.631839-1.684903 1.684903-3.159194 2.211436-4.738791 0 0-1.263677 1.158371-3.2645 3.2645C2827.267791 2.211436 2826.425339 1.158371 2825.582888 0l-24.852324 30.433566c-81.085973 79.506376-221.564788 236.518305-460.505142 346.668861-215.983546 99.514603-505.15508 140.057589-743.147676 138.793912C1009.678322 512.631839 759.154258 189.972851 619.93912 96.355409 492.202386 27.379679 481.039901-18.849856 318.025504 58.655697 100.778281 161.540107 0 422.384204 0 422.384204c318.025504-130.264089 545.066228-30.854792 603.827232 10.10942 3.475113 2.527355 6.739613 5.05471 10.320033 7.582065l0 0 0 0c46.650761 33.276841 95.618264 63.815714 146.481283 91.616619C737.145208 663.6413 580.659811 735.144385 580.659811 735.144385c221.670095-34.435212 283.379679-85.298231 326.976553-133.633896 49.599342 20.008227 100.357055 37.699712 152.378445 53.074455C1044.429453 815.493213 875.93912 934.594817 875.93912 934.594817c225.250514-38.96339 308.126697-177.125463 335.506376-243.468531 59.18223 11.373097 119.944056 19.797614 181.65364 24.852324 46.650761 129.421637-25.062937 308.02139-25.062937 308.02139 114.994652-91.721925 168.700946-244.310983 185.339367-301.597696 54.759358-0.105306 108.149733-2.211436 160.171123-6.107775 26.537227 58.339778 102.88441 209.243933 216.825998 300.228712 0 0-75.925956-144.375154-41.701357-321.605923 41.701357-7.160839 82.454957-15.690662 122.155492-25.905389 37.383793 55.285891 157.117236 186.076512 462.92719 213.877417 0 0-250.94529-80.454134-244.310983-289.382147 37.594406-16.743727 74.03044-35.277664 109.202797-55.391197 61.288359 54.759358 283.06376 208.612094 805.17318 173.123817C3143.819005 711.134513 2683.10325 641.842863 2588.432744 345.19457L2588.432744 345.19457z" p-id="2822" fill="#c2c2c2"></path></svg>