<?xml version="1.0" encoding="utf-8"?>
<!-- Generator: Adobe Illustrator 16.0.0, SVG Export Plug-In . SVG Version: 6.00 Build 0)  -->
<!DOCTYPE svg PUBLIC "-//W3C//DTD SVG 1.1//EN" "http://www.w3.org/Graphics/SVG/1.1/DTD/svg11.dtd">
<svg version="1.1" id="图层_1" xmlns="http://www.w3.org/2000/svg" xmlns:xlink="http://www.w3.org/1999/xlink" x="0px" y="0px"
	 width="16px" height="16px" viewBox="0 0 16 16" enable-background="new 0 0 16 16" xml:space="preserve">
<g>
	<g>
		<path fill="#33495F" d="M0.889,16c-0.228,0-0.455-0.086-0.628-0.26c-0.348-0.348-0.348-0.91,0-1.258L6.742,8L0.261,1.518
			c-0.348-0.348-0.348-0.91,0-1.257c0.347-0.347,0.909-0.347,1.257,0L9.257,8l-7.739,7.74C1.344,15.914,1.116,16,0.889,16z"/>
	</g>
	<g>
		<path fill="#33495F" d="M15.111,16c-0.228,0-0.455-0.086-0.629-0.26L6.742,8l7.74-7.74c0.348-0.347,0.91-0.347,1.258,0
			c0.347,0.347,0.347,0.91,0,1.257L9.257,8l6.483,6.482c0.347,0.348,0.347,0.91,0,1.258C15.566,15.914,15.338,16,15.111,16z"/>
	</g>
</g>
</svg>
