<?xml version="1.0" encoding="utf-8"?>
<!DOCTYPE svg PUBLIC "-//W3C//DTD SVG 1.1//EN" "http://www.w3.org/Graphics/SVG/1.1/DTD/svg11.dtd">
<svg version="1.1" id="图形" xmlns="http://www.w3.org/2000/svg" xmlns:xlink="http://www.w3.org/1999/xlink" x="0px" y="0px" width="1025px" height="1024px" viewBox="0 0 1025 1024" enable-background="new 0 0 1025 1024" xml:space="preserve">
  <path fill="#ffffff" d="M959.56992-27.68q6.144-24.576-2.56-46.592t-27.136-38.912-45.056-26.624-57.344-9.728q-193.536-1.024-346.112-1.024l-348.16 0q-36.864 0-65.024 13.312t-45.056 32.768-22.528 42.496 1.536 41.472q6.144 14.336 12.288 29.696 5.12 13.312 12.288 30.208t15.36 34.304l38.912 94.208 116.736 0-44.032-129.024 659.456 0-44.032 129.024 111.616 0q21.504-52.224 38.912-94.208 7.168-18.432 14.336-35.84t12.8-31.232 9.216-23.552 3.584-10.752zM444.49792 161.76q-19.456 22.528-44.544 56.32t-51.712 69.632-52.736 70.656-46.592 60.416q-23.552 27.648-18.432 45.568t34.816 17.92q16.384-1.024 44.032 0.512t46.08 1.536q20.48 0 25.6 12.288t5.12 32.768q0 22.528-0.512 49.664t-0.512 55.808-0.512 56.32-0.512 51.2q0 10.24 1.536 21.504t7.168 20.48 16.384 15.36 29.184 6.144q21.504 0 39.424 0.512t41.472 0.512q33.792 0 45.568-15.872t12.8-50.688l0-39.936q0-23.552 0.512-50.176t0.512-53.248l0-48.128q0-29.696 6.144-47.616t27.648-16.896q15.36 0 37.376-1.024t38.4-1.024q27.648 0 35.328-14.848t-10.752-38.4q-19.456-24.576-45.056-59.392t-52.736-72.192-53.248-72.704-46.592-60.928q-18.432-23.552-35.328-24.064t-35.328 22.016z" transform="translate(0, 812) scale(1, -1)"/>
</svg>
