<?xml version="1.0" standalone="no"?><!DOCTYPE svg PUBLIC "-//W3C//DTD SVG 1.1//EN" "http://www.w3.org/Graphics/SVG/1.1/DTD/svg11.dtd"><svg t="1505356986111" class="icon" style="" viewBox="0 0 2564 1024" version="1.1" xmlns="http://www.w3.org/2000/svg" p-id="2616" xmlns:xlink="http://www.w3.org/1999/xlink" width="500.78125" height="200"><defs><style type="text/css"></style></defs><path d="M1310.353567 978.409928h32.766968a3.027383 3.027383 0 0 0 2.849302-2.849302l41.314873-119.670668c2.849302-4.273952 8.547905-4.273952 9.972556 0s37.040921 103.999509 44.164175 121.095319a3.027383 3.027383 0 0 0 2.849301 2.849301h31.342318c2.849302 0 4.273952-2.849302 2.849302-4.273952l-51.287429-141.04043a35.61627 35.61627 0 0 0-32.766969-28.493016 35.61627 35.61627 0 0 0-35.61627 24.219064c-2.849302 7.123254-44.164175 119.670668-53.424405 143.889731a4.630115 4.630115 0 0 0 4.986278 4.273953z m229.368779 0h-28.493016a3.027383 3.027383 0 0 1-2.849301-2.849302v-166.684144a3.027383 3.027383 0 0 1 2.849301-2.849302h28.493016a3.027383 3.027383 0 0 1 2.849302 2.849302v166.684144a3.027383 3.027383 0 0 1-2.849302 2.849302z m189.478558-151.012986a16.561566 16.561566 0 0 1-14.246508 15.671159h-85.479049a17.808135 17.808135 0 0 0-15.671159 17.808135 16.205403 16.205403 0 0 0 15.671159 17.808135h56.273707c29.917667 0 41.314873 25.643715 41.314873 51.287429s-19.945111 48.438127-38.465571 48.438128h-93.314628a15.671159 15.671159 0 0 1-17.808135-17.808135 16.739647 16.739647 0 0 1 17.808135-17.808136h82.629747a16.739647 16.739647 0 0 0 14.246508-15.671158 15.493078 15.493078 0 0 0-14.246508-15.671159h-63.396961c-17.808135 0-37.040921-25.643715-37.040921-51.287429 0-22.794413 14.246508-51.287429 39.890222-51.287429h94.026954a19.054705 19.054705 0 0 1 17.808135 17.808135m42.739524-19.945112h85.479048c25.643715 0 41.314873 25.643715 41.314874 51.287429 0 19.945111-14.246508 49.862778-39.890223 49.862779h-53.424405c-8.547905 0-14.246508 2.849302-14.246508 17.808135v48.438127a3.027383 3.027383 0 0 1-2.849302 2.849302h-28.493016a3.027383 3.027383 0 0 1-2.849302-2.849302v-61.259984a39.53406 39.53406 0 0 1 39.890223-38.465572h51.287429a14.958833 14.958833 0 0 0 15.671159-15.671159 16.205403 16.205403 0 0 0-15.671159-17.808135H1775.502055a17.808135 17.808135 0 0 1-19.945111-17.808135c-0.712325-15.671159 16.383484-15.671159 16.383484-15.671159z m272.108304 0h-82.629747a48.79429 48.79429 0 0 0-41.314873 45.588826 73.369517 73.369517 0 0 0 9.972555 38.465572 58.766846 58.766846 0 0 0-8.547904 53.424405 48.260046 48.260046 0 0 0 35.61627 34.19162h89.040675a17.808135 17.808135 0 0 0 17.808135-17.808135 17.808135 17.808135 0 0 0-17.808135-17.808136h-65.533937c-11.397206 0-22.794413-1.424651-22.794413-17.808135s8.547905-17.808135 17.808135-17.808135h76.931144a13.890345 13.890345 0 0 0 14.246508-15.671159 17.808135 17.808135 0 0 0-17.808135-17.808135h-72.657191a16.561566 16.561566 0 0 1-17.808135-15.671159 17.808135 17.808135 0 0 1 17.808135-17.808135h74.081842a17.808135 17.808135 0 0 0 15.671158-17.808135c-4.986278-14.958833-22.082088-14.958833-22.082087-14.958833z m68.383239 0h82.629746a48.79429 48.79429 0 0 1 41.314874 45.588826 73.369517 73.369517 0 0 1-9.972556 38.465572 58.766846 58.766846 0 0 1 8.547905 53.424405 48.260046 48.260046 0 0 1-35.61627 34.19162h-89.040676a17.808135 17.808135 0 0 1-17.808135-17.808135 17.808135 17.808135 0 0 1 17.808135-17.808136h65.533938c11.397206 0 22.794413-1.424651 22.794412-17.808135s-8.547905-17.808135-17.808135-17.808135h-76.931143a13.890345 13.890345 0 0 1-14.246508-15.671159 17.808135 17.808135 0 0 1 17.808135-17.808135h76.931143a16.561566 16.561566 0 0 0 17.808136-15.671159 17.808135 17.808135 0 0 0-17.808136-17.808135h-74.794167a17.808135 17.808135 0 0 1-15.671159-17.808135c0-14.958833 19.232786-14.958833 19.232786-14.958833z m270.683653 35.616271h-58.410683c-17.808135 0-34.191619 14.246508-34.191619 45.588825s8.547905 56.986032 39.890222 56.986033h51.287429a17.808135 17.808135 0 0 1 17.808135 15.671159c0 12.821857-7.123254 17.808135-19.945111 17.808135h-75.506493c-9.972556 0-47.013477-27.068365-48.438127-76.931144-1.424651-53.424405 21.369762-94.026953 59.835334-94.026953h64.109286c14.246508 0 19.945111 7.123254 19.945111 17.808135a16.027322 16.027322 0 0 1-16.383484 17.808135z m142.465081-35.616271v61.259985a3.027383 3.027383 0 0 1-2.849302 2.849302h-61.259985a3.027383 3.027383 0 0 1-2.849301-2.849302v-60.547659a3.027383 3.027383 0 0 0-2.849302-2.849302h-31.342318a3.027383 3.027383 0 0 0-2.849301 2.849302v168.108795a3.027383 3.027383 0 0 0 2.849301 2.849302h31.342318a3.027383 3.027383 0 0 0 2.849302-2.849302v-59.835334a3.027383 3.027383 0 0 1 2.849301-2.849301h61.259985a3.027383 3.027383 0 0 1 2.849302 2.849301v59.835334a3.027383 3.027383 0 0 0 2.849301 2.849302h31.342318a3.027383 3.027383 0 0 0 2.849302-2.849302v-168.108795a3.027383 3.027383 0 0 0-2.849302-2.849302h-29.917667c-1.424651 0-4.273952 1.424651-4.273952 2.849302z" fill="#8a8a8a" p-id="2617"></path><path d="M2440.101656 99.40038V646.46629a17.808135 17.808135 0 0 0 17.808135 17.808135h89.040676a17.808135 17.808135 0 0 0 17.808135-17.808135V99.40038a17.808135 17.808135 0 0 0-17.808135-17.808135h-89.040676a17.808135 17.808135 0 0 0-17.808135 17.808135z m-935.99558-17.808135H1324.600075a18.876623 18.876623 0 0 0-17.808135 17.808135v89.040675a18.876623 18.876623 0 0 0 17.808135 17.808135h179.506001c101.150207 1.424651 181.642978 75.506493 181.642978 168.821121s-81.917421 165.971819-181.642978 165.971819h-53.424405a18.876623 18.876623 0 0 1-17.808135-17.808135v-203.01274a18.876623 18.876623 0 0 0-17.808135-17.808135h-89.040676a18.876623 18.876623 0 0 0-17.808135 17.808135V646.46629a18.876623 18.876623 0 0 0 17.808135 17.808135h176.6567c169.533446 0 307.724574-131.067874 307.724575-292.053416S1673.639522 80.879919 1504.106076 80.879919z m730.133539 440.217099a18.876623 18.876623 0 0 1-17.808135 17.808135h-151.012986a54.670975 54.670975 0 0 1-55.561381-55.561381V99.40038a18.876623 18.876623 0 0 0-17.808135-17.808135h-89.040676a18.876623 18.876623 0 0 0-17.808135 17.808135v393.203623a170.601934 170.601934 0 0 0 170.958097 170.958096h286.354812a18.876623 18.876623 0 0 0 17.808135-17.808135V99.40038a18.876623 18.876623 0 0 0-17.808135-17.808135h-89.040675a18.876623 18.876623 0 0 0-17.808136 17.808135v421.696639z" fill="#8a8a8a" p-id="2618"></path><path d="M535.343528 1023.998753a524.093415 524.093415 0 0 1-364.710607-150.30066l-87.616024-87.616024a23.328657 23.328657 0 0 1 0-34.19162l99.725556-99.725556a24.040982 24.040982 0 0 1 34.191619 0l89.040676 89.040675A322.683408 322.683408 0 0 0 532.494226 835.232522a300.779402 300.779402 0 0 0 202.300415-76.931144 306.478005 306.478005 0 0 0 11.397206-445.203377l-93.314628-94.026953a24.040982 24.040982 0 0 1 0-34.19162l99.725557-99.725556a24.040982 24.040982 0 0 1 34.191619 0l95.451604 95.451604A492.573016 492.573016 0 0 1 535.343528 1023.998753z" fill="#8a8a8a" p-id="2619"></path><path d="M400.001701 239.016159l-92.602302-92.602302a30.095748 30.095748 0 0 1 0-44.164175l92.602302-92.602303a30.095748 30.095748 0 0 1 44.164175 0l92.602303 92.602303a30.095748 30.095748 0 0 1 0 44.164175l-92.602303 92.602302a30.095748 30.095748 0 0 1-44.164175 0z" fill="#8a8a8a" p-id="2620"></path><path d="M102.249683 536.768178l-92.602303-92.602303a30.095748 30.095748 0 0 1 0-44.164175l176.6567-176.6567a30.095748 30.095748 0 0 1 44.164175 0l92.602303 92.602303a30.095748 30.095748 0 0 1 0 44.164175l-176.6567 176.6567a30.095748 30.095748 0 0 1-44.164175 0z" fill="#8a8a8a" p-id="2621"></path></svg>