<?xml version="1.0" standalone="no"?><!DOCTYPE svg PUBLIC "-//W3C//DTD SVG 1.1//EN" "http://www.w3.org/Graphics/SVG/1.1/DTD/svg11.dtd"><svg t="1503908500907" class="icon" style="" viewBox="0 0 1024 1024" version="1.1" xmlns="http://www.w3.org/2000/svg" p-id="3067" xmlns:xlink="http://www.w3.org/1999/xlink" width="200" height="200"><defs><style type="text/css"></style></defs><path d="M425.170934 495.582075l343.55152-294.358121c20.166295-17.289782 20.166295-45.351907 0-62.638619l-14.650675-12.486382c-20.163225-17.336854-52.882418-17.336854-73.075319 0L301.091988 451.615725c-0.048095 0.060375-0.093121 0.106424-0.140193 0.106424l-14.620999 12.540617c-20.179598 17.287735-20.179598 45.352931 0 62.639642l14.620999 12.538571c0 0 0.016373 0 0.016373 0.024559l380.02727 325.653895c20.163225 17.286712 52.880371 17.286712 73.075319 0l14.616906-12.537548c20.194948-17.289782 20.194948-45.327348 0-62.61406L425.170934 495.582075z" p-id="3068" fill="#bfbfbf"></path></svg>