<?xml version="1.0" standalone="no"?><!DOCTYPE svg PUBLIC "-//W3C//DTD SVG 1.1//EN" "http://www.w3.org/Graphics/SVG/1.1/DTD/svg11.dtd"><svg t="1505116085614" class="icon" style="" viewBox="0 0 1024 1024" version="1.1" xmlns="http://www.w3.org/2000/svg" p-id="2375" xmlns:xlink="http://www.w3.org/1999/xlink" width="200" height="200"><defs><style type="text/css"></style></defs><path d="M598.7 598.7c-32.3 0-58.3-26.1-58.3-58.3 0-32 25.8-57.8 57.7-58.2-24.2-18.2-54.2-29.3-86.9-29.3-80.5 0-145.9 65.3-145.9 145.9s65.3 145.9 145.9 145.9S657 679.2 657 598.7c0-12.2-1.9-23.9-4.8-35.3-8.9 20.8-29.6 35.3-53.5 35.3z" p-id="2376" fill="#d2d2d2"></path><path d="M998.9 432.2c11.3-11.4 11.3-29.8 0-41.2-11.3-11.4-29.6-11.4-40.7 0l-79.5 80.5c-29.9-41.7-66.4-78.3-108.1-108.1l76.9-125.9c7.9-15.2 3.2-34.6-10.5-43.3-13.7-8.8-31.4-3.5-39.4 11.7l-77.1 126.4c-56.3-30.1-119.3-49-186.3-53.2 0-0.3 0.1-0.5 0.1-0.8V131.8c0-15.9-13-28.8-28.8-28.8-15.9 0-28.8 13-28.8 28.8v146.5c0 0.3 0.1 0.5 0.1 0.8-64.4 4-125.1 21.7-179.7 49.7l-80.3-124.3c-7.6-13.7-24.6-18.5-37.9-10.5-13.2 7.9-17.8 25.5-10.1 39.4l80 123.8c-41.7 28.4-78.7 63.5-109.2 103.8l-77.1-80.3c-10.8-11.3-28.4-11.3-39.2 0s-10.8 29.6 0 40.8l78.3 81.5c2.1 2.2 4.5 3.5 7 4.8-16.6 28.7-30.6 59-41 91h5.6c0 8 3.2 15.3 8.4 20.6C147.9 794.8 315 919.7 511.5 919.7c204.1 0 377-134.6 437.4-320.9h-5.4c0-0.1-0.1-0.3-0.1-0.3-0.1-7-2.9-13.1-6.9-18.2-7.8-20.7-16.6-40.8-27.1-60 3-1.4 5.8-3.1 8.2-5.4l81.3-82.7z m-487.7 429c-170.7 0-316.2-107.7-374.9-259.6 0.1-1 0.6-1.9 0.6-3 0-4.4-1.2-8.6-2.9-12.3 61.2-146.8 203.9-250.2 371.3-250.2 170.9 0 316.5 107.7 375.3 259.6-0.1 1-0.6 1.9-0.6 3 0 4.1 0.9 8 2.5 11.5-61 147.2-203.8 251-371.3 251z" p-id="2377" fill="#d2d2d2"></path></svg>