<?xml version="1.0" standalone="no"?><!DOCTYPE svg PUBLIC "-//W3C//DTD SVG 1.1//EN" "http://www.w3.org/Graphics/SVG/1.1/DTD/svg11.dtd"><svg t="1505357284393" class="icon" style="" viewBox="0 0 3359 1024" version="1.1" xmlns="http://www.w3.org/2000/svg" p-id="5815" xmlns:xlink="http://www.w3.org/1999/xlink" width="656.0546875" height="200"><defs><style type="text/css"></style></defs><path d="M2332.503109 279.543264h199.929752v719.529515h-199.929752z" fill="#7D7D7D" p-id="5816"></path><path d="M2321.399456 110.71654a111.068529 110.684541 0 1 0 222.137058 0 111.068529 110.684541 0 1 0-222.137058 0Z" fill="#7D7D7D" p-id="5817"></path><path d="M1132.924596 279.543264c-199.929752 0-360.980719 160.506984-360.980719 359.764758s161.050967 359.796756 360.980719 359.796756 360.980719-160.538983 360.980719-359.796756c0-199.257773-161.050967-359.764757-360.980719-359.764758z m0 520.303741c-88.861223 0-161.050967-71.99775-161.050967-160.538983 0-88.541233 72.189744-160.506984 161.050967-160.506985 88.861223 0 161.050967 71.965751 161.050967 160.506985 0 88.573232-72.189744 160.538983-161.050967 160.538983zM3343.255523 30.463048H3143.261773v287.831005c-47.198525-24.895222-102.71679-38.71879-161.050967-38.71879-199.929752 0-360.94872 160.474985-360.94872 359.732759 0 199.257773 161.018968 359.796756 360.94872 359.796756 199.929752 0 360.980719-160.538983 360.980719-359.796756V30.495047zM2982.210806 799.847005c-88.861223 0-161.050967-71.99775-161.050967-160.538983 0-88.541233 72.189744-160.506984 161.050967-160.506985 88.861223 0 161.050967 71.965751 161.050967 160.506985 0 88.573232-72.189744 160.538983-161.050967 160.538983zM2238.07406 279.543264h-224.920971l-138.843661 190.970032-80.509484 110.716541a130.23593 130.23593 0 0 0-16.63948 41.470704V30.463048h-199.961751v971.393644h199.929752v-345.90919c2.783913 13.823568 8.31974 27.647136 16.63948 41.502703l80.541483 110.71654 138.87566 190.938033h224.888972L1982.658042 650.379676c-5.567826-5.535827-5.567826-16.607481 0-22.143308l255.448017-348.693104zM558.126559 661.45133c108.284616-69.181838 174.938533-190.938033 163.83488-329.333709-13.887566-171.578638-149.947314-309.942314-319.350021-329.333708C186.074185-22.111309 0 146.715415 0 359.796756v639.308022h199.929752V354.260929c2.783913-91.325146 86.07731-163.258898 180.47436-152.187244 69.43783 8.287741 127.740008 63.646011 138.875661 132.79585 11.071654 71.99775-25.023218 135.643761-83.325397 166.07481-13.887566 8.31974-30.559045 13.823568-49.982438 16.607482a99.420893 99.420893 0 0 0-88.861223 99.612887c0 22.143308 8.31974 44.286616 19.455392 60.894097l80.509484 110.71654 152.731228 210.329427h224.920971l-224.95297-309.974313c-2.751914-8.31974 0-22.143308 8.351739-27.679135z" fill="#7D7D7D" p-id="5818"></path></svg>