<svg id="图层_1" data-name="图层 1" xmlns="http://www.w3.org/2000/svg" xmlns:xlink="http://www.w3.org/1999/xlink" viewBox="0 0 82.98 82.98"><defs><style>.cls-1,.cls-2{fill:none;}.cls-2{clip-rule:evenodd;}.cls-3{fill:#d8d8d8;}.cls-4{isolation:isolate;}.cls-5{clip-path:url(#clip-path);}.cls-6{clip-path:url(#clip-path-2);}.cls-7{clip-path:url(#clip-path-3);}.cls-8{clip-path:url(#clip-path-4);}.cls-9{clip-path:url(#clip-path-5);}.cls-10{clip-path:url(#clip-path-6);}.cls-11{fill:#fff;}</style><clipPath id="clip-path" transform="translate(-0.27 -0.09)"><rect class="cls-1" x="1" y="1" width="82" height="82"/></clipPath><clipPath id="clip-path-2" transform="translate(-0.27 -0.09)"><rect class="cls-1" x="22" y="22" width="40" height="37"/></clipPath><clipPath id="clip-path-3" transform="translate(-0.27 -0.09)"><rect class="cls-1" x="6" y="6" width="72" height="72"/></clipPath><clipPath id="clip-path-4" transform="translate(-0.27 -0.09)"><rect class="cls-1" x="22" y="21" width="41" height="39"/></clipPath><clipPath id="clip-path-5" transform="translate(-0.27 -0.09)"><path class="cls-2" d="M59,38.68a9.46,9.46,0,0,0,2.25-10.56L56,33.27a4,4,0,0,1-5.25,0,3.51,3.51,0,0,1,0-5.15L56,23a10.09,10.09,0,0,0-11.25,1.8A9.46,9.46,0,0,0,42.5,35.33L39,38.94l-9.5-9,.75-1.29-5-3.09L22,28.38l3.25,4.89,1.5-.77,9.5,9-11,10.56a1.47,1.47,0,0,0,0,2.32l3.25,3.35a1.64,1.64,0,0,0,2.5,0L42,47.18l1.5,1.55-.5.52a1.37,1.37,0,0,0-.25,2.06l7.5,7.21c.5.51,1.75.77,2.25,0L56,55.16c.75-.52.5-1.8,0-2.32l-7.5-7.21c-.5-.52-1.5-.26-2.25.26l-.25.26L44.75,44.6l4-3.86A10,10,0,0,0,59,38.68M31,54.13a1.92,1.92,0,0,1-2.75,0,1.76,1.76,0,0,1,0-2.58,1.92,1.92,0,0,1,2.75,0,1.76,1.76,0,0,1,0,2.58"/></clipPath><clipPath id="clip-path-6" transform="translate(-0.27 -0.09)"><rect class="cls-1" x="22" y="22" width="40" height="38"/></clipPath></defs><title>技能插件默认icon</title><circle class="cls-3" cx="41.49" cy="41.49" r="41.49"/><circle class="cls-3" cx="41.49" cy="41.49" r="41.49"/><g class="cls-4"><g class="cls-5"><g class="cls-6"><g class="cls-7"><g class="cls-4"><g class="cls-8"><g class="cls-9"><g class="cls-10"><rect class="cls-11" x="16.73" y="16.91" width="50" height="47"/></g></g></g></g></g></g></g></g></svg>