<?xml version="1.0" encoding="utf-8"?>
<!-- Generator: Adobe Illustrator 16.0.0, SVG Export Plug-In . SVG Version: 6.00 Build 0)  -->
<!DOCTYPE svg PUBLIC "-//W3C//DTD SVG 1.1//EN" "http://www.w3.org/Graphics/SVG/1.1/DTD/svg11.dtd">
<svg version="1.1" id="图层_1" xmlns="http://www.w3.org/2000/svg" xmlns:xlink="http://www.w3.org/1999/xlink" x="0px" y="0px"
	 width="142.305px" height="88.873px" viewBox="0 0 142.305 88.873" enable-background="new 0 0 142.305 88.873"
	 xml:space="preserve">
<path fill="#C9CACA" d="M24.712,88.874c-0.87,0-1-0.424-1-0.676c0-0.441,0.105-0.871,0.327-1.277
	c0.017-0.051,0.042-0.098,0.07-0.141c0.326-0.42,0.706-0.893,1.121-1.406c2.349-2.904,5.853-7.246,6.604-11.445
	c-0.271-0.094-0.452-0.164-0.583-0.229C11.685,66.187,0,53.704,0,40.309C0,18.083,31.919,0,71.152,0
	c39.233,0,71.152,18.083,71.152,40.31s-31.918,40.31-71.152,40.31c-5.021,0-10.365-0.4-15.896-1.188
	C48.609,82.565,28.228,88.874,24.712,88.874z M24.959,87.323c-0.002,0.004-0.004,0.008-0.007,0.012
	c-0.104,0.176-0.17,0.355-0.207,0.539c3.562-0.041,23.806-6.342,30.214-9.408c0.089-0.043,0.188-0.057,0.287-0.045
	c5.535,0.795,10.887,1.199,15.901,1.199c38.688,0,70.152-17.635,70.152-39.311c0-21.675-31.47-39.31-70.152-39.31
	C32.47,0.999,1,18.634,1,40.309c0,12.967,11.448,25.102,30.624,32.463c0.021,0.01,0.051,0.021,0.068,0.035
	c0.104,0.043,0.398,0.147,0.862,0.312c0.229,0.078,0.363,0.305,0.331,0.539c-0.629,4.6-4.389,9.258-6.877,12.34
	C25.626,86.481,25.269,86.924,24.959,87.323z"/>
<path fill="#2D2C2C" d="M31.907,28.695l-0.062-0.438c0.354-0.104,0.697-0.197,1.031-0.281v-1.875h-0.938v-0.375h0.938v-1.562h0.375
	v1.562h0.906v0.375h-0.906v1.75c0.291-0.062,0.572-0.146,0.844-0.25c0,0.125,0,0.261,0,0.406c-0.125,0.021-0.312,0.073-0.562,0.156
	c-0.125,0.042-0.224,0.073-0.281,0.094v2.406c0.021,0.542-0.219,0.812-0.719,0.812c-0.209,0-0.396,0-0.562,0
	c0-0.042-0.011-0.104-0.031-0.188c-0.021-0.104-0.042-0.177-0.062-0.219c0.208,0,0.406,0,0.594,0
	c0.291,0.021,0.427-0.114,0.406-0.406v-2.281C32.563,28.466,32.24,28.57,31.907,28.695z M38.063,31.07
	c0.375,0.042,0.541-0.114,0.5-0.469v-1.562h-1.625v2.156h-0.401v-2.156H34.91c-0.021,0.959-0.271,1.802-0.75,2.531
	c-0.125-0.104-0.266-0.188-0.406-0.25c0.333-0.458,0.552-0.938,0.656-1.438c0.104-0.5,0.151-1.302,0.151-2.406v-2.938h4.406v6.094
	c0.021,0.562-0.261,0.844-0.844,0.844c-0.209,0-0.433,0-0.656,0c0-0.125-0.021-0.261-0.062-0.406
	C37.636,31.07,37.854,31.07,38.063,31.07z M34.97,27.476c0,0.459-0.011,0.854-0.031,1.188h1.599v-1.688H34.97V27.476z M34.97,24.914
	v1.688h1.562v-1.688H34.97z M38.563,24.914h-1.625v1.688h1.625V24.914z M36.938,26.976v1.688h1.625v-1.688H36.938z"/>
<path fill="#2D2C2C" d="M42.749,31.57h-0.438v-4.125c-0.375,0.417-0.812,0.844-1.312,1.281c-0.125-0.166-0.224-0.281-0.281-0.344
	c1.041-0.833,1.885-1.781,2.531-2.844h-2.25v-0.375h2.469c0.188-0.333,0.364-0.688,0.531-1.062l0.438,0.094
	c-0.146,0.334-0.312,0.656-0.5,0.969h4.25v0.375h-4.469c-0.209,0.375-0.448,0.729-0.719,1.062h4.276v3.969
	c0.021,0.562-0.292,0.844-0.938,0.844c-0.271,0.021-0.636,0.031-1.094,0.031c0-0.167-0.042-0.312-0.125-0.438
	c0.291,0,0.666,0,1.125,0c0.416,0.021,0.609-0.146,0.594-0.5V29.82h-4.094L42.749,31.57L42.749,31.57z M42.749,26.976v1.031h4.094
	v-1.031H42.749z M42.749,28.382v1.062h4.094v-1.062H42.749z"/>
<path fill="#2D2C2C" d="M53.373,24.007l0.469,0.125c-0.271,0.25-0.562,0.49-0.875,0.719h3.531v0.406
	c-1.459,1.354-3.641,2.396-6.531,3.125c-0.021-0.062-0.062-0.166-0.125-0.312c-0.042-0.041-0.062-0.072-0.062-0.094
	c2.646-0.625,4.688-1.531,6.125-2.719h-3.438c-0.125,0.084-0.271,0.178-0.438,0.281c0.438,0.25,0.864,0.531,1.281,0.844
	l-0.281,0.312c-0.146-0.104-0.344-0.239-0.594-0.406c-0.312-0.229-0.562-0.406-0.75-0.531c-0.167,0.104-0.448,0.261-0.844,0.469
	c-0.188,0.084-0.334,0.156-0.438,0.219c-0.062-0.125-0.146-0.25-0.25-0.375C51.404,25.549,52.477,24.862,53.373,24.007z
	 M54.311,27.07l0.375,0.219c-0.25,0.209-0.5,0.406-0.75,0.594h2.906v0.438c-1.5,1.667-3.75,2.761-6.75,3.281
	c-0.021-0.042-0.053-0.104-0.094-0.188c-0.042-0.104-0.073-0.177-0.099-0.219c2.812-0.438,4.947-1.416,6.406-2.938H53.37
	c-0.229,0.188-0.474,0.344-0.724,0.469c0.166,0.125,0.416,0.303,0.75,0.531c0.208,0.146,0.364,0.261,0.474,0.344l-0.312,0.312
	c-0.438-0.375-0.865-0.697-1.281-0.969c-0.521,0.292-1.094,0.562-1.719,0.812l-0.25-0.406C51.831,28.789,53.164,28.029,54.311,27.07
	z"/>
<path fill="#2D2C2C" d="M58.622,26.507h1.151v-1.469c-0.229,0.021-0.584,0.031-1.062,0.031c0-0.125-0.021-0.25-0.062-0.375
	c0.875-0.021,1.729-0.062,2.562-0.125l0.062,0.375c-0.396,0.021-0.761,0.053-1.094,0.094v1.469h1.125v0.375H60.18v1.062l0.25-0.188
	c0.229,0.209,0.552,0.542,0.969,1l-0.312,0.281c-0.292-0.333-0.594-0.677-0.906-1.031v3.562h-0.406v-3.906
	c-0.25,0.917-0.61,1.719-1.094,2.406c-0.104-0.166-0.188-0.312-0.25-0.438c0.541-0.729,0.979-1.646,1.312-2.75H58.62L58.622,26.507
	L58.622,26.507z M63.528,24.101h0.406v1.594h1.781v3.594H65.31v-0.375h-1.375v2.688h-0.406v-2.688h-1.344v0.375h-0.406v-3.594h1.75
	L63.528,24.101L63.528,24.101z M62.185,26.07v2.438h1.344V26.07H62.185z M65.31,26.07h-1.375v2.438h1.375V26.07z"/>
<path fill="#2D2C2C" d="M67.371,31.257c0.479-0.666,0.812-1.177,1-1.531l0.375,0.156c-0.229,0.438-0.558,0.979-0.974,1.625
	L67.371,31.257z M70.84,24.07h0.406v1.031h3.526v0.406h-3.526v1.094h2.812v2.531H68.37v-2.531h2.469L70.84,24.07L70.84,24.07z
	 M68.777,27.007v1.719h4.849v-1.719H68.777z M70.027,29.789c0.291,0.709,0.479,1.188,0.562,1.438l-0.438,0.156
	c-0.084-0.354-0.261-0.844-0.526-1.469L70.027,29.789z M72.152,31.32c-0.229-0.583-0.438-1.072-0.625-1.469l0.375-0.125
	c0.208,0.417,0.438,0.886,0.688,1.406L72.152,31.32z M74.402,31.382c-0.271-0.479-0.562-0.969-0.875-1.469l0.375-0.188
	c0.416,0.667,0.708,1.146,0.875,1.438L74.402,31.382z"/>
<path fill="#2D2C2C" d="M76.244,27.632h4.401v0.375H79.9v2.719c0.021,0.542-0.229,0.812-0.75,0.812c-0.271,0-0.542,0-0.812,0
	c0-0.125-0.021-0.261-0.062-0.406c0.083,0,0.197,0,0.349,0c0.166,0.021,0.302,0.031,0.401,0.031
	c0.333,0.021,0.489-0.136,0.474-0.469v-2.688h-3.25L76.244,27.632L76.244,27.632z M76.338,24.414h4.156v0.375H79.9v2.438h-0.401
	v-2.438H76.34L76.338,24.414L76.338,24.414z M76.619,28.695h2.026v1.625h-1.651v0.344h-0.375V28.695z M76.682,25.445h2v1.531h-2
	V25.445z M76.994,29.039v0.938h1.276v-0.938H76.994z M77.057,25.789v0.844h1.219v-0.844H77.057z M81.619,28.351
	c0.104-0.521,0.151-1.229,0.151-2.125h0.406c0,0.5-0.021,0.948-0.062,1.344c0.291,1.604,0.859,2.792,1.719,3.562
	c-0.104,0.083-0.209,0.188-0.312,0.312C82.73,30.632,82.21,29.6,81.96,28.35c-0.104,1.188-0.646,2.25-1.625,3.188
	c-0.021-0.021-0.062-0.073-0.125-0.156c-0.062-0.062-0.115-0.114-0.156-0.156C80.932,30.414,81.452,29.456,81.619,28.351z
	 M80.713,27.039c-0.125-0.062-0.25-0.125-0.375-0.188c0.479-0.896,0.833-1.812,1.062-2.75l0.375,0.094
	c-0.021,0.104-0.068,0.281-0.151,0.531c-0.062,0.229-0.115,0.406-0.156,0.531h2.219v0.375l-0.406,1.344
	c-0.125-0.041-0.25-0.072-0.375-0.094l0.406-1.281h-2C81.119,26.101,80.921,26.581,80.713,27.039z"/>
<path fill="#2D2C2C" d="M85.243,29.414c-0.021-0.041-0.042-0.094-0.062-0.156c-0.062-0.146-0.104-0.25-0.125-0.312
	c0.479-0.812,0.854-1.76,1.125-2.844V26.07h-0.969v-0.375h0.969v-1.562h0.438v1.562h0.844v0.375h-0.844v1.281l0.188-0.188
	c0.062,0.062,0.166,0.167,0.312,0.312c0.104,0.084,0.302,0.281,0.594,0.594l-0.312,0.281c-0.271-0.312-0.526-0.604-0.776-0.875
	v4.094h-0.438v-4.531C85.931,28.018,85.618,28.81,85.243,29.414z M87.337,29.539h2.312c0.062-0.25,0.099-0.51,0.099-0.781h-1.812
	v-2.562h4.094v2.562H90.15c0,0.271-0.026,0.531-0.094,0.781h2.469v0.375h-2.276c0.396,0.646,1.192,1.042,2.401,1.188
	c-0.042,0.062-0.104,0.167-0.188,0.312c-0.021,0.042-0.031,0.073-0.031,0.094c-1.271-0.25-2.115-0.739-2.531-1.469
	c-0.271,0.667-1.104,1.198-2.5,1.594c-0.062-0.146-0.146-0.281-0.25-0.406c1.375-0.312,2.166-0.75,2.375-1.312h-2.188V29.539z
	 M87.462,24.882h1.344v-0.75h0.406v0.75h1.469v-0.75h0.406v0.75h1.406v0.344h-1.406v0.625h-0.406v-0.625h-1.469v0.625h-0.406v-0.625
	h-1.344V24.882z M88.368,26.539v0.75h3.219v-0.75H88.368z M88.368,27.632v0.75h3.219v-0.75H88.368z"/>
<path fill="#2D2C2C" d="M98.305,24.101h0.438c0,0.562,0,1.104,0,1.625h2.776v0.406h-2.75c0.021,0.688,0.072,1.303,0.156,1.844
	c0.146,1.062,0.364,1.854,0.656,2.375c0.25,0.521,0.541,0.771,0.875,0.75c0.229,0,0.396-0.156,0.5-0.469
	c0.104-0.396,0.166-0.729,0.188-1c0.021,0.021,0.062,0.042,0.125,0.062c0.062,0.021,0.156,0.053,0.281,0.094
	c-0.062,0.396-0.136,0.719-0.219,0.969c-0.146,0.542-0.438,0.802-0.875,0.781c-0.5,0.021-0.93-0.323-1.281-1.031
	c-0.312-0.604-0.542-1.427-0.688-2.469c-0.062-0.625-0.113-1.26-0.154-1.906h-4.312v-0.406h4.312
	C98.314,25.206,98.305,24.664,98.305,24.101z M94.148,30.914l-0.125-0.375c0.25-0.021,0.688-0.072,1.312-0.156
	c0.229-0.021,0.396-0.041,0.5-0.062v-2.375h-1.531V27.54h3.5v0.406h-1.531v2.312c0.583-0.062,1.208-0.146,1.875-0.25
	c0,0.062,0,0.198,0,0.406c-0.625,0.084-1.636,0.209-3.026,0.375C94.658,30.851,94.336,30.893,94.148,30.914z M99.461,24.57
	l0.312-0.281c0.416,0.334,0.771,0.636,1.062,0.906l-0.312,0.312C100.169,25.154,99.814,24.841,99.461,24.57z"/>
<path fill="#2D2C2C" d="M103.865,29.507l0.312-0.281l1.562,1.75l-0.344,0.281L103.865,29.507z"/>
<path fill="#2D2C2C" d="M115.427,28.007l0.469,0.031c-0.062,0.292-0.125,0.562-0.188,0.812c0.666,1.229,1.844,1.969,3.527,2.219
	c-0.085,0.125-0.152,0.271-0.22,0.438c-1.729-0.354-2.896-1.083-3.5-2.188c-0.459,1.125-1.636,1.886-3.53,2.281
	c-0.021-0.021-0.043-0.062-0.062-0.125c-0.021-0.042-0.073-0.146-0.156-0.312C114.083,30.809,115.302,29.757,115.427,28.007z
	 M112.583,24.57h5.812v3.125h-5.901V27.32h5.469v-1h-5.156v-0.375h5.156v-1h-5.375L112.583,24.57L112.583,24.57z M112.521,28.601
	l0.312-0.25c0.104,0.125,0.291,0.323,0.562,0.594c0.25,0.271,0.438,0.469,0.562,0.594l-0.375,0.281
	C113.229,29.382,112.874,28.976,112.521,28.601z M117.052,29.57c0.375-0.375,0.75-0.771,1.125-1.188l0.344,0.25
	c-0.084,0.084-0.209,0.219-0.375,0.406c-0.312,0.334-0.562,0.604-0.75,0.812L117.052,29.57z"/>
<path fill="#2D2C2C" d="M24.252,37.633c-0.417-0.375-0.844-0.719-1.281-1.031l0.281-0.312c0.438,0.291,0.875,0.625,1.312,1
	L24.252,37.633z M23.189,41.321c0.333-0.771,0.666-1.719,1-2.844c0.146,0.083,0.291,0.156,0.438,0.219
	c-0.375,1.062-0.698,2-0.969,2.812L23.189,41.321z M24.502,35.602c-0.209-0.188-0.479-0.417-0.812-0.688
	c-0.188-0.146-0.318-0.261-0.401-0.344l0.312-0.312c0.333,0.25,0.739,0.583,1.219,1L24.502,35.602z M25.658,38.446h1.938v-1.5
	h-2.469V36.54h2.469v-1.469c-0.688,0.021-1.396,0.052-2.125,0.094c-0.021-0.167-0.053-0.303-0.094-0.406
	c1.396-0.021,2.989-0.104,4.781-0.25l0.062,0.406c-0.229,0.021-0.594,0.041-1.094,0.062c-0.479,0.041-0.844,0.072-1.094,0.094v1.469
	h2.526v0.406h-2.526v1.5h1.938v3.125h-0.406v-0.469h-3.5v0.469H25.66L25.658,38.446L25.658,38.446z M26.064,38.852v1.875h3.5v-1.875
	H26.064z"/>
<path fill="#2D2C2C" d="M32.188,35.415H33c0.166-0.5,0.291-0.928,0.375-1.281l0.438,0.094c-0.125,0.416-0.25,0.812-0.375,1.188
	h1.599v6h-0.438V40.79h-2v0.688H32.19L32.188,35.415L32.188,35.415z M32.595,35.79v2.125h2V35.79H32.595z M32.595,38.29v2.156h2
	V38.29H32.595z M35.72,37.102c-0.042-0.021-0.104-0.062-0.188-0.125c-0.084-0.042-0.146-0.073-0.188-0.094
	c0.458-0.75,0.854-1.667,1.188-2.75l0.438,0.094c-0.125,0.375-0.271,0.76-0.438,1.156h2.594c0,0.104,0,0.271,0,0.5
	c-0.042,1.854-0.094,3.281-0.156,4.281c0.021,0.812-0.428,1.229-1.344,1.25c-0.417,0-0.823,0-1.219,0
	c0-0.021-0.016-0.053-0.031-0.094c-0.021-0.168-0.053-0.281-0.094-0.344c0.291,0.02,0.719,0.031,1.276,0.031
	c0.666,0.02,1-0.281,1-0.906c0.041-0.521,0.072-1.615,0.099-3.281c0.021-0.479,0.026-0.823,0.026-1.031h-2.312
	C36.104,36.393,35.886,36.831,35.72,37.102z M36.063,37.477l0.312-0.25c0.041,0.062,0.104,0.146,0.188,0.25
	c0.458,0.562,0.812,1.031,1.062,1.406l-0.344,0.25C36.886,38.549,36.479,37.998,36.063,37.477z"/>
<path fill="#2D2C2C" d="M40.749,37.633h4.401v0.375h-0.75v2.719c0.021,0.541-0.229,0.812-0.75,0.812c-0.271,0-0.542,0-0.812,0
	c0-0.125-0.021-0.262-0.062-0.406c0.083,0,0.196,0,0.348,0c0.166,0.02,0.302,0.031,0.402,0.031c0.333,0.02,0.488-0.137,0.473-0.469
	v-2.688h-3.25V37.633L40.749,37.633z M40.843,34.415h4.156v0.375h-0.599v2.438h-0.401V34.79h-3.156V34.415L40.843,34.415z
	 M41.124,38.696h2.026v1.625h-1.651v0.344h-0.375V38.696z M41.187,35.446h2v1.531h-2V35.446z M41.499,39.04v0.938h1.276V39.04
	H41.499z M41.562,35.79v0.844h1.224V35.79H41.562z M46.124,38.352c0.104-0.521,0.151-1.229,0.151-2.125h0.406
	c0,0.5-0.021,0.947-0.062,1.344c0.291,1.604,0.859,2.791,1.719,3.562c-0.104,0.082-0.209,0.188-0.312,0.312
	c-0.792-0.812-1.312-1.844-1.562-3.094c-0.104,1.188-0.646,2.25-1.625,3.188c-0.021-0.021-0.062-0.074-0.125-0.156
	c-0.062-0.062-0.115-0.115-0.156-0.156C45.437,40.415,45.957,39.456,46.124,38.352z M45.218,37.04
	c-0.125-0.062-0.25-0.125-0.375-0.188c0.479-0.896,0.833-1.812,1.062-2.75l0.375,0.094c-0.021,0.104-0.068,0.281-0.151,0.531
	c-0.062,0.229-0.115,0.406-0.156,0.531h2.219v0.375l-0.401,1.344c-0.125-0.042-0.25-0.073-0.375-0.094l0.401-1.281h-2
	C45.624,36.102,45.426,36.581,45.218,37.04z"/>
<path fill="#2D2C2C" d="M54.217,34.102h0.406v1.312h2v6.156h-0.406v-0.53h-5.625v0.531h-0.406v-6.156h2v-1.312h0.406v1.312h1.625
	V34.102z M50.592,35.79v2.219h1.594V35.79H50.592z M50.592,38.415v2.25h1.594v-2.25H50.592z M52.592,35.79v2.219h1.625V35.79H52.592
	z M52.592,38.415v2.25h1.625v-2.25H52.592z M56.217,35.79h-1.594v2.219h1.594V35.79z M54.623,38.415v2.25h1.594v-2.25H54.623z"/>
<path fill="#2D2C2C" d="M58.56,38.79l-0.062-0.406c0.354-0.125,0.692-0.229,1.026-0.312v-1.906H58.56V35.79h0.969v-1.656h0.438
	v1.656h0.844v0.375h-0.844v1.781c0.271-0.104,0.562-0.198,0.875-0.281c0,0.146,0,0.281,0,0.406
	c-0.084,0.021-0.229,0.062-0.438,0.125c-0.188,0.062-0.334,0.114-0.438,0.156v2.375c0.021,0.5-0.219,0.75-0.719,0.75
	c-0.167,0-0.375,0-0.625,0c0-0.125-0.021-0.271-0.062-0.438c0.208,0,0.406,0,0.594,0c0.271,0.02,0.396-0.094,0.375-0.344v-2.219
	c-0.084,0.021-0.219,0.062-0.401,0.125C58.872,38.685,58.685,38.748,58.56,38.79z M60.81,37.352
	c-0.084-0.084-0.188-0.188-0.312-0.312c0.688-0.75,1.26-1.719,1.719-2.906l0.406,0.125c-0.188,0.479-0.391,0.906-0.599,1.281h3.938
	v0.375H64.06v1.344h1.812v0.375H64.06v1.312h1.812v0.375H64.06v1.344h1.969v0.312h-4.25v0.594h-0.401v-4.969
	c-0.042,0.062-0.104,0.146-0.188,0.25C61.038,37.06,60.913,37.227,60.81,37.352z M61.81,35.915l-0.031,0.062v1.281h1.875v-1.344
	L61.81,35.915L61.81,35.915z M61.778,37.633v1.312h1.875v-1.312H61.778z M61.778,39.321v1.344h1.875v-1.344H61.778z M63.31,34.352
	l0.375-0.219c0.062,0.104,0.166,0.271,0.312,0.5c0.188,0.291,0.312,0.5,0.375,0.625l-0.375,0.219
	C63.768,35.04,63.538,34.665,63.31,34.352z"/>
<path fill="#2D2C2C" d="M70.09,35.758l0.438,0.125c-0.021,0.041-0.062,0.114-0.125,0.219c-0.042,0.083-0.084,0.156-0.125,0.219
	h4.474v0.406h-4.69c-0.25,0.416-0.531,0.833-0.844,1.25v3.594h-0.438v-3.094c-0.459,0.5-0.834,0.875-1.125,1.125
	c-0.021-0.041-0.062-0.104-0.125-0.188c-0.062-0.062-0.11-0.115-0.151-0.156c0.812-0.667,1.552-1.511,2.219-2.531h-1.938v-0.406
	h2.155C69.912,36.133,70.006,35.946,70.09,35.758z M72.402,34.133h0.406v0.688h2.031v0.406h-2.031v0.625h-0.406v-0.625h-2.344v0.531
	H69.62v-0.531h-2.062v-0.406h2.062v-0.688h0.438v0.688h2.344V34.133z M70.34,37.946v-0.375h3.938v0.438l-1.526,0.969v0.25h2.094
	v0.375H72.75v1.062c0.021,0.562-0.25,0.832-0.812,0.812c-0.167,0.02-0.553,0.031-1.153,0.031c0-0.043-0.021-0.125-0.062-0.25
	c-0.021-0.084-0.031-0.146-0.031-0.188c0.271,0.02,0.639,0.031,1.099,0.031c0.396,0.02,0.582-0.125,0.562-0.438v-1.062h-2.562
	v-0.375h2.562V38.79l1.375-0.844H70.34z"/>
<path fill="#2D2C2C" d="M76.4,39.446c-0.021-0.041-0.053-0.104-0.094-0.188c-0.042-0.104-0.084-0.188-0.125-0.25
	c0.562-0.75,1-1.74,1.312-2.969h-1.125v-0.375h1.125v-1.531H77.9v1.531h1.099v0.375H77.9v1.281l0.224-0.25
	c0.458,0.416,0.802,0.739,1.026,0.969L78.87,38.32c-0.125-0.125-0.312-0.303-0.562-0.531c-0.188-0.188-0.323-0.323-0.406-0.406
	v4.156H77.5v-4.688C77.202,37.998,76.838,38.862,76.4,39.446z M80.15,35.04v2.219c0,1.208-0.094,2.084-0.276,2.625
	c-0.167,0.541-0.558,1.094-1.156,1.656c-0.084-0.084-0.209-0.188-0.375-0.312c0.604-0.543,0.989-1.053,1.156-1.531
	c0.166-0.479,0.25-1.303,0.25-2.469v-2.594h2.625v5.875c0,0.27,0.104,0.395,0.312,0.375h0.156c0.291,0,0.447-0.146,0.469-0.438
	c0.062-0.334,0.104-0.75,0.125-1.25c0.146,0.062,0.281,0.115,0.406,0.156c-0.021,0.562-0.062,0.969-0.125,1.219
	c-0.084,0.5-0.354,0.738-0.812,0.719h-0.276c-0.459,0-0.688-0.24-0.688-0.719V35.04H80.15z"/>
<path fill="#2D2C2C" d="M85.118,36.946h2.276v-1.188h-1.344c-0.104,0.271-0.25,0.552-0.438,0.844l-0.029-0.031
	c-0.125-0.084-0.229-0.136-0.312-0.156c0.396-0.625,0.666-1.271,0.812-1.938l0.404,0.062c-0.021,0.062-0.056,0.156-0.097,0.281
	c-0.062,0.25-0.125,0.438-0.188,0.562h1.188v-1.219H87.8v1.219h1.688v0.375H87.8v1.188h2.031v0.406H87.8v1.031h1.719v1.812
	c0.021,0.438-0.219,0.666-0.719,0.688c-0.146,0-0.334,0-0.562,0c-0.021-0.043-0.042-0.115-0.062-0.219
	c-0.021-0.062-0.031-0.104-0.031-0.125c0.104,0.021,0.291,0.031,0.562,0.031c0.291,0.021,0.427-0.115,0.403-0.406v-1.406H87.8v2.844
	h-0.406v-2.844h-1.276v2.25H85.71v-2.625H87.4v-1.031H85.12L85.118,36.946L85.118,36.946z M91.837,34.165h0.438v6.375
	c0.021,0.625-0.271,0.926-0.875,0.906c-0.354,0-0.678,0-0.969,0c0-0.043-0.011-0.115-0.031-0.219
	c-0.021-0.105-0.042-0.178-0.062-0.219c0.104,0,0.26,0.01,0.469,0.031c0.208,0,0.364,0,0.469,0c0.396,0.02,0.583-0.156,0.562-0.531
	L91.837,34.165L91.837,34.165z M90.743,39.571h-0.406v-4.656h0.406V39.571z"/>
<path fill="#2D2C2C" d="M96.242,39.446v0.688c0.021,0.707-0.229,1.229-0.75,1.562l-0.224-0.188c0.458-0.334,0.682-0.75,0.656-1.25
	H95.49v-0.812H96.242z"/>
<path fill="#2D2C2C" d="M102.959,39.196l-0.125-0.438c0.062,0,0.146-0.011,0.25-0.031c0.604-0.104,1.104-0.188,1.5-0.25v-1.625
	h-1.75v-0.375h1.75v-1.344c-0.125,0.021-0.312,0.041-0.562,0.062c-0.438,0.041-0.719,0.072-0.844,0.094
	c-0.021-0.084-0.053-0.188-0.094-0.312c-0.021-0.042-0.031-0.073-0.031-0.094c1.041-0.104,2.083-0.24,3.125-0.406l0.125,0.375
	c-0.062,0.021-0.167,0.041-0.312,0.062c-0.167,0.021-0.49,0.072-0.974,0.156v1.406h2.224c-0.042-0.75-0.062-1.542-0.062-2.375h0.438
	c0,0.833,0.021,1.625,0.062,2.375h2.781v0.375h-2.781c0.021,0.146,0.041,0.364,0.062,0.656c0.041,0.208,0.062,0.364,0.062,0.469
	c0.062,0.479,0.135,0.875,0.219,1.188c0.541-0.479,1.041-1.042,1.5-1.688l0.375,0.25c-0.667,0.875-1.25,1.5-1.75,1.875
	c0.083,0.271,0.188,0.51,0.312,0.719c0.25,0.5,0.541,0.75,0.875,0.75c0.229,0,0.385-0.146,0.469-0.438
	c0.104-0.291,0.177-0.635,0.219-1.031c0.021,0.021,0.062,0.041,0.125,0.062c0.063,0.021,0.156,0.053,0.281,0.094
	c-0.062,0.375-0.146,0.729-0.25,1.062c-0.125,0.457-0.406,0.688-0.844,0.688c-0.5,0.02-0.928-0.324-1.281-1.031
	c-0.104-0.166-0.188-0.354-0.25-0.562c-0.542,0.416-1.198,0.801-1.969,1.156c-0.125-0.188-0.219-0.303-0.281-0.344
	c0.729-0.291,1.427-0.709,2.094-1.25c-0.125-0.438-0.219-0.917-0.276-1.438c0-0.084-0.016-0.219-0.031-0.406
	c-0.042-0.334-0.062-0.594-0.062-0.781h-2.25v1.531c0.25-0.042,0.614-0.115,1.099-0.219c0.208-0.042,0.359-0.073,0.469-0.094
	c0,0.125,0,0.26,0,0.406c-0.146,0.021-0.375,0.072-0.688,0.156c-0.375,0.062-0.667,0.114-0.875,0.156v1.812
	c0.021,0.52-0.236,0.791-0.777,0.812c-0.146,0.02-0.448,0.031-0.906,0.031c-0.021-0.168-0.053-0.312-0.094-0.438
	c0.229,0,0.51,0,0.844,0c0.354,0.02,0.521-0.115,0.5-0.406v-1.719c-0.084,0.021-0.219,0.041-0.406,0.062
	C103.948,38.987,103.542,39.071,102.959,39.196z M108.209,34.852l0.312-0.281c0.396,0.312,0.822,0.688,1.281,1.125l-0.312,0.281
	c-0.042-0.042-0.146-0.136-0.312-0.281C108.698,35.279,108.375,34.998,108.209,34.852z"/>
<path fill="#2D2C2C" d="M113.271,38.727l0.406,0.062c-0.021,0.062-0.042,0.156-0.062,0.281c-0.042,0.166-0.073,0.291-0.099,0.375
	c0.416,0.812,1.062,1.26,1.938,1.344v-2.375h-3.597V38.04h7.347v0.375h-3.347v1h2.812v0.344h-2.812v1.062c0.062,0,0.104,0,0.125,0
	c0.75,0.02,1.854,0.031,3.312,0.031c-0.062,0.104-0.104,0.25-0.125,0.438c-0.917,0-1.979-0.021-3.188-0.062
	c-1.229,0.02-2.104-0.418-2.625-1.312c-0.229,0.625-0.688,1.188-1.375,1.688c-0.021-0.021-0.062-0.062-0.125-0.125
	c-0.062-0.084-0.111-0.146-0.152-0.188C112.604,40.684,113.124,39.831,113.271,38.727z M112.958,34.477h5.125v2.75h-5.125V34.477z
	 M113.365,34.821v0.844h4.276v-0.844H113.365z M113.365,36.008v0.844h4.276v-0.844H113.365z"/>
<path fill="#2D2C2C" d="M23.064,48.04h1.562v-2.75h-1.312v-0.375h1.312v-0.812h0.406v0.812h3.5v-0.812h0.438v0.812h1.312v0.375
	H28.97v2.75h1.531v0.375h-2.406c0.604,0.625,1.416,1.115,2.438,1.469c-0.021,0.041-0.058,0.104-0.099,0.188
	c-0.062,0.088-0.104,0.146-0.125,0.188c-1.25-0.5-2.146-1.114-2.688-1.844h-1.722c-0.646,0.75-1.521,1.405-2.625,1.969
	c-0.062-0.125-0.146-0.25-0.25-0.375c1-0.438,1.79-0.969,2.375-1.594h-2.346L23.064,48.04L23.064,48.04z M26.596,48.821h0.406v0.75
	h1.812v0.344h-1.812v0.906h3.031v0.344h-6.531v-0.344h3.094v-0.906h-1.844v-0.344h1.844V48.821z M25.033,45.29v0.688h3.5V45.29
	H25.033z M25.033,46.321v0.688h3.5v-0.688H25.033z M25.033,47.353v0.688h3.5v-0.688H25.033z"/>
<path fill="#2D2C2C" d="M33.845,44.696h6.281v0.407h-2.812v2.219h3.406v0.438h-3.406v2.625c0.021,0.707-0.318,1.062-1.026,1.062
	c-0.354,0-0.729,0-1.125,0c-0.021-0.146-0.058-0.303-0.099-0.469c0.333,0,0.682,0,1.031,0c0.541,0.041,0.791-0.183,0.75-0.656
	v-2.562H33.22v-0.438h3.625v-2.219h-3V44.696z"/>
<path fill="#2D2C2C" d="M45.312,46.758c-0.729,0.062-1.115,0.636-1.151,1.72v2.469h-0.44v-4.527h0.438v0.846h0.026
	c0.208-0.604,0.604-0.93,1.188-0.971c0.312-0.021,0.594,0.062,0.844,0.25L46,46.978C45.833,46.831,45.604,46.758,45.312,46.758z"/>
<path fill="#2D2C2C" d="M52.062,46.415H52.5v4.531h-0.438v-0.875c-0.334,0.604-0.875,0.926-1.625,0.969
	c-1.104,0.02-1.646-0.541-1.625-1.688V46.38h0.438v2.906c-0.021,0.938,0.406,1.396,1.281,1.375c0.911-0.041,1.427-0.541,1.526-1.5
	L52.062,46.415L52.062,46.415z"/>
<path fill="#2D2C2C" d="M59.092,46.383h0.5l-2.062,4.812c-0.354,0.957-0.75,1.396-1.188,1.312c-0.334,0-0.584-0.062-0.75-0.188
	l0.062-0.25c0.166,0.062,0.354,0.082,0.562,0.062c0.354,0.082,0.677-0.293,0.969-1.125c0.021-0.021,0.041-0.062,0.062-0.125
	c0.021-0.043,0.041-0.084,0.062-0.125l-1.906-4.375h0.5l1.599,3.97L59.092,46.383z"/>
<path fill="#2D2C2C" d="M62.403,44.696h0.474v0.688h-0.474V44.696z M62.403,46.383h0.474v4.562h-0.474V46.383z"/>
<path fill="#2D2C2C" d="M65.402,50.915v-0.75h0.75v0.75H65.402z"/>
<path fill="#2D2C2C" d="M69.057,47.758l-0.438-0.155c0.188-0.896,0.854-1.332,2-1.312c1.25-0.041,1.844,0.5,1.776,1.625v2.03
	c-0.021,0.438,0.062,0.761,0.25,0.97H72.18c-0.167-0.188-0.25-0.47-0.25-0.845c-0.334,0.625-1,0.947-2,0.97
	c-0.938-0.021-1.417-0.429-1.438-1.22c0-0.834,0.552-1.312,1.651-1.438c1.041-0.084,1.64-0.25,1.781-0.5
	c0.062-0.854-0.375-1.26-1.312-1.219C69.702,46.644,69.182,47.008,69.057,47.758z M71.963,49.133v-0.905
	c-0.146,0.25-0.656,0.432-1.531,0.53c-1.062,0.084-1.562,0.438-1.5,1.062c-0.042,0.584,0.364,0.863,1.219,0.849
	C71.275,50.624,71.879,50.112,71.963,49.133z"/>
<path fill="#2D2C2C" d="M74.743,44.696h0.469v0.688h-0.469V44.696z M74.743,46.383h0.469v4.562h-0.469V46.383z"/>
<path fill="#2D2C2C" d="M79.316,45.512h0.781c0.16-0.481,0.28-0.894,0.361-1.234l0.422,0.09c-0.12,0.4-0.24,0.782-0.36,1.145h1.534
	v5.775h-0.423v-0.603h-1.925v0.662H79.32L79.316,45.512L79.316,45.512z M79.706,45.872v2.046h1.925v-2.046H79.706z M79.706,48.279
	v2.076h1.925v-2.076H79.706z M82.715,47.136c-0.041-0.02-0.101-0.06-0.181-0.12c-0.081-0.04-0.142-0.065-0.182-0.091
	c0.44-0.723,0.822-1.604,1.145-2.648l0.421,0.091c-0.12,0.361-0.261,0.731-0.421,1.112h2.497c0,0.101,0,0.26,0,0.481
	c-0.041,1.785-0.091,3.158-0.151,4.121c0.021,0.781-0.411,1.184-1.293,1.204c-0.401,0-0.793,0-1.174,0
	c0-0.021-0.01-0.052-0.03-0.092c-0.02-0.161-0.051-0.27-0.09-0.331c0.28,0.021,0.692,0.026,1.233,0.026
	c0.642,0.021,0.963-0.267,0.963-0.868c0.039-0.502,0.064-1.556,0.09-3.163c0.021-0.461,0.03-0.791,0.03-0.992h-2.226
	C83.086,46.453,82.874,46.874,82.715,47.136z M83.046,47.497l0.3-0.241c0.04,0.061,0.101,0.142,0.182,0.241
	c0.441,0.541,0.781,0.991,1.022,1.353l-0.331,0.241C83.837,48.528,83.447,47.999,83.046,47.497z"/>
<path fill="#2D2C2C" d="M105.462,45.903l0.331-0.211c0.1,0.1,0.226,0.25,0.391,0.451c0.12,0.141,0.211,0.251,0.266,0.331
	l-0.33,0.211h1.955c0.24-0.341,0.467-0.683,0.692-1.022l0.391,0.24c-0.021,0.021-0.056,0.061-0.095,0.12
	c-0.22,0.28-0.401,0.502-0.541,0.663h2.347v0.391h-7.191v-0.391h2.407C105.892,46.404,105.681,46.144,105.462,45.903z
	 M106.875,44.339l0.387-0.15c0.061,0.081,0.142,0.21,0.241,0.391c0.101,0.16,0.174,0.292,0.214,0.391l-0.335,0.149h3.129v0.361
	h-6.438V45.12h3.219c-0.06-0.14-0.161-0.331-0.3-0.572C106.935,44.45,106.895,44.378,106.875,44.339z M104.619,47.888h5.295v3.521
	h-0.422v-0.452h-4.453v0.481h-0.422v-3.552L104.619,47.888L104.619,47.888z M105.039,48.249v1.054h4.453v-1.054H105.039z
	 M105.039,49.634v0.963h4.453v-0.963H105.039z"/>
<path fill="#2D2C2C" d="M112.104,50.384c-0.02-0.02-0.04-0.052-0.059-0.091c-0.081-0.14-0.142-0.23-0.182-0.27
	c0.541-0.622,0.972-1.415,1.294-2.378h-1.084v-0.33h1.145v-1.053h0.392v1.053h1.021v0.331h-1.021v0.902l0.21-0.211
	c0.221,0.182,0.521,0.462,0.902,0.843l-0.266,0.27c-0.301-0.321-0.582-0.602-0.843-0.842v2.829h-0.394v-3.159
	C112.955,49.081,112.585,49.782,112.104,50.384z M113.337,44.217l0.392,0.09c-0.12,0.241-0.241,0.472-0.361,0.692h2.226v0.331
	h-2.437c-0.301,0.422-0.612,0.777-0.933,1.058c-0.021-0.02-0.051-0.056-0.091-0.095c-0.081-0.1-0.141-0.16-0.182-0.181
	C112.575,45.55,113.035,44.917,113.337,44.217z M114.631,46.081l-0.331,0.24c-0.201-0.24-0.391-0.461-0.571-0.662l0.266-0.211
	c0.101,0.081,0.241,0.221,0.423,0.422C114.519,45.971,114.591,46.042,114.631,46.081z M115.173,46.653h3.489v4.784h-0.391v-0.481
	h-2.678v0.481h-0.421V46.653z M116.587,44.217l0.391,0.09c-0.04,0.1-0.111,0.25-0.215,0.451c-0.041,0.12-0.066,0.201-0.091,0.241
	h2.407v0.331h-2.615c-0.181,0.321-0.401,0.632-0.662,0.938c-0.021-0.021-0.066-0.06-0.146-0.121c-0.08-0.059-0.141-0.101-0.181-0.12
	C115.975,45.519,116.346,44.917,116.587,44.217z M115.594,46.984v0.993h2.678v-0.993H115.594z M115.594,48.338v0.992h2.678v-0.992
	H115.594z M115.594,49.691v0.934h2.678v-0.934H115.594z M117.91,46.112l-0.301,0.24c-0.201-0.261-0.401-0.49-0.602-0.691
	l0.301-0.211c0.12,0.12,0.3,0.306,0.54,0.571C117.689,45.841,117.709,45.871,117.91,46.112z"/>
<g>
	<path fill="#C9CACA" d="M79.316,71.215v-1c25.144,0,47.141-9.832,52.311-23.377l0.934,0.356
		C127.244,61.114,104.854,71.215,79.316,71.215z"/>
</g>
<path fill="#2D2C2C" d="M91.564,48.102c-0.06-0.039-0.138-0.098-0.232-0.174c-0.487-0.389-0.866-0.671-1.138-0.847
	c-0.233,0.506-0.796,0.973-1.688,1.4c-0.059-0.118-0.138-0.234-0.233-0.352c0.93-0.348,1.485-0.814,1.66-1.397h-1.573v-0.351h1.661
	c0.059-0.251,0.086-0.552,0.086-0.902h-0.959c-0.137,0.234-0.321,0.447-0.555,0.641c-0.058-0.058-0.146-0.135-0.263-0.231
	c0.486-0.448,0.826-0.933,1.02-1.457l0.321,0.086c-0.039,0.098-0.096,0.224-0.174,0.378c-0.061,0.116-0.099,0.205-0.118,0.263h2.243
	v0.32h-1.137c0,0.351-0.02,0.651-0.058,0.902h1.429v0.351h-1.517v0.028c-0.02,0-0.028,0.013-0.028,0.029
	c0.059,0.04,0.146,0.098,0.263,0.175c0.35,0.214,0.758,0.496,1.223,0.845L91.564,48.102z M89.436,48.363h4.72v3.089h-0.377v-0.32
	h-3.963v0.32h-0.38V48.363z M89.816,48.714v0.874h3.963v-0.874H89.816z M89.816,49.937v0.846h3.963v-0.846H89.816z M92.262,45.072
	h2.594v2.623h-2.594V45.072z M92.642,45.421v1.923h1.834v-1.923H92.642z"/>
<path fill="#2D2C2C" d="M99.189,46.907c-0.039-0.058-0.098-0.126-0.174-0.204c-0.098-0.098-0.167-0.177-0.205-0.232
	c-1.106,0.04-1.913,0.078-2.419,0.116c-0.193,0-0.358,0.019-0.493,0.058l-0.177-0.379c0.137-0.077,0.284-0.192,0.438-0.349
	c0.467-0.505,0.864-1,1.193-1.485l0.38,0.174c-0.524,0.661-0.991,1.206-1.399,1.63c0.077,0,0.204-0.009,0.38-0.028
	c0.796-0.02,1.398-0.049,1.806-0.088c-0.195-0.231-0.407-0.456-0.642-0.669l0.291-0.234c0.429,0.409,0.876,0.885,1.341,1.428
	L99.189,46.907z M96.537,51.395h-0.378v-4.109h2.738v3.351c0.02,0.467-0.204,0.7-0.671,0.7c-0.213,0-0.447,0-0.698,0
	c0-0.118-0.02-0.244-0.059-0.38c0.059,0,0.165,0,0.32,0c0.155,0.02,0.271,0.029,0.35,0.029c0.272,0,0.398-0.116,0.379-0.35V49.88
	h-1.981V51.395z M96.537,47.605v0.816h1.981v-0.816H96.537z M96.537,48.742v0.816h1.981v-0.816H96.537z M99.829,48.073h0.378v1.252
	c0.778-0.292,1.517-0.631,2.214-1.021l0.205,0.351c-0.797,0.408-1.601,0.768-2.419,1.079v0.697
	c-0.018,0.331,0.165,0.486,0.556,0.467h0.843c0.37,0,0.584-0.126,0.642-0.38c0.039-0.174,0.067-0.426,0.087-0.755
	c0.058,0.018,0.136,0.038,0.233,0.058c0.059,0.039,0.106,0.059,0.146,0.059c-0.02,0.192-0.058,0.436-0.117,0.728
	c-0.077,0.466-0.387,0.688-0.93,0.67h-0.992c-0.582,0.019-0.863-0.243-0.845-0.787V48.073z M99.829,44.519h0.378v1.37
	c0.563-0.193,1.254-0.517,2.069-0.962l0.233,0.321c-0.699,0.369-1.466,0.718-2.303,1.048v0.466
	c-0.018,0.352,0.165,0.517,0.556,0.496h0.843c0.352,0,0.555-0.145,0.612-0.437c0.059-0.154,0.097-0.417,0.116-0.787
	c0.136,0.059,0.262,0.098,0.379,0.116c-0.02,0.155-0.048,0.361-0.087,0.611c-0.02,0.079-0.03,0.127-0.03,0.146
	c-0.097,0.486-0.416,0.719-0.961,0.698h-0.932c-0.602,0.021-0.893-0.242-0.874-0.785V44.519z"/>
</svg>
