<?xml version="1.0" encoding="utf-8"?>
<!-- Generator: Adobe Illustrator 16.0.0, SVG Export Plug-In . SVG Version: 6.00 Build 0)  -->
<!DOCTYPE svg PUBLIC "-//W3C//DTD SVG 1.1//EN" "http://www.w3.org/Graphics/SVG/1.1/DTD/svg11.dtd">
<svg version="1.1" id="图层_1" xmlns="http://www.w3.org/2000/svg" xmlns:xlink="http://www.w3.org/1999/xlink" x="0px" y="0px"
	 width="142.305px" height="88.873px" viewBox="0 0 142.305 88.873" enable-background="new 0 0 142.305 88.873"
	 xml:space="preserve">
<g>
	<g>
		<path fill="#FFFFFF" d="M71.152,0.499C32.13,0.499,0.5,18.324,0.5,40.309C0.5,54,12.772,66.071,31.445,73.237
			c0,0.012,0.335,0.143,0.95,0.354c-0.713,5.207-5.626,10.572-7.886,13.492h0.009c-0.193,0.342-0.307,0.717-0.307,1.111
			c0,1.393,23.821-5.861,30.963-9.281c4.971,0.715,10.401,1.203,15.978,1.203c39.021,0,70.652-17.824,70.652-39.809
			C141.805,18.324,110.171,0.499,71.152,0.499z"/>
		<path fill="#B5B5B6" d="M24.712,88.874c-0.87,0-1-0.424-1-0.676c0-0.439,0.108-0.869,0.327-1.277
			c0.017-0.051,0.042-0.098,0.075-0.141c0.323-0.42,0.702-0.891,1.116-1.404c2.347-2.904,5.853-7.246,6.604-11.447
			c-0.266-0.094-0.45-0.164-0.582-0.229C11.683,66.187,0,53.704,0,40.309c0-22.227,31.919-40.31,71.15-40.31
			c39.233,0,71.152,18.083,71.152,40.31s-31.919,40.309-71.152,40.309c-5.027,0-10.378-0.398-15.897-1.186
			C48.61,82.565,28.229,88.874,24.712,88.874z M24.959,87.321c-0.002,0.004-0.004,0.008-0.006,0.012
			c-0.103,0.176-0.171,0.357-0.208,0.541c3.562-0.041,23.807-6.342,30.214-9.41c0.089-0.041,0.188-0.055,0.287-0.043
			c5.525,0.795,10.879,1.197,15.904,1.197c38.685,0,70.152-17.633,70.152-39.309s-31.47-39.31-70.152-39.31
			C32.47,0.999,1,18.633,1,40.309c0,12.967,11.448,25.102,30.624,32.461c0.024,0.01,0.051,0.021,0.074,0.035
			c0.102,0.045,0.396,0.152,0.858,0.312c0.228,0.078,0.364,0.305,0.332,0.541c-0.63,4.6-4.391,9.26-6.88,12.344
			C25.624,86.483,25.269,86.924,24.959,87.321z"/>
	</g>
	<g>
		<path fill="#2D2C2C" d="M25.356,41.852l-0.125-0.438c0.062,0,0.146-0.01,0.25-0.031c0.604-0.104,1.104-0.188,1.5-0.25v-1.625
			h-1.75v-0.375h1.75V37.79c-0.125,0.021-0.312,0.041-0.562,0.062c-0.438,0.041-0.719,0.072-0.844,0.094
			c-0.021-0.084-0.055-0.188-0.096-0.312c-0.021-0.041-0.029-0.072-0.029-0.094c1.041-0.104,2.084-0.24,3.125-0.406l0.125,0.375
			c-0.062,0.021-0.166,0.041-0.312,0.062c-0.166,0.021-0.49,0.072-0.969,0.156v1.406h2.219c-0.041-0.75-0.062-1.541-0.062-2.375
			h0.438c0,0.834,0.021,1.625,0.062,2.375h2.779v0.375h-2.779c0.021,0.146,0.041,0.365,0.062,0.656
			c0.041,0.209,0.062,0.365,0.062,0.469c0.062,0.479,0.135,0.875,0.219,1.188c0.541-0.479,1.041-1.041,1.5-1.688l0.375,0.25
			c-0.666,0.875-1.25,1.5-1.75,1.875c0.084,0.271,0.188,0.51,0.312,0.719c0.25,0.5,0.541,0.75,0.875,0.75
			c0.229,0,0.387-0.146,0.471-0.438c0.104-0.291,0.178-0.635,0.219-1.031c0.021,0.021,0.062,0.041,0.125,0.062
			c0.062,0.021,0.156,0.053,0.281,0.094c-0.062,0.375-0.146,0.729-0.25,1.062c-0.125,0.457-0.406,0.688-0.846,0.688
			c-0.5,0.02-0.928-0.324-1.279-1.031c-0.104-0.166-0.188-0.354-0.25-0.562c-0.541,0.416-1.197,0.801-1.971,1.156
			c-0.125-0.188-0.219-0.303-0.279-0.344c0.729-0.291,1.428-0.709,2.094-1.25c-0.125-0.438-0.219-0.916-0.281-1.438
			c0-0.084-0.01-0.219-0.031-0.406c-0.041-0.334-0.062-0.594-0.062-0.781h-2.25v1.531c0.25-0.041,0.615-0.115,1.094-0.219
			c0.209-0.041,0.365-0.072,0.469-0.094c0,0.125,0,0.26,0,0.406c-0.146,0.021-0.375,0.072-0.688,0.156
			c-0.375,0.062-0.666,0.115-0.875,0.156v1.812c0.021,0.52-0.24,0.791-0.781,0.812c-0.146,0.02-0.447,0.031-0.906,0.031
			c-0.021-0.168-0.053-0.312-0.094-0.438c0.229,0,0.51,0,0.844,0c0.354,0.02,0.521-0.115,0.5-0.406V41.54
			c-0.084,0.021-0.219,0.041-0.404,0.062C26.347,41.643,25.94,41.727,25.356,41.852z M30.606,37.508l0.312-0.281
			c0.396,0.312,0.822,0.688,1.281,1.125l-0.312,0.281c-0.041-0.041-0.146-0.135-0.312-0.281
			C31.097,37.936,30.772,37.655,30.606,37.508z"/>
		<path fill="#2D2C2C" d="M34.22,41.008c-0.021-0.062-0.053-0.146-0.094-0.25c-0.021-0.084-0.053-0.166-0.094-0.25
			c0.812-1.229,1.385-2.447,1.719-3.656l0.438,0.156c-0.209,0.584-0.438,1.146-0.688,1.688v5.531h-0.406V39.54
			C34.845,40.018,34.552,40.508,34.22,41.008z M36.845,44.133v-5.531h0.406v5.531H36.845z M36.938,37.102l0.346-0.219
			c0.104,0.125,0.279,0.334,0.529,0.625c0.207,0.229,0.354,0.396,0.438,0.5l-0.375,0.25c-0.043-0.041-0.105-0.125-0.188-0.25
			C37.563,37.842,37.313,37.54,36.938,37.102z M41.22,43.102c0.021,0.688-0.312,1.031-1,1.031c-0.418,0-0.793,0-1.125,0
			c-0.021-0.146-0.053-0.303-0.094-0.469c0.332,0.02,0.688,0.031,1.062,0.031c0.541,0.02,0.791-0.188,0.75-0.625v-5.188h-2.062
			v-0.438h2.469V43.102z"/>
		<path fill="#2D2C2C" d="M43.175,38.071h0.812c0.166-0.5,0.291-0.928,0.375-1.281l0.438,0.094c-0.125,0.416-0.25,0.812-0.375,1.188
			h1.594v6h-0.438v-0.625h-2v0.688h-0.406V38.071z M43.581,38.446v2.125h2v-2.125H43.581z M43.581,40.946v2.156h2v-2.156H43.581z
			 M46.706,39.758c-0.041-0.021-0.104-0.062-0.188-0.125c-0.084-0.041-0.146-0.072-0.188-0.094c0.459-0.75,0.854-1.666,1.188-2.75
			l0.438,0.094c-0.125,0.375-0.271,0.76-0.438,1.156h2.594c0,0.104,0,0.271,0,0.5c-0.041,1.854-0.094,3.281-0.154,4.281
			c0.021,0.812-0.43,1.229-1.346,1.25c-0.416,0-0.82,0-1.219,0c0-0.021-0.01-0.053-0.031-0.094
			c-0.021-0.168-0.053-0.281-0.094-0.344c0.291,0.02,0.719,0.031,1.281,0.031c0.666,0.02,1-0.281,1-0.906
			c0.041-0.521,0.072-1.615,0.094-3.281c0.021-0.479,0.031-0.822,0.031-1.031h-2.312C47.091,39.049,46.872,39.487,46.706,39.758z
			 M47.05,40.133l0.312-0.25c0.041,0.062,0.104,0.146,0.188,0.25c0.459,0.562,0.812,1.031,1.062,1.406l-0.344,0.25
			C47.872,41.206,47.466,40.655,47.05,40.133z"/>
		<path fill="#2D2C2C" d="M52.069,44.196c-0.041-0.043-0.094-0.094-0.154-0.156c-0.084-0.105-0.146-0.178-0.188-0.219
			c2.188-1.041,3.334-2.531,3.438-4.469h-3.406v-0.438h3.438c0.062-0.688,0.084-1.396,0.062-2.125h0.438
			c0,0.938-0.01,1.646-0.029,2.125h3.469v0.438h-3.469c0.312,2.021,1.488,3.459,3.529,4.312c-0.188,0.207-0.291,0.344-0.312,0.406
			c-1.959-0.896-3.104-2.229-3.438-4C55.216,41.842,54.091,43.217,52.069,44.196z"/>
		<path fill="#2D2C2C" d="M60.964,37.258h1.906v6.094c0.02,0.5-0.209,0.76-0.688,0.781c-0.188,0-0.387,0-0.594,0
			c0-0.021-0.012-0.043-0.031-0.062c-0.021-0.105-0.031-0.219-0.031-0.344c0.041,0.02,0.125,0.02,0.25,0c0.104,0,0.197,0,0.281,0
			c0.312,0.02,0.457-0.115,0.438-0.406V41.54h-1.156c0.02,1.084-0.168,1.969-0.562,2.656l-0.344-0.281
			c0.375-0.562,0.551-1.428,0.531-2.594V37.258L60.964,37.258z M61.339,37.602v1.625h1.156v-1.625H61.339z M61.339,39.571v1.625
			h1.156v-1.625H61.339z M63.464,37.946h4.594v0.375h-4.594V37.946L63.464,37.946z M63.745,39.321h0.375v4.156h3.154v-4.156h0.406
			v4.906h-0.406v-0.375h-3.529V39.321z M64.433,38.915l0.344-0.156c0.062,0.125,0.188,0.354,0.375,0.688
			c0.25,0.438,0.438,0.771,0.562,1c0.27-0.521,0.531-1.104,0.781-1.75l0.344,0.125c-0.293,0.75-0.594,1.416-0.906,2
			c0.188,0.334,0.457,0.844,0.812,1.531c0.062,0.125,0.111,0.219,0.154,0.281l-0.344,0.188c-0.084-0.146-0.219-0.406-0.406-0.781
			c-0.188-0.334-0.334-0.594-0.438-0.781c-0.312,0.562-0.637,1.094-0.969,1.594l-0.346-0.25c0.416-0.562,0.781-1.146,1.096-1.75
			C65.14,40.165,64.786,39.518,64.433,38.915z M65.37,36.852l0.375-0.125c0.02,0.041,0.051,0.125,0.094,0.25
			c0.145,0.334,0.25,0.594,0.312,0.781l-0.404,0.125c-0.021-0.084-0.062-0.197-0.125-0.344
			C65.515,37.227,65.433,36.999,65.37,36.852z"/>
		<path fill="#2D2C2C" d="M72.563,43.696c-0.021-0.043-0.072-0.105-0.154-0.188c-0.062-0.105-0.115-0.168-0.156-0.188
			c1.27-0.541,2.395-1.354,3.375-2.438h-3.25v-0.406h3.469v-2.219h-3v-0.375h3v-1.125h0.438v1.125h3.062v0.375h-3.062v2.219h3.469
			v0.406h-3.25c0.895,1.041,2.01,1.812,3.344,2.312c-0.084,0.104-0.178,0.229-0.281,0.375c-1.459-0.604-2.553-1.416-3.279-2.438
			v3.125h-0.438v-3.125C75.032,42.174,73.938,43.03,72.563,43.696z M73.532,38.883l0.312-0.25c0.062,0.084,0.166,0.197,0.312,0.344
			c0.291,0.334,0.512,0.604,0.656,0.812l-0.344,0.281C74.157,39.633,73.845,39.237,73.532,38.883z M77.563,40.165l-0.312-0.312
			c0.207-0.209,0.488-0.521,0.844-0.938c0.104-0.104,0.176-0.188,0.219-0.25l0.346,0.25c-0.125,0.146-0.334,0.375-0.625,0.688
			C77.823,39.852,77.667,40.04,77.563,40.165z"/>
		<path fill="#2D2C2C" d="M81.925,37.821h2.125c0.125-0.416,0.219-0.771,0.281-1.062l0.469,0.062
			c-0.021,0.041-0.041,0.115-0.062,0.219c-0.041,0.166-0.125,0.428-0.25,0.781H87.8v6.406h-0.438v-0.5h-5v0.5h-0.438L81.925,37.821
			L81.925,37.821z M82.362,38.227v1.438h5v-1.438H82.362z M82.362,40.071v1.469h5v-1.469H82.362z M82.362,41.915v1.406h5v-1.406
			H82.362z"/>
		<path fill="#2D2C2C" d="M91.819,39.415c-0.729,0.062-1.113,0.635-1.154,1.719v2.469h-0.438v-4.531h0.438v0.844h0.029
			c0.209-0.604,0.604-0.928,1.188-0.969c0.312-0.021,0.594,0.062,0.844,0.25l-0.219,0.438C92.341,39.487,92.11,39.415,91.819,39.415
			z"/>
		<path fill="#2D2C2C" d="M97.183,39.071h0.438v4.531h-0.438v-0.875c-0.334,0.604-0.875,0.926-1.625,0.969
			c-1.104,0.02-1.646-0.541-1.625-1.688V39.04h0.438v2.906c-0.021,0.938,0.404,1.395,1.279,1.375c0.916-0.041,1.428-0.541,1.531-1.5
			L97.183,39.071L97.183,39.071z"/>
		<path fill="#2D2C2C" d="M102.825,39.04h0.5l-2.062,4.812c-0.354,0.957-0.75,1.395-1.188,1.312c-0.334,0-0.584-0.062-0.75-0.188
			l0.062-0.25c0.166,0.062,0.354,0.082,0.562,0.062c0.354,0.082,0.678-0.293,0.969-1.125c0.021-0.021,0.041-0.062,0.062-0.125
			c0.021-0.043,0.041-0.084,0.062-0.125l-1.906-4.375h0.5l1.594,3.969L102.825,39.04z"/>
		<path fill="#2D2C2C" d="M104.751,37.352h0.469v0.688h-0.469V37.352z M104.751,39.04h0.469v4.562h-0.469V39.04z"/>
		<path fill="#2D2C2C" d="M107.362,43.571v-0.75h0.75v0.75H107.362z"/>
		<path fill="#2D2C2C" d="M110.632,40.415l-0.438-0.156c0.188-0.896,0.854-1.334,2-1.312c1.25-0.041,1.846,0.5,1.781,1.625v2.031
			c-0.021,0.438,0.062,0.76,0.25,0.969h-0.469c-0.166-0.188-0.25-0.469-0.25-0.844c-0.334,0.625-1,0.947-2,0.969
			c-0.938-0.021-1.416-0.428-1.438-1.219c0-0.834,0.555-1.312,1.656-1.438c1.041-0.084,1.635-0.25,1.781-0.5
			c0.062-0.854-0.375-1.26-1.312-1.219C111.278,39.299,110.757,39.665,110.632,40.415z M113.538,41.79v-0.906
			c-0.146,0.25-0.656,0.428-1.531,0.531c-1.062,0.084-1.562,0.438-1.5,1.062c-0.041,0.584,0.365,0.863,1.219,0.844
			C112.851,43.28,113.454,42.768,113.538,41.79z"/>
		<path fill="#2D2C2C" d="M115.933,37.352h0.469v0.688h-0.469V37.352z M115.933,39.04h0.469v4.562h-0.469V39.04z"/>
	</g>
	<g>
		<path fill="#B5B5B6" d="M79.316,71.215v-1c25.141,0,47.138-9.832,52.308-23.377l0.934,0.356
			C127.244,61.114,104.854,71.215,79.316,71.215z"/>
	</g>
</g>
</svg>
