<?xml version="1.0" encoding="utf-8"?>
<!-- Generator: Adobe Illustrator 16.0.0, SVG Export Plug-In . SVG Version: 6.00 Build 0)  -->
<!DOCTYPE svg PUBLIC "-//W3C//DTD SVG 1.1//EN" "http://www.w3.org/Graphics/SVG/1.1/DTD/svg11.dtd">
<svg version="1.1" id="图层_1" xmlns="http://www.w3.org/2000/svg" xmlns:xlink="http://www.w3.org/1999/xlink" x="0px" y="0px"
	 width="142.305px" height="88.873px" viewBox="0 0 142.305 88.873" enable-background="new 0 0 142.305 88.873"
	 xml:space="preserve">
<g>
	<g>
		<path fill="#FFFFFF" d="M71.152,0.5C32.13,0.5,0.5,18.325,0.5,40.309c0,13.692,12.272,25.763,30.945,32.929
			c0,0.012,0.335,0.143,0.95,0.355C31.683,78.8,26.77,84.166,24.51,87.085h0.009c-0.195,0.342-0.307,0.717-0.307,1.113
			c0,1.391,23.821-5.863,30.963-9.283c4.971,0.715,10.401,1.203,15.978,1.203c39.019,0,70.652-17.824,70.652-39.81
			C141.805,18.325,110.171,0.5,71.152,0.5z"/>
		<path fill="#C9CACA" d="M24.712,88.873c-0.87,0-1-0.422-1-0.674c0-0.441,0.11-0.871,0.327-1.278
			c0.017-0.05,0.042-0.097,0.075-0.141c0.326-0.421,0.706-0.892,1.121-1.406c2.344-2.903,5.848-7.245,6.602-11.445
			c-0.265-0.094-0.452-0.164-0.583-0.228C11.683,66.185,0,53.705,0,40.309C0,18.083,31.919,0,71.152,0s71.152,18.083,71.152,40.31
			c0,22.228-31.919,40.31-71.152,40.31c-5.021,0-10.37-0.398-15.899-1.187C48.609,82.565,28.228,88.873,24.712,88.873z
			 M24.959,87.322c-0.002,0.005-0.004,0.009-0.007,0.013c-0.101,0.175-0.17,0.355-0.207,0.538c3.562-0.039,23.806-6.34,30.214-9.408
			c0.089-0.041,0.19-0.057,0.287-0.043c5.535,0.795,10.887,1.197,15.906,1.197c38.683,0,70.152-17.634,70.152-39.31
			c0-21.675-31.47-39.31-70.152-39.31S1,18.634,1,40.309c0,12.967,11.448,25.103,30.624,32.462c0.026,0.01,0.051,0.021,0.073,0.035
			c0.102,0.045,0.398,0.154,0.862,0.315c0.225,0.078,0.363,0.304,0.331,0.54c-0.629,4.599-4.389,9.258-6.877,12.34
			C25.626,86.482,25.269,86.924,24.959,87.322z"/>
	</g>
	<g>
		<path fill="#3E3A39" d="M21.184,20.995c0-0.083-0.021-0.197-0.062-0.344c-0.021-0.166-0.042-0.281-0.062-0.344
			c1.021-0.062,2.062-0.177,3.125-0.344l0.156,0.688c-0.104,0-0.261,0.021-0.469,0.062c-0.312,0.021-0.542,0.042-0.688,0.062v1.156
			h1.844c-0.062-0.812-0.094-1.572-0.094-2.281h0.75c0,0.479,0.021,1.24,0.062,2.281h2.688v0.688h-2.656l0.062,0.469
			c0.062,0.521,0.125,0.99,0.188,1.406c0.5-0.458,0.947-0.969,1.344-1.531l0.594,0.438c-0.521,0.709-1.094,1.323-1.719,1.844
			c0.041,0.062,0.083,0.156,0.125,0.281c0.062,0.125,0.104,0.219,0.125,0.281c0.208,0.375,0.447,0.552,0.719,0.531
			c0.166,0,0.291-0.114,0.375-0.344c0.041-0.208,0.104-0.562,0.188-1.062c0.291,0.146,0.51,0.24,0.656,0.281
			c-0.062,0.5-0.156,0.906-0.281,1.219c-0.146,0.438-0.459,0.656-0.938,0.656c-0.562,0.021-1.021-0.292-1.375-0.938
			c-0.021-0.041-0.053-0.114-0.094-0.219c-0.042-0.083-0.073-0.146-0.094-0.188c-0.5,0.334-1.062,0.656-1.688,0.969
			c-0.209-0.312-0.354-0.5-0.438-0.562c0.625-0.291,1.25-0.666,1.875-1.125c-0.125-0.541-0.219-1.166-0.281-1.875l-0.062-0.531
			h-1.875v1.219c0.188-0.021,0.469-0.062,0.844-0.125c0.25-0.041,0.438-0.072,0.562-0.094c0,0.042,0,0.115,0,0.219
			c-0.021,0.188-0.021,0.344,0,0.469c-0.125,0.021-0.312,0.053-0.562,0.094c-0.375,0.062-0.656,0.104-0.844,0.125v1.594
			c0.021,0.562-0.25,0.854-0.812,0.875c-0.188,0.021-0.531,0.031-1.031,0.031c-0.021-0.084-0.042-0.198-0.062-0.344
			c-0.042-0.167-0.073-0.292-0.094-0.375c0.104,0.021,0.364,0.031,0.781,0.031c0.333,0.021,0.489-0.114,0.469-0.406v-1.25
			l-1.469,0.25l-0.125-0.75c0.104-0.021,0.281-0.041,0.531-0.062c0.458-0.062,0.812-0.114,1.062-0.156V22.62h-1.562v-0.688h1.562
			V20.87c-0.25,0.042-0.584,0.073-1,0.094C21.309,20.985,21.225,20.995,21.184,20.995z M27.402,21.651
			c-0.354-0.396-0.781-0.802-1.281-1.219l0.5-0.438c0.291,0.25,0.729,0.625,1.312,1.125L27.402,21.651z"/>
		<path fill="#3E3A39" d="M29.827,24.182l-0.188-1c0.688-1.083,1.188-2.229,1.5-3.438l0.75,0.188
			c-0.021,0.062-0.053,0.156-0.094,0.281c-0.146,0.396-0.323,0.844-0.531,1.344v5.594h-0.719v-4.156
			C30.316,23.412,30.077,23.807,29.827,24.182z M32.358,27.057v-5.5h0.75v5.5H32.358z M33.296,21.338
			c-0.312-0.458-0.615-0.864-0.906-1.219l0.594-0.375c0.416,0.459,0.739,0.844,0.969,1.156L33.296,21.338z M34.546,27.057
			c-0.062-0.25-0.115-0.511-0.156-0.781c0.333,0.021,0.688,0.031,1.062,0.031c0.479,0.041,0.697-0.156,0.656-0.594v-4.719h-1.781
			v-0.719h2.562v5.594c0.021,0.791-0.344,1.188-1.094,1.188H34.546z"/>
		<path fill="#3E3A39" d="M38.752,27.057v-6.125h0.844c0.021-0.083,0.052-0.197,0.094-0.344c0.083-0.229,0.156-0.531,0.219-0.906
			l0.781,0.125c-0.104,0.375-0.219,0.75-0.344,1.125h1.406v6.062h-0.688v-0.594h-1.594v0.656H38.752z M39.471,21.62v1.719h1.594
			V21.62H39.471z M39.471,24.026v1.781h1.594v-1.781H39.471z M42.971,26.995c-0.021-0.229-0.073-0.479-0.156-0.75
			c0.271,0.021,0.677,0.031,1.219,0.031c0.583,0.041,0.875-0.219,0.875-0.781c0.041-0.458,0.072-1.438,0.094-2.938
			c0.021-0.438,0.031-0.75,0.031-0.938h-1.875c-0.084,0.188-0.219,0.459-0.406,0.812c-0.084,0.167-0.146,0.292-0.188,0.375
			c-0.188-0.125-0.396-0.25-0.625-0.375c0.5-0.896,0.885-1.812,1.156-2.75l0.719,0.156c-0.042,0.125-0.104,0.303-0.188,0.531
			c-0.084,0.25-0.146,0.438-0.188,0.562h2.312c0,1.334-0.042,2.896-0.125,4.688c0,0.896-0.448,1.354-1.344,1.375
			C43.866,26.995,43.429,26.995,42.971,26.995z M43.689,24.838c-0.104-0.146-0.261-0.364-0.469-0.656
			c-0.292-0.438-0.521-0.771-0.688-1l0.562-0.375c0.146,0.209,0.364,0.5,0.656,0.875c0.25,0.312,0.438,0.562,0.562,0.75
			L43.689,24.838z"/>
		<path fill="#3E3A39" d="M47.428,22.463v-0.719h3.188c0.041-0.479,0.062-1.156,0.062-2.031h0.812l-0.062,2.031h3.25v0.719h-3.219
			c0.271,1.854,1.385,3.125,3.344,3.812c-0.146,0.188-0.323,0.438-0.531,0.75c-1.729-0.75-2.803-1.906-3.219-3.469
			c-0.292,1.479-1.365,2.667-3.219,3.562c-0.042-0.062-0.125-0.178-0.25-0.344c-0.125-0.146-0.219-0.261-0.281-0.344
			c2.041-0.896,3.125-2.219,3.25-3.969H47.428z"/>
		<path fill="#3E3A39" d="M56.54,27.12l-0.531-0.5c0.354-0.521,0.51-1.531,0.469-3.031v-3.5h2.125v6.156
			c0,0.5-0.229,0.76-0.688,0.781c-0.125,0.021-0.365,0.031-0.719,0.031c-0.021-0.209-0.053-0.428-0.094-0.656
			c0.104,0.021,0.271,0.031,0.5,0.031c0.291,0.021,0.427-0.104,0.406-0.375V24.62h-0.906C57.061,25.599,56.873,26.432,56.54,27.12z
			 M57.103,20.713v1.375h0.906v-1.375H57.103z M57.103,23.838v0.188h0.906v-1.375h-0.906V23.838z M59.04,21.37v-0.625h2.031
			c-0.084-0.333-0.188-0.656-0.312-0.969l0.719-0.125c0.125,0.354,0.229,0.719,0.312,1.094h1.844v0.625H59.04z M59.259,26.776v-4.5
			h0.625v3.938h2.781v-3.938h0.656v4.875h-0.656v-0.375H59.259z M59.946,21.932l0.531-0.312c0.291,0.438,0.572,0.917,0.844,1.438
			c0.229-0.438,0.447-0.927,0.656-1.469l0.562,0.219c-0.167,0.417-0.417,0.959-0.75,1.625c-0.062,0.104-0.104,0.188-0.125,0.25
			c0.312,0.562,0.625,1.136,0.938,1.719l-0.562,0.344c-0.062-0.104-0.146-0.26-0.25-0.469c-0.209-0.416-0.375-0.729-0.5-0.938
			c-0.271,0.479-0.573,0.938-0.906,1.375l-0.469-0.438c0.375-0.5,0.729-1.021,1.062-1.562c-0.062-0.104-0.156-0.271-0.281-0.5
			C60.362,22.61,60.112,22.182,59.946,21.932z"/>
		<path fill="#3E3A39" d="M66.34,27.307l-0.281-0.312c0.521-0.334,0.771-0.74,0.75-1.219h-0.562v-1.094h1.031
			c0,0.167,0,0.479,0,0.938C67.298,26.37,66.985,26.932,66.34,27.307z"/>
		<path fill="#3E3A39" d="M74.171,21.338v-0.656h2.906v-1h0.75v1h2.906v0.656h-2.906v1.969h3.312v0.656h-3
			c0.771,0.854,1.802,1.511,3.094,1.969c-0.042,0.084-0.115,0.188-0.219,0.312c-0.084,0.146-0.156,0.26-0.219,0.344
			c-1.375-0.562-2.365-1.26-2.969-2.094v2.656h-0.75v-2.688c-0.709,0.896-1.719,1.636-3.031,2.219
			c-0.084-0.167-0.229-0.365-0.438-0.594c1.271-0.541,2.312-1.25,3.125-2.125h-2.969v-0.656h3.312v-1.969H74.171z M75.702,23.12
			c-0.146-0.188-0.375-0.458-0.688-0.812c-0.146-0.166-0.25-0.291-0.312-0.375l0.562-0.406c0.208,0.209,0.5,0.542,0.875,1
			c-0.25-0.291-0.209-0.239,0.125,0.156L75.702,23.12z M79.046,23.182l-0.5-0.469c0.416-0.375,0.781-0.771,1.094-1.188l0.562,0.438
			c-0.021,0.021-0.042,0.042-0.062,0.062C79.702,22.505,79.337,22.891,79.046,23.182z"/>
		<path fill="#3E3A39" d="M83.221,27.151v-6.5h2.062c0.021-0.104,0.062-0.25,0.125-0.438c0.062-0.25,0.104-0.427,0.125-0.531
			l0.844,0.062c-0.021,0.125-0.073,0.312-0.156,0.562c-0.062,0.146-0.104,0.261-0.125,0.344h3.188v6.5h-0.781v-0.5h-4.531v0.5
			H83.221z M83.971,21.307v1.188h4.531v-1.188H83.971z M83.971,23.088v1.188h4.531v-1.188H83.971z M83.971,24.87v1.188h4.531V24.87
			H83.971z"/>
		<path fill="#3E3A39" d="M92.365,24.182v2.406h-0.812v-4.594h0.812v0.844l0.031,0.031c0.229-0.646,0.625-0.979,1.188-1
			c0.333,0,0.614,0.084,0.844,0.25l-0.312,0.719c-0.146-0.125-0.365-0.188-0.656-0.188C92.75,22.693,92.386,23.204,92.365,24.182z"
			/>
		<path fill="#3E3A39" d="M99.821,26.588h-0.812v-0.812c-0.334,0.583-0.854,0.885-1.562,0.906c-1.125,0.021-1.688-0.572-1.688-1.781
			v-2.906h0.812v2.812c-0.021,0.875,0.364,1.303,1.156,1.281c0.771-0.062,1.197-0.521,1.281-1.375v-2.719h0.812V26.588z"/>
		<path fill="#3E3A39" d="M104.965,21.995h0.906c-1.125,2.75-1.792,4.354-2,4.812c-0.396,1.083-0.886,1.583-1.469,1.5
			c-0.292,0-0.573-0.053-0.844-0.156v-0.594c0.166,0.062,0.354,0.094,0.562,0.094c0.416,0.041,0.719-0.188,0.906-0.688
			c0.021-0.042,0.062-0.167,0.125-0.375l0.094-0.188l-1.938-4.406h0.906c0.729,1.896,1.135,2.948,1.219,3.156
			c0.062,0.188,0.125,0.386,0.188,0.594c0.021-0.021,0.062-0.125,0.125-0.312c0.062-0.166,0.094-0.26,0.094-0.281
			C103.923,24.901,104.298,23.849,104.965,21.995z"/>
		<path fill="#3E3A39" d="M107.296,21.088v-0.906h0.844v0.906H107.296z M107.296,26.588v-4.594h0.844v4.594H107.296z"/>
		<path fill="#3E3A39" d="M111.346,25.526v1.031h-1.062v-1.031H111.346z"/>
		<path fill="#3E3A39" d="M117.771,26.588h-0.781c-0.167-0.188-0.25-0.458-0.25-0.812c-0.375,0.583-1.042,0.885-2,0.906
			c-0.959-0.042-1.459-0.458-1.5-1.25c0.021-0.854,0.583-1.344,1.688-1.469c1.021-0.146,1.614-0.312,1.781-0.5
			c0.062-0.688-0.334-1.01-1.188-0.969c-0.75,0-1.198,0.292-1.344,0.875l-0.781-0.156c0.229-0.916,0.947-1.364,2.156-1.344
			c1.375-0.062,2.031,0.531,1.969,1.781c0,0.584,0,1.24,0,1.969C117.5,25.974,117.584,26.296,117.771,26.588z M116.771,24.651
			v-0.656c-0.25,0.229-0.729,0.386-1.438,0.469c-0.896,0.125-1.323,0.438-1.281,0.938c-0.021,0.479,0.322,0.709,1.031,0.688
			C116.125,26.047,116.688,25.568,116.771,24.651z"/>
		<path fill="#3E3A39" d="M119.446,21.088v-0.906h0.844v0.906H119.446z M119.446,26.588v-4.594h0.844v4.594H119.446z"/>
	</g>
	<g>
		<path fill="#898989" d="M31.92,37.792v-0.688c0-0.729,0.26-1.271,0.781-1.625l0.188,0.188c-0.438,0.354-0.646,0.792-0.625,1.312
			h0.438v0.812H31.92z M33.139,37.792v-0.688c0-0.729,0.26-1.271,0.781-1.625l0.188,0.188c-0.438,0.354-0.646,0.792-0.625,1.312
			h0.438v0.812H33.139z"/>
		<path fill="#898989" d="M37.854,37.479l0.469,0.156c-0.5,1.375-1.073,2.667-1.719,3.875c-0.146-0.104-0.303-0.188-0.469-0.25
			C36.801,40.198,37.374,38.938,37.854,37.479z M39.729,35.76h0.469v6.344c0.021,0.604-0.303,0.917-0.969,0.938
			c-0.334,0-0.688,0-1.062,0c-0.021-0.146-0.062-0.303-0.125-0.469c0.333,0,0.666,0,1,0c0.5,0.041,0.729-0.156,0.688-0.595V35.76z
			 M41.385,37.698l0.406-0.188c0.396,0.709,1.021,1.928,1.875,3.656l-0.469,0.219C42.635,40.135,42.03,38.907,41.385,37.698z"/>
		<path fill="#898989" d="M46.912,40.51l0.375,0.25c-0.584,0.709-1.219,1.365-1.906,1.97c-0.104-0.105-0.219-0.199-0.344-0.281
			C45.828,41.74,46.453,41.094,46.912,40.51z M45.787,39.792v-0.5c0.458-0.729,0.844-1.406,1.156-2.031h-1.812v-0.406h2.031
			c0.188-0.375,0.375-0.771,0.562-1.188l0.469,0.125c-0.167,0.312-0.344,0.667-0.531,1.062h4.844v0.406h-5.062
			c-0.459,0.875-0.854,1.584-1.188,2.125h2.625v-1.594h0.438v1.594H52.1v0.406h-2.781v2.219c0.041,0.667-0.312,1.001-1.062,1.001
			c-0.167,0.02-0.511,0.031-1.031,0.031c-0.021-0.188-0.053-0.344-0.094-0.469c0.25,0.02,0.594,0.031,1.031,0.031
			c0.521,0.02,0.76-0.199,0.719-0.657v-2.156H45.787z M50.256,40.823l0.312-0.281c0.688,0.542,1.364,1.104,2.031,1.688l-0.344,0.312
			c-0.062-0.062-0.156-0.146-0.281-0.25C51.203,41.604,50.631,41.115,50.256,40.823z"/>
		<path fill="#898989" d="M54.502,37.854h2.156v-0.156v-1.156h-2.625v-0.406h7.438v0.406h-2.594v1.312h2.219v5.282h-0.438v-0.5
			h-5.719v0.5h-0.438V37.854z M59.314,40.792c-0.604,0.021-0.896-0.239-0.875-0.781v-1.75h-1.344
			c0.021,1.229-0.469,2.209-1.469,2.938c-0.021-0.041-0.073-0.094-0.156-0.156c-0.084-0.083-0.146-0.135-0.188-0.156
			c0.958-0.646,1.416-1.521,1.375-2.625h-1.719v4.001h5.719V38.26h-1.781v1.719c-0.021,0.292,0.156,0.428,0.531,0.406
			c0.354,0,0.677-0.01,0.969-0.031c0,0.042-0.011,0.115-0.031,0.219c-0.021,0.104-0.042,0.178-0.062,0.219
			C59.991,40.792,59.668,40.792,59.314,40.792z M57.096,37.698v0.156h1.344v-1.312h-1.344V37.698z"/>
		<path fill="#898989" d="M63.437,37.135h6.25v0.469c-1.459,1.521-3.094,2.823-4.906,3.906c0,0.021,0.01,0.031,0.031,0.031
			c0.458,0.5,1.177,0.761,2.156,0.782c1.041,0.062,2.208,0.062,3.5,0c-0.021,0.082-0.062,0.207-0.125,0.375
			c-0.021,0.041-0.031,0.072-0.031,0.094c-0.959,0-1.646,0-2.062,0c-0.5,0-0.938-0.012-1.312-0.031
			c-1.167-0.021-2.021-0.355-2.562-1.001c-0.084-0.083-0.198-0.083-0.344,0c-0.042,0.042-0.094,0.094-0.156,0.156
			c-0.354,0.313-0.615,0.583-0.781,0.813l-0.25-0.406c0.291-0.292,0.541-0.542,0.75-0.751c0.25-0.229,0.447-0.344,0.594-0.344
			c0.021,0,0.052,0,0.094,0c0.041,0.021,0.072,0.031,0.094,0.031c1.916-1.188,3.5-2.427,4.75-3.719h-5.688V37.135z M66.124,35.885
			l0.406-0.188c0.041,0.062,0.094,0.146,0.156,0.25c0.271,0.417,0.458,0.719,0.562,0.906l-0.438,0.219
			C66.645,36.74,66.415,36.344,66.124,35.885z"/>
		<path fill="#898989" d="M72.183,36.51h1.688v5.656h-0.375v-0.5h-0.938v0.595h-0.375V36.51z M72.558,36.885v4.406h0.938v-4.406
			H72.558z M75.37,39.729l0.281-0.188h-0.969V38.26h4.25v1.281h-0.906l0.281,0.125c-0.042,0.062-0.125,0.167-0.25,0.312
			c-0.146,0.188-0.25,0.323-0.312,0.406h1.688v0.344h-5.25v-0.344h1.719C75.734,40.157,75.558,39.938,75.37,39.729z M76.651,35.698
			h0.375v0.688h2.375v0.344h-2.375v0.625h2.125v0.312h-4.625v-0.312h2.125v-0.625h-2.375v-0.344h2.375V35.698z M74.62,41.385h4.375
			v1.688h-0.406v-0.406h-3.562v0.406H74.62V41.385z M75.026,41.698v0.657h3.562v-0.657H75.026z M75.089,38.573v0.625h3.469v-0.625
			H75.089z M76.276,40.198l-0.281,0.188h1.312c0.104-0.125,0.239-0.322,0.406-0.594c0.083-0.125,0.146-0.208,0.188-0.25h-2.188
			C75.922,39.771,76.109,39.99,76.276,40.198z"/>
		<path fill="#898989" d="M81.147,36.604h1.969v5.5H82.71v-0.656h-1.156v0.782h-0.406V36.604z M81.554,36.979v4.125h1.156v-4.125
			H81.554z M88.022,38.635c-0.979-0.666-1.698-1.447-2.156-2.344c-0.542,0.979-1.281,1.771-2.219,2.375
			c-0.062-0.104-0.167-0.219-0.312-0.344c1.083-0.646,1.896-1.552,2.438-2.719l0.438,0.062c-0.021,0.021-0.042,0.062-0.062,0.125
			c-0.042,0.062-0.073,0.115-0.094,0.156c0.583,1,1.344,1.771,2.281,2.312C88.21,38.385,88.105,38.51,88.022,38.635z M84.022,40.01
			h3.531v3.126h-0.406v-0.438h-2.719v0.438h-0.406V40.01z M84.272,38.51h3v0.375h-3V38.51z M84.429,40.385v1.938h2.719v-1.938
			H84.429z"/>
		<path fill="#898989" d="M93.425,37.698c-0.104-0.125-0.219-0.229-0.344-0.312c-0.396,0-1,0.021-1.812,0.062
			c-0.354,0.021-0.615,0.031-0.781,0.031c-0.25,0-0.438,0.011-0.562,0.031l-0.156-0.406c0.188-0.062,0.354-0.156,0.5-0.281
			c0.438-0.354,0.854-0.75,1.25-1.188l0.344,0.25c-0.542,0.5-1.011,0.906-1.406,1.219c0.75,0,1.51-0.031,2.281-0.094
			c-0.188-0.188-0.396-0.375-0.625-0.562l0.312-0.281c0.041,0.042,0.104,0.104,0.188,0.188c0.479,0.438,0.854,0.792,1.125,1.062
			L93.425,37.698z M90.55,41.76l0.375,0.188c-0.062,0.104-0.156,0.25-0.281,0.438c-0.188,0.332-0.344,0.594-0.469,0.781
			c-0.042-0.021-0.104-0.053-0.188-0.094c-0.084-0.062-0.146-0.105-0.188-0.125C90.112,42.511,90.362,42.115,90.55,41.76z
			 M90.612,41.417h-0.406v-3.344h3.031v2.594c0.021,0.479-0.24,0.719-0.781,0.719c-0.229,0-0.459,0-0.688,0
			c0-0.083-0.021-0.208-0.062-0.375c0.208,0,0.438,0,0.688,0c0.333,0.021,0.489-0.094,0.469-0.344V40.26h-2.25V41.417z
			 M90.612,38.417v0.594h2.25v-0.594H90.612z M90.612,39.323v0.594h2.25v-0.594H90.612z M91.956,41.948l0.406-0.156
			c0.062,0.146,0.156,0.334,0.281,0.563c0.104,0.229,0.188,0.416,0.25,0.562l-0.406,0.156c-0.021-0.062-0.062-0.156-0.125-0.281
			C92.216,42.417,92.081,42.135,91.956,41.948z M93.831,41.885l0.375-0.188c0.062,0.104,0.135,0.24,0.219,0.406
			c0.166,0.271,0.302,0.521,0.406,0.751l-0.375,0.188C94.247,42.583,94.039,42.198,93.831,41.885z M94.144,35.76h0.406v1.031
			c0.791-0.208,1.531-0.447,2.219-0.719l0.188,0.375c-0.938,0.334-1.74,0.584-2.406,0.75v0.188
			c-0.021,0.375,0.188,0.553,0.625,0.531h0.844c0.375-0.021,0.583-0.156,0.625-0.406c0.062-0.146,0.104-0.344,0.125-0.594
			c0.146,0.062,0.281,0.115,0.406,0.156c-0.021,0.084-0.053,0.178-0.094,0.281c-0.021,0.146-0.042,0.25-0.062,0.312
			c-0.104,0.417-0.417,0.625-0.938,0.625h-1c-0.646,0.021-0.959-0.271-0.938-0.875V35.76z M94.144,38.667h0.406v0.969
			c0.75-0.229,1.479-0.489,2.188-0.781l0.188,0.375c-0.709,0.271-1.5,0.531-2.375,0.781v0.375c-0.021,0.375,0.188,0.553,0.625,0.531
			h0.812c0.396-0.021,0.625-0.156,0.688-0.406c0.041-0.146,0.072-0.354,0.094-0.625c0.041,0.021,0.114,0.053,0.219,0.094
			c0.083,0.021,0.146,0.042,0.188,0.062c-0.021,0.084-0.053,0.178-0.094,0.281c-0.021,0.146-0.042,0.25-0.062,0.312
			c-0.125,0.459-0.448,0.678-0.969,0.656h-0.969c-0.646,0.021-0.959-0.271-0.938-0.875V38.667z M95.769,41.885l0.344-0.219
			c0.062,0.084,0.156,0.198,0.281,0.344c0.291,0.333,0.521,0.626,0.688,0.876l-0.344,0.25C96.403,42.656,96.081,42.24,95.769,41.885
			z"/>
		<path fill="#898989" d="M100.015,39.729v-0.812h0.781v0.812H100.015z M100.015,42.949v-0.751h0.781v0.751H100.015z"/>
		<path fill="#898989" d="M107.667,40.76l-0.125-0.438c0.062,0,0.146-0.01,0.25-0.031c0.604-0.104,1.104-0.188,1.5-0.25v-1.625
			h-1.75v-0.375h1.75v-1.344c-0.125,0.021-0.312,0.042-0.562,0.062c-0.438,0.042-0.719,0.073-0.844,0.094
			c-0.021-0.083-0.053-0.188-0.094-0.312c-0.021-0.041-0.031-0.072-0.031-0.094c1.041-0.104,2.083-0.239,3.125-0.406l0.125,0.375
			c-0.062,0.021-0.167,0.042-0.312,0.062c-0.167,0.021-0.49,0.073-0.969,0.156v1.406h2.219c-0.042-0.75-0.062-1.541-0.062-2.375
			h0.438c0,0.834,0.021,1.625,0.062,2.375h2.781v0.375h-2.781c0.021,0.146,0.041,0.365,0.062,0.656
			c0.041,0.209,0.062,0.365,0.062,0.469c0.062,0.479,0.135,0.875,0.219,1.188c0.541-0.479,1.041-1.041,1.5-1.688l0.375,0.25
			c-0.667,0.875-1.25,1.5-1.75,1.875c0.083,0.271,0.188,0.511,0.312,0.719c0.25,0.501,0.541,0.751,0.875,0.751
			c0.229,0,0.385-0.146,0.469-0.438c0.104-0.291,0.177-0.635,0.219-1.031c0.021,0.021,0.062,0.042,0.125,0.062
			c0.062,0.021,0.156,0.053,0.281,0.094c-0.062,0.375-0.146,0.729-0.25,1.063c-0.125,0.457-0.406,0.688-0.844,0.688
			c-0.5,0.02-0.928-0.324-1.281-1.032c-0.104-0.166-0.188-0.354-0.25-0.562c-0.542,0.417-1.198,0.802-1.969,1.157
			c-0.125-0.188-0.219-0.303-0.281-0.344c0.729-0.292,1.427-0.709,2.094-1.251c-0.125-0.438-0.219-0.916-0.281-1.438
			c0-0.083-0.011-0.219-0.031-0.406c-0.042-0.333-0.062-0.594-0.062-0.781h-2.25v1.531c0.25-0.041,0.614-0.114,1.094-0.219
			c0.208-0.041,0.364-0.072,0.469-0.094c0,0.125,0,0.261,0,0.406c-0.146,0.021-0.375,0.073-0.688,0.156
			c-0.375,0.062-0.667,0.115-0.875,0.156v1.812c0.021,0.521-0.24,0.792-0.781,0.813c-0.146,0.02-0.448,0.031-0.906,0.031
			c-0.021-0.168-0.053-0.312-0.094-0.438c0.229,0,0.51,0,0.844,0c0.354,0.02,0.521-0.115,0.5-0.407v-1.719
			c-0.084,0.021-0.219,0.042-0.406,0.062C108.656,40.552,108.25,40.635,107.667,40.76z M112.917,36.417l0.312-0.281
			c0.396,0.312,0.822,0.688,1.281,1.125l-0.312,0.281c-0.042-0.041-0.146-0.135-0.312-0.281
			C113.406,36.844,113.083,36.563,112.917,36.417z"/>
		<path fill="#898989" d="M28.701,50.292l0.406,0.062c-0.021,0.062-0.042,0.156-0.062,0.281c-0.042,0.166-0.073,0.291-0.094,0.375
			c0.416,0.812,1.062,1.26,1.938,1.344V49.98h-3.594v-0.375h7.344v0.375h-3.344v1h2.812v0.344h-2.812v1.062c0.062,0,0.104,0,0.125,0
			c0.75,0.02,1.854,0.031,3.312,0.031c-0.062,0.104-0.104,0.25-0.125,0.438c-0.917,0-1.979-0.021-3.188-0.062
			c-1.229,0.02-2.104-0.418-2.625-1.312c-0.229,0.625-0.688,1.188-1.375,1.688c-0.021-0.021-0.062-0.062-0.125-0.125
			c-0.062-0.084-0.115-0.146-0.156-0.188C28.034,52.25,28.555,51.396,28.701,50.292z M28.389,46.042h5.125v2.75h-5.125V46.042z
			 M28.795,46.386v0.844h4.281v-0.844H28.795z M28.795,47.574v0.844h4.281v-0.844H28.795z"/>
		<path fill="#898989" d="M39.822,48.261c-0.042-0.062-0.104-0.136-0.188-0.219c-0.104-0.104-0.178-0.188-0.219-0.25
			c-1.188,0.041-2.053,0.083-2.594,0.125c-0.209,0-0.386,0.021-0.531,0.062l-0.188-0.406c0.146-0.084,0.302-0.209,0.469-0.375
			c0.5-0.542,0.927-1.073,1.281-1.594l0.406,0.188c-0.562,0.708-1.062,1.291-1.5,1.75c0.083,0,0.219-0.011,0.406-0.031
			c0.854-0.021,1.5-0.053,1.938-0.094c-0.209-0.25-0.438-0.49-0.688-0.719l0.312-0.25c0.458,0.438,0.938,0.947,1.438,1.531
			L39.822,48.261z M36.979,53.074h-0.406v-4.406h2.938v3.594c0.021,0.5-0.219,0.75-0.719,0.75c-0.229,0-0.479,0-0.75,0
			c0-0.125-0.021-0.262-0.062-0.406c0.062,0,0.177,0,0.344,0c0.166,0.02,0.291,0.031,0.375,0.031c0.291,0,0.427-0.125,0.406-0.375
			v-0.812h-2.125V53.074z M36.979,49.011v0.875h2.125v-0.875H36.979z M36.979,50.23v0.875h2.125V50.23H36.979z M40.51,49.511h0.406
			v1.344c0.833-0.312,1.625-0.678,2.375-1.094l0.219,0.375c-0.854,0.438-1.719,0.822-2.594,1.156v0.75
			c-0.021,0.354,0.177,0.52,0.594,0.5h0.906c0.396,0,0.625-0.137,0.688-0.406c0.041-0.188,0.072-0.459,0.094-0.812
			c0.062,0.021,0.146,0.041,0.25,0.062c0.062,0.041,0.114,0.062,0.156,0.062c-0.021,0.208-0.062,0.469-0.125,0.781
			c-0.084,0.5-0.417,0.738-1,0.719h-1.062c-0.625,0.02-0.928-0.262-0.906-0.844V49.511z M40.51,45.699h0.406v1.469
			c0.604-0.209,1.344-0.553,2.219-1.031l0.25,0.344c-0.75,0.396-1.573,0.771-2.469,1.125v0.5c-0.021,0.375,0.177,0.552,0.594,0.531
			h0.906c0.375,0,0.594-0.156,0.656-0.469c0.062-0.167,0.104-0.448,0.125-0.844c0.146,0.062,0.281,0.104,0.406,0.125
			c-0.021,0.166-0.053,0.385-0.094,0.656c-0.021,0.083-0.031,0.135-0.031,0.156c-0.104,0.521-0.448,0.771-1.031,0.75h-1
			c-0.646,0.021-0.959-0.261-0.938-0.844V45.699z"/>
		<path fill="#898989" d="M46.318,51.761c0.208-0.188,0.572-0.479,1.094-0.875c0,0.146,0.021,0.302,0.062,0.469
			c-0.209,0.146-0.511,0.385-0.906,0.719c-0.125,0.104-0.219,0.166-0.281,0.188c-0.104,0.082-0.198,0.176-0.281,0.281l-0.312-0.312
			c0.146-0.125,0.219-0.365,0.219-0.719v-2.844h-0.875v-0.406h1.281V51.761z M46.506,47.261c-0.25-0.354-0.594-0.771-1.031-1.25
			l0.312-0.25c0.188,0.188,0.469,0.489,0.844,0.906c0.104,0.125,0.188,0.219,0.25,0.281L46.506,47.261z M51.912,47.199v2.938H50.6
			v1.844c-0.021,0.416,0.177,0.613,0.594,0.594h0.344c0.312,0.02,0.489-0.115,0.531-0.406c0.021-0.062,0.041-0.281,0.062-0.656
			c0.021-0.104,0.031-0.188,0.031-0.25c0.146,0.041,0.281,0.094,0.406,0.156c0,0.229-0.031,0.521-0.094,0.875
			c-0.062,0.438-0.354,0.656-0.875,0.656h-0.531c-0.604,0.02-0.896-0.281-0.875-0.906v-1.906h-1c0,0.854-0.136,1.469-0.406,1.844
			c-0.25,0.375-0.771,0.76-1.562,1.156c-0.021-0.043-0.084-0.125-0.188-0.25c-0.042-0.062-0.073-0.105-0.094-0.125
			c0.791-0.355,1.281-0.678,1.469-0.969c0.25-0.312,0.364-0.865,0.344-1.656h-1.125v-2.938h2.406c0.333-0.438,0.677-0.938,1.031-1.5
			l0.438,0.219c-0.459,0.583-0.781,1.01-0.969,1.281H51.912z M47.975,45.98l0.344-0.25c0.062,0.062,0.156,0.166,0.281,0.312
			c0.375,0.438,0.594,0.708,0.656,0.812l-0.344,0.25c-0.042-0.042-0.125-0.146-0.25-0.312C48.35,46.417,48.12,46.146,47.975,45.98z
			 M48.068,47.574v2.188h3.406v-2.188H48.068z"/>
		<path fill="#898989" d="M61.221,48.792c-1.542-0.667-2.678-1.511-3.406-2.531c-0.917,1.041-2.104,1.938-3.562,2.688
			c-0.084-0.146-0.188-0.281-0.312-0.406c1.666-0.771,2.947-1.75,3.844-2.938l0.5,0.094c-0.062,0.083-0.136,0.166-0.219,0.25
			c0.75,0.979,1.906,1.802,3.469,2.469C61.449,48.48,61.346,48.605,61.221,48.792z M60.408,53.136
			c-0.062-0.062-0.156-0.156-0.281-0.281c-0.104-0.125-0.178-0.209-0.219-0.25c-1.688,0.041-3.053,0.104-4.094,0.188
			c-0.042,0-0.115,0.01-0.219,0.031c-0.209,0.02-0.354,0.041-0.438,0.062l-0.281-0.469c0.166-0.084,0.354-0.188,0.562-0.312
			c0.541-0.479,1.052-1.021,1.531-1.625h-2.719v-0.438h7v0.438h-3.688c-0.562,0.666-1.188,1.302-1.875,1.906
			c1.312-0.062,2.583-0.115,3.812-0.156c-0.062-0.042-0.156-0.125-0.281-0.25c-0.104-0.084-0.312-0.292-0.625-0.625l0.344-0.25
			c0.833,0.771,1.447,1.354,1.844,1.75L60.408,53.136z M55.658,48.449h4.156v0.406h-4.156V48.449z"/>
		<path fill="#898989" d="M66.249,52.542c1.229,0.041,2.635,0.041,4.219,0c-0.062,0.188-0.104,0.322-0.125,0.406
			c-1.646,0-3.031,0-4.156,0c-0.979,0-1.698-0.312-2.156-0.938c-0.25,0.188-0.542,0.531-0.875,1.031l-0.281-0.344
			c0.291-0.334,0.625-0.688,1-1.062v-2.781h-0.938v-0.406h1.344v3.25C64.696,52.281,65.353,52.562,66.249,52.542z M64.155,47.417
			c-0.084-0.104-0.188-0.25-0.312-0.438c-0.292-0.417-0.511-0.709-0.656-0.875l0.344-0.188c0.188,0.229,0.458,0.572,0.812,1.031
			c0.083,0.104,0.146,0.177,0.188,0.219L64.155,47.417z M65.499,47.855h1.625l0.188-0.812h-2.219v-0.344h1.688
			c-0.021-0.021-0.042-0.053-0.062-0.094c-0.188-0.25-0.406-0.5-0.656-0.75l0.312-0.219c0.083,0.083,0.208,0.208,0.375,0.375
			c0.166,0.188,0.302,0.333,0.406,0.438l-0.312,0.25h1.375l0.688-1.062l0.375,0.219l-0.656,0.844h1.781v0.344h-2.656l-0.219,0.812
			h2.281v3.906h-4.312V47.855z M65.905,48.23v0.812h3.5V48.23H65.905z M65.905,49.386v0.812h3.5v-0.812H65.905z M65.905,50.542
			v0.844h3.5v-0.844H65.905z"/>
		<path fill="#898989" d="M72.151,46.98h0.812c0.166-0.5,0.291-0.928,0.375-1.281l0.438,0.094c-0.125,0.416-0.25,0.812-0.375,1.188
			h1.594v6h-0.438v-0.625h-2v0.688h-0.406V46.98z M72.558,47.355v2.125h2v-2.125H72.558z M72.558,49.855v2.156h2v-2.156H72.558z
			 M75.683,48.667c-0.042-0.021-0.104-0.062-0.188-0.125c-0.084-0.042-0.146-0.073-0.188-0.094c0.458-0.75,0.854-1.667,1.188-2.75
			l0.438,0.094c-0.125,0.375-0.271,0.76-0.438,1.156h2.594c0,0.104,0,0.271,0,0.5c-0.042,1.854-0.094,3.281-0.156,4.281
			c0.021,0.812-0.428,1.229-1.344,1.25c-0.417,0-0.823,0-1.219,0c0-0.021-0.011-0.053-0.031-0.094
			c-0.021-0.168-0.053-0.281-0.094-0.344c0.291,0.02,0.719,0.031,1.281,0.031c0.666,0.02,1-0.281,1-0.906
			c0.041-0.521,0.072-1.615,0.094-3.281c0.021-0.479,0.031-0.823,0.031-1.031h-2.312C76.067,47.958,75.849,48.396,75.683,48.667z
			 M76.026,49.042l0.312-0.25c0.041,0.062,0.104,0.146,0.188,0.25c0.458,0.562,0.812,1.031,1.062,1.406l-0.344,0.25
			C76.849,50.115,76.442,49.563,76.026,49.042z"/>
		<path fill="#898989" d="M82.772,45.855h0.438v2.531c0,1.25-0.136,2.177-0.406,2.781c-0.271,0.666-0.823,1.301-1.656,1.906
			c-0.021-0.021-0.062-0.062-0.125-0.125c-0.084-0.105-0.167-0.188-0.25-0.25c0.791-0.542,1.322-1.104,1.594-1.688
			c0.271-0.584,0.406-1.459,0.406-2.625V45.855z M85.179,45.824h0.469v6c-0.021,0.438,0.197,0.645,0.656,0.625h0.625
			c0.5,0.02,0.771-0.168,0.812-0.562c0.062-0.417,0.114-0.917,0.156-1.5c0.062,0.041,0.177,0.072,0.344,0.094
			c0.041,0.021,0.072,0.031,0.094,0.031c0,0.062-0.011,0.156-0.031,0.281c-0.042,0.583-0.094,1-0.156,1.25
			c-0.084,0.582-0.469,0.863-1.156,0.844H86.21c-0.709,0.02-1.053-0.324-1.031-1.031V45.824z"/>
		<path fill="#898989" d="M90.644,48.542h5.688v2.438h-2.656v0.594h2.969v0.344h-2.969v0.594h3.562v0.344h-7.531v-0.344h3.562
			v-0.594H90.3v-0.344h2.969V50.98h-2.625V48.542z M93.206,45.699l0.406-0.062c0.021,0.083,0.052,0.208,0.094,0.375
			c0.021,0.188,0.041,0.322,0.062,0.406H96.8v0.344h-1.562l0.312,0.188c-0.229,0.25-0.438,0.489-0.625,0.719h2.25v0.312H89.8v-0.312
			h2.344c-0.062-0.062-0.156-0.167-0.281-0.312c-0.167-0.209-0.281-0.344-0.344-0.406l0.281-0.188h-1.594v-0.344h3.125
			c0-0.042-0.011-0.094-0.031-0.156C93.3,46.177,93.269,45.99,93.206,45.699z M91.05,48.886v0.719h2.219v-0.719H91.05z
			 M91.05,49.917v0.719h2.219v-0.719H91.05z M92.55,47.48l-0.25,0.188h2.125c0.062-0.062,0.146-0.167,0.25-0.312
			c0.229-0.271,0.385-0.469,0.469-0.594h-3.281C92.216,47.115,92.445,47.355,92.55,47.48z M95.925,48.886h-2.25v0.719h2.25V48.886z
			 M93.675,49.917v0.719h2.25v-0.719H93.675z"/>
		<path fill="#898989" d="M98.952,49.449h1.281v-1.781H98.64v-0.406h1.594v-1.594h0.438v1.594h1.562v0.406h-1.562v1.781h1.281v2.875
			H99.39v0.5h-0.438V49.449z M99.39,49.824v2.156h2.156v-2.156H99.39z M105.921,53.136c-0.854-0.543-1.469-1.042-1.844-1.5
			c-0.459,0.541-1.094,1.062-1.906,1.562c-0.042-0.062-0.146-0.178-0.312-0.344c0.938-0.584,1.594-1.115,1.969-1.594
			c-0.479-0.688-0.812-1.688-1-3c-0.188,0.375-0.386,0.719-0.594,1.031c-0.021-0.021-0.042-0.042-0.062-0.062
			c-0.125-0.146-0.209-0.229-0.25-0.25c0.646-0.959,1.146-2.073,1.5-3.344l0.438,0.062c-0.167,0.5-0.344,0.989-0.531,1.469h2.844
			v0.375h-0.688c-0.167,1.666-0.542,2.916-1.125,3.75c0.375,0.5,1,0.979,1.875,1.438c-0.021,0.02-0.062,0.062-0.125,0.125
			C106.004,52.98,105.941,53.074,105.921,53.136z M104.077,50.886c0.5-0.709,0.822-1.823,0.969-3.344h-1.875l-0.031,0.062
			C103.285,49.042,103.598,50.136,104.077,50.886z"/>
		<path fill="#898989" d="M108.104,51.386h3.031v-0.719h-3.531v-0.344h3.531v-0.719h-3v-0.344h3v-0.594h-2.562v-1.375h2.562v-0.594
			h-3.5v-0.344h3.5v-0.719h0.406v0.719h3.531v0.344h-3.531v0.594h2.562v1.375h-2.562v0.594h2.719v1.062h0.875v0.344h-0.875v1.469
			h-0.406V51.73h-2.312v0.406c0.041,0.582-0.281,0.875-0.969,0.875c-0.084,0-0.25,0.01-0.5,0.031c-0.25,0-0.417,0-0.5,0
			c0-0.188-0.031-0.334-0.094-0.438c0.041,0,0.156,0,0.344,0c0.333,0.02,0.562,0.031,0.688,0.031
			c0.458,0.02,0.666-0.168,0.625-0.562V51.73h-3.031V51.386z M108.979,47.605v0.75h2.156v-0.75H108.979z M113.698,47.605h-2.156
			v0.75h2.156V47.605z M113.854,49.605h-2.312v0.719h2.312V49.605z M111.542,50.667v0.719h2.312v-0.719H111.542z"/>
		<path fill="#898989" d="M27.326,61.011c-0.021-0.042-0.053-0.104-0.094-0.188c-0.042-0.104-0.084-0.188-0.125-0.25
			c0.562-0.75,1-1.74,1.312-2.969h-1.125V57.23h1.125v-1.531h0.406v1.531h1.094v0.375h-1.094v1.281l0.219-0.25
			c0.458,0.416,0.802,0.739,1.031,0.969l-0.281,0.281c-0.125-0.125-0.312-0.303-0.562-0.531c-0.188-0.188-0.323-0.323-0.406-0.406
			v4.156H28.42v-4.688C28.128,59.563,27.764,60.427,27.326,61.011z M31.076,56.605v2.219c0,1.208-0.094,2.083-0.281,2.625
			c-0.167,0.541-0.553,1.094-1.156,1.656c-0.084-0.084-0.209-0.188-0.375-0.312c0.604-0.543,0.989-1.053,1.156-1.531
			c0.166-0.479,0.25-1.303,0.25-2.469v-2.594h2.625v5.875c0,0.27,0.104,0.395,0.312,0.375h0.156c0.291,0,0.447-0.146,0.469-0.438
			c0.062-0.334,0.104-0.75,0.125-1.25c0.146,0.062,0.281,0.114,0.406,0.156c-0.021,0.562-0.062,0.969-0.125,1.219
			c-0.084,0.5-0.354,0.738-0.812,0.719h-0.281c-0.459,0-0.688-0.24-0.688-0.719v-5.531H31.076z"/>
		<path fill="#898989" d="M43.282,60.574c-1.834-0.084-2.979-0.553-3.438-1.406h-0.188c-0.209,0.729-1.365,1.219-3.469,1.469
			c-0.021-0.042-0.053-0.104-0.094-0.188c-0.062-0.084-0.104-0.146-0.125-0.188c1.916-0.209,3-0.573,3.25-1.094h-3v-0.344h3.156
			c0.062-0.188,0.104-0.406,0.125-0.656h0.406c-0.021,0.25-0.062,0.469-0.125,0.656h1.594c-0.084-0.146-0.188-0.323-0.312-0.531
			l0.375-0.156c0.125,0.208,0.25,0.438,0.375,0.688h1.531v0.344h-3.062c0.479,0.646,1.552,0.979,3.219,1
			c-0.021,0.041-0.073,0.135-0.156,0.281C43.303,60.511,43.282,60.552,43.282,60.574z M36.626,56.105h2.562v1.906h-2.562V56.105z
			 M36.626,60.824h2.594v2.281h-0.375V62.73h-1.812v0.406h-0.406V60.824z M37.032,56.449v1.219h1.781v-1.219H37.032z M37.032,61.167
			v1.219h1.812v-1.219H37.032z M40.22,56.105h2.594v1.906H40.22V56.105z M40.22,60.824h2.625v2.312h-0.406V62.73h-1.812v0.375H40.22
			V60.824z M40.626,56.449v1.219h1.781v-1.219H40.626z M40.626,61.167v1.219h1.812v-1.219H40.626z"/>
		<path fill="#898989" d="M51.957,62.949c-2-1-3.125-2.636-3.375-4.906c-0.292,2.229-1.438,3.896-3.438,5
			c-0.021-0.021-0.062-0.062-0.125-0.125c-0.084-0.125-0.146-0.199-0.188-0.219c1.979-1.104,3.114-2.761,3.406-4.969
			c0.062-0.417,0.094-1.062,0.094-1.938h0.469c0,0.146-0.011,0.344-0.031,0.594c0,0.271-0.011,0.469-0.031,0.594
			c0.333,2.896,1.51,4.76,3.531,5.594c-0.042,0.041-0.104,0.113-0.188,0.219C52.02,62.875,51.978,62.927,51.957,62.949z"/>
		<path fill="#898989" d="M54.945,59.73v-0.812h0.781v0.812H54.945z M54.945,62.949v-0.75h0.781v0.75H54.945z"/>
		<path fill="#898989" d="M62.714,56.511h1.688v5.656h-0.375v-0.5h-0.938v0.594h-0.375V56.511z M63.089,56.886v4.406h0.938v-4.406
			H63.089z M65.901,59.73l0.281-0.188h-0.969v-1.281h4.25v1.281h-0.906l0.281,0.125c-0.042,0.062-0.125,0.166-0.25,0.312
			c-0.146,0.188-0.25,0.322-0.312,0.406h1.688v0.344h-5.25v-0.344h1.719C66.266,60.157,66.089,59.938,65.901,59.73z M67.183,55.699
			h0.375v0.688h2.375v0.344h-2.375v0.625h2.125v0.312h-4.625v-0.312h2.125V56.73h-2.375v-0.344h2.375V55.699z M65.151,61.386h4.375
			v1.688H69.12v-0.406h-3.562v0.406h-0.406V61.386z M65.558,61.699v0.656h3.562v-0.656H65.558z M65.62,58.574v0.625h3.469v-0.625
			H65.62z M66.808,60.199l-0.281,0.188h1.312c0.104-0.125,0.239-0.323,0.406-0.594c0.083-0.125,0.146-0.209,0.188-0.25h-2.188
			C66.453,59.771,66.641,59.99,66.808,60.199z"/>
		<path fill="#898989" d="M71.545,56.605h1.969v5.5h-0.406v-0.656h-1.156v0.781h-0.406V56.605z M71.951,56.98v4.125h1.156V56.98
			H71.951z M78.42,58.636c-0.979-0.667-1.698-1.448-2.156-2.344c-0.542,0.979-1.281,1.771-2.219,2.375
			c-0.062-0.104-0.167-0.219-0.312-0.344c1.083-0.646,1.896-1.553,2.438-2.719l0.438,0.062c-0.021,0.021-0.042,0.062-0.062,0.125
			c-0.042,0.062-0.073,0.114-0.094,0.156c0.583,1,1.344,1.771,2.281,2.312C78.607,58.386,78.503,58.511,78.42,58.636z M74.42,60.011
			h3.531v3.125h-0.406v-0.438h-2.719v0.438H74.42V60.011z M74.67,58.511h3v0.375h-3V58.511z M74.826,60.386v1.938h2.719v-1.938
			H74.826z"/>
		<path fill="#898989" d="M83.688,57.699c-0.104-0.125-0.219-0.229-0.344-0.312c-0.396,0-1,0.021-1.812,0.062
			c-0.354,0.021-0.615,0.031-0.781,0.031c-0.25,0-0.438,0.01-0.562,0.031l-0.156-0.406c0.188-0.062,0.354-0.156,0.5-0.281
			c0.438-0.354,0.854-0.75,1.25-1.188l0.344,0.25c-0.542,0.5-1.011,0.906-1.406,1.219c0.75,0,1.51-0.031,2.281-0.094
			c-0.188-0.188-0.396-0.375-0.625-0.562l0.312-0.281c0.041,0.041,0.104,0.104,0.188,0.188c0.479,0.438,0.854,0.791,1.125,1.062
			L83.688,57.699z M80.813,61.761l0.375,0.188c-0.062,0.104-0.156,0.25-0.281,0.438c-0.188,0.332-0.344,0.594-0.469,0.781
			c-0.042-0.021-0.104-0.053-0.188-0.094c-0.084-0.062-0.146-0.105-0.188-0.125C80.376,62.511,80.626,62.115,80.813,61.761z
			 M80.876,61.417H80.47v-3.344h3.031v2.594c0.021,0.479-0.24,0.719-0.781,0.719c-0.229,0-0.459,0-0.688,0
			c0-0.084-0.021-0.209-0.062-0.375c0.208,0,0.438,0,0.688,0c0.333,0.021,0.489-0.094,0.469-0.344v-0.406h-2.25V61.417z
			 M80.876,58.417v0.594h2.25v-0.594H80.876z M80.876,59.324v0.594h2.25v-0.594H80.876z M82.22,61.949l0.406-0.156
			c0.062,0.146,0.156,0.333,0.281,0.562c0.104,0.229,0.188,0.416,0.25,0.562l-0.406,0.156c-0.021-0.062-0.062-0.156-0.125-0.281
			C82.479,62.417,82.345,62.136,82.22,61.949z M84.095,61.886l0.375-0.188c0.062,0.104,0.135,0.239,0.219,0.406
			c0.166,0.27,0.302,0.52,0.406,0.75l-0.375,0.188C84.511,62.583,84.303,62.199,84.095,61.886z M84.407,55.761h0.406v1.031
			c0.791-0.209,1.531-0.448,2.219-0.719l0.188,0.375c-0.938,0.333-1.74,0.583-2.406,0.75v0.188
			c-0.021,0.375,0.188,0.552,0.625,0.531h0.844c0.375-0.021,0.583-0.156,0.625-0.406c0.062-0.146,0.104-0.344,0.125-0.594
			c0.146,0.062,0.281,0.114,0.406,0.156c-0.021,0.083-0.053,0.177-0.094,0.281c-0.021,0.146-0.042,0.25-0.062,0.312
			c-0.104,0.416-0.417,0.625-0.938,0.625h-1c-0.646,0.021-0.959-0.271-0.938-0.875V55.761z M84.407,58.667h0.406v0.969
			c0.75-0.229,1.479-0.49,2.188-0.781l0.188,0.375c-0.709,0.271-1.5,0.531-2.375,0.781v0.375c-0.021,0.375,0.188,0.552,0.625,0.531
			h0.812c0.396-0.021,0.625-0.156,0.688-0.406c0.041-0.146,0.072-0.354,0.094-0.625c0.041,0.021,0.114,0.052,0.219,0.094
			c0.083,0.021,0.146,0.041,0.188,0.062c-0.021,0.083-0.053,0.177-0.094,0.281c-0.021,0.146-0.042,0.25-0.062,0.312
			c-0.125,0.458-0.448,0.677-0.969,0.656h-0.969c-0.646,0.021-0.959-0.271-0.938-0.875V58.667z M86.032,61.886l0.344-0.219
			c0.062,0.083,0.156,0.197,0.281,0.344c0.291,0.332,0.521,0.625,0.688,0.875l-0.344,0.25C86.667,62.656,86.345,62.24,86.032,61.886
			z"/>
		<path fill="#898989" d="M90.395,55.542v0.688c0.021,0.75-0.229,1.291-0.75,1.625l-0.219-0.188c0.458-0.312,0.677-0.74,0.656-1.281
			h-0.438v-0.844H90.395z M91.645,55.542v0.688c0.021,0.729-0.24,1.271-0.781,1.625l-0.188-0.188
			c0.438-0.334,0.646-0.761,0.625-1.281h-0.438v-0.844H91.645z"/>
	</g>
	<g>
		<path fill="#C9CACA" d="M79.316,71.216v-1c25.139,0,47.136-9.832,52.306-23.378l0.934,0.356
			C127.244,61.114,104.854,71.216,79.316,71.216z"/>
	</g>
</g>
</svg>
