<?xml version="1.0" encoding="utf-8"?>
<!-- Generator: Adobe Illustrator 16.0.0, SVG Export Plug-In . SVG Version: 6.00 Build 0)  -->
<!DOCTYPE svg PUBLIC "-//W3C//DTD SVG 1.1//EN" "http://www.w3.org/Graphics/SVG/1.1/DTD/svg11.dtd">
<svg version="1.1" id="图层_1" xmlns="http://www.w3.org/2000/svg" xmlns:xlink="http://www.w3.org/1999/xlink" x="0px" y="0px"
	 width="142.305px" height="88.873px" viewBox="0 0 142.305 88.873" enable-background="new 0 0 142.305 88.873"
	 xml:space="preserve">
<g>
	<g>
		<path fill="#FFFFFF" d="M71.152,0.5C32.13,0.5,0.5,18.325,0.5,40.309C0.5,54,12.772,66.071,31.445,73.238
			c0,0.012,0.335,0.142,0.95,0.355C31.683,78.8,26.77,84.165,24.51,87.085h0.009c-0.195,0.341-0.307,0.717-0.307,1.112
			c0,1.391,23.821-5.863,30.963-9.282c4.971,0.714,10.401,1.203,15.978,1.203c39.019,0,70.652-17.825,70.652-39.81
			S110.171,0.5,71.152,0.5z"/>
		<path fill="#C9CACA" d="M24.712,88.873c-0.87,0-1-0.423-1-0.675c0-0.441,0.11-0.871,0.327-1.277
			c0.017-0.051,0.042-0.098,0.075-0.141c0.326-0.422,0.706-0.893,1.121-1.406c2.344-2.904,5.848-7.246,6.602-11.445
			c-0.265-0.094-0.452-0.164-0.583-0.229C11.683,66.185,0,53.704,0,40.309C0,18.083,31.919,0,71.152,0s71.152,18.083,71.152,40.31
			s-31.919,40.31-71.152,40.31c-5.021,0-10.37-0.399-15.899-1.187C48.609,82.565,28.228,88.873,24.712,88.873z M24.959,87.322
			c-0.002,0.005-0.004,0.009-0.007,0.013c-0.101,0.175-0.17,0.355-0.207,0.538c3.562-0.04,23.806-6.341,30.214-9.408
			c0.089-0.042,0.189-0.058,0.287-0.044c5.535,0.795,10.887,1.198,15.906,1.198c38.683,0,70.152-17.634,70.152-39.31
			c0-21.675-31.47-39.31-70.152-39.31S1,18.634,1,40.309c0,12.967,11.448,25.102,30.624,32.462c0.026,0.01,0.051,0.021,0.073,0.035
			c0.102,0.044,0.398,0.153,0.862,0.315c0.225,0.078,0.363,0.304,0.331,0.539c-0.629,4.6-4.389,9.258-6.877,12.34
			C25.626,86.481,25.269,86.924,24.959,87.322z"/>
	</g>
	<g>
		<path fill="#3E3A39" d="M21.184,20.995c0-0.083-0.021-0.197-0.062-0.344c-0.021-0.166-0.042-0.281-0.062-0.344
			c1.021-0.062,2.062-0.177,3.125-0.344l0.156,0.688c-0.104,0-0.261,0.021-0.469,0.062c-0.312,0.021-0.542,0.042-0.688,0.062v1.156
			h1.844c-0.062-0.812-0.094-1.572-0.094-2.281h0.75c0,0.479,0.021,1.24,0.062,2.281h2.688v0.688h-2.656l0.062,0.469
			c0.062,0.521,0.125,0.99,0.188,1.406c0.5-0.458,0.947-0.969,1.344-1.531l0.594,0.438c-0.521,0.709-1.094,1.323-1.719,1.844
			c0.041,0.062,0.083,0.156,0.125,0.281c0.062,0.125,0.104,0.219,0.125,0.281c0.208,0.375,0.447,0.552,0.719,0.531
			c0.166,0,0.291-0.114,0.375-0.344c0.041-0.208,0.104-0.562,0.188-1.062c0.291,0.146,0.51,0.24,0.656,0.281
			c-0.062,0.5-0.156,0.906-0.281,1.219c-0.146,0.438-0.459,0.656-0.938,0.656c-0.562,0.021-1.021-0.292-1.375-0.938
			c-0.021-0.041-0.053-0.114-0.094-0.219c-0.042-0.083-0.073-0.146-0.094-0.188c-0.5,0.334-1.062,0.656-1.688,0.969
			c-0.209-0.312-0.354-0.5-0.438-0.562c0.625-0.291,1.25-0.666,1.875-1.125c-0.125-0.541-0.219-1.166-0.281-1.875l-0.062-0.531
			h-1.875v1.219c0.188-0.021,0.469-0.062,0.844-0.125c0.25-0.041,0.438-0.072,0.562-0.094c0,0.042,0,0.115,0,0.219
			c-0.021,0.188-0.021,0.344,0,0.469c-0.125,0.021-0.312,0.053-0.562,0.094c-0.375,0.062-0.656,0.104-0.844,0.125v1.594
			c0.021,0.562-0.25,0.854-0.812,0.875c-0.188,0.021-0.531,0.031-1.031,0.031c-0.021-0.084-0.042-0.198-0.062-0.344
			c-0.042-0.167-0.073-0.292-0.094-0.375c0.104,0.021,0.364,0.031,0.781,0.031c0.333,0.021,0.489-0.114,0.469-0.406v-1.25
			l-1.469,0.25l-0.125-0.75c0.104-0.021,0.281-0.041,0.531-0.062c0.458-0.062,0.812-0.114,1.062-0.156V22.62h-1.562v-0.688h1.562
			V20.87c-0.25,0.042-0.584,0.073-1,0.094C21.309,20.985,21.225,20.995,21.184,20.995z M27.402,21.651
			c-0.354-0.396-0.781-0.802-1.281-1.219l0.5-0.438c0.291,0.25,0.729,0.625,1.312,1.125L27.402,21.651z"/>
		<path fill="#3E3A39" d="M29.827,24.182l-0.188-1c0.688-1.083,1.188-2.229,1.5-3.438l0.75,0.188
			c-0.021,0.062-0.053,0.156-0.094,0.281c-0.146,0.396-0.323,0.844-0.531,1.344v5.594h-0.719v-4.156
			C30.316,23.412,30.077,23.807,29.827,24.182z M32.358,27.057v-5.5h0.75v5.5H32.358z M33.296,21.338
			c-0.312-0.458-0.615-0.864-0.906-1.219l0.594-0.375c0.416,0.459,0.739,0.844,0.969,1.156L33.296,21.338z M34.546,27.057
			c-0.062-0.25-0.115-0.511-0.156-0.781c0.333,0.021,0.688,0.031,1.062,0.031c0.479,0.041,0.697-0.156,0.656-0.594v-4.719h-1.781
			v-0.719h2.562v5.594c0.021,0.791-0.344,1.188-1.094,1.188H34.546z"/>
		<path fill="#3E3A39" d="M38.752,27.057v-6.125h0.844c0.021-0.083,0.052-0.197,0.094-0.344c0.083-0.229,0.156-0.531,0.219-0.906
			l0.781,0.125c-0.104,0.375-0.219,0.75-0.344,1.125h1.406v6.062h-0.688v-0.594h-1.594v0.656H38.752z M39.471,21.62v1.719h1.594
			V21.62H39.471z M39.471,24.026v1.781h1.594v-1.781H39.471z M42.971,26.995c-0.021-0.229-0.073-0.479-0.156-0.75
			c0.271,0.021,0.677,0.031,1.219,0.031c0.583,0.041,0.875-0.219,0.875-0.781c0.041-0.458,0.072-1.438,0.094-2.938
			c0.021-0.438,0.031-0.75,0.031-0.938h-1.875c-0.084,0.188-0.219,0.459-0.406,0.812c-0.084,0.167-0.146,0.292-0.188,0.375
			c-0.188-0.125-0.396-0.25-0.625-0.375c0.5-0.896,0.885-1.812,1.156-2.75l0.719,0.156c-0.042,0.125-0.104,0.303-0.188,0.531
			c-0.084,0.25-0.146,0.438-0.188,0.562h2.312c0,1.334-0.042,2.896-0.125,4.688c0,0.896-0.448,1.354-1.344,1.375
			C43.866,26.995,43.429,26.995,42.971,26.995z M43.689,24.838c-0.104-0.146-0.261-0.364-0.469-0.656
			c-0.292-0.438-0.521-0.771-0.688-1l0.562-0.375c0.146,0.209,0.364,0.5,0.656,0.875c0.25,0.312,0.438,0.562,0.562,0.75
			L43.689,24.838z"/>
		<path fill="#3E3A39" d="M47.428,22.463v-0.719h3.188c0.041-0.479,0.062-1.156,0.062-2.031h0.812l-0.062,2.031h3.25v0.719h-3.219
			c0.271,1.854,1.385,3.125,3.344,3.812c-0.146,0.188-0.323,0.438-0.531,0.75c-1.729-0.75-2.803-1.906-3.219-3.469
			c-0.292,1.479-1.365,2.667-3.219,3.562c-0.042-0.062-0.125-0.178-0.25-0.344c-0.125-0.146-0.219-0.261-0.281-0.344
			c2.041-0.896,3.125-2.219,3.25-3.969H47.428z"/>
		<path fill="#3E3A39" d="M56.54,27.12l-0.531-0.5c0.354-0.521,0.51-1.531,0.469-3.031v-3.5h2.125v6.156
			c0,0.5-0.229,0.76-0.688,0.781c-0.125,0.021-0.365,0.031-0.719,0.031c-0.021-0.209-0.053-0.428-0.094-0.656
			c0.104,0.021,0.271,0.031,0.5,0.031c0.291,0.021,0.427-0.104,0.406-0.375V24.62h-0.906C57.061,25.599,56.873,26.432,56.54,27.12z
			 M57.103,20.713v1.375h0.906v-1.375H57.103z M57.103,23.838v0.188h0.906v-1.375h-0.906V23.838z M59.04,21.37v-0.625h2.031
			c-0.084-0.333-0.188-0.656-0.312-0.969l0.719-0.125c0.125,0.354,0.229,0.719,0.312,1.094h1.844v0.625H59.04z M59.259,26.776v-4.5
			h0.625v3.938h2.781v-3.938h0.656v4.875h-0.656v-0.375H59.259z M59.946,21.932l0.531-0.312c0.291,0.438,0.572,0.917,0.844,1.438
			c0.229-0.438,0.447-0.927,0.656-1.469l0.562,0.219c-0.167,0.417-0.417,0.959-0.75,1.625c-0.062,0.104-0.104,0.188-0.125,0.25
			c0.312,0.562,0.625,1.136,0.938,1.719l-0.562,0.344c-0.062-0.104-0.146-0.26-0.25-0.469c-0.209-0.416-0.375-0.729-0.5-0.938
			c-0.271,0.479-0.573,0.938-0.906,1.375l-0.469-0.438c0.375-0.5,0.729-1.021,1.062-1.562c-0.062-0.104-0.156-0.271-0.281-0.5
			C60.362,22.61,60.112,22.182,59.946,21.932z"/>
		<path fill="#3E3A39" d="M66.34,27.307l-0.281-0.312c0.521-0.334,0.771-0.74,0.75-1.219h-0.562v-1.094h1.031
			c0,0.167,0,0.479,0,0.938C67.298,26.37,66.985,26.932,66.34,27.307z"/>
		<path fill="#3E3A39" d="M74.171,21.338v-0.656h2.906v-1h0.75v1h2.906v0.656h-2.906v1.969h3.312v0.656h-3
			c0.771,0.854,1.802,1.511,3.094,1.969c-0.042,0.084-0.115,0.188-0.219,0.312c-0.084,0.146-0.156,0.26-0.219,0.344
			c-1.375-0.562-2.365-1.26-2.969-2.094v2.656h-0.75v-2.688c-0.709,0.896-1.719,1.636-3.031,2.219
			c-0.084-0.167-0.229-0.365-0.438-0.594c1.271-0.541,2.312-1.25,3.125-2.125h-2.969v-0.656h3.312v-1.969H74.171z M75.702,23.12
			c-0.146-0.188-0.375-0.458-0.688-0.812c-0.146-0.166-0.25-0.291-0.312-0.375l0.562-0.406c0.208,0.209,0.5,0.542,0.875,1
			c-0.25-0.291-0.209-0.239,0.125,0.156L75.702,23.12z M79.046,23.182l-0.5-0.469c0.416-0.375,0.781-0.771,1.094-1.188l0.562,0.438
			c-0.021,0.021-0.042,0.042-0.062,0.062C79.702,22.505,79.337,22.891,79.046,23.182z"/>
		<path fill="#3E3A39" d="M83.221,27.151v-6.5h2.062c0.021-0.104,0.062-0.25,0.125-0.438c0.062-0.25,0.104-0.427,0.125-0.531
			l0.844,0.062c-0.021,0.125-0.073,0.312-0.156,0.562c-0.062,0.146-0.104,0.261-0.125,0.344h3.188v6.5h-0.781v-0.5h-4.531v0.5
			H83.221z M83.971,21.307v1.188h4.531v-1.188H83.971z M83.971,23.088v1.188h4.531v-1.188H83.971z M83.971,24.87v1.188h4.531V24.87
			H83.971z"/>
		<path fill="#3E3A39" d="M92.365,24.182v2.406h-0.812v-4.594h0.812v0.844l0.031,0.031c0.229-0.646,0.625-0.979,1.188-1
			c0.333,0,0.614,0.084,0.844,0.25l-0.312,0.719c-0.146-0.125-0.365-0.188-0.656-0.188C92.75,22.693,92.386,23.204,92.365,24.182z"
			/>
		<path fill="#3E3A39" d="M99.821,26.588h-0.812v-0.812c-0.334,0.583-0.854,0.885-1.562,0.906c-1.125,0.021-1.688-0.572-1.688-1.781
			v-2.906h0.812v2.812c-0.021,0.875,0.364,1.303,1.156,1.281c0.771-0.062,1.197-0.521,1.281-1.375v-2.719h0.812V26.588z"/>
		<path fill="#3E3A39" d="M104.965,21.995h0.906c-1.125,2.75-1.792,4.354-2,4.812c-0.396,1.083-0.886,1.583-1.469,1.5
			c-0.292,0-0.573-0.053-0.844-0.156v-0.594c0.166,0.062,0.354,0.094,0.562,0.094c0.416,0.041,0.719-0.188,0.906-0.688
			c0.021-0.042,0.062-0.167,0.125-0.375l0.094-0.188l-1.938-4.406h0.906c0.729,1.896,1.135,2.948,1.219,3.156
			c0.062,0.188,0.125,0.386,0.188,0.594c0.021-0.021,0.062-0.125,0.125-0.312c0.062-0.166,0.094-0.26,0.094-0.281
			C103.923,24.901,104.298,23.849,104.965,21.995z"/>
		<path fill="#3E3A39" d="M107.296,21.088v-0.906h0.844v0.906H107.296z M107.296,26.588v-4.594h0.844v4.594H107.296z"/>
		<path fill="#3E3A39" d="M111.346,25.526v1.031h-1.062v-1.031H111.346z"/>
		<path fill="#3E3A39" d="M117.771,26.588h-0.781c-0.167-0.188-0.25-0.458-0.25-0.812c-0.375,0.583-1.042,0.885-2,0.906
			c-0.959-0.042-1.459-0.458-1.5-1.25c0.021-0.854,0.583-1.344,1.688-1.469c1.021-0.146,1.614-0.312,1.781-0.5
			c0.062-0.688-0.334-1.01-1.188-0.969c-0.75,0-1.198,0.292-1.344,0.875l-0.781-0.156c0.229-0.916,0.947-1.364,2.156-1.344
			c1.375-0.062,2.031,0.531,1.969,1.781c0,0.584,0,1.24,0,1.969C117.5,25.974,117.584,26.296,117.771,26.588z M116.771,24.651
			v-0.656c-0.25,0.229-0.729,0.386-1.438,0.469c-0.896,0.125-1.323,0.438-1.281,0.938c-0.021,0.479,0.322,0.709,1.031,0.688
			C116.125,26.047,116.688,25.568,116.771,24.651z"/>
		<path fill="#3E3A39" d="M119.446,21.088v-0.906h0.844v0.906H119.446z M119.446,26.588v-4.594h0.844v4.594H119.446z"/>
	</g>
	<g>
		<path fill="#898989" d="M31.92,37.792v-0.688c0-0.729,0.26-1.271,0.781-1.625l0.188,0.188c-0.438,0.354-0.646,0.792-0.625,1.312
			h0.438v0.812H31.92z M33.139,37.792v-0.688c0-0.729,0.26-1.271,0.781-1.625l0.188,0.188c-0.438,0.354-0.646,0.792-0.625,1.312
			h0.438v0.812H33.139z"/>
		<path fill="#898989" d="M37.854,37.479l0.469,0.156c-0.5,1.375-1.073,2.667-1.719,3.875c-0.146-0.104-0.303-0.188-0.469-0.25
			C36.801,40.198,37.374,38.938,37.854,37.479z M39.729,35.76h0.469v6.344c0.021,0.604-0.303,0.916-0.969,0.938
			c-0.334,0-0.688,0-1.062,0c-0.021-0.146-0.062-0.303-0.125-0.469c0.333,0,0.666,0,1,0c0.5,0.041,0.729-0.156,0.688-0.594V35.76z
			 M41.385,37.698l0.406-0.188c0.396,0.709,1.021,1.928,1.875,3.656l-0.469,0.219C42.635,40.135,42.03,38.907,41.385,37.698z"/>
		<path fill="#898989" d="M46.912,40.51l0.375,0.25c-0.584,0.709-1.219,1.365-1.906,1.969c-0.104-0.104-0.219-0.198-0.344-0.281
			C45.828,41.74,46.453,41.094,46.912,40.51z M45.787,39.792v-0.5c0.458-0.729,0.844-1.406,1.156-2.031h-1.812v-0.406h2.031
			c0.188-0.375,0.375-0.771,0.562-1.188l0.469,0.125c-0.167,0.312-0.344,0.667-0.531,1.062h4.844v0.406h-5.062
			c-0.459,0.875-0.854,1.584-1.188,2.125h2.625v-1.594h0.438v1.594H52.1v0.406h-2.781v2.219c0.041,0.666-0.312,1-1.062,1
			c-0.167,0.021-0.511,0.031-1.031,0.031c-0.021-0.188-0.053-0.344-0.094-0.469c0.25,0.021,0.594,0.031,1.031,0.031
			c0.521,0.021,0.76-0.198,0.719-0.656v-2.156H45.787z M50.256,40.823l0.312-0.281c0.688,0.542,1.364,1.104,2.031,1.688
			l-0.344,0.312c-0.062-0.062-0.156-0.146-0.281-0.25C51.203,41.604,50.631,41.115,50.256,40.823z"/>
		<path fill="#898989" d="M54.502,37.854h2.156v-0.156v-1.156h-2.625v-0.406h7.438v0.406h-2.594v1.312h2.219v5.281h-0.438v-0.5
			h-5.719v0.5h-0.438V37.854z M59.314,40.792c-0.604,0.021-0.896-0.239-0.875-0.781v-1.75h-1.344
			c0.021,1.229-0.469,2.209-1.469,2.938c-0.021-0.041-0.073-0.094-0.156-0.156c-0.084-0.083-0.146-0.135-0.188-0.156
			c0.958-0.646,1.416-1.521,1.375-2.625h-1.719v4h5.719v-4h-1.781v1.719c-0.021,0.292,0.156,0.428,0.531,0.406
			c0.354,0,0.677-0.01,0.969-0.031c0,0.042-0.011,0.115-0.031,0.219c-0.021,0.104-0.042,0.178-0.062,0.219
			C59.991,40.792,59.668,40.792,59.314,40.792z M57.096,37.698v0.156h1.344v-1.312h-1.344V37.698z"/>
		<path fill="#898989" d="M63.437,37.135h6.25v0.469c-1.459,1.521-3.094,2.823-4.906,3.906c0,0.021,0.01,0.031,0.031,0.031
			c0.458,0.5,1.177,0.76,2.156,0.781c1.041,0.062,2.208,0.062,3.5,0c-0.021,0.083-0.062,0.208-0.125,0.375
			c-0.021,0.041-0.031,0.072-0.031,0.094c-0.959,0-1.646,0-2.062,0c-0.5,0-0.938-0.011-1.312-0.031
			c-1.167-0.021-2.021-0.354-2.562-1c-0.084-0.083-0.198-0.083-0.344,0c-0.042,0.042-0.094,0.094-0.156,0.156
			c-0.354,0.312-0.615,0.583-0.781,0.812l-0.25-0.406c0.291-0.291,0.541-0.541,0.75-0.75c0.25-0.229,0.447-0.344,0.594-0.344
			c0.021,0,0.052,0,0.094,0c0.041,0.021,0.072,0.031,0.094,0.031c1.916-1.188,3.5-2.427,4.75-3.719h-5.688V37.135z M66.124,35.885
			l0.406-0.188c0.041,0.062,0.094,0.146,0.156,0.25c0.271,0.417,0.458,0.719,0.562,0.906l-0.438,0.219
			C66.645,36.74,66.415,36.344,66.124,35.885z"/>
		<path fill="#898989" d="M74.464,41.76l-0.312,0.344c-0.25-0.25-0.479-0.469-0.688-0.656c-0.25,0.438-0.698,0.958-1.344,1.562
			c-0.021-0.042-0.073-0.094-0.156-0.156c-0.062-0.084-0.115-0.146-0.156-0.188c0.583-0.479,1.031-0.979,1.344-1.5
			c-0.209-0.208-0.531-0.479-0.969-0.812c0.062,0.042,0.021,0-0.125-0.125c0.166-0.771,0.322-1.625,0.469-2.562h-0.625V37.26h0.688
			c0.104-0.541,0.188-1.072,0.25-1.594l0.438,0.031c-0.021,0.104-0.042,0.24-0.062,0.406c-0.062,0.271-0.125,0.656-0.188,1.156
			h1.344v0.406c-0.084,1.521-0.323,2.656-0.719,3.406c0.104,0.084,0.26,0.209,0.469,0.375C74.266,41.594,74.38,41.698,74.464,41.76z
			 M73.995,37.667h-1.062c-0.146,0.938-0.303,1.761-0.469,2.469c0.125,0.104,0.312,0.25,0.562,0.438
			c0.146,0.125,0.25,0.209,0.312,0.25C73.651,40.177,73.87,39.125,73.995,37.667z M76.651,39.448h0.438v1.062h1.906v0.406h-1.906
			v1.406h2.344v0.406h-5.188v-0.406h2.406v-1.406h-1.906V40.51h1.906V39.448z M74.901,36.854h1.75v-1.156h0.438v1.156h1.781v0.375
			h-1.781v1.438h2.219v0.375h-4.656v-0.375h2v-1.438h-1.75V36.854z"/>
		<path fill="#898989" d="M83.397,41.76l-0.312,0.344c-0.25-0.25-0.479-0.469-0.688-0.656c-0.25,0.438-0.698,0.958-1.344,1.562
			c-0.021-0.042-0.073-0.094-0.156-0.156c-0.062-0.084-0.115-0.146-0.156-0.188c0.583-0.479,1.031-0.979,1.344-1.5
			c-0.209-0.208-0.531-0.479-0.969-0.812c0.062,0.042,0.021,0-0.125-0.125c0.166-0.771,0.322-1.625,0.469-2.562h-0.625V37.26h0.688
			c0.104-0.541,0.188-1.072,0.25-1.594l0.438,0.031c-0.021,0.104-0.042,0.24-0.062,0.406c-0.062,0.271-0.125,0.656-0.188,1.156
			h1.344v0.406c-0.084,1.521-0.323,2.656-0.719,3.406c0.104,0.084,0.26,0.209,0.469,0.375C83.199,41.594,83.313,41.698,83.397,41.76
			z M82.929,37.667h-1.062c-0.146,0.938-0.303,1.761-0.469,2.469c0.125,0.104,0.312,0.25,0.562,0.438
			c0.146,0.125,0.25,0.209,0.312,0.25C82.585,40.177,82.804,39.125,82.929,37.667z M85.585,39.448h0.438v1.062h1.906v0.406h-1.906
			v1.406h2.344v0.406h-5.188v-0.406h2.406v-1.406h-1.906V40.51h1.906V39.448z M83.835,36.854h1.75v-1.156h0.438v1.156h1.781v0.375
			h-1.781v1.438h2.219v0.375h-4.656v-0.375h2v-1.438h-1.75V36.854z"/>
		<path fill="#898989" d="M90.175,40.167h3.188v-1.188h-3.625v-0.375h4.469c0.396-0.562,0.729-1.052,1-1.469l0.375,0.219
			c-0.084,0.146-0.261,0.406-0.531,0.781c-0.167,0.209-0.281,0.365-0.344,0.469h2.531v0.375h-3.469v1.188H96.8v0.375h-3.031v1.469
			c0.041,0.666-0.303,1-1.031,1c-0.188,0.021-0.406,0.021-0.656,0c-0.104,0-0.188,0-0.25,0c-0.021-0.125-0.053-0.271-0.094-0.438
			c0.208,0.021,0.521,0.031,0.938,0.031c0.479,0.041,0.708-0.156,0.688-0.594v-1.469h-3.188V40.167z M91.675,41.01l0.344,0.312
			c-0.646,0.542-1.25,0.979-1.812,1.312c-0.021-0.021-0.062-0.073-0.125-0.156c-0.084-0.084-0.146-0.146-0.188-0.188
			C90.539,41.938,91.133,41.51,91.675,41.01z M93.144,35.76l0.406-0.125c0.083,0.167,0.208,0.5,0.375,1h2.906v0.375h-6.688v-0.375
			h3.312c-0.021-0.062-0.062-0.177-0.125-0.344C93.247,36.021,93.185,35.844,93.144,35.76z M91.519,37.323l0.375-0.188
			c0.104,0.146,0.271,0.386,0.5,0.719c0.125,0.209,0.219,0.354,0.281,0.438L92.3,38.51C92.091,38.177,91.831,37.782,91.519,37.323z
			 M94.706,41.354l0.312-0.312c0.083,0.062,0.219,0.156,0.406,0.281c0.291,0.167,0.791,0.49,1.5,0.969l-0.312,0.344
			c-0.084-0.062-0.209-0.156-0.375-0.281C95.612,41.938,95.102,41.604,94.706,41.354z"/>
		<path fill="#898989" d="M99.108,40.167h3.188v-1.188h-3.625v-0.375h4.469c0.396-0.562,0.729-1.052,1-1.469l0.375,0.219
			c-0.084,0.146-0.261,0.406-0.531,0.781c-0.167,0.209-0.281,0.365-0.344,0.469h2.531v0.375h-3.469v1.188h3.031v0.375h-3.031v1.469
			c0.041,0.666-0.303,1-1.031,1c-0.188,0.021-0.406,0.021-0.656,0c-0.104,0-0.188,0-0.25,0c-0.021-0.125-0.053-0.271-0.094-0.438
			c0.208,0.021,0.521,0.031,0.938,0.031c0.479,0.041,0.708-0.156,0.688-0.594v-1.469h-3.188V40.167z M100.608,41.01l0.344,0.312
			c-0.646,0.542-1.25,0.979-1.812,1.312c-0.021-0.021-0.062-0.073-0.125-0.156c-0.084-0.084-0.146-0.146-0.188-0.188
			C99.473,41.938,100.066,41.51,100.608,41.01z M102.077,35.76l0.406-0.125c0.083,0.167,0.208,0.5,0.375,1h2.906v0.375h-6.688
			v-0.375h3.312c-0.021-0.062-0.062-0.177-0.125-0.344C102.181,36.021,102.118,35.844,102.077,35.76z M100.452,37.323l0.375-0.188
			c0.104,0.146,0.271,0.386,0.5,0.719c0.125,0.209,0.219,0.354,0.281,0.438l-0.375,0.219
			C101.024,38.177,100.765,37.782,100.452,37.323z M103.64,41.354l0.312-0.312c0.083,0.062,0.219,0.156,0.406,0.281
			c0.291,0.167,0.791,0.49,1.5,0.969l-0.312,0.344c-0.084-0.062-0.209-0.156-0.375-0.281
			C104.546,41.938,104.035,41.604,103.64,41.354z"/>
		<path fill="#898989" d="M108.948,39.729v-0.812h0.781v0.812H108.948z M108.948,42.948v-0.75h0.781v0.75H108.948z"/>
		<path fill="#898989" d="M27.264,50.76l-0.125-0.438c0.062,0,0.146-0.01,0.25-0.031c0.604-0.104,1.104-0.188,1.5-0.25v-1.625h-1.75
			v-0.375h1.75v-1.344c-0.125,0.021-0.312,0.042-0.562,0.062c-0.438,0.042-0.719,0.073-0.844,0.094
			c-0.021-0.083-0.053-0.188-0.094-0.312c-0.021-0.041-0.031-0.072-0.031-0.094c1.041-0.104,2.083-0.239,3.125-0.406l0.125,0.375
			c-0.062,0.021-0.167,0.042-0.312,0.062c-0.167,0.021-0.49,0.073-0.969,0.156v1.406h2.219c-0.042-0.75-0.062-1.541-0.062-2.375
			h0.438c0,0.834,0.021,1.625,0.062,2.375h2.781v0.375h-2.781c0.021,0.146,0.041,0.365,0.062,0.656
			c0.041,0.209,0.062,0.365,0.062,0.469c0.062,0.479,0.135,0.875,0.219,1.188c0.541-0.479,1.041-1.041,1.5-1.688l0.375,0.25
			c-0.667,0.875-1.25,1.5-1.75,1.875c0.083,0.271,0.188,0.511,0.312,0.719c0.25,0.5,0.541,0.75,0.875,0.75
			c0.229,0,0.385-0.146,0.469-0.438c0.104-0.291,0.177-0.635,0.219-1.031c0.021,0.021,0.062,0.042,0.125,0.062
			c0.062,0.021,0.156,0.053,0.281,0.094c-0.062,0.375-0.146,0.729-0.25,1.062c-0.125,0.458-0.406,0.688-0.844,0.688
			c-0.5,0.021-0.928-0.323-1.281-1.031c-0.104-0.166-0.188-0.354-0.25-0.562c-0.542,0.417-1.198,0.802-1.969,1.156
			c-0.125-0.188-0.219-0.303-0.281-0.344c0.729-0.291,1.427-0.708,2.094-1.25c-0.125-0.438-0.219-0.916-0.281-1.438
			c0-0.083-0.011-0.219-0.031-0.406c-0.042-0.333-0.062-0.594-0.062-0.781h-2.25v1.531c0.25-0.041,0.614-0.114,1.094-0.219
			c0.208-0.041,0.364-0.072,0.469-0.094c0,0.125,0,0.261,0,0.406c-0.146,0.021-0.375,0.073-0.688,0.156
			c-0.375,0.062-0.667,0.115-0.875,0.156v1.812c0.021,0.521-0.24,0.791-0.781,0.812C28.398,53,28.097,53.01,27.639,53.01
			c-0.021-0.167-0.053-0.312-0.094-0.438c0.229,0,0.51,0,0.844,0c0.354,0.021,0.521-0.115,0.5-0.406v-1.719
			c-0.084,0.021-0.219,0.042-0.406,0.062C28.253,50.552,27.847,50.635,27.264,50.76z M32.514,46.417l0.312-0.281
			c0.396,0.312,0.822,0.688,1.281,1.125l-0.312,0.281c-0.042-0.041-0.146-0.135-0.312-0.281
			C33.003,46.844,32.68,46.563,32.514,46.417z"/>
		<path fill="#898989" d="M37.635,50.292l0.406,0.062c-0.021,0.062-0.042,0.156-0.062,0.281c-0.042,0.167-0.073,0.292-0.094,0.375
			c0.416,0.812,1.062,1.26,1.938,1.344v-2.375h-3.594v-0.375h7.344v0.375h-3.344v1h2.812v0.344h-2.812v1.062
			c0.062,0,0.104,0,0.125,0c0.75,0.021,1.854,0.031,3.312,0.031c-0.062,0.104-0.104,0.25-0.125,0.438
			c-0.917,0-1.979-0.021-3.188-0.062c-1.229,0.021-2.104-0.417-2.625-1.312c-0.229,0.625-0.688,1.188-1.375,1.688
			c-0.021-0.021-0.062-0.062-0.125-0.125c-0.062-0.084-0.115-0.146-0.156-0.188C36.968,52.25,37.488,51.396,37.635,50.292z
			 M37.322,46.042h5.125v2.75h-5.125V46.042z M37.729,46.385v0.844h4.281v-0.844H37.729z M37.729,47.573v0.844h4.281v-0.844H37.729z
			"/>
		<path fill="#898989" d="M48.787,45.573l0.469,0.125c-0.271,0.25-0.562,0.49-0.875,0.719h3.531v0.406
			c-1.459,1.354-3.636,2.396-6.531,3.125c-0.021-0.062-0.062-0.166-0.125-0.312c-0.042-0.041-0.062-0.072-0.062-0.094
			c2.646-0.625,4.688-1.531,6.125-2.719h-3.438c-0.125,0.084-0.271,0.178-0.438,0.281c0.438,0.25,0.864,0.531,1.281,0.844
			l-0.281,0.312c-0.146-0.104-0.344-0.239-0.594-0.406c-0.312-0.229-0.562-0.406-0.75-0.531c-0.167,0.104-0.448,0.261-0.844,0.469
			c-0.188,0.084-0.334,0.156-0.438,0.219c-0.062-0.125-0.146-0.25-0.25-0.375C46.818,47.115,47.891,46.427,48.787,45.573z
			 M49.725,48.635l0.375,0.219c-0.25,0.209-0.5,0.406-0.75,0.594h2.906v0.438c-1.5,1.667-3.75,2.76-6.75,3.281
			c-0.021-0.042-0.053-0.104-0.094-0.188c-0.042-0.104-0.073-0.178-0.094-0.219c2.812-0.438,4.947-1.416,6.406-2.938h-2.938
			c-0.229,0.188-0.469,0.344-0.719,0.469c0.166,0.125,0.416,0.303,0.75,0.531c0.208,0.146,0.364,0.261,0.469,0.344l-0.312,0.312
			c-0.438-0.375-0.865-0.697-1.281-0.969c-0.521,0.292-1.094,0.562-1.719,0.812l-0.25-0.406
			C47.245,50.354,48.578,49.594,49.725,48.635z"/>
		<path fill="#898989" d="M54.314,52.229c-0.084-0.104-0.188-0.208-0.312-0.312c2.062-1.083,3.552-2.479,4.469-4.188h-4.25v-0.438
			h4.75v-1.594h0.469v1.594h2.031v0.438h-2.031v4.031c0.021,0.791-0.375,1.177-1.188,1.156c-0.167,0.021-0.553,0.031-1.156,0.031
			c0-0.042-0.011-0.125-0.031-0.25c-0.021-0.104-0.042-0.188-0.062-0.25c0.271,0.021,0.646,0.031,1.125,0.031
			c0.604,0.041,0.885-0.219,0.844-0.781v-3.969h-0.062C57.908,49.688,56.377,51.188,54.314,52.229z"/>
		<path fill="#898989" d="M66.655,45.573l0.469,0.125c-0.271,0.25-0.562,0.49-0.875,0.719h3.531v0.406
			c-1.459,1.354-3.636,2.396-6.531,3.125c-0.021-0.062-0.062-0.166-0.125-0.312c-0.042-0.041-0.062-0.072-0.062-0.094
			c2.646-0.625,4.688-1.531,6.125-2.719h-3.438c-0.125,0.084-0.271,0.178-0.438,0.281c0.438,0.25,0.864,0.531,1.281,0.844
			l-0.281,0.312c-0.146-0.104-0.344-0.239-0.594-0.406c-0.312-0.229-0.562-0.406-0.75-0.531c-0.167,0.104-0.448,0.261-0.844,0.469
			c-0.188,0.084-0.334,0.156-0.438,0.219c-0.062-0.125-0.146-0.25-0.25-0.375C64.687,47.115,65.759,46.427,66.655,45.573z
			 M67.593,48.635l0.375,0.219c-0.25,0.209-0.5,0.406-0.75,0.594h2.906v0.438c-1.5,1.667-3.75,2.76-6.75,3.281
			c-0.021-0.042-0.053-0.104-0.094-0.188c-0.042-0.104-0.073-0.178-0.094-0.219c2.812-0.438,4.947-1.416,6.406-2.938h-2.938
			c-0.229,0.188-0.469,0.344-0.719,0.469c0.166,0.125,0.416,0.303,0.75,0.531c0.208,0.146,0.364,0.261,0.469,0.344l-0.312,0.312
			c-0.438-0.375-0.865-0.697-1.281-0.969c-0.521,0.292-1.094,0.562-1.719,0.812l-0.25-0.406
			C65.113,50.354,66.446,49.594,67.593,48.635z"/>
		<path fill="#898989" d="M76.745,45.667h0.438v1.031h2.188v0.406h-2.188v0.844h-0.438v-0.844h-2.281v0.844h-0.406v-0.844H71.87
			v-0.406h2.188v-1.031h0.406v1.031h2.281V45.667z M78.651,51.854c0.062-0.312,0.114-0.697,0.156-1.156
			c0.104,0.042,0.219,0.084,0.344,0.125c0.021,0.021,0.041,0.031,0.062,0.031c-0.021,0.479-0.073,0.886-0.156,1.219
			c-0.084,0.521-0.688,0.781-1.812,0.781c-1.062,0.041-2.209,0.041-3.438,0c-0.792,0-1.198-0.24-1.219-0.719
			c0-0.375,0.188-0.688,0.562-0.938c0.729-0.521,2.062-1.271,4-2.25h-4.156v-0.406h4.969v0.469
			c-1.959,0.917-3.448,1.729-4.469,2.438c-0.292,0.25-0.438,0.448-0.438,0.594c0,0.271,0.312,0.416,0.938,0.438
			c1.479,0,2.51-0.011,3.094-0.031C78.089,52.448,78.609,52.25,78.651,51.854z"/>
		<path fill="#898989" d="M81.085,46.979h0.812c0.166-0.5,0.291-0.927,0.375-1.281l0.438,0.094c-0.125,0.417-0.25,0.812-0.375,1.188
			h1.594v6h-0.438v-0.625h-2v0.688h-0.406V46.979z M81.491,47.354v2.125h2v-2.125H81.491z M81.491,49.854v2.156h2v-2.156H81.491z
			 M84.616,48.667c-0.042-0.021-0.104-0.062-0.188-0.125c-0.084-0.041-0.146-0.072-0.188-0.094c0.458-0.75,0.854-1.666,1.188-2.75
			l0.438,0.094c-0.125,0.375-0.271,0.761-0.438,1.156h2.594c0,0.104,0,0.271,0,0.5c-0.042,1.854-0.094,3.281-0.156,4.281
			c0.021,0.812-0.428,1.229-1.344,1.25c-0.417,0-0.823,0-1.219,0c0-0.021-0.011-0.053-0.031-0.094
			c-0.021-0.167-0.053-0.281-0.094-0.344c0.291,0.021,0.719,0.031,1.281,0.031c0.666,0.021,1-0.281,1-0.906
			c0.041-0.521,0.072-1.614,0.094-3.281c0.021-0.479,0.031-0.822,0.031-1.031h-2.312C85.001,47.958,84.782,48.396,84.616,48.667z
			 M84.96,49.042l0.312-0.25c0.041,0.062,0.104,0.146,0.188,0.25c0.458,0.562,0.812,1.031,1.062,1.406l-0.344,0.25
			C85.782,50.115,85.376,49.563,84.96,49.042z"/>
		<path fill="#898989" d="M91.706,45.854h0.438v2.531c0,1.25-0.136,2.178-0.406,2.781c-0.271,0.667-0.823,1.302-1.656,1.906
			c-0.021-0.021-0.062-0.062-0.125-0.125c-0.084-0.104-0.167-0.188-0.25-0.25c0.791-0.541,1.322-1.104,1.594-1.688
			c0.271-0.583,0.406-1.458,0.406-2.625V45.854z M94.112,45.823h0.469v6c-0.021,0.438,0.197,0.646,0.656,0.625h0.625
			c0.5,0.021,0.771-0.167,0.812-0.562c0.062-0.416,0.114-0.916,0.156-1.5c0.062,0.042,0.177,0.073,0.344,0.094
			c0.041,0.021,0.072,0.031,0.094,0.031c0,0.062-0.011,0.156-0.031,0.281c-0.042,0.584-0.094,1-0.156,1.25
			c-0.084,0.583-0.469,0.864-1.156,0.844h-0.781c-0.709,0.021-1.053-0.323-1.031-1.031V45.823z"/>
		<path fill="#898989" d="M99.577,48.542h5.688v2.438h-2.656v0.594h2.969v0.344h-2.969v0.594h3.562v0.344H98.64V52.51h3.562v-0.594
			h-2.969v-0.344h2.969v-0.594h-2.625V48.542z M102.14,45.698l0.406-0.062c0.021,0.084,0.052,0.209,0.094,0.375
			c0.021,0.188,0.041,0.323,0.062,0.406h3.031v0.344h-1.562l0.312,0.188c-0.229,0.25-0.438,0.49-0.625,0.719h2.25v0.312h-7.375
			v-0.312h2.344c-0.062-0.062-0.156-0.166-0.281-0.312c-0.167-0.208-0.281-0.344-0.344-0.406l0.281-0.188H99.14v-0.344h3.125
			c0-0.041-0.011-0.094-0.031-0.156C102.233,46.177,102.202,45.99,102.14,45.698z M99.983,48.885v0.719h2.219v-0.719H99.983z
			 M99.983,49.917v0.719h2.219v-0.719H99.983z M101.483,47.479l-0.25,0.188h2.125c0.062-0.062,0.146-0.166,0.25-0.312
			c0.229-0.271,0.385-0.469,0.469-0.594h-3.281C101.149,47.115,101.379,47.354,101.483,47.479z M104.858,48.885h-2.25v0.719h2.25
			V48.885z M102.608,49.917v0.719h2.25v-0.719H102.608z"/>
		<path fill="#898989" d="M110.011,50.542c0,0.646-0.24,1-0.719,1.062c-0.188,0.021-0.417,0.031-0.688,0.031
			c0-0.146-0.021-0.281-0.062-0.406c0.229,0.021,0.416,0.021,0.562,0c0.354,0,0.521-0.229,0.5-0.688
			c0.021-0.604-0.229-1.197-0.75-1.781l0.719-2.281h-1.281v6.656h-0.406v-7.031h2.094v0.406l-0.719,2.188
			C109.781,49.282,110.031,49.896,110.011,50.542z M110.167,48.854h2.812c0.333-0.5,0.656-0.989,0.969-1.469l0.375,0.219
			c-0.25,0.375-0.542,0.792-0.875,1.25h1.688v0.375h-4.969V48.854z M112.167,45.823l0.344-0.188
			c0.188,0.271,0.375,0.562,0.562,0.875l-0.312,0.188h2.125v0.375h-4.375v-0.375h2.156
			C112.521,46.427,112.354,46.135,112.167,45.823z M110.729,50.167h3.781v2.969h-0.438v-0.531h-2.938v0.531h-0.406V50.167z
			 M111.042,47.604l0.312-0.219c0.104,0.104,0.239,0.271,0.406,0.5c0.188,0.209,0.322,0.375,0.406,0.5l-0.344,0.25
			c-0.084-0.125-0.209-0.302-0.375-0.531C111.281,47.896,111.146,47.729,111.042,47.604z M111.136,50.542v1.688h2.938v-1.688
			H111.136z"/>
		<path fill="#898989" d="M27.357,59.917c0-0.021-0.011-0.052-0.031-0.094c-0.042-0.104-0.104-0.239-0.188-0.406
			c0.833-1.083,1.458-2.333,1.875-3.75l0.438,0.156c-0.209,0.625-0.459,1.24-0.75,1.844v5.469h-0.438v-4.656
			C27.972,59.021,27.67,59.5,27.357,59.917z M31.795,55.698h0.438v2.938h2.188v0.406h-2.188v1.438h2.5v0.438h-2.5v2.219h-0.438
			v-2.219h-2.469v-0.438h2.469v-1.438H29.67v-0.406h2.125V55.698z M29.639,56.729l0.344-0.25c0.375,0.438,0.729,0.896,1.062,1.375
			l-0.375,0.25C30.232,57.479,29.889,57.021,29.639,56.729z M33.264,58.135l-0.344-0.25c0.438-0.5,0.802-0.969,1.094-1.406
			l0.375,0.25c-0.062,0.084-0.156,0.198-0.281,0.344C33.773,57.532,33.492,57.885,33.264,58.135z"/>
		<path fill="#898989" d="M36.126,61.01c-0.021-0.041-0.053-0.104-0.094-0.188c-0.042-0.104-0.084-0.188-0.125-0.25
			c0.562-0.75,1-1.739,1.312-2.969h-1.125v-0.375h1.125v-1.531h0.406v1.531h1.094v0.375h-1.094v1.281l0.219-0.25
			c0.458,0.417,0.802,0.74,1.031,0.969l-0.281,0.281c-0.125-0.125-0.312-0.302-0.562-0.531c-0.188-0.188-0.323-0.322-0.406-0.406
			v4.156H37.22v-4.688C36.928,59.563,36.563,60.427,36.126,61.01z M39.876,56.604v2.219c0,1.209-0.094,2.084-0.281,2.625
			c-0.167,0.542-0.553,1.094-1.156,1.656c-0.084-0.084-0.209-0.188-0.375-0.312c0.604-0.542,0.989-1.052,1.156-1.531
			c0.166-0.479,0.25-1.302,0.25-2.469v-2.594h2.625v5.875c0,0.271,0.104,0.396,0.312,0.375h0.156c0.291,0,0.447-0.146,0.469-0.438
			c0.062-0.333,0.104-0.75,0.125-1.25c0.146,0.062,0.281,0.115,0.406,0.156c-0.021,0.562-0.062,0.969-0.125,1.219
			c-0.084,0.5-0.354,0.739-0.812,0.719h-0.281c-0.459,0-0.688-0.24-0.688-0.719v-5.531H39.876z"/>
		<path fill="#898989" d="M52.082,60.573c-1.834-0.083-2.979-0.552-3.438-1.406h-0.188c-0.209,0.729-1.365,1.219-3.469,1.469
			c-0.021-0.041-0.053-0.104-0.094-0.188c-0.062-0.083-0.104-0.146-0.125-0.188c1.916-0.208,3-0.572,3.25-1.094h-3v-0.344h3.156
			c0.062-0.188,0.104-0.406,0.125-0.656h0.406c-0.021,0.25-0.062,0.469-0.125,0.656h1.594c-0.084-0.146-0.188-0.322-0.312-0.531
			l0.375-0.156c0.125,0.209,0.25,0.438,0.375,0.688h1.531v0.344h-3.062c0.479,0.646,1.552,0.979,3.219,1
			c-0.021,0.042-0.073,0.136-0.156,0.281C52.103,60.51,52.082,60.552,52.082,60.573z M45.426,56.104h2.562v1.906h-2.562V56.104z
			 M45.426,60.823h2.594v2.281h-0.375v-0.375h-1.812v0.406h-0.406V60.823z M45.832,56.448v1.219h1.781v-1.219H45.832z
			 M45.832,61.167v1.219h1.812v-1.219H45.832z M49.02,56.104h2.594v1.906H49.02V56.104z M49.02,60.823h2.625v2.312h-0.406v-0.406
			h-1.812v0.375H49.02V60.823z M49.426,56.448v1.219h1.781v-1.219H49.426z M49.426,61.167v1.219h1.812v-1.219H49.426z"/>
		<path fill="#898989" d="M60.758,62.948c-2-1-3.125-2.635-3.375-4.906c-0.292,2.229-1.438,3.896-3.438,5
			c-0.021-0.021-0.062-0.062-0.125-0.125c-0.084-0.125-0.146-0.198-0.188-0.219c1.979-1.104,3.114-2.76,3.406-4.969
			c0.062-0.416,0.094-1.062,0.094-1.938h0.469c0,0.146-0.011,0.344-0.031,0.594c0,0.271-0.011,0.469-0.031,0.594
			c0.333,2.896,1.51,4.761,3.531,5.594c-0.042,0.041-0.104,0.114-0.188,0.219C60.82,62.875,60.778,62.926,60.758,62.948z"/>
		<path fill="#898989" d="M63.745,59.729v-0.812h0.781v0.812H63.745z M63.745,62.948v-0.75h0.781v0.75H63.745z"/>
		<path fill="#898989" d="M73.795,61.76l-0.312,0.344c-0.25-0.25-0.479-0.469-0.688-0.656c-0.25,0.438-0.698,0.958-1.344,1.562
			c-0.021-0.042-0.073-0.094-0.156-0.156c-0.062-0.084-0.115-0.146-0.156-0.188c0.583-0.479,1.031-0.979,1.344-1.5
			c-0.209-0.208-0.531-0.479-0.969-0.812c0.062,0.042,0.021,0-0.125-0.125c0.166-0.771,0.322-1.625,0.469-2.562h-0.625V57.26h0.688
			c0.104-0.541,0.188-1.072,0.25-1.594l0.438,0.031c-0.021,0.104-0.042,0.24-0.062,0.406c-0.062,0.271-0.125,0.656-0.188,1.156
			h1.344v0.406c-0.084,1.521-0.323,2.656-0.719,3.406c0.104,0.084,0.26,0.209,0.469,0.375C73.597,61.594,73.711,61.698,73.795,61.76
			z M73.326,57.667h-1.062c-0.146,0.938-0.303,1.761-0.469,2.469c0.125,0.104,0.312,0.25,0.562,0.438
			c0.146,0.125,0.25,0.209,0.312,0.25C72.982,60.177,73.201,59.125,73.326,57.667z M75.982,59.448h0.438v1.062h1.906v0.406H76.42
			v1.406h2.344v0.406h-5.188v-0.406h2.406v-1.406h-1.906V60.51h1.906V59.448z M74.232,56.854h1.75v-1.156h0.438v1.156h1.781v0.375
			H76.42v1.438h2.219v0.375h-4.656v-0.375h2v-1.438h-1.75V56.854z"/>
		<path fill="#898989" d="M82.595,61.76l-0.312,0.344c-0.25-0.25-0.479-0.469-0.688-0.656c-0.25,0.438-0.698,0.958-1.344,1.562
			c-0.021-0.042-0.073-0.094-0.156-0.156c-0.062-0.084-0.115-0.146-0.156-0.188c0.583-0.479,1.031-0.979,1.344-1.5
			c-0.209-0.208-0.531-0.479-0.969-0.812c0.062,0.042,0.021,0-0.125-0.125c0.166-0.771,0.322-1.625,0.469-2.562h-0.625V57.26h0.688
			c0.104-0.541,0.188-1.072,0.25-1.594l0.438,0.031c-0.021,0.104-0.042,0.24-0.062,0.406c-0.062,0.271-0.125,0.656-0.188,1.156
			h1.344v0.406c-0.084,1.521-0.323,2.656-0.719,3.406c0.104,0.084,0.26,0.209,0.469,0.375C82.396,61.594,82.511,61.698,82.595,61.76
			z M82.126,57.667h-1.062c-0.146,0.938-0.303,1.761-0.469,2.469c0.125,0.104,0.312,0.25,0.562,0.438
			c0.146,0.125,0.25,0.209,0.312,0.25C81.782,60.177,82.001,59.125,82.126,57.667z M84.782,59.448h0.438v1.062h1.906v0.406H85.22
			v1.406h2.344v0.406h-5.188v-0.406h2.406v-1.406h-1.906V60.51h1.906V59.448z M83.032,56.854h1.75v-1.156h0.438v1.156h1.781v0.375
			H85.22v1.438h2.219v0.375h-4.656v-0.375h2v-1.438h-1.75V56.854z"/>
		<path fill="#898989" d="M89.238,60.167h3.188v-1.188h-3.625v-0.375h4.469c0.396-0.562,0.729-1.052,1-1.469l0.375,0.219
			c-0.084,0.146-0.261,0.406-0.531,0.781c-0.167,0.209-0.281,0.365-0.344,0.469h2.531v0.375h-3.469v1.188h3.031v0.375h-3.031v1.469
			c0.041,0.666-0.303,1-1.031,1c-0.188,0.021-0.406,0.021-0.656,0c-0.104,0-0.188,0-0.25,0c-0.021-0.125-0.053-0.271-0.094-0.438
			c0.208,0.021,0.521,0.031,0.938,0.031c0.479,0.041,0.708-0.156,0.688-0.594v-1.469h-3.188V60.167z M90.738,61.01l0.344,0.312
			c-0.646,0.542-1.25,0.979-1.812,1.312c-0.021-0.021-0.062-0.073-0.125-0.156c-0.084-0.084-0.146-0.146-0.188-0.188
			C89.603,61.938,90.196,61.51,90.738,61.01z M92.207,55.76l0.406-0.125c0.083,0.167,0.208,0.5,0.375,1h2.906v0.375h-6.688v-0.375
			h3.312c-0.021-0.062-0.062-0.177-0.125-0.344C92.311,56.021,92.248,55.844,92.207,55.76z M90.582,57.323l0.375-0.188
			c0.104,0.146,0.271,0.386,0.5,0.719c0.125,0.209,0.219,0.354,0.281,0.438l-0.375,0.219C91.154,58.177,90.895,57.782,90.582,57.323
			z M93.77,61.354l0.312-0.312c0.083,0.062,0.219,0.156,0.406,0.281c0.291,0.167,0.791,0.49,1.5,0.969l-0.312,0.344
			c-0.084-0.062-0.209-0.156-0.375-0.281C94.676,61.938,94.165,61.604,93.77,61.354z"/>
		<path fill="#898989" d="M98.039,60.167h3.188v-1.188h-3.625v-0.375h4.469c0.396-0.562,0.729-1.052,1-1.469l0.375,0.219
			c-0.084,0.146-0.261,0.406-0.531,0.781c-0.167,0.209-0.281,0.365-0.344,0.469h2.531v0.375h-3.469v1.188h3.031v0.375h-3.031v1.469
			c0.041,0.666-0.303,1-1.031,1c-0.188,0.021-0.406,0.021-0.656,0c-0.104,0-0.188,0-0.25,0c-0.021-0.125-0.053-0.271-0.094-0.438
			c0.208,0.021,0.521,0.031,0.938,0.031c0.479,0.041,0.708-0.156,0.688-0.594v-1.469h-3.188V60.167z M99.539,61.01l0.344,0.312
			c-0.646,0.542-1.25,0.979-1.812,1.312c-0.021-0.021-0.062-0.073-0.125-0.156c-0.084-0.084-0.146-0.146-0.188-0.188
			C98.403,61.938,98.997,61.51,99.539,61.01z M101.008,55.76l0.406-0.125c0.083,0.167,0.208,0.5,0.375,1h2.906v0.375h-6.688v-0.375
			h3.312c-0.021-0.062-0.062-0.177-0.125-0.344C101.111,56.021,101.049,55.844,101.008,55.76z M99.383,57.323l0.375-0.188
			c0.104,0.146,0.271,0.386,0.5,0.719c0.125,0.209,0.219,0.354,0.281,0.438l-0.375,0.219C99.955,58.177,99.695,57.782,99.383,57.323
			z M102.57,61.354l0.312-0.312c0.083,0.062,0.219,0.156,0.406,0.281c0.291,0.167,0.791,0.49,1.5,0.969l-0.312,0.344
			c-0.084-0.062-0.209-0.156-0.375-0.281C103.477,61.938,102.966,61.604,102.57,61.354z"/>
		<path fill="#898989" d="M107.995,55.542v0.688c0.021,0.75-0.229,1.292-0.75,1.625l-0.219-0.188
			c0.458-0.312,0.677-0.739,0.656-1.281h-0.438v-0.844H107.995z M109.245,55.542v0.688c0.021,0.729-0.24,1.271-0.781,1.625
			l-0.188-0.188c0.438-0.333,0.646-0.76,0.625-1.281h-0.438v-0.844H109.245z"/>
	</g>
	<g>
		<path fill="#C9CACA" d="M79.316,71.215v-1c25.139,0,47.136-9.832,52.306-23.377l0.934,0.355
			C127.244,61.114,104.854,71.215,79.316,71.215z"/>
	</g>
</g>
</svg>
