<?xml version="1.0" encoding="utf-8"?>
<!-- Generator: Adobe Illustrator 19.0.0, SVG Export Plug-In . SVG Version: 6.00 Build 0)  -->
<svg version="1.1" id="图层_1" xmlns="http://www.w3.org/2000/svg" xmlns:xlink="http://www.w3.org/1999/xlink" x="0px" y="0px"
	 viewBox="-247 403.089 100 35.801" enable-background="new -247 403.089 100 35.801" xml:space="preserve">
<g>
	<path fill="#B3B2B3" d="M-237.695,416.454c0.013-0.003,0.029-0.003,0.039-0.011c0.027-0.022,0.051-0.047,0.075-0.071
		c0.792-0.792,1.584-1.584,2.376-2.375c0.022-0.022,0.044-0.044,0.067-0.065c0.018-0.017,0.035-0.016,0.055,0.003
		c0.02,0.019,0.04,0.039,0.059,0.058c0.789,0.789,1.579,1.579,2.368,2.368c0.102,0.102,0.104,0.08,0.004,0.181
		c-0.794,0.794-1.588,1.589-2.383,2.383c-0.022,0.022-0.045,0.043-0.069,0.063c-0.009,0.008-0.03,0.008-0.039,0
		c-0.023-0.021-0.047-0.041-0.069-0.063c-0.24-0.24-0.481-0.48-0.721-0.721c-0.552-0.552-1.103-1.103-1.655-1.655
		c-0.022-0.022-0.044-0.045-0.068-0.064c-0.01-0.008-0.026-0.007-0.039-0.01C-237.695,416.468-237.695,416.461-237.695,416.454z"/>
	<g>
		<path fill="#B3B2B3" d="M-186.279,417.828c0.049-0.027,0.09-0.064,0.13-0.102c0.081-0.077,0.171-0.141,0.261-0.206
			c0.2-0.145,0.417-0.261,0.642-0.362c0.18-0.081,0.367-0.147,0.559-0.194c0.121-0.029,0.241-0.062,0.366-0.074
			c0.077-0.025,0.158-0.015,0.236-0.035c0.036-0.009,0.076-0.004,0.114-0.006c0.048-0.002,0.097,0,0.145-0.013
			c0.016-0.005,0.034-0.004,0.052-0.004c0.08,0,0.16,0,0.239,0c0.014,0,0.028-0.001,0.041,0.002
			c0.058,0.016,0.117,0.013,0.176,0.015c0.055,0.002,0.111-0.001,0.165,0.016c0.013,0.004,0.027,0.003,0.041,0.004
			c0.042,0.002,0.083,0.002,0.123,0.017c0.09,0.005,0.178,0.026,0.266,0.045c0.067,0.015,0.135,0.028,0.202,0.046
			c0.141,0.037,0.278,0.085,0.414,0.138c0.116,0.046,0.229,0.1,0.338,0.159c0.125,0.068,0.244,0.146,0.359,0.229
			c0.178,0.128,0.334,0.282,0.481,0.443c0.065,0.071,0.124,0.149,0.182,0.227c0.154,0.206,0.277,0.431,0.384,0.665
			c0.049,0.107,0.095,0.216,0.13,0.328c0.053,0.168,0.108,0.336,0.142,0.51c0.021,0.108,0.045,0.217,0.069,0.325
			c0.002,0.01,0.006,0.02,0.006,0.03c0,0.077,0.029,0.15,0.025,0.227c0.023,0.092,0.018,0.186,0.022,0.279
			c0,0.007,0,0.014,0.001,0.021c0.022,0.092,0.016,0.186,0.017,0.28c0.002,0.166,0.003,0.333,0.003,0.499c0,2.345,0,4.69,0,7.034
			c0,0.045-0.001,0.09-0.002,0.135c-0.015,0.01-0.033,0.01-0.05,0.01c-1.195-0.001-2.391,0.003-3.586-0.002
			c-0.037-0.025-0.035-0.065-0.038-0.103c-0.003-0.045-0.001-0.09-0.001-0.135c0-2.247,0-4.495,0-6.742
			c0-0.164-0.017-0.325-0.06-0.484c-0.135-0.501-0.608-0.878-1.128-0.901c-0.271-0.012-0.534,0.015-0.777,0.148
			c-0.407,0.223-0.64,0.559-0.681,1.027c-0.015,0.177-0.018,0.353-0.018,0.53c0,2.161,0,4.321-0.001,6.482
			c0,0.065,0.015,0.133-0.032,0.19c-1.18,0-2.359,0-3.539,0c0-0.045,0.001-0.09,0.001-0.135c0-4.95,0-9.9,0-14.85
			c0-0.049,0.002-0.097,0.002-0.146c0.031-0.023,0.067-0.012,0.101-0.012c1.12-0.001,2.24,0,3.36-0.003
			c0.088,0,0.108,0.026,0.108,0.11c-0.002,1.404-0.002,2.809-0.001,4.213C-186.29,417.746-186.302,417.789-186.279,417.828z"/>
		<path fill="#B3B2B3" d="M-216.442,428.507c-0.049-0.001-0.097-0.001-0.146-0.002c-0.038-0.001-0.076-0.002-0.114-0.01
			c-0.034-0.007-0.069-0.006-0.103-0.007c-0.069-0.003-0.139,0.001-0.207-0.017c-0.023-0.006-0.048-0.003-0.072-0.005
			c-0.031-0.003-0.062-0.008-0.092-0.012c-0.014-0.002-0.027-0.007-0.041-0.007c-0.06,0.002-0.117-0.016-0.174-0.027
			c-0.242-0.045-0.478-0.116-0.705-0.212c-0.153-0.065-0.302-0.141-0.441-0.232c-0.202-0.131-0.379-0.292-0.538-0.472
			c-0.108-0.122-0.202-0.255-0.283-0.397c-0.045-0.078-0.091-0.156-0.128-0.238c-0.038-0.086-0.075-0.171-0.109-0.258
			c-0.072-0.184-0.125-0.374-0.168-0.567c-0.021-0.094-0.042-0.189-0.053-0.285c-0.008-0.069-0.022-0.136-0.033-0.205
			c-0.003-0.02-0.004-0.041-0.005-0.062c-0.002-0.042-0.003-0.083-0.014-0.124c-0.006-0.023-0.005-0.048-0.006-0.072
			c-0.002-0.049-0.002-0.097-0.003-0.146c-0.001-0.021,0.002-0.042-0.003-0.062c-0.019-0.082-0.014-0.166-0.015-0.249
			c-0.001-0.125,0-0.25,0.001-0.375c0-0.038,0-0.076,0.01-0.114c0.005-0.02,0.005-0.041,0.005-0.062c0.001-0.024,0-0.049,0-0.073
			c0-1.297,0-2.595,0-3.892c0-0.031,0-0.062-0.002-0.094c-0.001-0.027-0.02-0.046-0.046-0.047c-0.031-0.001-0.062-0.002-0.094-0.002
			c-0.291,0-0.583,0-0.874,0c-0.031,0-0.062-0.001-0.094-0.002c-0.018-0.001-0.033-0.015-0.034-0.033
			c-0.001-0.024-0.002-0.048-0.002-0.073c0-0.871,0-1.741,0-2.612c0-0.028,0.002-0.055,0.004-0.083
			c0.001-0.012,0.015-0.026,0.028-0.027c0.031-0.002,0.062-0.004,0.093-0.004c0.295,0,0.59,0,0.885,0
			c0.031,0,0.062-0.001,0.094-0.003c0.019-0.001,0.039-0.022,0.04-0.042c0.002-0.028,0.002-0.055,0.002-0.083
			c0-0.16,0-0.319,0-0.479c0-0.839,0-1.679,0-2.518c0-0.035,0-0.069,0.002-0.104c0.001-0.021,0.018-0.037,0.041-0.038
			c0.028-0.001,0.055-0.001,0.083-0.001c1.138,0,2.276,0,3.413,0c0.024,0,0.049,0,0.073,0.001c0.038,0.001,0.052,0.013,0.053,0.048
			c0.001,0.031,0.001,0.062,0.001,0.094c0,0.996,0.001,1.991,0.001,2.987c0,0.035,0.001,0.069,0.002,0.104
			c0.001,0.017,0.016,0.032,0.034,0.033c0.035,0.001,0.069,0.002,0.104,0.002c0.496,0,0.992,0,1.488,0c0.024,0,0.049,0,0.073,0
			c0.086-0.001,0.091,0.004,0.09,0.096c0,0.014,0,0.028,0,0.042c0,0.853,0,1.707,0,2.56c0,0.031,0,0.062-0.001,0.094
			c-0.001,0.024-0.016,0.04-0.038,0.041c-0.028,0.001-0.055,0.001-0.083,0.001c-0.177,0-0.354,0-0.531,0c-0.333,0-0.666,0-0.999,0
			c-0.031,0-0.062,0-0.094,0.001c-0.029,0.001-0.043,0.015-0.044,0.046c-0.001,0.035-0.001,0.069-0.001,0.104
			c0,0.892,0,1.783,0,2.674c0,0.447-0.001,0.895-0.002,1.342c0,0.087,0,0.173,0.002,0.26c0.001,0.059-0.002,0.118,0.014,0.176
			c0.006,0.023,0.004,0.048,0.005,0.072c0.004,0.08,0.022,0.158,0.046,0.233c0.021,0.063,0.055,0.119,0.105,0.165
			c0.026,0.024,0.053,0.044,0.085,0.06c0.082,0.039,0.169,0.062,0.26,0.068c0.041,0.003,0.083,0.002,0.125,0.004
			c0.021,0.001,0.043-0.002,0.062,0.003c0.058,0.015,0.117,0.012,0.176,0.012c0.298,0,0.597,0,0.895,0.001
			c0.014,0,0.028,0.001,0.042,0.002c0.016,0.001,0.031,0.017,0.032,0.035c0.001,0.024,0.002,0.048,0.002,0.073
			c0,0.961,0,1.922,0,2.883c0,0.038,0.004,0.077-0.018,0.111c-0.122,0.023-0.245,0.004-0.368,0.011
			c-0.044,0.003-0.089-0.011-0.131,0.01c-0.201,0-0.402,0-0.604,0c-0.208-0.025-0.416-0.004-0.624-0.011
			C-216.22,428.511-216.332,428.529-216.442,428.507z"/>
		<path fill="#B3B2B3" d="M-165.423,416.953c0.01-0.01,0.023-0.016,0.037-0.016c0.028,0,0.055-0.001,0.083-0.001
			c1.145,0,2.289,0,3.434,0c0.035,0,0.069,0.002,0.104,0.004c0.012,0.001,0.026,0.015,0.027,0.028
			c0.002,0.028,0.003,0.055,0.003,0.083c0,0.219,0,0.437,0,0.656c0,0.031,0.001,0.062,0.002,0.093c0,0.006,0.006,0.013,0.011,0.016
			c0.005,0.003,0.014,0.003,0.019,0.001c0.011-0.007,0.022-0.017,0.032-0.026c0.037-0.036,0.074-0.074,0.111-0.11
			c0.138-0.132,0.291-0.245,0.454-0.345c0.127-0.078,0.262-0.143,0.396-0.207c0.056-0.027,0.115-0.048,0.173-0.07
			c0.175-0.066,0.355-0.119,0.538-0.158c0.098-0.021,0.195-0.047,0.296-0.051c0.067-0.019,0.138-0.012,0.206-0.023
			c0.145-0.024,0.29-0.015,0.436-0.018c0.055-0.001,0.111,0.001,0.166,0.002c0.052,0.001,0.104-0.002,0.155,0.014
			c0.006,0.002,0.014,0.003,0.021,0.003c0.087-0.005,0.172,0.018,0.258,0.025c0.055,0.005,0.11,0.015,0.164,0.026
			c0.17,0.033,0.337,0.077,0.503,0.126c0.126,0.038,0.249,0.087,0.368,0.141c0.104,0.047,0.207,0.099,0.307,0.154
			c0.103,0.057,0.202,0.121,0.296,0.192c0.116,0.088,0.229,0.18,0.33,0.285c0.062,0.065,0.12,0.134,0.173,0.207
			c0.004,0.005,0.01,0.009,0.016,0.013c0,0.007,0,0.014,0,0.021c-0.018,0.057-0.051,0.104-0.094,0.146
			c-0.844,0.843-1.688,1.687-2.532,2.531c-0.117,0.116-0.141,0.118-0.248-0.006c-0.166-0.192-0.356-0.349-0.587-0.455
			c-0.312-0.144-0.626-0.138-0.935,0.005c-0.222,0.103-0.361,0.287-0.452,0.509c-0.085,0.208-0.131,0.424-0.139,0.648
			c-0.048,1.429-0.011,2.858-0.02,4.287c-0.005,0.707-0.036,1.414-0.022,2.122c0.001,0.042-0.002,0.083-0.011,0.124
			c-0.02,0.152-0.004,0.305-0.009,0.457c-0.004,0.128-0.008,0.133-0.137,0.133c-1.273,0-2.545,0-3.818,0
			c-0.122,0-0.123,0-0.123-0.123c0-3.776,0-7.552,0-11.328C-165.432,417.028-165.441,416.989-165.423,416.953z"/>
		<path fill="#BEBDBD" d="M-161.363,427.903c0,0.208,0,0.416,0,0.625c-1.36,0-2.72,0-4.08,0c0-1.245,0-2.49,0-3.735
			c0-2.567,0-5.133,0.001-7.7c0-0.035,0-0.069,0.001-0.104c0-0.015,0.007-0.026,0.018-0.036c0,0.049,0.001,0.097,0.001,0.146
			c0,3.736,0,7.473,0,11.209c0,0.045,0,0.09,0,0.135c0.001,0.051,0.012,0.063,0.059,0.064c0.024,0.001,0.049,0,0.073,0
			c1.259,0,2.519,0,3.778,0c0.031,0,0.062-0.001,0.093-0.003c0.017-0.001,0.032-0.017,0.032-0.035
			c0.001-0.028,0.002-0.055,0.002-0.083c0-0.132,0-0.264,0-0.395c0-0.021,0-0.042,0.004-0.062
			C-161.378,427.919-161.369,427.912-161.363,427.903z"/>
		<path fill="#BEBDBD" d="M-183.595,428.528c0-0.007,0-0.014,0-0.021c1.214,0,2.429,0,3.643,0c0,0.007,0,0.014,0,0.021
			C-181.166,428.528-182.38,428.528-183.595,428.528z"/>
		<path fill="#C3C4C5" d="M-173.145,428.528c-0.009-0.01-0.02-0.017-0.034-0.018c-0.043-0.002-0.087-0.003-0.13-0.004
			c-0.017-0.001-0.033-0.006-0.046-0.017c0.067-0.055,0.146-0.038,0.219-0.03c0.21,0.022,0.419,0.02,0.63,0.001
			c0.093-0.008,0.193-0.033,0.281,0.029c-0.013,0.012-0.029,0.017-0.046,0.017c-0.054,0.001-0.108,0.002-0.162,0.004
			c-0.017,0-0.033,0.005-0.045,0.019C-172.701,428.528-172.923,428.528-173.145,428.528z"/>
		<path fill="#C6C7C8" d="M-195.082,428.488c-0.013,0.012-0.029,0.017-0.046,0.017c-0.044,0.001-0.087,0.003-0.131,0.004
			c-0.014,0.001-0.025,0.008-0.034,0.018c-0.215,0-0.43,0-0.645,0c-0.009-0.01-0.02-0.017-0.034-0.018
			c-0.043-0.002-0.087-0.003-0.13-0.004c-0.017-0.001-0.033-0.006-0.046-0.017c0.07-0.056,0.152-0.037,0.229-0.029
			c0.197,0.021,0.392,0.02,0.589,0C-195.249,428.451-195.159,428.429-195.082,428.488z"/>
		<path fill="#C3C4C5" d="M-207.052,428.488c-0.016,0.015-0.036,0.017-0.056,0.018c-0.05,0.001-0.101,0.002-0.151,0.003
			c-0.017,0-0.033,0.005-0.045,0.019c-0.201,0-0.402,0-0.604,0c-0.006-0.014-0.002-0.026,0.011-0.034
			c0.022-0.012,0.045-0.018,0.069-0.017c0.214,0.005,0.427-0.015,0.64-0.022C-207.14,428.453-207.09,428.448-207.052,428.488z"/>
		<path fill="#D0D3D4" d="M-216.109,428.506c0.183,0,0.365,0,0.548,0.001c0.017,0,0.035,0,0.051,0.004
			c0.009,0.002,0.017,0.011,0.025,0.017c-0.208,0-0.416,0-0.624,0c-0.007-0.005-0.009-0.01-0.007-0.014
			C-216.113,428.509-216.111,428.506-216.109,428.506z"/>
		<path fill="#CDCFD0" d="M-214.881,428.528c0.008-0.006,0.016-0.015,0.025-0.017c0.017-0.004,0.034-0.004,0.051-0.004
			c0.141,0,0.282,0,0.423,0c0,0.007,0,0.014,0.001,0.021C-214.548,428.528-214.714,428.528-214.881,428.528z"/>
		<path fill="#E5EBEB" d="M-216.109,428.506c0,0.007,0,0.014-0.001,0.021c-0.111,0-0.222,0-0.333,0c0-0.007,0-0.014,0-0.021
			C-216.331,428.507-216.22,428.507-216.109,428.506z"/>
		<path fill="#DDE1E2" d="M-207.908,428.507c0,0.007,0,0.014,0,0.021c-0.042,0-0.083,0-0.125,0c0-0.007,0-0.014,0-0.021
			C-207.991,428.473-207.949,428.473-207.908,428.507z"/>
		<path fill="#1DA3D1" d="M-222.831,425.93c-0.003,0.006-0.004,0.014-0.008,0.018c-0.019,0.02-0.038,0.04-0.058,0.06
			c-0.797,0.797-1.594,1.594-2.392,2.391c-0.022,0.022-0.045,0.043-0.068,0.064c-0.009,0.009-0.028,0.008-0.038-0.002
			c-0.028-0.026-0.055-0.053-0.082-0.079c-0.5-0.5-1.001-1.001-1.501-1.501c-1.033-1.033-2.065-2.066-3.098-3.098
			c-0.123-0.122-0.09-0.122-0.21-0.002c-1.543,1.543-3.086,3.086-4.629,4.628c-0.032,0.032-0.065,0.063-0.098,0.093
			c-0.003,0.003-0.015,0.003-0.018,0c-0.024-0.02-0.047-0.041-0.069-0.063c-0.307-0.306-0.613-0.613-0.92-0.92
			c-0.491-0.491-0.981-0.981-1.472-1.472c-0.022-0.022-0.044-0.044-0.065-0.067c-0.013-0.014-0.013-0.03,0.002-0.046
			c0.024-0.025,0.048-0.05,0.073-0.074c1.545-1.545,3.091-3.09,4.636-4.636c0.858-0.859,1.715-1.719,2.574-2.577
			c1.472-1.472,2.945-2.942,4.417-4.413c0.12-0.12,0.24-0.24,0.361-0.361c0.017-0.017,0.035-0.034,0.052-0.051
			c0.012-0.011,0.026-0.012,0.037-0.002c0.023,0.021,0.045,0.043,0.067,0.065c0.209,0.208,0.417,0.417,0.625,0.626
			c0.584,0.584,1.168,1.168,1.751,1.751c0.02,0.02,0.039,0.039,0.059,0.059c0.034,0.035,0.034,0.041,0,0.075
			c-0.194,0.194-0.387,0.388-0.581,0.581c-1.352,1.352-2.703,2.703-4.055,4.055c-0.012,0.012-0.025,0.024-0.037,0.037
			c-0.046,0.047-0.047,0.048,0.004,0.098c0.397,0.397,0.795,0.795,1.192,1.192c1.158,1.158,2.316,2.316,3.474,3.474
			c0.024,0.024,0.048,0.05,0.071,0.076C-222.832,425.915-222.832,425.924-222.831,425.93z"/>
		<path fill="#B3B2B3" d="M-195.082,428.488c-0.076-0.001-0.153-0.001-0.229-0.002c-0.014,0-0.029-0.001-0.041,0.003
			c-0.057,0.023-0.116,0.016-0.175,0.017c-0.087,0.001-0.173,0-0.26,0c-0.021,0-0.043,0.003-0.062-0.003
			c-0.061-0.022-0.123-0.016-0.185-0.017c-0.038,0-0.076,0.001-0.114,0.002c-0.073-0.001-0.146,0.001-0.217-0.018
			c-0.02-0.005-0.041-0.003-0.062-0.004c-0.035-0.001-0.069-0.002-0.103-0.013c-0.013-0.004-0.027-0.005-0.041-0.007
			c-0.11-0.01-0.219-0.032-0.327-0.054c-0.085-0.017-0.17-0.034-0.254-0.054c-0.077-0.019-0.154-0.041-0.23-0.065
			c-0.106-0.033-0.211-0.068-0.315-0.106c-0.091-0.034-0.18-0.072-0.268-0.112c-0.098-0.045-0.194-0.093-0.289-0.144
			c-0.134-0.073-0.266-0.149-0.388-0.241c-0.053-0.04-0.107-0.077-0.16-0.116c-0.075-0.056-0.148-0.115-0.215-0.18
			c-0.104-0.102-0.206-0.206-0.31-0.308c-0.057-0.056-0.105-0.12-0.155-0.182c-0.094-0.116-0.182-0.236-0.262-0.362
			c-0.07-0.112-0.138-0.224-0.2-0.341c-0.112-0.212-0.21-0.43-0.293-0.654c-0.051-0.14-0.098-0.281-0.139-0.424
			c-0.039-0.137-0.075-0.274-0.106-0.412c-0.023-0.101-0.044-0.202-0.06-0.305c-0.016-0.102-0.039-0.204-0.052-0.307
			c-0.01-0.082-0.028-0.164-0.03-0.247c-0.001-0.045-0.013-0.089-0.017-0.134c-0.004-0.045,0.001-0.091-0.008-0.135
			c-0.014-0.069-0.014-0.138-0.016-0.207c-0.001-0.045-0.001-0.09-0.013-0.134c-0.006-0.023-0.005-0.048-0.005-0.072
			c0-0.336-0.001-0.673-0.001-1.009c0-0.017-0.002-0.035,0.002-0.052c0.02-0.085,0.014-0.172,0.017-0.259
			c0.002-0.042,0.001-0.083,0.012-0.124c0.006-0.023,0.005-0.048,0.006-0.072c0.003-0.055,0.001-0.111,0.017-0.165
			c0.006-0.02,0.004-0.041,0.005-0.062c0.002-0.038,0.001-0.076,0.014-0.113c0.004-0.013,0.005-0.027,0.006-0.041
			c0.005-0.087,0.022-0.171,0.036-0.257c0.01-0.058,0.016-0.116,0.027-0.174c0.039-0.207,0.081-0.414,0.137-0.618
			c0.068-0.247,0.149-0.49,0.246-0.728c0.048-0.115,0.097-0.23,0.153-0.341c0.109-0.213,0.231-0.419,0.371-0.613
			c0.065-0.09,0.136-0.174,0.207-0.26c0.106-0.129,0.226-0.245,0.346-0.359c0.083-0.078,0.173-0.149,0.264-0.218
			c0.091-0.069,0.186-0.133,0.283-0.194c0.168-0.104,0.342-0.197,0.524-0.276c0.156-0.068,0.315-0.125,0.477-0.178
			c0.151-0.05,0.305-0.09,0.461-0.123c0.101-0.021,0.203-0.042,0.305-0.059c0.072-0.012,0.145-0.012,0.216-0.028
			c0.095-0.022,0.193-0.011,0.289-0.033c0.04-0.009,0.083-0.004,0.124-0.006c0.076-0.003,0.152,0.003,0.228-0.015
			c0.023-0.006,0.048-0.003,0.073-0.003c0.132,0,0.264-0.001,0.395,0c0.042,0,0.083,0.001,0.124,0.011
			c0.023,0.006,0.048,0.004,0.072,0.005c0.055,0.001,0.111,0.002,0.166,0.003c0.045,0.001,0.09-0.001,0.134,0.014
			c0.006,0.002,0.014,0.003,0.021,0.003c0.091-0.004,0.179,0.02,0.269,0.025c0.024,0.001,0.048,0.007,0.072,0.01
			c0.014,0.002,0.027,0.007,0.041,0.008c0.076,0.004,0.15,0.026,0.225,0.036c0.124,0.016,0.244,0.049,0.366,0.073
			c0.088,0.018,0.174,0.045,0.261,0.069c0.2,0.056,0.397,0.123,0.59,0.201c0.167,0.067,0.331,0.143,0.491,0.226
			c0.154,0.08,0.302,0.17,0.446,0.267c0.118,0.079,0.231,0.165,0.342,0.254c0.114,0.092,0.214,0.197,0.316,0.301
			c0.016,0.016,0.016,0.03,0.002,0.045c-0.007,0.008-0.014,0.015-0.022,0.023c-0.022,0.022-0.045,0.044-0.067,0.065
			c-0.082,0.08-0.163,0.161-0.246,0.24c-0.06,0.057-0.123,0.112-0.183,0.169c-0.068,0.064-0.134,0.131-0.201,0.196
			c-0.035,0.034-0.068,0.069-0.108,0.097c-0.02,0.014-0.036,0.033-0.053,0.049c-0.082,0.08-0.164,0.16-0.246,0.24
			c-0.047,0.046-0.092,0.094-0.146,0.133c-0.022,0.016-0.04,0.038-0.06,0.057c-0.072,0.07-0.143,0.141-0.216,0.211
			c-0.045,0.043-0.087,0.089-0.139,0.126c-0.02,0.014-0.036,0.033-0.053,0.05c-0.084,0.082-0.168,0.165-0.253,0.247
			c-0.042,0.041-0.083,0.083-0.131,0.119c-0.03,0.023-0.056,0.052-0.083,0.079c-0.07,0.068-0.139,0.136-0.209,0.203
			c-0.01,0.01-0.02,0.02-0.032,0.025c-0.008,0.004-0.022,0.003-0.028-0.002c-0.019-0.015-0.036-0.033-0.053-0.05
			c-0.154-0.158-0.333-0.282-0.533-0.374c-0.116-0.054-0.238-0.096-0.363-0.124c-0.115-0.026-0.23-0.048-0.349-0.047
			c-0.027,0-0.055-0.004-0.082-0.009c-0.035-0.007-0.068-0.006-0.103,0.001c-0.024,0.005-0.048,0.007-0.072,0.008
			c-0.073,0.002-0.145,0.009-0.217,0.02c-0.115,0.018-0.222,0.057-0.321,0.115c-0.12,0.071-0.232,0.153-0.325,0.257
			c-0.08,0.091-0.157,0.185-0.221,0.288c-0.042,0.067-0.081,0.138-0.117,0.208c-0.088,0.173-0.159,0.353-0.211,0.541
			c-0.036,0.127-0.06,0.256-0.09,0.384c-0.002,0.076-0.027,0.15-0.027,0.227c0,0.01,0.001,0.021-0.002,0.031
			c-0.022,0.082-0.017,0.165-0.018,0.248c-0.001,0.16,0.001,0.319,0.002,0.479c0,0.003,0,0.007,0,0.01
			c0.006,0.052,0.012,0.103,0.017,0.155c0.005,0.052-0.001,0.104,0.015,0.155c0.003,0.01,0.004,0.02,0.005,0.031
			c0.011,0.17,0.05,0.335,0.09,0.5c0.043,0.175,0.104,0.345,0.18,0.509c0.067,0.145,0.155,0.278,0.249,0.408
			c0.035,0.047,0.075,0.09,0.114,0.135c0.011,0.013,0.023,0.026,0.037,0.037c0.061,0.046,0.115,0.1,0.175,0.146
			c0.131,0.1,0.277,0.17,0.433,0.219c0.089,0.028,0.181,0.047,0.275,0.046c0.087-0.001,0.174,0.001,0.26-0.003
			c0.093-0.004,0.185-0.025,0.276-0.046c0.176-0.042,0.344-0.108,0.501-0.198c0.12-0.069,0.236-0.145,0.332-0.248
			c0.036-0.038,0.073-0.074,0.109-0.111c0.012-0.013,0.024-0.014,0.037-0.005c0.037,0.026,0.071,0.055,0.103,0.087
			c0.116,0.115,0.232,0.229,0.349,0.343c0.03,0.029,0.062,0.055,0.093,0.083c0.021,0.019,0.041,0.037,0.061,0.057
			c0.097,0.095,0.193,0.19,0.29,0.284c0.045,0.044,0.087,0.089,0.138,0.126c0.022,0.016,0.041,0.038,0.06,0.057
			c0.097,0.095,0.193,0.19,0.29,0.284c0.05,0.048,0.097,0.099,0.153,0.14c0.019,0.014,0.035,0.033,0.053,0.05
			c0.092,0.09,0.183,0.18,0.275,0.27c0.057,0.055,0.112,0.113,0.175,0.162c0.038,0.03,0.07,0.067,0.105,0.101
			c0.092,0.09,0.183,0.18,0.275,0.27c0.012,0.012,0.024,0.025,0.035,0.038c0.007,0.008,0.008,0.019,0.003,0.029
			c-0.007,0.012-0.012,0.026-0.021,0.036c-0.06,0.063-0.108,0.135-0.172,0.195c-0.081,0.075-0.165,0.147-0.25,0.218
			c-0.12,0.1-0.249,0.188-0.38,0.271c-0.07,0.044-0.143,0.085-0.215,0.126c-0.054,0.031-0.108,0.062-0.164,0.089
			c-0.122,0.058-0.245,0.115-0.371,0.164c-0.097,0.038-0.194,0.074-0.292,0.108c-0.15,0.052-0.304,0.095-0.459,0.133
			c-0.138,0.034-0.277,0.063-0.416,0.089c-0.085,0.016-0.17,0.033-0.256,0.041c-0.09,0.008-0.178,0.032-0.268,0.028
			c-0.014-0.001-0.028-0.001-0.041,0.003C-194.909,428.492-194.996,428.485-195.082,428.488z"/>
		<path fill="#B3B2B3" d="M-167.403,422.969c0-0.021,0.002-0.043-0.003-0.062c-0.014-0.051-0.011-0.103-0.012-0.155
			c-0.002-0.125-0.002-0.25-0.004-0.375c-0.001-0.052,0.001-0.104-0.013-0.155c-0.006-0.023-0.004-0.048-0.004-0.072
			c-0.002-0.076-0.003-0.153-0.004-0.229c0-0.021,0.002-0.042-0.003-0.062c-0.019-0.079-0.013-0.159-0.017-0.238
			c-0.002-0.031,0.001-0.063-0.007-0.093c-0.011-0.045-0.011-0.089-0.013-0.134c-0.001-0.031,0.003-0.064-0.004-0.093
			c-0.024-0.088-0.016-0.179-0.034-0.268c-0.02-0.098-0.031-0.198-0.053-0.296c-0.031-0.135-0.065-0.269-0.105-0.402
			c-0.07-0.233-0.155-0.46-0.263-0.678c-0.077-0.156-0.156-0.31-0.234-0.465c-0.006-0.012-0.012-0.025-0.019-0.037
			c-0.123-0.209-0.251-0.415-0.398-0.609c-0.086-0.113-0.175-0.224-0.275-0.325c-0.051-0.052-0.103-0.103-0.153-0.156
			c-0.142-0.147-0.3-0.278-0.464-0.4c-0.2-0.15-0.414-0.279-0.635-0.394c-0.064-0.034-0.133-0.06-0.198-0.092
			c-0.137-0.067-0.281-0.118-0.424-0.169c-0.16-0.057-0.324-0.1-0.489-0.141c-0.141-0.035-0.283-0.064-0.427-0.087
			c-0.051-0.008-0.103-0.012-0.154-0.023c-0.041-0.009-0.082-0.014-0.123-0.016c-0.017-0.001-0.035-0.001-0.051-0.006
			c-0.041-0.013-0.082-0.012-0.124-0.014c-0.035-0.002-0.07,0-0.103-0.008c-0.045-0.01-0.089-0.011-0.134-0.013
			c-0.083-0.003-0.167,0.003-0.249-0.016c-0.01-0.002-0.021-0.002-0.031-0.002c-0.08,0-0.16-0.001-0.239-0.001
			c-0.017,0-0.035-0.001-0.052,0.004c-0.051,0.015-0.103,0.012-0.155,0.014c-0.038,0.002-0.077-0.001-0.114,0.007
			c-0.045,0.01-0.089,0.012-0.134,0.015c-0.024,0.001-0.048,0.006-0.072,0.009c-0.027,0.004-0.055,0.008-0.082,0.011
			c-0.021,0.002-0.043,0-0.062,0.006c-0.067,0.021-0.138,0.011-0.204,0.035c-0.114,0.012-0.225,0.038-0.336,0.064
			c-0.199,0.046-0.396,0.098-0.59,0.164c-0.145,0.049-0.287,0.102-0.427,0.162c-0.153,0.066-0.303,0.139-0.448,0.22
			c-0.166,0.093-0.328,0.194-0.48,0.31c-0.11,0.084-0.219,0.17-0.319,0.266c-0.035,0.034-0.07,0.067-0.108,0.097
			c-0.038,0.03-0.069,0.068-0.102,0.103c-0.021,0.023-0.039,0.049-0.061,0.071c-0.086,0.086-0.161,0.181-0.236,0.277
			c-0.149,0.192-0.283,0.394-0.399,0.607c-0.097,0.176-0.185,0.357-0.26,0.544c-0.089,0.222-0.164,0.449-0.228,0.679
			c-0.016,0.057-0.034,0.113-0.047,0.17c-0.026,0.118-0.047,0.237-0.074,0.355c-0.033,0.142-0.052,0.286-0.072,0.429
			c-0.012,0.082-0.03,0.164-0.027,0.248c0,0.007,0,0.014-0.002,0.021c-0.017,0.054-0.015,0.11-0.017,0.165
			c-0.001,0.021,0.001,0.042-0.004,0.062c-0.017,0.061-0.013,0.124-0.015,0.186c-0.002,0.045,0.001,0.091-0.007,0.135
			c-0.008,0.045-0.011,0.089-0.011,0.134c-0.001,0.229-0.001,0.458-0.001,0.687c0,0.076-0.004,0.153,0.015,0.228
			c0.005,0.02,0.002,0.041,0.003,0.062c0.001,0.049,0.002,0.097,0.003,0.146c0.001,0.024-0.001,0.049,0.005,0.072
			c0.012,0.044,0.012,0.089,0.014,0.134c0.001,0.024-0.001,0.049,0.006,0.072c0.012,0.044,0.013,0.089,0.016,0.134
			c0.001,0.021,0.003,0.041,0.007,0.062c0.01,0.068,0.026,0.136,0.031,0.205c0.005,0.066,0.027,0.129,0.028,0.195
			c0.029,0.139,0.056,0.278,0.089,0.416c0.038,0.162,0.084,0.321,0.136,0.479c0.066,0.201,0.135,0.401,0.223,0.593
			c0.106,0.23,0.222,0.455,0.358,0.669c0.14,0.22,0.302,0.423,0.473,0.618c0.102,0.116,0.309,0.313,0.437,0.415
			c0.109,0.086,0.218,0.171,0.334,0.247c0.061,0.04,0.124,0.077,0.185,0.116c0.111,0.071,0.229,0.131,0.347,0.189
			c0.127,0.063,0.258,0.119,0.392,0.167c0.143,0.052,0.287,0.102,0.435,0.141c0.127,0.034,0.254,0.067,0.384,0.091
			c0.105,0.02,0.21,0.045,0.317,0.052c0.014,0.001,0.028,0.002,0.041,0.007c0.034,0.011,0.068,0.012,0.103,0.013
			c0.021,0.001,0.042-0.001,0.062,0.004c0.071,0.019,0.144,0.017,0.217,0.018c0.069-0.001,0.139-0.001,0.208-0.001
			c0.017,0,0.036,0,0.051,0.006c0.04,0.016,0.082,0.014,0.123,0.014c0.104,0,0.208,0,0.312,0c0.038,0,0.076,0.001,0.113-0.014
			c0.015-0.006,0.034-0.006,0.051-0.006c0.09,0,0.18,0.001,0.27,0.001c0.093-0.003,0.187,0.005,0.279-0.019
			c0.097,0.001,0.193-0.015,0.289-0.024c0.021-0.002,0.043,0.001,0.062-0.004c0.077-0.022,0.159-0.011,0.236-0.036
			c0.108-0.003,0.212-0.034,0.318-0.05c0.133-0.021,0.265-0.051,0.396-0.082c0.178-0.043,0.355-0.092,0.53-0.148
			c0.115-0.037,0.23-0.077,0.343-0.121c0.213-0.083,0.424-0.172,0.627-0.279c0.156-0.083,0.31-0.17,0.457-0.267
			c0.121-0.08,0.24-0.165,0.353-0.257c0.075-0.061,0.152-0.121,0.219-0.192c0.05-0.053,0.102-0.104,0.154-0.155
			c0.058-0.056,0.102-0.122,0.154-0.182c0.009-0.01,0.009-0.029,0-0.039c-0.019-0.02-0.038-0.04-0.057-0.06
			c-0.181-0.182-0.363-0.364-0.544-0.545c-0.503-0.503-1.005-1.006-1.508-1.509c-0.02-0.02-0.04-0.039-0.06-0.058
			c-0.014-0.013-0.033-0.012-0.046,0.001c-0.01,0.01-0.019,0.02-0.028,0.031c-0.122,0.156-0.258,0.276-0.39,0.371
			c-0.147,0.105-0.301,0.196-0.468,0.268c-0.162,0.07-0.328,0.131-0.499,0.176c-0.245,0.063-0.305,0.073-0.529,0.099
			c-0.01,0.001-0.021,0.002-0.031,0.005c-0.037,0.012-0.075,0.011-0.113,0.013c-0.066,0.003-0.132-0.001-0.197,0.016
			c-0.016,0.004-0.035,0.002-0.052,0.002c-0.08,0-0.16,0.006-0.238-0.013c-0.01-0.002-0.021-0.002-0.031-0.002
			c-0.087-0.003-0.172-0.007-0.259-0.02c-0.092-0.014-0.185-0.027-0.276-0.048c-0.17-0.039-0.331-0.101-0.481-0.19
			c-0.173-0.102-0.317-0.233-0.431-0.399c-0.071-0.104-0.129-0.213-0.175-0.33c-0.066-0.169-0.11-0.342-0.132-0.522
			c-0.003-0.021-0.008-0.041-0.011-0.061c-0.002-0.014-0.004-0.027-0.005-0.041c-0.001-0.017,0.014-0.034,0.031-0.034
			c0.038-0.001,0.076-0.002,0.114-0.002c2.217,0,4.433,0,6.65,0c0.035,0,0.069,0,0.104,0c0.014,0,0.028-0.002,0.041-0.004
			c0.012-0.001,0.025-0.015,0.026-0.028c0.001-0.017,0.003-0.035,0.003-0.052C-167.4,423.455-167.402,423.212-167.403,422.969z
			 M-171.109,421.377c-0.001,0.013-0.015,0.027-0.027,0.027c-0.035,0.002-0.069,0.003-0.104,0.003c-0.52,0-1.04,0-1.561,0
			c-0.513,0-1.026,0-1.54,0c-0.035,0-0.069-0.001-0.104-0.003c-0.017-0.001-0.032-0.019-0.027-0.037
			c0.013-0.051,0.012-0.103,0.012-0.155c0-0.101,0.019-0.199,0.037-0.298c0.032-0.172,0.091-0.334,0.173-0.487
			c0.043-0.08,0.092-0.155,0.151-0.224c0.014-0.016,0.026-0.033,0.039-0.049c0.013-0.016,0.026-0.033,0.041-0.046
			c0.145-0.131,0.302-0.242,0.486-0.312c0.124-0.047,0.251-0.075,0.381-0.098c0.162-0.029,0.325-0.018,0.487-0.015
			c0.055,0.001,0.11,0.013,0.164,0.023c0.188,0.037,0.369,0.097,0.539,0.184c0.124,0.063,0.239,0.14,0.338,0.239
			c0.034,0.034,0.069,0.068,0.103,0.103c0.11,0.113,0.193,0.245,0.257,0.388c0.044,0.098,0.082,0.199,0.103,0.305
			c0.014,0.071,0.035,0.141,0.035,0.215c0,0.021,0.005,0.041,0.009,0.061C-171.103,421.26-171.104,421.319-171.109,421.377z"/>
		<path fill="#B3B2B3" d="M-202.227,422.988c0-0.021,0.001-0.042-0.004-0.062c-0.013-0.048-0.011-0.096-0.011-0.145
			c-0.002-0.139-0.003-0.277-0.005-0.416c0-0.031,0-0.063-0.006-0.093c-0.008-0.038-0.009-0.076-0.01-0.114
			c-0.001-0.076-0.003-0.153-0.004-0.229c0-0.024,0.002-0.049-0.003-0.073c-0.016-0.065-0.013-0.131-0.015-0.197
			c-0.002-0.066,0.002-0.132-0.017-0.196c-0.003-0.01-0.002-0.021-0.003-0.031c-0.003-0.08-0.001-0.159-0.02-0.238
			c-0.004-0.017-0.002-0.035-0.003-0.052c-0.001-0.014-0.001-0.028-0.004-0.041c-0.017-0.081-0.025-0.164-0.041-0.245
			c-0.03-0.156-0.066-0.312-0.111-0.464c-0.083-0.279-0.185-0.552-0.318-0.812c-0.063-0.123-0.124-0.248-0.189-0.371
			c-0.04-0.077-0.083-0.152-0.128-0.226c-0.067-0.109-0.137-0.217-0.212-0.321c-0.116-0.16-0.236-0.317-0.375-0.457
			c-0.088-0.089-0.178-0.176-0.265-0.265c-0.066-0.067-0.14-0.124-0.213-0.183c-0.118-0.096-0.244-0.183-0.373-0.265
			c-0.085-0.054-0.172-0.103-0.259-0.153c-0.078-0.045-0.158-0.087-0.24-0.124c-0.136-0.061-0.273-0.12-0.413-0.171
			c-0.137-0.05-0.275-0.094-0.416-0.132c-0.133-0.036-0.268-0.07-0.404-0.096c-0.088-0.017-0.176-0.038-0.265-0.047
			c-0.076-0.008-0.15-0.029-0.227-0.027c-0.01,0-0.021-0.001-0.031-0.005c-0.037-0.013-0.075-0.012-0.113-0.013
			c-0.042-0.002-0.083-0.003-0.124-0.014c-0.023-0.006-0.048-0.005-0.072-0.006c-0.052-0.002-0.104-0.002-0.156-0.004
			c-0.028-0.001-0.055-0.003-0.083-0.007c-0.124-0.017-0.249-0.009-0.374-0.007c-0.003,0-0.007,0.001-0.01,0.002
			c-0.047,0.015-0.096,0.012-0.144,0.014c-0.055,0.002-0.111-0.001-0.165,0.016c-0.013,0.004-0.028,0.004-0.041,0.004
			c-0.087-0.003-0.171,0.027-0.258,0.026c-0.066,0.023-0.138,0.014-0.204,0.035c-0.039,0.012-0.081,0.018-0.122,0.022
			c-0.065,0.008-0.129,0.023-0.193,0.037c-0.142,0.032-0.283,0.068-0.422,0.108c-0.146,0.043-0.291,0.091-0.433,0.145
			c-0.182,0.069-0.357,0.153-0.53,0.241c-0.117,0.06-0.23,0.128-0.341,0.199c-0.211,0.134-0.409,0.285-0.589,0.459
			c-0.012,0.012-0.025,0.025-0.039,0.034c-0.049,0.034-0.092,0.076-0.128,0.121c-0.072,0.089-0.155,0.167-0.227,0.257
			c-0.074,0.092-0.146,0.185-0.214,0.281c-0.115,0.165-0.223,0.334-0.315,0.514c-0.096,0.188-0.187,0.379-0.261,0.578
			c-0.076,0.205-0.144,0.412-0.2,0.623c-0.035,0.13-0.067,0.261-0.094,0.393c-0.016,0.074-0.034,0.149-0.044,0.224
			c-0.015,0.113-0.039,0.225-0.048,0.339c-0.001,0.014-0.002,0.028-0.007,0.041c-0.011,0.034-0.011,0.068-0.013,0.103
			c-0.001,0.021,0.001,0.042-0.004,0.062c-0.016,0.061-0.015,0.124-0.018,0.186c-0.001,0.017,0,0.035-0.004,0.052
			c-0.015,0.051-0.013,0.103-0.015,0.155c-0.003,0.086,0.003,0.173-0.017,0.259c-0.004,0.017-0.002,0.035-0.002,0.052
			c0,0.253,0,0.506,0,0.76c0,0.021-0.001,0.042,0.004,0.062c0.014,0.055,0.012,0.11,0.014,0.165
			c0.003,0.076-0.002,0.153,0.018,0.227c0.001,0.09,0.015,0.179,0.022,0.269c0.006,0.08,0.027,0.157,0.028,0.237
			c0.026,0.101,0.036,0.204,0.054,0.306c0.022,0.13,0.051,0.258,0.08,0.386c0.048,0.213,0.114,0.421,0.186,0.627
			c0.035,0.098,0.07,0.196,0.108,0.292c0.055,0.138,0.122,0.272,0.189,0.405c0.082,0.165,0.176,0.322,0.278,0.475
			c0.077,0.115,0.158,0.227,0.246,0.335c0.066,0.081,0.133,0.16,0.203,0.236c0.139,0.15,0.288,0.29,0.45,0.416
			c0.109,0.085,0.219,0.17,0.335,0.246c0.043,0.029,0.089,0.054,0.132,0.083c0.107,0.071,0.224,0.126,0.338,0.184
			c0.13,0.066,0.263,0.124,0.4,0.174c0.14,0.052,0.281,0.1,0.424,0.141c0.173,0.049,0.349,0.087,0.526,0.121
			c0.054,0.011,0.109,0.02,0.164,0.025c0.079,0.006,0.157,0.03,0.237,0.026c0.007,0,0.014,0.001,0.021,0.003
			c0.047,0.016,0.096,0.013,0.144,0.016c0.031,0.002,0.063,0.001,0.093,0.008c0.038,0.009,0.076,0.009,0.114,0.012
			c0.042,0,0.083,0,0.125,0c0.138,0,0.276,0,0.414,0c0.041,0,0.082,0.001,0.122-0.015c0.015-0.006,0.034-0.005,0.051-0.005
			c0.09,0,0.179,0.001,0.269,0.001c0.093-0.003,0.187,0.004,0.28-0.018c0.017-0.004,0.035-0.004,0.052-0.003
			c0.101,0.005,0.199-0.025,0.3-0.026c0.077-0.024,0.159-0.012,0.236-0.036c0.108-0.003,0.212-0.034,0.318-0.05
			c0.133-0.021,0.265-0.051,0.396-0.082c0.178-0.043,0.355-0.093,0.53-0.148c0.112-0.035,0.224-0.073,0.333-0.117
			c0.187-0.075,0.373-0.149,0.553-0.24c0.096-0.049,0.192-0.097,0.284-0.152c0.059-0.036,0.12-0.069,0.179-0.106
			c0.15-0.094,0.294-0.197,0.431-0.307c0.049-0.039,0.098-0.078,0.143-0.121c0.095-0.091,0.187-0.186,0.28-0.279
			c0.017-0.017,0.036-0.034,0.047-0.055c0.019-0.033,0.054-0.054,0.064-0.094c-0.012-0.043-0.052-0.063-0.078-0.094
			c-0.013-0.016-0.029-0.03-0.044-0.044c-0.336-0.336-0.672-0.672-1.008-1.008c-0.336-0.336-0.672-0.673-1.008-1.009
			c-0.012-0.012-0.025-0.024-0.038-0.036c-0.014-0.013-0.035-0.012-0.046,0.001c-0.017,0.022-0.032,0.045-0.052,0.065
			c-0.091,0.095-0.182,0.19-0.285,0.273c-0.139,0.112-0.289,0.204-0.446,0.284c-0.098,0.05-0.202,0.092-0.306,0.13
			c-0.249,0.091-0.534,0.165-0.827,0.192c-0.01,0.001-0.021,0.002-0.031,0.005c-0.034,0.011-0.068,0.011-0.103,0.013
			c-0.069,0.003-0.139-0.001-0.207,0.016c-0.016,0.004-0.035,0.002-0.052,0.002c-0.08-0.001-0.16,0.006-0.238-0.013
			c-0.01-0.002-0.021-0.002-0.031-0.002c-0.086-0.003-0.172-0.007-0.259-0.02c-0.092-0.014-0.185-0.028-0.276-0.048
			c-0.17-0.038-0.33-0.104-0.481-0.191c-0.171-0.098-0.312-0.228-0.425-0.391c-0.074-0.106-0.134-0.218-0.181-0.338
			c-0.034-0.087-0.064-0.176-0.084-0.267c-0.021-0.091-0.047-0.181-0.048-0.276c0-0.01-0.001-0.021-0.003-0.031
			c-0.015-0.08-0.023-0.087,0.073-0.086c0.028,0,0.056,0,0.083,0c2.016,0,4.031,0,6.047,0c0.208,0,0.416,0,0.624,0
			c0.031,0,0.062-0.001,0.094-0.002c0.018-0.001,0.033-0.015,0.034-0.032c0.001-0.017,0.002-0.035,0.002-0.052
			C-202.225,423.46-202.226,423.224-202.227,422.988z M-205.93,421.339c-0.001,0.01,0,0.021-0.001,0.031
			c-0.001,0.018-0.015,0.034-0.031,0.036c-0.01,0.001-0.021,0.002-0.031,0.002c-0.028,0-0.055,0-0.083,0c-0.509,0-1.019,0-1.528,0
			c-0.516,0-1.033,0-1.549,0c-0.035,0-0.069-0.001-0.104-0.002c-0.02-0.001-0.038-0.023-0.038-0.043c0-0.003-0.001-0.007-0.001-0.01
			c0.017-0.065,0.014-0.131,0.015-0.196c0.001-0.073,0.019-0.144,0.03-0.216c0.014-0.089,0.042-0.174,0.07-0.26
			c0.046-0.139,0.109-0.27,0.194-0.389c0.062-0.087,0.125-0.175,0.214-0.238c0.096-0.092,0.207-0.162,0.327-0.217
			c0.114-0.052,0.231-0.093,0.354-0.116c0.061-0.011,0.122-0.024,0.183-0.034c0.024-0.004,0.048-0.004,0.072-0.005
			c0.073-0.001,0.146-0.001,0.218-0.002c0.178-0.002,0.35,0.032,0.52,0.085c0.083,0.026,0.163,0.057,0.243,0.091
			c0.064,0.027,0.123,0.063,0.183,0.099c0.147,0.089,0.27,0.206,0.381,0.335c0.104,0.122,0.182,0.261,0.24,0.411
			c0.043,0.114,0.077,0.23,0.094,0.35C-205.944,421.146-205.924,421.241-205.93,421.339z"/>
	</g>
</g>
</svg>
