<?xml version="1.0" encoding="utf-8"?>
<!-- Generator: Adobe Illustrator 19.0.0, SVG Export Plug-In . SVG Version: 6.00 Build 0)  -->
<svg version="1.1" id="图层_1" xmlns="http://www.w3.org/2000/svg" xmlns:xlink="http://www.w3.org/1999/xlink" x="0px" y="0px"
	 viewBox="-247 403.1 100 35.8" style="enable-background:new -247 403.1 100 35.8;" xml:space="preserve">
<style type="text/css">
	.st0{fill:#323434;}
	.st1{fill:#EC892A;}
	.st2{fill:#2895C5;}
	.st3{fill:#2795C5;}
	.st4{fill:#323334;}
</style>
<g>
	<path class="st0" d="M-163.8,429.4c-2.6-0.1-3.4-2.2-4.3-4.3c-0.3,0.9-0.6,1.7-1.1,2.4c-0.6,0.9-1.3,1.5-2.3,1.8
		c-0.3,0.1-0.7,0.3-0.8-0.2c0-0.4-0.3-0.9,0.3-1.1c1.5-0.4,1.9-1.7,2.3-2.9c0.8-2.4,0.7-5,0.7-7.5c0-0.4-0.1-0.8,0.6-0.8
		c0.6,0,0.8,0.1,0.8,0.7c-0.1,2.1-0.1,4.2,0.4,6.2c0.2,0.8,0.4,1.6,0.8,2.3c0.5,1,1.2,1.8,2.4,2C-163.8,428.6-163.8,429-163.8,429.4
		z"/>
	<path class="st1" d="M-230.2,406c3.9,0,7.4,1.3,10.3,3.9c1.6,1.4,1.3,1,0.1,2.6c-1.3-1.4-2.7-2.5-4.4-3.4c-1.9-0.9-3.9-1.2-6-1.5
		C-230.2,407.1-230.2,406.5-230.2,406z"/>
	<path class="st0" d="M-163.8,418.1c-0.5,0.6-0.8,1.4-1.7,1.6c-0.3,0.1-0.7,0.5-0.9,0c-0.1-0.4-0.3-0.9,0.3-1.2
		c0.8-0.4,1.2-0.9,0.9-1.8c-0.3-0.9-1-1-1.8-1c-0.6,0-1.1,0-1.7,0c-0.9,0-1.9-0.2-1.9,1.2c0,0.2-0.3,0.5-0.5,0.7
		c-0.3,0.2-0.6,0.5-1,0.2c-0.3-0.2-0.2-0.7-0.1-0.9c0.6-0.9,0.3-1.9,0.4-2.9c0-0.3-0.1-0.8,0.5-0.7c0.4,0,1-0.3,1,0.6
		c0,0.5,0.2,0.5,0.6,0.5c0.8,0,1.7,0.1,2.5,0c1.6-0.2,2.8,0.5,3.5,2C-163.8,417-163.8,417.6-163.8,418.1z"/>
	<path class="st1" d="M-230.2,408.5c3.3,0.1,6.2,1.1,8.6,3.4c1.4,1.3,1.4,1.3,0.4,3.1c-2.4-2.8-5.2-4.7-9-4.5
		C-230.2,409.8-230.2,409.2-230.2,408.5z"/>
	<path class="st1" d="M-230.2,411.1c3,0.2,5.6,1.2,7.6,3.5c0.7,0.8,1.2,1.6,0.7,2.7c-0.2,0.3-0.2,0.7-0.3,1.2
		c-1.6-3.4-4.2-5.5-8-5.5C-230.2,412.4-230.2,411.7-230.2,411.1z"/>
	<path class="st2" d="M-221.9,427.9c0.1-2.3-0.1-5,0.1-7.7c0.4-6.8,6-13,12.7-14c0.5-0.1,0.9-0.2,1.4-0.2c0.5,0,1.2-0.5,1.3,0.6
		c0.1,1-0.4,1.2-1.2,1.2c-6,0.5-10.8,4.7-12.2,10.5c-0.2,1.1-0.3,2.2-0.3,3.3c0,4.4,0,8.9,0,13.3c0,0.7-0.1,1.1-0.9,1.1
		c-0.9,0-0.9-0.4-0.9-1.1C-221.9,432.7-221.9,430.5-221.9,427.9z"/>
	<path class="st3" d="M-219.2,427.1c0.2-2.4-0.3-5.4,0.2-8.3c1-5.6,6.1-10,11.8-10.3c0.5,0,0.9,0,0.8,0.6c-0.1,0.5,0.3,1.1-0.7,1.2
		c-6.5,0.7-10.4,5.1-10.4,11.6c0,4.3,0,8.6,0,12.9c0,0.7,0,1.1-0.9,1.1c-1,0-0.9-0.6-0.9-1.2C-219.2,432.5-219.2,430.1-219.2,427.1z
		"/>
	<path class="st4" d="M-188.1,425.3c1.5-0.2,1.9,0.1,1.6,1.5c-0.2,1.5-1.4,2.6-3,2.6c-2.3,0-4.6,0-6.9,0c-1.4,0-2.5-0.7-3-2
		c-0.5-1.2-0.1-2.5,1-3.4c3-2.5,5.9-5.1,8.9-7.6c0.3-0.2,0.8-0.4,0.6-0.9c-0.2-0.4-0.6-0.2-1-0.2c-2.6,0-5.2,0-7.8,0
		c-0.5,0-0.9,0.1-0.9-0.7c0-0.8,0.4-0.7,0.9-0.7c2.7,0,5.3,0,8,0c0.9,0,1.7,0.2,2,1.2c0.3,1-0.2,1.6-0.9,2.2c-2.9,2.5-5.8,5-8.8,7.4
		c-0.7,0.6-1.3,1.2-0.9,2.2c0.4,1,1.2,1.2,2.1,1.2c2,0,4,0,6,0C-188.1,428.1-187.4,427.1-188.1,425.3z"/>
	<path class="st3" d="M-216.6,427.4c0.1-2.3-0.3-5.1,0.2-7.9c0.8-4.6,4.7-8.1,9.4-8.4c0.5,0,0.8,0.1,0.7,0.6
		c-0.1,0.5,0.4,1.2-0.7,1.2c-2,0.1-3.8,1-5.2,2.4c-1.9,1.8-2.6,4-2.6,6.5c0,4.3,0,8.7,0,13c0,0.6,0.1,1.2-0.9,1.2
		c-0.9,0-0.9-0.4-0.9-1.1C-216.6,432.6-216.6,430.3-216.6,427.4z"/>
	<path class="st4" d="M-181.9,421.6c0-1.5,0-3.1,0-4.6c0-1.8,1.2-3.1,3-3.1c1.7-0.1,3.5,0,5.2,0c0.6,0,0.7,0.2,0.7,0.7
		c0,0.6-0.3,0.7-0.8,0.7c-1.6,0-3.3,0-4.9,0c-1.4,0-2,0.6-2,2c0,2.9,0,5.8,0,8.7c0,1.4,0.6,2,2,2c1.6,0,3.3,0,4.9,0
		c0.5,0,0.7,0.1,0.7,0.7c0,0.5-0.2,0.6-0.7,0.6c-1.8,0-3.6,0-5.4,0c-1.6,0-2.8-1.3-2.9-2.9c0-0.1,0-0.1,0-0.2
		C-181.9,424.8-181.9,423.2-181.9,421.6z"/>
	<path class="st0" d="M-176.4,424.2c-0.5,1.2-1.1,2.2-2.4,2.6c-0.3,0.1-0.8,0.4-0.9-0.3c-0.1-0.4-0.2-0.8,0.5-1.1
		c1.1-0.3,2.4-2.8,2.1-4c-0.2-0.8-0.5-1.6-0.9-2.4c-0.3-0.6-0.7-0.9-1.4-1.1c-0.6-0.1-0.4-0.7-0.4-1c0-0.5,0.4-0.3,0.7-0.3
		c1.5,0.3,2.1,1.4,2.6,2.6c0.4-0.2,0.4-0.6,0.5-0.9c0.5-0.8,1-1.4,2-1.6c0.3-0.1,0.8-0.5,0.9,0.1c0.1,0.4,0.4,1.1-0.6,1.2
		c-0.5,0-0.8,0.4-1.1,0.8c-1.2,1.9-1.2,3.8,0,5.7c0.3,0.4,0.6,0.8,1.1,0.9c0.8,0.1,0.6,0.7,0.5,1.1c-0.1,0.6-0.6,0.3-0.9,0.2
		c-0.9-0.2-1.5-0.8-2-1.7C-176.1,424.8-176.1,424.5-176.4,424.2z"/>
	<path class="st0" d="M-202,418.5c-0.8,0.6-1.2,1.3-2,1.7c-0.1-0.9-0.1-1.7,0.6-2.4c0.9-0.9,1.6-2.1,2-3.3c0.3-1,0.8-1.2,1.7-0.9
		c0.1,0.4-0.1,0.8-0.3,1.1c-0.8,1.4-0.8,2.8-0.8,4.3c0,3.2,0,6.4,0,9.7c0,0.5,0,0.9-0.7,0.9c-0.8,0-0.7-0.4-0.7-0.9
		C-202,425.3-202,422-202,418.5z"/>
</g>
</svg>
