<?xml version="1.0" encoding="utf-8"?>
<!-- Generator: Adobe Illustrator 19.0.0, SVG Export Plug-In . SVG Version: 6.00 Build 0)  -->
<svg version="1.1" id="Layer_1" xmlns="http://www.w3.org/2000/svg" xmlns:xlink="http://www.w3.org/1999/xlink" x="0px" y="0px"
	 viewBox="0 0 100 35.8" style="enable-background:new 0 0 100 35.8;" xml:space="preserve">
<style type="text/css">
	.st0{fill:#191E24;}
</style>
<g id="XMLID_154_">
	<g id="XMLID_155_">
		<path id="XMLID_168_" class="st0" d="M84.4,10.5c-0.9,0-1.7-0.8-1.7-1.7c0-0.9,0.8-1.7,1.7-1.7c0.9,0,1.7,0.8,1.7,1.7
			C86.1,9.7,85.4,10.5,84.4,10.5z"/>
		<path id="XMLID_167_" class="st0" d="M86.1,13.3c0-0.9-0.8-1.7-1.7-1.7c-0.9,0-1.7,0.8-1.7,1.7c0,0,0,0,0,0v0V25l0,0
			c0,0.9,0.8,1.7,1.7,1.7c0.9,0,1.7-0.8,1.7-1.7c0,0,0,0,0,0l0,0V13.3L86.1,13.3z"/>
		<path id="XMLID_165_" class="st0" d="M60.1,10.5c-0.9,0-1.7-0.8-1.7-1.7c0-0.9,0.8-1.7,1.7-1.7c0.9,0,1.7,0.8,1.7,1.7
			C61.8,9.7,61,10.5,60.1,10.5z"/>
		<path id="XMLID_163_" class="st0" d="M65.1,26.7c-0.9,0-1.7-0.8-1.7-1.7c0-0.9,0.8-1.7,1.7-1.7c0.9,0,1.7,0.8,1.7,1.7
			C66.8,25.9,66,26.7,65.1,26.7z"/>
		<path id="XMLID_162_" class="st0" d="M61.8,13.3c0-0.9-0.8-1.7-1.7-1.7c-0.9,0-1.7,0.8-1.7,1.7c0,0,0,0,0,0v0V25l0,0
			c0,0.9,0.8,1.7,1.7,1.7c0.9,0,1.7-0.8,1.7-1.7c0,0,0,0,0,0h0L61.8,13.3L61.8,13.3z"/>
		<path id="XMLID_161_" class="st0" d="M21.5,11.6C21.4,11.6,21.4,11.6,21.5,11.6L21.5,11.6c-4.2,0-7.6,3.4-7.6,7.6V25l0,0
			c0,0.9,0.8,1.7,1.7,1.7c0.9,0,1.7-0.8,1.7-1.7c0,0,0,0,0,0v0v-5.9c0-2.3,1.9-4.2,4.2-4.2c0.9,0,1.7-0.8,1.7-1.7
			C23.1,12.3,22.4,11.6,21.5,11.6z"/>
		<path id="XMLID_160_" class="st0" d="M55,11.6C55,11.6,55,11.6,55,11.6L55,11.6c-2.4,0-4.5,1.1-5.9,2.8c-1.4-1.7-3.5-2.8-5.9-2.8
			l0,0c0,0,0,0,0,0c-0.9,0-1.7,0.8-1.7,1.7c0,0.9,0.8,1.7,1.7,1.7c2.3,0,4.2,1.9,4.2,4.2h0V25c0,0.9,0.8,1.7,1.7,1.7
			s1.7-0.8,1.7-1.7c0,0,0,0,0,0l0,0v-5.9c0-2.3,1.9-4.2,4.2-4.2c0.9,0,1.7-0.8,1.7-1.7C56.7,12.3,56,11.6,55,11.6z"/>
		<path id="XMLID_157_" class="st0" d="M81.1,13.3c0-0.9-0.8-1.7-1.7-1.7c0,0,0,0,0,0l0,0H76c-4.2,0-7.6,3.4-7.6,7.6
			c0,4.2,3.4,7.6,7.6,7.6h3.4v0c0.9,0,1.7-0.8,1.7-1.7c0,0,0,0,0,0l0,0V13.3L81.1,13.3z M71.8,19.1c0-2.3,1.9-4.2,4.2-4.2v0h1.7v8.4
			H76C73.7,23.3,71.8,21.5,71.8,19.1z"/>
		<path id="XMLID_156_" class="st0" d="M39.9,13.3c0-0.9-0.8-1.7-1.7-1.7c-0.9,0-1.7,0.8-1.7,1.7c0,0,0,0,0,0.1h0v5.8
			c0,2.3-1.9,4.2-4.2,4.2c-2.3,0-4.2-1.9-4.2-4.2h0v-5.8h0c0,0,0,0,0-0.1c0-0.9-0.8-1.7-1.7-1.7c-0.9,0-1.7,0.8-1.7,1.7
			c0,0,0,0,0,0.1h0v5.8c0,4.2,3.4,7.6,7.6,7.6c4.2,0,7.6-3.4,7.6-7.6V13.3L39.9,13.3C39.9,13.3,39.9,13.3,39.9,13.3z"/>
	</g>
</g>
</svg>
