<?xml version="1.0" encoding="utf-8"?>
<!-- Generator: Adobe Illustrator 16.0.0, SVG Export Plug-In . SVG Version: 6.00 Build 0)  -->
<!DOCTYPE svg PUBLIC "-//W3C//DTD SVG 1.1//EN" "http://www.w3.org/Graphics/SVG/1.1/DTD/svg11.dtd">
<svg version="1.1" id="图层_1" xmlns="http://www.w3.org/2000/svg" xmlns:xlink="http://www.w3.org/1999/xlink" x="0px" y="0px"
	 width="76.404px" height="20px" viewBox="0 0 76.404 20" enable-background="new 0 0 76.404 20" xml:space="preserve">
<g id="图层_2">
</g>
<g>
	<path fill="#FFFFFF" d="M73.323,3.427c-0.944-0.001-1.712-0.771-1.711-1.715c0-0.944,0.771-1.713,1.717-1.711
		c0.942,0.001,1.71,0.771,1.709,1.716C75.038,2.661,74.268,3.428,73.323,3.427z"/>
	<path fill="#FFFFFF" d="M75.038,6.294c-0.001-0.944-0.767-1.712-1.709-1.713c-0.945-0.001-1.717,0.766-1.717,1.711
		c0,0,0,0.001,0,0.002l0,0v11.992l0,0c0,0.944,0.768,1.712,1.711,1.714c0.945,0.002,1.715-0.767,1.715-1.711
		c0-0.001,0-0.001,0-0.003l0,0V6.294L75.038,6.294z"/>
	<path fill="#FFFFFF" d="M48.482,3.427c-0.945-0.001-1.714-0.771-1.714-1.715C46.769,0.767,47.54-0.001,48.485,0
		c0.943,0.001,1.711,0.771,1.711,1.716C50.194,2.661,49.425,3.428,48.482,3.427z"/>
	<path fill="#FFFFFF" d="M53.621,20c-0.944-0.002-1.712-0.771-1.712-1.715c0.001-0.945,0.771-1.713,1.717-1.712
		c0.942,0.001,1.71,0.771,1.71,1.716C55.335,19.233,54.565,20.002,53.621,20z"/>
	<path fill="#FFFFFF" d="M50.196,6.294c-0.002-0.944-0.769-1.712-1.711-1.713c-0.945-0.001-1.716,0.766-1.717,1.711
		c0,0,0,0.001,0,0.002l0,0v11.992l0,0c0,0.944,0.769,1.712,1.713,1.714c0.943,0.002,1.713-0.767,1.715-1.711
		c0-0.001,0-0.001,0-0.003l0,0V6.294L50.196,6.294z"/>
	<path fill="#FFFFFF" d="M9.079,4.581l-0.003,0v0c-4.258,0-7.71,3.452-7.71,7.709v5.996h0c0,0.943,0.768,1.712,1.712,1.713
		c0.944,0.002,1.714-0.766,1.714-1.711c0,0,0-0.001,0-0.002l0,0V12.29c0-2.365,1.917-4.282,4.283-4.282
		c0.944,0,1.713-0.767,1.714-1.712C10.79,5.353,10.023,4.583,9.079,4.581z"/>
	<path fill="#FFFFFF" d="M43.345,4.581l-0.003,0v0c-2.423,0-4.584,1.119-5.998,2.867c-1.414-1.748-3.574-2.867-5.997-2.867l0,0
		h-0.003c-0.944,0.001-1.71,0.771-1.71,1.715c0.001,0.945,0.769,1.712,1.713,1.712c2.366,0,4.283,1.917,4.283,4.282h0.001v5.996
		c0,0.943,0.768,1.712,1.712,1.713c0.944,0.002,1.713-0.766,1.714-1.711c0,0-0.001-0.001-0.001-0.002h0.001V12.29
		c0-2.365,1.918-4.282,4.283-4.282c0.943,0,1.713-0.767,1.713-1.712C45.055,5.353,44.29,4.583,43.345,4.581z"/>
	<path fill="#FFFFFF" d="M69.898,6.294c-0.001-0.944-0.768-1.712-1.71-1.713h-0.004l0,0h-3.426c-4.259,0-7.711,3.452-7.711,7.71
		S60.5,20,64.759,20h3.426v-0.001c0.944,0.001,1.713-0.766,1.714-1.71c0-0.001,0-0.001,0-0.003l0,0V6.294L69.898,6.294z
		 M60.475,12.291c0-2.366,1.918-4.284,4.283-4.284v0.001h1.713v8.565h-1.713C62.393,16.573,60.475,14.656,60.475,12.291z"/>
	<path fill="#FFFFFF" d="M27.922,6.295c0-0.944-0.767-1.714-1.711-1.714c-0.946,0-1.715,0.766-1.716,1.71
		c0,0.02,0.002,0.04,0.003,0.06h-0.003v5.94c0,2.365-1.918,4.282-4.284,4.282c-2.364,0-4.282-1.917-4.282-4.282l0,0v-5.94h-0.003
		c0-0.019,0.003-0.037,0.003-0.056c0.001-0.944-0.767-1.714-1.711-1.714c-0.945,0-1.715,0.766-1.715,1.71
		c0,0.02,0.002,0.04,0.003,0.06h-0.003v5.94c0,4.258,3.452,7.709,7.709,7.709c4.259,0,7.711-3.451,7.711-7.709v-5.94h-0.004
		C27.919,6.333,27.922,6.314,27.922,6.295z"/>
</g>
</svg>
