<?xml version="1.0" encoding="utf-8"?>
<!-- Generator: Adobe Illustrator 19.0.0, SVG Export Plug-In . SVG Version: 6.00 Build 0)  -->
<svg version="1.1" id="图层_1" xmlns="http://www.w3.org/2000/svg" xmlns:xlink="http://www.w3.org/1999/xlink" x="0px" y="0px"
	 viewBox="-496 276.1 142.3 88.9" style="enable-background:new -496 276.1 142.3 88.9;" xml:space="preserve">
<style type="text/css">
	.st0{fill:#FFFFFF;}
	.st1{fill:#C9CACA;}
	.st2{fill:#8A8A8A;}
</style>
<g>
	<g>
		<g>
			<path class="st0" d="M-424.8,276.6c-39,0-70.7,17.8-70.7,39.8c0,13.7,12.3,25.8,30.9,32.9c0,0,0.3,0.1,1,0.4
				c-0.7,5.2-5.6,10.6-7.9,13.5h0c-0.2,0.3-0.3,0.7-0.3,1.1c0,1.4,23.8-5.9,31-9.3c5,0.7,10.4,1.2,16,1.2c39,0,70.7-17.8,70.7-39.8
				C-354.2,294.4-385.8,276.6-424.8,276.6z"/>
			<path class="st1" d="M-471.3,365c-0.9,0-1-0.4-1-0.7c0-0.4,0.1-0.9,0.3-1.3c0,0,0-0.1,0.1-0.1c0.3-0.4,0.7-0.9,1.1-1.4
				c2.3-2.9,5.8-7.2,6.6-11.4c-0.3-0.1-0.5-0.2-0.6-0.2c-19.6-7.5-31.3-20-31.3-33.4c0-22.2,31.9-40.3,71.2-40.3
				s71.2,18.1,71.2,40.3c0,22.2-31.9,40.3-71.2,40.3c-5,0-10.4-0.4-15.9-1.2C-447.4,358.7-467.8,365-471.3,365z M-471,363.4
				C-471,363.4-471,363.4-471,363.4c-0.1,0.2-0.2,0.4-0.2,0.5c3.6,0,23.8-6.3,30.2-9.4c0.1,0,0.2-0.1,0.3,0
				c5.5,0.8,10.9,1.2,15.9,1.2c38.7,0,70.2-17.6,70.2-39.3c0-21.7-31.5-39.3-70.2-39.3s-70.2,17.6-70.2,39.3
				c0,13,11.4,25.1,30.6,32.5c0,0,0,0,0.1,0c0.1,0,0.4,0.2,0.9,0.3c0.2,0.1,0.4,0.3,0.3,0.5c-0.6,4.6-4.4,9.3-6.9,12.3
				C-470.4,362.6-470.7,363-471,363.4z"/>
		</g>
		<g>
			<path class="st1" d="M-416.7,347.3v-1c25.1,0,47.1-9.8,52.3-23.4l0.9,0.4C-368.8,337.2-391.1,347.3-416.7,347.3z"/>
		</g>
	</g>
	<g>
		<path class="st2" d="M-471.5,313.5v-0.7c0-0.7,0.3-1.2,0.8-1.6l0.2,0.2c-0.4,0.3-0.6,0.8-0.6,1.3h0.4v0.8H-471.5z M-470.3,313.5
			v-0.7c0-0.7,0.3-1.2,0.8-1.6l0.2,0.2c-0.4,0.3-0.6,0.8-0.6,1.3h0.4v0.8H-470.3z"/>
		<path class="st2" d="M-465.8,311.4l0.4,0.2c-0.1,0.2-0.3,0.4-0.5,0.7c-0.1,0.2-0.2,0.3-0.2,0.4v3.2h-0.4v-2.7
			c-0.2,0.3-0.5,0.6-0.8,0.9c0-0.1-0.1-0.2-0.3-0.3C-466.8,313-466.2,312.2-465.8,311.4z M-466.6,316.3l0.4,0.2
			c-0.3,0.7-0.5,1.2-0.8,1.6l-0.4-0.2C-467.1,317.5-466.9,316.9-466.6,316.3z M-465.6,316.5h0.4v1.2c0,0.3,0.2,0.5,0.6,0.5h1.5
			c0.5,0,0.8-0.1,0.8-0.5c0-0.1,0.1-0.4,0.1-0.7c0,0,0,0,0-0.1c0.1,0.1,0.3,0.1,0.4,0.2c0,0.2-0.1,0.5-0.2,0.7
			c-0.1,0.5-0.5,0.8-1.2,0.8h-1.7c-0.6,0-0.9-0.3-0.9-0.8V316.5z M-464.1,313.7l0.3,0.2c-0.4,0.5-0.9,1-1.4,1.5c0,0-0.1-0.1-0.2-0.2
			c-0.1-0.1-0.1-0.1-0.2-0.1C-465,314.8-464.6,314.3-464.1,313.7z M-465,313.8c-0.1-0.1-0.2-0.2-0.3-0.3c0.6-0.6,1-1.3,1.4-2.1
			l0.4,0.1c0,0.1-0.1,0.2-0.2,0.4c-0.1,0.1-0.1,0.2-0.2,0.3h3.6v0.4l-0.5,1c-0.1-0.1-0.3-0.1-0.4-0.2l0.5-0.9h-3.3
			C-464.4,313-464.7,313.4-465,313.8z M-464.4,316.3l0.3-0.3c0.4,0.3,0.7,0.6,1,1l-0.3,0.3C-463.6,317-464,316.7-464.4,316.3z
			 M-462.9,313.1h0.4v1.8c0,0.5-0.3,0.8-0.9,0.8c-0.2,0-0.4,0-0.6,0c0-0.1,0-0.3-0.1-0.4c0.3,0,0.5,0,0.7,0c0.4,0,0.5-0.1,0.5-0.4
			V313.1z M-461.9,314.1l0.3-0.3c0.3,0.3,0.8,0.7,1.5,1.3l-0.3,0.3C-461.1,314.8-461.5,314.4-461.9,314.1z M-461.5,316.4l0.3-0.2
			c0.5,0.5,0.9,1,1.2,1.4l-0.4,0.2C-460.7,317.4-461.1,316.9-461.5,316.4z"/>
		<path class="st2" d="M-458.5,317.2c-0.1-0.2-0.2-0.3-0.2-0.4c1.3-0.3,2.3-0.9,3.1-1.6c-0.1-0.2-0.2-0.3-0.3-0.4
			c-0.8,0.5-1.7,0.9-2.6,1.1c0,0-0.1-0.1-0.2-0.2c0-0.1-0.1-0.1-0.1-0.2c1.3-0.3,2.4-0.8,3.3-1.5h-2.3v-0.4h5.3v0.4h-2.5
			c-0.2,0.2-0.4,0.4-0.7,0.5c0.3,0.3,0.5,0.7,0.7,1.1c0.9-0.4,1.7-0.8,2.4-1.2l0.2,0.3c-0.5,0.2-0.9,0.5-1.5,0.7
			c0.4,1.1,1.1,1.9,2.2,2.2c-0.1,0.1-0.2,0.2-0.3,0.3c-1.1-0.4-1.9-1.2-2.3-2.4c-0.2,0.1-0.4,0.2-0.6,0.3c0.1,0.4,0.2,0.8,0.2,1.2
			c0,0.9-0.3,1.4-1.1,1.4c-0.3,0-0.6,0-0.9,0c0-0.1,0-0.2-0.1-0.3c0-0.1-0.1-0.1-0.1-0.2c0.1,0,0.3,0,0.6,0c0.2,0,0.3,0,0.4,0
			c0.6,0,0.8-0.3,0.8-1c0-0.3,0-0.5-0.1-0.8c-0.9,0.9-2,1.6-3.5,2c-0.1-0.1-0.1-0.3-0.2-0.4c1.5-0.4,2.7-1,3.6-2
			c0,0-0.1-0.1-0.1-0.2c-0.1-0.2-0.1-0.3-0.2-0.4C-456.1,316.2-457.1,316.7-458.5,317.2z M-455.5,311.5l0.4-0.2
			c0.1,0.1,0.2,0.3,0.3,0.6c0.1,0.1,0.1,0.2,0.1,0.3l-0.3,0.1h3.3v1.1h-0.4v-0.8h-6v0.8h-0.4v-1.1h3.5c0-0.1-0.1-0.3-0.2-0.5
			C-455.4,311.7-455.4,311.6-455.5,311.5z"/>
		<path class="st2" d="M-446.4,311.4l0.4-0.1c0.1,0.3,0.1,0.6,0.2,1h2.9v0.4h-6.2v2.1c0,1-0.1,1.8-0.2,2.3c-0.1,0.5-0.3,1-0.7,1.6
			c-0.1-0.1-0.2-0.2-0.3-0.3c0.3-0.5,0.6-1,0.6-1.5c0.1-0.4,0.2-1.2,0.2-2.2v-2.5h3.3c0-0.1-0.1-0.2-0.1-0.4
			C-446.4,311.7-446.4,311.5-446.4,311.4z M-445.4,318.4c-1,0-1.7-0.2-2.2-0.7c-0.2,0.3-0.6,0.6-1.1,1c0-0.1-0.1-0.1-0.2-0.2
			c0,0-0.1-0.1-0.1-0.1c0.5-0.4,0.9-0.7,1.1-1c-0.3-0.3-0.5-0.7-0.7-1.3l0.3-0.2c0.2,0.4,0.4,0.8,0.6,1.1c0.2-0.3,0.4-0.8,0.5-1.6
			h-1.4v-0.3l1.3-1.5h-1.3v-0.4h1.8v0.4l-1.2,1.4h1.2v0.4c-0.1,0.8-0.3,1.4-0.6,1.9c0.4,0.4,1.1,0.6,2.1,0.6c0.7,0,1.6,0,2.5,0
			c-0.1,0.2-0.1,0.3-0.2,0.4C-444,318.4-444.8,318.4-445.4,318.4z M-446.4,316.8h1.5v-1.3h-1.3v-0.4h1.3v-1.3c-0.2,0-0.6,0-1.2,0.1
			c0.4,0,0.4,0-0.1,0l-0.1-0.4c0.8,0,1.8-0.1,3-0.2l0.1,0.4c-0.5,0-0.9,0.1-1.4,0.1v1.3h1.3v0.4h-1.3v1.3h1.5v0.4h-3.3V316.8z"/>
		<path class="st2" d="M-441.3,312.7h0.8c0.2-0.5,0.3-0.9,0.4-1.3l0.4,0.1c-0.1,0.4-0.2,0.8-0.4,1.2h1.6v5.9h-0.4V318h-2v0.7h-0.4
			V312.7z M-440.9,313v2.1h2V313H-440.9z M-440.9,315.5v2.1h2v-2.1H-440.9z M-437.8,314.3c0,0-0.1-0.1-0.2-0.1
			c-0.1,0-0.1-0.1-0.2-0.1c0.4-0.7,0.8-1.6,1.2-2.7l0.4,0.1c-0.1,0.4-0.3,0.7-0.4,1.1h2.5c0,0.1,0,0.3,0,0.5c0,1.8-0.1,3.2-0.2,4.2
			c0,0.8-0.4,1.2-1.3,1.2c-0.4,0-0.8,0-1.2,0c0,0,0-0.1,0-0.1c0-0.2-0.1-0.3-0.1-0.3c0.3,0,0.7,0,1.3,0c0.7,0,1-0.3,1-0.9
			c0-0.5,0.1-1.6,0.1-3.2c0-0.5,0-0.8,0-1h-2.3C-437.4,313.6-437.6,314.1-437.8,314.3z M-437.5,314.7l0.3-0.2c0,0.1,0.1,0.1,0.2,0.2
			c0.4,0.6,0.8,1,1,1.4l-0.3,0.2C-436.6,315.8-437,315.2-437.5,314.7z"/>
		<path class="st2" d="M-432.6,314.6c0,0-0.1-0.1-0.2-0.1c-0.1,0-0.1,0-0.1-0.1c0.6-1.1,0.9-2.1,1.1-3l0.4,0.1
			c-0.1,0.3-0.2,0.7-0.3,1.1h1.6v0.4l-0.6,1.2c-0.1,0-0.3-0.1-0.4-0.1l0.6-1.1h-1.3C-432.1,313.5-432.4,314-432.6,314.6z
			 M-431.5,317.5c0.5-0.3,0.9-0.6,1.2-0.8c0,0,0,0.1,0,0.1c0,0.2,0,0.3,0.1,0.3c-0.1,0-0.2,0.1-0.3,0.2c-0.2,0.1-0.5,0.3-1,0.6
			c-0.1,0-0.1,0.1-0.2,0.2c-0.1,0-0.1,0.1-0.1,0.1l-0.3-0.3c0.2-0.1,0.2-0.3,0.2-0.5v-3.2h0.4V317.5z M-430.8,318.4
			c1.5-0.8,2.3-1.9,2.5-3.3c0.1-0.4,0.1-1,0.1-1.6h0.4c0,0.4,0,0.8,0,1.1c0.4,1.7,1.2,3,2.3,3.7c0,0-0.1,0.1-0.2,0.2
			c-0.1,0.1-0.1,0.1-0.2,0.2c-1.1-0.8-1.8-1.9-2.1-3.2c-0.2,1.4-1.1,2.4-2.5,3.3C-430.5,318.6-430.6,318.5-430.8,318.4z
			 M-429.8,314.7c-0.1-0.1-0.2-0.2-0.4-0.2c0.6-1,1-2,1.3-3l0.5,0.1c-0.1,0.4-0.2,0.7-0.4,1h3.2v0.4l-0.7,1.5
			c-0.1-0.1-0.2-0.1-0.4-0.2l0.7-1.3h-2.9C-429.2,313.5-429.5,314.1-429.8,314.7z"/>
		<path class="st2" d="M-417.1,314.1c-1.6-0.6-2.7-1.3-3.4-2.1c-0.6,0.6-1.4,1.2-2.3,1.7h4.6v2.7h-4.3v1.8c0.3-0.1,0.7-0.2,1.3-0.3
			c0.2,0,0.4-0.1,0.6-0.1c0,0,0,0.1,0,0.1c0,0.1,0,0.2,0,0.2c-0.2,0-0.7,0.1-1.3,0.3c-0.2,0-0.3,0-0.3,0.1c-0.2,0-0.3,0.1-0.5,0.2
			l-0.3-0.4c0.2-0.1,0.2-0.2,0.2-0.5v-4.1c-0.1,0-0.2,0.1-0.4,0.2c-0.3,0.1-0.5,0.2-0.6,0.3c0-0.1-0.1-0.2-0.3-0.3
			c1.7-0.7,3-1.6,3.8-2.5l0.5,0.1c-0.1,0.1-0.1,0.2-0.2,0.2c0.8,0.9,1.9,1.6,3.4,2.1C-417,313.8-417.1,313.9-417.1,314.1z
			 M-422.6,314v0.8h3.9V314H-422.6z M-422.6,315.2v0.9h3.9v-0.9H-422.6z M-417.6,318.6c-0.9-0.4-2.2-0.9-3.9-1.6l0.2-0.3
			c0.1,0.1,0.4,0.2,0.7,0.3c0.4,0.1,0.7,0.3,0.9,0.3c0.3-0.1,0.8-0.3,1.4-0.6c0.2-0.1,0.3-0.1,0.4-0.2l0.3,0.3
			c-0.6,0.3-1.1,0.5-1.5,0.7c0.2,0.1,0.6,0.2,1,0.4c0.4,0.2,0.7,0.3,0.8,0.3L-417.6,318.6z M-420.9,312.7l0.4-0.2
			c0.1,0.1,0.2,0.3,0.3,0.6c0.1,0.1,0.1,0.2,0.1,0.2l-0.4,0.2C-420.6,313.4-420.7,313.1-420.9,312.7z"/>
		<path class="st2" d="M-415.5,315.4c-0.1-0.2-0.2-0.3-0.2-0.4c0.7-1.1,1.2-2.3,1.4-3.6l0.4,0.1c-0.2,0.6-0.4,1.2-0.6,1.8v5.4h-0.4
			v-4.5C-415,314.6-415.2,315-415.5,315.4z M-410.4,318.4c-1.2-0.1-2-0.3-2.5-0.8c-0.2,0.3-0.5,0.7-0.9,1.1c-0.1,0-0.2-0.1-0.3-0.3
			c0,0,0.1-0.1,0.1-0.1c0.4-0.5,0.7-0.8,0.8-1c-0.3-0.4-0.5-1-0.7-1.7l0.4-0.1c0.1,0.6,0.3,1,0.5,1.4c0.2-0.4,0.3-1,0.4-2h-1.2v-0.4
			l1.3-1.9h-1.2v-0.4h1.6v0.4l-1.2,1.9h1.1v0.3c-0.1,1.1-0.2,1.9-0.5,2.4c0.5,0.5,1.3,0.8,2.4,0.8c0.5,0,1.2,0,2.1,0
			c-0.1,0.1-0.1,0.3-0.2,0.4C-409.2,318.4-409.9,318.4-410.4,318.4z M-412.1,316.6h1.5v-0.8h-1.3v-0.3h1.3v-0.8h-1.2v-0.3h1.2v-0.8
			h-1.6v-0.3h1.6v-0.8h-1.2v-0.3h1.2v-0.9h0.4v0.9h1.4v1.1h0.5v0.3h-0.5v1.1h-1.4v0.8h1.6v0.3h-1.6v0.8h1.7v0.3h-1.7v0.8h-0.4V317
			h-1.5V316.6z M-409.1,312.6h-1.1v0.8h1.1V312.6z M-410.2,314.5h1.1v-0.8h-1.1V314.5z"/>
		<path class="st2" d="M-405.8,315.1c0,1-0.1,1.7-0.2,2.1c-0.1,0.5-0.4,1-0.7,1.5c0,0-0.1-0.1-0.2-0.2c0,0-0.1,0-0.1-0.1
			c0.3-0.5,0.5-0.9,0.6-1.4c0.1-0.4,0.2-1.1,0.2-2v-2.9h3.1c0-0.1-0.1-0.2-0.1-0.3c0-0.2-0.1-0.3-0.1-0.4l0.4-0.1
			c0.1,0.3,0.2,0.6,0.2,0.8h2.8v0.3h-5.9V315.1z M-400.3,316.1l0.2,0.3c-0.3,0.2-0.8,0.5-1.4,0.8c0.4,0.3,1,0.6,1.8,0.9
			c0,0,0,0.1-0.1,0.1c0,0-0.1,0.1-0.2,0.3c-1.4-0.5-2.3-1.1-2.7-2v1.4c0,0.6-0.2,0.8-0.8,0.8c-0.3,0-0.5,0-0.7,0c0,0,0-0.1,0-0.2
			c0-0.1,0-0.1,0-0.2c0.2,0,0.4,0,0.7,0c0.4,0,0.6-0.1,0.6-0.5v-0.5c-1.1,0.4-1.9,0.6-2.5,0.8l-0.2-0.3c0.7-0.2,1.6-0.5,2.7-0.9v-1
			h-2.1v-0.3h2.1v-0.7h-2.5v-0.3h2.5v-0.7h-2.1v-0.3h2.1v-0.6h0.4v0.6h2.2v1h0.9v0.3h-0.9v1.1h-2.2v0c0.3,0.5,0.6,0.8,0.9,1.1
			C-401.2,316.6-400.7,316.3-400.3,316.1z M-405.3,316.3l0.2-0.3c0.3,0.2,0.7,0.4,1.1,0.7l-0.3,0.3
			C-404.6,316.7-405,316.5-405.3,316.3z M-400.8,313.7h-1.8v0.7h1.8V313.7z M-402.7,315.4h1.8v-0.7h-1.8V315.4z"/>
		<path class="st2" d="M-396.8,315.9v-0.4c0.2-0.3,0.3-0.6,0.5-1.1h-1.9V314h2.1c0.1-0.2,0.2-0.4,0.3-0.8c0.1-0.2,0.1-0.3,0.2-0.4
			h-2.1v-0.4h2.3c0.1-0.3,0.2-0.6,0.4-1.1l0.4,0.1c-0.1,0.3-0.2,0.6-0.3,1h3.7v0.4h-3.8c0,0.1-0.1,0.2-0.2,0.4
			c-0.1,0.4-0.2,0.6-0.3,0.8h4.8v0.4h-5c-0.2,0.4-0.3,0.8-0.5,1.1h4.5v0.5l-2.1,1.8c0.1,0,0.3,0.1,0.6,0.3c0.3,0.1,0.5,0.2,0.6,0.3
			l-0.2,0.4c-1.4-0.7-2.7-1.3-3.9-1.8l0.2-0.3c0.1,0,0.2,0.1,0.3,0.1c0.9,0.4,1.5,0.7,2.1,1l1.9-1.8H-396.8z"/>
		<path class="st2" d="M-389.3,317.2c-0.1-0.2-0.2-0.3-0.2-0.4c1.3-0.3,2.3-0.9,3.1-1.6c-0.1-0.2-0.2-0.3-0.3-0.4
			c-0.8,0.5-1.7,0.9-2.6,1.1c0,0-0.1-0.1-0.2-0.2c0-0.1-0.1-0.1-0.1-0.2c1.3-0.3,2.4-0.8,3.3-1.5h-2.3v-0.4h5.3v0.4h-2.5
			c-0.2,0.2-0.4,0.4-0.7,0.5c0.3,0.3,0.5,0.7,0.7,1.1c0.9-0.4,1.7-0.8,2.4-1.2l0.2,0.3c-0.5,0.2-0.9,0.5-1.5,0.7
			c0.4,1.1,1.1,1.9,2.2,2.2c-0.1,0.1-0.2,0.2-0.3,0.3c-1.1-0.4-1.9-1.2-2.3-2.4c-0.2,0.1-0.4,0.2-0.6,0.3c0.1,0.4,0.2,0.8,0.2,1.2
			c0,0.9-0.3,1.4-1.1,1.4c-0.3,0-0.6,0-0.9,0c0-0.1,0-0.2-0.1-0.3c0-0.1-0.1-0.1-0.1-0.2c0.1,0,0.3,0,0.6,0c0.2,0,0.3,0,0.4,0
			c0.6,0,0.8-0.3,0.8-1c0-0.3,0-0.5-0.1-0.8c-0.9,0.9-2,1.6-3.5,2c-0.1-0.1-0.1-0.3-0.2-0.4c1.5-0.4,2.7-1,3.6-2
			c0,0-0.1-0.1-0.1-0.2c-0.1-0.2-0.1-0.3-0.2-0.4C-387,316.2-388,316.7-389.3,317.2z M-386.3,311.5l0.4-0.2c0.1,0.1,0.2,0.3,0.3,0.6
			c0.1,0.1,0.1,0.2,0.1,0.3l-0.3,0.1h3.3v1.1h-0.4v-0.8h-6v0.8h-0.4v-1.1h3.5c0-0.1-0.1-0.3-0.2-0.5
			C-386.2,311.7-386.3,311.6-386.3,311.5z"/>
		<path class="st2" d="M-379.4,311.3v0.7c0,0.7-0.2,1.3-0.7,1.6l-0.2-0.2c0.4-0.3,0.7-0.7,0.6-1.3h-0.4v-0.8H-379.4z M-378.2,311.3
			v0.7c0,0.7-0.2,1.2-0.8,1.6l-0.2-0.2c0.4-0.3,0.6-0.7,0.6-1.3h-0.4v-0.8H-378.2z"/>
	</g>
</g>
</svg>
