<?xml version="1.0" encoding="utf-8"?>
<!-- Generator: Adobe Illustrator 19.0.0, SVG Export Plug-In . SVG Version: 6.00 Build 0)  -->
<svg version="1.1" id="图层_1" xmlns="http://www.w3.org/2000/svg" xmlns:xlink="http://www.w3.org/1999/xlink" x="0px" y="0px"
	 viewBox="-496 276.1 142.3 88.9" style="enable-background:new -496 276.1 142.3 88.9;" xml:space="preserve">
<style type="text/css">
	.st0{fill:#FFFFFF;}
	.st1{fill:#C9CACA;}
	.st2{fill:#8A8A8A;}
	.st3{fill:#898989;}
</style>
<g>
	<g>
		<path class="st0" d="M-920.9,552.7c-39,0-70.7,17.8-70.7,39.8c0,13.7,12.3,25.8,30.9,32.9c0,0,0.3,0.1,1,0.4
			c-0.7,5.2-5.6,10.6-7.9,13.5l0,0c-0.2,0.3-0.3,0.7-0.3,1.1c0,1.4,23.8-5.9,31-9.3c5,0.7,10.4,1.2,16,1.2c39,0,70.7-17.8,70.7-39.8
			C-850.2,570.5-881.8,552.7-920.9,552.7z"/>
		<path class="st1" d="M-967.3,641.1c-0.9,0-1-0.4-1-0.7c0-0.4,0.1-0.9,0.3-1.3c0,0,0-0.1,0.1-0.1c0.3-0.4,0.7-0.9,1.1-1.4
			c2.3-2.9,5.8-7.2,6.6-11.4c-0.3-0.1-0.5-0.2-0.6-0.2c-19.6-7.5-31.3-20-31.3-33.4c0-22.2,31.9-40.3,71.2-40.3s71.2,18.1,71.2,40.3
			c0,22.2-31.9,40.3-71.2,40.3c-5,0-10.4-0.4-15.9-1.2C-943.4,634.8-963.8,641.1-967.3,641.1z M-967,639.5L-967,639.5
			c-0.1,0.2-0.2,0.4-0.2,0.5c3.6,0,23.8-6.3,30.2-9.4c0.1,0,0.2-0.1,0.3,0c5.5,0.8,10.9,1.2,15.9,1.2c38.7,0,70.2-17.6,70.2-39.3
			c0-21.7-31.5-39.3-70.2-39.3s-70.2,17.6-70.2,39.3c0,13,11.4,25.1,30.6,32.5c0,0,0,0,0.1,0s0.4,0.2,0.9,0.3
			c0.2,0.1,0.4,0.3,0.3,0.5c-0.6,4.6-4.4,9.3-6.9,12.3C-966.4,638.7-966.7,639.1-967,639.5z"/>
	</g>
	<g>
		<path class="st1" d="M-912.7,623.4v-1c25.1,0,47.1-9.8,52.3-23.4l0.9,0.4C-864.8,613.3-887.1,623.4-912.7,623.4z"/>
	</g>
</g>
<g>
	<path class="st2" d="M-966.6,584.3v-0.7c0-0.7,0.3-1.2,0.8-1.6l0.2,0.2c-0.4,0.3-0.6,0.8-0.6,1.3h0.4v0.8L-966.6,584.3
		L-966.6,584.3z M-965.4,584.3v-0.7c0-0.7,0.3-1.2,0.8-1.6l0.2,0.2c-0.4,0.3-0.6,0.8-0.6,1.3h0.4v0.8L-965.4,584.3L-965.4,584.3z"/>
	<path class="st2" d="M-962.2,582.7h6.5v6.9h-0.4v-0.4h-5.7v0.4h-0.4V582.7z M-961.8,583v5.8h5.7V583H-961.8z M-961,585.5h1.8v-1.2
		h-2v-0.4h4.4v0.4h-2v1.2h1.8v0.4h-1.8v1.7h2.1v0.3h-4.7v-0.3h2.1v-1.7h-1.8L-961,585.5L-961,585.5z M-958.2,586.5l0.3-0.2
		c0,0,0,0,0.1,0.1c0.3,0.3,0.6,0.5,0.7,0.7l-0.3,0.3C-957.7,586.9-957.9,586.7-958.2,586.5z"/>
	<path class="st2" d="M-953.8,584.2v-0.4h2.4v0.4c-0.2,0.5-0.5,1-0.8,1.4v4h-0.4v-3.5c-0.3,0.3-0.7,0.7-1.1,1c0-0.1-0.1-0.2-0.1-0.3
		l-0.1-0.1c0.9-0.7,1.6-1.5,2.1-2.5H-953.8z M-953,582.4l0.4-0.1c0.1,0.3,0.3,0.7,0.5,1.3l-0.4,0.1
		C-952.7,583.2-952.8,582.8-953,582.4z M-952.1,586.2l0.3-0.2c0.3,0.3,0.6,0.6,0.9,1l-0.3,0.3C-951.4,586.9-951.7,586.5-952.1,586.2
		z M-951.4,588.9h2.1V585h-1.8v-0.4h1.8v-2.3h0.4v2.3h2v0.4h-2v3.9h2.2v0.4h-4.8L-951.4,588.9L-951.4,588.9z"/>
	<path class="st2" d="M-945.2,587.5c0,0-0.1-0.1-0.1-0.2s-0.1-0.2-0.1-0.2c0.6-0.7,1-1.7,1.3-2.9h-1.1v-0.4h1.1v-1.5h0.4v1.5h1.1
		v0.4h-1.1v1.3l0.2-0.2c0.4,0.4,0.8,0.7,1,1l-0.3,0.3c-0.1-0.1-0.3-0.3-0.6-0.5c-0.2-0.2-0.3-0.3-0.4-0.4v4.1h-0.4v-4.6
		C-944.4,586.1-944.8,586.9-945.2,587.5z M-941.5,583.2v2.2c0,1.2-0.1,2-0.3,2.6c-0.2,0.5-0.5,1.1-1.1,1.6c-0.1-0.1-0.2-0.2-0.4-0.3
		c0.6-0.5,1-1,1.1-1.5c0.2-0.5,0.2-1.3,0.2-2.4v-2.5h2.6v5.8c0,0.3,0.1,0.4,0.3,0.4h0.2c0.3,0,0.4-0.1,0.5-0.4
		c0.1-0.3,0.1-0.7,0.1-1.2c0.1,0.1,0.3,0.1,0.4,0.2c0,0.6-0.1,1-0.1,1.2c-0.1,0.5-0.3,0.7-0.8,0.7h-0.3c-0.5,0-0.7-0.2-0.7-0.7v-5.4
		h-1.7V583.2z"/>
	<path class="st2" d="M-929.5,587.1c-1.8-0.1-2.9-0.5-3.4-1.4h-0.2c-0.2,0.7-1.3,1.2-3.4,1.4c0,0-0.1-0.1-0.1-0.2
		c-0.1-0.1-0.1-0.1-0.1-0.2c1.9-0.2,2.9-0.6,3.2-1.1h-2.9v-0.3h3.1c0.1-0.2,0.1-0.4,0.1-0.6h0.4c0,0.2-0.1,0.5-0.1,0.6h1.6
		c-0.1-0.1-0.2-0.3-0.3-0.5l0.4-0.2c0.1,0.2,0.2,0.4,0.4,0.7h1.5v0.3h-3c0.5,0.6,1.5,1,3.2,1c0,0-0.1,0.1-0.2,0.3
		C-929.5,587-929.5,587.1-929.5,587.1z M-936.1,582.7h2.5v1.9h-2.5V582.7z M-936.1,587.3h2.5v2.2h-0.4v-0.4h-1.8v0.4h-0.4
		L-936.1,587.3L-936.1,587.3z M-935.7,583v1.2h1.8V583H-935.7z M-935.7,587.7v1.2h1.8v-1.2H-935.7z M-932.5,582.7h2.5v1.9h-2.5
		V582.7z M-932.5,587.3h2.6v2.3h-0.4v-0.4h-1.8v0.4h-0.4V587.3L-932.5,587.3z M-932.1,583v1.2h1.8V583H-932.1z M-932.1,587.7v1.2
		h1.8v-1.2H-932.1z"/>
	<path class="st2" d="M-927.7,582.8h0.5v0.7h-0.5V582.8z M-927.7,584.5h0.5v4.5h-0.5V584.5z"/>
	<path class="st2" d="M-924.9,587l0.4,0.2c-0.2,0.6-0.4,1.2-0.8,1.8c-0.1-0.1-0.3-0.2-0.4-0.2C-925.3,588.1-925,587.6-924.9,587z
		 M-924.8,582.7h5.7v3.7h-5.7V582.7z M-924.4,583v1.3h2.2V583H-924.4z M-924.4,584.7v1.3h2.2v-1.3H-924.4z M-923.7,587.1h0.4v1.3
		c0,0.4,0.2,0.6,0.7,0.6h1.4c0.4,0,0.7-0.1,0.8-0.5c0-0.3,0.1-0.5,0.1-0.7c0,0,0.1,0,0.2,0.1c0.1,0,0.1,0,0.2,0.1
		c0,0.3-0.1,0.6-0.2,0.8c-0.1,0.5-0.5,0.7-1.1,0.7h-1.6c-0.7,0-1-0.3-1-0.9v-1.5H-923.7z M-922.5,586.9l0.3-0.2c0,0,0.1,0.1,0.2,0.2
		c0.4,0.4,0.6,0.7,0.8,1l-0.4,0.2C-921.9,587.6-922.2,587.2-922.5,586.9z M-919.5,583h-2.2v1.3h2.2V583z M-921.8,584.7v1.3h2.2v-1.3
		H-921.8z M-919.8,587.3l0.3-0.2c0.4,0.5,0.8,1,1.1,1.5l-0.4,0.2C-919,588.2-919.3,587.7-919.8,587.3z"/>
	<path class="st2" d="M-914.9,587.5v0.7c0,0.7-0.2,1.2-0.7,1.5l-0.2-0.2c0.4-0.3,0.7-0.7,0.6-1.2h-0.4v-0.8H-914.9z"/>
	<path class="st2" d="M-908.4,582.7h7.3v0.4h-2.3c0,0.1,0,0.3,0,0.6s0,0.5,0,0.6h1.9v4.3c0,0.6-0.3,0.8-0.9,0.8c-0.3,0-0.6,0-1,0
		c0-0.2,0-0.3-0.1-0.4c0.1,0,0.2,0,0.4,0c0.2,0,0.4,0,0.5,0c0.5,0,0.7-0.1,0.6-0.5v-3.8h-1.5c0,0.5-0.1,0.9-0.2,1.3
		c0.1,0.1,0.2,0.2,0.2,0.2c0.5,0.6,1,1,1.3,1.4l-0.3,0.3c-0.5-0.6-0.9-1.1-1.2-1.4c-0.2,0.6-0.6,1.3-1.1,2c-0.1-0.1-0.2-0.2-0.3-0.3
		c0.8-0.9,1.3-2,1.4-3.4h-1.7c0,0.4-0.1,0.7-0.2,1.1c0.2,0.1,0.4,0.4,0.7,0.6c0.1,0.1,0.3,0.3,0.3,0.3l-0.3,0.3
		c-0.1-0.1-0.2-0.2-0.3-0.3c-0.2-0.2-0.4-0.4-0.6-0.6c-0.2,0.7-0.6,1.3-1.1,2c-0.1-0.1-0.3-0.2-0.3-0.3c0.8-0.8,1.2-1.9,1.3-3.2
		h-1.5v4.8h-0.4v-5.2h1.9c0-0.3,0-0.7,0-1.2h-2.4L-908.4,582.7L-908.4,582.7z M-905.5,583.1c0,0.4,0,0.8,0,1.2h1.7
		c0-0.3,0-0.7,0-1.2H-905.5z"/>
	<path class="st2" d="M-892.6,585.3c-1.5-0.7-2.6-1.5-3.3-2.5c-0.9,1-2.1,1.9-3.5,2.6c-0.1-0.1-0.2-0.3-0.3-0.4
		c1.6-0.8,2.9-1.7,3.8-2.9l0.5,0.1c-0.1,0.1-0.1,0.2-0.2,0.2c0.7,1,1.9,1.8,3.4,2.4C-892.4,585-892.5,585.1-892.6,585.3z
		 M-893.4,589.6c-0.1-0.1-0.2-0.2-0.3-0.3c-0.1-0.1-0.2-0.2-0.2-0.2c-1.7,0-3,0.1-4,0.2c0,0-0.1,0-0.2,0c-0.2,0-0.3,0-0.4,0.1
		l-0.3-0.5c0.2-0.1,0.3-0.2,0.6-0.3c0.5-0.5,1-1,1.5-1.6h-2.7v-0.4h6.9v0.4h-3.6c-0.6,0.7-1.2,1.3-1.8,1.9c1.3-0.1,2.5-0.1,3.7-0.2
		c-0.1,0-0.2-0.1-0.3-0.2s-0.3-0.3-0.6-0.6l0.3-0.2c0.8,0.8,1.4,1.3,1.8,1.7L-893.4,589.6z M-898.1,585h4.1v0.4h-4.1V585z"/>
	<path class="st2" d="M-890.1,584.7h2.1l0.2-1h-3.3v-0.4h4.4c0.2-0.2,0.4-0.5,0.6-0.9c0.1-0.1,0.1-0.2,0.2-0.3l0.4,0.2
		c-0.1,0.1-0.2,0.3-0.4,0.5c-0.1,0.2-0.3,0.3-0.3,0.4h2.5v0.4h-3.6l-0.2,1h2.9v4.9h-0.4v-0.4h-4.7v0.5h-0.4V584.7L-890.1,584.7z
		 M-889.7,585.1v1h4.7v-1H-889.7z M-889.7,586.5v1h4.7v-1H-889.7z M-889.7,587.8v1h4.7v-1H-889.7z M-889.3,582.4l0.3-0.2
		c0.1,0.1,0.3,0.3,0.5,0.6c0.1,0.1,0.2,0.2,0.2,0.3l-0.3,0.3C-888.8,583-889.1,582.7-889.3,582.4z"/>
	<path class="st2" d="M-882.5,588.5c0.5-0.8,1-1.8,1.6-3c0.1,0.1,0.3,0.2,0.4,0.3c-0.2,0.3-0.5,0.8-0.9,1.6
		c-0.3,0.6-0.5,1.1-0.7,1.4L-882.5,588.5z M-880.9,584.7c-0.6-0.8-1-1.3-1.3-1.7l0.3-0.2c0.1,0.2,0.3,0.4,0.6,0.7
		c0.3,0.4,0.6,0.7,0.7,0.9L-880.9,584.7z M-878.2,585.3c0-0.1,0-0.2,0-0.3c0-0.2,0-0.4,0-0.5h0.4c0,0.3,0,0.6,0,0.8
		c0.3,1.8,1.2,3.1,2.7,3.8c-0.1,0.1-0.2,0.3-0.3,0.4c-1.4-0.9-2.3-2-2.5-3.5c-0.2,1.5-1.1,2.7-2.8,3.6c0,0-0.1-0.1-0.2-0.2
		c-0.1-0.1-0.1-0.2-0.2-0.2C-879.3,588.3-878.3,587-878.2,585.3z M-876.1,585.7c-0.1-0.1-0.3-0.1-0.4-0.1l0.7-1.5h-3.2
		c-0.1,0.4-0.4,0.9-0.8,1.5c-0.1-0.1-0.2-0.2-0.4-0.2c0.6-0.9,1.1-1.9,1.4-3l0.5,0.1c-0.1,0.5-0.3,0.9-0.5,1.2h3.4v0.4L-876.1,585.7
		z"/>
	<path class="st2" d="M-957.3,598v1.4c0,0.3,0.2,0.4,0.5,0.4h0.8c0.3,0,0.5-0.1,0.6-0.4c0-0.2,0.1-0.5,0.1-0.8c0,0,0.1,0,0.2,0.1
		c0.1,0,0.1,0,0.2,0.1c0,0.3-0.1,0.6-0.1,0.8c-0.1,0.5-0.4,0.7-0.9,0.7h-1c-0.6,0-0.8-0.2-0.8-0.7v-1.1h-2.2v0.1
		c0.1,1.1-0.6,1.7-2.1,1.9c0-0.1-0.1-0.2-0.2-0.4c1.4-0.2,2.1-0.7,1.9-1.5v-0.5L-957.3,598L-957.3,598z M-962.2,593.8h3.4
		c0-0.1-0.1-0.2-0.1-0.3c-0.1-0.2-0.1-0.3-0.1-0.3l0.4-0.1c0,0.1,0.1,0.2,0.1,0.4c0,0.2,0.1,0.3,0.1,0.4h3.3v0.4h-7.1L-962.2,593.8
		L-962.2,593.8z M-962.1,597h6.8v1.1h-0.4v-0.7h-6v0.7h-0.4V597z M-961,594.9h4.7v1.4h-4.7V594.9z M-960.6,595.2v0.7h3.9v-0.7
		H-960.6z"/>
	<path class="st2" d="M-953.6,598.3c0-0.1-0.1-0.1-0.1-0.2c0-0.1-0.1-0.2-0.1-0.2c0.6-0.8,1-1.8,1.3-2.9h-1.2v-0.4h1.2v-1.5h0.4v1.5
		h1.1v0.4h-1.1v1.3l0.2-0.2c0.3,0.3,0.7,0.6,1,1l-0.3,0.3c0,0,0-0.1-0.1-0.1c-0.2-0.3-0.5-0.6-0.8-0.9v4h-0.4v-4.5
		C-952.7,596.8-953.1,597.6-953.6,598.3z M-950.5,593.6h3.9v6.8h-0.4v-0.5h-3v0.5h-0.4L-950.5,593.6L-950.5,593.6z M-950.1,594v1.6
		h3V594H-950.1z M-950.1,596v1.6h3V596H-950.1z M-950.1,598v1.6h3V598H-950.1z"/>
	<path class="st2" d="M-942.9,598.3v0.7c0,0.7-0.2,1.2-0.7,1.5l-0.2-0.2c0.4-0.3,0.7-0.7,0.6-1.2h-0.4v-0.8H-942.9z"/>
	<path class="st2" d="M-933,593.1h0.4v1.2h3.2v0.4h-3.2v1.4h2.7v0.4h-2.7v1.5h3.4v0.4h-3.4v2h-0.4v-2h-3.4V598h3.4v-1.5h-2.7v-0.4
		h2.7v-1.4h-3.2v-0.4h3.2V593.1z"/>
	<path class="st2" d="M-927.5,593.9h3.3c0-0.2-0.1-0.5-0.1-0.8h0.4c0.1,0.3,0.1,0.6,0.1,0.8h3.2v1.4h-0.4v-1h-6v1h-0.4L-927.5,593.9
		L-927.5,593.9z M-927,597.6h5.9v2.8h-0.4V600h-5v0.4h-0.4L-927,597.6L-927,597.6z M-926.6,597.9v0.8h2.3v-0.8H-926.6z M-926.6,599
		v0.7h2.3V599H-926.6z M-926.5,594.8h4.9v0.3h-4.9V594.8z M-926.3,595.7h4.5v1.4h-4.5V595.7z M-925.9,596v0.7h3.7V596H-925.9z
		 M-921.6,597.9h-2.3v0.8h2.3V597.9z M-923.9,599v0.7h2.3V599H-923.9z"/>
	<path class="st2" d="M-918.9,594.4h0.8c0.2-0.5,0.3-0.9,0.4-1.3l0.4,0.1c-0.1,0.4-0.2,0.8-0.4,1.2h1.6v5.9h-0.4v-0.6h-2v0.7h-0.4
		V594.4z M-918.5,594.7v2.1h2v-2.1H-918.5z M-918.5,597.2v2.1h2v-2.1H-918.5z M-915.4,596c0,0-0.1-0.1-0.2-0.1
		c-0.1,0-0.1-0.1-0.2-0.1c0.4-0.7,0.8-1.6,1.2-2.7l0.4,0.1c-0.1,0.4-0.3,0.7-0.4,1.1h2.5c0,0.1,0,0.3,0,0.5c0,1.8-0.1,3.2-0.2,4.2
		c0,0.8-0.4,1.2-1.3,1.2c-0.4,0-0.8,0-1.2,0v-0.1c0-0.2-0.1-0.3-0.1-0.3c0.3,0,0.7,0,1.3,0c0.7,0,1-0.3,1-0.9c0-0.5,0.1-1.6,0.1-3.2
		c0-0.5,0-0.8,0-1h-2.3C-915,595.3-915.2,595.8-915.4,596z M-915,596.4l0.3-0.2c0,0.1,0.1,0.1,0.2,0.2c0.4,0.6,0.8,1,1,1.4l-0.3,0.2
		C-914.2,597.4-914.6,596.9-915,596.4z"/>
	<path class="st2" d="M-903.5,600.2c-2-1-3.1-2.6-3.3-4.8c-0.3,2.2-1.4,3.8-3.4,4.9l-0.1-0.1c-0.1-0.1-0.1-0.2-0.2-0.2
		c1.9-1.1,3.1-2.7,3.3-4.9c0.1-0.4,0.1-1,0.1-1.9h0.5c0,0.1,0,0.3,0,0.6c0,0.3,0,0.5,0,0.6c0.3,2.8,1.5,4.7,3.5,5.5
		c0,0-0.1,0.1-0.2,0.2C-903.4,600.2-903.4,600.2-903.5,600.2z"/>
	<path class="st2" d="M-900.4,593.1h0.4v1.8h0.8v0.4h-0.8v1.8c0.1,0,0.2-0.1,0.4-0.2c0.2-0.1,0.3-0.1,0.4-0.1c0,0.1,0,0.2,0,0.3
		c0-0.1,0-0.1,0,0.1c-0.3,0.1-0.6,0.2-0.9,0.3v2.9h-0.4v-2.8c-0.2,0.1-0.4,0.2-0.7,0.3c-0.3,0.1-0.5,0.2-0.6,0.2l-0.1-0.4
		c0.1,0,0.3-0.1,0.6-0.2c0.4-0.1,0.7-0.2,0.9-0.3v-1.9h-0.8c-0.1,0.4-0.2,0.8-0.3,1.2c-0.1-0.1-0.2-0.1-0.3-0.2
		c0.3-0.7,0.4-1.6,0.5-2.5h0.4c0,0.4-0.1,0.7-0.2,1h0.8L-900.4,593.1L-900.4,593.1z M-899.4,596c0.6-0.9,1.1-1.8,1.4-2.9l0.4,0.1
		c-0.1,0.4-0.3,0.8-0.5,1.2h3.3c-0.1,2.3-0.1,3.8-0.1,4.6c0,0.8-0.4,1.2-1.3,1.2c-0.1,0-0.2,0-0.5,0c-0.2,0-0.4,0-0.5,0
		c0-0.1-0.1-0.3-0.1-0.5c0.3,0,0.7,0,1,0c0.6,0,0.9-0.3,0.9-0.9c0.1-1.1,0.1-2.5,0.1-4.2h-0.7c-0.2,2.6-1.1,4.5-2.6,5.5
		c-0.2-0.2-0.3-0.3-0.3-0.3c1.6-1,2.4-2.8,2.6-5.2h-0.8c-0.2,1.8-1,3.2-2.1,4.2c-0.1-0.1-0.2-0.2-0.3-0.3c1.1-1,1.8-2.3,2.1-3.9
		h-0.7c-0.2,0.6-0.5,1-0.8,1.5C-899.1,596.1-899.2,596-899.4,596z"/>
	<path class="st2" d="M-892.9,595.7c-0.1-0.1-0.2-0.1-0.4-0.2c0.3-0.7,0.7-1.5,0.9-2.5l0.4,0.1c0,0,0,0.1-0.1,0.2
		c0,0.2-0.1,0.4-0.2,0.8h2.4v0.4h-1.2c0,0.9,0,1.5,0,1.9h1.4v0.4h-1.5c0,0.4-0.1,0.7-0.2,1l0.2-0.2c0.1,0.1,0.3,0.3,0.5,0.6
		c0.4,0.5,0.7,0.8,1,1.1l-0.4,0.2c-0.6-0.7-1.1-1.3-1.4-1.6c-0.2,0.9-0.8,1.7-1.6,2.4c-0.1-0.1-0.2-0.2-0.3-0.3
		c1.1-0.8,1.7-1.9,1.8-3.2h-1.6v-0.4h1.7c0-0.4,0-1,0-1.9h-0.9C-892.5,595-892.7,595.3-892.9,595.7z M-889.2,593.9h3.1v6.2h-0.4
		v-0.7h-2.2v0.7h-0.4v-6.2H-889.2z M-888.8,594.3v4.6h2.2v-4.6H-888.8z"/>
	<path class="st2" d="M-883.2,599c0.3-0.2,0.7-0.5,1.2-0.9l0.1,0.5c-0.4,0.3-0.8,0.6-1.3,1c-0.1,0-0.2,0.1-0.3,0.2l-0.3-0.3
		c0.1-0.2,0.2-0.4,0.2-0.7v-2.7h-1v-0.4h1.4L-883.2,599L-883.2,599z M-882.9,594.8c-0.1-0.1-0.2-0.3-0.5-0.5
		c-0.3-0.3-0.6-0.6-0.7-0.7l0.3-0.2c0.1,0.1,0.2,0.3,0.4,0.5c0.4,0.4,0.6,0.7,0.7,0.8L-882.9,594.8z M-880.7,598l0.4,0.2
		c-0.5,0.7-1.1,1.4-1.8,2.2l-0.3-0.3C-881.8,599.5-881.3,598.8-880.7,598z M-881.7,593.6h4v3.7h-4V593.6z M-881.3,594v2.9h3.2V594
		H-881.3z M-879.1,598.2l0.3-0.2c0.6,0.7,1.1,1.4,1.7,2.1l-0.4,0.3C-877.9,599.8-878.4,599.1-879.1,598.2z"/>
	<path class="st2" d="M-962,604.2h6.6v7h-0.4v-0.4h-5.8v0.4h-0.4V604.2L-962,604.2z M-961.6,604.6v5.9h5.8v-5.9H-961.6z
		 M-960.9,606.8c-0.1-0.1-0.1-0.2-0.2-0.3c0.6-0.5,1.2-1.1,1.6-1.7l0.3,0.2c0,0.1-0.1,0.2-0.2,0.3s-0.1,0.1-0.1,0.2h2.8v0.4
		c-0.4,0.5-0.9,0.9-1.4,1.2c0.6,0.2,1.3,0.4,2,0.6c-0.1,0.1-0.1,0.2-0.2,0.4c-0.8-0.2-1.6-0.4-2.2-0.7c-0.7,0.4-1.6,0.7-2.5,0.9
		c-0.1-0.1-0.1-0.2-0.2-0.4c0.9-0.1,1.7-0.4,2.4-0.7c-0.4-0.3-0.8-0.6-1.2-1c-0.1,0-0.2,0.1-0.3,0.2
		C-960.4,606.4-960.5,606.6-960.9,606.8z M-960.6,609.5l0.1-0.4c1.3,0.2,2.4,0.4,3.5,0.6l-0.1,0.4
		C-958.4,609.7-959.6,609.6-960.6,609.5z M-957.2,605.8h-2.6l0,0c0.4,0.4,0.8,0.8,1.3,1C-958,606.6-957.5,606.2-957.2,605.8z
		 M-959.8,608.4l0.1-0.4c0.2,0,0.6,0.1,1.1,0.2s0.9,0.2,1.1,0.2l-0.1,0.3C-958.3,608.6-959,608.5-959.8,608.4z"/>
	<path class="st2" d="M-952.5,610.2c0,0,0.1-0.1,0.3-0.2c0.3-0.3,0.4-0.5,0.6-0.6c0,0.1,0,0.1,0.1,0.2c0,0.1,0,0.2,0,0.2
		c-0.6,0.5-1,0.8-1.3,1.1l-0.3-0.4c0.2-0.1,0.3-0.4,0.2-0.6v-3h-0.9v-0.4h1.3V610.2L-952.5,610.2z M-952.5,605.4
		c-0.3-0.4-0.6-0.8-0.9-1.1l0.3-0.2c0.2,0.2,0.4,0.5,0.8,0.9c0.1,0.1,0.1,0.1,0.1,0.1L-952.5,605.4z M-951.6,604.9h1.5
		c-0.1-0.1-0.3-0.3-0.5-0.6c-0.1-0.1-0.1-0.1-0.2-0.2l0.3-0.2c0.1,0.1,0.2,0.2,0.4,0.4c0.2,0.2,0.3,0.3,0.4,0.4l-0.3,0.2h1.3
		c0-0.1,0.1-0.2,0.2-0.3c0.3-0.3,0.5-0.6,0.6-0.7l0.3,0.2c-0.1,0.1-0.2,0.2-0.4,0.5c-0.1,0.1-0.2,0.3-0.3,0.3h1.5v0.3h-1.6v1.8h1.9
		v0.3h-5.6V607h1.9v-1.8h-1.6v-0.3H-951.6z M-951.5,605.7l0.3-0.2c0.3,0.3,0.6,0.5,0.8,0.8l-0.3,0.2c0,0-0.1-0.1-0.1-0.2
		C-951.2,606.1-951.4,605.9-951.5,605.7z M-951.1,608.1h3.9v3.2h-0.4v-0.4h-3.1v0.4h-0.4V608.1z M-950.6,608.4v0.9h3.1v-0.9H-950.6z
		 M-950.6,609.7v0.9h3.1v-0.9H-950.6z M-949.6,605.2v1.8h1v-1.8H-949.6z M-947.8,606.4c0.3-0.3,0.6-0.5,0.8-0.8l0.3,0.2
		c-0.3,0.3-0.6,0.6-0.8,0.9L-947.8,606.4z"/>
	<path class="st2" d="M-943.5,603.8v0.7c0,0.7-0.2,1.3-0.7,1.6l-0.2-0.2c0.4-0.3,0.7-0.7,0.6-1.3h-0.4v-0.8H-943.5L-943.5,603.8z
		 M-942.3,603.8v0.7c0,0.7-0.2,1.2-0.8,1.6l-0.2-0.2c0.4-0.3,0.6-0.7,0.6-1.3h-0.4v-0.8H-942.3L-942.3,603.8z"/>
</g>
<g>
	<g>
		<g>
			<path class="st0" d="M-424.9,276.6c-39,0-70.7,17.8-70.7,39.8c0,13.7,12.3,25.8,30.9,32.9c0,0,0.3,0.1,1,0.4
				c-0.7,5.2-5.6,10.6-7.9,13.5h0c-0.2,0.3-0.3,0.7-0.3,1.1c0,1.4,23.8-5.9,31-9.3c5,0.7,10.4,1.2,16,1.2c39,0,70.7-17.8,70.7-39.8
				C-354.2,294.4-385.8,276.6-424.9,276.6z"/>
			<path class="st1" d="M-471.3,365c-0.9,0-1-0.4-1-0.7c0-0.4,0.1-0.9,0.3-1.3c0,0,0-0.1,0.1-0.1c0.3-0.4,0.7-0.9,1.1-1.4
				c2.3-2.9,5.8-7.2,6.6-11.4c-0.3-0.1-0.5-0.2-0.6-0.2c-19.6-7.5-31.3-20-31.3-33.4c0-22.2,31.9-40.3,71.2-40.3
				s71.2,18.1,71.2,40.3c0,22.2-31.9,40.3-71.2,40.3c-5,0-10.4-0.4-15.9-1.2C-447.4,358.7-467.8,365-471.3,365z M-471,363.4
				C-471,363.4-471,363.4-471,363.4c-0.1,0.2-0.2,0.4-0.2,0.5c3.6,0,23.8-6.3,30.2-9.4c0.1,0,0.2-0.1,0.3,0
				c5.5,0.8,10.9,1.2,15.9,1.2c38.7,0,70.2-17.6,70.2-39.3c0-21.7-31.5-39.3-70.2-39.3s-70.2,17.6-70.2,39.3
				c0,13,11.4,25.1,30.6,32.5c0,0,0,0,0.1,0c0.1,0,0.4,0.2,0.9,0.3c0.2,0.1,0.4,0.3,0.3,0.5c-0.6,4.6-4.4,9.3-6.9,12.3
				C-470.4,362.6-470.7,363-471,363.4z"/>
		</g>
		<g>
			<path class="st1" d="M-416.7,347.3v-1c25.1,0,47.1-9.8,52.3-23.4l0.9,0.4C-368.8,337.2-391.1,347.3-416.7,347.3z"/>
		</g>
	</g>
	<g>
		<path class="st3" d="M-471.6,308.6V308c0-0.7,0.3-1.2,0.8-1.6l0.2,0.2c-0.4,0.3-0.6,0.8-0.6,1.3h0.4v0.8H-471.6z M-470.4,308.6
			V308c0-0.7,0.3-1.2,0.8-1.6l0.2,0.2c-0.4,0.3-0.6,0.8-0.6,1.3h0.4v0.8H-470.4z"/>
		<path class="st3" d="M-460.5,309.6c-1.5-0.7-2.6-1.5-3.3-2.5c-0.9,1-2.1,1.9-3.5,2.6c-0.1-0.1-0.2-0.3-0.3-0.4
			c1.6-0.8,2.9-1.7,3.8-2.9l0.5,0.1c-0.1,0.1-0.1,0.2-0.2,0.2c0.7,1,1.9,1.8,3.4,2.4C-460.3,309.3-460.4,309.4-460.5,309.6z
			 M-461.3,313.9c-0.1-0.1-0.2-0.2-0.3-0.3c-0.1-0.1-0.2-0.2-0.2-0.2c-1.7,0-3,0.1-4,0.2c0,0-0.1,0-0.2,0c-0.2,0-0.3,0-0.4,0.1
			l-0.3-0.5c0.2-0.1,0.3-0.2,0.6-0.3c0.5-0.5,1-1,1.5-1.6h-2.7v-0.4h6.9v0.4h-3.6c-0.6,0.7-1.2,1.3-1.8,1.9c1.3-0.1,2.5-0.1,3.7-0.2
			c-0.1,0-0.2-0.1-0.3-0.2c-0.1-0.1-0.3-0.3-0.6-0.6l0.3-0.2c0.8,0.8,1.4,1.3,1.8,1.7L-461.3,313.9z M-466,309.3h4.1v0.4h-4.1V309.3
			z"/>
		<path class="st3" d="M-458.6,307.4h1.8v5.3h-0.4v-0.5h-1v0.6h-0.4V307.4z M-458.2,307.8v4.1h1v-4.1H-458.2z M-456.1,310.6h4.1v3.3
			h-0.4v-0.4h-3.3v0.4h-0.4V310.6z M-455.9,306.9h3.6v2.9h-3.6V306.9z M-455.7,310.9v1h3.3v-1H-455.7z M-455.7,312.2v0.9h3.3v-0.9
			H-455.7z M-455.5,307.2v0.9h2.8v-0.9H-455.5z M-455.5,308.5v0.9h2.8v-0.9H-455.5z"/>
		<path class="st3" d="M-450.3,310h4.3v0.4h-0.7v2.7c0,0.5-0.2,0.8-0.7,0.8c-0.3,0-0.5,0-0.8,0c0-0.1,0-0.3-0.1-0.4
			c0.1,0,0.2,0,0.3,0c0.2,0,0.3,0,0.4,0c0.3,0,0.5-0.1,0.5-0.5v-2.6h-3.2V310z M-450.2,306.9h4.1v0.4h-0.6v2.4h-0.4v-2.4h-3.1V306.9
			z M-450,311.1h2v1.6h-1.6v0.3h-0.4V311.1z M-449.9,307.9h2v1.5h-2V307.9z M-449.6,311.4v0.9h1.3v-0.9H-449.6z M-449.5,308.2v0.8
			h1.2v-0.8H-449.5z M-445.1,310.7c0.1-0.5,0.2-1.2,0.2-2.1h0.4c0,0.5,0,0.9-0.1,1.3c0.3,1.6,0.8,2.7,1.7,3.5
			c-0.1,0.1-0.2,0.2-0.3,0.3c-0.8-0.8-1.3-1.8-1.5-3c-0.1,1.2-0.6,2.2-1.6,3.1c0,0-0.1-0.1-0.1-0.2c-0.1-0.1-0.1-0.1-0.2-0.2
			C-445.7,312.8-445.2,311.8-445.1,310.7z M-445.9,309.4c-0.1-0.1-0.2-0.1-0.4-0.2c0.5-0.9,0.8-1.8,1-2.7l0.4,0.1
			c0,0.1-0.1,0.3-0.2,0.5c-0.1,0.2-0.1,0.4-0.2,0.5h2.2v0.4l-0.4,1.3c-0.1,0-0.2-0.1-0.4-0.1l0.4-1.3h-2
			C-445.5,308.5-445.7,309-445.9,309.4z"/>
		<path class="st3" d="M-439.5,311.8v0.7c0,0.7-0.2,1.2-0.7,1.5l-0.2-0.2c0.4-0.3,0.7-0.7,0.6-1.2h-0.4v-0.8H-439.5z"/>
		<path class="st3" d="M-425.9,309.6c-1.5-0.7-2.6-1.5-3.3-2.5c-0.9,1-2.1,1.9-3.5,2.6c-0.1-0.1-0.2-0.3-0.3-0.4
			c1.6-0.8,2.9-1.7,3.8-2.9l0.5,0.1c-0.1,0.1-0.1,0.2-0.2,0.2c0.7,1,1.9,1.8,3.4,2.4C-425.7,309.3-425.8,309.4-425.9,309.6z
			 M-426.7,313.9c-0.1-0.1-0.2-0.2-0.3-0.3c-0.1-0.1-0.2-0.2-0.2-0.2c-1.7,0-3,0.1-4,0.2c0,0-0.1,0-0.2,0c-0.2,0-0.3,0-0.4,0.1
			l-0.3-0.5c0.2-0.1,0.3-0.2,0.6-0.3c0.5-0.5,1-1,1.5-1.6h-2.7v-0.4h6.9v0.4h-3.6c-0.6,0.7-1.2,1.3-1.8,1.9c1.3-0.1,2.5-0.1,3.7-0.2
			c-0.1,0-0.2-0.1-0.3-0.2c-0.1-0.1-0.3-0.3-0.6-0.6l0.3-0.2c0.8,0.8,1.4,1.3,1.8,1.7L-426.7,313.9z M-431.4,309.3h4.1v0.4h-4.1
			V309.3z"/>
		<path class="st3" d="M-420.1,309.6h0.4c0,0.9-0.1,1.6-0.3,2h2.8v0.4h-3c-0.1,0.1-0.1,0.2-0.2,0.3c0.4,0.1,0.9,0.3,1.6,0.6
			c0.7,0.2,1.2,0.4,1.6,0.6l-0.2,0.4c-0.9-0.4-1.9-0.8-3.2-1.3c-0.5,0.6-1.7,1-3.6,1.4c0-0.1-0.1-0.1-0.1-0.2c0-0.1-0.1-0.1-0.1-0.2
			c2.1-0.3,3.3-0.8,3.7-1.5h-3.6v-0.4h3.8C-420.2,311.2-420.1,310.5-420.1,309.6z M-420.9,306.6h0.4v0.8h2.9v0.4h-2.9v1h3.2v0.4
			l-0.6,1c-0.1-0.1-0.2-0.1-0.4-0.2l0.5-0.9h-6.4v-0.4h3.2v-1h-2.7v-0.4h2.7V306.6z M-421.7,311.3c-0.7-0.2-1.3-0.4-2-0.6l0.2-0.3
			c0.8,0.2,1.5,0.4,2,0.6L-421.7,311.3z M-421.2,310.4c-0.3-0.1-0.8-0.2-1.4-0.4c-0.2-0.1-0.4-0.1-0.6-0.2l0.2-0.3
			c0.3,0.1,0.7,0.2,1.3,0.4c0.2,0.1,0.4,0.1,0.6,0.2L-421.2,310.4z"/>
		<path class="st3" d="M-410.8,306.6h0.4v0.8h2v0.4h-2v0.6h-0.4v-0.6h-2.4v0.6h-0.4v-0.6h-2v-0.4h2v-0.8h0.4v0.8h2.4V306.6z
			 M-415.2,308.8h2.2v3.7h-1.8v0.5h-0.4V308.8z M-414.8,309.2v1.3h1.4v-1.3H-414.8z M-414.8,312.2h1.4v-1.3h-1.4V312.2z
			 M-409.9,313.3c0.4,0,0.6-0.1,0.6-0.5v-0.9h-2.5c-0.1,0.8-0.6,1.5-1.4,2c-0.1-0.1-0.2-0.2-0.3-0.3c0.6-0.4,0.9-0.8,1.1-1.2
			c0.2-0.4,0.3-1.1,0.3-2.1v-1.5h3.2v4.1c0,0.6-0.3,0.9-1,0.9c-0.1,0-0.3,0-0.6,0c-0.2,0-0.4,0-0.5,0c0,0,0-0.1,0-0.2
			c0-0.1,0-0.2-0.1-0.3C-410.6,313.3-410.2,313.3-409.9,313.3z M-411.7,310.5c0,0.4,0,0.7-0.1,1h2.5v-1H-411.7z M-411.7,309.1v1h2.4
			v-1H-411.7z"/>
		<path class="st3" d="M-404.9,311.8v0.7c0,0.7-0.2,1.2-0.7,1.5l-0.2-0.2c0.4-0.3,0.7-0.7,0.6-1.2h-0.4v-0.8H-404.9z"/>
		<path class="st3" d="M-396.1,311.3c0,0.6-0.2,1-0.7,1c-0.2,0-0.4,0-0.7,0c0-0.1,0-0.3-0.1-0.4c0.2,0,0.4,0,0.6,0
			c0.3,0,0.5-0.2,0.5-0.7c0-0.6-0.2-1.2-0.7-1.7l0.7-2.2h-1.3v6.5h-0.4V307h2.1v0.4l-0.7,2.1C-396.3,310.1-396,310.7-396.1,311.3z
			 M-395.9,309.7h2.8c0.3-0.5,0.6-1,1-1.4l0.4,0.2c-0.2,0.4-0.5,0.8-0.9,1.2h1.7v0.4h-4.9V309.7z M-393.9,306.7l0.3-0.2
			c0.2,0.3,0.4,0.6,0.6,0.9l-0.3,0.2h2.1v0.4h-4.3v-0.4h2.1C-393.6,307.3-393.8,307-393.9,306.7z M-395.4,311h3.7v2.9h-0.4v-0.5
			h-2.9v0.5h-0.4V311z M-395.1,308.5l0.3-0.2c0.1,0.1,0.2,0.3,0.4,0.5c0.2,0.2,0.3,0.4,0.4,0.5l-0.3,0.2c-0.1-0.1-0.2-0.3-0.4-0.5
			C-394.8,308.7-395,308.6-395.1,308.5z M-395,311.3v1.7h2.9v-1.7H-395z"/>
		<path class="st3" d="M-389.6,310.7C-389.6,310.7-389.6,310.7-389.6,310.7c-0.1-0.2-0.1-0.3-0.2-0.5c0.8-1.1,1.4-2.3,1.8-3.7
			l0.4,0.2c-0.2,0.6-0.5,1.2-0.7,1.8v5.4h-0.4v-4.6C-389,309.9-389.3,310.3-389.6,310.7z M-385.3,306.6h0.4v2.9h2.1v0.4h-2.1v1.4
			h2.5v0.4h-2.5v2.2h-0.4v-2.2h-2.4v-0.4h2.4v-1.4h-2.1v-0.4h2.1V306.6z M-387.4,307.6l0.3-0.2c0.4,0.4,0.7,0.9,1,1.4l-0.4,0.2
			C-386.8,308.3-387.1,307.9-387.4,307.6z M-383.8,309l-0.3-0.2c0.4-0.5,0.8-1,1.1-1.4l0.4,0.2c-0.1,0.1-0.2,0.2-0.3,0.3
			C-383.3,308.4-383.6,308.7-383.8,309z"/>
		<path class="st3" d="M-467.3,322l-0.1-0.5c0.4-0.1,0.8-0.3,1.2-0.4v-1.3l1.1-1.5h-2.1V318h2.6v0.5l-1.1,1.5v1
			c0.1,0,0.4-0.1,0.7-0.2c0.1,0,0.2-0.1,0.3-0.1c0,0.2,0,0.3,0,0.4c-0.3,0.1-0.6,0.2-1,0.3v2.4c0,0.5-0.3,0.7-0.8,0.8
			c-0.2,0-0.5,0-0.7,0c0,0,0-0.1,0-0.2c0-0.1,0-0.2,0-0.2c0.1,0,0.3,0,0.6,0c0.3,0,0.5-0.1,0.5-0.4v-2.2c-0.1,0-0.4,0.1-0.7,0.2
			C-467.1,321.9-467.2,322-467.3,322z M-464.7,323.4c0-0.1-0.1-0.1-0.2-0.2c0-0.1-0.1-0.1-0.1-0.1c1.1-0.5,2-1.2,2.7-2.1
			c-0.5,0-1,0.1-1.4,0.1c-0.2,0-0.4,0.1-0.6,0.1l-0.2-0.4c0.1-0.1,0.2-0.2,0.3-0.3c0.4-0.4,0.8-0.9,1.2-1.6h-1.5v-0.4h4.4v0.4h-2.4
			c-0.5,0.7-0.9,1.3-1.4,1.8c0.2,0,0.7-0.1,1.3-0.1c0.3,0,0.5,0,0.6,0c0.2-0.3,0.3-0.6,0.5-0.9l0.4,0.2
			C-461.9,321.4-463.1,322.6-464.7,323.4z M-464.3,324.7c-0.1-0.1-0.2-0.2-0.3-0.4c1.7-0.7,3-1.8,3.9-3.3l0.4,0.2
			c-0.4,0.7-0.9,1.3-1.4,1.7c0.2,0.1,0.4,0.4,0.8,0.6c0.4,0.3,0.6,0.5,0.8,0.6l-0.4,0.4c-0.3-0.3-0.8-0.7-1.4-1.2
			c-0.1,0-0.1-0.1-0.1-0.1C-462.6,323.8-463.4,324.3-464.3,324.7z M-462.7,317.5l0.4-0.2c0,0.1,0.1,0.2,0.2,0.4
			c0.1,0.2,0.2,0.4,0.3,0.6l-0.4,0.2c-0.1-0.1-0.1-0.2-0.2-0.4C-462.5,317.8-462.6,317.6-462.7,317.5z"/>
		<path class="st3" d="M-455.1,320l2.4-1.7h-5.1v-0.4h5.8v0.5l-2.6,1.8v0.7h3.4v0.4h-3.4v2.4c0,0.6-0.3,0.9-1,0.9
			c-0.2,0-0.6,0-1.1,0c0-0.2,0-0.4-0.1-0.5c0.3,0,0.6,0,1.1,0s0.7-0.2,0.6-0.6v-2.3h-3.6v-0.4h3.6V320z"/>
		<path class="st3" d="M-446.4,321.8l1.7-1h-3.8v-0.4h4.3v0.5l-1.8,1v0.3h3.3v0.4h-3.3v1.1c0,0.6-0.3,0.9-0.9,0.9c-0.3,0-0.6,0-1,0
			c0,0,0-0.1,0-0.2c0-0.1,0-0.3-0.1-0.3c0.3,0,0.6,0,1,0c0.4,0,0.6-0.1,0.6-0.5v-1h-3.6v-0.4h3.6V321.8z M-449.8,319.1h6.8v1.4h-0.4
			v-1h-6v1h-0.4V319.1z M-449.2,317.8l0.3-0.2c0.4,0.4,0.7,0.8,0.9,1.1l-0.4,0.3C-448.5,318.6-448.8,318.2-449.2,317.8z
			 M-447.1,317.6l0.4-0.2c0.3,0.4,0.6,0.8,0.8,1.2l-0.4,0.2C-446.5,318.3-446.8,317.9-447.1,317.6z M-444.7,319l-0.4-0.3
			c0.4-0.4,0.7-0.8,1-1.2l0.4,0.3c-0.1,0.1-0.3,0.3-0.5,0.6C-444.3,318.6-444.5,318.8-444.7,319z"/>
		<path class="st3" d="M-440.9,323.4l-0.2-0.5c2-0.6,3.7-1.2,5.1-1.7c0,0.2,0,0.4,0.1,0.5C-437.9,322.3-439.5,322.9-440.9,323.4z
			 M-440.9,318.1h6.2c0,0.2,0,0.4,0,0.7c0,1.8-0.1,3.1-0.1,4c0,1.1-0.6,1.7-1.7,1.7c-0.3,0-0.8,0-1.4,0c0-0.2-0.1-0.4-0.1-0.5
			c0.3,0,0.8,0,1.4,0c0.9,0.1,1.4-0.4,1.3-1.3c0.1-1.6,0.1-3.1,0.1-4.3h-5.8V318.1z M-440.1,319.7l0.2-0.4c1.1,0.5,1.9,0.9,2.5,1.2
			l-0.2,0.4C-438.6,320.4-439.4,320-440.1,319.7z"/>
		<path class="st3" d="M-432.5,318.7h0.8c0.2-0.5,0.3-0.9,0.4-1.3l0.4,0.1c-0.1,0.4-0.2,0.8-0.4,1.2h1.6v5.9h-0.4V324h-2v0.7h-0.4
			V318.7z M-432.1,319v2.1h2V319H-432.1z M-432.1,321.5v2.1h2v-2.1H-432.1z M-429,320.3c0,0-0.1-0.1-0.2-0.1c-0.1,0-0.1-0.1-0.2-0.1
			c0.4-0.7,0.8-1.6,1.2-2.7l0.4,0.1c-0.1,0.4-0.3,0.7-0.4,1.1h2.5c0,0.1,0,0.3,0,0.5c0,1.8-0.1,3.2-0.2,4.2c0,0.8-0.4,1.2-1.3,1.2
			c-0.4,0-0.8,0-1.2,0c0,0,0-0.1,0-0.1c0-0.2-0.1-0.3-0.1-0.3c0.3,0,0.7,0,1.3,0c0.7,0,1-0.3,1-0.9c0-0.5,0.1-1.6,0.1-3.2
			c0-0.5,0-0.8,0-1h-2.3C-428.6,319.6-428.9,320.1-429,320.3z M-428.7,320.7l0.3-0.2c0,0.1,0.1,0.1,0.2,0.2c0.4,0.6,0.8,1,1,1.4
			l-0.3,0.2C-427.9,321.8-428.3,321.2-428.7,320.7z"/>
		<path class="st3" d="M-422.4,319.2l0.5,0.2c-0.5,1.4-1.1,2.6-1.7,3.8c-0.1-0.1-0.3-0.2-0.5-0.2
			C-423.5,321.8-422.9,320.6-422.4,319.2z M-420.6,317.5h0.5v6.2c0,0.6-0.3,0.9-1,0.9c-0.3,0-0.7,0-1,0c0-0.1-0.1-0.3-0.1-0.5
			c0.3,0,0.7,0,1,0c0.5,0,0.7-0.2,0.7-0.6V317.5z M-419,319.4l0.4-0.2c0.4,0.7,1,1.9,1.8,3.6l-0.5,0.2
			C-417.7,321.8-418.3,320.6-419,319.4z"/>
		<path class="st3" d="M-415.4,324.3l-0.1-0.4c0.3,0,0.6,0,0.9,0v-2.9h0.4v2.9c0.4-0.1,0.8-0.1,1.3-0.1v-3.3h0.4v1.2h1.4v0.4h-1.4
			v1.7c0.6-0.1,1.1-0.1,1.7-0.2c0,0.1,0,0.3,0,0.4c-0.1,0-0.3,0-0.5,0C-413,324-414.4,324.2-415.4,324.3z M-410.8,317.4h0.4
			c0,0.9,0,1.7,0,2.3h2.3v0.4h-2.3c0,1.1,0.2,2,0.3,2.7c0.2,1,0.6,1.5,1,1.5c0.2,0,0.3-0.1,0.4-0.4c0.1-0.3,0.1-0.6,0.1-1
			c0,0,0.1,0.1,0.3,0.1c0.1,0,0.1,0,0.1,0c0,0.4-0.1,0.7-0.2,1c-0.1,0.5-0.3,0.7-0.7,0.7c-0.7,0-1.1-0.5-1.4-1.7
			c-0.2-0.8-0.3-1.8-0.4-2.9h-4.7v-0.4h4.7C-410.8,319.1-410.8,318.4-410.8,317.4z M-414.8,318.1h3.3v0.4h-3.3V318.1z M-409.9,318.2
			l0.3-0.3c0.4,0.3,0.8,0.6,1.2,0.9l-0.3,0.3C-409.2,318.8-409.5,318.5-409.9,318.2z"/>
		<path class="st3" d="M-406.7,322.6c0,0-0.1-0.1-0.1-0.2c0-0.1-0.1-0.2-0.1-0.2c0.6-0.7,1-1.7,1.3-2.9h-1.1v-0.4h1.1v-1.5h0.4v1.5
			h1.1v0.4h-1.1v1.3l0.2-0.2c0.4,0.4,0.8,0.7,1,1l-0.3,0.3c-0.1-0.1-0.3-0.3-0.6-0.5c-0.2-0.2-0.3-0.3-0.4-0.4v4.1h-0.4v-4.6
			C-405.9,321.2-406.3,322.1-406.7,322.6z M-403,318.3v2.2c0,1.2-0.1,2-0.3,2.6c-0.2,0.5-0.5,1.1-1.1,1.6c-0.1-0.1-0.2-0.2-0.4-0.3
			c0.6-0.5,1-1,1.1-1.5c0.2-0.5,0.2-1.3,0.2-2.4v-2.5h2.6v5.8c0,0.3,0.1,0.4,0.3,0.4h0.2c0.3,0,0.4-0.1,0.5-0.4
			c0.1-0.3,0.1-0.7,0.1-1.2c0.1,0.1,0.3,0.1,0.4,0.2c0,0.6-0.1,1-0.1,1.2c-0.1,0.5-0.3,0.7-0.8,0.7h-0.3c-0.5,0-0.7-0.2-0.7-0.7
			v-5.4H-403z"/>
		<path class="st3" d="M-391,322.2c-1.8-0.1-2.9-0.5-3.4-1.4h-0.2c-0.2,0.7-1.3,1.2-3.4,1.4c0,0-0.1-0.1-0.1-0.2
			c-0.1-0.1-0.1-0.1-0.1-0.2c1.9-0.2,2.9-0.6,3.2-1.1h-2.9v-0.3h3.1c0.1-0.2,0.1-0.4,0.1-0.6h0.4c0,0.2-0.1,0.5-0.1,0.6h1.6
			c-0.1-0.1-0.2-0.3-0.3-0.5l0.4-0.2c0.1,0.2,0.2,0.4,0.4,0.7h1.5v0.3h-3c0.5,0.6,1.5,1,3.2,1c0,0-0.1,0.1-0.2,0.3
			C-391,322.1-391,322.2-391,322.2z M-397.6,317.8h2.5v1.9h-2.5V317.8z M-397.6,322.4h2.5v2.2h-0.4v-0.4h-1.8v0.4h-0.4V322.4z
			 M-397.2,318.1v1.2h1.8v-1.2H-397.2z M-397.2,322.8v1.2h1.8v-1.2H-397.2z M-394,317.8h2.5v1.9h-2.5V317.8z M-394,322.4h2.6v2.3
			h-0.4v-0.4h-1.8v0.4h-0.4V322.4z M-393.6,318.1v1.2h1.8v-1.2H-393.6z M-393.6,322.8v1.2h1.8v-1.2H-393.6z"/>
		<path class="st3" d="M-382.5,324.5c-2-1-3.1-2.6-3.3-4.8c-0.3,2.2-1.4,3.8-3.4,4.9c0,0-0.1-0.1-0.1-0.1c-0.1-0.1-0.1-0.2-0.2-0.2
			c1.9-1.1,3.1-2.7,3.3-4.9c0.1-0.4,0.1-1,0.1-1.9h0.5c0,0.1,0,0.3,0,0.6c0,0.3,0,0.5,0,0.6c0.3,2.8,1.5,4.7,3.5,5.5
			c0,0-0.1,0.1-0.2,0.2C-382.4,324.5-382.5,324.5-382.5,324.5z"/>
		<path class="st3" d="M-379.3,317.3v0.7c0,0.7-0.2,1.3-0.7,1.6l-0.2-0.2c0.4-0.3,0.7-0.7,0.6-1.3h-0.4v-0.8H-379.3z M-378.1,317.3
			v0.7c0,0.7-0.2,1.2-0.8,1.6l-0.2-0.2c0.4-0.3,0.6-0.7,0.6-1.3h-0.4v-0.8H-378.1z"/>
	</g>
</g>
</svg>
