<?xml version="1.0" encoding="utf-8"?>
<!-- Generator: Adobe Illustrator 19.0.0, SVG Export Plug-In . SVG Version: 6.00 Build 0)  -->
<svg version="1.1" id="图层_1" xmlns="http://www.w3.org/2000/svg" xmlns:xlink="http://www.w3.org/1999/xlink" x="0px" y="0px"
	 viewBox="-496 276.1 142.3 88.9" style="enable-background:new -496 276.1 142.3 88.9;" xml:space="preserve">
<style type="text/css">
	.st0{fill:#FFFFFF;}
	.st1{fill:#C9CACA;}
	.st2{fill:#8A8A8A;}
</style>
<g>
	<g>
		<g>
			<path class="st0" d="M-424.9,276.6c-39,0-70.7,17.8-70.7,39.8c0,13.7,12.3,25.8,30.9,32.9c0,0,0.3,0.1,1,0.4
				c-0.7,5.2-5.6,10.6-7.9,13.5h0c-0.2,0.3-0.3,0.7-0.3,1.1c0,1.4,23.8-5.9,31-9.3c5,0.7,10.4,1.2,16,1.2c39,0,70.7-17.8,70.7-39.8
				C-354.2,294.4-385.8,276.6-424.9,276.6z"/>
			<path class="st1" d="M-471.3,365c-0.9,0-1-0.4-1-0.7c0-0.4,0.1-0.9,0.3-1.3c0,0,0-0.1,0.1-0.1c0.3-0.4,0.7-0.9,1.1-1.4
				c2.3-2.9,5.8-7.2,6.6-11.4c-0.3-0.1-0.5-0.2-0.6-0.2c-19.6-7.5-31.3-20-31.3-33.4c0-22.2,31.9-40.3,71.2-40.3
				s71.2,18.1,71.2,40.3c0,22.2-31.9,40.3-71.2,40.3c-5,0-10.4-0.4-15.9-1.2C-447.4,358.7-467.8,365-471.3,365z M-471,363.4
				C-471,363.4-471,363.4-471,363.4c-0.1,0.2-0.2,0.4-0.2,0.5c3.6,0,23.8-6.3,30.2-9.4c0.1,0,0.2-0.1,0.3,0
				c5.5,0.8,10.9,1.2,15.9,1.2c38.7,0,70.2-17.6,70.2-39.3c0-21.7-31.5-39.3-70.2-39.3s-70.2,17.6-70.2,39.3
				c0,13,11.4,25.1,30.6,32.5c0,0,0,0,0.1,0c0.1,0,0.4,0.2,0.9,0.3c0.2,0.1,0.4,0.3,0.3,0.5c-0.6,4.6-4.4,9.3-6.9,12.3
				C-470.4,362.6-470.7,363-471,363.4z"/>
		</g>
		<g>
			<path class="st1" d="M-416.7,347.3v-1c25.1,0,47.1-9.8,52.3-23.4l0.9,0.4C-368.8,337.2-391.1,347.3-416.7,347.3z"/>
		</g>
	</g>
	<g>
		<path class="st2" d="M-471.6,308.6V308c0-0.7,0.3-1.2,0.8-1.6l0.2,0.2c-0.4,0.3-0.6,0.8-0.6,1.3h0.4v0.8H-471.6z M-470.4,308.6
			V308c0-0.7,0.3-1.2,0.8-1.6l0.2,0.2c-0.4,0.3-0.6,0.8-0.6,1.3h0.4v0.8H-470.4z"/>
		<path class="st2" d="M-460.5,309.6c-1.5-0.7-2.6-1.5-3.3-2.5c-0.9,1-2.1,1.9-3.5,2.6c-0.1-0.1-0.2-0.3-0.3-0.4
			c1.6-0.8,2.9-1.7,3.8-2.9l0.5,0.1c-0.1,0.1-0.1,0.2-0.2,0.2c0.7,1,1.9,1.8,3.4,2.4C-460.3,309.3-460.4,309.4-460.5,309.6z
			 M-461.3,313.9c-0.1-0.1-0.2-0.2-0.3-0.3c-0.1-0.1-0.2-0.2-0.2-0.2c-1.7,0-3,0.1-4,0.2c0,0-0.1,0-0.2,0c-0.2,0-0.3,0-0.4,0.1
			l-0.3-0.5c0.2-0.1,0.3-0.2,0.6-0.3c0.5-0.5,1-1,1.5-1.6h-2.7v-0.4h6.9v0.4h-3.6c-0.6,0.7-1.2,1.3-1.8,1.9c1.3-0.1,2.5-0.1,3.7-0.2
			c-0.1,0-0.2-0.1-0.3-0.2c-0.1-0.1-0.3-0.3-0.6-0.6l0.3-0.2c0.8,0.8,1.4,1.3,1.8,1.7L-461.3,313.9z M-466,309.3h4.1v0.4h-4.1V309.3
			z"/>
		<path class="st2" d="M-458.6,307.4h1.8v5.3h-0.4v-0.5h-1v0.6h-0.4V307.4z M-458.2,307.8v4.1h1v-4.1H-458.2z M-456.1,310.6h4.1v3.3
			h-0.4v-0.4h-3.3v0.4h-0.4V310.6z M-455.9,306.9h3.6v2.9h-3.6V306.9z M-455.7,310.9v1h3.3v-1H-455.7z M-455.7,312.2v0.9h3.3v-0.9
			H-455.7z M-455.5,307.2v0.9h2.8v-0.9H-455.5z M-455.5,308.5v0.9h2.8v-0.9H-455.5z"/>
		<path class="st2" d="M-450.3,310h4.3v0.4h-0.7v2.7c0,0.5-0.2,0.8-0.7,0.8c-0.3,0-0.5,0-0.8,0c0-0.1,0-0.3-0.1-0.4
			c0.1,0,0.2,0,0.3,0c0.2,0,0.3,0,0.4,0c0.3,0,0.5-0.1,0.5-0.5v-2.6h-3.2V310z M-450.2,306.9h4.1v0.4h-0.6v2.4h-0.4v-2.4h-3.1V306.9
			z M-450,311.1h2v1.6h-1.6v0.3h-0.4V311.1z M-449.9,307.9h2v1.5h-2V307.9z M-449.6,311.4v0.9h1.3v-0.9H-449.6z M-449.5,308.2v0.8
			h1.2v-0.8H-449.5z M-445.1,310.7c0.1-0.5,0.2-1.2,0.2-2.1h0.4c0,0.5,0,0.9-0.1,1.3c0.3,1.6,0.8,2.7,1.7,3.5
			c-0.1,0.1-0.2,0.2-0.3,0.3c-0.8-0.8-1.3-1.8-1.5-3c-0.1,1.2-0.6,2.2-1.6,3.1c0,0-0.1-0.1-0.1-0.2c-0.1-0.1-0.1-0.1-0.2-0.2
			C-445.7,312.8-445.2,311.8-445.1,310.7z M-445.9,309.4c-0.1-0.1-0.2-0.1-0.4-0.2c0.5-0.9,0.8-1.8,1-2.7l0.4,0.1
			c0,0.1-0.1,0.3-0.2,0.5c-0.1,0.2-0.1,0.4-0.2,0.5h2.2v0.4l-0.4,1.3c-0.1,0-0.2-0.1-0.4-0.1l0.4-1.3h-2
			C-445.5,308.5-445.7,309-445.9,309.4z"/>
		<path class="st2" d="M-439.5,311.8v0.7c0,0.7-0.2,1.2-0.7,1.5l-0.2-0.2c0.4-0.3,0.7-0.7,0.6-1.2h-0.4v-0.8H-439.5z"/>
		<path class="st2" d="M-425.9,309.6c-1.5-0.7-2.6-1.5-3.3-2.5c-0.9,1-2.1,1.9-3.5,2.6c-0.1-0.1-0.2-0.3-0.3-0.4
			c1.6-0.8,2.9-1.7,3.8-2.9l0.5,0.1c-0.1,0.1-0.1,0.2-0.2,0.2c0.7,1,1.9,1.8,3.4,2.4C-425.7,309.3-425.8,309.4-425.9,309.6z
			 M-426.7,313.9c-0.1-0.1-0.2-0.2-0.3-0.3c-0.1-0.1-0.2-0.2-0.2-0.2c-1.7,0-3,0.1-4,0.2c0,0-0.1,0-0.2,0c-0.2,0-0.3,0-0.4,0.1
			l-0.3-0.5c0.2-0.1,0.3-0.2,0.6-0.3c0.5-0.5,1-1,1.5-1.6h-2.7v-0.4h6.9v0.4h-3.6c-0.6,0.7-1.2,1.3-1.8,1.9c1.3-0.1,2.5-0.1,3.7-0.2
			c-0.1,0-0.2-0.1-0.3-0.2c-0.1-0.1-0.3-0.3-0.6-0.6l0.3-0.2c0.8,0.8,1.4,1.3,1.8,1.7L-426.7,313.9z M-431.4,309.3h4.1v0.4h-4.1
			V309.3z"/>
		<path class="st2" d="M-420.1,309.6h0.4c0,0.9-0.1,1.6-0.3,2h2.8v0.4h-3c-0.1,0.1-0.1,0.2-0.2,0.3c0.4,0.1,0.9,0.3,1.6,0.6
			c0.7,0.2,1.2,0.4,1.6,0.6l-0.2,0.4c-0.9-0.4-1.9-0.8-3.2-1.3c-0.5,0.6-1.7,1-3.6,1.4c0-0.1-0.1-0.1-0.1-0.2c0-0.1-0.1-0.1-0.1-0.2
			c2.1-0.3,3.3-0.8,3.7-1.5h-3.6v-0.4h3.8C-420.2,311.2-420.1,310.5-420.1,309.6z M-420.9,306.6h0.4v0.8h2.9v0.4h-2.9v1h3.2v0.4
			l-0.6,1c-0.1-0.1-0.2-0.1-0.4-0.2l0.5-0.9h-6.4v-0.4h3.2v-1h-2.7v-0.4h2.7V306.6z M-421.7,311.3c-0.7-0.2-1.3-0.4-2-0.6l0.2-0.3
			c0.8,0.2,1.5,0.4,2,0.6L-421.7,311.3z M-421.2,310.4c-0.3-0.1-0.8-0.2-1.4-0.4c-0.2-0.1-0.4-0.1-0.6-0.2l0.2-0.3
			c0.3,0.1,0.7,0.2,1.3,0.4c0.2,0.1,0.4,0.1,0.6,0.2L-421.2,310.4z"/>
		<path class="st2" d="M-410.8,306.6h0.4v0.8h2v0.4h-2v0.6h-0.4v-0.6h-2.4v0.6h-0.4v-0.6h-2v-0.4h2v-0.8h0.4v0.8h2.4V306.6z
			 M-415.2,308.8h2.2v3.7h-1.8v0.5h-0.4V308.8z M-414.8,309.2v1.3h1.4v-1.3H-414.8z M-414.8,312.2h1.4v-1.3h-1.4V312.2z
			 M-409.9,313.3c0.4,0,0.6-0.1,0.6-0.5v-0.9h-2.5c-0.1,0.8-0.6,1.5-1.4,2c-0.1-0.1-0.2-0.2-0.3-0.3c0.6-0.4,0.9-0.8,1.1-1.2
			c0.2-0.4,0.3-1.1,0.3-2.1v-1.5h3.2v4.1c0,0.6-0.3,0.9-1,0.9c-0.1,0-0.3,0-0.6,0c-0.2,0-0.4,0-0.5,0c0,0,0-0.1,0-0.2
			c0-0.1,0-0.2-0.1-0.3C-410.6,313.3-410.2,313.3-409.9,313.3z M-411.7,310.5c0,0.4,0,0.7-0.1,1h2.5v-1H-411.7z M-411.7,309.1v1h2.4
			v-1H-411.7z"/>
		<path class="st2" d="M-404.9,311.8v0.7c0,0.7-0.2,1.2-0.7,1.5l-0.2-0.2c0.4-0.3,0.7-0.7,0.6-1.2h-0.4v-0.8H-404.9z"/>
		<path class="st2" d="M-396.1,311.3c0,0.6-0.2,1-0.7,1c-0.2,0-0.4,0-0.7,0c0-0.1,0-0.3-0.1-0.4c0.2,0,0.4,0,0.6,0
			c0.3,0,0.5-0.2,0.5-0.7c0-0.6-0.2-1.2-0.7-1.7l0.7-2.2h-1.3v6.5h-0.4V307h2.1v0.4l-0.7,2.1C-396.3,310.1-396,310.7-396.1,311.3z
			 M-395.9,309.7h2.8c0.3-0.5,0.6-1,1-1.4l0.4,0.2c-0.2,0.4-0.5,0.8-0.9,1.2h1.7v0.4h-4.9V309.7z M-393.9,306.7l0.3-0.2
			c0.2,0.3,0.4,0.6,0.6,0.9l-0.3,0.2h2.1v0.4h-4.3v-0.4h2.1C-393.6,307.3-393.8,307-393.9,306.7z M-395.4,311h3.7v2.9h-0.4v-0.5
			h-2.9v0.5h-0.4V311z M-395.1,308.5l0.3-0.2c0.1,0.1,0.2,0.3,0.4,0.5c0.2,0.2,0.3,0.4,0.4,0.5l-0.3,0.2c-0.1-0.1-0.2-0.3-0.4-0.5
			C-394.8,308.7-395,308.6-395.1,308.5z M-395,311.3v1.7h2.9v-1.7H-395z"/>
		<path class="st2" d="M-389.6,310.7C-389.6,310.7-389.6,310.7-389.6,310.7c-0.1-0.2-0.1-0.3-0.2-0.5c0.8-1.1,1.4-2.3,1.8-3.7
			l0.4,0.2c-0.2,0.6-0.5,1.2-0.7,1.8v5.4h-0.4v-4.6C-389,309.9-389.3,310.3-389.6,310.7z M-385.3,306.6h0.4v2.9h2.1v0.4h-2.1v1.4
			h2.5v0.4h-2.5v2.2h-0.4v-2.2h-2.4v-0.4h2.4v-1.4h-2.1v-0.4h2.1V306.6z M-387.4,307.6l0.3-0.2c0.4,0.4,0.7,0.9,1,1.4l-0.4,0.2
			C-386.8,308.3-387.1,307.9-387.4,307.6z M-383.8,309l-0.3-0.2c0.4-0.5,0.8-1,1.1-1.4l0.4,0.2c-0.1,0.1-0.2,0.2-0.3,0.3
			C-383.3,308.4-383.6,308.7-383.8,309z"/>
		<path class="st2" d="M-467.3,322l-0.1-0.5c0.4-0.1,0.8-0.3,1.2-0.4v-1.3l1.1-1.5h-2.1V318h2.6v0.5l-1.1,1.5v1
			c0.1,0,0.4-0.1,0.7-0.2c0.1,0,0.2-0.1,0.3-0.1c0,0.2,0,0.3,0,0.4c-0.3,0.1-0.6,0.2-1,0.3v2.4c0,0.5-0.3,0.7-0.8,0.8
			c-0.2,0-0.5,0-0.7,0c0,0,0-0.1,0-0.2c0-0.1,0-0.2,0-0.2c0.1,0,0.3,0,0.6,0c0.3,0,0.5-0.1,0.5-0.4v-2.2c-0.1,0-0.4,0.1-0.7,0.2
			C-467.1,321.9-467.2,322-467.3,322z M-464.7,323.4c0-0.1-0.1-0.1-0.2-0.2c0-0.1-0.1-0.1-0.1-0.1c1.1-0.5,2-1.2,2.7-2.1
			c-0.5,0-1,0.1-1.4,0.1c-0.2,0-0.4,0.1-0.6,0.1l-0.2-0.4c0.1-0.1,0.2-0.2,0.3-0.3c0.4-0.4,0.8-0.9,1.2-1.6h-1.5v-0.4h4.4v0.4h-2.4
			c-0.5,0.7-0.9,1.3-1.4,1.8c0.2,0,0.7-0.1,1.3-0.1c0.3,0,0.5,0,0.6,0c0.2-0.3,0.3-0.6,0.5-0.9l0.4,0.2
			C-461.9,321.4-463.1,322.6-464.7,323.4z M-464.3,324.7c-0.1-0.1-0.2-0.2-0.3-0.4c1.7-0.7,3-1.8,3.9-3.3l0.4,0.2
			c-0.4,0.7-0.9,1.3-1.4,1.7c0.2,0.1,0.4,0.4,0.8,0.6c0.4,0.3,0.6,0.5,0.8,0.6l-0.4,0.4c-0.3-0.3-0.8-0.7-1.4-1.2
			c-0.1,0-0.1-0.1-0.1-0.1C-462.6,323.8-463.4,324.3-464.3,324.7z M-462.7,317.5l0.4-0.2c0,0.1,0.1,0.2,0.2,0.4
			c0.1,0.2,0.2,0.4,0.3,0.6l-0.4,0.2c-0.1-0.1-0.1-0.2-0.2-0.4C-462.5,317.8-462.6,317.6-462.7,317.5z"/>
		<path class="st2" d="M-455.1,320l2.4-1.7h-5.1v-0.4h5.8v0.5l-2.6,1.8v0.7h3.4v0.4h-3.4v2.4c0,0.6-0.3,0.9-1,0.9
			c-0.2,0-0.6,0-1.1,0c0-0.2,0-0.4-0.1-0.5c0.3,0,0.6,0,1.1,0s0.7-0.2,0.6-0.6v-2.3h-3.6v-0.4h3.6V320z"/>
		<path class="st2" d="M-446.4,321.8l1.7-1h-3.8v-0.4h4.3v0.5l-1.8,1v0.3h3.3v0.4h-3.3v1.1c0,0.6-0.3,0.9-0.9,0.9c-0.3,0-0.6,0-1,0
			c0,0,0-0.1,0-0.2c0-0.1,0-0.3-0.1-0.3c0.3,0,0.6,0,1,0c0.4,0,0.6-0.1,0.6-0.5v-1h-3.6v-0.4h3.6V321.8z M-449.8,319.1h6.8v1.4h-0.4
			v-1h-6v1h-0.4V319.1z M-449.2,317.8l0.3-0.2c0.4,0.4,0.7,0.8,0.9,1.1l-0.4,0.3C-448.5,318.6-448.8,318.2-449.2,317.8z
			 M-447.1,317.6l0.4-0.2c0.3,0.4,0.6,0.8,0.8,1.2l-0.4,0.2C-446.5,318.3-446.8,317.9-447.1,317.6z M-444.7,319l-0.4-0.3
			c0.4-0.4,0.7-0.8,1-1.2l0.4,0.3c-0.1,0.1-0.3,0.3-0.5,0.6C-444.3,318.6-444.5,318.8-444.7,319z"/>
		<path class="st2" d="M-440.9,323.4l-0.2-0.5c2-0.6,3.7-1.2,5.1-1.7c0,0.2,0,0.4,0.1,0.5C-437.9,322.3-439.5,322.9-440.9,323.4z
			 M-440.9,318.1h6.2c0,0.2,0,0.4,0,0.7c0,1.8-0.1,3.1-0.1,4c0,1.1-0.6,1.7-1.7,1.7c-0.3,0-0.8,0-1.4,0c0-0.2-0.1-0.4-0.1-0.5
			c0.3,0,0.8,0,1.4,0c0.9,0.1,1.4-0.4,1.3-1.3c0.1-1.6,0.1-3.1,0.1-4.3h-5.8V318.1z M-440.1,319.7l0.2-0.4c1.1,0.5,1.9,0.9,2.5,1.2
			l-0.2,0.4C-438.6,320.4-439.4,320-440.1,319.7z"/>
		<path class="st2" d="M-432.5,318.7h0.8c0.2-0.5,0.3-0.9,0.4-1.3l0.4,0.1c-0.1,0.4-0.2,0.8-0.4,1.2h1.6v5.9h-0.4V324h-2v0.7h-0.4
			V318.7z M-432.1,319v2.1h2V319H-432.1z M-432.1,321.5v2.1h2v-2.1H-432.1z M-429,320.3c0,0-0.1-0.1-0.2-0.1c-0.1,0-0.1-0.1-0.2-0.1
			c0.4-0.7,0.8-1.6,1.2-2.7l0.4,0.1c-0.1,0.4-0.3,0.7-0.4,1.1h2.5c0,0.1,0,0.3,0,0.5c0,1.8-0.1,3.2-0.2,4.2c0,0.8-0.4,1.2-1.3,1.2
			c-0.4,0-0.8,0-1.2,0c0,0,0-0.1,0-0.1c0-0.2-0.1-0.3-0.1-0.3c0.3,0,0.7,0,1.3,0c0.7,0,1-0.3,1-0.9c0-0.5,0.1-1.6,0.1-3.2
			c0-0.5,0-0.8,0-1h-2.3C-428.6,319.6-428.9,320.1-429,320.3z M-428.7,320.7l0.3-0.2c0,0.1,0.1,0.1,0.2,0.2c0.4,0.6,0.8,1,1,1.4
			l-0.3,0.2C-427.9,321.8-428.3,321.2-428.7,320.7z"/>
		<path class="st2" d="M-422.4,319.2l0.5,0.2c-0.5,1.4-1.1,2.6-1.7,3.8c-0.1-0.1-0.3-0.2-0.5-0.2
			C-423.5,321.8-422.9,320.6-422.4,319.2z M-420.6,317.5h0.5v6.2c0,0.6-0.3,0.9-1,0.9c-0.3,0-0.7,0-1,0c0-0.1-0.1-0.3-0.1-0.5
			c0.3,0,0.7,0,1,0c0.5,0,0.7-0.2,0.7-0.6V317.5z M-419,319.4l0.4-0.2c0.4,0.7,1,1.9,1.8,3.6l-0.5,0.2
			C-417.7,321.8-418.3,320.6-419,319.4z"/>
		<path class="st2" d="M-415.4,324.3l-0.1-0.4c0.3,0,0.6,0,0.9,0v-2.9h0.4v2.9c0.4-0.1,0.8-0.1,1.3-0.1v-3.3h0.4v1.2h1.4v0.4h-1.4
			v1.7c0.6-0.1,1.1-0.1,1.7-0.2c0,0.1,0,0.3,0,0.4c-0.1,0-0.3,0-0.5,0C-413,324-414.4,324.2-415.4,324.3z M-410.8,317.4h0.4
			c0,0.9,0,1.7,0,2.3h2.3v0.4h-2.3c0,1.1,0.2,2,0.3,2.7c0.2,1,0.6,1.5,1,1.5c0.2,0,0.3-0.1,0.4-0.4c0.1-0.3,0.1-0.6,0.1-1
			c0,0,0.1,0.1,0.3,0.1c0.1,0,0.1,0,0.1,0c0,0.4-0.1,0.7-0.2,1c-0.1,0.5-0.3,0.7-0.7,0.7c-0.7,0-1.1-0.5-1.4-1.7
			c-0.2-0.8-0.3-1.8-0.4-2.9h-4.7v-0.4h4.7C-410.8,319.1-410.8,318.4-410.8,317.4z M-414.8,318.1h3.3v0.4h-3.3V318.1z M-409.9,318.2
			l0.3-0.3c0.4,0.3,0.8,0.6,1.2,0.9l-0.3,0.3C-409.2,318.8-409.5,318.5-409.9,318.2z"/>
		<path class="st2" d="M-406.7,322.6c0,0-0.1-0.1-0.1-0.2c0-0.1-0.1-0.2-0.1-0.2c0.6-0.7,1-1.7,1.3-2.9h-1.1v-0.4h1.1v-1.5h0.4v1.5
			h1.1v0.4h-1.1v1.3l0.2-0.2c0.4,0.4,0.8,0.7,1,1l-0.3,0.3c-0.1-0.1-0.3-0.3-0.6-0.5c-0.2-0.2-0.3-0.3-0.4-0.4v4.1h-0.4v-4.6
			C-405.9,321.2-406.3,322.1-406.7,322.6z M-403,318.3v2.2c0,1.2-0.1,2-0.3,2.6c-0.2,0.5-0.5,1.1-1.1,1.6c-0.1-0.1-0.2-0.2-0.4-0.3
			c0.6-0.5,1-1,1.1-1.5c0.2-0.5,0.2-1.3,0.2-2.4v-2.5h2.6v5.8c0,0.3,0.1,0.4,0.3,0.4h0.2c0.3,0,0.4-0.1,0.5-0.4
			c0.1-0.3,0.1-0.7,0.1-1.2c0.1,0.1,0.3,0.1,0.4,0.2c0,0.6-0.1,1-0.1,1.2c-0.1,0.5-0.3,0.7-0.8,0.7h-0.3c-0.5,0-0.7-0.2-0.7-0.7
			v-5.4H-403z"/>
		<path class="st2" d="M-391,322.2c-1.8-0.1-2.9-0.5-3.4-1.4h-0.2c-0.2,0.7-1.3,1.2-3.4,1.4c0,0-0.1-0.1-0.1-0.2
			c-0.1-0.1-0.1-0.1-0.1-0.2c1.9-0.2,2.9-0.6,3.2-1.1h-2.9v-0.3h3.1c0.1-0.2,0.1-0.4,0.1-0.6h0.4c0,0.2-0.1,0.5-0.1,0.6h1.6
			c-0.1-0.1-0.2-0.3-0.3-0.5l0.4-0.2c0.1,0.2,0.2,0.4,0.4,0.7h1.5v0.3h-3c0.5,0.6,1.5,1,3.2,1c0,0-0.1,0.1-0.2,0.3
			C-391,322.1-391,322.2-391,322.2z M-397.6,317.8h2.5v1.9h-2.5V317.8z M-397.6,322.4h2.5v2.2h-0.4v-0.4h-1.8v0.4h-0.4V322.4z
			 M-397.2,318.1v1.2h1.8v-1.2H-397.2z M-397.2,322.8v1.2h1.8v-1.2H-397.2z M-394,317.8h2.5v1.9h-2.5V317.8z M-394,322.4h2.6v2.3
			h-0.4v-0.4h-1.8v0.4h-0.4V322.4z M-393.6,318.1v1.2h1.8v-1.2H-393.6z M-393.6,322.8v1.2h1.8v-1.2H-393.6z"/>
		<path class="st2" d="M-382.5,324.5c-2-1-3.1-2.6-3.3-4.8c-0.3,2.2-1.4,3.8-3.4,4.9c0,0-0.1-0.1-0.1-0.1c-0.1-0.1-0.1-0.2-0.2-0.2
			c1.9-1.1,3.1-2.7,3.3-4.9c0.1-0.4,0.1-1,0.1-1.9h0.5c0,0.1,0,0.3,0,0.6c0,0.3,0,0.5,0,0.6c0.3,2.8,1.5,4.7,3.5,5.5
			c0,0-0.1,0.1-0.2,0.2C-382.4,324.5-382.5,324.5-382.5,324.5z"/>
		<path class="st2" d="M-379.3,317.3v0.7c0,0.7-0.2,1.3-0.7,1.6l-0.2-0.2c0.4-0.3,0.7-0.7,0.6-1.3h-0.4v-0.8H-379.3z M-378.1,317.3
			v0.7c0,0.7-0.2,1.2-0.8,1.6l-0.2-0.2c0.4-0.3,0.6-0.7,0.6-1.3h-0.4v-0.8H-378.1z"/>
	</g>
</g>
</svg>
