<?xml version="1.0" encoding="utf-8"?>
<!-- Generator: Adobe Illustrator 19.0.0, SVG Export Plug-In . SVG Version: 6.00 Build 0)  -->
<svg version="1.1" id="图层_1" xmlns="http://www.w3.org/2000/svg" xmlns:xlink="http://www.w3.org/1999/xlink" x="0px" y="0px"
	 viewBox="21 -27.1 142.3 88.9" style="enable-background:new 21 -27.1 142.3 88.9;" xml:space="preserve">
<style type="text/css">
	.st0{fill:#FFFFFF;}
	.st1{fill:#C9CACA;}
	.st2{fill:#8A8A8A;}
	.st3{fill:#898989;}
</style>
<g>
	<g>
		<path class="st0" d="M-899.9,525.6c-39,0-70.7,17.8-70.7,39.8c0,13.7,12.3,25.8,30.9,32.9c0,0,0.3,0.1,1,0.4
			c-0.7,5.2-5.6,10.6-7.9,13.5l0,0c-0.2,0.3-0.3,0.7-0.3,1.1c0,1.4,23.8-5.9,31-9.3c5,0.7,10.4,1.2,16,1.2c39,0,70.7-17.8,70.7-39.8
			C-829.2,543.4-860.8,525.6-899.9,525.6z"/>
		<path class="st1" d="M-946.3,614c-0.9,0-1-0.4-1-0.7c0-0.4,0.1-0.9,0.3-1.3c0,0,0-0.1,0.1-0.1c0.3-0.4,0.7-0.9,1.1-1.4
			c2.3-2.9,5.8-7.2,6.6-11.4c-0.3-0.1-0.5-0.2-0.6-0.2c-19.6-7.5-31.3-20-31.3-33.4c0-22.2,31.9-40.3,71.2-40.3s71.2,18.1,71.2,40.3
			s-31.9,40.3-71.2,40.3c-5,0-10.4-0.4-15.9-1.2C-922.4,607.7-942.8,614-946.3,614z M-946,612.4L-946,612.4
			c-0.1,0.2-0.2,0.4-0.2,0.5c3.6,0,23.8-6.3,30.2-9.4c0.1,0,0.2-0.1,0.3,0c5.5,0.8,10.9,1.2,15.9,1.2c38.7,0,70.2-17.6,70.2-39.3
			s-31.5-39.3-70.2-39.3s-70.2,17.6-70.2,39.3c0,13,11.4,25.1,30.6,32.5c0,0,0,0,0.1,0s0.4,0.2,0.9,0.3c0.2,0.1,0.4,0.3,0.3,0.5
			c-0.6,4.6-4.4,9.3-6.9,12.3C-945.4,611.6-945.7,612-946,612.4z"/>
	</g>
	<g>
		<path class="st1" d="M-891.7,596.3v-1c25.1,0,47.1-9.8,52.3-23.4l0.9,0.4C-843.8,586.2-866.1,596.3-891.7,596.3z"/>
	</g>
</g>
<g>
	<path class="st2" d="M-945.6,557.2v-0.7c0-0.7,0.3-1.2,0.8-1.6l0.2,0.2c-0.4,0.3-0.6,0.8-0.6,1.3h0.4v0.8H-945.6L-945.6,557.2z
		 M-944.4,557.2v-0.7c0-0.7,0.3-1.2,0.8-1.6l0.2,0.2c-0.4,0.3-0.6,0.8-0.6,1.3h0.4v0.8H-944.4L-944.4,557.2z"/>
	<path class="st2" d="M-941.2,555.6h6.5v6.9h-0.4v-0.4h-5.7v0.4h-0.4L-941.2,555.6L-941.2,555.6z M-940.8,555.9v5.8h5.7v-5.8H-940.8
		z M-940,558.4h1.8v-1.2h-2v-0.4h4.4v0.4h-2v1.2h1.8v0.4h-1.8v1.7h2.1v0.3h-4.7v-0.3h2.1v-1.7h-1.8L-940,558.4L-940,558.4z
		 M-937.2,559.4l0.3-0.2c0,0,0,0,0.1,0.1c0.3,0.3,0.6,0.5,0.7,0.7l-0.3,0.3C-936.7,559.8-936.9,559.6-937.2,559.4z"/>
	<path class="st2" d="M-932.8,557.1v-0.4h2.4v0.4c-0.2,0.5-0.5,1-0.8,1.4v4h-0.4V559c-0.3,0.3-0.7,0.7-1.1,1c0-0.1-0.1-0.2-0.1-0.3
		l-0.1-0.1c0.9-0.7,1.6-1.5,2.1-2.5L-932.8,557.1L-932.8,557.1z M-932,555.3l0.4-0.1c0.1,0.3,0.3,0.7,0.5,1.3l-0.4,0.1
		C-931.7,556.1-931.8,555.7-932,555.3z M-931.1,559.1l0.3-0.2c0.3,0.3,0.6,0.6,0.9,1l-0.3,0.3C-930.4,559.8-930.7,559.4-931.1,559.1
		z M-930.4,561.8h2.1v-3.9h-1.8v-0.4h1.8v-2.3h0.4v2.3h2v0.4h-2v3.9h2.2v0.4h-4.8L-930.4,561.8L-930.4,561.8z"/>
	<path class="st2" d="M-924.2,560.4c0,0-0.1-0.1-0.1-0.2s-0.1-0.2-0.1-0.2c0.6-0.7,1-1.7,1.3-2.9h-1.1v-0.4h1.1v-1.5h0.4v1.5h1.1
		v0.4h-1.1v1.3l0.2-0.2c0.4,0.4,0.8,0.7,1,1l-0.3,0.3c-0.1-0.1-0.3-0.3-0.6-0.5c-0.2-0.2-0.3-0.3-0.4-0.4v4.1h-0.4v-4.6
		C-923.4,559-923.8,559.8-924.2,560.4z M-920.5,556.1v2.2c0,1.2-0.1,2-0.3,2.6c-0.2,0.5-0.5,1.1-1.1,1.6c-0.1-0.1-0.2-0.2-0.4-0.3
		c0.6-0.5,1-1,1.1-1.5c0.2-0.5,0.2-1.3,0.2-2.4v-2.5h2.6v5.8c0,0.3,0.1,0.4,0.3,0.4h0.2c0.3,0,0.4-0.1,0.5-0.4
		c0.1-0.3,0.1-0.7,0.1-1.2c0.1,0.1,0.3,0.1,0.4,0.2c0,0.6-0.1,1-0.1,1.2c-0.1,0.5-0.3,0.7-0.8,0.7h-0.3c-0.5,0-0.7-0.2-0.7-0.7v-5.4
		h-1.7V556.1z"/>
	<path class="st2" d="M-908.5,560c-1.8-0.1-2.9-0.5-3.4-1.4h-0.2c-0.2,0.7-1.3,1.2-3.4,1.4c0,0-0.1-0.1-0.1-0.2
		c-0.1-0.1-0.1-0.1-0.1-0.2c1.9-0.2,2.9-0.6,3.2-1.1h-2.9v-0.3h3.1c0.1-0.2,0.1-0.4,0.1-0.6h0.4c0,0.2-0.1,0.5-0.1,0.6h1.6
		c-0.1-0.1-0.2-0.3-0.3-0.5l0.4-0.2c0.1,0.2,0.2,0.4,0.4,0.7h1.5v0.3h-3c0.5,0.6,1.5,1,3.2,1c0,0-0.1,0.1-0.2,0.3
		C-908.5,559.9-908.5,560-908.5,560z M-915.1,555.6h2.5v1.9h-2.5V555.6z M-915.1,560.2h2.5v2.2h-0.4V562h-1.8v0.4h-0.4L-915.1,560.2
		L-915.1,560.2z M-914.7,555.9v1.2h1.8v-1.2H-914.7z M-914.7,560.6v1.2h1.8v-1.2H-914.7z M-911.5,555.6h2.5v1.9h-2.5V555.6z
		 M-911.5,560.2h2.6v2.3h-0.4v-0.4h-1.8v0.4h-0.4L-911.5,560.2L-911.5,560.2z M-911.1,555.9v1.2h1.8v-1.2H-911.1z M-911.1,560.6v1.2
		h1.8v-1.2H-911.1z"/>
	<path class="st2" d="M-906.7,555.7h0.5v0.7h-0.5V555.7z M-906.7,557.4h0.5v4.5h-0.5V557.4z"/>
	<path class="st2" d="M-903.9,559.9l0.4,0.2c-0.2,0.6-0.4,1.2-0.8,1.8c-0.1-0.1-0.3-0.2-0.4-0.2C-904.3,561-904,560.5-903.9,559.9z
		 M-903.8,555.6h5.7v3.7h-5.7V555.6z M-903.4,555.9v1.3h2.2v-1.3H-903.4z M-903.4,557.6v1.3h2.2v-1.3H-903.4z M-902.7,560h0.4v1.3
		c0,0.4,0.2,0.6,0.7,0.6h1.4c0.4,0,0.7-0.1,0.8-0.5c0-0.3,0.1-0.5,0.1-0.7c0,0,0.1,0,0.2,0.1c0.1,0,0.1,0,0.2,0.1
		c0,0.3-0.1,0.6-0.2,0.8c-0.1,0.5-0.5,0.7-1.1,0.7h-1.6c-0.7,0-1-0.3-1-0.9L-902.7,560L-902.7,560L-902.7,560z M-901.5,559.8
		l0.3-0.2c0,0,0.1,0.1,0.2,0.2c0.4,0.4,0.6,0.7,0.8,1l-0.4,0.2C-900.9,560.5-901.2,560.1-901.5,559.8z M-898.5,555.9h-2.2v1.3h2.2
		V555.9z M-900.8,557.6v1.3h2.2v-1.3H-900.8z M-898.8,560.2l0.3-0.2c0.4,0.5,0.8,1,1.1,1.5l-0.4,0.2
		C-898,561.1-898.3,560.6-898.8,560.2z"/>
	<path class="st2" d="M-893.9,560.4v0.7c0,0.7-0.2,1.2-0.7,1.5l-0.2-0.2c0.4-0.3,0.7-0.7,0.6-1.2h-0.4v-0.8H-893.9z"/>
	<path class="st2" d="M-887.4,555.6h7.3v0.4h-2.3c0,0.1,0,0.3,0,0.6s0,0.5,0,0.6h1.9v4.3c0,0.6-0.3,0.8-0.9,0.8c-0.3,0-0.6,0-1,0
		c0-0.2,0-0.3-0.1-0.4c0.1,0,0.2,0,0.4,0s0.4,0,0.5,0c0.5,0,0.7-0.1,0.6-0.5v-3.8h-1.5c0,0.5-0.1,0.9-0.2,1.3
		c0.1,0.1,0.2,0.2,0.2,0.2c0.5,0.6,1,1,1.3,1.4l-0.3,0.3c-0.5-0.6-0.9-1.1-1.2-1.4c-0.2,0.6-0.6,1.3-1.1,2c-0.1-0.1-0.2-0.2-0.3-0.3
		c0.8-0.9,1.3-2,1.4-3.4h-1.7c0,0.4-0.1,0.7-0.2,1.1c0.2,0.1,0.4,0.4,0.7,0.6c0.1,0.1,0.3,0.3,0.3,0.3l-0.3,0.3
		c-0.1-0.1-0.2-0.2-0.3-0.3c-0.2-0.2-0.4-0.4-0.6-0.6c-0.2,0.7-0.6,1.3-1.1,2c-0.1-0.1-0.3-0.2-0.3-0.3c0.8-0.8,1.2-1.9,1.3-3.2
		h-1.5v4.8h-0.4v-5.2h1.9c0-0.3,0-0.7,0-1.2h-2.4L-887.4,555.6L-887.4,555.6z M-884.5,556c0,0.4,0,0.8,0,1.2h1.7c0-0.3,0-0.7,0-1.2
		H-884.5z"/>
	<path class="st2" d="M-871.6,558.2c-1.5-0.7-2.6-1.5-3.3-2.5c-0.9,1-2.1,1.9-3.5,2.6c-0.1-0.1-0.2-0.3-0.3-0.4
		c1.6-0.8,2.9-1.7,3.8-2.9l0.5,0.1c-0.1,0.1-0.1,0.2-0.2,0.2c0.7,1,1.9,1.8,3.4,2.4C-871.4,557.9-871.5,558-871.6,558.2z
		 M-872.4,562.5c-0.1-0.1-0.2-0.2-0.3-0.3s-0.2-0.2-0.2-0.2c-1.7,0-3,0.1-4,0.2c0,0-0.1,0-0.2,0c-0.2,0-0.3,0-0.4,0.1l-0.3-0.5
		c0.2-0.1,0.3-0.2,0.6-0.3c0.5-0.5,1-1,1.5-1.6h-2.7v-0.4h6.9v0.4h-3.6c-0.6,0.7-1.2,1.3-1.8,1.9c1.3-0.1,2.5-0.1,3.7-0.2
		c-0.1,0-0.2-0.1-0.3-0.2s-0.3-0.3-0.6-0.6l0.3-0.2c0.8,0.8,1.4,1.3,1.8,1.7L-872.4,562.5z M-877.1,557.9h4.1v0.4h-4.1V557.9z"/>
	<path class="st2" d="M-869.1,557.6h2.1l0.2-1h-3.3v-0.4h4.4c0.2-0.2,0.4-0.5,0.6-0.9c0.1-0.1,0.1-0.2,0.2-0.3l0.4,0.2
		c-0.1,0.1-0.2,0.3-0.4,0.5c-0.1,0.2-0.3,0.3-0.3,0.4h2.5v0.4h-3.6l-0.2,1h2.9v4.9h-0.4V562h-4.7v0.5h-0.4V557.6L-869.1,557.6z
		 M-868.7,558v1h4.7v-1H-868.7z M-868.7,559.4v1h4.7v-1H-868.7z M-868.7,560.7v1h4.7v-1H-868.7z M-868.3,555.3l0.3-0.2
		c0.1,0.1,0.3,0.3,0.5,0.6c0.1,0.1,0.2,0.2,0.2,0.3l-0.3,0.3C-867.8,555.9-868.1,555.6-868.3,555.3z"/>
	<path class="st2" d="M-861.5,561.4c0.5-0.8,1-1.8,1.6-3c0.1,0.1,0.3,0.2,0.4,0.3c-0.2,0.3-0.5,0.8-0.9,1.6
		c-0.3,0.6-0.5,1.1-0.7,1.4L-861.5,561.4z M-859.9,557.6c-0.6-0.8-1-1.3-1.3-1.7l0.3-0.2c0.1,0.2,0.3,0.4,0.6,0.7
		c0.3,0.4,0.6,0.7,0.7,0.9L-859.9,557.6z M-857.2,558.2c0-0.1,0-0.2,0-0.3c0-0.2,0-0.4,0-0.5h0.4c0,0.3,0,0.6,0,0.8
		c0.3,1.8,1.2,3.1,2.7,3.8c-0.1,0.1-0.2,0.3-0.3,0.4c-1.4-0.9-2.3-2-2.5-3.5c-0.2,1.5-1.1,2.7-2.8,3.6c0,0-0.1-0.1-0.2-0.2
		c-0.1-0.1-0.1-0.2-0.2-0.2C-858.3,561.2-857.3,559.9-857.2,558.2z M-855.1,558.6c-0.1-0.1-0.3-0.1-0.4-0.1l0.7-1.5h-3.2
		c-0.1,0.4-0.4,0.9-0.8,1.5c-0.1-0.1-0.2-0.2-0.4-0.2c0.6-0.9,1.1-1.9,1.4-3l0.5,0.1c-0.1,0.5-0.3,0.9-0.5,1.2h3.4v0.4L-855.1,558.6
		z"/>
	<path class="st2" d="M-936.3,570.9v1.4c0,0.3,0.2,0.4,0.5,0.4h0.8c0.3,0,0.5-0.1,0.6-0.4c0-0.2,0.1-0.5,0.1-0.8c0,0,0.1,0,0.2,0.1
		c0.1,0,0.1,0,0.2,0.1c0,0.3-0.1,0.6-0.1,0.8c-0.1,0.5-0.4,0.7-0.9,0.7h-1c-0.6,0-0.8-0.2-0.8-0.7v-1.1h-2.2v0.1
		c0.1,1.1-0.6,1.7-2.1,1.9c0-0.1-0.1-0.2-0.2-0.4c1.4-0.2,2.1-0.7,1.9-1.5V571L-936.3,570.9L-936.3,570.9z M-941.2,566.7h3.4
		c0-0.1-0.1-0.2-0.1-0.3c-0.1-0.2-0.1-0.3-0.1-0.3l0.4-0.1c0,0.1,0.1,0.2,0.1,0.4s0.1,0.3,0.1,0.4h3.3v0.4h-7.1L-941.2,566.7
		L-941.2,566.7z M-941.1,569.9h6.8v1.1h-0.4v-0.7h-6v0.7h-0.4L-941.1,569.9L-941.1,569.9z M-940,567.8h4.7v1.4h-4.7V567.8z
		 M-939.6,568.1v0.7h3.9v-0.7H-939.6z"/>
	<path class="st2" d="M-932.6,571.2c0-0.1-0.1-0.1-0.1-0.2c0-0.1-0.1-0.2-0.1-0.2c0.6-0.8,1-1.8,1.3-2.9h-1.2v-0.4h1.2V566h0.4v1.5
		h1.1v0.4h-1.1v1.3l0.2-0.2c0.3,0.3,0.7,0.6,1,1l-0.3,0.3c0,0,0-0.1-0.1-0.1c-0.2-0.3-0.5-0.6-0.8-0.9v4h-0.4v-4.5
		C-931.7,569.7-932.1,570.5-932.6,571.2z M-929.5,566.5h3.9v6.8h-0.4v-0.5h-3v0.5h-0.4L-929.5,566.5L-929.5,566.5z M-929.1,566.9
		v1.6h3v-1.6H-929.1z M-929.1,568.9v1.6h3v-1.6H-929.1z M-929.1,570.9v1.6h3v-1.6H-929.1z"/>
	<path class="st2" d="M-921.9,571.2v0.7c0,0.7-0.2,1.2-0.7,1.5l-0.2-0.2c0.4-0.3,0.7-0.7,0.6-1.2h-0.4v-0.8H-921.9z"/>
	<path class="st2" d="M-912,566h0.4v1.2h3.2v0.4h-3.2v1.4h2.7v0.4h-2.7v1.5h3.4v0.4h-3.4v2h-0.4v-2h-3.4v-0.4h3.4v-1.5h-2.7V569h2.7
		v-1.4h-3.2v-0.4h3.2V566z"/>
	<path class="st2" d="M-906.5,566.8h3.3c0-0.2-0.1-0.5-0.1-0.8h0.4c0.1,0.3,0.1,0.6,0.1,0.8h3.2v1.4h-0.4v-1h-6v1h-0.4L-906.5,566.8
		L-906.5,566.8z M-906,570.5h5.9v2.8h-0.4v-0.4h-5v0.4h-0.4L-906,570.5L-906,570.5z M-905.6,570.8v0.8h2.3v-0.8H-905.6z
		 M-905.6,571.9v0.7h2.3v-0.7H-905.6z M-905.5,567.7h4.9v0.3h-4.9V567.7z M-905.3,568.6h4.5v1.4h-4.5V568.6z M-904.9,568.9v0.7h3.7
		v-0.7H-904.9z M-900.6,570.8h-2.3v0.8h2.3V570.8z M-902.9,571.9v0.7h2.3v-0.7H-902.9z"/>
	<path class="st2" d="M-897.9,567.3h0.8c0.2-0.5,0.3-0.9,0.4-1.3l0.4,0.1c-0.1,0.4-0.2,0.8-0.4,1.2h1.6v5.9h-0.4v-0.6h-2v0.7h-0.4
		L-897.9,567.3L-897.9,567.3z M-897.5,567.6v2.1h2v-2.1H-897.5z M-897.5,570.1v2.1h2v-2.1H-897.5z M-894.4,568.9
		c0,0-0.1-0.1-0.2-0.1c-0.1,0-0.1-0.1-0.2-0.1c0.4-0.7,0.8-1.6,1.2-2.7l0.4,0.1c-0.1,0.4-0.3,0.7-0.4,1.1h2.5c0,0.1,0,0.3,0,0.5
		c0,1.8-0.1,3.2-0.2,4.2c0,0.8-0.4,1.2-1.3,1.2c-0.4,0-0.8,0-1.2,0V573c0-0.2-0.1-0.3-0.1-0.3c0.3,0,0.7,0,1.3,0c0.7,0,1-0.3,1-0.9
		c0-0.5,0.1-1.6,0.1-3.2c0-0.5,0-0.8,0-1h-2.3C-894,568.2-894.2,568.7-894.4,568.9z M-894,569.3l0.3-0.2c0,0.1,0.1,0.1,0.2,0.2
		c0.4,0.6,0.8,1,1,1.4l-0.3,0.2C-893.2,570.3-893.6,569.8-894,569.3z"/>
	<path class="st2" d="M-882.5,573.1c-2-1-3.1-2.6-3.3-4.8c-0.3,2.2-1.4,3.8-3.4,4.9l-0.1-0.1c-0.1-0.1-0.1-0.2-0.2-0.2
		c1.9-1.1,3.1-2.7,3.3-4.9c0.1-0.4,0.1-1,0.1-1.9h0.5c0,0.1,0,0.3,0,0.6s0,0.5,0,0.6c0.3,2.8,1.5,4.7,3.5,5.5c0,0-0.1,0.1-0.2,0.2
		C-882.4,573.1-882.4,573.1-882.5,573.1z"/>
	<path class="st2" d="M-879.4,566h0.4v1.8h0.8v0.4h-0.8v1.8c0.1,0,0.2-0.1,0.4-0.2c0.2-0.1,0.3-0.1,0.4-0.1c0,0.1,0,0.2,0,0.3
		c0-0.1,0-0.1,0,0.1c-0.3,0.1-0.6,0.2-0.9,0.3v2.9h-0.4v-2.8c-0.2,0.1-0.4,0.2-0.7,0.3s-0.5,0.2-0.6,0.2l-0.1-0.4
		c0.1,0,0.3-0.1,0.6-0.2c0.4-0.1,0.7-0.2,0.9-0.3v-1.9h-0.8c-0.1,0.4-0.2,0.8-0.3,1.2c-0.1-0.1-0.2-0.1-0.3-0.2
		c0.3-0.7,0.4-1.6,0.5-2.5h0.4c0,0.4-0.1,0.7-0.2,1h0.8L-879.4,566L-879.4,566z M-878.4,568.9c0.6-0.9,1.1-1.8,1.4-2.9l0.4,0.1
		c-0.1,0.4-0.3,0.8-0.5,1.2h3.3c-0.1,2.3-0.1,3.8-0.1,4.6s-0.4,1.2-1.3,1.2c-0.1,0-0.2,0-0.5,0c-0.2,0-0.4,0-0.5,0
		c0-0.1-0.1-0.3-0.1-0.5c0.3,0,0.7,0,1,0c0.6,0,0.9-0.3,0.9-0.9c0.1-1.1,0.1-2.5,0.1-4.2h-0.7c-0.2,2.6-1.1,4.5-2.6,5.5
		c-0.2-0.2-0.3-0.3-0.3-0.3c1.6-1,2.4-2.8,2.6-5.2h-0.8c-0.2,1.8-1,3.2-2.1,4.2c-0.1-0.1-0.2-0.2-0.3-0.3c1.1-1,1.8-2.3,2.1-3.9
		h-0.7c-0.2,0.6-0.5,1-0.8,1.5C-878.1,569-878.2,568.9-878.4,568.9z"/>
	<path class="st2" d="M-871.9,568.6c-0.1-0.1-0.2-0.1-0.4-0.2c0.3-0.7,0.7-1.5,0.9-2.5l0.4,0.1c0,0,0,0.1-0.1,0.2
		c0,0.2-0.1,0.4-0.2,0.8h2.4v0.4h-1.2c0,0.9,0,1.5,0,1.9h1.4v0.4h-1.5c0,0.4-0.1,0.7-0.2,1l0.2-0.2c0.1,0.1,0.3,0.3,0.5,0.6
		c0.4,0.5,0.7,0.8,1,1.1l-0.4,0.2c-0.6-0.7-1.1-1.3-1.4-1.6c-0.2,0.9-0.8,1.7-1.6,2.4c-0.1-0.1-0.2-0.2-0.3-0.3
		c1.1-0.8,1.7-1.9,1.8-3.2h-1.6v-0.4h1.7c0-0.4,0-1,0-1.9h-0.9C-871.5,567.9-871.7,568.2-871.9,568.6z M-868.2,566.8h3.1v6.2h-0.4
		v-0.7h-2.2v0.7h-0.4L-868.2,566.8L-868.2,566.8z M-867.8,567.2v4.6h2.2v-4.6H-867.8z"/>
	<path class="st2" d="M-862.2,571.9c0.3-0.2,0.7-0.5,1.2-0.9l0.1,0.5c-0.4,0.3-0.8,0.6-1.3,1c-0.1,0-0.2,0.1-0.3,0.2l-0.3-0.3
		c0.1-0.2,0.2-0.4,0.2-0.7V569h-1v-0.4h1.4L-862.2,571.9L-862.2,571.9z M-861.9,567.7c-0.1-0.1-0.2-0.3-0.5-0.5
		c-0.3-0.3-0.6-0.6-0.7-0.7l0.3-0.2c0.1,0.1,0.2,0.3,0.4,0.5c0.4,0.4,0.6,0.7,0.7,0.8L-861.9,567.7z M-859.7,570.9l0.4,0.2
		c-0.5,0.7-1.1,1.4-1.8,2.2l-0.3-0.3C-860.8,572.4-860.3,571.7-859.7,570.9z M-860.7,566.5h4v3.7h-4V566.5z M-860.3,566.9v2.9h3.2
		v-2.9H-860.3z M-858.1,571.1l0.3-0.2c0.6,0.7,1.1,1.4,1.7,2.1l-0.4,0.3C-856.9,572.7-857.4,572-858.1,571.1z"/>
	<path class="st2" d="M-941,577.1h6.6v7h-0.4v-0.4h-5.8v0.4h-0.4L-941,577.1L-941,577.1z M-940.6,577.5v5.9h5.8v-5.9H-940.6z
		 M-939.9,579.7c-0.1-0.1-0.1-0.2-0.2-0.3c0.6-0.5,1.2-1.1,1.6-1.7l0.3,0.2c0,0.1-0.1,0.2-0.2,0.3s-0.1,0.1-0.1,0.2h2.8v0.4
		c-0.4,0.5-0.9,0.9-1.4,1.2c0.6,0.2,1.3,0.4,2,0.6c-0.1,0.1-0.1,0.2-0.2,0.4c-0.8-0.2-1.6-0.4-2.2-0.7c-0.7,0.4-1.6,0.7-2.5,0.9
		c-0.1-0.1-0.1-0.2-0.2-0.4c0.9-0.1,1.7-0.4,2.4-0.7c-0.4-0.3-0.8-0.6-1.2-1c-0.1,0-0.2,0.1-0.3,0.2
		C-939.4,579.3-939.5,579.5-939.9,579.7z M-939.6,582.4l0.1-0.4c1.3,0.2,2.4,0.4,3.5,0.6l-0.1,0.4
		C-937.4,582.6-938.6,582.5-939.6,582.4z M-936.2,578.7h-2.6l0,0c0.4,0.4,0.8,0.8,1.3,1C-937,579.5-936.5,579.1-936.2,578.7z
		 M-938.8,581.3l0.1-0.4c0.2,0,0.6,0.1,1.1,0.2s0.9,0.2,1.1,0.2l-0.1,0.3C-937.3,581.5-938,581.4-938.8,581.3z"/>
	<path class="st2" d="M-931.5,583.1c0,0,0.1-0.1,0.3-0.2c0.3-0.3,0.4-0.5,0.6-0.6c0,0.1,0,0.1,0.1,0.2c0,0.1,0,0.2,0,0.2
		c-0.6,0.5-1,0.8-1.3,1.1l-0.3-0.4c0.2-0.1,0.3-0.4,0.2-0.6v-3h-0.9v-0.4h1.3L-931.5,583.1L-931.5,583.1z M-931.5,578.3
		c-0.3-0.4-0.6-0.8-0.9-1.1l0.3-0.2c0.2,0.2,0.4,0.5,0.8,0.9c0.1,0.1,0.1,0.1,0.1,0.1L-931.5,578.3z M-930.6,577.8h1.5
		c-0.1-0.1-0.3-0.3-0.5-0.6c-0.1-0.1-0.1-0.1-0.2-0.2l0.3-0.2c0.1,0.1,0.2,0.2,0.4,0.4s0.3,0.3,0.4,0.4l-0.3,0.2h1.3
		c0-0.1,0.1-0.2,0.2-0.3c0.3-0.3,0.5-0.6,0.6-0.7l0.3,0.2c-0.1,0.1-0.2,0.2-0.4,0.5c-0.1,0.1-0.2,0.3-0.3,0.3h1.5v0.3h-1.6v1.8h1.9
		v0.3h-5.6v-0.3h1.9v-1.8h-1.6v-0.3H-930.6z M-930.5,578.6l0.3-0.2c0.3,0.3,0.6,0.5,0.8,0.8l-0.3,0.2c0,0-0.1-0.1-0.1-0.2
		C-930.2,579-930.4,578.8-930.5,578.6z M-930.1,581h3.9v3.2h-0.4v-0.4h-3.1v0.4h-0.4V581z M-929.6,581.3v0.9h3.1v-0.9H-929.6z
		 M-929.6,582.6v0.9h3.1v-0.9H-929.6z M-928.6,578.1v1.8h1v-1.8H-928.6z M-926.8,579.3c0.3-0.3,0.6-0.5,0.8-0.8l0.3,0.2
		c-0.3,0.3-0.6,0.6-0.8,0.9L-926.8,579.3z"/>
	<path class="st2" d="M-922.5,576.7v0.7c0,0.7-0.2,1.3-0.7,1.6l-0.2-0.2c0.4-0.3,0.7-0.7,0.6-1.3h-0.4v-0.8H-922.5L-922.5,576.7z
		 M-921.3,576.7v0.7c0,0.7-0.2,1.2-0.8,1.6l-0.2-0.2c0.4-0.3,0.6-0.7,0.6-1.3h-0.4v-0.8H-921.3L-921.3,576.7z"/>
</g>
<g>
	<g>
		<path class="st0" d="M92.2-26.6c-39,0-70.7,17.8-70.7,39.8c0,13.7,12.3,25.8,30.9,32.9c0,0,0.3,0.1,1,0.4
			c-0.7,5.2-5.6,10.6-7.9,13.5h0c-0.2,0.3-0.3,0.7-0.3,1.1c0,1.4,23.8-5.9,31-9.3c5,0.7,10.4,1.2,16,1.2c39,0,70.7-17.8,70.7-39.8
			C162.8-8.8,131.2-26.6,92.2-26.6z"/>
		<path class="st1" d="M45.7,61.8c-0.9,0-1-0.4-1-0.7c0-0.4,0.1-0.9,0.3-1.3c0,0,0-0.1,0.1-0.1c0.3-0.4,0.7-0.9,1.1-1.4
			c2.3-2.9,5.8-7.2,6.6-11.4c-0.3-0.1-0.5-0.2-0.6-0.2C32.7,39.1,21,26.6,21,13.2C21-9,52.9-27.1,92.2-27.1S163.3-9,163.3,13.2
			c0,22.2-31.9,40.3-71.2,40.3c-5,0-10.4-0.4-15.9-1.2C69.6,55.5,49.2,61.8,45.7,61.8z M46,60.2C46,60.2,46,60.2,46,60.2
			c-0.1,0.2-0.2,0.4-0.2,0.5c3.6,0,23.8-6.3,30.2-9.4c0.1,0,0.2-0.1,0.3,0c5.5,0.8,10.9,1.2,15.9,1.2c38.7,0,70.2-17.6,70.2-39.3
			c0-21.7-31.5-39.3-70.2-39.3S22-8.5,22,13.2c0,13,11.4,25.1,30.6,32.5c0,0,0,0,0.1,0c0.1,0,0.4,0.2,0.9,0.3
			c0.2,0.1,0.4,0.3,0.3,0.5c-0.6,4.6-4.4,9.3-6.9,12.3C46.6,59.4,46.3,59.8,46,60.2z"/>
	</g>
	<g>
		<path class="st1" d="M100.3,44.1v-1c25.1,0,47.1-9.8,52.3-23.4l0.9,0.4C148.2,34,125.9,44.1,100.3,44.1z"/>
	</g>
</g>
<g>
	<path class="st3" d="M46.4,5V4.4c0-0.7,0.3-1.2,0.8-1.6L47.3,3c-0.4,0.3-0.6,0.8-0.6,1.3h0.4V5H46.4z M47.6,5V4.4
		c0-0.7,0.3-1.2,0.8-1.6L48.5,3c-0.4,0.3-0.6,0.8-0.6,1.3h0.4V5H47.6z"/>
	<path class="st3" d="M50.8,3.4h6.5v6.9h-0.4V9.9h-5.7v0.4h-0.4V3.4z M51.2,3.7v5.8h5.7V3.7H51.2z M52,6.2h1.8V5h-2V4.6h4.4V5h-2
		v1.2h1.8v0.4h-1.8v1.7h2.1v0.3h-4.7V8.3h2.1V6.6H52V6.2z M54.8,7.2l0.3-0.2c0,0,0,0,0.1,0.1c0.3,0.3,0.6,0.5,0.7,0.7L55.6,8
		C55.3,7.6,55.1,7.4,54.8,7.2z"/>
	<path class="st3" d="M59.2,4.9V4.5h2.4V5c-0.2,0.5-0.5,1-0.8,1.4v4h-0.4V6.8c-0.3,0.3-0.7,0.7-1.1,1c0-0.1-0.1-0.2-0.1-0.3
		c0,0-0.1-0.1-0.1-0.1c0.9-0.7,1.6-1.5,2.1-2.5H59.2z M60,3.1L60.4,3c0.1,0.3,0.3,0.7,0.5,1.3l-0.4,0.1C60.3,3.9,60.2,3.5,60,3.1z
		 M60.9,6.9l0.3-0.2c0.3,0.3,0.6,0.6,0.9,1l-0.3,0.3C61.6,7.6,61.3,7.2,60.9,6.9z M61.6,9.6h2.1V5.7h-1.8V5.3h1.8V3h0.4v2.3h2v0.4
		h-2v3.9h2.2V10h-4.8V9.6z"/>
	<path class="st3" d="M67.8,8.2c0,0-0.1-0.1-0.1-0.2c0-0.1-0.1-0.2-0.1-0.2c0.6-0.7,1-1.7,1.3-2.9h-1.1V4.5h1.1V3h0.4v1.5h1.1v0.4
		h-1.1v1.3l0.2-0.2c0.4,0.4,0.8,0.7,1,1l-0.3,0.3c-0.1-0.1-0.3-0.3-0.6-0.5c-0.2-0.2-0.3-0.3-0.4-0.4v4.1h-0.4V5.7
		C68.6,6.8,68.2,7.6,67.8,8.2z M71.5,3.9v2.2c0,1.2-0.1,2-0.3,2.6c-0.2,0.5-0.5,1.1-1.1,1.6c-0.1-0.1-0.2-0.2-0.4-0.3
		c0.6-0.5,1-1,1.1-1.5C71,8,71.1,7.2,71.1,6V3.5h2.6v5.8c0,0.3,0.1,0.4,0.3,0.4h0.2c0.3,0,0.4-0.1,0.5-0.4c0.1-0.3,0.1-0.7,0.1-1.2
		C74.9,8,75,8.1,75.1,8.1c0,0.6-0.1,1-0.1,1.2c-0.1,0.5-0.3,0.7-0.8,0.7h-0.3c-0.5,0-0.7-0.2-0.7-0.7V3.9H71.5z"/>
	<path class="st3" d="M83.5,7.8c-1.8-0.1-2.9-0.5-3.4-1.4h-0.2c-0.2,0.7-1.3,1.2-3.4,1.4c0,0-0.1-0.1-0.1-0.2
		c-0.1-0.1-0.1-0.1-0.1-0.2c1.9-0.2,2.9-0.6,3.2-1.1h-2.9V6.1h3.1c0.1-0.2,0.1-0.4,0.1-0.6h0.4c0,0.2-0.1,0.5-0.1,0.6h1.6
		c-0.1-0.1-0.2-0.3-0.3-0.5l0.4-0.2c0.1,0.2,0.2,0.4,0.4,0.7h1.5v0.3h-3c0.5,0.6,1.5,1,3.2,1c0,0-0.1,0.1-0.2,0.3
		C83.5,7.7,83.5,7.8,83.5,7.8z M76.9,3.4h2.5v1.9h-2.5V3.4z M76.9,8h2.5v2.2h-0.4V9.9h-1.8v0.4h-0.4V8z M77.3,3.7v1.2h1.8V3.7H77.3z
		 M77.3,8.4v1.2h1.8V8.4H77.3z M80.5,3.4H83v1.9h-2.5V3.4z M80.5,8H83v2.3h-0.4V9.9h-1.8v0.4h-0.4V8z M80.9,3.7v1.2h1.8V3.7H80.9z
		 M80.9,8.4v1.2h1.8V8.4H80.9z"/>
	<path class="st3" d="M85.3,3.5h0.5v0.7h-0.5V3.5z M85.3,5.2h0.5v4.5h-0.5V5.2z"/>
	<path class="st3" d="M88.1,7.7l0.4,0.2c-0.2,0.6-0.4,1.2-0.8,1.8c-0.1-0.1-0.3-0.2-0.4-0.2C87.7,8.8,88,8.3,88.1,7.7z M88.2,3.4
		h5.7v3.7h-5.7V3.4z M88.6,3.7V5h2.2V3.7H88.6z M88.6,5.4v1.3h2.2V5.4H88.6z M89.3,7.8h0.4v1.3c0,0.4,0.2,0.6,0.7,0.6h1.4
		c0.4,0,0.7-0.1,0.8-0.5c0-0.3,0.1-0.5,0.1-0.7c0,0,0.1,0,0.2,0.1c0.1,0,0.1,0,0.2,0.1c0,0.3-0.1,0.6-0.2,0.8
		c-0.1,0.5-0.5,0.7-1.1,0.7h-1.6c-0.7,0-1-0.3-1-0.9V7.8z M90.5,7.6l0.3-0.2c0,0,0.1,0.1,0.2,0.2c0.4,0.4,0.6,0.7,0.8,1l-0.4,0.2
		C91.1,8.3,90.8,7.9,90.5,7.6z M93.5,3.7h-2.2V5h2.2V3.7z M91.2,5.4v1.3h2.2V5.4H91.2z M93.2,8l0.3-0.2c0.4,0.5,0.8,1,1.1,1.5
		l-0.4,0.2C94,8.9,93.7,8.4,93.2,8z"/>
	<path class="st3" d="M98.1,8.2v0.7c0,0.7-0.2,1.2-0.7,1.5l-0.2-0.2c0.4-0.3,0.7-0.7,0.6-1.2h-0.4V8.2H98.1z"/>
	<path class="st3" d="M104.6,3.4h7.3v0.4h-2.3c0,0.1,0,0.3,0,0.6c0,0.3,0,0.5,0,0.6h1.9v4.3c0,0.6-0.3,0.8-0.9,0.8c-0.3,0-0.6,0-1,0
		c0-0.2,0-0.3-0.1-0.4c0.1,0,0.2,0,0.4,0c0.2,0,0.4,0,0.5,0c0.5,0,0.7-0.1,0.6-0.5V5.4h-1.5c0,0.5-0.1,0.9-0.2,1.3
		c0.1,0.1,0.2,0.2,0.2,0.2c0.5,0.6,1,1,1.3,1.4l-0.3,0.3c-0.5-0.6-0.9-1.1-1.2-1.4c-0.2,0.6-0.6,1.3-1.1,2c-0.1-0.1-0.2-0.2-0.3-0.3
		c0.8-0.9,1.3-2,1.4-3.4h-1.7c0,0.4-0.1,0.7-0.2,1.1c0.2,0.1,0.4,0.4,0.7,0.6c0.1,0.1,0.3,0.3,0.3,0.3l-0.3,0.3
		c-0.1-0.1-0.2-0.2-0.3-0.3c-0.2-0.2-0.4-0.4-0.6-0.6c-0.2,0.7-0.6,1.3-1.1,2c-0.1-0.1-0.3-0.2-0.3-0.3c0.8-0.8,1.2-1.9,1.3-3.2
		h-1.5v4.8h-0.4V5h1.9c0-0.3,0-0.7,0-1.2h-2.4V3.4z M107.5,3.8c0,0.4,0,0.8,0,1.2h1.7c0-0.3,0-0.7,0-1.2H107.5z"/>
	<path class="st3" d="M120.4,6c-1.5-0.7-2.6-1.5-3.3-2.5c-0.9,1-2.1,1.9-3.5,2.6c-0.1-0.1-0.2-0.3-0.3-0.4c1.6-0.8,2.9-1.7,3.8-2.9
		l0.5,0.1c-0.1,0.1-0.1,0.2-0.2,0.2c0.7,1,1.9,1.8,3.4,2.4C120.6,5.7,120.5,5.8,120.4,6z M119.6,10.3c-0.1-0.1-0.2-0.2-0.3-0.3
		c-0.1-0.1-0.2-0.2-0.2-0.2c-1.7,0-3,0.1-4,0.2c0,0-0.1,0-0.2,0c-0.2,0-0.3,0-0.4,0.1l-0.3-0.5c0.2-0.1,0.3-0.2,0.6-0.3
		c0.5-0.5,1-1,1.5-1.6h-2.7V7.2h6.9v0.4h-3.6c-0.6,0.7-1.2,1.3-1.8,1.9c1.3-0.1,2.5-0.1,3.7-0.2c-0.1,0-0.2-0.1-0.3-0.2
		c-0.1-0.1-0.3-0.3-0.6-0.6l0.3-0.2c0.8,0.8,1.4,1.3,1.8,1.7L119.6,10.3z M114.9,5.7h4.1v0.4h-4.1V5.7z"/>
	<path class="st3" d="M122.9,5.4h2.1l0.2-1h-3.3V4.1h4.4c0.2-0.2,0.4-0.5,0.6-0.9c0.1-0.1,0.1-0.2,0.2-0.3l0.4,0.2
		c-0.1,0.1-0.2,0.3-0.4,0.5c-0.1,0.2-0.3,0.3-0.3,0.4h2.5v0.4h-3.6l-0.2,1h2.9v4.9H128V9.8h-4.7v0.5h-0.4V5.4z M123.3,5.8v1h4.7v-1
		H123.3z M123.3,7.2v1h4.7v-1H123.3z M123.3,8.5v1h4.7v-1H123.3z M123.7,3.1l0.3-0.2c0.1,0.1,0.3,0.3,0.5,0.6
		c0.1,0.1,0.2,0.2,0.2,0.3l-0.3,0.3C124.2,3.7,123.9,3.4,123.7,3.1z"/>
	<path class="st3" d="M130.5,9.2c0.5-0.8,1-1.8,1.6-3c0.1,0.1,0.3,0.2,0.4,0.3c-0.2,0.3-0.5,0.8-0.9,1.6c-0.3,0.6-0.5,1.1-0.7,1.4
		L130.5,9.2z M132.1,5.4c-0.6-0.8-1-1.3-1.3-1.7l0.3-0.2c0.1,0.2,0.3,0.4,0.6,0.7c0.3,0.4,0.6,0.7,0.7,0.9L132.1,5.4z M134.8,6
		c0-0.1,0-0.2,0-0.3c0-0.2,0-0.4,0-0.5h0.4c0,0.3,0,0.6,0,0.8c0.3,1.8,1.2,3.1,2.7,3.8c-0.1,0.1-0.2,0.3-0.3,0.4
		c-1.4-0.9-2.3-2-2.5-3.5c-0.2,1.5-1.1,2.7-2.8,3.6c0,0-0.1-0.1-0.2-0.2C132.1,10,132,10,132,9.9C133.7,9,134.7,7.7,134.8,6z
		 M136.9,6.4c-0.1-0.1-0.3-0.1-0.4-0.1l0.7-1.5H134c-0.1,0.4-0.4,0.9-0.8,1.5c-0.1-0.1-0.2-0.2-0.4-0.2c0.6-0.9,1.1-1.9,1.4-3
		l0.5,0.1c-0.1,0.5-0.3,0.9-0.5,1.2h3.4v0.4L136.9,6.4z"/>
	<path class="st3" d="M55.7,18.7v1.4c0,0.3,0.2,0.4,0.5,0.4H57c0.3,0,0.5-0.1,0.6-0.4c0-0.2,0.1-0.5,0.1-0.8c0,0,0.1,0,0.2,0.1
		c0.1,0,0.1,0,0.2,0.1c0,0.3-0.1,0.6-0.1,0.8c-0.1,0.5-0.4,0.7-0.9,0.7h-1c-0.6,0-0.8-0.2-0.8-0.7v-1.1H53v0.1
		c0.1,1.1-0.6,1.7-2.1,1.9c0-0.1-0.1-0.2-0.2-0.4c1.4-0.2,2.1-0.7,1.9-1.5v-0.5H55.7z M50.8,14.5h3.4c0-0.1-0.1-0.2-0.1-0.3
		C54,14,54,13.9,54,13.8l0.4-0.1c0,0.1,0.1,0.2,0.1,0.4c0,0.2,0.1,0.3,0.1,0.4h3.3v0.4h-7.1V14.5z M50.9,17.7h6.8v1.1h-0.4V18h-6
		v0.7h-0.4V17.7z M52,15.6h4.7V17H52V15.6z M52.4,15.9v0.7h3.9v-0.7H52.4z"/>
	<path class="st3" d="M59.4,19c0-0.1-0.1-0.1-0.1-0.2c0-0.1-0.1-0.2-0.1-0.2c0.6-0.8,1-1.8,1.3-2.9h-1.2v-0.4h1.2v-1.5h0.4v1.5H62
		v0.4h-1.1v1.3l0.2-0.2c0.3,0.3,0.7,0.6,1,1l-0.3,0.3c0,0,0-0.1-0.1-0.1c-0.2-0.3-0.5-0.6-0.8-0.9v4h-0.4v-4.5
		C60.3,17.5,59.9,18.3,59.4,19z M62.5,14.3h3.9v6.8h-0.4v-0.5h-3v0.5h-0.4V14.3z M62.9,14.7v1.6h3v-1.6H62.9z M62.9,16.7v1.6h3v-1.6
		H62.9z M62.9,18.7v1.6h3v-1.6H62.9z"/>
	<path class="st3" d="M70.1,19v0.7c0,0.7-0.2,1.2-0.7,1.5L69.2,21c0.4-0.3,0.7-0.7,0.6-1.2h-0.4V19H70.1z"/>
	<path class="st3" d="M80,13.8h0.4V15h3.2v0.4h-3.2v1.4h2.7v0.4h-2.7v1.5h3.4v0.4h-3.4v2H80v-2h-3.4v-0.4H80v-1.5h-2.7v-0.4H80v-1.4
		h-3.2V15H80V13.8z"/>
	<path class="st3" d="M85.5,14.6h3.3c0-0.2-0.1-0.5-0.1-0.8l0.4,0c0.1,0.3,0.1,0.6,0.1,0.8h3.2V16h-0.4v-1h-6v1h-0.4V14.6z M86,18.3
		h5.9v2.8h-0.4v-0.4h-5v0.4H86V18.3z M86.4,18.6v0.8h2.3v-0.8H86.4z M86.4,19.7v0.7h2.3v-0.7H86.4z M86.5,15.5h4.9v0.3h-4.9V15.5z
		 M86.7,16.4h4.5v1.4h-4.5V16.4z M87.1,16.7v0.7h3.7v-0.7H87.1z M91.4,18.6h-2.3v0.8h2.3V18.6z M89.1,19.7v0.7h2.3v-0.7H89.1z"/>
	<path class="st3" d="M94.1,15.1h0.8c0.2-0.5,0.3-0.9,0.4-1.3l0.4,0.1c-0.1,0.4-0.2,0.8-0.4,1.2h1.6V21h-0.4v-0.6h-2V21h-0.4V15.1z
		 M94.5,15.4v2.1h2v-2.1H94.5z M94.5,17.9V20h2v-2.1H94.5z M97.6,16.7c0,0-0.1-0.1-0.2-0.1c-0.1,0-0.1-0.1-0.2-0.1
		c0.4-0.7,0.8-1.6,1.2-2.7l0.4,0.1c-0.1,0.4-0.3,0.7-0.4,1.1h2.5c0,0.1,0,0.3,0,0.5c0,1.8-0.1,3.2-0.2,4.2c0,0.8-0.4,1.2-1.3,1.2
		c-0.4,0-0.8,0-1.2,0c0,0,0-0.1,0-0.1c0-0.2-0.1-0.3-0.1-0.3c0.3,0,0.7,0,1.3,0c0.7,0,1-0.3,1-0.9c0-0.5,0.1-1.6,0.1-3.2
		c0-0.5,0-0.8,0-1h-2.3C98,16,97.8,16.5,97.6,16.7z M98,17.1l0.3-0.2c0,0.1,0.1,0.1,0.2,0.2c0.4,0.6,0.8,1,1,1.4l-0.3,0.2
		C98.8,18.1,98.4,17.6,98,17.1z"/>
	<path class="st3" d="M109.5,20.9c-2-1-3.1-2.6-3.3-4.8c-0.3,2.2-1.4,3.8-3.4,4.9c0,0-0.1-0.1-0.1-0.1c-0.1-0.1-0.1-0.2-0.2-0.2
		c1.9-1.1,3.1-2.7,3.3-4.9c0.1-0.4,0.1-1,0.1-1.9h0.5c0,0.1,0,0.3,0,0.6c0,0.3,0,0.5,0,0.6c0.3,2.8,1.5,4.7,3.5,5.5
		c0,0-0.1,0.1-0.2,0.2C109.6,20.9,109.6,20.9,109.5,20.9z"/>
	<path class="st3" d="M112.6,13.8h0.4v1.8h0.8V16H113v1.8c0.1,0,0.2-0.1,0.4-0.2c0.2-0.1,0.3-0.1,0.4-0.1c0,0.1,0,0.2,0,0.3
		c0-0.1,0-0.1,0,0.1c-0.3,0.1-0.6,0.2-0.9,0.3v2.9h-0.4v-2.8c-0.2,0.1-0.4,0.2-0.7,0.3c-0.3,0.1-0.5,0.2-0.6,0.2l-0.1-0.4
		c0.1,0,0.3-0.1,0.6-0.2c0.4-0.1,0.7-0.2,0.9-0.3V16h-0.8c-0.1,0.4-0.2,0.8-0.3,1.2c-0.1-0.1-0.2-0.1-0.3-0.2
		c0.3-0.7,0.4-1.6,0.5-2.5l0.4,0c0,0.4-0.1,0.7-0.2,1h0.8V13.8z M113.6,16.7c0.6-0.9,1.1-1.8,1.4-2.9l0.4,0.1
		c-0.1,0.4-0.3,0.8-0.5,1.2h3.3c-0.1,2.3-0.1,3.8-0.1,4.6c0,0.8-0.4,1.2-1.3,1.2c-0.1,0-0.2,0-0.5,0c-0.2,0-0.4,0-0.5,0
		c0-0.1-0.1-0.3-0.1-0.5c0.3,0,0.7,0,1,0c0.6,0,0.9-0.3,0.9-0.9c0.1-1.1,0.1-2.5,0.1-4.2h-0.7c-0.2,2.6-1.1,4.5-2.6,5.5
		c-0.2-0.2-0.3-0.3-0.3-0.3c1.6-1,2.4-2.8,2.6-5.2h-0.8c-0.2,1.8-1,3.2-2.1,4.2c-0.1-0.1-0.2-0.2-0.3-0.3c1.1-1,1.8-2.3,2.1-3.9
		h-0.7c-0.2,0.6-0.5,1-0.8,1.5C113.9,16.8,113.8,16.7,113.6,16.7z"/>
	<path class="st3" d="M120.1,16.4c-0.1-0.1-0.2-0.1-0.4-0.2c0.3-0.7,0.7-1.5,0.9-2.5l0.4,0.1c0,0,0,0.1-0.1,0.2
		c0,0.2-0.1,0.4-0.2,0.8h2.4v0.4h-1.2c0,0.9,0,1.5,0,1.9h1.4v0.4h-1.5c0,0.4-0.1,0.7-0.2,1l0.2-0.2c0.1,0.1,0.3,0.3,0.5,0.6
		c0.4,0.5,0.7,0.8,1,1.1l-0.4,0.2c-0.6-0.7-1.1-1.3-1.4-1.6c-0.2,0.9-0.8,1.7-1.6,2.4c-0.1-0.1-0.2-0.2-0.3-0.3
		c1.1-0.8,1.7-1.9,1.8-3.2h-1.6v-0.4h1.7c0-0.4,0-1,0-1.9h-0.9C120.5,15.7,120.3,16,120.1,16.4z M123.8,14.6h3.1v6.2h-0.4V20h-2.2
		v0.7h-0.4V14.6z M124.2,15v4.6h2.2V15H124.2z"/>
	<path class="st3" d="M129.8,19.7c0.3-0.2,0.7-0.5,1.2-0.9l0.1,0.5c-0.4,0.3-0.8,0.6-1.3,1c-0.1,0-0.2,0.1-0.3,0.2l-0.3-0.3
		c0.1-0.2,0.2-0.4,0.2-0.7v-2.7h-1v-0.4h1.4V19.7z M130.1,15.5c-0.1-0.1-0.2-0.3-0.5-0.5c-0.3-0.3-0.6-0.6-0.7-0.7l0.3-0.2
		c0.1,0.1,0.2,0.3,0.4,0.5c0.4,0.4,0.6,0.7,0.7,0.8L130.1,15.5z M132.3,18.7l0.4,0.2c-0.5,0.7-1.1,1.4-1.8,2.2l-0.3-0.3
		C131.2,20.2,131.7,19.5,132.3,18.7z M131.3,14.3h4V18h-4V14.3z M131.7,14.7v2.9h3.2v-2.9H131.7z M133.9,18.9l0.3-0.2
		c0.6,0.7,1.1,1.4,1.7,2.1l-0.4,0.3C135.1,20.5,134.6,19.8,133.9,18.9z"/>
	<path class="st3" d="M51,24.9h6.6v7h-0.4v-0.4h-5.8v0.4H51V24.9z M51.4,25.3v5.9h5.8v-5.9H51.4z M52.1,27.5
		c-0.1-0.1-0.1-0.2-0.2-0.3c0.6-0.5,1.2-1.1,1.6-1.7l0.3,0.2c0,0.1-0.1,0.2-0.2,0.3c-0.1,0.1-0.1,0.1-0.1,0.2h2.8v0.4
		c-0.4,0.5-0.9,0.9-1.4,1.2c0.6,0.2,1.3,0.4,2,0.6c-0.1,0.1-0.1,0.2-0.2,0.4c-0.8-0.2-1.6-0.4-2.2-0.7c-0.7,0.4-1.6,0.7-2.5,0.9
		c-0.1-0.1-0.1-0.2-0.2-0.4c0.9-0.1,1.7-0.4,2.4-0.7c-0.4-0.3-0.8-0.6-1.2-1c-0.1,0-0.2,0.1-0.3,0.2C52.6,27.1,52.5,27.3,52.1,27.5z
		 M52.4,30.2l0.1-0.4c1.3,0.2,2.4,0.4,3.5,0.6l-0.1,0.4C54.6,30.4,53.4,30.3,52.4,30.2z M55.8,26.5h-2.6l0,0c0.4,0.4,0.8,0.8,1.3,1
		C55,27.3,55.5,26.9,55.8,26.5z M53.2,29.1l0.1-0.4c0.2,0,0.6,0.1,1.1,0.2c0.5,0.1,0.9,0.2,1.1,0.2l-0.1,0.3
		C54.7,29.3,54,29.2,53.2,29.1z"/>
	<path class="st3" d="M60.5,30.9c0,0,0.1-0.1,0.3-0.2c0.3-0.3,0.4-0.5,0.6-0.6c0,0.1,0,0.1,0.1,0.2c0,0.1,0,0.2,0,0.2
		c-0.6,0.5-1,0.8-1.3,1.1l-0.3-0.4c0.2-0.1,0.3-0.4,0.2-0.6v-3h-0.9v-0.4h1.3V30.9z M60.5,26.1c-0.3-0.4-0.6-0.8-0.9-1.1l0.3-0.2
		c0.2,0.2,0.4,0.5,0.8,0.9c0.1,0.1,0.1,0.1,0.1,0.1L60.5,26.1z M61.4,25.6H63c-0.1-0.1-0.3-0.3-0.5-0.6c-0.1-0.1-0.1-0.1-0.2-0.2
		l0.3-0.2c0.1,0.1,0.2,0.2,0.4,0.4c0.2,0.2,0.3,0.3,0.4,0.4l-0.3,0.2h1.3c0-0.1,0.1-0.2,0.2-0.3c0.3-0.3,0.5-0.6,0.6-0.7l0.3,0.2
		c-0.1,0.1-0.2,0.2-0.4,0.5c-0.1,0.1-0.2,0.3-0.3,0.3h1.5v0.3h-1.6v1.8h1.9V28h-5.6v-0.3H63v-1.8h-1.6V25.6z M61.5,26.4l0.3-0.2
		c0.3,0.3,0.6,0.5,0.8,0.8l-0.3,0.2c0,0-0.1-0.1-0.1-0.2C61.8,26.8,61.6,26.6,61.5,26.4z M61.9,28.8h3.9v3.2h-0.4v-0.4h-3.1v0.4
		h-0.4V28.8z M62.4,29.1V30h3.1v-0.9H62.4z M62.4,30.4v0.9h3.1v-0.9H62.4z M63.4,25.9v1.8h1v-1.8H63.4z M65.2,27.1
		c0.3-0.3,0.6-0.5,0.8-0.8l0.3,0.2c-0.3,0.3-0.6,0.6-0.8,0.9L65.2,27.1z"/>
	<path class="st3" d="M69.5,24.5v0.7c0,0.7-0.2,1.3-0.7,1.6l-0.2-0.2c0.4-0.3,0.7-0.7,0.6-1.3h-0.4v-0.8H69.5z M70.7,24.5v0.7
		c0,0.7-0.2,1.2-0.8,1.6l-0.2-0.2c0.4-0.3,0.6-0.7,0.6-1.3H70v-0.8H70.7z"/>
</g>
</svg>
