<?xml version="1.0" encoding="UTF-8" standalone="no"?>
<svg width="107px" height="56px" viewBox="0 0 107 56" version="1.1" xmlns="http://www.w3.org/2000/svg" xmlns:xlink="http://www.w3.org/1999/xlink">
    <!-- Generator: Sketch 3.8.1 (29687) - http://www.bohemiancoding.com/sketch -->
    <title>白logo copy</title>
    <desc>Created with Sketch.</desc>
    <defs></defs>
    <g id="Page-1" stroke="none" stroke-width="1" fill="none" fill-rule="evenodd">
        <g id="Mobile-Portrait-Copy" transform="translate(0.000000, -23.000000)">
            <g id="白logo-copy" transform="translate(0.000000, 23.000000)">
                <g id="图层_1">
                    <rect id="Rectangle-path" fill="#050C18" x="0" y="0" width="106.827419" height="56"></rect>
                    <g id="Group" transform="translate(17.258065, 17.329730)" fill="#FFFFFF">
                        <path d="M21.2274194,4.23027027 C20.7096774,4.23027027 20.3645161,4.57837838 20.3645161,5.10054054 L20.3645161,11.8886486 C20.3645161,15.7178378 18.983871,17.2843243 15.8774194,17.2843243 C12.5983871,17.2843243 11.3903226,15.7178378 11.3903226,11.8886486 L11.3903226,5.10054054 C11.3903226,4.57837838 11.0451613,4.23027027 10.5274194,4.23027027 C10.0096774,4.23027027 9.66451613,4.57837838 9.66451613,5.10054054 L9.66451613,11.8886486 C9.66451613,13.6291892 9.66451613,18.8508108 15.8774194,18.8508108 C22.0903226,18.8508108 22.0903226,13.6291892 22.0903226,11.8886486 L22.0903226,5.10054054 C22.0903226,4.57837838 21.5725806,4.23027027 21.2274194,4.23027027 L21.2274194,4.23027027 Z M41.4193548,4.23027027 C40.9016129,4.23027027 40.5564516,4.57837838 40.5564516,5.10054054 L40.5564516,18.1545946 C40.5564516,18.6767568 40.9016129,19.0248649 41.4193548,19.0248649 C41.9370968,19.0248649 42.2822581,18.6767568 42.2822581,18.1545946 L42.2822581,5.10054054 C42.2822581,4.57837838 41.9370968,4.23027027 41.4193548,4.23027027 L41.4193548,4.23027027 Z M41.4193548,0.052972973 C40.9016129,0.052972973 40.383871,0.575135135 40.383871,1.0972973 C40.383871,1.61945946 40.9016129,2.14162162 41.4193548,2.14162162 C41.9370968,2.14162162 42.4548387,1.61945946 42.4548387,1.0972973 C42.4548387,0.575135135 42.1096774,0.052972973 41.4193548,0.052972973 L41.4193548,0.052972973 Z M70.9306452,4.23027027 C70.4129032,4.23027027 70.0677419,4.57837838 70.0677419,5.10054054 L70.0677419,18.1545946 C70.0677419,18.6767568 70.4129032,19.0248649 70.9306452,19.0248649 C71.4483871,19.0248649 71.7935484,18.6767568 71.7935484,18.1545946 L71.7935484,5.10054054 C71.7935484,4.57837838 71.2758065,4.23027027 70.9306452,4.23027027 L70.9306452,4.23027027 Z M70.9306452,2.14162162 C71.4483871,2.14162162 71.966129,1.61945946 71.966129,1.0972973 C71.966129,0.575135135 71.4483871,0.052972973 70.9306452,0.052972973 C70.4129032,0.052972973 69.8951613,0.575135135 69.8951613,1.0972973 C69.8951613,1.61945946 70.2403226,2.14162162 70.9306452,2.14162162 L70.9306452,2.14162162 Z M48.8403226,16.7621622 C48.3225806,16.7621622 47.8048387,17.2843243 47.8048387,17.8064865 C47.8048387,18.3286486 48.3225806,18.8508108 48.8403226,18.8508108 C49.3580645,18.8508108 49.8758065,18.3286486 49.8758065,17.8064865 C49.8758065,17.1102703 49.3580645,16.7621622 48.8403226,16.7621622 L48.8403226,16.7621622 Z M64.3725806,4.23027027 L61.9564516,4.23027027 L61.9564516,4.23027027 C61.9564516,4.23027027 61.9564516,4.23027027 61.783871,4.23027027 C57.8145161,4.23027027 54.5354839,7.5372973 54.5354839,11.5405405 C54.5354839,15.5437838 57.8145161,18.8508108 61.783871,18.8508108 L64.3725806,18.8508108 C64.8903226,18.8508108 65.2354839,18.5027027 65.2354839,17.9805405 L65.2354839,5.10054054 C65.2354839,4.57837838 64.8903226,4.23027027 64.3725806,4.23027027 L64.3725806,4.23027027 Z M63.5096774,17.1102703 L61.783871,17.1102703 C58.6774194,17.1102703 56.0887097,14.4994595 56.0887097,11.3664865 C56.0887097,8.23351351 58.6774194,5.6227027 61.783871,5.6227027 L61.9564516,5.6227027 L61.9564516,5.6227027 L63.5096774,5.6227027 L63.5096774,17.1102703 L63.5096774,17.1102703 Z M36.7596774,4.23027027 C33.9983871,4.23027027 31.5822581,5.97081081 30.3741935,8.58162162 C29.166129,6.14486486 26.75,4.23027027 23.9887097,4.23027027 C23.4709677,4.23027027 23.1258065,4.57837838 23.1258065,5.10054054 C23.1258065,5.6227027 23.4709677,5.97081081 23.9887097,5.97081081 C27.0951613,5.97081081 29.5112903,9.27783784 29.5112903,12.0627027 L29.5112903,12.0627027 L29.5112903,12.0627027 L29.5112903,18.1545946 C29.5112903,18.6767568 29.8564516,19.0248649 30.3741935,19.0248649 C30.8919355,19.0248649 31.2370968,18.6767568 31.2370968,18.1545946 L31.2370968,12.0627027 L31.2370968,12.0627027 L31.2370968,12.0627027 C31.2370968,9.10378378 33.6532258,5.97081081 36.7596774,5.97081081 C37.2774194,5.97081081 37.6225806,5.6227027 37.6225806,5.10054054 C37.6225806,4.57837838 37.2774194,4.23027027 36.7596774,4.23027027 L36.7596774,4.23027027 Z M7.42096774,4.23027027 C3.62419355,4.23027027 0.34516129,7.88540541 0.34516129,11.8886486 L0.34516129,11.8886486 L0.34516129,11.8886486 L0.34516129,17.9805405 C0.34516129,18.5027027 0.690322581,18.8508108 1.20806452,18.8508108 C1.72580645,18.8508108 2.07096774,18.5027027 2.07096774,17.9805405 L2.07096774,11.8886486 L2.07096774,11.8886486 L2.07096774,11.8886486 C2.07096774,8.92972973 4.48709677,5.79675676 7.59354839,5.79675676 C8.11129032,5.79675676 8.45645161,5.44864865 8.45645161,4.92648649 C8.28387097,4.57837838 7.93870968,4.23027027 7.42096774,4.23027027 L7.42096774,4.23027027 Z" id="Shape"></path>
                    </g>
                </g>
            </g>
        </g>
    </g>
</svg>