<?xml version="1.0" encoding="utf-8"?>
<!-- Generator: Adobe Illustrator 19.0.0, SVG Export Plug-In . SVG Version: 6.00 Build 0)  -->
<svg version="1.1" id="图层_1" xmlns="http://www.w3.org/2000/svg" xmlns:xlink="http://www.w3.org/1999/xlink" x="0px" y="0px"
	 viewBox="-496 276.1 142.3 88.9" style="enable-background:new -496 276.1 142.3 88.9;" xml:space="preserve">
<style type="text/css">
	.st0{fill:#FFFFFF;}
	.st1{fill:#C9CACA;}
	.st2{fill:#8A8A8A;}
</style>
<g>
	<g>
		<g>
			<path class="st0" d="M-424.9,276.6c-39,0-70.7,17.8-70.7,39.8c0,13.7,12.3,25.8,30.9,32.9c0,0,0.3,0.1,1,0.4
				c-0.7,5.2-5.6,10.6-7.9,13.5h0c-0.2,0.3-0.3,0.7-0.3,1.1c0,1.4,23.8-5.9,31-9.3c5,0.7,10.4,1.2,16,1.2c39,0,70.7-17.8,70.7-39.8
				C-354.2,294.4-385.8,276.6-424.9,276.6z"/>
			<path class="st1" d="M-471.3,365c-0.9,0-1-0.4-1-0.7c0-0.4,0.1-0.9,0.3-1.3c0,0,0-0.1,0.1-0.1c0.3-0.4,0.7-0.9,1.1-1.4
				c2.3-2.9,5.8-7.2,6.6-11.4c-0.3-0.1-0.5-0.2-0.6-0.2c-19.6-7.5-31.3-20-31.3-33.4c0-22.2,31.9-40.3,71.2-40.3
				s71.2,18.1,71.2,40.3c0,22.2-31.9,40.3-71.2,40.3c-5,0-10.4-0.4-15.9-1.2C-447.4,358.7-467.8,365-471.3,365z M-471,363.4
				C-471,363.4-471,363.4-471,363.4c-0.1,0.2-0.2,0.4-0.2,0.5c3.6,0,23.8-6.3,30.2-9.4c0.1,0,0.2-0.1,0.3,0
				c5.5,0.8,10.9,1.2,15.9,1.2c38.7,0,70.2-17.6,70.2-39.3c0-21.7-31.5-39.3-70.2-39.3s-70.2,17.6-70.2,39.3
				c0,13,11.4,25.1,30.6,32.5c0,0,0,0,0.1,0c0.1,0,0.4,0.2,0.9,0.3c0.2,0.1,0.4,0.3,0.3,0.5c-0.6,4.6-4.4,9.3-6.9,12.3
				C-470.4,362.6-470.7,363-471,363.4z"/>
		</g>
		<g>
			<path class="st1" d="M-416.7,347.3v-1c25.1,0,47.1-9.8,52.3-23.4l0.9,0.4C-368.8,337.2-391.1,347.3-416.7,347.3z"/>
		</g>
	</g>
	<g>
		<path class="st2" d="M-475.5,303.8v-0.7c0-0.7,0.3-1.2,0.8-1.6l0.2,0.2c-0.4,0.3-0.6,0.8-0.6,1.3h0.4v0.8H-475.5z M-474.3,303.8
			v-0.7c0-0.7,0.3-1.2,0.8-1.6l0.2,0.2c-0.4,0.3-0.6,0.8-0.6,1.3h0.4v0.8H-474.3z"/>
		<path class="st2" d="M-471.2,308.5c0,0-0.1-0.1-0.2-0.2c-0.1-0.1-0.1-0.2-0.2-0.2c1.2-0.5,2.4-1.3,3.3-2.4h-3.2v-0.4h3.4v-2.2
			h-2.9v-0.4h2.9v-1.1h0.4v1.1h3v0.4h-3v2.2h3.4v0.4h-3.2c0.9,1,2,1.8,3.3,2.3c-0.1,0.1-0.2,0.2-0.3,0.4c-1.4-0.6-2.5-1.4-3.2-2.4
			v3.1h-0.4V306C-468.8,307-469.9,307.8-471.2,308.5z M-470.3,303.8l0.3-0.2c0.1,0.1,0.2,0.2,0.3,0.3c0.3,0.3,0.5,0.6,0.6,0.8
			l-0.3,0.3C-469.7,304.5-470,304.1-470.3,303.8z M-466.3,305l-0.3-0.3c0.2-0.2,0.5-0.5,0.8-0.9c0.1-0.1,0.2-0.2,0.2-0.2l0.3,0.2
			c-0.1,0.1-0.3,0.4-0.6,0.7C-466.1,304.7-466.2,304.9-466.3,305z"/>
		<path class="st2" d="M-462,302.7h2.1c0.1-0.4,0.2-0.8,0.3-1l0.5,0.1c0,0,0,0.1-0.1,0.2c0,0.2-0.1,0.4-0.2,0.8h3.3v6.3h-0.4v-0.5
			h-4.9v0.5h-0.4V302.7z M-461.6,303.1v1.4h4.9v-1.4H-461.6z M-461.6,304.9v1.4h4.9v-1.4H-461.6z M-461.6,306.7v1.4h4.9v-1.4H-461.6
			z"/>
		<path class="st2" d="M-453.6,305.7h2.9v-0.9h-2.8v-2.7h6v2.7h-2.8v0.9h3v0.4h-3v0.9h3.5v0.4h-7.4v-0.4h3.5V306h-2.9V305.7z
			 M-453.1,307.5l0.4,0.2c-0.3,0.4-0.6,0.9-0.9,1.3c-0.2-0.1-0.3-0.2-0.4-0.2C-453.6,308.3-453.3,307.8-453.1,307.5z M-453.1,302.4
			v2h2.4v-2H-453.1z M-452.4,303.1l0.3-0.2c0,0.1,0.1,0.1,0.2,0.2c0.3,0.3,0.5,0.6,0.6,0.7l-0.3,0.2
			C-452,303.6-452.2,303.3-452.4,303.1z M-451.9,307.8l0.4-0.1c0,0.1,0.1,0.3,0.2,0.5c0.1,0.3,0.2,0.5,0.2,0.7l-0.4,0.1
			C-451.5,308.5-451.7,308.1-451.9,307.8z M-447.9,302.4h-2.4v2h2.4V302.4z M-450,307.7l0.3-0.2c0,0.1,0.1,0.1,0.1,0.2
			c0.2,0.3,0.4,0.6,0.5,0.9l-0.4,0.2C-449.6,308.5-449.8,308.1-450,307.7z M-448.6,303.1c-0.1,0.1-0.2,0.2-0.4,0.4
			c-0.2,0.3-0.4,0.5-0.5,0.6l-0.3-0.2c0.3-0.3,0.6-0.6,0.8-1L-448.6,303.1z M-448.1,307.7l0.3-0.2c0.3,0.4,0.6,0.7,0.8,1.1l-0.3,0.2
			c0,0-0.1-0.1-0.1-0.2C-447.7,308.3-448,307.9-448.1,307.7z"/>
		<path class="st2" d="M-445.4,304c-0.1-0.1-0.2-0.2-0.2-0.3c0.6-0.6,1-1.3,1.3-2.1l0.4,0.1c0,0.1-0.1,0.2-0.2,0.3
			c-0.1,0.1-0.1,0.3-0.2,0.3h1.3v0.3l-0.6,1.1h0.9v3.3h-2.5v-3.3h1.2l0.6-1.1h-1.1C-444.7,303.1-445,303.6-445.4,304z M-445.5,308.5
			l-0.1-0.4c1,0,1.9-0.1,2.8-0.2c0,0.1,0,0.3,0,0.3C-443.5,308.2-444.4,308.4-445.5,308.5z M-444.8,304.2v1.2h0.7v-1.2H-444.8z
			 M-444.8,305.7v1.2h0.7v-1.2H-444.8z M-443,304.2h-0.7v1.2h0.7V304.2z M-443.8,305.7v1.2h0.7v-1.2H-443.8z M-441.5,306.8l0.3,0.2
			c-0.2,0.5-0.6,1-1,1.5c-0.1-0.1-0.2-0.2-0.3-0.2C-442.1,307.8-441.8,307.3-441.5,306.8z M-442.3,302.7h4.1v0.4h-4.1V302.7z
			 M-441.9,303.9h3.2v2.2h-1.4v2.1c0,0.5-0.2,0.7-0.7,0.7c-0.2,0-0.4,0-0.7,0c0-0.1-0.1-0.2-0.1-0.4c0.2,0,0.4,0,0.6,0
			c0.3,0,0.5-0.1,0.4-0.4v-2h-1.5V303.9z M-441.5,304.3v1.4h2.5v-1.4H-441.5z M-440.7,301.8l0.3-0.1c0.1,0.1,0.2,0.4,0.3,0.6
			c0.1,0.1,0.1,0.2,0.1,0.2l-0.4,0.1C-440.4,302.4-440.5,302.1-440.7,301.8z M-439.4,307l0.3-0.2c0.3,0.4,0.6,0.9,1,1.5l-0.4,0.2
			c-0.1-0.1-0.1-0.2-0.2-0.4C-439,307.6-439.2,307.3-439.4,307z"/>
		<path class="st2" d="M-436.7,302.7c0-0.1,0-0.2-0.1-0.4c0.8,0,1.7-0.1,2.6-0.3l0.1,0.4c-0.4,0.1-0.8,0.1-1.2,0.1v1.4h1.2v0.4h-1.2
			v0.9l0.2-0.2c0.1,0,0.2,0.1,0.3,0.2c0.4,0.3,0.6,0.6,0.7,0.7l-0.3,0.3c-0.1-0.1-0.2-0.2-0.4-0.3c-0.2-0.2-0.4-0.4-0.5-0.5v3.6
			h-0.4v-3.9c-0.3,1-0.7,1.8-1.2,2.5c-0.1-0.2-0.1-0.3-0.2-0.5c0.5-0.7,1-1.6,1.4-2.8h-1.3V304h1.3v-1.4c-0.1,0-0.3,0-0.6,0
			C-436.4,302.7-436.6,302.7-436.7,302.7z M-434.2,306.7l3-0.3v-4.7h0.4v4.7l1.3-0.1l0,0.4l-1.3,0.1v2.2h-0.4v-2.2l-2.9,0.3
			L-434.2,306.7z M-433.7,304.6l0.3-0.3c0.4,0.3,0.8,0.7,1.2,1l-0.3,0.3c-0.1-0.1-0.3-0.3-0.6-0.5
			C-433.4,305-433.6,304.8-433.7,304.6z M-433.3,302.8l0.2-0.3c0.3,0.2,0.8,0.6,1.3,1l-0.3,0.3
			C-432.5,303.5-432.9,303.1-433.3,302.8z"/>
		<path class="st2" d="M-428.3,305.7c0.3-0.1,0.7-0.2,1.2-0.3v-1.8h-1.1v-0.4h1.1v-1.5h0.4v1.5h0.9v0.4h-0.9v1.7
			c0.3-0.1,0.7-0.2,1-0.3c0,0.1,0,0.2,0,0.4c-0.1,0-0.2,0.1-0.3,0.1c-0.3,0.1-0.5,0.1-0.6,0.2v2.4c0,0.6-0.2,0.8-0.8,0.8
			c-0.2,0-0.4,0-0.6,0c0,0,0-0.1,0-0.1c0-0.1-0.1-0.2-0.1-0.3c0.2,0,0.4,0,0.6,0c0.3,0,0.5-0.1,0.5-0.4v-2.2
			c-0.4,0.1-0.7,0.2-1.1,0.3L-428.3,305.7z M-425.3,305v-0.4h1.9v-1.4h-2v-0.4h2v-1.2h0.4v1.2h2.1v0.4h-2.1v1.4h1.6v0.4
			c-0.4,1.1-0.9,1.9-1.6,2.5c0.5,0.3,1.2,0.7,2.1,1c0,0-0.1,0.1-0.2,0.3c0,0-0.1,0.1-0.1,0.1c-0.9-0.4-1.6-0.8-2.1-1.2
			c-0.6,0.4-1.4,0.8-2.5,1.2c0-0.1-0.1-0.2-0.3-0.4c1.2-0.4,2-0.8,2.4-1.1c-0.6-0.6-1-1.4-1.4-2.5H-425.3z M-421.9,305h-2.6
			c0.3,1,0.7,1.7,1.2,2.2C-422.7,306.8-422.2,306-421.9,305z"/>
		<path class="st2" d="M-419.3,303h0.8c0.2-0.5,0.3-0.9,0.4-1.3l0.4,0.1c-0.1,0.4-0.2,0.8-0.4,1.2h1.6v5.9h-0.4v-0.6h-2v0.7h-0.4
			V303z M-418.9,303.3v2.1h2v-2.1H-418.9z M-418.9,305.8v2.1h2v-2.1H-418.9z M-415.9,304.6c0,0-0.1-0.1-0.2-0.1
			c-0.1,0-0.1-0.1-0.2-0.1c0.4-0.7,0.8-1.6,1.2-2.7l0.4,0.1c-0.1,0.4-0.3,0.7-0.4,1.1h2.5c0,0.1,0,0.3,0,0.5c0,1.8-0.1,3.2-0.2,4.2
			c0,0.8-0.4,1.2-1.3,1.2c-0.4,0-0.8,0-1.2,0c0,0,0-0.1,0-0.1c0-0.2-0.1-0.3-0.1-0.3c0.3,0,0.7,0,1.3,0c0.7,0,1-0.3,1-0.9
			c0-0.5,0.1-1.6,0.1-3.2c0-0.5,0-0.8,0-1h-2.3C-415.5,303.9-415.7,304.4-415.9,304.6z M-415.5,305l0.3-0.2c0,0.1,0.1,0.1,0.2,0.2
			c0.4,0.6,0.8,1,1,1.4l-0.3,0.2C-414.7,306-415.1,305.5-415.5,305z"/>
		<path class="st2" d="M-407.5,305.5c-0.1,0-0.1-0.1-0.2-0.2c-0.5-0.4-0.9-0.7-1.2-0.9c-0.2,0.5-0.8,1-1.8,1.5
			c-0.1-0.1-0.1-0.2-0.2-0.4c1-0.4,1.6-0.9,1.8-1.5h-1.7v-0.4h1.8c0.1-0.3,0.1-0.6,0.1-1h-1c-0.1,0.2-0.3,0.5-0.6,0.7
			c-0.1-0.1-0.2-0.1-0.3-0.2c0.5-0.5,0.9-1,1.1-1.5l0.3,0.1c0,0.1-0.1,0.2-0.2,0.4c-0.1,0.1-0.1,0.2-0.1,0.3h2.4v0.3h-1.2
			c0,0.4,0,0.7-0.1,1h1.5v0.4h-1.6v0c0,0,0,0,0,0c0.1,0,0.2,0.1,0.3,0.2c0.4,0.2,0.8,0.5,1.3,0.9L-407.5,305.5z M-409.7,305.8h5v3.3
			h-0.4v-0.3h-4.2v0.3h-0.4V305.8z M-409.3,306.1v0.9h4.2v-0.9H-409.3z M-409.3,307.4v0.9h4.2v-0.9H-409.3z M-406.8,302.3h2.7v2.8
			h-2.7V302.3z M-406.4,302.7v2h1.9v-2H-406.4z"/>
		<path class="st2" d="M-398.7,304.2c0-0.1-0.1-0.1-0.2-0.2c-0.1-0.1-0.2-0.2-0.2-0.2c-1.2,0-2,0.1-2.5,0.1c-0.2,0-0.4,0-0.5,0.1
			l-0.2-0.4c0.1-0.1,0.3-0.2,0.5-0.4c0.5-0.5,0.9-1.1,1.3-1.6l0.4,0.2c-0.6,0.7-1,1.3-1.5,1.7c0.1,0,0.2,0,0.4,0
			c0.8,0,1.5-0.1,1.9-0.1c-0.2-0.2-0.4-0.5-0.7-0.7l0.3-0.2c0.5,0.4,0.9,0.9,1.4,1.5L-398.7,304.2z M-401.5,308.9h-0.4v-4.3h2.9v3.5
			c0,0.5-0.2,0.7-0.7,0.7c-0.2,0-0.5,0-0.7,0c0-0.1,0-0.3-0.1-0.4c0.1,0,0.2,0,0.3,0c0.2,0,0.3,0,0.4,0c0.3,0,0.4-0.1,0.4-0.4v-0.8
			h-2.1V308.9z M-401.5,305v0.9h2.1V305H-401.5z M-401.5,306.2v0.9h2.1v-0.9H-401.5z M-398,305.4h0.4v1.3c0.8-0.3,1.6-0.7,2.3-1.1
			l0.2,0.4c-0.8,0.4-1.7,0.8-2.5,1.1v0.7c0,0.3,0.2,0.5,0.6,0.5h0.9c0.4,0,0.6-0.1,0.7-0.4c0-0.2,0.1-0.4,0.1-0.8
			c0.1,0,0.1,0,0.2,0.1c0.1,0,0.1,0.1,0.2,0.1c0,0.2-0.1,0.5-0.1,0.8c-0.1,0.5-0.4,0.7-1,0.7h-1c-0.6,0-0.9-0.3-0.9-0.8V305.4z
			 M-398,301.7h0.4v1.4c0.6-0.2,1.3-0.5,2.2-1l0.2,0.3c-0.7,0.4-1.5,0.8-2.4,1.1v0.5c0,0.4,0.2,0.5,0.6,0.5h0.9
			c0.4,0,0.6-0.2,0.6-0.5c0.1-0.2,0.1-0.4,0.1-0.8c0.1,0.1,0.3,0.1,0.4,0.1c0,0.2-0.1,0.4-0.1,0.6c0,0.1,0,0.1,0,0.2
			c-0.1,0.5-0.4,0.8-1,0.7h-1c-0.6,0-0.9-0.3-0.9-0.8V301.7z"/>
		<path class="st2" d="M-392.9,304.7h3.7c0.2-0.4,0.6-0.9,0.9-1.5l0.4,0.2c-0.2,0.4-0.5,0.8-0.9,1.3h2.2v0.4h-6v0.6
			c0,1.4-0.3,2.5-0.9,3.2c-0.1-0.1-0.2-0.2-0.4-0.3c0.6-0.6,0.9-1.6,0.8-2.9V304.7z M-390.2,301.8l0.4-0.1c0,0.1,0.1,0.3,0.2,0.5
			c0.1,0.2,0.1,0.3,0.2,0.4h3.2v0.4h-7.2v-0.4h3.6c0-0.1-0.1-0.2-0.1-0.4C-390.1,302-390.2,301.9-390.2,301.8z M-391.8,303.5
			l0.4-0.2c0.3,0.3,0.6,0.7,0.9,1.1l-0.4,0.2C-391.4,304.1-391.7,303.7-391.8,303.5z"/>
		<path class="st2" d="M-384.7,305.7h2.7v3.3h-0.4v-0.5h-1.9v0.5h-0.4V305.7z M-384.3,306.1v2.1h1.9v-2.1H-384.3z M-383.9,302h5.1
			v2.6h-5.1V302z M-383.5,302.4v1.8h4.3v-1.8H-383.5z M-380.8,305.7h2.8v3.3h-0.4v-0.5h-1.9v0.5h-0.4V305.7z M-380.4,306.1v2.1h1.9
			v-2.1H-380.4z"/>
		<path class="st2" d="M-374.2,306.9v0.7c0,0.7-0.2,1.2-0.7,1.5l-0.2-0.2c0.4-0.3,0.7-0.7,0.6-1.2h-0.4v-0.8H-374.2z"/>
		<path class="st2" d="M-470.8,313.2h2.1v4.9h-1.7v0.8h-0.4V313.2z M-470.4,313.6v4.1h1.3v-4.1H-470.4z M-468.5,319.8
			c-0.1-0.1-0.2-0.2-0.4-0.3c0.8-0.9,1.2-2.2,1.1-3.9v-2.6c0.8,0,1.8-0.1,3.2-0.3c0.1,0,0.2,0,0.2,0l0.1,0.4c-0.2,0-0.4,0.1-0.8,0.1
			c-1,0.1-1.8,0.2-2.3,0.2v1.9h3.4v0.4h-1.3v4.1h-0.4v-4.1h-1.8C-467.3,317.5-467.7,318.8-468.5,319.8z"/>
		<path class="st2" d="M-460.8,314.2l0.3-0.2c0.1,0.1,0.2,0.3,0.4,0.5c0.1,0.1,0.2,0.3,0.3,0.3l-0.3,0.2h2c0.2-0.3,0.5-0.7,0.7-1
			l0.4,0.2c0,0-0.1,0.1-0.1,0.1c-0.2,0.3-0.4,0.5-0.6,0.7h2.4v0.4h-7.3V315h2.5C-460.3,314.7-460.6,314.4-460.8,314.2z
			 M-459.3,312.6l0.4-0.2c0.1,0.1,0.1,0.2,0.2,0.4c0.1,0.2,0.2,0.3,0.2,0.4l-0.3,0.2h3.2v0.4h-6.6v-0.4h3.3
			c-0.1-0.1-0.2-0.3-0.3-0.6C-459.3,312.7-459.3,312.6-459.3,312.6z M-461.6,316.2h5.4v3.6h-0.4v-0.5h-4.5v0.5h-0.4V316.2z
			 M-461.2,316.6v1.1h4.5v-1.1H-461.2z M-461.2,318v1h4.5v-1H-461.2z"/>
		<path class="st2" d="M-452.1,317l0.4,0.2c-0.7,0.9-1.3,1.6-1.9,2.2c-0.1-0.1-0.2-0.2-0.3-0.3C-453.2,318.4-452.6,317.7-452.1,317z
			 M-447,316.4h-3v2.4c0,0.6-0.3,0.9-0.9,0.9c-0.3,0-0.6,0-1,0c0-0.1,0-0.2-0.1-0.4c0.3,0,0.7,0,0.9,0c0.4,0,0.6-0.1,0.6-0.5v-2.4
			h-2.9l0.4-3.2c1.6,0,3.4-0.1,5.6-0.3l0.2,0.4c-2.1,0.2-3.9,0.3-5.3,0.3l-0.3,2.4h2.5v-1.7h0.4v1.7h3V316.4z M-446.9,319.4
			c-0.1-0.1-0.2-0.2-0.3-0.3c-0.7-0.8-1.3-1.4-1.6-1.8l0.3-0.2c0.3,0.3,0.7,0.8,1.2,1.4c0.3,0.4,0.6,0.6,0.7,0.8L-446.9,319.4z"/>
		<path class="st2" d="M-444.3,317.8l0.3-0.3l1.5,1.7l-0.3,0.3L-444.3,317.8z"/>
		<path class="st2" d="M-429.5,315.7c-1.5-0.5-2.5-1.1-3.3-1.8v1.4h-0.4v-1.4c-0.7,0.7-1.8,1.4-3.3,1.9c0,0-0.1-0.1-0.1-0.2
			c-0.1-0.1-0.1-0.1-0.1-0.2c1.3-0.4,2.3-1,3.2-1.7h-3v-0.4h3.3v-0.8h0.4v0.8h3.3v0.4h-3c0.9,0.7,1.9,1.2,3.2,1.6
			c0,0.1-0.1,0.2-0.2,0.3C-429.5,315.6-429.5,315.6-429.5,315.7z M-436.6,319.2h7.3v0.4h-7.3V319.2z M-435.5,315.5h5.1v2.9h-5.1
			V315.5z M-435.1,315.9v0.9h4.3v-0.9H-435.1z M-435.1,317.1v0.9h4.3v-0.9H-435.1z"/>
		<path class="st2" d="M-427.6,319.8c-0.1-0.2-0.2-0.3-0.3-0.4c2-0.8,3.1-2,3.3-3.5h-3.3v-0.4h3.4c0-0.4,0.1-1.1,0.1-2.1h-3V313h6.5
			v0.4h-3c0,0.9,0,1.6-0.1,2.1h3.5v0.4h-3.3c0.3,1.7,1.5,2.9,3.4,3.4c-0.1,0.1-0.1,0.2-0.2,0.3c0,0.1-0.1,0.1-0.1,0.1
			c-1.9-0.7-3.1-1.8-3.4-3.5C-424.6,317.8-425.7,319-427.6,319.8z"/>
		<path class="st2" d="M-419.1,315.9c-0.1-0.2-0.2-0.3-0.2-0.4c0.8-0.9,1.4-1.9,1.9-3.1l0.4,0.1c-0.1,0.3-0.2,0.5-0.4,0.8h5.1v0.4
			h-5.3C-418.1,314.5-418.6,315.2-419.1,315.9z M-418.6,316.2v-0.4h5.3v0.7c0,1.4,0.1,2.2,0.3,2.5c0.1,0.2,0.2,0.2,0.3,0.2
			c0.1,0,0.2-0.1,0.3-0.4c0,0,0-0.1,0-0.1c0-0.4,0.1-0.7,0.1-1c0.1,0,0.2,0.1,0.3,0.1c0,0,0,0,0.1,0c0,0.3,0,0.7-0.1,1.1
			c-0.1,0.5-0.3,0.7-0.7,0.7c-0.3,0-0.5-0.2-0.7-0.5c-0.3-0.4-0.4-1.3-0.4-2.8v-0.3H-418.6z M-417.8,314.6h4.8v0.4h-4.8V314.6z"/>
		<path class="st2" d="M-408.5,317.7v0.7c0,0.7-0.2,1.2-0.7,1.5l-0.2-0.2c0.4-0.3,0.7-0.7,0.6-1.2h-0.4v-0.8H-408.5z"/>
		<path class="st2" d="M-402.1,317.8h1.1v-4.9h5.2v4.9h1.1v0.4h-7.4V317.8z M-399.5,318.5l0.3,0.4c-0.2,0.1-0.5,0.2-1,0.4
			c-0.8,0.3-1.3,0.5-1.6,0.6c0-0.1-0.1-0.2-0.2-0.4C-400.8,319.1-400,318.8-399.5,318.5z M-400.6,313.2v0.9h4.4v-0.9H-400.6z
			 M-400.6,314.5v0.9h4.4v-0.9H-400.6z M-400.6,315.7v0.9h4.4v-0.9H-400.6z M-400.6,316.9v0.9h4.4v-0.9H-400.6z M-397.6,318.9
			l0.2-0.4c0.3,0.1,0.8,0.3,1.6,0.5c0.5,0.2,0.8,0.3,1,0.4l-0.2,0.4C-395.9,319.4-396.8,319.1-397.6,318.9z"/>
		<path class="st2" d="M-386.3,316.1c-1.5-0.2-2.6-0.5-3.4-0.8c-0.9,0.4-2.1,0.7-3.6,1c0-0.1-0.1-0.2-0.2-0.3c0-0.1,0-0.1-0.1-0.1
			c1.4-0.2,2.5-0.4,3.4-0.8c-0.5-0.3-1.1-0.7-1.6-1.3c-0.4,0.5-0.9,0.9-1.3,1.2c-0.1-0.1-0.2-0.2-0.3-0.3c0.9-0.7,1.6-1.5,2.1-2.3
			l0.4,0.2c-0.1,0.2-0.3,0.4-0.4,0.6h4.1v0.4c-0.6,0.7-1.3,1.2-2.1,1.5c0.8,0.3,1.8,0.5,3.1,0.6c0,0-0.1,0.1-0.1,0.2
			C-386.2,316-386.2,316.1-386.3,316.1z M-392.4,316.4h5.4v3.4h-0.4v-0.3h-4.6v0.3h-0.4V316.4z M-392,316.7v1.1h2.1v-1.1H-392z
			 M-392,318.1v1h2.1v-1H-392z M-387.6,313.5h-3.8c0.5,0.6,1.1,1,1.8,1.4C-388.9,314.6-388.2,314.1-387.6,313.5z M-387.5,316.7h-2.1
			v1.1h2.1V316.7z M-389.6,318.1v1h2.1v-1H-389.6z"/>
		<path class="st2" d="M-381.1,312.4l0.5,0.1c-0.3,0.2-0.6,0.5-0.9,0.7h3.5v0.4c-1.4,1.3-3.6,2.4-6.4,3.1c0-0.1-0.1-0.2-0.1-0.3
			c0,0-0.1-0.1-0.1-0.1c2.6-0.6,4.6-1.5,6-2.7h-3.4c-0.1,0.1-0.3,0.2-0.4,0.3c0.4,0.2,0.8,0.5,1.3,0.8l-0.3,0.3
			c-0.1-0.1-0.3-0.2-0.6-0.4c-0.3-0.2-0.6-0.4-0.7-0.5c-0.2,0.1-0.4,0.3-0.8,0.5c-0.2,0.1-0.3,0.2-0.4,0.2c-0.1-0.1-0.1-0.2-0.2-0.4
			C-383.1,313.9-382,313.2-381.1,312.4z M-380.2,315.4l0.4,0.2c-0.2,0.2-0.5,0.4-0.7,0.6h2.9v0.4c-1.5,1.6-3.7,2.7-6.6,3.2
			c0,0-0.1-0.1-0.1-0.2c0-0.1-0.1-0.2-0.1-0.2c2.8-0.4,4.9-1.4,6.3-2.9h-2.9c-0.2,0.2-0.5,0.3-0.7,0.5c0.2,0.1,0.4,0.3,0.7,0.5
			c0.2,0.1,0.4,0.3,0.5,0.3l-0.3,0.3c-0.4-0.4-0.8-0.7-1.3-1c-0.5,0.3-1.1,0.6-1.7,0.8l-0.2-0.4
			C-382.6,317.1-381.3,316.3-380.2,315.4z"/>
		<path class="st2" d="M-471.1,325.7h1.1v-1.4c-0.2,0-0.6,0-1,0c0-0.1,0-0.2-0.1-0.4c0.9,0,1.7-0.1,2.5-0.1l0.1,0.4
			c-0.4,0-0.7,0.1-1.1,0.1v1.4h1.1v0.4h-1.1v1l0.2-0.2c0.2,0.2,0.5,0.5,1,1l-0.3,0.3c-0.3-0.3-0.6-0.7-0.9-1v3.5h-0.4v-3.8
			c-0.2,0.9-0.6,1.7-1.1,2.4c-0.1-0.2-0.2-0.3-0.2-0.4c0.5-0.7,1-1.6,1.3-2.7h-1.1V325.7z M-466.3,323.3h0.4v1.6h1.8v3.5h-0.4V328
			h-1.4v2.6h-0.4V328h-1.3v0.4h-0.4v-3.5h1.7V323.3z M-467.6,325.2v2.4h1.3v-2.4H-467.6z M-464.6,325.2h-1.4v2.4h1.4V325.2z"/>
		<path class="st2" d="M-459.1,323.3h0.4v1.2h3.2v0.4h-3.2v1.4h2.7v0.4h-2.7v1.5h3.4v0.4h-3.4v2h-0.4v-2h-3.4v-0.4h3.4v-1.5h-2.7
			v-0.4h2.7V325h-3.2v-0.4h3.2V323.3z"/>
		<path class="st2" d="M-453.7,324.1h3.3c0-0.2-0.1-0.5-0.1-0.8l0.4,0c0.1,0.3,0.1,0.6,0.1,0.8h3.2v1.4h-0.4v-1h-6v1h-0.4V324.1z
			 M-453.2,327.8h5.9v2.8h-0.4v-0.4h-5v0.4h-0.4V327.8z M-452.8,328.1v0.8h2.3v-0.8H-452.8z M-452.8,329.2v0.7h2.3v-0.7H-452.8z
			 M-452.7,325h4.9v0.3h-4.9V325z M-452.5,325.9h4.5v1.4h-4.5V325.9z M-452.1,326.2v0.7h3.7v-0.7H-452.1z M-447.7,328.1h-2.3v0.8
			h2.3V328.1z M-450.1,329.2v0.7h2.3v-0.7H-450.1z"/>
		<path class="st2" d="M-445,324.6h0.8c0.2-0.5,0.3-0.9,0.4-1.3l0.4,0.1c-0.1,0.4-0.2,0.8-0.4,1.2h1.6v5.9h-0.4v-0.6h-2v0.7h-0.4
			V324.6z M-444.6,325v2.1h2V325H-444.6z M-444.6,327.4v2.1h2v-2.1H-444.6z M-441.6,326.3c0,0-0.1-0.1-0.2-0.1
			c-0.1,0-0.1-0.1-0.2-0.1c0.4-0.7,0.8-1.6,1.2-2.7l0.4,0.1c-0.1,0.4-0.3,0.7-0.4,1.1h2.5c0,0.1,0,0.3,0,0.5c0,1.8-0.1,3.2-0.2,4.2
			c0,0.8-0.4,1.2-1.3,1.2c-0.4,0-0.8,0-1.2,0c0,0,0-0.1,0-0.1c0-0.2-0.1-0.3-0.1-0.3c0.3,0,0.7,0,1.3,0c0.7,0,1-0.3,1-0.9
			c0-0.5,0.1-1.6,0.1-3.2c0-0.5,0-0.8,0-1h-2.3C-441.2,325.6-441.4,326-441.6,326.3z M-441.2,326.6l0.3-0.2c0,0.1,0.1,0.1,0.2,0.2
			c0.4,0.6,0.8,1,1,1.4l-0.3,0.2C-440.4,327.7-440.8,327.1-441.2,326.6z"/>
		<path class="st2" d="M-435.4,329.7c0.3-0.2,0.6-0.4,1-0.7c0,0,0,0.1,0,0.2c0,0.1,0,0.2,0,0.2c-0.5,0.3-1,0.6-1.4,0.9l-0.3-0.4
			c0.1-0.2,0.2-0.4,0.2-0.6v-3.2h-0.9V326h1.3V329.7z M-435.2,324.9c-0.3-0.4-0.7-0.7-1.1-1.1l0.3-0.3c0.5,0.5,0.9,0.8,1.2,1.1
			L-435.2,324.9z M-434.5,324.1v-0.4h4.9v0.4h-2.9l-0.2,1.1h2.5v1.6h0.9v0.4h-5.5v-0.4h1.4l0.2-1.3h-1.2v-0.3h1.2l0.2-1.1H-434.5z
			 M-434,328h4.1v2.6h-0.4v-0.5h-3.2v0.5h-0.4V328z M-433.6,328.4v1.4h3.2v-1.4H-433.6z M-430.6,325.5h-2.2l-0.2,1.3h2.4V325.5z"/>
		<path class="st2" d="M-426.2,325l0.3-0.2c0.1,0.1,0.2,0.3,0.4,0.5c0.1,0.1,0.2,0.3,0.3,0.3l-0.3,0.2h2c0.2-0.3,0.5-0.7,0.7-1
			l0.4,0.2c0,0-0.1,0.1-0.1,0.1c-0.2,0.3-0.4,0.5-0.6,0.7h2.4v0.4h-7.3v-0.4h2.5C-425.8,325.5-426,325.2-426.2,325z M-424.8,323.4
			l0.4-0.2c0.1,0.1,0.1,0.2,0.2,0.4c0.1,0.2,0.2,0.3,0.2,0.4l-0.3,0.2h3.2v0.4h-6.6v-0.4h3.3c-0.1-0.1-0.2-0.3-0.3-0.6
			C-424.7,323.5-424.7,323.4-424.8,323.4z M-427.1,327h5.4v3.6h-0.4v-0.5h-4.5v0.5h-0.4V327z M-426.6,327.4v1.1h4.5v-1.1H-426.6z
			 M-426.6,328.8v1h4.5v-1H-426.6z"/>
		<path class="st2" d="M-419.4,327.4c0.3-0.1,0.7-0.2,1.2-0.3v-1.8h-1.1v-0.4h1.1v-1.5h0.4v1.5h0.9v0.4h-0.9v1.7
			c0.3-0.1,0.7-0.2,1-0.3c0,0.1,0,0.2,0,0.4c-0.1,0-0.2,0.1-0.3,0.1c-0.3,0.1-0.5,0.1-0.6,0.2v2.4c0,0.6-0.2,0.8-0.8,0.8
			c-0.2,0-0.4,0-0.6,0c0,0,0-0.1,0-0.1c0-0.1-0.1-0.2-0.1-0.3c0.2,0,0.4,0,0.6,0c0.3,0,0.5-0.1,0.5-0.4v-2.2
			c-0.4,0.1-0.7,0.2-1.1,0.3L-419.4,327.4z M-416.4,326.7v-0.4h1.9V325h-2v-0.4h2v-1.2h0.4v1.2h2.1v0.4h-2.1v1.4h1.6v0.4
			c-0.4,1.1-0.9,1.9-1.6,2.5c0.5,0.3,1.2,0.7,2.1,1c0,0-0.1,0.1-0.2,0.3c0,0-0.1,0.1-0.1,0.1c-0.9-0.4-1.6-0.8-2.1-1.2
			c-0.6,0.4-1.4,0.8-2.5,1.2c0-0.1-0.1-0.2-0.3-0.4c1.2-0.4,2-0.8,2.4-1.1c-0.6-0.6-1-1.4-1.4-2.5H-416.4z M-413,326.7h-2.6
			c0.3,1,0.7,1.7,1.2,2.2C-413.8,328.4-413.3,327.7-413,326.7z"/>
		<path class="st2" d="M-407.1,325.9c0-0.1-0.1-0.1-0.2-0.2c-0.1-0.1-0.2-0.2-0.2-0.2c-1.2,0-2,0.1-2.5,0.1c-0.2,0-0.4,0-0.5,0.1
			l-0.2-0.4c0.1-0.1,0.3-0.2,0.5-0.4c0.5-0.5,0.9-1.1,1.3-1.6l0.4,0.2c-0.6,0.7-1,1.3-1.5,1.7c0.1,0,0.2,0,0.4,0
			c0.8,0,1.5-0.1,1.9-0.1c-0.2-0.2-0.4-0.5-0.7-0.7l0.3-0.2c0.5,0.4,0.9,0.9,1.4,1.5L-407.1,325.9z M-409.9,330.6h-0.4v-4.3h2.9v3.5
			c0,0.5-0.2,0.7-0.7,0.7c-0.2,0-0.5,0-0.7,0c0-0.1,0-0.3-0.1-0.4c0.1,0,0.2,0,0.3,0c0.2,0,0.3,0,0.4,0c0.3,0,0.4-0.1,0.4-0.4V329
			h-2.1V330.6z M-409.9,326.6v0.9h2.1v-0.9H-409.9z M-409.9,327.8v0.9h2.1v-0.9H-409.9z M-406.4,327.1h0.4v1.3
			c0.8-0.3,1.6-0.7,2.3-1.1l0.2,0.4c-0.8,0.4-1.7,0.8-2.5,1.1v0.7c0,0.3,0.2,0.5,0.6,0.5h0.9c0.4,0,0.6-0.1,0.7-0.4
			c0-0.2,0.1-0.4,0.1-0.8c0.1,0,0.1,0,0.2,0.1c0.1,0,0.1,0.1,0.2,0.1c0,0.2-0.1,0.5-0.1,0.8c-0.1,0.5-0.4,0.7-1,0.7h-1
			c-0.6,0-0.9-0.3-0.9-0.8V327.1z M-406.4,323.3h0.4v1.4c0.6-0.2,1.3-0.5,2.2-1l0.2,0.3c-0.7,0.4-1.5,0.8-2.4,1.1v0.5
			c0,0.4,0.2,0.5,0.6,0.5h0.9c0.4,0,0.6-0.2,0.6-0.5c0.1-0.2,0.1-0.4,0.1-0.8c0.1,0.1,0.3,0.1,0.4,0.1c0,0.2-0.1,0.4-0.1,0.6
			c0,0.1,0,0.1,0,0.2c-0.1,0.5-0.4,0.8-1,0.7h-1c-0.6,0-0.9-0.3-0.9-0.8V323.3z"/>
		<path class="st2" d="M-400.5,323.2v0.7c0,0.7-0.2,1.3-0.7,1.6l-0.2-0.2c0.4-0.3,0.7-0.7,0.6-1.3h-0.4v-0.8H-400.5z M-399.3,323.2
			v0.7c0,0.7-0.2,1.2-0.8,1.6l-0.2-0.2c0.4-0.3,0.6-0.7,0.6-1.3h-0.4v-0.8H-399.3z"/>
	</g>
</g>
</svg>
