<?xml version="1.0" encoding="utf-8"?>
<!-- Generator: Adobe Illustrator 19.0.0, SVG Export Plug-In . SVG Version: 6.00 Build 0)  -->
<svg version="1.1" id="图层_1" xmlns="http://www.w3.org/2000/svg" xmlns:xlink="http://www.w3.org/1999/xlink" x="0px" y="0px"
	 viewBox="-496 276.1 142.3 88.9" style="enable-background:new -496 276.1 142.3 88.9;" xml:space="preserve">
<style type="text/css">
	.st0{fill:#FFFFFF;}
	.st1{fill:#C9CACA;}
	.st2{fill:#8A8A8A;}
</style>
<g>
	<g>
		<g>
			<path class="st0" d="M-424.9,276.6c-39,0-70.7,17.8-70.7,39.8c0,13.7,12.3,25.8,30.9,32.9c0,0,0.3,0.1,1,0.4
				c-0.7,5.2-5.6,10.6-7.9,13.5h0c-0.2,0.3-0.3,0.7-0.3,1.1c0,1.4,23.8-5.9,31-9.3c5,0.7,10.4,1.2,16,1.2c39,0,70.7-17.8,70.7-39.8
				C-354.2,294.4-385.8,276.6-424.9,276.6z"/>
			<path class="st1" d="M-471.3,365c-0.9,0-1-0.4-1-0.7c0-0.4,0.1-0.9,0.3-1.3c0,0,0-0.1,0.1-0.1c0.3-0.4,0.7-0.9,1.1-1.4
				c2.3-2.9,5.8-7.2,6.6-11.4c-0.3-0.1-0.5-0.2-0.6-0.2c-19.6-7.5-31.3-20-31.3-33.4c0-22.2,31.9-40.3,71.2-40.3
				s71.2,18.1,71.2,40.3c0,22.2-31.9,40.3-71.2,40.3c-5,0-10.4-0.4-15.9-1.2C-447.4,358.7-467.8,365-471.3,365z M-471,363.4
				C-471,363.4-471,363.4-471,363.4c-0.1,0.2-0.2,0.4-0.2,0.5c3.6,0,23.8-6.3,30.2-9.4c0.1,0,0.2-0.1,0.3,0
				c5.5,0.8,10.9,1.2,15.9,1.2c38.7,0,70.2-17.6,70.2-39.3c0-21.7-31.5-39.3-70.2-39.3s-70.2,17.6-70.2,39.3
				c0,13,11.4,25.1,30.6,32.5c0,0,0,0,0.1,0c0.1,0,0.4,0.2,0.9,0.3c0.2,0.1,0.4,0.3,0.3,0.5c-0.6,4.6-4.4,9.3-6.9,12.3
				C-470.4,362.6-470.7,363-471,363.4z"/>
		</g>
		<g>
			<path class="st1" d="M-416.7,347.3v-1c25.1,0,47.1-9.8,52.3-23.4l0.9,0.4C-368.8,337.2-391.1,347.3-416.7,347.3z"/>
		</g>
	</g>
	<g>
		<path class="st2" d="M-470.2,308.6V308c0-0.7,0.3-1.2,0.8-1.6l0.2,0.2c-0.4,0.3-0.6,0.8-0.6,1.3h0.4v0.8H-470.2z M-469,308.6V308
			c0-0.7,0.3-1.2,0.8-1.6l0.2,0.2c-0.4,0.3-0.6,0.8-0.6,1.3h0.4v0.8H-469z"/>
		<path class="st2" d="M-464.4,308c-0.3,0.5-0.9,0.9-1.8,1.3c0-0.1,0-0.3,0-0.4c1-0.5,1.7-1.1,1.9-1.8h0.3v6.2h-0.5V308z"/>
		<path class="st2" d="M-459.9,313.3h-0.5c0.2-1.8,1-3.7,2.4-5.7h-3.4v-0.4h4v0.3C-458.9,309.5-459.7,311.5-459.9,313.3z"/>
		<path class="st2" d="M-456,308.9h1.1v-1.4c-0.2,0-0.6,0-1,0c0-0.1,0-0.2-0.1-0.4c0.9,0,1.7-0.1,2.5-0.1l0.1,0.4
			c-0.4,0-0.7,0.1-1.1,0.1v1.4h1.1v0.4h-1.1v1l0.2-0.2c0.2,0.2,0.5,0.5,1,1l-0.3,0.3c-0.3-0.3-0.6-0.7-0.9-1v3.5h-0.4v-3.8
			c-0.2,0.9-0.6,1.7-1.1,2.4c-0.1-0.2-0.2-0.3-0.2-0.4c0.5-0.7,1-1.6,1.3-2.7h-1.1V308.9z M-451.1,306.6h0.4v1.6h1.8v3.5h-0.4v-0.4
			h-1.4v2.6h-0.4v-2.6h-1.3v0.4h-0.4v-3.5h1.7V306.6z M-452.5,308.5v2.4h1.3v-2.4H-452.5z M-449.4,308.5h-1.4v2.4h1.4V308.5z"/>
		<path class="st2" d="M-447.5,310.6c0.3-0.1,0.7-0.2,1.2-0.3v-1.8h-1.1v-0.4h1.1v-1.5h0.4v1.5h0.9v0.4h-0.9v1.7
			c0.3-0.1,0.7-0.2,1-0.3c0,0.1,0,0.2,0,0.4c-0.1,0-0.2,0.1-0.3,0.1c-0.3,0.1-0.5,0.1-0.6,0.2v2.4c0,0.6-0.2,0.8-0.8,0.8
			c-0.2,0-0.4,0-0.6,0c0,0,0-0.1,0-0.1c0-0.1-0.1-0.2-0.1-0.3c0.2,0,0.4,0,0.6,0c0.3,0,0.5-0.1,0.5-0.4v-2.2
			c-0.4,0.1-0.7,0.2-1.1,0.3L-447.5,310.6z M-444.5,309.9v-0.4h1.9v-1.4h-2v-0.4h2v-1.2h0.4v1.2h2.1v0.4h-2.1v1.4h1.6v0.4
			c-0.4,1.1-0.9,1.9-1.6,2.5c0.5,0.3,1.2,0.7,2.1,1c0,0-0.1,0.1-0.2,0.3c0,0-0.1,0.1-0.1,0.1c-0.9-0.4-1.6-0.8-2.1-1.2
			c-0.6,0.4-1.4,0.8-2.5,1.2c0-0.1-0.1-0.2-0.3-0.4c1.2-0.4,2-0.8,2.4-1.1c-0.6-0.6-1-1.4-1.4-2.5H-444.5z M-441,309.9h-2.6
			c0.3,1,0.7,1.7,1.2,2.2C-441.9,311.7-441.4,310.9-441,309.9z"/>
		<path class="st2" d="M-435.1,309.1c0-0.1-0.1-0.1-0.2-0.2c-0.1-0.1-0.2-0.2-0.2-0.2c-1.2,0-2,0.1-2.5,0.1c-0.2,0-0.4,0-0.5,0.1
			l-0.2-0.4c0.1-0.1,0.3-0.2,0.5-0.4c0.5-0.5,0.9-1.1,1.3-1.6l0.4,0.2c-0.6,0.7-1,1.3-1.5,1.7c0.1,0,0.2,0,0.4,0
			c0.8,0,1.5-0.1,1.9-0.1c-0.2-0.2-0.4-0.5-0.7-0.7l0.3-0.2c0.5,0.4,0.9,0.9,1.4,1.5L-435.1,309.1z M-437.9,313.8h-0.4v-4.3h2.9v3.5
			c0,0.5-0.2,0.7-0.7,0.7c-0.2,0-0.5,0-0.7,0c0-0.1,0-0.3-0.1-0.4c0.1,0,0.2,0,0.3,0c0.2,0,0.3,0,0.4,0c0.3,0,0.4-0.1,0.4-0.4v-0.8
			h-2.1V313.8z M-437.9,309.8v0.9h2.1v-0.9H-437.9z M-437.9,311v0.9h2.1V311H-437.9z M-434.5,310.3h0.4v1.3c0.8-0.3,1.6-0.7,2.3-1.1
			l0.2,0.4c-0.8,0.4-1.7,0.8-2.5,1.1v0.7c0,0.3,0.2,0.5,0.6,0.5h0.9c0.4,0,0.6-0.1,0.7-0.4c0-0.2,0.1-0.4,0.1-0.8
			c0.1,0,0.1,0,0.2,0.1c0.1,0,0.1,0.1,0.2,0.1c0,0.2-0.1,0.5-0.1,0.8c-0.1,0.5-0.4,0.7-1,0.7h-1c-0.6,0-0.9-0.3-0.9-0.8V310.3z
			 M-434.5,306.6h0.4v1.4c0.6-0.2,1.3-0.5,2.2-1l0.2,0.3c-0.7,0.4-1.5,0.8-2.4,1.1v0.5c0,0.4,0.2,0.5,0.6,0.5h0.9
			c0.4,0,0.6-0.2,0.6-0.5c0.1-0.2,0.1-0.4,0.1-0.8c0.1,0.1,0.3,0.1,0.4,0.1c0,0.2-0.1,0.4-0.1,0.6c0,0.1,0,0.1,0,0.2
			c-0.1,0.5-0.4,0.8-1,0.7h-1c-0.6,0-0.9-0.3-0.9-0.8V306.6z"/>
		<path class="st2" d="M-430.1,311.1l-0.1-0.5c0.1,0,0.4-0.1,0.6-0.2c0.2-0.1,0.3-0.1,0.4-0.1v-2h-0.9V308h0.9v-1.4h0.4v1.4h0.8v0.4
			h-0.8v1.8c0.1,0,0.2-0.1,0.4-0.2c0.2-0.1,0.3-0.1,0.4-0.1c0,0,0,0.1,0,0.2c0,0.1,0,0.2,0,0.3c-0.1,0-0.2,0.1-0.4,0.1
			c-0.2,0.1-0.3,0.1-0.4,0.2v2.4c0,0.5-0.2,0.8-0.7,0.8c-0.2,0-0.3,0-0.5,0c0-0.2-0.1-0.4-0.1-0.4c0.1,0,0.3,0,0.5,0
			c0.2,0,0.4-0.1,0.4-0.4v-2.2C-429.4,310.8-429.7,311-430.1,311.1z M-424.6,311.5h1.2v-1.2h-1.2v-0.4h1.6v4h-0.4v-0.4h-3.7v0.5
			h-0.4v-4c0.6-0.1,1.1-0.2,1.5-0.3l0.2,0.4c-0.4,0.1-0.8,0.2-1.3,0.3v1.2h1.2v0.4h-1.2v1.3h1.6v-4.2h-2.2v-0.4h2.2v-1.1
			c-0.2,0-0.5,0-1,0c-0.4,0-0.8,0-1,0.1l-0.1-0.4c1.4,0,2.9-0.1,4.5-0.3l0.1,0.4c-0.3,0-0.8,0.1-1.6,0.1c-0.2,0-0.4,0-0.6,0v1.1h2.4
			v0.4h-2.4v4.2h1.7v-1.3h-1.2V311.5z"/>
		<path class="st2" d="M-421.3,310.8c-0.1-0.2-0.2-0.3-0.2-0.5c0.7-1,1.3-2.3,1.7-3.7l0.4,0.1c-0.2,0.6-0.4,1.1-0.6,1.7v5.5h-0.4
			v-4.6C-420.7,309.9-421,310.4-421.3,310.8z M-416.5,306.6h0.4v1.8h1.8v0.4h-1.8v2.1h2.1v0.4h-2.1v2.6h-0.4v-2.6h-2.8v-0.4h2.8
			v-2.1h-1.6c-0.1,0.3-0.3,0.7-0.6,1.2c0,0.1-0.1,0.1-0.1,0.2c0,0-0.1-0.1-0.2-0.1c-0.1,0-0.2-0.1-0.2-0.1c0.5-0.9,0.9-1.8,1.1-2.8
			l0.4,0.1c-0.1,0.4-0.2,0.7-0.3,1.1h1.5V306.6z"/>
		<path class="st2" d="M-410.6,311.8v0.7c0,0.7-0.2,1.2-0.7,1.5l-0.2-0.2c0.4-0.3,0.7-0.7,0.6-1.2h-0.4v-0.8H-410.6z"/>
		<path class="st2" d="M-402.5,310.6l0.3,0.2c-0.2,0.2-0.4,0.5-0.6,0.8v2.3h-0.4V312c-0.2,0.2-0.5,0.4-0.8,0.6c0,0-0.1-0.1-0.1-0.1
			c-0.1-0.1-0.1-0.1-0.2-0.2C-403.5,311.8-402.9,311.3-402.5,310.6z M-402.5,309.1l0.3,0.2c-0.5,0.6-1,1.1-1.6,1.5
			c0,0-0.1-0.1-0.1-0.2c-0.1-0.1-0.1-0.1-0.1-0.2C-403.5,310.2-402.9,309.7-402.5,309.1z M-404,307.2v-0.3h7v0.3h-2.3v0.5h1.9v1.1
			h-6.1v-1.1h1.9v-0.5H-404z M-403.2,308v0.6h1.5V308H-403.2z M-401.9,310.5C-401.9,310.5-401.9,310.5-401.9,310.5
			c-0.2-0.2-0.2-0.3-0.3-0.3c0.5-0.4,1-0.8,1.3-1.3l0.4,0.2c0,0-0.1,0.1-0.1,0.1c0,0.1-0.1,0.1-0.1,0.1h3.5v0.3h-3.7
			c-0.1,0.1-0.2,0.2-0.3,0.3c-0.1,0.1-0.1,0.1-0.1,0.1h3.8v1.6h-2.7c-0.1,0.2-0.3,0.3-0.5,0.4h3.1v0.3c-0.4,0.3-0.9,0.5-1.4,0.7
			c0.5,0.1,1.2,0.2,2.2,0.3c-0.1,0.1-0.1,0.2-0.2,0.3c-1.1-0.1-2-0.2-2.6-0.5c-0.7,0.2-1.5,0.4-2.5,0.6c0-0.1-0.1-0.2-0.2-0.3
			c0.9-0.1,1.6-0.2,2.2-0.4c-0.4-0.2-0.8-0.4-1.1-0.7c-0.2,0.2-0.5,0.4-0.8,0.5c0-0.1-0.1-0.2-0.2-0.3c0.6-0.3,1.1-0.7,1.5-1h-0.7
			v-1.5c0,0-0.1,0.1-0.2,0.2C-401.8,310.4-401.9,310.5-401.9,310.5z M-401.3,307.2v0.5h1.5v-0.5H-401.3z M-401.3,308v0.6h1.5V308
			H-401.3z M-401.1,310.3v0.4h3.1v-0.4H-401.1z M-401.1,311.4h3.1V311h-3.1V311.4z M-398.2,312.4h-2.7c0.4,0.3,0.8,0.5,1.2,0.6
			C-399,312.9-398.6,312.7-398.2,312.4z M-397.8,308h-1.6v0.6h1.6V308z"/>
		<path class="st2" d="M-395.5,313.3h0.8v-2.1h5.7v2.1h0.9v0.4h-7.4V313.3z M-394.9,308.8h2.9v-0.8h-3.2v-0.3h4.1
			c0.4-0.4,0.8-0.7,1.1-1l0.3,0.2c-0.1,0.1-0.4,0.4-0.7,0.7c0.2-0.2,0.2-0.2-0.1,0.1h2.2v0.3h-3.2v0.8h2.9v0.4h-2.9v0.9h3.3v0.3
			h-7.1V310h3.3v-0.9h-2.9V308.8z M-394.3,311.5v1.8h1.4v-1.8H-394.3z M-393.9,306.8l0.3-0.2c0.2,0.1,0.4,0.3,0.6,0.5
			c0.1,0.1,0.2,0.2,0.3,0.2l-0.3,0.3c-0.1-0.1-0.3-0.3-0.5-0.5C-393.7,307-393.8,306.9-393.9,306.8z M-392.5,311.5v1.8h1.4v-1.8
			H-392.5z M-389.4,311.5h-1.4v1.8h1.4V311.5z"/>
		<path class="st2" d="M-385.2,307l0.4,0.1c0,0,0,0.1-0.1,0.1c-0.1,0.3-0.3,0.7-0.5,1h2v-1.7h0.4v1.7h3v0.4h-3v1.9h2.7v0.4h-2.7v2.1
			h3.4v0.4h-7.4v-0.4h3.6v-2.1h-2.8v-0.4h2.8v-1.9h-2.2c-0.3,0.5-0.7,1-1,1.5c0-0.1-0.1-0.1-0.2-0.2c-0.1-0.1-0.1-0.1-0.1-0.1
			C-386.2,309.1-385.6,308.1-385.2,307z"/>
		<path class="st2" d="M-464.8,320.9c-0.4-0.4-0.8-0.7-1.3-1l0.3-0.3c0.4,0.3,0.9,0.6,1.3,1L-464.8,320.9z M-465.8,324.5
			c0.3-0.8,0.7-1.7,1-2.8c0.1,0.1,0.3,0.2,0.4,0.2c-0.4,1-0.7,2-1,2.8L-465.8,324.5z M-464.5,318.9c-0.2-0.2-0.5-0.4-0.8-0.7
			c-0.2-0.1-0.3-0.3-0.4-0.3l0.3-0.3c0.3,0.2,0.7,0.6,1.2,1L-464.5,318.9z M-463.4,321.6h1.9v-1.5h-2.4v-0.4h2.4v-1.4
			c-0.7,0-1.4,0.1-2.1,0.1c0-0.2-0.1-0.3-0.1-0.4c1.4,0,2.9-0.1,4.7-0.2l0.1,0.4c-0.2,0-0.6,0-1.1,0.1c-0.5,0-0.8,0.1-1.1,0.1v1.4
			h2.5v0.4h-2.5v1.5h1.9v3.1h-0.4v-0.5h-3.4v0.5h-0.4V321.6z M-463,322v1.8h3.4V322H-463z"/>
		<path class="st2" d="M-455.3,320.8h0.4v1h1.8v0.4h-1.8v1.6c0.7-0.1,1.3-0.1,1.9-0.2c0,0.1,0,0.2,0,0.3c-0.5,0.1-1.3,0.2-2.4,0.3
			c-0.8,0.1-1.4,0.2-1.9,0.2l-0.1-0.4c0.4,0,1.1-0.1,2-0.2v-1.7h-1.8v-0.4h1.8V320.8z M-453.4,320.9c-0.1-0.2-0.2-0.3-0.3-0.5
			c-0.4,0-0.9,0.1-1.6,0.1c-0.3,0-0.6,0-0.8,0c0,0-0.1,0-0.2,0c-0.3,0-0.5,0.1-0.6,0.1l-0.2-0.4c0.2-0.1,0.3-0.2,0.4-0.4
			c0.5-0.6,0.9-1.2,1-1.6h-1.6v-0.4h4.3v0.4h-2.2c-0.4,0.6-0.8,1.2-1.3,1.9c0.2,0,0.7,0,1.3-0.1c0.6,0,1-0.1,1.2-0.1
			c-0.1-0.1-0.2-0.3-0.4-0.6c-0.1-0.2-0.2-0.3-0.2-0.4l0.3-0.2c0.3,0.5,0.7,1,1.2,1.8L-453.4,320.9z M-452.4,318.2h0.4v4.7h-0.4
			V318.2z M-450.7,317.4h0.4v6.3c0,0.5-0.3,0.8-0.8,0.8c0,0-0.2,0-0.4,0c-0.3,0-0.5,0-0.6,0c0-0.1,0-0.1,0-0.2c0-0.1,0-0.2,0-0.2
			c0.1,0,0.5,0,1,0c0.3,0,0.5-0.2,0.5-0.5V317.4z"/>
		<path class="st2" d="M-446.1,323.4l-0.3,0.3c-0.1-0.1-0.2-0.2-0.3-0.3c-0.2-0.2-0.3-0.3-0.4-0.3c-0.3,0.5-0.7,1-1.3,1.5
			c-0.1-0.1-0.2-0.2-0.3-0.3c0.5-0.4,1-0.8,1.3-1.4c-0.3-0.3-0.7-0.6-1-0.9c0.2-0.8,0.3-1.7,0.5-2.5h-0.6V319h0.7
			c0.1-0.3,0.1-0.8,0.2-1.5c0,0.4,0,0.4,0-0.2l0.4,0.1c-0.1,0.6-0.1,1.1-0.2,1.6h1.3v0.4c-0.1,1.5-0.3,2.6-0.7,3.3
			c0,0,0.1,0.1,0.1,0.1C-446.6,323-446.4,323.2-446.1,323.4z M-446.7,319.4h-0.9c-0.1,0.8-0.3,1.6-0.4,2.4c0.3,0.2,0.5,0.4,0.8,0.7
			C-446.9,321.7-446.7,320.7-446.7,319.4z M-446.1,322.1h2.1c0-0.1,0-0.4,0.1-0.7c0-0.2,0-0.3,0-0.4h-1.9v-0.4h4.3v0.4h-2
			c0,0.4,0,0.8-0.1,1.1h2.3v0.4h-2.2c0.4,0.9,1.1,1.5,2.3,1.8c0,0.1-0.1,0.1-0.1,0.2c0,0.1-0.1,0.2-0.1,0.2c-1.2-0.4-2-1.1-2.3-2
			c-0.2,0.9-1,1.6-2.5,2.1c-0.1-0.1-0.2-0.3-0.2-0.4c1.4-0.4,2.2-1.1,2.4-1.9h-2V322.1z M-445.5,317.7h3.7v2.1h-3.7V317.7z
			 M-445.1,318.1v1.4h2.9v-1.4H-445.1z"/>
		<path class="st2" d="M-438.2,321.9l0.4,0.2c-0.7,0.9-1.3,1.6-1.9,2.2c-0.1-0.1-0.2-0.2-0.3-0.3
			C-439.3,323.3-438.7,322.6-438.2,321.9z M-433.1,321.2h-3v2.4c0,0.6-0.3,0.9-0.9,0.9c-0.3,0-0.6,0-1,0c0-0.1,0-0.2-0.1-0.4
			c0.3,0,0.7,0,0.9,0c0.4,0,0.6-0.1,0.6-0.5v-2.4h-2.9l0.4-3.2c1.6,0,3.4-0.1,5.6-0.3l0.2,0.4c-2.1,0.2-3.9,0.3-5.3,0.3l-0.3,2.4
			h2.5v-1.7h0.4v1.7h3V321.2z M-433,324.3c-0.1-0.1-0.2-0.2-0.3-0.3c-0.7-0.8-1.3-1.4-1.6-1.8l0.3-0.2c0.3,0.3,0.7,0.8,1.2,1.4
			c0.3,0.4,0.6,0.6,0.7,0.8L-433,324.3z"/>
		<path class="st2" d="M-427.7,317.3l0.5,0.1c-0.3,0.2-0.6,0.5-0.9,0.7h3.5v0.4c-1.4,1.3-3.6,2.4-6.4,3.1c0-0.1-0.1-0.2-0.1-0.3
			c0,0-0.1-0.1-0.1-0.1c2.6-0.6,4.6-1.5,6-2.7h-3.4c-0.1,0.1-0.3,0.2-0.4,0.3c0.4,0.2,0.8,0.5,1.3,0.8l-0.3,0.3
			c-0.1-0.1-0.3-0.2-0.6-0.4c-0.3-0.2-0.6-0.4-0.7-0.5c-0.2,0.1-0.4,0.3-0.8,0.5c-0.2,0.1-0.3,0.2-0.4,0.2c-0.1-0.1-0.1-0.2-0.2-0.4
			C-429.7,318.8-428.6,318.1-427.7,317.3z M-426.8,320.3l0.4,0.2c-0.2,0.2-0.5,0.4-0.7,0.6h2.9v0.4c-1.5,1.6-3.7,2.7-6.6,3.2
			c0,0-0.1-0.1-0.1-0.2c0-0.1-0.1-0.2-0.1-0.2c2.8-0.4,4.9-1.4,6.3-2.9h-2.9c-0.2,0.2-0.5,0.3-0.7,0.5c0.2,0.1,0.4,0.3,0.7,0.5
			c0.2,0.1,0.4,0.3,0.5,0.3l-0.3,0.3c-0.4-0.4-0.8-0.7-1.3-1c-0.5,0.3-1.1,0.6-1.7,0.8l-0.2-0.4C-429.2,322-427.9,321.2-426.8,320.3
			z"/>
		<path class="st2" d="M-419.9,319.7c-0.1-0.1-0.2-0.3-0.4-0.6c-0.3-0.5-0.6-0.8-0.8-1.1c-0.4,0.9-0.9,1.7-1.4,2.5
			c0,0-0.1-0.1-0.2-0.2c-0.1-0.1-0.1-0.1-0.1-0.2c0.7-0.9,1.2-1.8,1.6-2.8l0.4,0.1c0,0-0.1,0.1-0.1,0.2c0,0,0,0,0,0.1
			c0.5,0.6,1,1.2,1.4,1.7L-419.9,319.7z M-422.4,322.6l0.3-0.2c0.1,0.1,0.3,0.3,0.5,0.5c0.2,0.2,0.4,0.4,0.5,0.5l1-1.9h-2.3v-0.4
			h2.8v0.4l-1.1,2.2c0.2,0.2,0.4,0.4,0.6,0.6l-0.3,0.3c-0.3-0.4-0.9-1-1.6-1.7C-422.3,322.7-422.4,322.7-422.4,322.6z M-421.5,319.6
			l0.3-0.2c0.2,0.3,0.4,0.7,0.6,1l-0.3,0.2C-421.1,320.3-421.3,319.9-421.5,319.6z M-415.7,324.7c-0.3-0.4-0.8-0.8-1.4-1.3
			c-0.2-0.2-0.3-0.3-0.4-0.4c-0.2,0.6-0.9,1.2-2.1,1.8c0-0.1-0.1-0.1-0.2-0.2c0-0.1-0.1-0.1-0.1-0.1c0.9-0.4,1.5-0.8,1.8-1.3
			c0.3-0.4,0.5-1,0.5-1.9v-1.1h0.4v1.1c0,0.5-0.1,0.9-0.2,1.3c0.2,0.2,0.6,0.5,1,0.9c0.4,0.4,0.8,0.7,1,0.9L-415.7,324.7z
			 M-419.6,317.7h4.2v0.4h-1.9l-0.3,1.2h1.8v3.5h-0.4v-3.1h-2.7v3.2h-0.4v-3.5h1.3l0.3-1.2h-1.9V317.7z"/>
		<path class="st2" d="M-414.1,323.7l-0.1-0.4c0.1,0,0.3-0.1,0.5-0.2c0.2-0.1,0.4-0.1,0.5-0.1v-3.1h-0.9v-0.4h0.9v-2.1h0.4v2.1h0.8
			v0.4h-0.8v3c0.3-0.1,0.6-0.2,0.8-0.3c0,0.2,0,0.3,0,0.4C-412.7,323.3-413.4,323.5-414.1,323.7z M-412,323.8l-0.1-0.4
			c0.3-0.1,0.9-0.2,1.8-0.3c0.4-0.1,0.7-0.1,0.9-0.2c0,0.1,0,0.3,0,0.4c-0.2,0-0.5,0.1-1,0.2C-411.2,323.7-411.7,323.8-412,323.8z
			 M-409.9,324.7c-0.1-0.1-0.2-0.2-0.3-0.3c0.6-0.5,1.1-1,1.6-1.6c-0.2-0.6-0.3-1.5-0.3-2.8c0-0.3,0-0.6,0-0.9h-2.7v-0.4h2.7
			c0-0.4,0-0.9,0-1.4h0.4c0,0.4,0,0.9,0,1.4h1.9v0.4h-1.9c0,0.3,0,0.6,0,0.8c0.1,1,0.1,1.7,0.2,2.4c0.4-0.6,0.7-1.4,1-2.2l0.4,0.2
			c-0.3,1-0.8,1.9-1.3,2.6c0.1,0.5,0.3,0.8,0.5,1c0.1,0.2,0.2,0.3,0.4,0.2c0.1,0,0.2-0.1,0.2-0.3c0.1-0.2,0.1-0.6,0.1-1.1
			c0.1,0.1,0.2,0.1,0.4,0.2c0,0.5-0.1,0.9-0.2,1.1c-0.1,0.4-0.3,0.6-0.6,0.6c-0.2,0-0.5-0.1-0.6-0.4c-0.2-0.3-0.4-0.6-0.5-1
			C-408.8,323.7-409.3,324.1-409.9,324.7z M-411.6,320.1h1.8v2.2h-1.8V320.1z M-411.2,320.5v1.5h1v-1.5H-411.2z M-407.4,318.5
			c-0.1-0.1-0.3-0.3-0.6-0.6c-0.1-0.1-0.1-0.1-0.2-0.2l0.2-0.2c0.3,0.2,0.6,0.4,0.8,0.6L-407.4,318.5z"/>
		<path class="st2" d="M-403.9,317.3v0.7c0,0.7-0.2,1.3-0.7,1.6l-0.2-0.2c0.4-0.3,0.7-0.7,0.6-1.3h-0.4v-0.8H-403.9z M-402.6,317.3
			v0.7c0,0.7-0.2,1.2-0.8,1.6l-0.2-0.2c0.4-0.3,0.6-0.7,0.6-1.3h-0.4v-0.8H-402.6z"/>
	</g>
</g>
</svg>
