<?xml version="1.0" encoding="utf-8"?>
<!-- Generator: Adobe Illustrator 19.0.0, SVG Export Plug-In . SVG Version: 6.00 Build 0)  -->
<svg version="1.1" id="图层_1" xmlns="http://www.w3.org/2000/svg" xmlns:xlink="http://www.w3.org/1999/xlink" x="0px" y="0px"
	 viewBox="-496 276.1 142.3 88.9" style="enable-background:new -496 276.1 142.3 88.9;" xml:space="preserve">
<style type="text/css">
	.st0{fill:#FFFFFF;}
	.st1{fill:#C9CACA;}
	.st2{fill:#8A8A8A;}
</style>
<g>
	<g>
		<g>
			<path class="st0" d="M-424.9,276.6c-39,0-70.7,17.8-70.7,39.8c0,13.7,12.3,25.8,30.9,32.9c0,0,0.3,0.1,1,0.4
				c-0.7,5.2-5.6,10.6-7.9,13.5h0c-0.2,0.3-0.3,0.7-0.3,1.1c0,1.4,23.8-5.9,31-9.3c5,0.7,10.4,1.2,16,1.2c39,0,70.7-17.8,70.7-39.8
				C-354.2,294.4-385.8,276.6-424.9,276.6z"/>
			<path class="st1" d="M-471.3,365c-0.9,0-1-0.4-1-0.7c0-0.4,0.1-0.9,0.3-1.3c0,0,0-0.1,0.1-0.1c0.3-0.4,0.7-0.9,1.1-1.4
				c2.3-2.9,5.8-7.2,6.6-11.4c-0.3-0.1-0.5-0.2-0.6-0.2c-19.6-7.5-31.3-20-31.3-33.4c0-22.2,31.9-40.3,71.2-40.3
				s71.2,18.1,71.2,40.3c0,22.2-31.9,40.3-71.2,40.3c-5,0-10.4-0.4-15.9-1.2C-447.4,358.7-467.8,365-471.3,365z M-471,363.4
				C-471,363.4-471,363.4-471,363.4c-0.1,0.2-0.2,0.4-0.2,0.5c3.6,0,23.8-6.3,30.2-9.4c0.1,0,0.2-0.1,0.3,0
				c5.5,0.8,10.9,1.2,15.9,1.2c38.7,0,70.2-17.6,70.2-39.3c0-21.7-31.5-39.3-70.2-39.3s-70.2,17.6-70.2,39.3
				c0,13,11.4,25.1,30.6,32.5c0,0,0,0,0.1,0c0.1,0,0.4,0.2,0.9,0.3c0.2,0.1,0.4,0.3,0.3,0.5c-0.6,4.6-4.4,9.3-6.9,12.3
				C-470.4,362.6-470.7,363-471,363.4z"/>
		</g>
		<g>
			<path class="st1" d="M-416.7,347.3v-1c25.1,0,47.1-9.8,52.3-23.4l0.9,0.4C-368.8,337.2-391.1,347.3-416.7,347.3z"/>
		</g>
	</g>
	<g>
		<path class="st2" d="M-466.5,303.8v-0.7c0-0.7,0.3-1.2,0.8-1.6l0.2,0.2c-0.4,0.3-0.6,0.8-0.6,1.3h0.4v0.8H-466.5z M-465.4,303.8
			v-0.7c0-0.7,0.3-1.2,0.8-1.6l0.2,0.2c-0.4,0.3-0.6,0.8-0.6,1.3h0.4v0.8H-465.4z"/>
		<path class="st2" d="M-459.1,301.7h0.4v1.2h3.2v0.4h-3.2v1.4h2.7v0.4h-2.7v1.5h3.4v0.4h-3.4v2h-0.4v-2h-3.4v-0.4h3.4v-1.5h-2.7
			v-0.4h2.7v-1.4h-3.2v-0.4h3.2V301.7z"/>
		<path class="st2" d="M-453.6,302.5h3.3c0-0.2-0.1-0.5-0.1-0.8l0.4,0c0.1,0.3,0.1,0.6,0.1,0.8h3.2v1.4h-0.4v-1h-6v1h-0.4V302.5z
			 M-453.2,306.2h5.9v2.8h-0.4v-0.4h-5v0.4h-0.4V306.2z M-452.7,306.5v0.8h2.3v-0.8H-452.7z M-452.7,307.6v0.7h2.3v-0.7H-452.7z
			 M-452.7,303.4h4.9v0.3h-4.9V303.4z M-452.4,304.2h4.5v1.4h-4.5V304.2z M-452.1,304.6v0.7h3.7v-0.7H-452.1z M-447.7,306.5h-2.3
			v0.8h2.3V306.5z M-450,307.6v0.7h2.3v-0.7H-450z"/>
		<path class="st2" d="M-445,303h0.8c0.2-0.5,0.3-0.9,0.4-1.3l0.4,0.1c-0.1,0.4-0.2,0.8-0.4,1.2h1.6v5.9h-0.4v-0.6h-2v0.7h-0.4V303z
			 M-444.6,303.3v2.1h2v-2.1H-444.6z M-444.6,305.8v2.1h2v-2.1H-444.6z M-441.5,304.6c0,0-0.1-0.1-0.2-0.1c-0.1,0-0.1-0.1-0.2-0.1
			c0.4-0.7,0.8-1.6,1.2-2.7l0.4,0.1c-0.1,0.4-0.3,0.7-0.4,1.1h2.5c0,0.1,0,0.3,0,0.5c0,1.8-0.1,3.2-0.2,4.2c0,0.8-0.4,1.2-1.3,1.2
			c-0.4,0-0.8,0-1.2,0c0,0,0-0.1,0-0.1c0-0.2-0.1-0.3-0.1-0.3c0.3,0,0.7,0,1.3,0c0.7,0,1-0.3,1-0.9c0-0.5,0.1-1.6,0.1-3.2
			c0-0.5,0-0.8,0-1h-2.3C-441.1,303.9-441.3,304.3-441.5,304.6z M-441.2,305l0.3-0.2c0,0.1,0.1,0.1,0.2,0.2c0.4,0.6,0.8,1,1,1.4
			l-0.3,0.2C-440.4,306-440.8,305.5-441.2,305z"/>
		<path class="st2" d="M-435.3,308.1c0.3-0.2,0.6-0.4,1-0.7c0,0,0,0.1,0,0.2c0,0.1,0,0.2,0,0.2c-0.5,0.3-1,0.6-1.4,0.9l-0.3-0.4
			c0.1-0.2,0.2-0.4,0.2-0.6v-3.2h-0.9v-0.4h1.3V308.1z M-435.2,303.3c-0.3-0.4-0.7-0.7-1.1-1.1l0.3-0.3c0.5,0.5,0.9,0.8,1.2,1.1
			L-435.2,303.3z M-434.5,302.4V302h4.9v0.4h-2.9l-0.2,1.1h2.5v1.6h0.9v0.4h-5.5v-0.4h1.4l0.2-1.3h-1.2v-0.3h1.2l0.2-1.1H-434.5z
			 M-434,306.4h4.1v2.6h-0.4v-0.5h-3.2v0.5h-0.4V306.4z M-433.5,306.8v1.4h3.2v-1.4H-433.5z M-430.5,303.8h-2.2l-0.2,1.3h2.4V303.8z
			"/>
		<path class="st2" d="M-426.1,303.4l0.3-0.2c0.1,0.1,0.2,0.3,0.4,0.5c0.1,0.1,0.2,0.3,0.3,0.3l-0.3,0.2h2c0.2-0.3,0.5-0.7,0.7-1
			l0.4,0.2c0,0-0.1,0.1-0.1,0.1c-0.2,0.3-0.4,0.5-0.6,0.7h2.4v0.4h-7.3v-0.4h2.5C-425.7,303.9-425.9,303.6-426.1,303.4z
			 M-424.7,301.8l0.4-0.2c0.1,0.1,0.1,0.2,0.2,0.4c0.1,0.2,0.2,0.3,0.2,0.4l-0.3,0.2h3.2v0.4h-6.6v-0.4h3.3
			c-0.1-0.1-0.2-0.3-0.3-0.6C-424.6,301.9-424.7,301.8-424.7,301.8z M-427,305.4h5.4v3.6h-0.4v-0.5h-4.5v0.5h-0.4V305.4z
			 M-426.6,305.8v1.1h4.5v-1.1H-426.6z M-426.6,307.2v1h4.5v-1H-426.6z"/>
		<path class="st2" d="M-419.4,308.6c1.4-1.2,2-3.2,2-6h-1.5v-0.4h5.4v0.5l-0.8,1.6h1.5v0.4c-0.5,1.1-1,2-1.7,2.6
			c0.5,0.5,1.4,0.8,2.6,1.1c-0.1,0.1-0.1,0.2-0.2,0.3c0,0,0,0.1-0.1,0.1c-1.2-0.4-2-0.8-2.6-1.3c-0.6,0.5-1.4,0.9-2.6,1.4
			c0,0-0.1-0.1-0.1-0.2c-0.1-0.1-0.1-0.2-0.2-0.2c1.1-0.4,1.9-0.8,2.5-1.3c-0.7-0.7-1.4-1.7-1.8-3c-0.1,1.9-0.8,3.4-1.9,4.6
			C-419.1,308.8-419.2,308.7-419.4,308.6z M-414.8,304.3l0.9-1.7h-3c0,0.1,0,0.2,0,0.4c0,0.2,0,0.3,0,0.4c0.6,1.6,1.3,2.8,2.1,3.6
			c0.6-0.6,1.1-1.3,1.5-2.3h-1.5V304.3z"/>
		<path class="st2" d="M-410.3,302h6.6v7h-0.4v-0.4h-5.8v0.4h-0.4V302z M-409.9,302.3v5.9h5.8v-5.9H-409.9z M-409.2,304.6
			c-0.1-0.1-0.1-0.2-0.2-0.3c0.6-0.5,1.2-1.1,1.6-1.7l0.3,0.2c0,0.1-0.1,0.2-0.2,0.3c-0.1,0.1-0.1,0.1-0.1,0.2h2.8v0.4
			c-0.4,0.5-0.9,0.9-1.4,1.2c0.6,0.2,1.3,0.4,2,0.6c-0.1,0.1-0.1,0.2-0.2,0.4c-0.8-0.2-1.6-0.4-2.2-0.7c-0.7,0.4-1.6,0.7-2.5,0.9
			c-0.1-0.1-0.1-0.2-0.2-0.4c0.9-0.1,1.7-0.4,2.4-0.7c-0.4-0.3-0.8-0.6-1.2-1c-0.1,0-0.2,0.1-0.3,0.2
			C-408.7,304.2-408.9,304.4-409.2,304.6z M-408.9,307.2l0.1-0.4c1.3,0.2,2.4,0.4,3.5,0.6l-0.1,0.4
			C-406.7,307.5-407.9,307.3-408.9,307.2z M-405.5,303.6h-2.6l0,0c0.4,0.4,0.8,0.8,1.3,1C-406.3,304.4-405.8,304-405.5,303.6z
			 M-408.1,306.2l0.1-0.4c0.2,0,0.6,0.1,1.1,0.2c0.5,0.1,0.9,0.2,1.1,0.2l-0.1,0.3C-406.6,306.4-407.3,306.3-408.1,306.2z"/>
		<path class="st2" d="M-401.9,305.8c-0.1-0.2-0.2-0.3-0.2-0.4c0.7-1,1.2-2.2,1.7-3.6l0.4,0.1c-0.1,0.4-0.3,1-0.6,1.7
			c0,0,0,0.1,0,0.1v5.4h-0.4v-4.6C-401.3,304.9-401.6,305.3-401.9,305.8z M-399.9,303.9c-0.1-0.1-0.2-0.2-0.3-0.3
			c0.8-0.6,1.5-1.2,1.9-2l0.4,0.1c-0.1,0.2-0.2,0.4-0.4,0.6h2.2v0.3l-0.7,0.8h1.7v1.5h-2.4c-0.1,0.1-0.1,0.2-0.2,0.3
			c0.3,0.2,0.5,0.5,0.7,0.8c0.5-0.3,1.1-0.6,1.6-1l0.2,0.3c-0.1,0.1-0.3,0.2-0.6,0.3c-0.2,0.1-0.3,0.2-0.4,0.2
			c0.2,0.9,0.7,1.6,1.4,2.1c-0.1,0.1-0.2,0.2-0.3,0.3c-0.7-0.5-1.2-1.3-1.5-2.2c0,0-0.1,0-0.1,0.1c0,0-0.1,0.1-0.3,0.2
			c0.1,0.3,0.2,0.8,0.2,1.4c0,0.7-0.4,1.1-1.2,1.1c-0.2,0-0.4,0-0.6,0c0-0.1,0-0.3-0.1-0.4c0.2,0,0.4,0,0.7,0c0.6,0,0.8-0.2,0.8-0.8
			c0-0.3,0-0.5,0-0.7c-0.6,0.7-1.6,1.3-2.8,1.7c0,0-0.1-0.1-0.1-0.2c-0.1-0.1-0.1-0.1-0.1-0.2c1.3-0.4,2.3-1,3-1.8
			c-0.1-0.2-0.1-0.4-0.2-0.6c-0.7,0.7-1.5,1.2-2.5,1.6c-0.1-0.1-0.1-0.3-0.2-0.3c1.1-0.4,1.9-0.9,2.5-1.5c-0.1-0.1-0.2-0.2-0.3-0.3
			c-0.3,0.3-1,0.7-2,1.1c0,0-0.1-0.1-0.1-0.2c-0.1-0.1-0.1-0.1-0.1-0.2c1.1-0.4,1.9-0.8,2.2-1.2h-1.6v-1.3
			C-399.7,303.7-399.8,303.8-399.9,303.9z M-396.6,302.7h-2c-0.2,0.3-0.5,0.5-0.8,0.8h2L-396.6,302.7z M-399.2,303.8v0.9h1.4
			c0.2-0.2,0.3-0.5,0.3-0.9H-399.2z M-395.5,303.8h-1.5c-0.1,0.3-0.1,0.6-0.2,0.9h1.8V303.8z"/>
		<path class="st2" d="M-393.1,303.7h1v-1.2h-1.2v-0.3h3.7v0.3h-1.2v1.2h1.1v5.2h-0.4v-0.5h-2.7v0.5h-0.4V303.7z M-392.7,304v2.8
			h2.7v-0.9h-0.4c-0.4,0-0.6-0.2-0.6-0.6V304h-0.6v0.3c0.1,0.9-0.1,1.6-0.6,2c0,0-0.1,0-0.1-0.1c-0.1-0.1-0.2-0.1-0.2-0.2
			c0.5-0.4,0.6-0.9,0.6-1.7V304H-392.7z M-392.7,307.1v1h2.7v-1H-392.7z M-391.7,302.5v1.2h0.6v-1.2H-391.7z M-390,304h-0.7v1.1
			c0,0.3,0.1,0.4,0.4,0.4h0.3V304z M-389,302.1h2.5v3h-2v2.7c0,0.4,0.2,0.6,0.7,0.6h0.5c0.5,0,0.7-0.2,0.8-0.6
			c0.1-0.3,0.1-0.7,0.2-1c0.1,0.1,0.2,0.1,0.4,0.1c0,0.4-0.1,0.8-0.1,1c-0.1,0.6-0.5,0.9-1.1,0.9h-0.6c-0.7,0-1-0.3-1-0.9v-3.1h2
			v-2.2h-2.1V302.1z"/>
		<path class="st2" d="M-377.6,304.9c-1.5-0.7-2.6-1.6-3.4-2.6c-0.8,1-2,1.9-3.4,2.7c0,0-0.1-0.1-0.1-0.2c-0.1-0.1-0.1-0.1-0.2-0.2
			c1.6-0.8,2.8-1.8,3.7-2.9l0.5,0.1c-0.1,0.1-0.1,0.2-0.2,0.3c0.9,1.1,2,1.9,3.4,2.5C-377.4,304.6-377.5,304.7-377.6,304.9z
			 M-383.7,305.8h5.2v3.2h-0.4v-0.5h-4.3v0.5h-0.4V305.8z M-383.2,306.2v1.9h4.3v-1.9H-383.2z M-383.2,304.3h4.3v0.4h-4.3V304.3z"/>
		<path class="st2" d="M-462,313.8h0.8c0.2-0.5,0.3-0.9,0.4-1.3l0.4,0.1c-0.1,0.4-0.2,0.8-0.4,1.2h1.6v5.9h-0.4v-0.6h-2v0.7h-0.4
			V313.8z M-461.6,314.1v2.1h2v-2.1H-461.6z M-461.6,316.6v2.1h2v-2.1H-461.6z M-458.5,315.4c0,0-0.1-0.1-0.2-0.1
			c-0.1,0-0.1-0.1-0.2-0.1c0.4-0.7,0.8-1.6,1.2-2.7l0.4,0.1c-0.1,0.4-0.3,0.7-0.4,1.1h2.5c0,0.1,0,0.3,0,0.5c0,1.8-0.1,3.2-0.2,4.2
			c0,0.8-0.4,1.2-1.3,1.2c-0.4,0-0.8,0-1.2,0c0,0,0-0.1,0-0.1c0-0.2-0.1-0.3-0.1-0.3c0.3,0,0.7,0,1.3,0c0.7,0,1-0.3,1-0.9
			c0-0.5,0.1-1.6,0.1-3.2c0-0.5,0-0.8,0-1h-2.3C-458.2,314.7-458.4,315.2-458.5,315.4z M-458.2,315.8l0.3-0.2c0,0.1,0.1,0.1,0.2,0.2
			c0.4,0.6,0.8,1,1,1.4l-0.3,0.2C-457.4,316.9-457.8,316.3-458.2,315.8z"/>
		<path class="st2" d="M-453.7,316.5c0.3-0.1,0.7-0.2,1.2-0.3v-1.8h-1.1v-0.4h1.1v-1.5h0.4v1.5h0.9v0.4h-0.9v1.7
			c0.3-0.1,0.7-0.2,1-0.3c0,0.1,0,0.2,0,0.4c-0.1,0-0.2,0.1-0.3,0.1c-0.3,0.1-0.5,0.1-0.6,0.2v2.4c0,0.6-0.2,0.8-0.8,0.8
			c-0.2,0-0.4,0-0.6,0c0,0,0-0.1,0-0.1c0-0.1-0.1-0.2-0.1-0.3c0.2,0,0.4,0,0.6,0c0.3,0,0.5-0.1,0.5-0.4v-2.2
			c-0.4,0.1-0.7,0.2-1.1,0.3L-453.7,316.5z M-450.7,315.9v-0.4h1.9v-1.4h-2v-0.4h2v-1.2h0.4v1.2h2.1v0.4h-2.1v1.4h1.6v0.4
			c-0.4,1.1-0.9,1.9-1.6,2.5c0.5,0.3,1.2,0.7,2.1,1c0,0-0.1,0.1-0.2,0.3c0,0-0.1,0.1-0.1,0.1c-0.9-0.4-1.6-0.8-2.1-1.2
			c-0.6,0.4-1.4,0.8-2.5,1.2c0-0.1-0.1-0.2-0.3-0.4c1.2-0.4,2-0.8,2.4-1.1c-0.6-0.6-1-1.4-1.4-2.5H-450.7z M-447.3,315.9h-2.6
			c0.3,1,0.7,1.7,1.2,2.2C-448.1,317.6-447.6,316.9-447.3,315.9z"/>
		<path class="st2" d="M-441.4,315c0-0.1-0.1-0.1-0.2-0.2c-0.1-0.1-0.2-0.2-0.2-0.2c-1.2,0-2,0.1-2.5,0.1c-0.2,0-0.4,0-0.5,0.1
			l-0.2-0.4c0.1-0.1,0.3-0.2,0.5-0.4c0.5-0.5,0.9-1.1,1.3-1.6l0.4,0.2c-0.6,0.7-1,1.3-1.5,1.7c0.1,0,0.2,0,0.4,0
			c0.8,0,1.5-0.1,1.9-0.1c-0.2-0.2-0.4-0.5-0.7-0.7l0.3-0.2c0.5,0.4,0.9,0.9,1.4,1.5L-441.4,315z M-444.2,319.8h-0.4v-4.3h2.9v3.5
			c0,0.5-0.2,0.7-0.7,0.7c-0.2,0-0.5,0-0.7,0c0-0.1,0-0.3-0.1-0.4c0.1,0,0.2,0,0.3,0c0.2,0,0.3,0,0.4,0c0.3,0,0.4-0.1,0.4-0.4v-0.8
			h-2.1V319.8z M-444.2,315.8v0.9h2.1v-0.9H-444.2z M-444.2,317v0.9h2.1V317H-444.2z M-440.7,316.3h0.4v1.3c0.8-0.3,1.6-0.7,2.3-1.1
			l0.2,0.4c-0.8,0.4-1.7,0.8-2.5,1.1v0.7c0,0.3,0.2,0.5,0.6,0.5h0.9c0.4,0,0.6-0.1,0.7-0.4c0-0.2,0.1-0.4,0.1-0.8
			c0.1,0,0.1,0,0.2,0.1c0.1,0,0.1,0.1,0.2,0.1c0,0.2-0.1,0.5-0.1,0.8c-0.1,0.5-0.4,0.7-1,0.7h-1c-0.6,0-0.9-0.3-0.9-0.8V316.3z
			 M-440.7,312.5h0.4v1.4c0.6-0.2,1.3-0.5,2.2-1l0.2,0.3c-0.7,0.4-1.5,0.8-2.4,1.1v0.5c0,0.4,0.2,0.5,0.6,0.5h0.9
			c0.4,0,0.6-0.2,0.6-0.5c0.1-0.2,0.1-0.4,0.1-0.8c0.1,0.1,0.3,0.1,0.4,0.1c0,0.2-0.1,0.4-0.1,0.6c0,0.1,0,0.1,0,0.2
			c-0.1,0.5-0.4,0.8-1,0.7h-1c-0.6,0-0.9-0.3-0.9-0.8V312.5z"/>
		<path class="st2" d="M-436.3,317.1l-0.1-0.5c0.1,0,0.4-0.1,0.6-0.2c0.2-0.1,0.3-0.1,0.4-0.1v-2h-0.9v-0.4h0.9v-1.4h0.4v1.4h0.8
			v0.4h-0.8v1.8c0.1,0,0.2-0.1,0.4-0.2c0.2-0.1,0.3-0.1,0.4-0.1c0,0,0,0.1,0,0.2c0,0.1,0,0.2,0,0.3c-0.1,0-0.2,0.1-0.4,0.1
			c-0.2,0.1-0.3,0.1-0.4,0.2v2.4c0,0.5-0.2,0.8-0.7,0.8c-0.2,0-0.3,0-0.5,0c0-0.2-0.1-0.4-0.1-0.4c0.1,0,0.3,0,0.5,0
			c0.2,0,0.4-0.1,0.4-0.4v-2.2C-435.7,316.8-436,316.9-436.3,317.1z M-430.9,317.4h1.2v-1.2h-1.2v-0.4h1.6v4h-0.4v-0.4h-3.7v0.5
			h-0.4v-4c0.6-0.1,1.1-0.2,1.5-0.3l0.2,0.4c-0.4,0.1-0.8,0.2-1.3,0.3v1.2h1.2v0.4h-1.2v1.3h1.6v-4.2h-2.2v-0.4h2.2v-1.1
			c-0.2,0-0.5,0-1,0c-0.4,0-0.8,0-1,0.1l-0.1-0.4c1.4,0,2.9-0.1,4.5-0.3l0.1,0.4c-0.3,0-0.8,0.1-1.6,0.1c-0.2,0-0.4,0-0.6,0v1.1h2.4
			v0.4h-2.4v4.2h1.7v-1.3h-1.2V317.4z"/>
		<path class="st2" d="M-427.6,316.8c-0.1-0.2-0.2-0.3-0.2-0.5c0.7-1,1.3-2.3,1.7-3.7l0.4,0.1c-0.2,0.6-0.4,1.1-0.6,1.7v5.5h-0.4
			v-4.6C-427,315.8-427.3,316.3-427.6,316.8z M-422.8,312.5h0.4v1.8h1.8v0.4h-1.8v2.1h2.1v0.4h-2.1v2.6h-0.4v-2.6h-2.8v-0.4h2.8
			v-2.1h-1.6c-0.1,0.3-0.3,0.7-0.6,1.2c0,0.1-0.1,0.1-0.1,0.2c0,0-0.1-0.1-0.2-0.1c-0.1,0-0.2-0.1-0.2-0.1c0.5-0.9,0.9-1.8,1.1-2.8
			l0.4,0.1c-0.1,0.4-0.2,0.7-0.3,1.1h1.5V312.5z"/>
		<path class="st2" d="M-416.9,317.7v0.7c0,0.7-0.2,1.2-0.7,1.5l-0.2-0.2c0.4-0.3,0.7-0.7,0.6-1.2h-0.4v-0.8H-416.9z"/>
		<path class="st2" d="M-408.9,318.6c0.5-0.4,0.9-0.7,1.3-1c0,0.1,0.1,0.3,0.1,0.5c-0.4,0.3-0.8,0.6-1.4,1c-0.1,0.1-0.2,0.2-0.4,0.4
			l-0.4-0.4c0.2-0.1,0.3-0.3,0.3-0.7v-2.8h-1.1v-0.4h1.5V318.6z M-408.4,314.3c-0.1-0.1-0.2-0.2-0.3-0.3c-0.4-0.4-0.7-0.7-0.9-0.9
			l0.3-0.3c0.3,0.2,0.7,0.6,1.3,1.2L-408.4,314.3z M-406,312.6h0.4v2.3h2.2v0.4h-2.2v3.7h2.5v0.4h-4.9v-0.4h2V312.6z"/>
		<path class="st2" d="M-398.6,312.5h0.4v1h2.9v4.1h-2.9v0.9c0,0.4,0.2,0.6,0.8,0.6h1.5c0.5,0,0.8-0.1,0.9-0.4
			c0.1-0.3,0.1-0.6,0.2-0.9c0.2,0.1,0.3,0.1,0.4,0.1c-0.1,0.5-0.1,0.8-0.2,1c-0.1,0.4-0.5,0.7-1.1,0.6h-1.8c-0.8,0-1.1-0.3-1.1-1
			v-0.9h-2.4v0.6h-0.4v-4.7h2.8V312.5z M-401,313.9v1.5h2.4v-1.5H-401z M-401,315.8v1.5h2.4v-1.5H-401z M-395.7,313.9h-2.4v1.5h2.4
			V313.9z M-398.2,317.2h2.4v-1.5h-2.4V317.2z"/>
		<path class="st2" d="M-393,314.5v-0.4h2.2v0.4c-0.3,0.5-0.5,0.9-0.8,1.3v4h-0.4v-3.5c-0.3,0.3-0.6,0.7-1,1c0,0-0.1-0.1-0.1-0.3
			c0-0.1,0-0.1-0.1-0.2c0.7-0.6,1.4-1.4,1.9-2.4H-393z M-392.4,312.7l0.4-0.2c0.1,0.1,0.2,0.3,0.3,0.6c0.2,0.3,0.3,0.5,0.3,0.6
			l-0.4,0.2C-392,313.3-392.3,312.9-392.4,312.7z M-391.4,316.2l0.3-0.2c0.1,0.1,0.3,0.3,0.6,0.6c0.1,0.2,0.2,0.3,0.3,0.3l-0.3,0.3
			C-390.8,317-391.1,316.7-391.4,316.2z M-388.4,314h0.4c0,0.9,0,1.5-0.1,1.9c0,1.8-0.9,3.1-2.7,4c-0.1-0.1-0.2-0.2-0.3-0.3
			c1.8-0.8,2.7-2,2.6-3.6C-388.4,315.2-388.4,314.6-388.4,314z M-390,312.9h3.7v4.4h-0.4v-4h-2.9v4.1h-0.4V312.9z M-388.1,316.9h0.4
			v1.8c0,0.4,0.2,0.5,0.6,0.5h0.3c0.3,0,0.5-0.1,0.6-0.4c0.1-0.3,0.1-0.7,0.1-1c0.1,0,0.2,0.1,0.4,0.2c0,0.3,0,0.6-0.1,0.9
			c-0.1,0.5-0.4,0.8-1,0.7h-0.4c-0.6,0-0.9-0.3-0.9-0.9V316.9z"/>
		<path class="st2" d="M-384.5,317.8h1.1v-4.9h5.2v4.9h1.1v0.4h-7.4V317.8z M-381.9,318.5l0.3,0.4c-0.2,0.1-0.5,0.2-1,0.4
			c-0.8,0.3-1.3,0.5-1.6,0.6c0-0.1-0.1-0.2-0.2-0.4C-383.2,319.1-382.4,318.8-381.9,318.5z M-383,313.2v0.9h4.4v-0.9H-383z
			 M-383,314.5v0.9h4.4v-0.9H-383z M-383,315.7v0.9h4.4v-0.9H-383z M-383,316.9v0.9h4.4v-0.9H-383z M-380,318.9l0.2-0.4
			c0.3,0.1,0.8,0.3,1.6,0.5c0.5,0.2,0.8,0.3,1,0.4l-0.2,0.4C-378.3,319.4-379.2,319.1-380,318.9z"/>
		<path class="st2" d="M-455.1,327c-1.5-0.2-2.6-0.5-3.4-0.8c-0.9,0.4-2.1,0.7-3.6,1c0-0.1-0.1-0.2-0.2-0.3c0-0.1,0-0.1-0.1-0.1
			c1.4-0.2,2.5-0.4,3.4-0.8c-0.5-0.3-1.1-0.7-1.6-1.3c-0.4,0.5-0.9,0.9-1.3,1.2c-0.1-0.1-0.2-0.2-0.3-0.3c0.9-0.7,1.6-1.5,2.1-2.3
			l0.4,0.2c-0.1,0.2-0.3,0.4-0.4,0.6h4.1v0.4c-0.6,0.7-1.3,1.2-2.1,1.5c0.8,0.3,1.8,0.5,3.1,0.6c0,0-0.1,0.1-0.1,0.2
			C-455.1,326.8-455.1,326.9-455.1,327z M-461.3,327.2h5.4v3.4h-0.4v-0.3h-4.6v0.3h-0.4V327.2z M-460.9,327.5v1.1h2.1v-1.1H-460.9z
			 M-460.9,329v1h2.1v-1H-460.9z M-456.5,324.4h-3.8c0.5,0.6,1.1,1,1.8,1.4C-457.8,325.4-457.1,325-456.5,324.4z M-456.3,327.5h-2.1
			v1.1h2.1V327.5z M-458.4,329v1h2.1v-1H-458.4z"/>
		<path class="st2" d="M-450,323.2l0.5,0.1c-0.3,0.2-0.6,0.5-0.9,0.7h3.5v0.4c-1.4,1.3-3.6,2.4-6.4,3.1c0-0.1-0.1-0.2-0.1-0.3
			c0,0-0.1-0.1-0.1-0.1c2.6-0.6,4.6-1.5,6-2.7h-3.4c-0.1,0.1-0.3,0.2-0.4,0.3c0.4,0.2,0.8,0.5,1.3,0.8l-0.3,0.3
			c-0.1-0.1-0.3-0.2-0.6-0.4c-0.3-0.2-0.6-0.4-0.7-0.5c-0.2,0.1-0.4,0.3-0.8,0.5c-0.2,0.1-0.3,0.2-0.4,0.2c-0.1-0.1-0.1-0.2-0.2-0.4
			C-451.9,324.7-450.9,324.1-450,323.2z M-449.1,326.2l0.4,0.2c-0.2,0.2-0.5,0.4-0.7,0.6h2.9v0.4c-1.5,1.6-3.7,2.7-6.6,3.2
			c0,0-0.1-0.1-0.1-0.2c0-0.1-0.1-0.2-0.1-0.2c2.8-0.4,4.9-1.4,6.3-2.9h-2.9c-0.2,0.2-0.5,0.3-0.7,0.5c0.2,0.1,0.4,0.3,0.7,0.5
			c0.2,0.1,0.4,0.3,0.5,0.3l-0.3,0.3c-0.4-0.4-0.8-0.7-1.3-1c-0.5,0.3-1.1,0.6-1.7,0.8l-0.2-0.4
			C-451.5,327.9-450.2,327.2-449.1,326.2z"/>
		<path class="st2" d="M-442.1,325.6c-0.1-0.1-0.2-0.3-0.4-0.6c-0.3-0.5-0.6-0.8-0.8-1.1c-0.4,0.9-0.9,1.7-1.4,2.5
			c0,0-0.1-0.1-0.2-0.2c-0.1-0.1-0.1-0.1-0.1-0.2c0.7-0.9,1.2-1.8,1.6-2.8l0.4,0.1c0,0-0.1,0.1-0.1,0.2c0,0,0,0,0,0.1
			c0.5,0.6,1,1.2,1.4,1.7L-442.1,325.6z M-444.7,328.6l0.3-0.2c0.1,0.1,0.3,0.3,0.5,0.5c0.2,0.2,0.4,0.4,0.5,0.5l1-1.9h-2.3V327h2.8
			v0.4l-1.1,2.2c0.2,0.2,0.4,0.4,0.6,0.6l-0.3,0.3c-0.3-0.4-0.9-1-1.6-1.7C-444.5,328.7-444.6,328.6-444.7,328.6z M-443.7,325.5
			l0.3-0.2c0.2,0.3,0.4,0.7,0.6,1l-0.3,0.2C-443.3,326.2-443.5,325.8-443.7,325.5z M-438,330.6c-0.3-0.4-0.8-0.8-1.4-1.3
			c-0.2-0.2-0.3-0.3-0.4-0.4c-0.2,0.6-0.9,1.2-2.1,1.8c0-0.1-0.1-0.1-0.2-0.2c0-0.1-0.1-0.1-0.1-0.1c0.9-0.4,1.5-0.8,1.8-1.3
			c0.3-0.4,0.5-1,0.5-1.9v-1.1h0.4v1.1c0,0.5-0.1,0.9-0.2,1.3c0.2,0.2,0.6,0.5,1,0.9c0.4,0.4,0.8,0.7,1,0.9L-438,330.6z
			 M-441.8,323.7h4.2v0.4h-1.9l-0.3,1.2h1.8v3.5h-0.4v-3.1h-2.7v3.2h-0.4v-3.5h1.3l0.3-1.2h-1.9V323.7z"/>
		<path class="st2" d="M-436.3,329.7l-0.1-0.4c0.1,0,0.3-0.1,0.5-0.2c0.2-0.1,0.4-0.1,0.5-0.1v-3.1h-0.9v-0.4h0.9v-2.1h0.4v2.1h0.8
			v0.4h-0.8v3c0.3-0.1,0.6-0.2,0.8-0.3c0,0.2,0,0.3,0,0.4C-435,329.2-435.7,329.4-436.3,329.7z M-434.3,329.8l-0.1-0.4
			c0.3-0.1,0.9-0.2,1.8-0.3c0.4-0.1,0.7-0.1,0.9-0.2c0,0.1,0,0.3,0,0.4c-0.2,0-0.5,0.1-1,0.2C-433.4,329.6-434,329.7-434.3,329.8z
			 M-432.2,330.7c-0.1-0.1-0.2-0.2-0.3-0.3c0.6-0.5,1.1-1,1.6-1.6c-0.2-0.6-0.3-1.5-0.3-2.8c0-0.3,0-0.6,0-0.9h-2.7v-0.4h2.7
			c0-0.4,0-0.9,0-1.4h0.4c0,0.4,0,0.9,0,1.4h1.9v0.4h-1.9c0,0.3,0,0.6,0,0.8c0.1,1,0.1,1.7,0.2,2.4c0.4-0.6,0.7-1.4,1-2.2l0.4,0.2
			c-0.3,1-0.8,1.9-1.3,2.6c0.1,0.5,0.3,0.8,0.5,1c0.1,0.2,0.2,0.3,0.4,0.2c0.1,0,0.2-0.1,0.2-0.3c0.1-0.2,0.1-0.6,0.1-1.1
			c0.1,0.1,0.2,0.1,0.4,0.2c0,0.5-0.1,0.9-0.2,1.1c-0.1,0.4-0.3,0.6-0.6,0.6c-0.2,0-0.5-0.1-0.6-0.4c-0.2-0.3-0.4-0.6-0.5-1
			C-431.1,329.6-431.5,330.1-432.2,330.7z M-433.8,326h1.8v2.2h-1.8V326z M-433.5,326.4v1.5h1v-1.5H-433.5z M-429.7,324.4
			c-0.1-0.1-0.3-0.3-0.6-0.6c-0.1-0.1-0.1-0.1-0.2-0.2l0.2-0.2c0.3,0.2,0.6,0.4,0.8,0.6L-429.7,324.4z"/>
		<path class="st2" d="M-427.8,327.4c0.3-0.1,0.7-0.2,1.2-0.3v-1.8h-1.1v-0.4h1.1v-1.5h0.4v1.5h0.9v0.4h-0.9v1.7
			c0.3-0.1,0.7-0.2,1-0.3c0,0.1,0,0.2,0,0.4c-0.1,0-0.2,0.1-0.3,0.1c-0.3,0.1-0.5,0.1-0.6,0.2v2.4c0,0.6-0.2,0.8-0.8,0.8
			c-0.2,0-0.4,0-0.6,0c0,0,0-0.1,0-0.1c0-0.1-0.1-0.2-0.1-0.3c0.2,0,0.4,0,0.6,0c0.3,0,0.5-0.1,0.5-0.4v-2.2
			c-0.4,0.1-0.7,0.2-1.1,0.3L-427.8,327.4z M-424.8,326.7v-0.4h1.9V325h-2v-0.4h2v-1.2h0.4v1.2h2.1v0.4h-2.1v1.4h1.6v0.4
			c-0.4,1.1-0.9,1.9-1.6,2.5c0.5,0.3,1.2,0.7,2.1,1c0,0-0.1,0.1-0.2,0.3c0,0-0.1,0.1-0.1,0.1c-0.9-0.4-1.6-0.8-2.1-1.2
			c-0.6,0.4-1.4,0.8-2.5,1.2c0-0.1-0.1-0.2-0.3-0.4c1.2-0.4,2-0.8,2.4-1.1c-0.6-0.6-1-1.4-1.4-2.5H-424.8z M-421.3,326.7h-2.6
			c0.3,1,0.7,1.7,1.2,2.2C-422.2,328.4-421.7,327.7-421.3,326.7z"/>
		<path class="st2" d="M-415.4,325.9c0-0.1-0.1-0.1-0.2-0.2c-0.1-0.1-0.2-0.2-0.2-0.2c-1.2,0-2,0.1-2.5,0.1c-0.2,0-0.4,0-0.5,0.1
			l-0.2-0.4c0.1-0.1,0.3-0.2,0.5-0.4c0.5-0.5,0.9-1.1,1.3-1.6l0.4,0.2c-0.6,0.7-1,1.3-1.5,1.7c0.1,0,0.2,0,0.4,0
			c0.8,0,1.5-0.1,1.9-0.1c-0.2-0.2-0.4-0.5-0.7-0.7l0.3-0.2c0.5,0.4,0.9,0.9,1.4,1.5L-415.4,325.9z M-418.2,330.6h-0.4v-4.3h2.9v3.5
			c0,0.5-0.2,0.7-0.7,0.7c-0.2,0-0.5,0-0.7,0c0-0.1,0-0.3-0.1-0.4c0.1,0,0.2,0,0.3,0c0.2,0,0.3,0,0.4,0c0.3,0,0.4-0.1,0.4-0.4V329
			h-2.1V330.6z M-418.2,326.6v0.9h2.1v-0.9H-418.2z M-418.2,327.8v0.9h2.1v-0.9H-418.2z M-414.8,327.1h0.4v1.3
			c0.8-0.3,1.6-0.7,2.3-1.1l0.2,0.4c-0.8,0.4-1.7,0.8-2.5,1.1v0.7c0,0.3,0.2,0.5,0.6,0.5h0.9c0.4,0,0.6-0.1,0.7-0.4
			c0-0.2,0.1-0.4,0.1-0.8c0.1,0,0.1,0,0.2,0.1c0.1,0,0.1,0.1,0.2,0.1c0,0.2-0.1,0.5-0.1,0.8c-0.1,0.5-0.4,0.7-1,0.7h-1
			c-0.6,0-0.9-0.3-0.9-0.8V327.1z M-414.8,323.3h0.4v1.4c0.6-0.2,1.3-0.5,2.2-1l0.2,0.3c-0.7,0.4-1.5,0.8-2.4,1.1v0.5
			c0,0.4,0.2,0.5,0.6,0.5h0.9c0.4,0,0.6-0.2,0.6-0.5c0.1-0.2,0.1-0.4,0.1-0.8c0.1,0.1,0.3,0.1,0.4,0.1c0,0.2-0.1,0.4-0.1,0.6
			c0,0.1,0,0.1,0,0.2c-0.1,0.5-0.4,0.8-1,0.7h-1c-0.6,0-0.9-0.3-0.9-0.8V323.3z"/>
		<path class="st2" d="M-408.8,323.2v0.7c0,0.7-0.2,1.3-0.7,1.6l-0.2-0.2c0.4-0.3,0.7-0.7,0.6-1.3h-0.4v-0.8H-408.8z M-407.6,323.2
			v0.7c0,0.7-0.2,1.2-0.8,1.6l-0.2-0.2c0.4-0.3,0.6-0.7,0.6-1.3h-0.4v-0.8H-407.6z"/>
	</g>
</g>
</svg>
