<?xml version="1.0" encoding="UTF-8" standalone="no"?>
<svg width="62px" height="62px" viewBox="0 0 62 62" version="1.1" xmlns="http://www.w3.org/2000/svg" xmlns:xlink="http://www.w3.org/1999/xlink">
    <!-- Generator: Sketch 39.1 (31720) - http://www.bohemiancoding.com/sketch -->
    <title>智能回复</title>
    <desc>Created with Sketch.</desc>
    <defs></defs>
    <g id="Page-1" stroke="none" stroke-width="1" fill="none" fill-rule="evenodd">
        <g id="角色属性-copy" transform="translate(-782.000000, -436.000000)">
            <g id="智能回复" transform="translate(782.000000, 436.000000)">
                <circle id="Oval-Copy-5" fill="#4DB6AC" cx="31" cy="31" r="31"></circle>
                <g id="noun_610935_cc" transform="translate(15.000000, 18.000000)" fill="#FFFFFF">
                    <g id="Group">
                        <path d="M28,22.6666667 L26.6666667,22.6666667 L26.6666667,26.6666667 L22.6666667,22.6666667 L20,22.6666667 C17.7906667,22.6666667 16,20.876 16,18.6666667 L16,13.3333333 C16,11.124 17.7906667,9.33333333 20,9.33333333 L28,9.33333333 C30.2093333,9.33333333 32,11.124 32,13.3333333 L32,18.6666667 C32,20.876 30.2093333,22.6666667 28,22.6666667 L28,22.6666667 Z M13.3333333,13.3333333 L13.3333333,18.6666667 L9.33333333,18.6666667 L5.33333333,22.6666667 L5.33333333,18.6666667 L4,18.6666667 C1.79066667,18.6666667 0,16.876 0,14.6666667 L0,4 C0,1.79066667 1.79066667,0 4,0 L20,0 C22.2093333,0 24,1.79066667 24,4 L24,6.66666667 L20,6.66666667 C16.3186667,6.66666667 13.3333333,9.652 13.3333333,13.3333333 L13.3333333,13.3333333 Z" id="Shape"></path>
                    </g>
                </g>
            </g>
        </g>
    </g>
</svg>