<?xml version="1.0" encoding="UTF-8" standalone="no"?>
<svg width="62px" height="62px" viewBox="0 0 62 62" version="1.1" xmlns="http://www.w3.org/2000/svg" xmlns:xlink="http://www.w3.org/1999/xlink">
    <!-- Generator: Sketch 39.1 (31720) - http://www.bohemiancoding.com/sketch -->
    <title>古诗词</title>
    <desc>Created with Sketch.</desc>
    <defs></defs>
    <g id="Page-1" stroke="none" stroke-width="1" fill="none" fill-rule="evenodd">
        <g id="角色属性-copy" transform="translate(-265.000000, -1228.000000)">
            <g id="古诗词" transform="translate(265.000000, 1228.000000)">
                <circle id="Oval-Copy-14" fill="#F5718A" cx="31" cy="31" r="31"></circle>
                <g id="noun_570934_cc" transform="translate(15.000000, 11.000000)">
                    <g id="Group">
                        <path d="M29,40 L6,40 C2.686,40 0,37.314 0,34 L0,6 C0,2.686 2.686,0 6,0 L29,0 C30.656,0 32,1.344 32,3 L32,7 C32,5.344 30.656,4 29,4 L6,4 C4.896,4 4,4.896 4,6 C4,7.104 4.896,8 6,8 L29,8 C30.656,8 32,9.344 32,11 L32,37 C32,38.656 30.656,40 29,40 L29,40 Z" id="Shape" fill="#FFFFFF"></path>
                        <text id="诗" font-family="FZYANS_ZHONGJW--GB1-0, FZYanSongS-DB-GB" font-size="14" font-weight="normal" fill="#F5718A">
                            <tspan x="9" y="26">诗</tspan>
                        </text>
                    </g>
                </g>
            </g>
        </g>
    </g>
</svg>