<?xml version="1.0" encoding="UTF-8" standalone="no"?>
<svg width="62px" height="62px" viewBox="0 0 62 62" version="1.1" xmlns="http://www.w3.org/2000/svg" xmlns:xlink="http://www.w3.org/1999/xlink">
    <!-- Generator: Sketch 39.1 (31720) - http://www.bohemiancoding.com/sketch -->
    <title>时间询问</title>
    <desc>Created with Sketch.</desc>
    <defs></defs>
    <g id="Page-1" stroke="none" stroke-width="1" fill="none" fill-rule="evenodd">
        <g id="角色属性-copy" transform="translate(-264.000000, -1445.000000)">
            <g id="时间询问" transform="translate(264.000000, 1445.000000)">
                <circle id="Oval-Copy-16" fill="#4DB6AC" cx="31" cy="31" r="31"></circle>
                <path d="M42.2,47 L19.8,47 C17.1488,47 15,44.8512 15,42.2 L15,23 C15,20.3488 17.1488,18.2 19.8,18.2 L21.4,18.2 L21.4,16.6 C21.4,15.7168 22.1168,15 23,15 C23.8832,15 24.6,15.7168 24.6,16.6 L24.6,18.2 L37.4,18.2 L37.4,16.6 C37.4,15.7168 38.1168,15 39,15 C39.8832,15 40.6,15.7168 40.6,16.6 L40.6,18.2 L42.2,18.2 C44.8512,18.2 47,20.3488 47,23 L47,42.2 C47,44.8512 44.8512,47 42.2,47 L42.2,47 Z M43.8,24.6 L18.2,24.6 L18.2,42.2 C18.2,43.0832 18.9168,43.8 19.8,43.8 L42.2,43.8 C43.0832,43.8 43.8,43.0832 43.8,42.2 L43.8,24.6 L43.8,24.6 Z M37.4,35.8 C36.5168,35.8 35.8,35.0832 35.8,34.2 C35.8,33.3168 36.5168,32.6 37.4,32.6 C38.2832,32.6 39,33.3168 39,34.2 C39,35.0832 38.2832,35.8 37.4,35.8 L37.4,35.8 Z M37.4,31 C36.5168,31 35.8,30.2832 35.8,29.4 C35.8,28.5168 36.5168,27.8 37.4,27.8 C38.2832,27.8 39,28.5168 39,29.4 C39,30.2832 38.2832,31 37.4,31 L37.4,31 Z M32.6,40.6 C31.7168,40.6 31,39.8832 31,39 C31,38.1168 31.7168,37.4 32.6,37.4 C33.4832,37.4 34.2,38.1168 34.2,39 C34.2,39.8832 33.4832,40.6 32.6,40.6 L32.6,40.6 Z M32.6,35.8 C31.7168,35.8 31,35.0832 31,34.2 C31,33.3168 31.7168,32.6 32.6,32.6 C33.4832,32.6 34.2,33.3168 34.2,34.2 C34.2,35.0832 33.4832,35.8 32.6,35.8 L32.6,35.8 Z M32.6,31 C31.7168,31 31,30.2832 31,29.4 C31,28.5168 31.7168,27.8 32.6,27.8 C33.4832,27.8 34.2,28.5168 34.2,29.4 C34.2,30.2832 33.4832,31 32.6,31 L32.6,31 Z M27.8,40.6 C26.9168,40.6 26.2,39.8832 26.2,39 C26.2,38.1168 26.9168,37.4 27.8,37.4 C28.6832,37.4 29.4,38.1168 29.4,39 C29.4,39.8832 28.6832,40.6 27.8,40.6 L27.8,40.6 Z M27.8,35.8 C26.9168,35.8 26.2,35.0832 26.2,34.2 C26.2,33.3168 26.9168,32.6 27.8,32.6 C28.6832,32.6 29.4,33.3168 29.4,34.2 C29.4,35.0832 28.6832,35.8 27.8,35.8 L27.8,35.8 Z M27.8,31 C26.9168,31 26.2,30.2832 26.2,29.4 C26.2,28.5168 26.9168,27.8 27.8,27.8 C28.6832,27.8 29.4,28.5168 29.4,29.4 C29.4,30.2832 28.6832,31 27.8,31 L27.8,31 Z M23,40.6 C22.1168,40.6 21.4,39.8832 21.4,39 C21.4,38.1168 22.1168,37.4 23,37.4 C23.8832,37.4 24.6,38.1168 24.6,39 C24.6,39.8832 23.8832,40.6 23,40.6 L23,40.6 Z M23,35.8 C22.1168,35.8 21.4,35.0832 21.4,34.2 C21.4,33.3168 22.1168,32.6 23,32.6 C23.8832,32.6 24.6,33.3168 24.6,34.2 C24.6,35.0832 23.8832,35.8 23,35.8 L23,35.8 Z" id="Shape" fill="#FFFFFF"></path>
            </g>
        </g>
    </g>
</svg>