<?xml version="1.0" encoding="UTF-8" standalone="no"?>
<svg width="62px" height="62px" viewBox="0 0 62 62" version="1.1" xmlns="http://www.w3.org/2000/svg" xmlns:xlink="http://www.w3.org/1999/xlink">
    <!-- Generator: Sketch 39.1 (31720) - http://www.bohemiancoding.com/sketch -->
    <title>星座运势</title>
    <desc>Created with Sketch.</desc>
    <defs></defs>
    <g id="Page-1" stroke="none" stroke-width="1" fill="none" fill-rule="evenodd">
        <g id="角色属性-copy" transform="translate(-265.000000, -903.000000)">
            <g id="星座运势" transform="translate(265.000000, 903.000000)">
                <circle id="Oval-Copy-6" fill="#AAD16B" cx="31" cy="31" r="31"></circle>
                <g id="星座" transform="translate(15.000000, 16.000000)" fill="#FFFFFF">
                    <g id="Group" transform="translate(0.171875, 0.226562)">
                        <path d="M20.997184,9.72708547 L17.4253726,1.18001041 C17.3828303,1.09495749 17.324398,0.988760031 17.2498857,0.861069857 C17.1754683,0.733411337 17.085066,0.605942737 16.9787102,0.47841083 C16.8723545,0.35075231 16.7395365,0.239237069 16.5800979,0.143516918 C16.4206909,0.0478284216 16.2346,0 16.0219202,0 C15.6179584,0 15.2990812,0.122245774 15.0651935,0.366768975 C14.8312426,0.611260523 14.6505645,0.9036438 14.5230009,1.24376054 L10.8554694,9.79080394 L1.00075711,10.6835906 C0.76690113,10.7260696 0.554379606,10.8323303 0.362907652,11.0025628 C0.171657272,11.1726687 0.054634324,11.406493 0.0121553419,11.7042573 C-0.0303552936,12.0019268 0.0386176586,12.2942467 0.219390733,12.5812489 C0.400132155,12.868346 0.618003118,13.128791 0.873161892,13.3626469 C0.89446469,13.3838864 1.01142433,13.4848611 1.22397751,13.6656025 C1.43656234,13.8463755 1.70767447,14.0803265 2.03721894,14.367297 C2.36679507,14.6543308 2.73878687,14.9731764 3.15335261,15.3241187 C3.56801332,15.6748393 3.98786519,16.0309727 4.41309816,16.3924872 C4.43379955,16.4100866 11.4002576,14.3399167 11.6572523,14.2093145 C11.6572523,14.2088396 11.6572207,14.2082699 11.6572207,14.2078584 C11.6572207,13.4095257 12.1365494,12.7062802 12.8187454,12.3746466 C13.0867555,12.2429048 13.3862925,12.1684874 13.7006749,12.1684874 C14.810193,12.1684874 15.7361209,13.0943836 15.7361209,14.2039334 C15.7361209,14.5516469 15.6451488,14.881318 15.48609,15.1700928 C15.5868747,15.2880337 19.4002338,19.4433454 19.4360022,19.4825958 C19.6229794,19.4073554 19.8258783,19.365193 20.037102,19.365193 C20.0656534,19.365193 20.0939833,19.365921 20.1221233,19.3674404 C20.192299,19.2023358 25.2401442,10.2337945 25.2855986,10.1297178 L20.997089,9.72724374 L20.997184,9.72708547 Z M31.7449045,11.0346911 C31.5747037,10.8859197 31.277066,10.7582295 30.8518646,10.6519688 L26.8007245,10.2717471 C26.7725529,10.3320469 21.4403012,19.8593672 21.3448659,19.9943694 C21.3422386,19.9998454 21.3400862,20.0056064 21.3373007,20.0110191 C21.5542537,20.2902029 21.6848877,20.6383913 21.6848877,21.0127571 C21.6848877,21.9109881 20.935333,22.6604478 20.037197,22.6604478 C19.1390609,22.6604478 18.3895062,21.9108932 18.3895062,21.0127571 C18.3895062,20.8217283 18.4237237,20.637505 18.4857645,20.4657848 C18.4705075,20.4339097 14.5259764,16.184967 14.4446585,16.0949761 C14.2110241,16.1901898 13.9571632,16.2433676 13.692635,16.2433676 C13.0523482,16.2433676 12.4735641,15.9346512 12.0982487,15.4605769 L5.69028479,17.4836146 C5.69028479,17.4836146 7.04726985,18.6495393 7.79365912,19.2947323 C7.38969729,20.9530902 7.02824611,22.4414373 6.7092739,23.7596152 C6.5605025,24.3336829 6.41701724,24.897115 6.27869149,25.4498482 C6.14052401,26.0026131 6.01821493,26.5075812 5.91198582,26.9648158 C5.80559845,27.4218922 5.70990995,27.8153134 5.62488868,28.1448262 C5.53983575,28.474339 5.48665789,28.6816694 5.46545005,28.766659 C5.42293942,28.958036 5.44414726,29.1440636 5.52929514,29.3248683 C5.61434807,29.5055147 5.74722941,29.6596989 5.92790753,29.7872308 C6.1086806,29.9148893 6.31072482,29.9944978 6.53378696,30.0264046 C6.75703901,30.0582796 6.97500494,30.0210551 7.18755811,29.9147944 C7.29388218,29.8723154 7.50118088,29.7660546 7.80948586,29.5958538 C8.11772754,29.425748 8.48446486,29.2129732 8.90969783,28.9578777 C9.3349941,28.7028139 9.8080555,28.4264157 10.3289453,28.1287462 C10.8498351,27.8310768 11.3760427,27.5335024 11.9076314,27.2357697 C13.1408513,26.5342334 14.5122387,25.7369137 16.0216987,24.8439054 L24.3455217,29.691384 C24.4518141,29.733863 24.6059982,29.7924853 24.8080108,29.8668077 C25.0099284,29.9412883 25.1641758,29.9785128 25.2703733,29.9785128 C25.5893772,29.9785128 25.876316,29.9094449 26.1315381,29.7712774 C26.3866969,29.633015 26.4823537,29.3513623 26.418572,28.9262559 C26.3972375,28.8411713 26.3546952,28.633841 26.2909134,28.3042965 C26.2270367,27.9747837 26.1474598,27.576108 26.051708,27.1083327 C25.9559879,26.6405891 25.8549499,26.119636 25.7487208,25.5456 C25.6424917,24.971469 25.5255321,24.3974963 25.3980002,23.8234603 C25.1215386,22.4626451 24.8026614,20.9425496 24.4412418,19.2628889 L31.04321,13.3306453 C31.3197032,13.0117047 31.5481781,12.7406559 31.7289195,12.5174355 C31.9096926,12.2942784 32,12.0338018 32,11.7360374 C32.0000316,11.4170652 31.9149471,11.1832726 31.7449045,11.0344695 L31.7449045,11.0346911 Z M4.46852524,16.3677659 C4.43762524,16.3772659 4.42012524,16.3828659 4.42012524,16.3828659 C4.42012524,16.3828659 4.43782524,16.3773659 4.46852524,16.3677659 L4.46852524,16.3677659 Z" id="Shape"></path>
                    </g>
                </g>
            </g>
        </g>
    </g>
</svg>