<?xml version="1.0" encoding="UTF-8" standalone="no"?>
<svg width="62px" height="62px" viewBox="0 0 62 62" version="1.1" xmlns="http://www.w3.org/2000/svg" xmlns:xlink="http://www.w3.org/1999/xlink">
    <!-- Generator: Sketch 39.1 (31720) - http://www.bohemiancoding.com/sketch -->
    <title>用户属性记忆</title>
    <desc>Created with Sketch.</desc>
    <defs></defs>
    <g id="Page-1" stroke="none" stroke-width="1" fill="none" fill-rule="evenodd">
        <g id="角色属性-copy" transform="translate(-267.000000, -326.000000)">
            <g id="用户属性记忆" transform="translate(267.000000, 326.000000)">
                <circle id="Oval-Copy-2" fill="#9F82D6" cx="31" cy="31" r="31"></circle>
                <g id="noun_610887_cc" transform="translate(16.000000, 18.000000)" fill="#FFFFFF">
                    <g id="Group">
                        <path d="M15.3029565,25.042087 L15.2653913,25.042087 C12.8347826,25.042087 10.5154783,24.5606957 8.40069565,23.6897391 C6.93704348,25.0504348 4.99895652,25.9993043 2.87304348,26.4208696 C4.00973913,25.2674783 4.91408696,23.7815652 5.36904348,22.1106087 C2.21495652,19.9874783 0.119652174,16.512 0,12.5384348 C0,5.60556522 6.85217391,0 15.3043478,0 C23.7565217,0 30.6086957,5.60556522 30.6086957,12.5217391 C30.6086957,19.437913 23.7565217,25.0434783 15.3043478,25.0434783 L15.3029565,25.042087 Z M15.3029565,2.78121739 C8.38678261,2.78121739 2.78121739,7.14156522 2.78121739,12.5203478 C2.78121739,17.8991304 8.38678261,22.2594783 15.3029565,22.2594783 C22.2191304,22.2594783 27.8246957,17.8991304 27.8246957,12.5203478 C27.8246957,7.14156522 22.2191304,2.78121739 15.3029565,2.78121739 L15.3029565,2.78121739 Z M20.8681739,13.9116522 L9.73773913,13.9116522 C8.96973913,13.9116522 8.34643478,13.2883478 8.34643478,12.5203478 C8.34643478,11.7523478 8.96973913,11.1290435 9.73773913,11.1290435 L20.8681739,11.1290435 C21.6361739,11.1290435 22.2594783,11.7523478 22.2594783,12.5203478 C22.2594783,13.2883478 21.6361739,13.9116522 20.8681739,13.9116522 L20.8681739,13.9116522 Z M18.0855652,9.73773913 L9.73773913,9.73773913 C8.96973913,9.73773913 8.34643478,9.11443478 8.34643478,8.34643478 C8.34643478,7.57843478 8.96973913,6.95513043 9.73773913,6.95513043 L18.0855652,6.95513043 C18.8535652,6.95513043 19.4768696,7.57843478 19.4768696,8.34643478 C19.4768696,9.11443478 18.8535652,9.73773913 18.0855652,9.73773913 L18.0855652,9.73773913 Z M9.73773913,15.3029565 L15.3029565,15.3029565 C16.0709565,15.3029565 16.6942609,15.9262609 16.6942609,16.6942609 C16.6942609,17.4622609 16.0709565,18.0855652 15.3029565,18.0855652 L9.73773913,18.0855652 C8.96973913,18.0855652 8.34643478,17.4622609 8.34643478,16.6942609 C8.34643478,15.9262609 8.96973913,15.3029565 9.73773913,15.3029565 L9.73773913,15.3029565 Z" id="Shape"></path>
                    </g>
                </g>
            </g>
        </g>
    </g>
</svg>