<?xml version="1.0" encoding="UTF-8" standalone="no"?>
<svg width="62px" height="62px" viewBox="0 0 62 62" version="1.1" xmlns="http://www.w3.org/2000/svg" xmlns:xlink="http://www.w3.org/1999/xlink">
    <!-- Generator: Sketch 39.1 (31720) - http://www.bohemiancoding.com/sketch -->
    <title>益智游戏</title>
    <desc>Created with Sketch.</desc>
    <defs></defs>
    <g id="Page-1" stroke="none" stroke-width="1" fill="none" fill-rule="evenodd">
        <g id="角色属性-copy" transform="translate(-268.000000, -1767.000000)">
            <g id="益智游戏" transform="translate(268.000000, 1767.000000)">
                <circle id="Oval-Copy-24" fill="#F5718A" cx="31" cy="31" r="31"></circle>
                <g id="noun_566672_cc" transform="translate(16.000000, 14.000000)" fill="#FFFFFF">
                    <g id="Group">
                        <path d="M28.7544797,24.0107811 C27.1109558,24.0107811 25.2709758,22.4135762 23.962865,22.4135762 C23.9325181,22.411979 23.8957824,22.411979 23.8590467,22.411979 C22.1516346,22.411979 20.766858,23.7967557 20.766858,25.5041677 C20.766858,25.5409034 20.766858,25.5776391 20.7684552,25.6127776 C20.8850512,27.4032443 21.4648365,29.0435737 22.388021,30.4363364 L1.60199651,30.3996007 C0.702770152,29.0435737 0.122984777,27.4032443 0.00638881957,25.6367357 L0.00479161467,25.607986 C0.00319440978,25.5776391 0.00319440978,25.5409034 0.00319440978,25.5041677 C0.00319440978,23.7967557 1.38797105,22.411979 3.09538308,22.411979 C3.13211879,22.411979 3.1688545,22.411979 3.20399301,22.4135762 C4.5073122,22.4135762 6.34729224,24.0107811 7.99081607,24.0107811 C8.15053656,24.0443224 8.33421512,24.0634889 8.5226853,24.0634889 C10.0224607,24.0634889 11.2379336,22.848016 11.2379336,21.3482406 C11.2379336,21.1597704 11.2187672,20.9760918 11.1820314,20.7988021 C11.1932119,20.7237335 11.1980035,20.6151235 11.1980035,20.5065136 C11.1980035,18.5355628 9.5992014,16.9367607 7.62825056,16.9367607 C7.47491889,16.9367607 7.32318443,16.9463439 7.17464437,16.9655104 C5.8441727,16.9639132 4.55363115,19.2191665 3.1992014,19.2191665 C3.14968805,19.2223609 3.09218867,19.2239581 3.03468929,19.2239581 C1.35922136,19.2239581 0,17.8647367 0,16.1892688 C0,16.1317694 0.00159720489,16.07427 0.00479161467,16.0167707 L0.00479161467,16.0247567 C0.00479161467,11.233142 1.60199651,9.63593711 1.60199651,9.63593711 C3.46753182,10.4265535 5.63174445,10.9919641 7.89338657,11.225156 L7.99081607,11.233142 C8.04032942,11.2363364 8.0978288,11.2379336 8.15532818,11.2379336 C9.83079611,11.2379336 11.1900175,9.87871225 11.1900175,8.20324432 C11.1900175,8.14574495 11.1884203,8.08824557 11.1852259,8.03074619 C11.1852259,6.68430247 8.92997255,5.39376092 8.92997255,4.04571999 C8.91240329,3.91474919 8.90282006,3.76301472 8.90282006,3.60968305 C8.90282006,1.63873222 10.5016222,0.0399301223 12.472573,0.0399301223 C12.5811829,0.0399301223 12.6897929,0.044721737 12.7952084,0.0543049663 L12.7808335,0.0527077614 C12.940554,0.0191664587 13.1242326,0 13.3127028,0 C14.8124782,0 16.0279511,1.21547292 16.0279511,2.71524832 C16.0279511,2.90371849 16.0087846,3.08739706 15.9720489,3.2646868 C15.9752433,4.89064138 14.3780384,6.73062141 14.3780384,8.03873222 C14.3764412,8.06907911 14.3764412,8.10581482 14.3764412,8.14255054 C14.3764412,9.84996257 15.7612179,11.2347392 17.4686299,11.2347392 C17.5053656,11.2347392 17.5421013,11.2347392 17.5772398,11.233142 L17.5724482,11.233142 C19.3677065,11.1149488 21.0080359,10.5351635 22.4007986,9.61357624 L22.3640629,9.63593711 C21.5734465,11.5014724 21.0080359,13.6656851 20.774844,15.9273272 C20.7636636,16.07427 20.7620664,16.1317694 20.7620664,16.1892688 C20.7620664,17.8647367 22.1212877,19.2239581 23.7967557,19.2239581 C23.8542551,19.2239581 23.9117544,19.2223609 23.9692538,19.2191665 C25.3156975,19.2191665 26.6062391,16.9639132 27.95428,16.9639132 C28.0852508,16.9463439 28.2369853,16.9367607 28.3903169,16.9367607 C30.3612678,16.9367607 31.9600699,18.5355628 31.9600699,20.5065136 C31.9600699,20.6151235 31.9552783,20.7237335 31.945695,20.829149 C31.9808335,20.9744946 32,21.1597704 32,21.3466434 C32,22.8464188 30.7845271,24.0618917 29.2847517,24.0618917 C29.0962815,24.0618917 28.9126029,24.0427252 28.7353132,24.0059895 L28.7544797,24.0107811 Z" id="Shape"></path>
                    </g>
                </g>
            </g>
        </g>
    </g>
</svg>