<?xml version="1.0" encoding="UTF-8" standalone="no"?>
<svg width="65px" height="65px" viewBox="0 0 65 65" version="1.1" xmlns="http://www.w3.org/2000/svg" xmlns:xlink="http://www.w3.org/1999/xlink">
    <!-- Generator: Sketch 39.1 (31720) - http://www.bohemiancoding.com/sketch -->
    <title>Group 21</title>
    <desc>Created with Sketch.</desc>
    <defs></defs>
    <g id="Page-1" stroke="none" stroke-width="1" fill="none" fill-rule="evenodd">
        <g id="角色属性-copy" transform="translate(-261.000000, -1297.000000)">
            <g id="Group-21" transform="translate(261.000000, 1297.000000)">
                <rect id="Rectangle-Copy-20" fill="#F6B341" x="0" y="0" width="65" height="65"></rect>
                <g id="通用闲聊" transform="translate(3.000000, 3.000000)">
                    <circle id="Oval-Copy-22" fill="#F6B341" cx="31" cy="31" r="31"></circle>
                    <g id="noun_610862_cc" transform="translate(15.000000, 17.000000)" fill="#FFFFFF">
                        <g id="Group">
                            <path d="M15.9995455,26.1813636 L15.9602727,26.1813636 C13.4191818,26.1813636 10.9959091,25.6780909 8.78354545,24.7675455 C7.25190909,26.1900909 5.22718182,27.1820909 3.00463636,27.6228182 C4.193,26.417 5.137,24.8635455 5.61409091,23.1166364 C2.31809091,20.897 0.126090909,17.2635455 0.001,13.1093636 C0.001,5.86136364 7.16463636,0.001 16.001,0.001 C24.8373636,0.001 32.001,5.86136364 32.001,13.0919091 C32.001,20.3224545 24.8373636,26.1828182 16.001,26.1828182 L15.9995455,26.1813636 Z M15.9995455,2.90863636 C8.769,2.90863636 2.90863636,7.46718182 2.90863636,13.0904545 C2.90863636,18.7137273 8.769,23.2722727 15.9995455,23.2722727 C23.2300909,23.2722727 29.0904545,18.7137273 29.0904545,13.0904545 C29.0904545,7.46718182 23.2300909,2.90863636 15.9995455,2.90863636 L15.9995455,2.90863636 Z M23.2722727,15.2722727 C22.0679091,15.2722727 21.0904545,14.2948182 21.0904545,13.0904545 C21.0904545,11.8860909 22.0679091,10.9086364 23.2722727,10.9086364 C24.4766364,10.9086364 25.4540909,11.8860909 25.4540909,13.0904545 C25.4540909,14.2948182 24.4766364,15.2722727 23.2722727,15.2722727 L23.2722727,15.2722727 Z M15.9995455,15.2722727 C14.7951818,15.2722727 13.8177273,14.2948182 13.8177273,13.0904545 C13.8177273,11.8860909 14.7951818,10.9086364 15.9995455,10.9086364 C17.2039091,10.9086364 18.1813636,11.8860909 18.1813636,13.0904545 C18.1813636,14.2948182 17.2039091,15.2722727 15.9995455,15.2722727 L15.9995455,15.2722727 Z M8.72681818,15.2722727 C7.52245455,15.2722727 6.545,14.2948182 6.545,13.0904545 C6.545,11.8860909 7.52245455,10.9086364 8.72681818,10.9086364 C9.93118182,10.9086364 10.9086364,11.8860909 10.9086364,13.0904545 C10.9086364,14.2948182 9.93118182,15.2722727 8.72681818,15.2722727 L8.72681818,15.2722727 Z" id="Shape"></path>
                        </g>
                    </g>
                </g>
            </g>
        </g>
    </g>
</svg>