<?xml version="1.0" encoding="UTF-8"?>
<svg width="65px" height="65px" viewBox="0 0 65 65" version="1.1" xmlns="http://www.w3.org/2000/svg" xmlns:xlink="http://www.w3.org/1999/xlink">
    <!-- Generator: Sketch 41 (35326) - http://www.bohemiancoding.com/sketch -->
    <title>动脑猜猜</title>
    <desc>Created with Sketch.</desc>
    <defs></defs>
    <g id="Page-1" stroke="none" stroke-width="1" fill="none" fill-rule="evenodd">
        <g id="角色属性-copy" transform="translate(-262.000000, -1806.000000)">
            <g id="动脑猜猜" transform="translate(262.000000, 1806.000000)">
                <circle id="Oval-Copy-22" fill="#F6B341" cx="32" cy="31" r="31"></circle>
                <rect id="Rectangle-Copy-19" fill="#F6B341" x="0" y="0" width="65" height="65"></rect>
                <g id="noun_247517_cc" transform="translate(18.000000, 11.000000)" fill="#FFFFFF">
                    <g id="Group">
                        <path d="M26.0918859,5.3060074 C25.8979579,4.83399406 25.6244463,4.4109201 25.2704363,4.03587074 C24.9168837,3.66493778 24.5079884,3.37038682 24.0446652,3.15130311 C23.5685355,2.92810301 23.06725,2.80186689 22.5408088,2.77213736 C22.4648842,2.7634472 22.3912464,2.7593308 22.3198956,2.7593308 L22.3075464,2.7593308 C22.2188152,2.7634472 22.1515807,2.76573408 22.1053856,2.76573408 C21.5702542,2.79500623 21.0630229,2.92169973 20.5827767,3.14489983 C20.1189962,3.36398354 19.7110157,3.65899188 19.3565483,4.02946746 C18.9988793,4.40405944 18.7249103,4.82987767 18.5350987,5.3060074 L18.5350987,5.29960412 C18.3333954,5.79219943 18.2318576,6.30857836 18.2318576,6.84736878 C18.2277412,7.40765592 18.3773036,7.98257914 18.6805447,8.57213844 C18.8365103,8.87949596 19.0322678,9.18273708 19.2678171,9.48186181 C19.398627,9.64606025 19.5399566,9.81025869 19.6913484,9.9749145 C19.7000386,9.9790309 19.7059845,9.98543418 19.7105583,9.99412435 C19.8537174,10.1285933 19.9525109,10.2594032 20.0069388,10.3856393 C20.0362109,10.4487573 20.0554207,10.5269689 20.0641109,10.6193591 C20.0764601,10.7204394 20.0828634,10.8425592 20.0828634,10.9857183 L20.0828634,11.2702069 C20.0828634,11.4385217 20.1144224,11.6008907 20.1775405,11.7563989 C20.2411159,11.9036744 20.3293897,12.0344843 20.4428193,12.1479139 L20.4496799,12.1479139 C20.5631095,12.2618008 20.6916325,12.3500746 20.835249,12.4131927 L20.8416523,12.4131927 C20.9930441,12.4804271 21.1535836,12.5142731 21.3218984,12.5142731 L23.2995977,12.5142731 C23.4679125,12.5142731 23.6279945,12.4804271 23.7798438,12.4131927 C23.9271193,12.3500746 24.0574718,12.2618008 24.1713587,12.1479139 C24.2847883,12.0340269 24.3730621,11.9036744 24.4366375,11.7563989 C24.503872,11.6004333 24.5377179,11.4385217 24.5377179,11.2702069 L24.5377179,10.9857183 C24.5377179,10.8425592 24.5441212,10.7199821 24.5569278,10.6193591 C24.5651606,10.5265115 24.5820835,10.4464705 24.6072393,10.379236 C24.6365114,10.3161179 24.6785901,10.250713 24.7334754,10.1834785 L24.7334754,10.1775326 C24.7837869,10.1144146 24.8427886,10.0512965 24.9104804,9.98772106 C24.9145968,9.98360467 24.9191706,9.97948827 24.9228296,9.97537188 C25.0787952,9.81117344 25.2219543,9.646975 25.3523068,9.48231919 C25.5883135,9.18319446 25.784071,8.87995333 25.9400366,8.57259581 C26.2432777,7.98257914 26.3923827,7.4081133 26.3882663,6.84782615 C26.3887237,6.31269476 26.2899302,5.79860271 26.0918859,5.3060074 Z M31.5950491,9.91819972 C31.5950491,11.784299 31.1193767,13.4523538 30.1671173,14.9223644 C29.7925253,15.5036909 29.3438382,16.0534583 28.8215134,16.5712094 C26.9892601,18.4162693 24.7732672,19.3387992 22.174907,19.3387992 C20.4222373,19.3387992 18.8383398,18.9193843 17.4232146,18.0814691 C17.3559801,18.1615101 17.2713653,18.2246282 17.170285,18.2708233 L12.7913551,20.349603 C12.6523124,20.4131784 12.5068664,20.4319309 12.3554745,20.4067751 C12.2036253,20.381162 12.0732728,20.3139275 11.9639596,20.2046144 C11.854189,20.0953012 11.7869546,19.9644913 11.7617988,19.8130994 C11.7366431,19.6612502 11.7553956,19.5162616 11.818971,19.3772189 L13.8977507,14.9603267 C13.935713,14.8761693 13.9883114,14.8048184 14.0560032,14.7453594 C13.1883585,13.3174275 12.7543075,11.7083743 12.7543075,9.91819972 C12.7543075,7.30657555 13.6704342,5.0846368 15.5026875,3.25238349 C15.6458466,3.10922441 15.7935794,2.97018172 15.9449713,2.83525543 C16.5432207,2.30424042 17.1771456,1.86607301 17.8467459,1.52075317 C19.152558,0.838346295 20.5955833,0.497142857 22.1753644,0.497142857 C24.774182,0.497142857 26.9897174,1.41509902 28.8219707,3.25192611 C30.5659502,4.98309905 31.4884802,7.0600492 31.5895606,9.48186181 C31.5932196,9.62547827 31.5950491,9.77092424 31.5950491,9.91819972 Z M23.3435059,5.06588434 C23.1495779,4.97761053 22.9474172,4.92684165 22.7365663,4.91403509 C22.6062137,4.90534492 22.4987301,4.85274653 22.4145727,4.75578255 C22.3299579,4.66339235 22.2906234,4.55133492 22.2942824,4.4209824 C22.3029726,4.29474627 22.355571,4.1895495 22.452535,4.10493471 C22.549499,4.02077729 22.661099,3.98098547 22.7873351,3.98510186 C23.1203058,4.00614122 23.438183,4.08846913 23.7414241,4.23162821 C24.0318587,4.3665545 24.2889047,4.55179229 24.5125622,4.78779896 C24.7316459,5.02380563 24.9022476,5.29137133 25.02391,5.59003868 C25.1501461,5.8973962 25.2137215,6.21984717 25.2137215,6.55693421 C25.2137215,6.68317034 25.167069,6.79294088 25.0746788,6.88533109 C24.986405,6.9736049 24.878464,7.0179705 24.7522279,7.0179705 C24.6218753,7.0179705 24.5125622,6.9736049 24.423831,6.88533109 C24.3309834,6.7924835 24.2843309,6.68317034 24.2843309,6.55693421 C24.2843309,6.3419669 24.2445391,6.13568976 24.1644981,5.9376454 C24.0885735,5.74783384 23.9792603,5.57723212 23.8356438,5.42584024 C23.6920274,5.27444837 23.5282863,5.15415815 23.3435059,5.06588434 Z M25.0810821,7.80786103 C25.0810821,7.94690372 25.0303132,8.06673656 24.9292329,8.16781693 C24.8322689,8.26478091 24.7119787,8.3132629 24.569277,8.3132629 C24.4302343,8.3132629 24.3122309,8.26478091 24.2157243,8.16781693 C24.1141866,8.06673656 24.0638751,7.94690372 24.0638751,7.80786103 C24.0638751,7.66881834 24.1141866,7.54852812 24.2157243,7.44744775 C24.3126883,7.35048377 24.4306916,7.30200178 24.569277,7.30200178 C24.712436,7.30200178 24.8322689,7.35048377 24.9292329,7.44744775 C25.0303132,7.5489855 25.0810821,7.66881834 25.0810821,7.80786103 Z M2.78942907,17.1022244 C3.6698803,16.2304633 4.72916604,15.7945828 5.96774367,15.7945828 C7.2063213,15.7945828 8.26149064,16.2304633 9.13325171,17.1022244 C10.0137029,17.9785592 10.4536999,19.037845 10.4536999,20.280539 C10.4536999,21.5186592 10.0137029,22.574286 9.13325171,23.446047 C8.26149064,24.3264983 7.2063213,24.7664952 5.96774367,24.7664952 C4.72916604,24.7664952 3.6698803,24.3264983 2.78942907,23.446047 C1.917668,22.574286 1.48178747,21.5186592 1.48178747,20.280539 C1.4813301,19.037845 1.91721063,17.9785592 2.78942907,17.1022244 Z M1.31072838,26.8644847 C2.03933036,26.1399991 2.91566519,25.7777563 3.93927551,25.7777563 L7.93903967,25.7777563 C8.30128246,25.7777563 8.64431541,25.8239514 8.96859589,25.916799 C9.1414845,25.9460711 9.31391572,25.9991269 9.48680433,26.0750515 L14.6048559,28.3116264 L17.1387259,22.6817696 C17.3829654,22.1384054 17.7831705,21.7615266 18.3393413,21.5506756 C18.895512,21.3357083 19.447109,21.3503444 19.9945896,21.5950412 C20.5379538,21.8392807 20.9171195,22.2394858 21.1316294,22.7956566 C21.3424804,23.3518273 21.3255574,23.9057112 21.0813179,24.4573082 L17.6884934,32.007692 C17.1579358,33.0898466 16.2816009,33.513378 15.0599463,33.2773713 C14.453464,33.1932139 13.7541342,32.9805335 12.9624142,32.6388726 C12.7140583,32.5341332 12.4844549,32.4348824 12.273604,32.3424922 L12.273604,37.0685714 L0.224,37.0685714 L0.224,29.4930318 C0.224,28.4694215 0.586242792,27.5930867 1.31072838,26.8644847 Z M23.4825486,13.058552 L21.175995,13.058552 C20.9825245,13.058552 20.818326,13.1280734 20.6833997,13.267116 C20.544357,13.4020423 20.4748357,13.5639539 20.4748357,13.7533081 C20.4748357,13.947236 20.5420702,14.1114345 20.6769964,14.2463608 L20.6833997,14.252764 C20.818326,14.387233 20.9825245,14.4549248 21.175995,14.4549248 L23.4825486,14.4549248 C23.6764765,14.4549248 23.8402176,14.3876903 23.9751439,14.252764 C24.1100702,14.1137214 24.1773046,13.947236 24.1773046,13.7533081 C24.1773046,13.5639539 24.1100702,13.401585 23.9751439,13.267116 L23.9751439,13.2607128 C23.8361012,13.1257865 23.6719028,13.058552 23.4825486,13.058552 Z M20.9925868,15.1560841 L20.9861835,15.1560841 C20.8512572,15.2910104 20.7840227,15.4552089 20.7840227,15.6491368 C20.7840227,15.8430648 20.8535441,16.0072632 20.9925868,16.1421895 C21.1275131,16.2771158 21.2917115,16.3443503 21.4856394,16.3443503 L23.147291,16.3443503 C23.3366452,16.3443503 23.4990142,16.2771158 23.6334831,16.1421895 L23.6398864,16.1421895 C23.7748126,16.0072632 23.8420471,15.8430648 23.8420471,15.6491368 C23.8420471,15.4556662 23.7748126,15.2910104 23.6398864,15.1560841 C23.5008437,15.0170414 23.3366452,14.9475201 23.147291,14.9475201 L21.4856394,14.9475201 C21.2921689,14.9479775 21.1275131,15.0174988 20.9925868,15.1560841 Z" id="Shape"></path>
                    </g>
                </g>
            </g>
        </g>
    </g>
</svg>