<?xml version="1.0" encoding="UTF-8" standalone="no"?>
<svg width="65px" height="65px" viewBox="0 0 65 65" version="1.1" xmlns="http://www.w3.org/2000/svg" xmlns:xlink="http://www.w3.org/1999/xlink">
    <!-- Generator: Sketch 39.1 (31720) - http://www.bohemiancoding.com/sketch -->
    <title>Group 2</title>
    <desc>Created with Sketch.</desc>
    <defs></defs>
    <g id="Page-1" stroke="none" stroke-width="1" fill="none" fill-rule="evenodd">
        <g id="角色属性-copy" transform="translate(-778.000000, -212.000000)">
            <g id="Group-2" transform="translate(778.000000, 212.000000)">
                <rect id="Rectangle" fill="#F5718A" x="0" y="0" width="65" height="65"></rect>
                <g id="角色助理属性" transform="translate(1.000000, 1.000000)">
                    <circle id="Oval-Copy" fill="#F5718A" cx="31" cy="31" r="31"></circle>
                    <g id="noun_595958_cc" transform="translate(15.000000, 21.000000)" fill="#FFFFFF">
                        <g id="Group">
                            <path d="M27.6363636,20.3636364 L4.36363636,20.3636364 C1.95345455,20.3636364 0,18.4101818 0,16 L0,4.36363636 C0,1.95345455 1.95345455,0 4.36363636,0 L27.6363636,0 C30.0465455,0 32,1.95345455 32,4.36363636 L32,16 C32,18.4101818 30.0465455,20.3636364 27.6363636,20.3636364 L27.6363636,20.3636364 Z M29.0909091,4.36363636 C29.0909091,3.56072727 28.4392727,2.90909091 27.6363636,2.90909091 L4.36363636,2.90909091 C3.56072727,2.90909091 2.90909091,3.56072727 2.90909091,4.36363636 L2.90909091,16 C2.90909091,16.8029091 3.56072727,17.4545455 4.36363636,17.4545455 L27.6363636,17.4545455 C28.4392727,17.4545455 29.0909091,16.8029091 29.0909091,16 L29.0909091,4.36363636 L29.0909091,4.36363636 Z M24.7272727,8.72727273 L18.9090909,8.72727273 C18.1061818,8.72727273 17.4545455,8.07563636 17.4545455,7.27272727 C17.4545455,6.46981818 18.1061818,5.81818182 18.9090909,5.81818182 L24.7272727,5.81818182 C25.5301818,5.81818182 26.1818182,6.46981818 26.1818182,7.27272727 C26.1818182,8.07563636 25.5301818,8.72727273 24.7272727,8.72727273 L24.7272727,8.72727273 Z M13.8036364,13.8181818 C13.3236364,13.5272727 11.9418182,12.6996364 11.04,12.1556364 L10.8654545,11.4283636 C11.2014545,11.2029091 11.4341818,10.8465455 11.4894545,10.4334545 L11.6218182,9.20290909 C11.664,9.07054545 11.6887273,8.91781818 11.6887273,8.75927273 C11.6887273,7.92727273 11.0138182,7.25236364 10.1818182,7.25236364 C9.34981818,7.25236364 8.67490909,7.92727273 8.67490909,8.75927273 C8.67490909,8.91781818 8.69963636,9.07054545 8.74472727,9.21454545 L8.87272727,10.4276364 C8.92945455,10.848 9.16218182,11.2043636 9.49236364,11.4269091 L9.32363636,12.1570909 C8.42181818,12.7025455 7.02545455,13.5345455 6.57454545,13.8094545 C6.25454545,13.984 5.99709091,14.2370909 5.82254545,14.544 L5.81818182,5.82545455 L14.5454545,5.82545455 L14.5454545,14.5527273 C14.3709091,14.2414545 14.1178182,13.9912727 13.8138182,13.824 L13.8036364,13.8181818 Z M18.9090909,10.1818182 L21.8181818,10.1818182 C22.6210909,10.1818182 23.2727273,10.8334545 23.2727273,11.6363636 C23.2727273,12.4392727 22.6210909,13.0909091 21.8181818,13.0909091 L18.9090909,13.0909091 C18.1061818,13.0909091 17.4545455,12.4392727 17.4545455,11.6363636 C17.4545455,10.8334545 18.1061818,10.1818182 18.9090909,10.1818182 L18.9090909,10.1818182 Z" id="Shape"></path>
                        </g>
                    </g>
                </g>
            </g>
        </g>
    </g>
</svg>