<?xml version="1.0" encoding="UTF-8" standalone="no"?>
<svg width="65px" height="65px" viewBox="0 0 65 65" version="1.1" xmlns="http://www.w3.org/2000/svg" xmlns:xlink="http://www.w3.org/1999/xlink">
    <!-- Generator: Sketch 39.1 (31720) - http://www.bohemiancoding.com/sketch -->
    <title>Group 19</title>
    <desc>Created with Sketch.</desc>
    <defs></defs>
    <g id="Page-1" stroke="none" stroke-width="1" fill="none" fill-rule="evenodd">
        <g id="角色属性-copy" transform="translate(-264.000000, -1188.000000)">
            <g id="Group-19" transform="translate(264.000000, 1188.000000)">
                <rect id="Rectangle-Copy-19" fill="#AAD16B" x="0" y="0" width="65" height="65"></rect>
                <g id="百科知识" transform="translate(0.000000, 3.000000)">
                    <circle id="Oval-Copy-20" fill="#AAD16B" cx="31" cy="31" r="31"></circle>
                    <g id="noun_595968_cc" transform="translate(15.000000, 14.000000)" fill="#FFFFFF">
                        <g id="Group">
                            <path d="M0,33.5984 L0,27.1984 C0,23.5888 1.0032,20.2128 2.7456,17.3344 C2.0224,16.6016 1.6112,15.5424 1.6112,14.3888 C1.6112,11.752 3.7488,9.6144 6.3856,9.6144 C7.5408,9.6144 8.6,10.024 9.4256,10.7072 C12.2112,9.0048 15.5888,8.0016 19.2,8 L19.2,3.2 L22.4,3.2 L22.4,0 L27.2,0 L27.2,3.2 L30.4,3.2 L30.4,17.6 L32,17.6 L32,20.8 L27.2,20.8 L27.2,24 L22.4,24 L22.4,20.8 L17.6,20.8 L17.6,17.6 L19.2,17.6 L19.2,11.2 C16.2112,11.2 13.416,12.0256 11.0272,13.4592 C11.1632,13.7136 11.2,14.0528 11.2,14.4 C11.2,17.0512 9.0512,19.2 6.4,19.2 C6.0528,19.2 5.7136,19.1632 5.3872,19.0928 C4.024,21.4144 3.2,24.2112 3.2,27.2 L3.2,30.4 L17.6,30.4 L17.6,27.2 L32,27.2 L32,33.6 L0,33.6 L0,33.5984 Z M22.4,17.5984 L27.2,17.5984 L27.2,6.3984 L22.4,6.3984 L22.4,17.5984 L22.4,17.5984 Z M6.4,15.9984 C7.2832,15.9984 8,15.2816 8,14.3984 C8,13.5152 7.2832,12.7984 6.4,12.7984 C5.5168,12.7984 4.8,13.5152 4.8,14.3984 C4.8,15.2816 5.5168,15.9984 6.4,15.9984 L6.4,15.9984 Z" id="Shape"></path>
                        </g>
                    </g>
                </g>
            </g>
        </g>
    </g>
</svg>