<?xml version="1.0" encoding="utf-8"?>
<!-- Generator: Adobe Illustrator 16.0.0, SVG Export Plug-In . SVG Version: 6.00 Build 0)  -->
<!DOCTYPE svg PUBLIC "-//W3C//DTD SVG 1.1//EN" "http://www.w3.org/Graphics/SVG/1.1/DTD/svg11.dtd">
<svg version="1.1" id="图层_1" xmlns="http://www.w3.org/2000/svg" xmlns:xlink="http://www.w3.org/1999/xlink" x="0px" y="0px"
	 width="17.125px" height="16px" viewBox="-0.535 -0.5 17.125 16" enable-background="new -0.535 -0.5 17.125 16"
	 xml:space="preserve">
<g>
	<g>
		<g>
			<path fill="#3794FF" d="M12.044,6.59H4.01c-0.295,0-0.534-0.239-0.534-0.534c0-0.294,0.239-0.533,0.534-0.533h8.034
				c0.294,0,0.533,0.239,0.533,0.533C12.577,6.351,12.338,6.59,12.044,6.59z"/>
		</g>
		<g>
			<path fill="#3794FF" d="M8.027,10.607c-0.294,0-0.533-0.241-0.533-0.533V2.04c0-0.294,0.239-0.533,0.533-0.533
				c0.295,0,0.533,0.239,0.533,0.533v8.035C8.56,10.366,8.323,10.607,8.027,10.607z"/>
		</g>
	</g>
	<g>
		<g>
			<path fill="#3794FF" d="M6.005,15.5c-0.088,0-0.178-0.022-0.258-0.066c-0.171-0.094-0.275-0.273-0.275-0.467v-2.353l-5.473-0.002
				c-0.294,0-0.533-0.239-0.533-0.533V0.033c0-0.294,0.239-0.533,0.533-0.533h16.059c0.295,0,0.533,0.239,0.533,0.533v12.046
				c0,0.294-0.238,0.533-0.533,0.533l-5.282,0.002l-4.488,2.804C6.2,15.473,6.103,15.5,6.005,15.5z M0.532,11.546l5.473,0.002
				c0.295,0,0.533,0.237,0.533,0.533v1.923l3.8-2.375c0.084-0.054,0.184-0.081,0.283-0.081l4.902-0.002V0.567H0.532V11.546z"/>
		</g>
	</g>
</g>
</svg>
