<?xml version="1.0" encoding="utf-8"?>
<!-- Generator: Adobe Illustrator 16.0.0, SVG Export Plug-In . SVG Version: 6.00 Build 0)  -->
<!DOCTYPE svg PUBLIC "-//W3C//DTD SVG 1.1//EN" "http://www.w3.org/Graphics/SVG/1.1/DTD/svg11.dtd">
<svg version="1.1" id="图层_1" xmlns="http://www.w3.org/2000/svg" xmlns:xlink="http://www.w3.org/1999/xlink" x="0px" y="0px"
	 width="70px" height="69.998px" viewBox="0 0 70 69.998" enable-background="new 0 0 70 69.998" xml:space="preserve">
<g>
	<g>
		<path fill="#FFFFFF" d="M46.091,69.979H17.07c-0.928,0-1.679-0.752-1.679-1.68V10.199c0-0.928,0.751-1.679,1.679-1.679h45.95
			c0.93,0,1.681,0.751,1.681,1.679v42.923c0,0.928-0.751,1.68-1.681,1.68c-0.928,0-1.679-0.752-1.679-1.68V11.878H18.75V66.62
			h27.341c0.929,0,1.681,0.752,1.681,1.68S47.02,69.979,46.091,69.979z"/>
	</g>
	<g>
		<path fill="#FFFFFF" d="M12.368,63.394H6.979c-0.928,0-1.679-0.75-1.679-1.68V1.698c0-0.928,0.751-1.679,1.679-1.679h41.63
			c0.929,0,1.68,0.751,1.68,1.679v3.778c0,0.928-0.751,1.679-1.68,1.679c-0.928,0-1.68-0.751-1.68-1.679V3.377H8.658v56.657h3.709
			c0.928,0,1.679,0.752,1.679,1.68C14.047,62.644,13.295,63.394,12.368,63.394z"/>
	</g>
	<g>
		<path fill="#FFFFFF" d="M46.786,69.979c-0.929,0-1.681-0.752-1.681-1.68V53.261c0-0.93,0.752-1.68,1.681-1.68H63.02
			c0.93,0,1.681,0.75,1.681,1.68c0,0.928-0.751,1.678-1.681,1.678H48.466V68.3C48.466,69.228,47.714,69.979,46.786,69.979z"/>
	</g>
	<g>
		<path fill="#FFFFFF" d="M46.786,69.979c-0.449,0-0.902-0.183-1.233-0.537c-0.63-0.68-0.587-1.742,0.092-2.377l16.234-15.039
			c0.682-0.627,1.741-0.594,2.374,0.092c0.63,0.678,0.588,1.742-0.092,2.375L47.928,69.532
			C47.604,69.831,47.195,69.979,46.786,69.979z"/>
	</g>
	<g>
		<path fill="#FFFFFF" d="M53.574,23.947H27.795c-0.929,0-1.679-0.751-1.679-1.679s0.75-1.679,1.679-1.679h25.779
			c0.929,0,1.68,0.751,1.68,1.679S54.503,23.947,53.574,23.947z"/>
	</g>
	<g>
		<path fill="#FFFFFF" d="M53.574,33.425H27.795c-0.929,0-1.679-0.751-1.679-1.68c0-0.928,0.75-1.679,1.679-1.679h25.779
			c0.929,0,1.68,0.751,1.68,1.679C55.254,32.674,54.503,33.425,53.574,33.425z"/>
	</g>
	<g>
		<path fill="#FFFFFF" d="M53.574,42.909H27.795c-0.929,0-1.679-0.75-1.679-1.68c0-0.928,0.75-1.678,1.679-1.678h25.779
			c0.929,0,1.68,0.75,1.68,1.678C55.254,42.159,54.503,42.909,53.574,42.909z"/>
	</g>
</g>
</svg>
