<?xml version="1.0" encoding="utf-8"?>
<!-- Generator: Adobe Illustrator 16.0.0, SVG Export Plug-In . SVG Version: 6.00 Build 0)  -->
<!DOCTYPE svg PUBLIC "-//W3C//DTD SVG 1.1//EN" "http://www.w3.org/Graphics/SVG/1.1/DTD/svg11.dtd">
<svg version="1.1" id="图层_1" xmlns="http://www.w3.org/2000/svg" xmlns:xlink="http://www.w3.org/1999/xlink" x="0px" y="0px"
	 width="95.899px" height="20px" viewBox="0 0 95.899 20" enable-background="new 0 0 95.899 20" xml:space="preserve">
<g>
	<g>
		<path fill="#2EA7E0" d="M29.731,8.287c0.18,0.013,0.363,0.024,0.549,0.036c0.186,0.013,0.39,0.021,0.612,0.027
			c0.222,0.006,0.471,0.009,0.747,0.009s0.588,0,0.936,0c0.732,0,1.335-0.009,1.809-0.027c0.474-0.018,0.921-0.038,1.341-0.062
			c-0.048,0.156-0.087,0.363-0.117,0.621c-0.03,0.258-0.057,0.525-0.081,0.801l-0.198,2.556c-0.024,0.36-0.075,0.657-0.153,0.892
			c-0.078,0.233-0.219,0.426-0.423,0.576c-0.204,0.149-0.489,0.267-0.855,0.351c-0.366,0.084-0.849,0.144-1.449,0.18
			c-0.012-0.239-0.054-0.471-0.126-0.692c-0.072-0.223-0.21-0.459-0.414-0.711c0.516,0.096,0.933,0.156,1.251,0.18
			c0.318,0.024,0.561-0.003,0.729-0.081s0.282-0.207,0.342-0.387c0.06-0.181,0.102-0.42,0.126-0.721l0.162-2.609h-3.906v6.912
			c0,0.288,0.045,0.498,0.135,0.63c0.09,0.132,0.303,0.21,0.639,0.233c0.12,0.013,0.273,0.021,0.459,0.027s0.387,0.009,0.603,0.009
			c0.216,0,0.426-0.003,0.63-0.009c0.204-0.006,0.384-0.015,0.54-0.027c0.42-0.035,0.762-0.08,1.026-0.135
			c0.264-0.054,0.471-0.155,0.621-0.306c0.15-0.15,0.258-0.366,0.324-0.648c0.066-0.281,0.111-0.662,0.135-1.143
			c0.167,0.192,0.354,0.333,0.558,0.423s0.426,0.147,0.666,0.171c-0.108,0.504-0.243,0.918-0.405,1.242s-0.363,0.588-0.603,0.792
			c-0.24,0.204-0.534,0.356-0.882,0.459c-0.348,0.102-0.762,0.171-1.242,0.207c-0.108,0.012-0.264,0.018-0.468,0.018
			c-0.205,0-0.426,0-0.666,0c-0.24,0-0.48-0.003-0.72-0.009c-0.24-0.006-0.45-0.015-0.63-0.026
			c-0.372-0.036-0.675-0.085-0.909-0.145c-0.234-0.061-0.414-0.156-0.54-0.288s-0.21-0.303-0.252-0.513s-0.063-0.483-0.063-0.819
			v-6.03c0-0.083,0-0.194,0-0.333c0-0.138-0.003-0.287-0.009-0.449c-0.006-0.162-0.012-0.321-0.018-0.478
			c-0.006-0.155-0.015-0.3-0.027-0.432c-0.204,0.276-0.417,0.552-0.639,0.828c-0.222,0.276-0.447,0.552-0.675,0.828
			c-0.18-0.204-0.36-0.36-0.54-0.469c-0.18-0.107-0.414-0.216-0.702-0.323c0.324-0.252,0.627-0.514,0.909-0.783
			c0.282-0.271,0.564-0.567,0.846-0.892c0.282-0.323,0.561-0.675,0.837-1.053s0.57-0.801,0.882-1.269
			c0.252-0.372,0.465-0.711,0.639-1.018c0.174-0.306,0.321-0.585,0.441-0.837s0.216-0.482,0.288-0.692
			c0.072-0.21,0.126-0.417,0.162-0.621c0.168,0.107,0.357,0.201,0.567,0.278c0.21,0.078,0.405,0.13,0.585,0.153
			c0.276,0.024,0.42,0.087,0.432,0.189c0.012,0.102-0.102,0.207-0.342,0.314c-0.108,0.061-0.219,0.145-0.333,0.252
			c-0.114,0.108-0.237,0.276-0.369,0.504c0.936,0.576,1.818,1.161,2.646,1.755c0.828,0.595,1.548,1.132,2.16,1.611L36.463,8.27
			c-0.288-0.288-0.588-0.573-0.9-0.855c-0.312-0.281-0.642-0.563-0.99-0.846c-0.348-0.281-0.726-0.573-1.134-0.873
			c-0.408-0.3-0.858-0.624-1.35-0.972c-0.276,0.504-0.615,1.062-1.017,1.674S30.223,7.64,29.731,8.287z M39.469,5.336
			c-0.132,0.084-0.198,0.246-0.198,0.485v5.454c0,0.18,0.003,0.391,0.009,0.63c0.006,0.24,0.015,0.489,0.027,0.747
			c0.012,0.259,0.024,0.517,0.036,0.774c0.012,0.258,0.03,0.495,0.054,0.711h-1.296c0.012-0.216,0.027-0.453,0.045-0.711
			s0.033-0.52,0.045-0.783c0.012-0.264,0.021-0.513,0.027-0.747s0.009-0.441,0.009-0.621V7.243c0-0.456-0.012-0.909-0.036-1.358
			c-0.024-0.45-0.06-0.795-0.108-1.035c0.24,0.06,0.468,0.102,0.684,0.126c0.216,0.024,0.42,0.03,0.612,0.018
			C39.535,4.97,39.622,5,39.64,5.083C39.658,5.168,39.601,5.252,39.469,5.336z M42.853,3.014c-0.156,0.084-0.234,0.246-0.234,0.485
			v13.087c0,0.348-0.036,0.63-0.108,0.846c-0.072,0.216-0.213,0.393-0.423,0.531c-0.21,0.138-0.507,0.242-0.891,0.314
			c-0.384,0.072-0.894,0.132-1.53,0.18c-0.036-0.323-0.105-0.594-0.207-0.81c-0.102-0.216-0.267-0.45-0.495-0.702
			c0.576,0.108,1.035,0.177,1.377,0.207c0.342,0.03,0.6,0.019,0.774-0.036c0.174-0.054,0.288-0.15,0.342-0.288
			c0.054-0.138,0.081-0.326,0.081-0.566V5.443c0-0.636-0.015-1.224-0.045-1.764c-0.03-0.54-0.063-0.937-0.099-1.188
			c0.444,0.12,0.882,0.162,1.314,0.126c0.168-0.012,0.267,0.033,0.297,0.136C43.036,2.854,42.985,2.941,42.853,3.014z"/>
		<path fill="#2EA7E0" d="M48.199,15.938c-0.288,0.48-0.627,0.918-1.017,1.314c-0.39,0.396-0.861,0.792-1.413,1.188
			c-0.108-0.204-0.246-0.363-0.414-0.477c-0.168-0.114-0.402-0.237-0.702-0.369c0.648-0.276,1.203-0.606,1.665-0.99
			s0.855-0.864,1.179-1.44c-0.276-0.335-0.573-0.749-0.891-1.241c-0.318-0.492-0.675-1.086-1.071-1.782l0.882-0.612
			c0.144,0.396,0.348,0.825,0.612,1.287c0.264,0.462,0.558,0.927,0.882,1.395c0.204-0.539,0.366-1.16,0.486-1.862
			c0.12-0.702,0.21-1.503,0.27-2.403h-1.314c-0.312,0-0.612,0.021-0.9,0.063c-0.288,0.042-0.552,0.104-0.792,0.188
			c-0.024-0.204-0.06-0.372-0.108-0.504s-0.114-0.258-0.198-0.378c0.348-0.144,0.627-0.324,0.837-0.54s0.417-0.51,0.621-0.882
			L48.235,5.3h-1.08c-0.204,0-0.477,0.009-0.819,0.026c-0.342,0.019-0.705,0.039-1.089,0.063V4.346
			c0.204,0.012,0.387,0.021,0.549,0.026c0.162,0.007,0.327,0.013,0.495,0.019c0.168,0.006,0.354,0.009,0.558,0.009
			c0.204,0,0.443,0,0.72,0c0.336,0,0.621,0,0.855,0s0.435-0.003,0.603-0.009s0.318-0.012,0.45-0.019
			c0.132-0.006,0.27-0.015,0.414-0.026l-2.628,4.698h1.674c0.204,0,0.378-0.01,0.522-0.027c0.144-0.019,0.276-0.045,0.396-0.081
			c-0.072,0.72-0.15,1.383-0.234,1.989c-0.084,0.605-0.174,1.161-0.27,1.665c-0.096,0.504-0.205,0.963-0.324,1.377
			c-0.12,0.414-0.258,0.801-0.414,1.161c0.432,0.468,0.975,0.857,1.629,1.17c0.654,0.312,1.485,0.54,2.493,0.684
			s2.214,0.204,3.618,0.18c1.404-0.023,3.066-0.126,4.986-0.306c-0.168,0.216-0.285,0.435-0.351,0.657
			c-0.066,0.222-0.105,0.446-0.117,0.675c-1.488,0.012-2.788,0.012-3.897,0c-1.11-0.012-2.079-0.045-2.907-0.099
			c-0.828-0.055-1.533-0.133-2.115-0.234c-0.582-0.103-1.095-0.24-1.539-0.414c-0.444-0.174-0.84-0.384-1.188-0.63
			C48.876,16.564,48.535,16.273,48.199,15.938z M54.571,9.224c-0.864,0-1.584,0.012-2.16,0.036c-0.576,0.023-1.032,0.06-1.368,0.107
			v-1.17c0.348,0.048,0.837,0.087,1.467,0.117s1.317,0.045,2.061,0.045V7.027h-2.16c-0.456,0-0.876,0.009-1.26,0.027
			c-0.384,0.018-0.762,0.051-1.134,0.099V6.092c0.384,0.036,0.768,0.062,1.152,0.081c0.384,0.018,0.804,0.026,1.26,0.026h2.142
			v-1.26c-0.84,0.012-1.542,0.027-2.106,0.045c-0.564,0.019-1.002,0.045-1.314,0.081V3.949c0.288,0.036,0.729,0.066,1.323,0.09
			c0.594,0.024,1.292,0.043,2.097,0.055c-0.012-0.433-0.03-0.822-0.054-1.17c-0.024-0.349-0.054-0.63-0.09-0.847
			c0.216,0.049,0.441,0.081,0.675,0.1c0.234,0.018,0.453,0.026,0.657,0.026c0.108,0,0.174,0.027,0.198,0.081
			c0.024,0.055-0.018,0.147-0.126,0.279c-0.061,0.084-0.102,0.159-0.126,0.225c-0.024,0.066-0.036,0.153-0.036,0.262v1.044
			c0.372,0,0.753-0.003,1.143-0.01c0.39-0.006,0.756-0.015,1.098-0.026c0.342-0.012,0.651-0.027,0.927-0.045
			c0.276-0.019,0.492-0.039,0.648-0.063c-0.048,0.252-0.081,0.562-0.099,0.928c-0.018,0.365-0.027,0.807-0.027,1.322
			c0.384,0,0.699-0.009,0.945-0.026c0.246-0.019,0.483-0.045,0.711-0.081v1.025c-0.228-0.048-0.465-0.074-0.711-0.081
			c-0.246-0.006-0.561-0.009-0.945-0.009c0,0.276,0,0.513,0,0.711s0.006,0.385,0.018,0.559c0.012,0.174,0.024,0.345,0.036,0.513
			c0.012,0.168,0.03,0.354,0.054,0.558c-0.18-0.023-0.405-0.045-0.675-0.062c-0.27-0.019-0.57-0.033-0.9-0.045
			c-0.331-0.012-0.684-0.021-1.062-0.027c-0.378-0.006-0.765-0.009-1.161-0.009v1.62c0.864,0,1.677-0.01,2.439-0.027
			c0.762-0.018,1.371-0.051,1.827-0.099v1.098c-0.457-0.048-1.065-0.081-1.827-0.099c-0.762-0.019-1.575-0.027-2.439-0.027v1.566
			c0.444,0,0.897-0.003,1.359-0.01c0.462-0.006,0.906-0.015,1.332-0.026c0.426-0.012,0.816-0.024,1.17-0.036s0.645-0.03,0.873-0.054
			v1.115c-0.216-0.012-0.501-0.026-0.855-0.045c-0.354-0.018-0.744-0.032-1.17-0.045c-0.426-0.012-0.873-0.021-1.341-0.026
			c-0.468-0.006-0.924-0.01-1.368-0.01c0.012,0.469,0.027,0.897,0.045,1.287c0.018,0.391,0.039,0.795,0.063,1.215h-1.314
			c0.024-0.384,0.045-0.776,0.063-1.179c0.018-0.401,0.033-0.843,0.045-1.323c-0.432,0-0.873,0.004-1.323,0.01
			c-0.45,0.006-0.879,0.015-1.287,0.026c-0.408,0.013-0.783,0.027-1.125,0.045c-0.342,0.019-0.621,0.033-0.837,0.045V13.13
			c0.216,0.023,0.495,0.042,0.837,0.054c0.342,0.012,0.717,0.024,1.125,0.036c0.408,0.012,0.837,0.021,1.287,0.026
			c0.45,0.007,0.891,0.01,1.323,0.01v-1.566c-0.804,0-1.563,0.012-2.277,0.036c-0.714,0.024-1.287,0.054-1.719,0.09v-1.098
			c0.42,0.036,0.987,0.065,1.701,0.09s1.479,0.036,2.295,0.036V9.224z M58.297,4.939h-2.628v1.26h2.628V4.939z M58.297,8.359V7.027
			h-2.628v1.332H58.297z"/>
		<path fill="#2EA7E0" d="M72.427,6.775c0.3-0.408,0.54-0.78,0.72-1.116c0.18-0.336,0.3-0.659,0.36-0.972h-4.95
			c-0.384,0-0.729,0.003-1.035,0.009c-0.306,0.007-0.609,0.016-0.909,0.027s-0.609,0.026-0.927,0.045
			c-0.318,0.018-0.681,0.039-1.089,0.062V3.823c0.36,0.024,0.747,0.045,1.161,0.063c0.414,0.018,0.864,0.03,1.35,0.036
			s1.017,0.012,1.593,0.018c0.576,0.006,1.212,0.009,1.908,0.009c-0.156-0.252-0.321-0.482-0.495-0.692s-0.417-0.471-0.729-0.783
			l0.9-0.594c0.336,0.42,0.606,0.786,0.81,1.098c0.204,0.312,0.402,0.636,0.594,0.972c0.636,0,1.215-0.003,1.737-0.009
			s1.008-0.012,1.458-0.018c0.45-0.006,0.873-0.019,1.269-0.036c0.396-0.019,0.786-0.039,1.17-0.063v1.008
			c-0.54-0.023-1.098-0.048-1.674-0.071c-0.576-0.024-1.236-0.042-1.98-0.055c0.204,0.133,0.387,0.237,0.549,0.315
			s0.333,0.135,0.513,0.171c0.108,0.024,0.159,0.069,0.153,0.135c-0.006,0.066-0.057,0.117-0.153,0.153
			c-0.18,0.072-0.354,0.201-0.522,0.387c-0.168,0.187-0.408,0.489-0.72,0.909c0.732,0,1.362-0.003,1.89-0.009
			c0.528-0.006,0.996-0.012,1.404-0.019c0.408-0.006,0.777-0.015,1.107-0.026s0.663-0.03,0.999-0.055v1.009
			c-0.336-0.024-0.699-0.045-1.089-0.063c-0.39-0.018-0.879-0.033-1.467-0.045c-0.588-0.012-1.305-0.021-2.151-0.027
			c-0.846-0.006-1.887-0.009-3.123-0.009c-1.272,0-2.346,0.003-3.222,0.009c-0.876,0.007-1.617,0.016-2.223,0.027
			s-1.107,0.027-1.503,0.045c-0.396,0.019-0.75,0.039-1.062,0.063V6.667c0.288,0.013,0.621,0.024,0.999,0.036
			c0.378,0.013,0.783,0.024,1.215,0.036c0.432,0.013,0.879,0.021,1.341,0.027c0.462,0.006,0.921,0.009,1.377,0.009
			c-0.132-0.24-0.279-0.459-0.441-0.657c-0.162-0.197-0.399-0.465-0.711-0.801l0.756-0.521c0.18,0.204,0.333,0.387,0.459,0.549
			s0.249,0.314,0.369,0.459c0.12,0.144,0.234,0.294,0.342,0.45c0.108,0.155,0.234,0.33,0.378,0.521H72.427z M66.307,14.516
			c-0.204,0.396-0.393,0.756-0.567,1.08s-0.342,0.627-0.504,0.909c-0.162,0.281-0.33,0.552-0.504,0.81
			c-0.174,0.258-0.363,0.519-0.567,0.783l-1.08-0.576c0.492-0.564,0.921-1.122,1.287-1.674c0.366-0.552,0.687-1.158,0.963-1.818
			L66.307,14.516z M76.315,13.346c-0.288-0.012-0.573-0.024-0.855-0.036c-0.282-0.012-0.618-0.024-1.008-0.036
			c-0.39-0.012-0.858-0.018-1.404-0.018c-0.546,0-1.227,0-2.043,0c-0.816,0-1.5,0-2.052,0c-0.552,0-1.026,0.006-1.422,0.018
			s-0.738,0.024-1.026,0.036s-0.57,0.024-0.846,0.036c0.048-0.108,0.087-0.273,0.117-0.495c0.03-0.222,0.045-0.447,0.045-0.675v-2.7
			c0-0.228-0.015-0.465-0.045-0.711c-0.03-0.246-0.069-0.423-0.117-0.531c0.276,0.024,0.558,0.039,0.846,0.045
			s0.63,0.016,1.026,0.027s0.87,0.018,1.422,0.018c0.552,0,1.235,0,2.052,0c0.864,0,1.572,0,2.124,0
			c0.552,0,1.017-0.006,1.395-0.018s0.699-0.021,0.963-0.027c0.264-0.006,0.54-0.021,0.828-0.045
			c-0.06,0.108-0.105,0.285-0.135,0.531s-0.045,0.483-0.045,0.711v2.7c0,0.228,0.015,0.453,0.045,0.675S76.255,13.237,76.315,13.346
			z M75.073,10.43V9.115h-8.226v1.314H75.073z M66.847,11.203v1.278h8.226v-1.278H66.847z M75.703,15.812
			c-0.12,0.504-0.234,0.903-0.342,1.197s-0.24,0.519-0.396,0.675c-0.156,0.155-0.348,0.264-0.576,0.324
			c-0.228,0.06-0.522,0.102-0.882,0.126c-0.876,0.06-1.677,0.09-2.403,0.09c-0.726,0-1.401-0.019-2.025-0.054
			c-0.396-0.024-0.705-0.061-0.927-0.108s-0.387-0.126-0.495-0.234c-0.108-0.107-0.177-0.255-0.207-0.44
			c-0.03-0.187-0.045-0.423-0.045-0.711v-1.692c0-0.288-0.006-0.504-0.018-0.647c-0.012-0.145-0.03-0.276-0.054-0.396
			c0.252,0.036,0.456,0.061,0.612,0.072c0.156,0.012,0.348,0.006,0.576-0.019c0.168-0.023,0.267,0.01,0.297,0.1
			c0.03,0.09-0.021,0.188-0.153,0.297c-0.096,0.096-0.159,0.188-0.189,0.279c-0.03,0.09-0.045,0.2-0.045,0.333v1.512
			c0,0.204,0.084,0.378,0.252,0.521c0.167,0.145,0.402,0.229,0.702,0.252c0.408,0.024,0.765,0.042,1.071,0.055
			c0.306,0.012,0.591,0.018,0.855,0.018c0.264,0,0.516-0.009,0.756-0.027c0.24-0.018,0.498-0.039,0.774-0.062
			c0.336-0.036,0.606-0.078,0.81-0.126s0.363-0.142,0.477-0.279c0.114-0.138,0.201-0.336,0.261-0.594s0.108-0.604,0.144-1.035
			c0.216,0.156,0.408,0.276,0.576,0.36S75.475,15.752,75.703,15.812z M72.013,16.262c-0.132-0.216-0.264-0.414-0.396-0.595
			c-0.132-0.18-0.27-0.351-0.414-0.513c-0.144-0.162-0.303-0.324-0.477-0.485c-0.174-0.162-0.369-0.333-0.585-0.514l0.738-0.666
			c0.444,0.42,0.816,0.783,1.116,1.089c0.3,0.307,0.612,0.646,0.936,1.018L72.013,16.262z M78.025,17.396
			c-0.348-0.517-0.738-1.017-1.17-1.503s-0.966-0.993-1.602-1.521l0.738-0.737c0.732,0.647,1.32,1.203,1.764,1.665
			c0.444,0.462,0.84,0.921,1.188,1.377L78.025,17.396z"/>
		<path fill="#2EA7E0" d="M83.245,18.386h-1.152c0.012-0.24,0.024-0.453,0.036-0.64c0.012-0.186,0.024-0.384,0.036-0.594
			c0.012-0.21,0.018-0.443,0.018-0.702c0-0.258,0-0.578,0-0.963V5.102c0-0.348-0.009-0.687-0.027-1.018
			c-0.018-0.329-0.039-0.698-0.063-1.106c0.168,0.012,0.366,0.024,0.594,0.036c0.228,0.012,0.582,0.021,1.062,0.026
			c0.479,0.007,1.134,0.01,1.962,0.01s1.926,0,3.294,0c1.332,0,2.409,0,3.231,0c0.822,0,1.473-0.003,1.953-0.01
			c0.479-0.006,0.837-0.015,1.071-0.026s0.435-0.024,0.603-0.036c-0.024,0.408-0.039,0.783-0.045,1.125
			c-0.006,0.342-0.009,0.675-0.009,0.999v10.296c0,0.516,0.009,1.008,0.027,1.476c0.018,0.469,0.039,0.942,0.063,1.423h-1.152V17.18
			H83.245V18.386z M94.747,3.985H83.245v12.312h11.502V3.985z M89.095,9.115c0.492-0.371,0.921-0.773,1.287-1.206
			c0.366-0.432,0.675-0.876,0.927-1.332h-4.212c-0.132,0.192-0.285,0.402-0.459,0.63c-0.174,0.229-0.363,0.459-0.567,0.693
			s-0.414,0.468-0.63,0.702s-0.432,0.447-0.648,0.639c-0.252-0.336-0.576-0.576-0.972-0.72c0.444-0.324,0.84-0.648,1.188-0.972
			c0.348-0.324,0.663-0.666,0.945-1.026c0.282-0.36,0.54-0.741,0.774-1.143c0.234-0.402,0.465-0.85,0.693-1.342
			c0.312,0.252,0.624,0.408,0.936,0.469c0.168,0.023,0.255,0.084,0.261,0.18c0.006,0.096-0.081,0.174-0.261,0.234
			c-0.18,0.048-0.438,0.336-0.774,0.863h2.178c0.756,0,1.404-0.015,1.944-0.045c0.54-0.029,0.983-0.074,1.332-0.135
			c-0.205,0.396-0.412,0.765-0.621,1.107c-0.21,0.342-0.438,0.675-0.684,0.999c-0.246,0.323-0.519,0.645-0.819,0.963
			c-0.3,0.317-0.642,0.645-1.026,0.98c0.636,0.372,1.335,0.666,2.097,0.882c0.762,0.217,1.617,0.396,2.565,0.54
			c-0.156,0.169-0.294,0.363-0.414,0.585c-0.12,0.223-0.21,0.436-0.27,0.64c-1.944-0.54-3.528-1.218-4.752-2.034
			c-0.3,0.204-0.648,0.414-1.044,0.63s-0.813,0.432-1.251,0.648c-0.438,0.216-0.888,0.42-1.35,0.611
			c-0.462,0.192-0.903,0.36-1.323,0.504c-0.132-0.432-0.39-0.804-0.774-1.115c0.384-0.072,0.789-0.168,1.215-0.288
			c0.426-0.12,0.852-0.258,1.278-0.414s0.849-0.333,1.269-0.531s0.81-0.411,1.17-0.639c-0.684-0.552-1.248-1.188-1.692-1.908
			l0.72-0.504C87.859,7.993,88.447,8.611,89.095,9.115z M91.165,15.865c-0.396-0.191-0.774-0.369-1.134-0.531
			c-0.36-0.161-0.726-0.312-1.098-0.449c-0.373-0.138-0.769-0.271-1.188-0.396c-0.42-0.126-0.9-0.261-1.44-0.405l0.468-1.008
			c0.684,0.204,1.464,0.469,2.34,0.792c0.876,0.324,1.752,0.679,2.628,1.062L91.165,15.865z M90.679,13.489
			c-0.504-0.312-0.993-0.582-1.467-0.81c-0.474-0.229-1.023-0.444-1.647-0.648l0.486-0.81c0.24,0.084,0.504,0.186,0.792,0.306
			s0.576,0.246,0.864,0.378c0.288,0.133,0.567,0.268,0.837,0.405s0.507,0.268,0.711,0.387L90.679,13.489z"/>
	</g>
</g>
<g>
	<g>
		<path fill="#2EA7E0" d="M19.092,10.908H0.909C0.407,10.908,0,10.502,0,9.998C0,9.496,0.407,9.09,0.909,9.09h18.183
			C19.594,9.09,20,9.496,20,9.998C20,10.501,19.594,10.908,19.092,10.908z"/>
	</g>
	<g>
		<path fill="#2EA7E0" d="M10,20c-0.502,0-0.908-0.406-0.908-0.908V0.908C9.092,0.406,9.498,0,10,0s0.908,0.406,0.908,0.908v18.184
			C10.908,19.594,10.502,20,10,20z"/>
	</g>
</g>
</svg>
