<?xml version="1.0" encoding="utf-8"?>
<!-- Generator: Adobe Illustrator 16.0.0, SVG Export Plug-In . SVG Version: 6.00 Build 0)  -->
<!DOCTYPE svg PUBLIC "-//W3C//DTD SVG 1.1//EN" "http://www.w3.org/Graphics/SVG/1.1/DTD/svg11.dtd">
<svg version="1.1" id="图层_1" xmlns="http://www.w3.org/2000/svg" xmlns:xlink="http://www.w3.org/1999/xlink" x="0px" y="0px"
	 width="80px" height="80px" viewBox="0 0 80 80" enable-background="new 0 0 80 80" xml:space="preserve">
<g>
	<circle fill="#B0BEC5" cx="40" cy="40" r="40"/>
	<g>
		<g>
			<g transform="scale(0.1953125, 0.1953125)">
				<path fill="#FFFFFF" d="M100.28,209.366v-64.04c0-2.545-2.03-4.575-4.54-4.575c-2.53,0-4.55,2.055-4.55,4.575v64.04
					c0,2.545,2.04,4.575,4.55,4.575C98.26,213.941,100.28,211.891,100.28,209.366z M327.511,159.045c-2.53,0-4.55,2.045-4.55,4.565
					v27.475c0,2.48,2.035,4.56,4.55,4.56c2.525,0,4.54-2.04,4.54-4.56V163.61C332.051,161.12,330.021,159.045,327.511,159.045z
					 M86.65,191.085V163.61c0-2.49-2.04-4.56-4.55-4.56c-2.52,0-4.54,2.04-4.54,4.56v27.475c0,2.48,2.035,4.56,4.54,4.56
					C84.63,195.646,86.65,193.605,86.65,191.085z M318.421,209.366v-64.04c0-2.545-2.04-4.575-4.55-4.575
					c-2.52,0-4.54,2.055-4.54,4.575v64.04c0,2.545,2.03,4.575,4.54,4.575C316.396,213.941,318.421,211.891,318.421,209.366z
					 M232.101,76.71h-54.59c-4.995,0-9.06,4.1-9.06,9.175v18.275h-54.51c-5.03,0-9.11,4.1-9.11,9.15v128.06
					c0,5.1,4.08,9.16,9.11,9.16h54.51v18.3h-54.36c-5,0-9.08,4.11-9.08,9.175v45.695c0,5.07,4.05,9.18,9.045,9.18h181.325
					c4.96,0,9.055-4.11,9.055-9.18v-45.695c0-5.075-4.075-9.175-9.085-9.175h-54.19v-18.3h54.515c5.025,0,9.105-4.09,9.105-9.16
					V113.31c0-5.08-4.07-9.15-9.105-9.15h-54.515V85.885C241.161,80.77,237.101,76.71,232.101,76.71z M177.54,85.85h54.535v18.31
					H177.54V85.85z"/>
			</g>
		</g>
		<rect x="31.125" y="43.368" fill="#E0E0E0" width="17.752" height="1.601"/>
		<ellipse fill="#E0E0E0" cx="48.877" cy="34.637" rx="5.325" ry="5.361"/>
		<ellipse fill="#E0E0E0" cx="31.125" cy="34.637" rx="5.326" ry="5.361"/>
	</g>
</g>
</svg>
