<?xml version="1.0" encoding="utf-8"?>
<!-- Generator: Adobe Illustrator 17.0.0, SVG Export Plug-In . SVG Version: 6.00 Build 0)  -->
<!DOCTYPE svg PUBLIC "-//W3C//DTD SVG 1.1//EN" "http://www.w3.org/Graphics/SVG/1.1/DTD/svg11.dtd">
<svg version="1.1" id="图层_1" xmlns="http://www.w3.org/2000/svg" xmlns:xlink="http://www.w3.org/1999/xlink" x="0px" y="0px"
	 width="70px" height="70px" viewBox="0 0 70 70" enable-background="new 0 0 70 70" xml:space="preserve">
<g>
	<g>
		<path fill="#FFFFFF" d="M54.994,64H14.996c-0.969,0-1.756-0.784-1.756-1.754V14.649c0-0.972,0.787-1.758,1.756-1.758h39.998
			c0.97,0,1.756,0.786,1.756,1.758v47.597C56.75,63.216,55.964,64,54.994,64z M16.753,60.487h36.485V16.403H16.753V60.487z"/>
	</g>
	<g>
		<path fill="#FFFFFF" d="M46.591,16.401H23.409c-0.97,0-1.756-0.785-1.756-1.756V7.757c0-0.97,0.786-1.757,1.756-1.757h23.182
			c0.97,0,1.756,0.787,1.756,1.757v6.889C48.347,15.616,47.561,16.401,46.591,16.401z M25.165,12.89h19.67V9.513h-19.67V12.89z"/>
	</g>
	<g>
		<path fill="#FFFFFF" d="M62.586,16.403H7.414c-0.97,0-1.756-0.787-1.756-1.758c0-0.97,0.786-1.754,1.756-1.754h55.172
			c0.97,0,1.756,0.784,1.756,1.754C64.342,15.616,63.556,16.403,62.586,16.403z"/>
	</g>
	<g>
		<path fill="#FFFFFF" d="M35,56.07c-0.971,0-1.756-0.79-1.756-1.758V22.565c0-0.969,0.785-1.759,1.756-1.759
			c0.971,0,1.756,0.79,1.756,1.759v31.747C36.756,55.28,35.971,56.07,35,56.07z"/>
	</g>
	<g>
		<path fill="#FFFFFF" d="M26.547,56.07c-0.971,0-1.757-0.79-1.757-1.758V22.565c0-0.969,0.786-1.759,1.757-1.759
			c0.969,0,1.756,0.79,1.756,1.759v31.747C28.303,55.28,27.516,56.07,26.547,56.07z"/>
	</g>
	<g>
		<path fill="#FFFFFF" d="M43.444,56.07c-0.97,0-1.756-0.79-1.756-1.758V22.565c0-0.969,0.786-1.759,1.756-1.759
			c0.971,0,1.756,0.79,1.756,1.759v31.747C45.2,55.28,44.415,56.07,43.444,56.07z"/>
	</g>
</g>
</svg>
