<?xml version="1.0" encoding="utf-8"?>
<!-- Generator: Adobe Illustrator 16.0.0, SVG Export Plug-In . SVG Version: 6.00 Build 0)  -->
<!DOCTYPE svg PUBLIC "-//W3C//DTD SVG 1.1//EN" "http://www.w3.org/Graphics/SVG/1.1/DTD/svg11.dtd">
<svg version="1.1" id="图层_1" xmlns="http://www.w3.org/2000/svg" xmlns:xlink="http://www.w3.org/1999/xlink" x="0px" y="0px"
	 width="17px" height="17px" viewBox="0 0 17 17" enable-background="new 0 0 17 17" xml:space="preserve">
<g>
	<g>
		<g>
			<g>
				<path fill="#54ADF7" d="M12.896,16.559H2.974c-1.344,0-2.438-1.094-2.438-2.438s1.094-2.438,2.438-2.438h9.922
					c0.295,0,0.533,0.236,0.533,0.533v3.809C13.429,16.318,13.19,16.559,12.896,16.559z M2.974,12.75
					c-0.756,0-1.371,0.615-1.371,1.371s0.615,1.371,1.371,1.371h9.389V12.75H2.974z"/>
			</g>
		</g>
		<g>
			<g>
				<path fill="#54ADF7" d="M1.069,3.529c-0.295,0-0.533-0.238-0.533-0.533c0-1.344,1.094-2.438,2.438-2.438
					c0.295,0,0.535,0.237,0.535,0.533c0,0.294-0.24,0.533-0.535,0.533c-0.756,0-1.371,0.615-1.371,1.371
					C1.603,3.291,1.364,3.529,1.069,3.529z"/>
			</g>
		</g>
		<g>
			<g>
				<path fill="#54ADF7" d="M1.071,14.654c-0.295,0-0.535-0.238-0.535-0.533V2.996c0-0.296,0.24-0.533,0.535-0.533
					c0.293,0,0.533,0.237,0.533,0.533v11.125C1.604,14.416,1.364,14.654,1.071,14.654z"/>
			</g>
		</g>
	</g>
	<g>
		<g>
			<path fill="#54ADF7" d="M9.575,1.558H3.138c-0.277,0-0.5-0.224-0.5-0.5s0.223-0.5,0.5-0.5h6.438c0.275,0,0.5,0.224,0.5,0.5
				S9.851,1.558,9.575,1.558z"/>
		</g>
	</g>
	<g>
		<g>
			<path fill="#54ADF7" d="M12.929,15.684c-0.275,0-0.5-0.225-0.5-0.5V9.429c0-0.276,0.225-0.5,0.5-0.5c0.277,0,0.5,0.224,0.5,0.5
				v5.754C13.429,15.459,13.206,15.684,12.929,15.684z"/>
		</g>
	</g>
	<g>
		<g>
			<path fill="#54ADF7" d="M12.964,7.443c-0.276,0-0.5-0.224-0.5-0.5V0.942c0-0.276,0.224-0.5,0.5-0.5s0.5,0.224,0.5,0.5v6.001
				C13.464,7.219,13.24,7.443,12.964,7.443z"/>
		</g>
		<g>
			<path fill="#54ADF7" d="M15.964,4.442h-6c-0.276,0-0.5-0.224-0.5-0.5s0.224-0.5,0.5-0.5h6c0.276,0,0.5,0.224,0.5,0.5
				S16.24,4.442,15.964,4.442z"/>
		</g>
	</g>
</g>
</svg>
