<?xml version="1.0" encoding="utf-8"?>
<!-- Generator: Adobe Illustrator 16.0.0, SVG Export Plug-In . SVG Version: 6.00 Build 0)  -->
<!DOCTYPE svg PUBLIC "-//W3C//DTD SVG 1.1//EN" "http://www.w3.org/Graphics/SVG/1.1/DTD/svg11.dtd">
<svg version="1.1" id="图层_1" xmlns="http://www.w3.org/2000/svg" xmlns:xlink="http://www.w3.org/1999/xlink" x="0px" y="0px"
	 width="16px" height="16px" viewBox="0 0 16 16" enable-background="new 0 0 16 16" xml:space="preserve">
<path fill="#DD4B38" d="M8,0C3.582,0,0,3.582,0,8s3.582,8,8,8s8-3.582,8-8S12.418,0,8,0z M11.357,10.63
	c0.199,0.2,0.199,0.526-0.002,0.729c-0.201,0.201-0.525,0.199-0.726-0.002L7.999,8.725l-2.632,2.633
	c-0.101,0.102-0.23,0.152-0.363,0.152c-0.132,0-0.264-0.05-0.361-0.15c-0.202-0.201-0.203-0.526-0.001-0.729l2.631-2.632l-2.63-2.63
	C4.542,5.268,4.49,5.139,4.49,5.006c0-0.132,0.05-0.264,0.15-0.361C4.842,4.441,5.167,4.44,5.369,4.643l2.63,2.629l2.63-2.63
	c0.2-0.2,0.525-0.2,0.729,0.001c0.201,0.202,0.201,0.526-0.002,0.726l-2.629,2.63L11.357,10.63z"/>
</svg>
