<?xml version="1.0" encoding="utf-8"?>
<!-- Generator: Adobe Illustrator 21.0.0, SVG Export Plug-In . SVG Version: 6.00 Build 0)  -->
<svg version="1.1" id="图层_1" xmlns="http://www.w3.org/2000/svg" xmlns:xlink="http://www.w3.org/1999/xlink" x="0px" y="0px"
	 viewBox="0 0 83 83" style="enable-background:new 0 0 83 83;" xml:space="preserve">
<style type="text/css">
	.st0{fill:#FFCA28;}
	.st1{fill-rule:evenodd;clip-rule:evenodd;fill:#3E4651;}
	.st2{fill-rule:evenodd;clip-rule:evenodd;fill:#FFFFFF;stroke:#000000;stroke-miterlimit:10;}
	.st3{fill-rule:evenodd;clip-rule:evenodd;fill:#3E4651;stroke:#3E4651;stroke-miterlimit:10;}
	.st4{fill-rule:evenodd;clip-rule:evenodd;fill:#333333;stroke:#000000;stroke-miterlimit:10;}
	.st5{fill-rule:evenodd;clip-rule:evenodd;fill:#F18293;}
	.st6{fill-rule:evenodd;clip-rule:evenodd;fill:#E6E6E6;}
	.st7{fill-rule:evenodd;clip-rule:evenodd;fill:#3E4651;stroke:#000000;stroke-miterlimit:10;}
	.st8{fill:#4B66AE;}
	.st9{fill:#29C3FF;}
	.st10{fill-rule:evenodd;clip-rule:evenodd;fill:#FFFFFF;}
	.st11{fill-rule:evenodd;clip-rule:evenodd;fill:#EA5D5C;}
	.st12{fill-rule:evenodd;clip-rule:evenodd;fill:#4B66AE;}
	.st13{fill-rule:evenodd;clip-rule:evenodd;fill:#4B66AE;stroke:#3E4651;stroke-width:2.5;stroke-miterlimit:10;}
	.st14{fill:#FFFFFF;}
	.st15{fill:#3E4651;}
	.st16{fill:#4B66AE;stroke:#3E4651;stroke-width:2;stroke-miterlimit:10;}
	.st17{fill:#F9F9FB;stroke:#3E4651;stroke-width:2;stroke-miterlimit:10;}
	.st18{fill:#FFFFFF;stroke:#3E4651;stroke-width:3;stroke-miterlimit:10;}
	.st19{fill:#EA5D5C;stroke:#3E4651;stroke-width:2;stroke-miterlimit:10;}
	.st20{fill:#0C0C0C;}
	.st21{fill:none;stroke:#3E4651;stroke-width:2;stroke-miterlimit:10;}
	.st22{fill:#F9F9FB;stroke:#3E4651;stroke-width:2.5;stroke-miterlimit:10;}
</style>
<g>
	<circle class="st0" cx="-314.2" cy="-13.4" r="41.5"/>
	<g>
		<defs>
			<circle id="SVGID_1_" cx="-314.2" cy="-13.4" r="41.5"/>
		</defs>
		<clipPath id="SVGID_2_">
			<use xlink:href="#SVGID_1_"  style="overflow:visible;"/>
		</clipPath>
	</g>
</g>
<g>
	<path class="st1" d="M-299.6-29 M-304.4-29c0,1.7,0.9,3.3,2.4,4.1c1.5,0.9,3.3,0.9,4.8,0c1.5-0.9,2.4-2.4,2.4-4.1
		c0-1.7-0.9-3.3-2.4-4.1s-3.3-0.9-4.8,0C-303.5-32.3-304.4-30.7-304.4-29"/>
	<path class="st1" d="M-299.6-24c-2.8,0-5-2.3-5-5c0-2.8,2.3-5,5-5c2.8,0,5,2.2,5,5C-294.6-26.2-296.9-24-299.6-24L-299.6-24z
		 M-299.6-33.6c-2.5,0-4.6,2.1-4.6,4.6c0,2.5,2.1,4.6,4.6,4.6c2.5,0,4.6-2.1,4.6-4.6C-295.1-31.5-297.1-33.6-299.6-33.6L-299.6-33.6
		L-299.6-33.6z"/>
	<path class="st1" d="M-328.4-29 M-333.2-29c0,1.7,0.9,3.3,2.4,4.1c1.5,0.9,3.3,0.9,4.8,0c1.5-0.9,2.4-2.4,2.4-4.1
		c0-1.7-0.9-3.3-2.4-4.1s-3.3-0.9-4.8,0S-333.2-30.7-333.2-29"/>
	<path class="st1" d="M-328.4-23.9c-2.8,0-5-2.2-5-5c0-2.8,2.2-5,5-5c2.8,0,5,2.2,5,5C-323.4-26.2-325.7-23.9-328.4-23.9
		L-328.4-23.9z M-328.4-33.4c-1.9,0-3.5,1.1-4.2,2.9c-0.7,1.7-0.3,3.7,1.1,5c1.3,1.3,3.3,1.6,5,0.9c1.7-0.8,2.8-2.5,2.7-4.4
		C-323.9-31.4-326-33.4-328.4-33.4L-328.4-33.4z"/>
	<path class="st2" d="M-292.5-9.4c-1.2-14.8-12.9-24.3-21.5-24.3s-20.8,9.6-22,24.3S-321,7-314.2,7C-307.5,7-291.1,5.4-292.5-9.4
		L-292.5-9.4z"/>
	<path class="st3" d="M-314-33.9c8.7,0,20.3,9.6,21.5,24.3c1.2,14.6-15,16.4-21.8,16.4c-6.7,0-23-1.5-21.8-16.3s13.3-24.3,22-24.3
		V-33.9z M-314-35c-5.6,0.4-10.8,2.8-14.7,6.9c-4.9,5-8,11.5-8.5,18.5c-0.5,4.1,0.7,8.2,3.5,11.3c2.7,2.7,6.2,4.6,10,5.4
		c3.1,0.7,6.3,1.1,9.5,1.1c3.2,0,6.4-0.3,9.5-1.1c3.8-0.8,7.3-2.6,10.1-5.4c2.7-3.1,4-7.2,3.5-11.3c-0.6-7-3.5-13.5-8.4-18.5
		C-303.2-32.2-308.4-34.6-314-35L-314-35"/>
	<path class="st1" d="M-312.4-7.8c0,1-0.8,1-1.9,1c-1,0-1.9,0-1.9-1c0-1,0.8-1.9,1.9-1.9S-312.4-8.8-312.4-7.8L-312.4-7.8z"/>
	<path class="st4" d="M-308.4-13.2 M-309.6-13.2c0,0.4,0.2,0.9,0.6,1.1c0.4,0.2,0.9,0.2,1.2,0c0.4-0.2,0.6-0.6,0.6-1.1
		c0-0.4-0.2-0.9-0.6-1.1c-0.4-0.2-0.9-0.2-1.2,0C-309.4-14-309.6-13.6-309.6-13.2"/>
	<path class="st1" d="M-301-15.4c1.8,3.1,1.8,6.2-0.7,7.7c-3.6,1.3-7.7-0.1-9.6-3.5c-1.2-3.5-0.7-6.9,2.1-7.9
		C-305.9-20.1-302.5-18.5-301-15.4L-301-15.4z M-327.8-15.4c-1.8,3.1-1.8,6.2,0.7,7.7c3.6,1.3,7.7-0.1,9.6-3.5
		c1.2-3.5,0.7-6.9-2.1-7.9C-322.8-20.1-326.3-18.5-327.8-15.4L-327.8-15.4z"/>
	<path class="st5" d="M-300.5-6.7c0,0.6,0.7,1,1.5,1c0.8,0,1.5-0.5,1.5-1c0-0.6-0.7-1-1.5-1C-299.8-7.8-300.5-7.3-300.5-6.7
		L-300.5-6.7z"/>
	<path class="st5" d="M-332.2-6.7c0,0.4,0.3,0.7,0.7,0.9c0.5,0.2,1,0.2,1.5,0c0.5-0.2,0.7-0.5,0.7-0.9c0-0.6-0.7-1-1.5-1
		C-331.5-7.8-332.2-7.3-332.2-6.7L-332.2-6.7z"/>
	<path class="st6" d="M-295.8,0.1c-11.7,5.9-25.4,5.8-37.1-0.3C-328.6,6.1-319,7-314.2,7C-309.5,7-300.2,6.2-295.8,0.1L-295.8,0.1z"
		/>
	<polygon class="st1" points="-314.6,-8.2 -313.8,-8.2 -313.8,-4.4 -314.6,-4.4 -314.6,-8.2 	"/>
	<path class="st1" d="M-312.5-3.1c-0.8-0.1-1.5-0.4-2-1c-0.2-0.2-0.2-0.4,0-0.6c0.2-0.2,0.4-0.2,0.6,0c0.6,0.6,1.1,0.9,1.5,0.8
		c0.3-0.1,0.6-0.3,0.7-0.7c0.1-0.2,0.3-0.3,0.5-0.2c0.2,0.1,0.3,0.3,0.2,0.5c-0.2,0.6-0.7,1-1.3,1.1L-312.5-3.1L-312.5-3.1z"/>
	<path class="st1" d="M-315.9-3.1h-0.3c-0.6-0.2-1.1-0.6-1.3-1.1c-0.1-0.2,0.1-0.4,0.2-0.5c0.2-0.1,0.4,0,0.5,0.2
		c0.1,0.3,0.4,0.6,0.7,0.7c0.4,0,0.9-0.2,1.5-0.8c0.2-0.2,0.4-0.2,0.6,0c0.2,0.2,0.2,0.4,0,0.6C-314.5-3.5-315.2-3.2-315.9-3.1
		L-315.9-3.1z"/>
	<path class="st7" d="M-306.3-13.8"/>
	<path class="st7" d="M-322.1-13.8"/>
	
		<ellipse transform="matrix(0.56 -0.8285 0.8285 0.56 -123.8442 -259.9041)" class="st8" cx="-306.6" cy="-13.4" rx="2.1" ry="2.6"/>
	<ellipse transform="matrix(0.8285 -0.56 0.56 0.8285 -47.9166 -183.2013)" class="st8" cx="-323.1" cy="-13.4" rx="2.6" ry="2.1"/>
</g>
<g>
	
		<ellipse transform="matrix(2.448565e-02 -0.9997 0.9997 2.448565e-02 -181.1334 -211.5104)" class="st9" cx="-198.9" cy="-12.9" rx="41.5" ry="41.5"/>
	<g>
		<defs>
			
				<ellipse id="SVGID_3_" transform="matrix(2.448565e-02 -0.9997 0.9997 2.448565e-02 -181.1334 -211.5104)" cx="-198.9" cy="-12.9" rx="41.5" ry="41.5"/>
		</defs>
		<clipPath id="SVGID_4_">
			<use xlink:href="#SVGID_3_"  style="overflow:visible;"/>
		</clipPath>
	</g>
</g>
<g>
	<path class="st10" d="M-199.2,9.1l19.3,0.5c0,0,2.1-0.4,2.2-5.4c0.1-5.1,5.2-27.5-21.3-28.2c-26.5-0.6-22.5,25.4-22.5,25.4
		s-1.4,7.7,2.4,7.6C-215.2,8.8-199.2,9.1-199.2,9.1L-199.2,9.1z"/>
	<path class="st11" d="M-176.2-3.9l3.5,0.1l-0.2,6.5l-3.5-0.1L-176.2-3.9L-176.2-3.9z M-225.7-5.1l3.5,0.1l-0.2,6.5l-3.5-0.1
		L-225.7-5.1L-225.7-5.1z"/>
	<polygon class="st12" points="-212.6,-12.1 -186,-11.5 -186.2,-2.4 -212.9,-3 -212.6,-12.1 	"/>
	<path class="st1" d="M-173.3-5.3l-2.8-0.1c0-7.3-2.9-12.5-7.9-15.7l5.8-11.3c1,0,1.9-0.8,2.1-1.8c0.2-1-0.3-2-1.2-2.5
		c-0.9-0.5-2-0.3-2.7,0.5c-0.7,0.8-0.8,1.9-0.2,2.7l-5.8,11.2c-4-1.9-8.4-2.9-12.8-2.9c-4.4-0.2-8.9,0.6-13,2.3l-5.3-11.4
		c0.6-0.8,0.5-2-0.1-2.7c-0.7-0.8-1.7-1-2.7-0.6c-0.9,0.4-1.5,1.4-1.3,2.4c0.2,1,1,1.8,2,1.9l5.4,11.5c-5,3-8.2,8.1-8.5,15.3
		l-2.8-0.1c-0.6,0-1.2,0.2-1.6,0.6c-0.4,0.4-0.7,1-0.7,1.6l-0.1,5.6c0,0.6,0.2,1.2,0.6,1.6c0.4,0.4,1,0.7,1.6,0.7l2.8,0.1l-0.1,2.8
		c0,1.9,1.4,3.4,3.3,3.5l39.4,0.9c1.9,0,3.4-1.4,3.5-3.3l0.1-2.8l2.8,0.1c1.2,0,2.3-1,2.3-2.2l0.1-5.6c0-0.6-0.2-1.2-0.6-1.7
		C-172.1-5.1-172.7-5.3-173.3-5.3L-173.3-5.3z M-223.1,1.4l-2.3-0.1l0.1-5.6l2.3,0.1L-223.1,1.4L-223.1,1.4z M-178.7,7.5
		c0,0.6-0.5,1.1-1.2,1.1l-39.4-0.9c-0.6,0-1.1-0.5-1.1-1.2l0.3-12.4c0.4-15.8,15-17.1,21.2-17c6.3,0.1,20.8,2.2,20.4,17.9
		L-178.7,7.5L-178.7,7.5z M-173.6,2.5l-2.3-0.1l0.1-5.6l2.3,0.1L-173.6,2.5L-173.6,2.5z"/>
	<path class="st1" d="M-204.5-32.2l1.1-0.9l1.8,3c0.3,0.4,0.7,0.7,1.2,0.7l0.1,0c0.5,0,1-0.4,1.2-0.9l1.1-3.8l0.9,3.6l0,0.1
		c0.2,0.5,0.6,0.8,1.1,0.9c0.5,0.1,1-0.1,1.4-0.5l1.5-2.7l0.6,0.6c0.3,0.3,0.6,0.4,1,0.4l2.8,0.1c0.6,0,1.1-0.5,1.2-1.1
		c0-0.6-0.5-1.1-1.1-1.2l-2.4-0.1l-1.1-1.2c-0.3-0.3-0.7-0.5-1.1-0.4s-0.8,0.2-1.1,0.6l-1.1,1.9l-1.2-4.6c-0.2-0.6-0.7-0.9-1.3-0.9
		c-0.6,0-1.1,0.3-1.4,0.9l-1.4,4.8l-1.4-2.3c-0.2-0.4-0.6-0.6-1-0.7c-0.4-0.1-0.8,0-1.1,0.3l-1.6,1.3l-2.9-0.1
		c-0.3,0-0.6,0.1-0.8,0.3c-0.2,0.2-0.3,0.5-0.3,0.8c0,0.3,0.1,0.6,0.3,0.8c0.2,0.2,0.5,0.3,0.8,0.3l3.2,0.1
		C-205.1-31.9-204.8-32-204.5-32.2L-204.5-32.2z M-190.1-12.8l-17.8-0.4c-3-0.1-5.5,2-6,4.9c-0.2,1.6,0.3,3.2,1.3,4.4
		c1,1.2,2.5,1.9,4.1,1.9l17.8,0.4c3,0.1,5.5-2,6-4.9c0.2-1.6-0.3-3.2-1.3-4.4C-187-12.1-188.5-12.8-190.1-12.8L-190.1-12.8z
		 M-190.3-3.8l-17.9-0.4c-1.6,0-3.1-1.2-3.4-2.8c-0.2-1,0.1-2,0.8-2.8c0.7-0.8,1.6-1.2,2.6-1.2l17.9,0.4c1.6,0,3.1,1.2,3.4,2.8
		c0.2,1-0.1,2-0.8,2.8C-188.3-4.2-189.3-3.8-190.3-3.8L-190.3-3.8L-190.3-3.8z"/>
</g>
<g>
	
		<ellipse transform="matrix(2.448565e-02 -0.9997 0.9997 2.448565e-02 -72.8154 -103.677)" class="st0" cx="-89.5" cy="-14.5" rx="41.5" ry="41.5"/>
	<g>
		
			<rect x="-108.4" y="-36.1" transform="matrix(0.9997 2.448565e-02 -2.448565e-02 0.9997 -0.3107 2.1845)" class="st10" width="38" height="49"/>
		<g>
			<path class="st1" d="M-73.7,15.3l-33.5-0.8c-2.4-0.1-4.2-2-4.2-4.4l1.1-44.5c0.1-2.4,2-4.2,4.4-4.2l33.5,0.8
				c2.4,0.1,4.2,2,4.2,4.4l-1.1,44.5C-69.4,13.5-71.4,15.4-73.7,15.3L-73.7,15.3z M-106-35.3c-0.6,0-1,0.4-1,1l-1.1,44.5
				c0,0.6,0.4,1,1,1l33.5,0.8c0.6,0,1-0.4,1-1l1.1-44.5c0-0.6-0.4-1-1-1L-106-35.3L-106-35.3z"/>
			<path class="st12" d="M-90-4.7c-7-0.2-12.5-6-12.3-13s6-12.5,13-12.3c7,0.2,12.5,6,12.3,13S-83-4.5-90-4.7L-90-4.7z M-89.5-26.8
				c-5.2-0.1-9.5,4-9.6,9.2s4,9.5,9.2,9.6c5.2,0.1,9.5-4,9.6-9.2S-84.3-26.6-89.5-26.8L-89.5-26.8z"/>
			<path class="st11" d="M-90.3,9.2c-3.4-0.1-6.1-2.9-6-6.3c0.1-3.4,2.9-6.1,6.3-6c3.4,0.1,6.1,2.9,6,6.3C-84.1,6.6-87,9.2-90.3,9.2
				L-90.3,9.2z M-90.1,0.2C-91.7,0.1-93,1.4-93,3c0,1.6,1.2,2.9,2.8,2.9c1.6,0,2.9-1.2,2.9-2.8C-87.3,1.5-88.5,0.2-90.1,0.2
				L-90.1,0.2z"/>
			<path class="st1" d="M-89.8-11.3c-3.4-0.1-6.1-2.9-6-6.3c0.1-3.4,2.9-6.1,6.3-6c3.4,0.1,6.1,2.9,6,6.3
				C-83.6-13.9-86.5-11.2-89.8-11.3L-89.8-11.3z M-89.6-20.2c-1.6,0-2.9,1.2-2.9,2.8c0,1.6,1.2,2.9,2.8,2.9c1.6,0,2.9-1.2,2.9-2.8
				C-86.8-18.9-88-20.2-89.6-20.2L-89.6-20.2z"/>
		</g>
	</g>
</g>
<g>
	
		<ellipse transform="matrix(2.448565e-02 -0.9997 0.9997 2.448565e-02 -412.4669 -220.2815)" class="st9" cx="-319.1" cy="101.2" rx="41.5" ry="41.5"/>
	<g>
		
			<rect x="-343.4" y="83.6" transform="matrix(0.9997 2.448565e-02 -2.448565e-02 0.9997 2.4044 7.8636)" class="st10" width="47" height="37"/>
		<path class="st1" d="M-294.4,81.1l-18.8-0.5l5.2-5.3c1-1,2.1-2.7,1.1-3.8c-1-1.1-2.6-1.1-3.6-0.1l-6.8,6.9l-9-10
			c-1-1.1-2.2-1-3.2,0c-1.1,1-0.5,2.7,0.5,3.8l7.5,8.3l-18.8-0.5c-2.8-0.1-5.2,2.3-5.2,5.3l-0.8,32.3c-0.1,3,2.2,5.4,5,5.5l46,1.1
			c2.8,0.1,5.2-2.3,5.2-5.3l0.8-32.3C-289.4,83.6-291.6,81.2-294.4,81.1L-294.4,81.1z M-297.8,117.9c0,1.7-1.3,3-2.9,2.9l-39.7-1
			c-1.6,0-2.8-1.4-2.8-3.1l0.7-29.9c0-1.7,1.3-3,2.9-2.9l39.7,1c1.6,0,2.8,1.4,2.8,3.1L-297.8,117.9L-297.8,117.9z"/>
		
			<ellipse transform="matrix(2.448565e-02 -0.9997 0.9997 2.448565e-02 -385.4552 -196.9009)" class="st11" cx="-293.6" cy="99.1" rx="2.5" ry="2.5"/>
		
			<ellipse transform="matrix(2.448565e-02 -0.9997 0.9997 2.448565e-02 -395.112 -187.9287)" class="st11" cx="-293.8" cy="108.5" rx="2.5" ry="2.5"/>
	</g>
	<path class="st13" d="M-310.1,112.4l-20-0.5c-1.6,0-3-1.4-2.9-3.1l0.3-12c0-1.6,1.4-3,3.1-2.9l20,0.5c1.6,0,3,1.4,2.9,3.1l-0.3,12
		C-307.1,111.1-308.5,112.4-310.1,112.4z"/>
</g>
<g>
	<g>
		<ellipse class="st0" cx="-202.4" cy="97.5" rx="41.4" ry="41.5"/>
		<g>
			<defs>
				<ellipse id="SVGID_5_" cx="-202.4" cy="97.5" rx="41.4" ry="41.5"/>
			</defs>
			<clipPath id="SVGID_6_">
				<use xlink:href="#SVGID_5_"  style="overflow:visible;"/>
			</clipPath>
		</g>
	</g>
</g>
<g>
	<rect x="-218.1" y="73.7" class="st14" width="32.9" height="21.2"/>
	<rect x="-218.1" y="96" class="st14" width="32.9" height="24.5"/>
	<path class="st15" d="M-186,123.3h-0.8c0,1.5-1.5,2.7-3.3,2.7s-3.3-1.2-3.3-2.7h-16c0,1.5-1.5,2.7-3.3,2.7c-1.8,0-3.3-1.2-3.3-2.7
		h-0.8c-1.8,0-3.2-1.4-3.2-3.2l0-45.9c0-1.8,1.4-3.2,3.2-3.2h31c1.8,0,3.2,1.4,3.2,3.2v45.9C-182.8,121.8-184.3,123.3-186,123.3z
		 M-185.2,75.8c0-1-0.8-1.8-1.8-1.8l-29.1,0c-1,0-1.8,0.8-1.8,1.8v18.6h32.7L-185.2,75.8L-185.2,75.8z M-185.2,96.6h-32.6v22.1
		c0,0.9,0.8,1.7,1.8,1.7h29.1c1,0,1.8-0.8,1.8-1.7L-185.2,96.6z"/>
	<ellipse class="st16" cx="-209.5" cy="85.3" rx="2.7" ry="4.7"/>
	<ellipse class="st16" cx="-209.5" cy="105.2" rx="2.7" ry="4.7"/>
</g>
<g>
	<g>
		
			<ellipse transform="matrix(2.448565e-02 -0.9997 0.9997 2.448565e-02 -185.0452 -1.7512)" class="st9" cx="-93.4" cy="93.9" rx="41.5" ry="41.5"/>
		<g>
			<defs>
				
					<ellipse id="SVGID_7_" transform="matrix(2.448565e-02 -0.9997 0.9997 2.448565e-02 -185.0452 -1.7512)" cx="-93.4" cy="93.9" rx="41.5" ry="41.5"/>
			</defs>
			<clipPath id="SVGID_8_">
				<use xlink:href="#SVGID_7_"  style="overflow:visible;"/>
			</clipPath>
		</g>
	</g>
	<g>
		<path class="st17" d="M-102.9,89.9l0.3-13.9c0.1-2.7,2.3-4.9,5-4.8l0.7,0c2.7,0.1,4.9,2.3,4.8,5l-0.3,13.2
			c-0.1,3.1-2.7,5.6-5.8,5.5h0C-100.8,94.9-103,92.6-102.9,89.9z"/>
		<path class="st17" d="M-92.4,90.2l0.3-13.9c0.1-2.7,2.3-4.9,5-4.8l0.7,0c2.7,0.1,4.9,2.3,4.8,5l-0.3,13.2
			c-0.1,3.1-2.7,5.6-5.8,5.5h0C-90.3,95.1-92.5,92.9-92.4,90.2z"/>
		<path class="st17" d="M-81.9,90.5l0.2-8.8c0.1-2.7,2.3-4.8,4.9-4.7l0.9,0c2.7,0.1,4.8,2.3,4.7,4.9l-0.2,7.9
			c-0.1,3.1-2.7,5.6-5.8,5.6h0C-79.8,95.4-81.9,93.2-81.9,90.5z"/>
		<path class="st17" d="M-113.5,89.7l0.2-8.8c0.1-2.7,2.3-4.8,4.9-4.7l0.9,0c2.7,0.1,4.8,2.3,4.7,4.9l-0.2,7.9
			c-0.1,3.1-2.7,5.6-5.8,5.6h0C-111.4,94.6-113.5,92.4-113.5,89.7z"/>
		<path class="st16" d="M-119.6,90.9l0-0.9c0.1-2.9,2.5-5.2,5.4-5.1h0c2.9,0.1,5.2,2.5,5.1,5.4l0,0.9c-0.1,2.9-2.5,5.2-5.4,5.1h0
			C-117.4,96.2-119.7,93.8-119.6,90.9z"/>
		<path class="st16" d="M-74.9,92l0-0.9c0.1-2.9,2.5-5.2,5.4-5.1h0c2.9,0.1,5.2,2.5,5.1,5.4l0,0.9c-0.1,2.9-2.5,5.2-5.4,5.1h0
			C-72.6,97.3-75,94.9-74.9,92z"/>
		<path class="st18" d="M-75.2,104.3l-36-0.9c-2.9-0.1-5.2-2.5-5.1-5.4v0c0.1-2.9,2.5-5.2,5.4-5.1l36,0.9c2.9,0.1,5.2,2.5,5.1,5.4v0
			C-69.9,102-72.3,104.4-75.2,104.3z"/>
		<path class="st19" d="M-71.8,107.9l-43-1.1c-1,0-1.7-0.8-1.7-1.8v0c0-1,0.8-1.7,1.8-1.7l43,1.1c1,0,1.7,0.8,1.7,1.8v0
			C-70,107.1-70.8,107.9-71.8,107.9z"/>
		<g>
			<line class="st20" x1="-109.5" y1="107.8" x2="-109.7" y2="114"/>
			<line class="st21" x1="-109.5" y1="107.8" x2="-109.7" y2="114"/>
		</g>
		<g>
			<line class="st20" x1="-76.2" y1="108.7" x2="-76.3" y2="114.8"/>
			<line class="st21" x1="-76.2" y1="108.7" x2="-76.3" y2="114.8"/>
		</g>
	</g>
</g>
<g>
	
		<ellipse transform="matrix(2.448565e-02 -0.9997 0.9997 2.448565e-02 -0.9352 81.9037)" class="st0" cx="41.5" cy="41.4" rx="41.5" ry="41.5"/>
	<g>
		<path class="st22" d="M63.6,38.5c0,0.3,6.3,23.7-23.4,21.7C13.9,58.4,21.2,38,21.2,38c0.2-9.8,9.9-18.1,21.6-17.8
			S63.8,28.7,63.6,38.5z"/>
		<path class="st8" d="M23.9,51.2l-0.9,0c-1.8,0-3.2-1.5-3.2-3.3l0.2-7.2c0-1.8,1.5-3.2,3.3-3.2l0.9,0c1.8,0,3.2,1.5,3.2,3.3
			L27.3,48C27.2,49.8,25.7,51.2,23.9,51.2z"/>
		<path class="st8" d="M60.6,52.1l-0.9,0c-1.8,0-3.2-1.5-3.2-3.3l0.2-7.2c0-1.8,1.5-3.2,3.3-3.2l0.9,0c1.8,0,3.2,1.5,3.2,3.3
			l-0.2,7.2C63.9,50.7,62.4,52.1,60.6,52.1z"/>
		<path class="st15" d="M43.5,17.9c0.5,0.1,1,0.1,1.5,0.2c3.3,0.4,6.5,1.5,9.3,3.3c5.6,3.5,9.2,8.5,10.8,14.9c0.5,2,0.7,3.9,0.6,5.9
			c0,2-0.1,4.1-0.1,6.1c0,1-0.3,1.9-0.7,2.7c-0.2,0.3-0.3,0.7-0.4,1.1c-2.7,8.4-9.9,14.6-18.5,16.2c-0.6,0.1-1.2,0.2-1.8,0.2
			c-0.2,0-0.3,0.1-0.3,0.3c-0.7,1.8-2.5,2.9-4.5,2.8c-1.9-0.1-3.5-1.5-4-3.4c-0.5-2.3,0.7-4.5,2.9-5.3c2.2-0.7,4.6,0.3,5.5,2.4
			c0.1,0.2,0.2,0.3,0.4,0.2c7.3-1,12.6-4.8,16.1-11.2c0-0.1,0.1-0.1,0.1-0.2c-0.2,0-0.4,0-0.6,0c-3.5,0.1-6.3-2.7-6.2-6.1
			c0-2,0.1-4,0.1-5.9c0.1-3.5,3-6.1,6.5-5.8c0.6,0,1.1,0.3,1.7,0.4c0.1,0,0.1,0,0.2,0.1c-1.7-7.5-8.8-15.3-19.2-15.8
			c-10.7-0.5-18.8,6.9-21,14.8c0.4-0.1,0.8-0.2,1.2-0.3c3.1-0.5,6.3,1.8,6.7,5c0.1,0.4,0.1,0.8,0.1,1.2c0,1.9-0.1,3.9-0.1,5.8
			c-0.1,2.9-2.1,5.2-4.9,5.8c-3.3,0.6-6.5-1.7-7-5c0-0.3-0.1-0.7-0.1-1c0-2.1,0.1-4.2,0.2-6.3c0.4-7.7,3.6-13.8,9.8-18.4
			c3.1-2.4,6.7-3.8,10.5-4.4c0.9-0.1,1.9-0.2,2.8-0.3c0.1,0,0.2,0,0.3,0C42,17.9,42.8,17.9,43.5,17.9z M26.8,44.4l0.1-3
			c0-1.7-1.2-3.1-2.9-3.1c-1.7,0-3,1.3-3.1,3c-0.1,2-0.1,3.9-0.1,5.9c0,0.2,0,0.5,0.1,0.7c0.3,1.5,1.7,2.5,3.1,2.4
			c1.6-0.1,2.7-1.4,2.8-2.9C26.8,46.4,26.8,45.4,26.8,44.4z M56.7,45.1c0,1-0.1,2-0.1,2.9c0,0.2,0,0.5,0.1,0.7
			c0.3,1.5,1.7,2.5,3.2,2.4c1.6-0.2,2.7-1.4,2.8-2.9c0.1-2,0.1-4,0.1-5.9c0-0.2,0-0.5-0.1-0.7c-0.3-1.5-1.7-2.5-3.1-2.4
			c-1.6,0.1-2.7,1.4-2.8,2.9C56.7,43.1,56.7,44.1,56.7,45.1z"/>
	</g>
</g>
</svg>
