<?xml version="1.0" encoding="utf-8"?>
<!-- Generator: Adobe Illustrator 16.0.0, SVG Export Plug-In . SVG Version: 6.00 Build 0)  -->
<!DOCTYPE svg PUBLIC "-//W3C//DTD SVG 1.1//EN" "http://www.w3.org/Graphics/SVG/1.1/DTD/svg11.dtd">
<svg version="1.1" id="图层_1" xmlns="http://www.w3.org/2000/svg" xmlns:xlink="http://www.w3.org/1999/xlink" x="0px" y="0px"
	 width="16.055px" height="15px" viewBox="0 0 16.055 15" enable-background="new 0 0 16.055 15" xml:space="preserve">
<g>
	<g>
		<g>
			<path fill="#54ADF7" d="M11.793,6.647H4.261c-0.276,0-0.5-0.224-0.5-0.5s0.224-0.5,0.5-0.5h7.532c0.276,0,0.5,0.224,0.5,0.5
				S12.069,6.647,11.793,6.647z"/>
		</g>
		<g>
			<path fill="#54ADF7" d="M8.027,10.413c-0.276,0-0.5-0.225-0.5-0.5V2.381c0-0.276,0.224-0.5,0.5-0.5s0.5,0.224,0.5,0.5v7.532
				C8.527,10.188,8.304,10.413,8.027,10.413z"/>
		</g>
	</g>
	<g>
		<g>
			<path fill="#54ADF7" d="M6.131,15c-0.083,0-0.167-0.021-0.242-0.062C5.729,14.85,5.631,14.682,5.631,14.5v-2.205L0.5,12.293
				c-0.276,0-0.5-0.225-0.5-0.5V0.5C0,0.224,0.224,0,0.5,0h15.055c0.276,0,0.5,0.224,0.5,0.5v11.293c0,0.275-0.224,0.5-0.5,0.5
				l-4.952,0.002l-4.207,2.628C6.315,14.975,6.223,15,6.131,15z M1,11.293l5.131,0.002c0.276,0,0.5,0.223,0.5,0.5v1.802l3.563-2.226
				c0.079-0.051,0.171-0.076,0.265-0.076l4.596-0.002V1H1V11.293z"/>
		</g>
	</g>
</g>
</svg>
