<?xml version="1.0" encoding="utf-8"?>
<!-- Generator: Adobe Illustrator 16.0.0, SVG Export Plug-In . SVG Version: 6.00 Build 0)  -->
<!DOCTYPE svg PUBLIC "-//W3C//DTD SVG 1.1//EN" "http://www.w3.org/Graphics/SVG/1.1/DTD/svg11.dtd">
<svg version="1.1" id="图层_1" xmlns="http://www.w3.org/2000/svg" xmlns:xlink="http://www.w3.org/1999/xlink" x="0px" y="0px"
	 width="16px" height="16px" viewBox="0 0 16 16" enable-background="new 0 0 16 16" xml:space="preserve">
<path fill="#33495F" d="M16,5.193V0.912c0-0.493-0.398-0.89-0.893-0.89c-0.244-0.001-0.465,0.099-0.627,0.26
	c-0.16,0.161-0.26,0.383-0.26,0.629v4.283c0,0.492,0.396,0.89,0.889,0.891C15.602,6.083,16,5.686,16,5.193z"/>
<path fill="#33495F" d="M6.045,4.813L1.604,0.371C1.254,0.022,0.692,0.023,0.343,0.373C0.169,0.544,0.084,0.771,0.083,1
	C0.084,1.227,0.17,1.455,0.344,1.628l4.443,4.442c0.348,0.349,0.909,0.349,1.258,0.002C6.393,5.724,6.394,5.161,6.045,4.813z"/>
<path fill="#33495F" d="M1.779,5.193V0.912c0-0.493-0.398-0.89-0.892-0.89c-0.245-0.001-0.466,0.099-0.627,0.26
	C0.101,0.442,0,0.665,0,0.911v4.283c0.001,0.492,0.396,0.89,0.89,0.891C1.381,6.083,1.779,5.686,1.779,5.193z"/>
<path fill="#33495F" d="M16,15.131V10.85c0-0.494-0.398-0.891-0.893-0.891c-0.244,0-0.465,0.1-0.627,0.26
	c-0.16,0.162-0.26,0.383-0.26,0.629v4.283c0,0.492,0.396,0.891,0.889,0.891S16,15.623,16,15.131z"/>
<path fill="#33495F" d="M1.779,15.131V10.85c0-0.494-0.398-0.891-0.892-0.891c-0.245,0-0.466,0.1-0.627,0.26
	C0.101,10.381,0,10.602,0,10.848v4.283c0.001,0.492,0.396,0.891,0.89,0.891C1.381,16.021,1.779,15.623,1.779,15.131z"/>
<path fill="#33495F" d="M5.192,0H0.911C0.418,0,0.021,0.398,0.021,0.893C0.02,1.137,0.12,1.357,0.28,1.52
	c0.161,0.16,0.384,0.26,0.63,0.26h4.282c0.492,0,0.89-0.396,0.891-0.889C6.082,0.398,5.685,0,5.192,0z"/>
<path fill="#33495F" d="M5.962,4.703L1.521,0.261C1.171-0.088,0.609-0.087,0.26,0.262C0.086,0.434,0.001,0.661,0,0.889
	c0.001,0.228,0.087,0.455,0.261,0.629L4.704,5.96c0.348,0.349,0.909,0.349,1.258,0.002C6.31,5.614,6.311,5.05,5.962,4.703z"/>
<path fill="#33495F" d="M15.739,14.48l-4.441-4.442c-0.349-0.348-0.911-0.348-1.261,0.002c-0.174,0.172-0.259,0.398-0.26,0.627
	c0.001,0.228,0.088,0.455,0.262,0.629l4.442,4.442c0.348,0.349,0.909,0.349,1.258,0.002C16.087,15.392,16.088,14.828,15.739,14.48z"
	/>
<path fill="#33495F" d="M11.299,5.961L15.74,1.52c0.349-0.349,0.348-0.912-0.001-1.261C15.567,0.085,15.34,0,15.112-0.001
	C14.885,0,14.657,0.086,14.483,0.26l-4.442,4.443c-0.349,0.348-0.349,0.909-0.002,1.258C10.388,6.309,10.951,6.31,11.299,5.961z"/>
<path fill="#33495F" d="M1.521,15.738l4.442-4.441c0.348-0.349,0.348-0.911-0.002-1.261C5.79,9.862,5.563,9.777,5.334,9.776
	c-0.228,0.001-0.455,0.088-0.629,0.262L0.263,14.48c-0.349,0.348-0.349,0.909-0.002,1.258C0.61,16.086,1.173,16.087,1.521,15.738z"
	/>
<path fill="#33495F" d="M5.463,0H1.182C0.689,0,0.292,0.398,0.292,0.893c-0.001,0.244,0.1,0.465,0.26,0.627
	c0.161,0.16,0.384,0.26,0.63,0.26h4.282c0.492,0,0.89-0.396,0.891-0.889C6.353,0.398,5.956,0,5.463,0z"/>
<path fill="#33495F" d="M5.192,14.221H0.911c-0.493,0-0.891,0.398-0.891,0.892c-0.001,0.245,0.1,0.466,0.26,0.627
	C0.441,15.899,0.664,16,0.91,16h4.282c0.492-0.001,0.89-0.396,0.891-0.89C6.082,14.619,5.685,14.221,5.192,14.221z"/>
<path fill="#33495F" d="M15.13,0h-4.281c-0.494,0-0.891,0.398-0.891,0.893c0,0.244,0.1,0.465,0.26,0.627
	c0.162,0.16,0.383,0.26,0.629,0.26h4.283c0.492,0,0.891-0.396,0.891-0.889S15.622,0,15.13,0z"/>
<path fill="#33495F" d="M15.13,14.221h-4.281c-0.494,0-0.891,0.398-0.891,0.892c0,0.245,0.1,0.466,0.26,0.627
	C10.38,15.899,10.601,16,10.847,16h4.283c0.492-0.001,0.891-0.396,0.891-0.89C16.021,14.619,15.622,14.221,15.13,14.221z"/>
</svg>
