<?xml version="1.0" encoding="utf-8"?>
<!-- Generator: Adobe Illustrator 17.0.0, SVG Export Plug-In . SVG Version: 6.00 Build 0)  -->
<!DOCTYPE svg PUBLIC "-//W3C//DTD SVG 1.1//EN" "http://www.w3.org/Graphics/SVG/1.1/DTD/svg11.dtd">
<svg version="1.1" id="图层_1" xmlns="http://www.w3.org/2000/svg" xmlns:xlink="http://www.w3.org/1999/xlink" x="0px" y="0px"
	 width="40px" height="40px" viewBox="0 0 40 40" enable-background="new 0 0 40 40" xml:space="preserve">
<rect opacity="0" fill="#00A0E9" fill-opacity="0" width="40" height="40"/>
<g>
	<g>
		<path fill="#C9CACA" d="M19.991,21.475c-5.921,0-10.738-4.817-10.738-10.738S14.07,0,19.991,0s10.738,4.817,10.738,10.738
			S25.912,21.475,19.991,21.475z M19.991,2.223c-4.694,0-8.514,3.82-8.514,8.515s3.82,8.515,8.514,8.515
			c4.695,0,8.515-3.82,8.515-8.515S24.686,2.223,19.991,2.223z"/>
	</g>
	<g>
		<path fill="#C9CACA" d="M38.534,40c-0.005,0-0.011,0-0.018,0H1.466c-0.614,0-1.112-0.497-1.112-1.112
			c0-10.827,8.809-19.636,19.636-19.636c10.757,0,19.522,8.696,19.635,19.427c0.013,0.068,0.019,0.137,0.019,0.209
			C39.645,39.503,39.148,40,38.534,40z M2.613,37.777h34.755c-0.574-9.085-8.15-16.301-17.378-16.301S3.188,28.692,2.613,37.777z"/>
	</g>
</g>
</svg>
