<?xml version="1.0" encoding="utf-8"?>
<!-- Generator: Adobe Illustrator 16.0.0, SVG Export Plug-In . SVG Version: 6.00 Build 0)  -->
<!DOCTYPE svg PUBLIC "-//W3C//DTD SVG 1.1//EN" "http://www.w3.org/Graphics/SVG/1.1/DTD/svg11.dtd">
<svg version="1.1" id="图层_1" xmlns="http://www.w3.org/2000/svg" xmlns:xlink="http://www.w3.org/1999/xlink" x="0px" y="0px"
	 width="23.253px" height="25px" viewBox="0 0 23.253 25" enable-background="new 0 0 23.253 25" xml:space="preserve">
<g>
	<g>
		<path fill="#B5B5B6" d="M11.817,20.688C11.817,20.688,11.817,20.688,11.817,20.688l-0.204-0.002c-6.263,0-11.194-7.566-11.4-7.891
			c-0.115-0.18-0.115-0.41,0-0.591c0.206-0.322,5.137-7.892,11.414-7.892c6.274,0,11.206,7.569,11.414,7.892
			c0.112,0.178,0.115,0.402,0.007,0.581C22.853,13.105,18.183,20.688,11.817,20.688z M1.336,12.5
			c0.966,1.377,5.273,7.091,10.291,7.091l0.189,0.002c5.092,0.001,9.197-5.716,10.106-7.085c-0.954-1.363-5.271-7.101-10.295-7.101
			C6.609,5.407,2.302,11.121,1.336,12.5z M11.562,16.892c-2.459,0-4.46-1.97-4.46-4.392c0-2.423,2.001-4.393,4.46-4.393
			c2.459,0,4.458,1.97,4.458,4.393C16.021,14.922,14.022,16.892,11.562,16.892z M11.562,9.202c-1.855,0-3.364,1.479-3.364,3.298
			c0,1.817,1.509,3.297,3.364,3.297c1.855,0,3.364-1.479,3.364-3.297C14.926,10.682,13.417,9.202,11.562,9.202z"/>
	</g>
</g>
</svg>
