<?xml version="1.0" encoding="utf-8"?>
<!-- Generator: Adobe Illustrator 16.0.0, SVG Export Plug-In . SVG Version: 6.00 Build 0)  -->
<!DOCTYPE svg PUBLIC "-//W3C//DTD SVG 1.1//EN" "http://www.w3.org/Graphics/SVG/1.1/DTD/svg11.dtd">
<svg version="1.1" id="图层_1" xmlns="http://www.w3.org/2000/svg" xmlns:xlink="http://www.w3.org/1999/xlink" x="0px" y="0px"
	 width="50px" height="50px" viewBox="0 0 50 50" enable-background="new 0 0 50 50" xml:space="preserve">
<g>
	<rect fill="#3E3A39" width="50" height="50"/>
	<g>
		<g>
			<path fill="#FF9800" d="M24.999,37.95c-4.439,0-4.625-6.476-4.625-6.476v-5.549h9.25v5.549
				C29.624,31.475,29.438,37.95,24.999,37.95z"/>
			<g>
				<circle fill="#FFA726" cx="33.323" cy="20.375" r="1.85"/>
				<circle fill="#FFA726" cx="16.675" cy="20.375" r="1.85"/>
			</g>
			<path fill="#FFB74D" d="M33.323,14.826c0-7.03-16.648-4.625-16.648,0c0,1.016,0,5.457,0,6.475c0,4.625,3.699,8.326,8.324,8.326
				s8.324-3.701,8.324-8.326C33.323,20.283,33.323,15.842,33.323,14.826z"/>
			<path fill="#424242" d="M24.999,6.5c-5.643,0-9.25,4.533-9.25,10.176c0,0.739,0,2.127,0,2.127l1.85,1.572v-4.624l11.1-3.7
				l3.701,3.7v4.624l1.848-1.572c0,0,0-1.388,0-2.127c0-3.701-0.924-7.401-5.549-8.324L27.774,6.5H24.999z"/>
			<g>
				<circle fill="#784719" cx="28.698" cy="20.375" r="0.925"/>
				<circle fill="#784719" cx="21.298" cy="20.375" r="0.925"/>
			</g>
			<g>
				<path fill="#009688" d="M29.624,31.475L29.624,31.475c0,0-1.666,1.852-4.625,1.852c-2.961,0-4.625-1.852-4.625-1.852
					S10.198,33.326,10.198,43.5h29.6C39.798,33.326,29.624,31.475,29.624,31.475z"/>
			</g>
		</g>
	</g>
</g>
</svg>
