<?xml version="1.0" encoding="utf-8"?>
<!-- Generator: Adobe Illustrator 16.0.0, SVG Export Plug-In . SVG Version: 6.00 Build 0)  -->
<!DOCTYPE svg PUBLIC "-//W3C//DTD SVG 1.1//EN" "http://www.w3.org/Graphics/SVG/1.1/DTD/svg11.dtd">
<svg version="1.1" id="图层_1" xmlns="http://www.w3.org/2000/svg" xmlns:xlink="http://www.w3.org/1999/xlink" x="0px" y="0px"
	 width="24.945px" height="24.945px" viewBox="0 0 24.945 24.945" enable-background="new 0 0 24.945 24.945" xml:space="preserve">
<g>
	<g>
		<path fill="#AAAAAA" d="M12.472,16.895c-2.438,0-4.421-1.983-4.421-4.423c0-2.438,1.982-4.422,4.421-4.422
			c2.438,0,4.422,1.982,4.422,4.422S14.911,16.895,12.472,16.895z M12.472,9.111c-1.854,0-3.361,1.508-3.361,3.361
			s1.509,3.361,3.361,3.361c1.854,0,3.362-1.508,3.362-3.361C15.836,10.619,14.327,9.111,12.472,9.111z"/>
	</g>
	<g>
		<path fill="#AAAAAA" d="M14.505,24.945h-4.062c-0.265,0-0.487-0.194-0.525-0.454l-0.424-2.963c-0.46-0.151-0.902-0.333-1.32-0.544
			l-2.392,1.795c-0.211,0.156-0.507,0.137-0.692-0.05l-2.871-2.873c-0.187-0.188-0.207-0.481-0.05-0.692l1.793-2.393
			c-0.211-0.421-0.393-0.862-0.542-1.319l-2.965-0.423C0.194,14.992,0,14.767,0,14.504v-4.061c0-0.266,0.194-0.487,0.455-0.524
			l2.964-0.424c0.149-0.457,0.331-0.899,0.543-1.32L2.169,5.781c-0.158-0.21-0.138-0.505,0.05-0.69l2.87-2.872
			C5.276,2.031,5.571,2.01,5.78,2.168l2.394,1.794c0.421-0.212,0.862-0.394,1.32-0.544l0.424-2.964C9.955,0.193,10.178,0,10.442,0
			h4.062c0.264,0,0.486,0.193,0.524,0.454l0.424,2.964c0.458,0.15,0.898,0.332,1.319,0.544l2.394-1.795
			c0.21-0.156,0.505-0.138,0.691,0.051l2.872,2.872c0.188,0.188,0.207,0.48,0.051,0.691l-1.795,2.393
			c0.213,0.42,0.395,0.861,0.543,1.32l2.964,0.424c0.261,0.037,0.454,0.261,0.454,0.524v4.061c0,0.265-0.194,0.487-0.455,0.524
			l-2.963,0.424c-0.148,0.458-0.331,0.899-0.543,1.32l1.795,2.391c0.156,0.211,0.137,0.507-0.051,0.693l-2.872,2.871
			c-0.187,0.188-0.481,0.207-0.691,0.051l-2.393-1.793c-0.419,0.21-0.859,0.393-1.319,0.543L15.03,24.49
			C14.993,24.75,14.768,24.945,14.505,24.945z M10.903,23.885h3.144l0.405-2.842c0.029-0.207,0.178-0.377,0.377-0.435
			c0.619-0.18,1.203-0.42,1.735-0.717c0.185-0.102,0.408-0.086,0.574,0.039l2.295,1.721l2.224-2.225l-1.722-2.292
			c-0.125-0.167-0.142-0.393-0.039-0.573c0.299-0.536,0.538-1.12,0.716-1.736c0.058-0.2,0.228-0.35,0.435-0.378l2.842-0.406
			l0.001-3.143l-2.843-0.406c-0.207-0.028-0.377-0.178-0.435-0.378c-0.179-0.617-0.417-1.201-0.716-1.737
			c-0.102-0.182-0.085-0.406,0.039-0.573l1.722-2.293l-2.224-2.224l-2.295,1.721c-0.166,0.125-0.393,0.142-0.572,0.04
			c-0.538-0.299-1.122-0.538-1.737-0.717c-0.199-0.058-0.349-0.228-0.377-0.434l-0.407-2.843h-3.143l-0.406,2.843
			c-0.029,0.206-0.178,0.376-0.378,0.434C9.503,4.51,8.919,4.751,8.381,5.05C8.198,5.15,7.973,5.135,7.807,5.01L5.513,3.289
			L3.292,5.511L5.01,7.804C5.135,7.97,5.152,8.196,5.05,8.377c-0.298,0.541-0.537,1.126-0.716,1.739
			c-0.059,0.199-0.229,0.349-0.435,0.377L1.058,10.9v3.143l2.844,0.406c0.206,0.027,0.376,0.177,0.434,0.377
			c0.179,0.616,0.418,1.2,0.716,1.737c0.102,0.183,0.085,0.406-0.04,0.572l-1.72,2.294l2.223,2.225l2.293-1.722
			c0.168-0.125,0.394-0.141,0.573-0.039c0.534,0.297,1.119,0.536,1.738,0.717c0.199,0.059,0.348,0.228,0.377,0.434L10.903,23.885z"
			/>
	</g>
</g>
</svg>
