<?xml version="1.0" encoding="utf-8"?>
<!-- Generator: Adobe Illustrator 16.0.0, SVG Export Plug-In . SVG Version: 6.00 Build 0)  -->
<!DOCTYPE svg PUBLIC "-//W3C//DTD SVG 1.1//EN" "http://www.w3.org/Graphics/SVG/1.1/DTD/svg11.dtd">
<svg version="1.1" id="图层_1" xmlns="http://www.w3.org/2000/svg" xmlns:xlink="http://www.w3.org/1999/xlink" x="0px" y="0px"
	 width="104.437px" height="22px" viewBox="0 0 104.437 22" enable-background="new 0 0 104.437 22" xml:space="preserve">
<g>
	<g>
		<path fill="#00ABFF" d="M40.665,3.356h0.984V8.7h7.312v0.984h-7.312v8.155h8.719v0.984H33.633V17.84h7.031V3.356z"/>
		<path fill="#00ABFF" d="M51.915,12.708c-0.141-0.422-0.281-0.797-0.422-1.125c1.592-2.344,2.857-5.133,3.797-8.367l1.055,0.211
			c-0.469,1.312-0.939,2.578-1.406,3.797v12.655h-0.984V9.263C53.295,10.575,52.618,11.724,51.915,12.708z M58.524,12.567
			c0.094-0.281,0.234-0.727,0.422-1.336c0.141-0.516,0.256-0.89,0.352-1.125h-2.953V9.263h3.164
			c0.281-0.938,0.537-1.828,0.773-2.672h-3.023V5.677h3.234c0.234-0.844,0.422-1.663,0.562-2.461l1.055,0.141
			c-0.188,0.75-0.398,1.523-0.633,2.32h6.328v0.914h-6.539c-0.096,0.517-0.307,1.242-0.633,2.18
			c-0.047,0.235-0.096,0.398-0.141,0.492h8.016v0.844h-8.227c-0.236,0.891-0.492,1.758-0.773,2.602h7.875v0.984l-4.078,4.147
			c0.797,0.328,1.617,0.75,2.461,1.266l-0.703,0.844c-1.547-0.984-3.492-2.132-5.836-3.445c-0.703-0.374-1.242-0.678-1.617-0.914
			l0.562-0.703c1.359,0.751,2.787,1.572,4.289,2.461l3.797-3.796h-7.734V12.567z"/>
		<path fill="#00ABFF" d="M69.774,7.646V6.731h5.062v0.984c-0.609,1.172-1.221,2.156-1.828,2.953v9.21h-0.984v-8.015
			c-0.609,0.75-1.336,1.501-2.18,2.249c-0.047-0.093-0.141-0.326-0.281-0.702c-0.047-0.141-0.096-0.257-0.141-0.352
			c1.688-1.312,3.164-3.117,4.43-5.414H69.774z M71.321,3.638l0.844-0.422c0.141,0.235,0.396,0.68,0.773,1.336
			c0.375,0.703,0.633,1.172,0.773,1.406L72.797,6.38C72.047,4.88,71.555,3.966,71.321,3.638z M73.43,11.653l0.633-0.562
			c0.326,0.328,0.773,0.798,1.336,1.406c0.326,0.376,0.537,0.609,0.633,0.703l-0.773,0.633
			C74.881,13.365,74.274,12.638,73.43,11.653z M80.391,6.45h0.914c0,2.016-0.047,3.47-0.141,4.359
			c-0.047,4.173-2.109,7.194-6.188,9.069c-0.236-0.234-0.492-0.492-0.773-0.773c4.078-1.828,6.092-4.593,6.047-8.296
			C80.344,9.357,80.391,7.903,80.391,6.45z M76.665,3.919h8.438v10.124h-0.914v-9.21h-6.539v9.491h-0.984V3.919z M81.094,13.13
			h0.914v4.147c-0.047,0.844,0.375,1.242,1.266,1.195h0.773c0.748,0,1.195-0.328,1.336-0.984c0.141-0.796,0.211-1.521,0.211-2.18
			c0.186,0.096,0.492,0.211,0.914,0.352c0,0.61-0.07,1.266-0.211,1.969c-0.141,1.172-0.891,1.734-2.25,1.688h-0.984
			c-1.312,0.047-1.969-0.609-1.969-1.969V13.13z"/>
		<path fill="#00ABFF" d="M91.782,3.146h0.914v2.812h2.391v0.773h-2.391v2.812h2.742v0.773h-7.945V9.544h1.406V4.763h0.844v4.781
			h2.039V3.146z M88.336,16.082l-0.773-0.422c0.562-0.984,1.078-2.154,1.547-3.515l0.844,0.281
			C89.577,13.599,89.04,14.816,88.336,16.082z M88.266,19.949c-0.188-0.281-0.398-0.539-0.633-0.773
			c3.188-1.312,5.367-3.468,6.539-6.468l0.773,0.352C93.633,16.248,91.405,18.543,88.266,19.949z M91.219,11.091h0.914v4.358h-0.914
			V11.091z M99.516,9.896h0.914v1.266c0,2.391-0.281,4.125-0.844,5.202l0.562-0.633c1.688,1.221,3.164,2.297,4.43,3.234
			l-0.633,0.703c-0.469-0.375-1.361-1.031-2.672-1.969c-0.75-0.562-1.312-0.984-1.688-1.266c-0.609,1.313-2.205,2.484-4.781,3.516
			c-0.141-0.281-0.352-0.562-0.633-0.844c2.344-0.844,3.797-1.758,4.359-2.742c0.703-0.889,1.029-2.624,0.984-5.202V9.896z
			 M96.211,7.575h2.602l0.562-2.672h-3.938V4.06h9.07v0.844h-4.219l-0.562,2.672h4.008v8.718h-0.914V8.349h-5.695v7.944h-0.914
			V7.575z"/>
	</g>
	<g>
		<path fill="#00ABFF" d="M21,12H1c-0.552,0-1-0.448-1-1c0-0.553,0.448-1,1-1h20c0.552,0,1,0.447,1,1C22,11.552,21.552,12,21,12z"/>
	</g>
	<g>
		<path fill="#00ABFF" d="M11,22c-0.552,0-1-0.447-1-1V1c0-0.553,0.448-1,1-1s1,0.447,1,1v20C12,21.553,11.552,22,11,22z"/>
	</g>
</g>
</svg>
