<?xml version="1.0" encoding="utf-8"?>
<!-- Generator: Adobe Illustrator 16.0.0, SVG Export Plug-In . SVG Version: 6.00 Build 0)  -->
<!DOCTYPE svg PUBLIC "-//W3C//DTD SVG 1.1//EN" "http://www.w3.org/Graphics/SVG/1.1/DTD/svg11.dtd">
<svg version="1.1" id="图层_1" xmlns="http://www.w3.org/2000/svg" xmlns:xlink="http://www.w3.org/1999/xlink" x="0px" y="0px"
	 width="104.437px" height="22px" viewBox="0 0 104.437 22" enable-background="new 0 0 104.437 22" xml:space="preserve">
<g>
	<g>
		<path fill="#00ABFF" d="M40.699,3.357h0.984v5.344h7.312v0.984h-7.312v8.156h8.719v0.984H33.667v-0.984h7.031V3.357z"/>
		<path fill="#00ABFF" d="M51.949,12.708c-0.141-0.422-0.281-0.796-0.422-1.125c1.593-2.343,2.858-5.133,3.797-8.367l1.055,0.211
			C55.91,4.74,55.44,6.006,54.972,7.224V19.88h-0.984V9.263C53.331,10.576,52.652,11.724,51.949,12.708z M58.558,12.568
			c0.094-0.281,0.234-0.726,0.422-1.336c0.141-0.515,0.257-0.89,0.352-1.125h-2.953V9.263h3.164
			c0.281-0.937,0.538-1.828,0.773-2.672h-3.023V5.677h3.234c0.234-0.844,0.422-1.663,0.562-2.461l1.055,0.141
			c-0.188,0.75-0.398,1.524-0.633,2.32h6.328v0.914H61.3c-0.095,0.517-0.306,1.243-0.633,2.18c-0.047,0.235-0.095,0.399-0.141,0.492
			h8.016v0.844h-8.227c-0.235,0.891-0.492,1.758-0.773,2.602h7.875v0.985l-4.078,4.147c0.797,0.328,1.617,0.75,2.461,1.266
			l-0.703,0.844c-1.547-0.984-3.492-2.132-5.836-3.445c-0.703-0.374-1.242-0.678-1.617-0.914l0.562-0.703
			c1.359,0.751,2.788,1.572,4.289,2.461l3.797-3.796h-7.734V12.568z"/>
		<path fill="#00ABFF" d="M72.48,17.771c0.656-0.422,1.382-0.937,2.18-1.547c0.046,0.096,0.07,0.281,0.07,0.562
			c0.046,0.281,0.07,0.47,0.07,0.562c-1.172,0.656-2.227,1.359-3.164,2.109l-0.633-0.844c0.327-0.375,0.492-0.818,0.492-1.336
			v-7.242h-1.969V9.193h2.953V17.771z M72.902,6.732c-0.75-0.844-1.617-1.71-2.602-2.602l0.703-0.633
			c1.125,1.032,2.015,1.875,2.672,2.531L72.902,6.732z M74.519,4.763V3.919h11.25v0.844h-6.68l-0.422,2.461h5.836v3.727h2.039v0.844
			H74.027v-0.844h3.094l0.492-2.953h-2.672V7.224h2.812l0.422-2.461H74.519z M75.644,13.903h9.281v5.977h-0.914v-1.125h-7.383v1.125
			h-0.984V13.903z M76.628,14.747v3.164h7.383v-3.164H76.628z M83.519,7.998h-4.992l-0.492,2.953h5.484V7.998z"/>
		<path fill="#00ABFF" d="M91.746,6.943l0.773-0.492c0.234,0.235,0.538,0.587,0.914,1.055c0.281,0.329,0.492,0.587,0.633,0.773
			l-0.773,0.492h4.57c0.562-0.796,1.101-1.593,1.617-2.391l0.914,0.562c-0.047,0.047-0.117,0.141-0.211,0.281
			c-0.517,0.657-0.938,1.172-1.266,1.547h5.484v0.914H87.597V8.771h5.625C92.753,8.115,92.261,7.505,91.746,6.943z M95.05,3.287
			l0.914-0.352c0.141,0.188,0.327,0.492,0.562,0.914c0.234,0.376,0.397,0.68,0.492,0.914l-0.773,0.352h7.312v0.844H88.511V5.115
			h7.523c-0.141-0.327-0.376-0.773-0.703-1.336C95.191,3.545,95.096,3.381,95.05,3.287z M89.777,11.583h12.375v8.226h-0.984v-1.055
			H90.761v1.125h-0.984V11.583z M90.761,12.427v2.46h10.406v-2.46H90.761z M90.761,15.661v2.25h10.406v-2.25H90.761z"/>
	</g>
	<g>
		<path fill="#00ABFF" d="M21.035,12h-20c-0.552,0-1-0.448-1-1s0.448-1,1-1h20c0.553,0,1,0.448,1,1S21.587,12,21.035,12z"/>
	</g>
	<g>
		<path fill="#00ABFF" d="M11.035,22c-0.552,0-1-0.447-1-1V1c0-0.552,0.448-1,1-1c0.553,0,1,0.448,1,1v20
			C12.035,21.553,11.587,22,11.035,22z"/>
	</g>
</g>
</svg>
