<?xml version="1.0" encoding="utf-8"?>
<!-- Generator: Adobe Illustrator 16.0.0, SVG Export Plug-In . SVG Version: 6.00 Build 0)  -->
<!DOCTYPE svg PUBLIC "-//W3C//DTD SVG 1.1//EN" "http://www.w3.org/Graphics/SVG/1.1/DTD/svg11.dtd">
<svg version="1.1" id="图层_1" xmlns="http://www.w3.org/2000/svg" xmlns:xlink="http://www.w3.org/1999/xlink" x="0px" y="0px"
	 width="104.437px" height="22px" viewBox="0 0 104.437 22" enable-background="new 0 0 104.437 22" xml:space="preserve">
<g>
	<g>
		<path fill="#0A8CBE" d="M40.664,3.356h0.984V8.7h7.312v0.984h-7.312v8.157h8.719v0.984H33.633v-0.984h7.031V3.356z"/>
		<path fill="#0A8CBE" d="M51.914,12.708c-0.141-0.422-0.281-0.796-0.422-1.125c1.593-2.343,2.858-5.133,3.797-8.367l1.055,0.211
			c-0.469,1.313-0.938,2.579-1.406,3.797v12.657h-0.984V9.263C53.296,10.576,52.617,11.724,51.914,12.708z M58.523,12.567
			c0.094-0.281,0.234-0.726,0.422-1.336c0.141-0.515,0.258-0.89,0.352-1.125h-2.953V9.263h3.164
			c0.281-0.937,0.539-1.828,0.773-2.672h-3.023V5.677h3.234c0.234-0.844,0.422-1.663,0.562-2.461l1.055,0.141
			c-0.188,0.751-0.398,1.524-0.633,2.32h6.328v0.914h-6.539c-0.094,0.517-0.305,1.243-0.633,2.18
			c-0.047,0.235-0.094,0.399-0.141,0.492h8.016v0.844h-8.227c-0.234,0.892-0.492,1.758-0.773,2.602h7.875v0.985l-4.078,4.148
			c0.797,0.326,1.617,0.748,2.461,1.266l-0.703,0.844c-1.547-0.984-3.492-2.133-5.836-3.445c-0.703-0.375-1.242-0.68-1.617-0.914
			l0.562-0.703c1.359,0.75,2.789,1.57,4.289,2.461l3.797-3.797h-7.734V12.567z"/>
		<path fill="#0A8CBE" d="M70.406,3.778h15.117v16.103h-0.914v-0.844H71.32v0.844h-0.914V3.778z M71.32,4.622v13.501h13.289V4.622
			H71.32z M73.007,9.825c-0.141-0.233-0.328-0.444-0.562-0.633c1.453-1.125,2.695-2.437,3.727-3.938l0.773,0.422
			c-0.094,0.141-0.281,0.376-0.562,0.703c-0.141,0.141-0.234,0.259-0.281,0.352H82.5v0.844c-0.938,1.125-2.039,2.063-3.305,2.812
			c1.359,0.562,2.906,0.984,4.641,1.266c-0.141,0.281-0.258,0.562-0.352,0.844c-1.875-0.374-3.586-0.914-5.133-1.617
			c-1.641,0.844-3.586,1.501-5.836,1.969c-0.141-0.281-0.281-0.562-0.422-0.844c2.062-0.327,3.867-0.866,5.414-1.617
			c-0.938-0.608-1.828-1.336-2.672-2.18c-0.141,0.095-0.352,0.281-0.633,0.562C74.109,8.911,73.71,9.263,73.007,9.825z
			 M73.64,15.803l0.281-0.844c2.906,0.422,5.578,0.867,8.016,1.336l-0.281,0.844C78.609,16.482,75.937,16.037,73.64,15.803z
			 M81.445,7.505h-5.977l-0.07,0.07c0.844,0.984,1.828,1.782,2.953,2.391C79.57,9.263,80.601,8.443,81.445,7.505z M75.468,13.482
			l0.281-0.845c0.516,0.095,1.359,0.235,2.531,0.423c1.219,0.234,2.062,0.398,2.531,0.492l-0.281,0.773
			C78.843,13.951,77.156,13.67,75.468,13.482z"/>
		<path fill="#0A8CBE" d="M98.671,3.146h0.984v5.133h4.781v0.914H91.781v1.336c0,0.798,0,1.524,0,2.18h8.648v7.173h-1.055v-6.258
			H91.71c-0.141,2.344-1.055,4.404-2.742,6.188c-0.281-0.281-0.562-0.492-0.844-0.633c1.125-1.125,1.852-2.25,2.18-3.375
			c0.328-1.078,0.492-2.813,0.492-5.204V3.497h0.984v4.781h6.891V3.146z"/>
	</g>
	<g>
		<path fill="#0A8CBE" d="M21,12H1c-0.552,0-1-0.447-1-1c0-0.552,0.448-1,1-1h20c0.552,0,1,0.448,1,1C22,11.553,21.552,12,21,12z"/>
	</g>
	<g>
		<path fill="#0A8CBE" d="M11,22c-0.552,0-1-0.447-1-1V1c0-0.552,0.448-1,1-1s1,0.448,1,1v20C12,21.553,11.552,22,11,22z"/>
	</g>
</g>
</svg>
