<?xml version="1.0" encoding="utf-8"?>
<!-- Generator: Adobe Illustrator 16.0.0, SVG Export Plug-In . SVG Version: 6.00 Build 0)  -->
<!DOCTYPE svg PUBLIC "-//W3C//DTD SVG 1.1//EN" "http://www.w3.org/Graphics/SVG/1.1/DTD/svg11.dtd">
<svg version="1.1" id="图层_1" xmlns="http://www.w3.org/2000/svg" xmlns:xlink="http://www.w3.org/1999/xlink" x="0px" y="0px"
	 width="47.293px" height="48px" viewBox="0 0 47.293 48" enable-background="new 0 0 47.293 48" xml:space="preserve">
<g>
	<g transform="scale(0.1953125, 0.1953125)">
		<path fill="#D7D8DA" d="M80.39,148.32H40.5c-2.31,0-4.205,1.89-4.205,4.205v89.03c0,2.315,1.895,4.205,4.205,4.205h39.89
			c2.31,0,4.205-1.89,4.205-4.205v-89.03C84.595,150.21,82.7,148.32,80.39,148.32z M201.626,148.32H161.74
			c-2.315,0-4.205,1.89-4.205,4.205v89.03c0,2.315,1.89,4.205,4.205,4.205h39.885c2.315,0,4.205-1.89,4.205-4.205v-89.03
			C205.831,150.21,203.941,148.32,201.626,148.32z M242.061,116.82C239.796,51.92,186.48,0,121.03,0S2.265,51.92,0,116.82h-0.08
			v80.22h24.245v-74.9c0-52.665,41.635-96.49,94.285-97.86c54.675-1.42,99.445,42.48,99.445,96.83v75.93h24.245v-80.22H242.061z"/>
	</g>
</g>
</svg>
