<?xml version="1.0" standalone="no"?><!DOCTYPE svg PUBLIC "-//W3C//DTD SVG 1.1//EN" "http://www.w3.org/Graphics/SVG/1.1/DTD/svg11.dtd"><svg t="1480641088848" class="icon" style="" viewBox="0 0 2299 1024" version="1.1" xmlns="http://www.w3.org/2000/svg" p-id="3404" xmlns:xlink="http://www.w3.org/1999/xlink" width="449.0234375" height="200"><defs><style type="text/css"></style></defs><path d="M2199.081 294.916c-28.178-0.063-50.997-22.916-51.009-51.101 0.063-28.185 22.926-51.010 51.12-51.010 0.005 0 0.014 0 0.019 0 28.167 0.037 50.99 22.881 50.99 51.056 0 28.197-22.859 51.056-51.056 51.056-0.022 0-0.047 0-0.069 0zM2250.164 380.37c-0.020-28.149-22.809-50.972-50.946-51.045-0.013 0-0.019 0-0.025 0-28.194 0-51.057 22.823-51.12 51.003v357.401c0 0.012 0 0.023 0 0.037 0 28.192 22.853 51.045 51.045 51.045 28.179 0 51.025-22.833 51.045-51.007v-357.433zM1458.842 294.916c-28.188-0.032-51.027-22.89-51.027-51.083 0-0.005 0-0.014 0-0.019 0.053-28.181 22.911-51.008 51.101-51.008 0.014 0 0.027 0 0.038 0 28.171 0.032 50.996 22.879 50.996 51.056 0 28.197-22.859 51.056-51.056 51.056-0.019 0-0.038 0-0.058 0zM1611.997 788.755c-28.179-0.053-51.007-22.899-51.027-51.081 0.053-28.195 22.919-51.029 51.12-51.029 0.005 0 0.014 0 0.019 0 28.173 0.032 50.997 22.879 50.997 51.056 0 28.197-22.859 51.056-51.056 51.056-0.019 0-0.038 0-0.058 0zM1509.907 380.37c-0.012-28.148-22.795-50.972-50.928-51.045-0.018 0-0.032 0-0.045 0-28.191 0-51.049 22.826-51.101 51.005v357.399c0 28.126 22.865 51.009 51.009 51.045s51.045-22.847 51.065-50.972v-357.43zM284.736 329.324h-0.093c-126.87 0-229.724 102.834-229.724 229.686v178.659c0.748 27.619 23.316 49.725 51.046 49.725 27.705 0 50.257-22.063 51.043-49.577l0.001-178.806c0.012-70.482 57.15-127.614 127.632-127.614 0 0 0 0 0 0 0.005 0 0.013 0 0.018 0 28.15 0 50.977-22.805 51.009-50.949 0-0.007 0-0.016 0-0.021 0-28.163-22.784-51.007-50.925-51.101zM1305.798 329.324h-0.093c-72.219 0-136.63 33.33-178.716 85.436-42.358-52.287-106.562-85.436-178.508-85.436-0.067 0-0.133 0-0.199 0h-0.083c-28.167 0.085-50.972 22.939-50.972 51.119 0 0 0 0 0 0 0.063 28.155 22.901 50.954 51.065 50.954 0 0 0 0 0 0 0 0 0 0 0 0 70.48 0 127.614 57.136 127.614 127.614h0.074v178.659c0.748 27.619 23.316 49.725 51.046 49.725 27.705 0 50.257-22.063 51.043-49.577l0.001-178.806c0.012-70.482 57.15-127.614 127.632-127.614 0 0 0 0 0 0 0 0 0 0 0 0 28.159 0 50.993-22.8 51.045-50.948 0-0.004 0-0.004 0-0.004 0-28.175-22.791-51.025-50.943-51.119zM2097.008 380.37c-0.012-28.148-22.795-50.972-50.928-51.045h-102.21c-126.852 0-229.724 102.834-229.724 229.706s102.873 229.706 229.724 229.706h102.11c28.158-0.020 50.982-22.82 51.045-50.965l-0.018-0.062 0.018-0.018-0.018-357.321zM1816.217 559.049c0-70.483 57.133-127.623 127.613-127.632h51.066v255.229h-51.065c0 0 0 0 0 0-70.473 0-127.603-57.124-127.614-127.595zM846.183 380.406c0-0.023 0-0.054 0-0.084 0-28.192-22.853-51.045-51.045-51.045-28.162 0-50.997 22.806-51.045 50.958 0 0.618 0.074 1.195 0.093 1.844h-0.093v176.987c0 70.49-57.124 127.596-127.614 127.596s-127.632-57.106-127.632-127.596h0.018v-176.987h-0.093c0.018-0.577 0.093-1.153 0.093-1.674-0.498-27.818-23.167-50.177-51.057-50.177-27.831 0-50.463 22.266-51.052 49.955-0.001 0.669 0.074 1.245 0.11 1.895h-0.13v176.987c0 126.87 102.854 229.706 229.724 229.706s229.706-102.834 229.706-229.706v-176.987h-0.093c0.055-0.595 0.112-1.133 0.112-1.674z" fill="#ffffff" p-id="3405"></path></svg>