<?xml version="1.0" encoding="utf-8"?>
<!-- Generator: Adobe Illustrator 16.0.0, SVG Export Plug-In . SVG Version: 6.00 Build 0)  -->
<!DOCTYPE svg PUBLIC "-//W3C//DTD SVG 1.1//EN" "http://www.w3.org/Graphics/SVG/1.1/DTD/svg11.dtd">
<svg version="1.1" id="图层_1" xmlns="http://www.w3.org/2000/svg" xmlns:xlink="http://www.w3.org/1999/xlink" x="0px" y="0px"
	 width="50px" height="50px" viewBox="0 0 50 50" enable-background="new 0 0 50 50" xml:space="preserve">
<g>
	<rect fill="#191E24" width="50" height="50"/>
</g>
<g>
	<g>
		<g>
			<g>
				<g>
					<path fill="#00A8FF" d="M19.385,34.473c-6.216,0-6.216-5.295-6.216-7.037c0-0.451,0.368-0.818,0.82-0.818
						c0.454,0,0.822,0.367,0.822,0.818c0,3.832,1.325,5.395,4.573,5.395c0.454,0,0.821,0.367,0.821,0.824
						C20.206,34.105,19.837,34.473,19.385,34.473z"/>
				</g>
			</g>
			<g>
				<path fill="#00A8FF" d="M13.989,28.258c-0.454,0-0.82-0.367-0.82-0.822v-6.882c0-0.454,0.368-0.819,0.82-0.819
					c0.454,0,0.822,0.365,0.822,0.819v6.882C14.812,27.891,14.443,28.258,13.989,28.258z"/>
			</g>
		</g>
		<g>
			<g>
				<g>
					<path fill="#00A8FF" d="M19.385,34.473c-0.454,0-0.82-0.367-0.82-0.818c0-0.457,0.366-0.824,0.82-0.824
						c3.248,0,4.574-1.562,4.574-5.395c0-0.451,0.367-0.818,0.82-0.818s0.819,0.367,0.819,0.818
						C25.599,29.178,25.599,34.473,19.385,34.473z"/>
				</g>
			</g>
			<g>
				<path fill="#00A8FF" d="M24.779,28.258c-0.454,0-0.82-0.367-0.82-0.822v-6.882c0-0.454,0.367-0.819,0.82-0.819
					s0.819,0.365,0.819,0.819v6.882C25.599,27.891,25.232,28.258,24.779,28.258z"/>
			</g>
		</g>
	</g>
	<g>
		<g>
			<path fill="#00A8FF" d="M45.196,34.482c-0.454,0-0.821-0.367-0.821-0.824v-13.12c0-0.453,0.367-0.82,0.821-0.82
				c0.453,0,0.82,0.367,0.82,0.82v13.12C46.017,34.111,45.649,34.482,45.196,34.482z"/>
		</g>
		<g>
			<circle fill="#00A8FF" cx="45.196" cy="16.571" r="1.053"/>
		</g>
	</g>
	<g>
		<g>
			<path fill="#00A8FF" d="M34.087,28.334c-0.452,0-0.818-0.367-0.818-0.822c0-4.162,3.353-7.813,7.173-7.813
				c0.453,0,0.82,0.366,0.82,0.82c0,0.453-0.367,0.82-0.82,0.82c-3.165,0-5.532,3.259-5.532,6.173
				C34.909,27.963,34.541,28.334,34.087,28.334z"/>
		</g>
	</g>
	<g>
		<path fill="#00A8FF" d="M34.087,34.436c-0.452,0-0.818-0.367-0.818-0.82v-6.102c0-0.451,0.367-0.818,0.818-0.818
			c0.454,0,0.822,0.367,0.822,0.818v6.102C34.909,34.068,34.541,34.436,34.087,34.436z"/>
	</g>
	<g>
		<g>
			<g>
				<path fill="#00A8FF" d="M4.573,28.369c-0.454,0-0.822-0.367-0.822-0.822c0-4.162,3.354-7.814,7.173-7.814
					c0.454,0,0.82,0.366,0.82,0.82c0,0.453-0.367,0.82-0.82,0.82c-3.166,0-5.53,3.259-5.53,6.174
					C5.396,28.002,5.027,28.369,4.573,28.369z"/>
			</g>
		</g>
		<g>
			<path fill="#00A8FF" d="M4.573,34.473c-0.454,0-0.822-0.367-0.822-0.818v-6.102c0-0.455,0.368-0.82,0.822-0.82
				s0.82,0.365,0.82,0.82v6.102C5.396,34.105,5.027,34.473,4.573,34.473z"/>
		</g>
	</g>
	<g>
		<g>
			<path fill="#00A8FF" d="M34.087,28.334c-0.452,0-0.818-0.367-0.818-0.822c0-2.912-2.366-6.173-5.533-6.173
				c-0.453,0-0.82-0.367-0.82-0.82c0-0.454,0.368-0.82,0.82-0.82c3.821,0,7.174,3.652,7.174,7.813
				C34.909,27.963,34.541,28.334,34.087,28.334z"/>
		</g>
	</g>
</g>
</svg>
