<?xml version="1.0" encoding="UTF-8" standalone="no"?>
<svg width="318px" height="408px" viewBox="0 0 318 408" version="1.1" xmlns="http://www.w3.org/2000/svg" xmlns:xlink="http://www.w3.org/1999/xlink">
    <!-- Generator: Sketch 3.8.1 (29687) - http://www.bohemiancoding.com/sketch -->
    <title>背面纹样</title>
    <desc>Created with Sketch.</desc>
    <defs></defs>
    <g id="Page-1" stroke="none" stroke-width="1" fill="none" fill-rule="evenodd">
        <g id="banner2" transform="translate(-562.000000, -303.000000)">
            <g id="背面纹样" transform="translate(562.000000, 292.000000)">
                <text id="產" font-family=".PingFangSC-Light, .PingFang SC" font-size="105" font-weight="300" fill="#000000">
                    <tspan x="213" y="350">產</tspan>
                </text>
                <path d="M58.381725,12.4870397 C69.7423398,11 259.482793,11 259.482793,11 C259.482793,11 315.990624,11.5735338 315.99062,54.0773119 C315.990615,96.5810899 318.635073,138.829131 315.990613,162.089314 C313.346153,185.349497 308.219321,200.659427 262.565622,200.659414 C216.911923,200.6594 173.061892,202.322204 173.061892,202.322204 L92.8601697,258 L92.3249564,202.542882 C92.3249564,202.542882 40.853487,202.678922 22.0514416,187.621439 C3.24939632,172.563957 0.361872272,157.818411 0.361872272,157.818411 C0.361872272,157.818411 -0.899340562,79.0107318 2.97775179,47.0515116 C6.85484414,15.0922914 47.0211103,13.9740793 58.381725,12.4870397 Z" id="Path-7182" fill="#FFFFFF"></path>
                <text id="我是艾如意" font-family=".PingFangSC-Light, .PingFang SC" font-size="29.2116493" font-weight="300" line-spacing="60" letter-spacing="4.5999999" fill="#000000">
                    <tspan x="8" y="275">我是</tspan>
                    <tspan x="75.6232984" y="275" font-size="40.896309">艾如意</tspan>
                    <tspan x="8" y="335" font-size="40.896309">想要给</tspan>
                    <tspan x="144.488927" y="335" font-size="40.896309">你</tspan>
                </text>
                <text id="聊天机器人" font-family=".PingFangSC-Light, .PingFang SC" font-size="52.5809688" font-weight="300" line-spacing="55" letter-spacing="10" fill="#000000">
                    <tspan x="6" y="410">聊天机器</tspan>
                    <tspan x="256.323875" y="410">人</tspan>
                </text>
                <g id="ruyi智能君--copy-5" transform="translate(41.312105, 0.169348)">
                    <g id="Group">
                        <path d="M180.397147,61.6499297 L185.698148,61.6499297 L185.698148,56.6665856 L213.138627,56.6665856 L213.138627,61.6499297 L207.837625,61.6499297 L207.837625,66.6332739 L213.138627,66.6332739 L213.138627,61.6499297 L218.439628,61.6499297 L218.439628,92.4294083 L213.138627,92.4294083 L213.138627,82.46272 L207.525801,82.46272 L207.525801,92.4294083 C205.65486,92.4294083 203.783918,92.7225462 201.912976,92.7225462 L201.912976,97.7058903 L196.300151,97.7058903 L196.300151,93.0156841 L190.99915,93.0156841 L190.99915,97.9990282 L185.386325,97.9990282 L185.386325,97.9990282 L185.386325,93.0156841 L179.7735,93.0156841 L179.7735,97.9990282 L179.7735,97.9990282 L174.160674,97.9990282 L174.160674,97.9990282 L174.160674,87.739202 L168.547849,87.739202 L168.547849,92.7225462 L163.246848,92.7225462 L163.246848,92.7225462 L163.246848,82.1695821 L168.859673,82.1695821 L168.859673,77.4793758 L185.386325,77.4793758 L185.386325,82.46272 L190.687326,82.46272 L190.687326,87.4460641 L201.289329,87.4460641 L201.289329,82.46272 L195.988328,82.46272 L195.988328,77.186238 L190.687326,77.186238 L190.687326,71.9097559 L174.472498,71.9097559 L174.472498,66.9264118 L179.7735,66.9264118 C180.397147,64.8744465 180.397147,63.4087571 180.397147,61.6499297 L180.397147,61.6499297 L180.397147,61.6499297 Z M202.536624,71.9097559 L202.536624,76.8931001 L213.138627,76.8931001 L213.138627,71.9097559 L202.536624,71.9097559 L202.536624,71.9097559 Z M202.2248,61.9430676 L191.622797,61.9430676 L191.622797,66.6332739 L202.2248,66.6332739 L202.2248,61.9430676 L202.2248,61.9430676 Z" id="Shape" fill="#000000"></path>
                        <path d="M76.5598826,25.8871071 L81.8608841,25.8871071 L81.8608841,20.9037629 L87.1618856,20.9037629 L87.1618856,25.5939692 L92.7747107,25.5939692 L92.7747107,20.610625 L98.0757121,20.610625 L98.0757121,15.6272809 L125.51619,15.6272809 L125.51619,20.610625 L130.817192,20.610625 L130.817192,25.8871071 L136.430017,25.8871071 L136.430017,25.8871071 L136.430017,36.1469332 L119.903365,36.1469332 L119.903365,30.8704512 L114.602364,30.8704512 L114.602364,25.5939692 L119.903365,25.5939692 L119.903365,20.610625 L109.301362,20.610625 L109.301362,30.8704512 L103.688537,30.8704512 L103.688537,41.1302774 L98.3875357,41.1302774 L98.3875357,56.3734477 L87.4737092,56.3734477 L87.4737092,51.0969657 L92.7747107,51.0969657 L92.7747107,46.1136215 L87.4737092,46.1136215 L87.4737092,40.8371395 L93.0865343,40.8371395 L93.0865343,35.8537954 L98.3875357,35.8537954 L98.3875357,30.8704512 L87.4737092,30.8704512 L87.4737092,35.8537954 L81.8608841,35.8537954 L81.8608841,40.8371395 L76.5598826,40.8371395 C76.8717062,35.8537954 76.8717062,30.8704512 76.5598826,25.8871071 L76.5598826,25.8871071 L76.5598826,25.8871071 Z" id="Shape" fill="#000000"></path>
                        <path d="M164.182319,195.02767 L164.182319,184.767844 L158.569494,184.767844 L158.569494,174.508018 L158.569494,174.508018 L169.48332,174.508018 L169.48332,164.248192 L164.182319,164.248192 L164.182319,159.264847 L180.70897,159.264847 L180.70897,153.988365 L180.70897,153.988365 L186.321796,153.988365 L186.321796,153.988365 L186.321796,159.264847 L197.235622,159.264847 L197.235622,159.264847 L197.235622,164.248192 L202.536624,164.248192 L202.536624,169.524674 L208.149449,169.524674 L208.149449,169.524674 L208.149449,174.801156 L208.149449,174.801156 L202.536624,174.801156 L202.536624,180.077638 L197.235622,180.077638 L197.235622,185.060982 L197.235622,185.060982 L175.407969,185.060982 L175.407969,190.044326 L180.397147,190.044326 L180.397147,195.320808 L175.096145,195.320808 L175.096145,205.580634 L164.182319,205.580634 L164.182319,200.59729 L164.182319,200.59729 L169.48332,200.59729 L169.48332,195.320808 C167.300555,195.02767 165.741437,195.02767 164.182319,195.02767 L164.182319,195.02767 L164.182319,195.02767 Z M191.310973,164.541329 L175.096145,164.541329 L175.096145,179.491362 L191.310973,179.491362 L191.310973,164.541329 L191.310973,164.541329 Z" id="Shape" fill="#000000"></path>
                        <path d="M27.6035749,159.264847 L27.6035749,153.988365 L27.6035749,153.988365 L38.5174014,153.988365 L38.5174014,148.711883 L27.6035749,148.711883 L27.6035749,148.711883 L27.6035749,143.435401 L27.6035749,143.435401 L33.2164,143.435401 L33.2164,138.158919 L33.2164,138.158919 L38.8292251,138.158919 L38.8292251,143.142263 L44.1302265,143.142263 L44.1302265,138.158919 L38.8292251,138.158919 L38.8292251,127.899093 L44.4420501,127.899093 L44.4420501,133.175575 L49.7430516,133.175575 L49.7430516,138.158919 L60.6568782,138.158919 L60.6568782,127.899093 L82.4845313,127.899093 L82.4845313,143.435401 L82.4845313,143.435401 L76.8717062,143.435401 L76.8717062,133.175575 L71.5707048,133.175575 L71.5707048,143.142263 L76.8717062,143.142263 L76.8717062,148.418745 L71.2588811,148.418745 L71.2588811,153.40209 L71.2588811,153.40209 L65.646056,153.40209 L65.646056,153.40209 L65.646056,143.142263 L60.033231,143.142263 L60.033231,153.40209 L60.033231,153.40209 L49.1194044,153.40209 L49.1194044,148.418745 L54.4204059,148.418745 L54.4204059,143.435401 L49.1194044,143.435401 L49.1194044,148.418745 L43.8184029,148.418745 L43.8184029,158.678572 C38.2055778,159.264847 32.9045763,159.264847 27.6035749,159.264847 L27.6035749,159.264847 L27.6035749,159.264847 Z" id="Shape" fill="#000000"></path>
                        <path d="M16.6897483,51.3901036 L16.6897483,15.9204188 L54.4204059,15.9204188 L54.4204059,51.3901036 L16.6897483,51.3901036 L16.6897483,51.3901036 Z M49.431228,20.9037629 L22.614397,20.9037629 L22.614397,46.1136215 L49.431228,46.1136215 L49.431228,20.9037629 L49.431228,20.9037629 Z" id="Shape" fill="#000000"></path>
                        <path d="M218.439628,15.6272809 L218.439628,51.0969657 L180.70897,51.0969657 L180.70897,15.6272809 L218.439628,15.6272809 L218.439628,15.6272809 Z M186.009972,20.610625 L186.009972,45.8204836 L212.826803,45.8204836 L212.826803,20.610625 L186.009972,20.610625 L186.009972,20.610625 Z" id="Shape" fill="#000000"></path>
                        <path d="M54.7322295,169.524674 L54.7322295,204.994358 L17.0015719,204.994358 L17.0015719,169.524674 L54.7322295,169.524674 L54.7322295,169.524674 Z M22.3025734,200.011014 L49.1194044,200.011014 L49.1194044,174.801156 L22.3025734,174.801156 L22.3025734,200.011014 L22.3025734,200.011014 Z" id="Shape" fill="#000000"></path>
                        <path d="M207.837625,123.208887 L207.837625,128.192231 L196.923798,128.192231 L196.923798,128.192231 L196.923798,117.932405 L186.009972,117.932405 L186.009972,112.949061 L180.70897,112.949061 L180.70897,117.932405 L175.096145,117.932405 L175.096145,123.208887 L169.48332,123.208887 L169.48332,117.932405 L163.870495,117.932405 L163.870495,112.949061 L158.569494,112.949061 L158.569494,107.965716 L164.182319,107.965716 L164.182319,102.689234 L169.48332,102.689234 L169.48332,97.7058903 L174.784322,97.7058903 L174.784322,97.7058903 L174.784322,102.689234 L180.397147,102.689234 L180.397147,97.7058903 L180.397147,97.7058903 L186.009972,97.7058903 L186.009972,97.7058903 L186.009972,102.689234 L191.310973,102.689234 L191.310973,112.949061 L202.2248,112.949061 L202.2248,112.949061 L202.2248,123.208887 L207.837625,123.208887 L207.837625,123.208887 L207.837625,123.208887 Z" id="Shape" fill="#000000"></path>
                        <path d="M49.431228,66.9264118 L44.1302265,66.9264118 L44.1302265,56.6665856 L65.9578797,56.6665856 L65.9578797,51.3901036 L65.9578797,51.3901036 L71.5707048,51.3901036 L71.5707048,61.6499297 L82.4845313,61.6499297 L82.4845313,66.9264118 L88.0973564,66.9264118 L88.0973564,72.2028938 L77.1835298,72.2028938 L77.1835298,77.186238 L88.0973564,77.186238 L88.0973564,82.46272 L60.9687018,82.46272 L60.9687018,77.186238 L65.9578797,77.186238 L65.9578797,72.2028938 L60.6568782,72.2028938 L60.6568782,67.2195497 L65.9578797,67.2195497 L65.9578797,62.2362055 L60.6568782,62.2362055 L60.6568782,67.2195497 L55.0440531,67.2195497 L55.0440531,67.2195497 L55.0440531,62.2362055 L49.431228,62.2362055 C49.431228,63.701895 49.431228,65.1675844 49.431228,66.9264118 L49.431228,66.9264118 L49.431228,66.9264118 Z" id="Shape" fill="#000000"></path>
                        <path d="M22.3025734,102.689234 L22.3025734,97.7058903 L17.0015719,97.7058903 L17.0015719,66.9264118 L22.3025734,66.9264118 L22.3025734,61.6499297 L27.9153985,61.6499297 L27.9153985,56.6665856 L33.2164,56.6665856 L33.2164,61.6499297 L38.5174014,61.6499297 L38.5174014,66.6332739 L33.2164,66.6332739 L33.2164,71.9097559 L33.2164,71.9097559 L22.3025734,71.9097559 L22.3025734,87.4460641 L27.6035749,87.4460641 L27.6035749,92.4294083 L32.9045763,92.4294083 L32.9045763,87.4460641 L38.5174014,87.4460641 L38.5174014,87.4460641 L38.5174014,92.7225462 L49.431228,92.7225462 L49.431228,97.9990282 L55.0440531,97.9990282 L55.0440531,103.27551 L44.1302265,103.27551 L44.1302265,103.27551 L44.1302265,98.2921661 L27.6035749,98.2921661 L27.6035749,103.27551 L27.6035749,103.27551 C25.7326332,102.689234 23.8616915,102.689234 22.3025734,102.689234 L22.3025734,102.689234 L22.3025734,102.689234 Z" id="Shape" fill="#000000"></path>
                        <path d="M65.9578797,179.7845 L60.6568782,179.7845 L60.6568782,164.541329 L65.9578797,164.541329 L65.9578797,169.231536 L71.5707048,169.231536 L71.5707048,153.988365 L71.5707048,153.988365 L82.4845313,153.988365 L82.4845313,143.728539 L82.4845313,143.728539 L93.3983579,143.728539 L93.3983579,149.005021 L88.0973564,149.005021 L88.0973564,153.988365 L98.6993594,153.988365 L98.6993594,158.971709 L98.6993594,158.971709 L87.7855328,158.971709 L87.7855328,169.231536 L82.1727077,169.231536 L82.1727077,158.971709 L76.8717062,158.971709 L76.8717062,168.938398 L82.1727077,168.938398 L82.1727077,174.21488 L82.1727077,174.21488 L76.5598826,174.21488 L76.5598826,179.491362 L76.5598826,179.491362 L70.9470575,179.491362 L70.9470575,179.491362 L70.9470575,174.508018 L65.3342324,174.508018 C65.646056,176.559983 65.646056,178.025672 65.9578797,179.7845 L65.9578797,179.7845 L65.9578797,179.7845 Z" id="Shape" fill="#000000"></path>
                        <path d="M27.6035749,123.208887 L27.6035749,112.949061 L16.6897483,112.949061 L16.6897483,102.689234 L21.9907498,102.689234 L21.9907498,102.689234 L21.9907498,107.672579 L27.6035749,107.672579 L27.6035749,102.689234 L27.6035749,102.689234 L44.1302265,102.689234 L44.1302265,102.689234 L44.1302265,107.965716 L55.0440531,107.965716 L55.0440531,112.949061 L49.431228,112.949061 L49.431228,118.225543 L43.8184029,118.225543 L43.8184029,123.502025 L38.5174014,123.502025 L38.5174014,113.242199 L33.2164,113.242199 L33.2164,123.502025 C31.3454583,123.208887 29.4745166,123.208887 27.6035749,123.208887 L27.6035749,123.208887 L27.6035749,123.208887 Z" id="Shape" fill="#000000"></path>
                        <path d="M196.923798,128.485369 L196.923798,133.761851 L196.923798,133.761851 L191.310973,133.761851 L191.310973,139.038333 L186.009972,139.038333 L186.009972,144.021677 L191.310973,144.021677 L191.310973,154.281503 L185.698148,154.281503 L185.698148,154.281503 L185.698148,149.298159 L180.085323,149.298159 L180.085323,154.281503 L180.085323,154.281503 L163.558672,154.281503 L163.558672,149.005021 L157.945846,149.005021 L157.945846,144.021677 L169.171497,144.021677 L169.171497,148.711883 L174.472498,148.711883 L174.472498,143.728539 L179.7735,143.728539 L179.7735,133.468713 L185.386325,133.468713 L185.386325,123.208887 L190.99915,123.208887 L190.99915,128.485369 C193.493739,128.485369 195.052857,128.485369 196.923798,128.485369 L196.923798,128.485369 L196.923798,128.485369 Z" id="Shape" fill="#000000"></path>
                        <path d="M114.914187,179.491362 L114.914187,184.767844 L114.914187,184.767844 L104.312184,184.767844 L104.312184,195.02767 L109.613186,195.02767 L109.613186,190.044326 L114.914187,190.044326 L114.914187,190.044326 L114.914187,195.02767 L120.215189,195.02767 L120.215189,200.011014 L98.6993594,200.011014 L98.6993594,195.02767 L93.3983579,195.02767 L93.3983579,190.044326 L98.3875357,190.044326 L98.3875357,184.767844 L93.3983579,184.767844 L93.3983579,179.491362 C100.570301,179.7845 107.742244,179.7845 114.914187,179.491362 C114.914187,179.7845 114.914187,179.491362 114.914187,179.491362 L114.914187,179.491362 Z" id="Shape" fill="#000000"></path>
                        <path d="M131.440839,169.524674 L120.527012,169.524674 L120.527012,169.524674 L120.527012,164.248192 L120.527012,164.248192 L126.139838,164.248192 L126.139838,158.971709 L131.440839,158.971709 L131.440839,148.711883 L136.741841,148.711883 L136.741841,143.728539 L131.440839,143.728539 L131.440839,135.520678 C135.182722,135.520678 139.236429,136.106954 142.354666,133.468713 L142.354666,153.988365 L136.741841,153.988365 L136.741841,164.248192 L136.741841,164.248192 L131.129015,164.248192 C131.129015,166.300157 131.129015,167.765846 131.440839,169.524674 L131.440839,169.524674 L131.440839,169.524674 Z" id="Shape" fill="#000000"></path>
                        <path d="M202.2248,138.745195 L213.138627,138.745195 L213.138627,128.485369 L218.439628,128.485369 L218.439628,158.971709 L207.837625,158.971709 L207.837625,153.988365 L207.837625,153.988365 L213.138627,153.988365 L213.138627,148.711883 L207.837625,148.711883 L207.837625,148.711883 L207.837625,143.435401 L202.2248,143.435401 L202.2248,138.745195 L202.2248,138.745195 L202.2248,138.745195 Z" id="Shape" fill="#000000"></path>
                        <path d="M158.569494,174.508018 L153.268492,174.508018 L153.268492,184.767844 L142.354666,184.767844 L142.354666,169.524674 L136.741841,169.524674 L136.741841,169.524674 L136.741841,164.248192 L136.741841,164.248192 L147.655667,164.248192 L147.655667,169.231536 L152.956669,169.231536 L152.956669,164.541329 L158.25767,164.541329 C158.569494,168.058984 158.569494,171.283501 158.569494,174.508018 L158.569494,174.508018 L158.569494,174.508018 Z" id="Shape" fill="#000000"></path>
                        <path d="M158.569494,20.610625 L158.569494,25.5939692 L163.870495,25.5939692 L163.870495,35.8537954 L158.569494,35.8537954 L158.569494,46.4067594 L158.569494,46.4067594 L152.956669,46.4067594 L152.956669,46.4067594 L152.956669,41.1302774 L147.343843,41.1302774 L147.343843,36.1469332 L152.644845,36.1469332 L152.644845,25.8871071 L147.343843,25.8871071 L147.343843,20.9037629 L147.343843,20.9037629 C151.397551,20.610625 154.82761,20.610625 158.569494,20.610625 L158.569494,20.610625 L158.569494,20.610625 Z" id="Shape" fill="#000000"></path>
                        <path d="M65.9578797,51.3901036 L60.6568782,51.3901036 L60.6568782,20.9037629 L65.9578797,20.9037629 L65.9578797,25.8871071 L71.5707048,25.8871071 L71.5707048,25.8871071 L71.5707048,36.1469332 L65.9578797,36.1469332 C65.646056,41.4234153 65.646056,46.4067594 65.9578797,51.3901036 L65.9578797,51.3901036 L65.9578797,51.3901036 Z" id="Shape" fill="#000000"></path>
                        <path d="M71.2588811,195.320808 L87.7855328,195.320808 L87.7855328,200.304152 L93.0865343,200.304152 L93.0865343,205.287496 L71.2588811,205.287496 L71.2588811,195.320808 L71.2588811,195.320808 L71.2588811,195.320808 Z" id="Shape" fill="#000000"></path>
                        <path d="M32.9045763,71.9097559 L49.431228,71.9097559 L49.431228,71.9097559 L49.431228,77.186238 L54.7322295,77.186238 L54.7322295,82.1695821 L43.8184029,82.1695821 L43.8184029,87.1529262 L38.5174014,87.1529262 L38.5174014,87.1529262 L38.5174014,76.8931001 L32.9045763,76.8931001 L32.9045763,71.9097559 L32.9045763,71.9097559 L32.9045763,71.9097559 Z" id="Shape" fill="#000000"></path>
                        <path d="M120.527012,164.248192 L109.613186,164.248192 L109.613186,164.248192 L109.613186,158.971709 L115.226011,158.971709 L115.226011,143.435401 L120.527012,143.435401 L120.527012,143.435401 C120.215189,150.470711 120.215189,157.50602 120.527012,164.248192 L120.527012,164.248192 L120.527012,164.248192 Z" id="Shape" fill="#000000"></path>
                        <path d="M27.6035749,143.728539 L22.3025734,143.728539 L22.3025734,123.208887 L27.6035749,123.208887 L27.6035749,123.208887 L27.6035749,133.468713 L33.2164,133.468713 L33.2164,138.452057 L33.2164,138.452057 L27.6035749,138.452057 C27.6035749,140.504022 27.6035749,142.26285 27.6035749,143.728539 L27.6035749,143.728539 L27.6035749,143.728539 Z" id="Shape" fill="#000000"></path>
                        <path d="M213.138627,102.689234 L218.439628,102.689234 L218.439628,117.932405 L213.138627,117.932405 L213.138627,123.208887 L207.525801,123.208887 L207.525801,123.208887 L207.525801,112.949061 L207.525801,112.949061 L213.138627,112.949061 L213.138627,102.689234 L213.138627,102.689234 L213.138627,102.689234 Z" id="Shape" fill="#000000"></path>
                        <path d="M164.182319,51.3901036 L169.48332,51.3901036 L169.48332,41.1302774 L175.096145,41.1302774 L175.096145,56.3734477 L175.096145,56.3734477 L164.182319,56.3734477 L164.182319,56.3734477 L164.182319,51.3901036 L164.182319,51.3901036 L164.182319,51.3901036 Z" id="Shape" fill="#000000"></path>
                        <path d="M207.837625,190.044326 L202.536624,190.044326 L202.536624,195.02767 L191.622797,195.02767 L191.622797,190.044326 L196.923798,190.044326 L196.923798,184.767844 L196.923798,184.767844 L207.837625,184.767844 L207.837625,184.767844 L207.837625,190.044326 L207.837625,190.044326 L207.837625,190.044326 Z" id="Shape" fill="#000000"></path>
                        <path d="M180.70897,205.287496 L180.70897,200.59729 L202.2248,200.59729 L202.2248,205.287496 L180.70897,205.287496 L180.70897,205.287496 Z" id="Shape" fill="#000000"></path>
                        <path d="M71.2588811,179.7845 L71.2588811,195.320808 L71.2588811,195.320808 L60.6568782,195.320808 L60.6568782,190.337464 L65.9578797,190.337464 L65.9578797,179.7845 L65.9578797,179.7845 C67.5169977,179.7845 69.3879394,179.7845 71.2588811,179.7845 L71.2588811,179.7845 L71.2588811,179.7845 Z" id="Shape" fill="#000000"></path>
                        <path d="M109.301362,164.248192 L109.301362,174.508018 L98.3875357,174.508018 L98.3875357,169.524674 L98.3875357,169.524674 L104.000361,169.524674 L104.000361,164.248192 L104.000361,164.248192 L109.301362,164.248192 L109.301362,164.248192 L109.301362,164.248192 Z" id="Shape" fill="#000000"></path>
                        <path d="M174.784322,35.8537954 L169.795144,35.8537954 L169.795144,20.610625 L174.784322,20.610625 L174.784322,35.8537954 L174.784322,35.8537954 Z" id="Shape" fill="#000000"></path>
                        <path d="M213.138627,184.767844 L218.439628,184.767844 L218.439628,194.734532 L207.837625,194.734532 L207.837625,189.751188 L207.837625,189.751188 L213.45045,189.751188 C213.138627,187.992361 213.138627,186.526671 213.138627,184.767844 L213.138627,184.767844 L213.138627,184.767844 Z" id="Shape" fill="#000000"></path>
                        <path d="M207.837625,169.524674 L207.837625,164.541329 L218.439628,164.541329 L218.439628,174.508018 L213.138627,174.508018 L213.138627,174.508018 L213.138627,169.231536 C211.267685,169.524674 209.396743,169.524674 207.837625,169.524674 L207.837625,169.524674 L207.837625,169.524674 Z" id="Shape" fill="#000000"></path>
                        <path d="M147.655667,200.011014 L147.655667,204.994358 L131.440839,204.994358 L131.440839,200.011014 L131.440839,200.011014 C136.741841,200.304152 142.042842,200.304152 147.655667,200.011014 C147.655667,200.304152 147.655667,200.011014 147.655667,200.011014 L147.655667,200.011014 Z" id="Shape" fill="#000000"></path>
                        <path d="M27.6035749,153.988365 L16.6897483,153.988365 L16.6897483,149.005021 L27.6035749,149.005021 L27.6035749,149.005021 L27.6035749,153.988365 L27.6035749,153.988365 L27.6035749,153.988365 Z" id="Shape" fill="#000000"></path>
                        <path d="M71.2588811,25.8871071 L71.2588811,15.6272809 L76.5598826,15.6272809 L76.5598826,25.8871071 L76.5598826,25.8871071 C75.0007645,25.5939692 73.1298228,25.5939692 71.2588811,25.8871071 L71.2588811,25.8871071 L71.2588811,25.8871071 Z" id="Shape" fill="#000000"></path>
                        <path d="M27.6035749,159.264847 L27.6035749,164.248192 L17.0015719,164.248192 L17.0015719,159.264847 L27.6035749,159.264847 L27.6035749,159.264847 L27.6035749,159.264847 Z" id="Shape" fill="#000000"></path>
                        <path d="M213.138627,174.508018 L213.138627,184.767844 L213.138627,184.767844 L207.525801,184.767844 L207.525801,184.767844 L207.525801,174.508018 L207.525801,174.508018 L213.138627,174.508018 L213.138627,174.508018 L213.138627,174.508018 Z" id="Shape" fill="#000000"></path>
                        <path d="M120.215189,169.524674 L120.215189,179.7845 L114.602364,179.7845 L114.602364,179.7845 L114.602364,169.524674 L120.215189,169.524674 L120.215189,169.524674 L120.215189,169.524674 Z" id="Shape" fill="#000000"></path>
                        <path d="M202.2248,112.949061 L202.2248,102.689234 L207.837625,102.689234 L207.837625,102.689234 L207.837625,112.949061 L207.837625,112.949061 L202.2248,112.949061 L202.2248,112.949061 L202.2248,112.949061 Z" id="Shape" fill="#000000"></path>
                        <path d="M82.1727077,179.7845 L82.1727077,190.044326 L76.8717062,190.044326 L76.8717062,179.7845 L76.8717062,179.7845 L82.1727077,179.7845 L82.1727077,179.7845 L82.1727077,179.7845 Z" id="Shape" fill="#000000"></path>
                        <path d="M125.828014,184.767844 L125.828014,179.7845 L136.430017,179.7845 L136.430017,184.767844 L125.828014,184.767844 L125.828014,184.767844 L125.828014,184.767844 Z" id="Shape" fill="#000000"></path>
                        <path d="M125.828014,184.767844 L125.828014,190.044326 L114.914187,190.044326 L114.914187,190.044326 L114.914187,184.767844 L114.914187,184.767844 L125.828014,184.767844 L125.828014,184.767844 L125.828014,184.767844 Z" id="Shape" fill="#000000"></path>
                        <path d="M131.440839,195.02767 L131.440839,190.044326 L136.741841,190.044326 L136.741841,195.02767 L131.440839,195.02767 L131.440839,195.02767 L131.440839,195.02767 Z" id="Shape" fill="#000000"></path>
                        <path d="M65.646056,153.988365 L65.646056,158.971709 L60.3450546,158.971709 L60.3450546,153.988365 L60.3450546,153.988365 L65.646056,153.988365 L65.646056,153.988365 L65.646056,153.988365 Z" id="Shape" fill="#000000"></path>
                        <path d="M207.837625,153.988365 L202.2248,153.988365 L202.2248,153.988365 L202.2248,148.711883 L207.837625,148.711883 L207.837625,148.711883 L207.837625,153.988365 L207.837625,153.988365 L207.837625,153.988365 Z" id="Shape" fill="#000000"></path>
                        <path d="M147.967491,195.02767 L142.666489,195.02767 L142.666489,190.337464 L147.967491,190.337464 C147.655667,191.803153 147.655667,193.268843 147.967491,195.02767 C147.655667,195.02767 147.967491,195.02767 147.967491,195.02767 L147.967491,195.02767 Z" id="Shape" fill="#000000"></path>
                        <path d="M98.6993594,164.248192 L98.6993594,158.971709 L98.6993594,158.971709 L104.312184,158.971709 L104.312184,164.248192 L104.312184,164.248192 L98.6993594,164.248192 L98.6993594,164.248192 L98.6993594,164.248192 Z" id="Shape" fill="#000000"></path>
                        <path d="M98.6993594,169.524674 L93.3983579,169.524674 L93.3983579,164.541329 L98.6993594,164.541329 L98.6993594,164.541329 C98.3875357,166.007019 98.3875357,167.765846 98.6993594,169.524674 L98.6993594,169.524674 L98.6993594,169.524674 Z" id="Shape" fill="#000000"></path>
                        <path d="M49.7430516,159.264847 L54.7322295,159.264847 L54.7322295,163.955054 L49.7430516,163.955054 L49.7430516,159.264847 L49.7430516,159.264847 Z" id="Shape" fill="#000000"></path>
                        <path d="M202.2248,153.988365 L202.2248,159.264847 L196.611975,159.264847 L196.611975,159.264847 L196.611975,153.988365 L202.2248,153.988365 L202.2248,153.988365 L202.2248,153.988365 Z" id="Shape" fill="#000000"></path>
                        <path d="M152.956669,195.02767 L152.956669,200.011014 L147.343843,200.011014 L147.343843,200.011014 C147.343843,198.252187 147.343843,196.493359 147.655667,194.734532 L147.655667,194.734532 C149.526609,195.02767 151.397551,195.02767 152.956669,195.02767 L152.956669,195.02767 L152.956669,195.02767 Z" id="Shape" fill="#000000"></path>
                        <path d="M131.129015,195.02767 L131.129015,200.304152 L131.129015,200.304152 L125.828014,200.304152 L125.828014,195.02767 L131.129015,195.02767 L131.129015,195.02767 L131.129015,195.02767 Z" id="Shape" fill="#000000"></path>
                        <path d="M136.741841,169.524674 L136.741841,174.508018 L131.440839,174.508018 L131.440839,169.524674 L131.440839,169.524674 L136.741841,169.524674 L136.741841,169.524674 L136.741841,169.524674 Z" id="Shape" fill="#000000"></path>
                        <path d="M153.268492,195.320808 L153.268492,190.337464 L158.881317,190.337464 L158.881317,195.320808 L158.881317,195.320808 C157.010376,195.02767 155.139434,195.02767 153.268492,195.320808 L153.268492,195.320808 L153.268492,195.320808 Z" id="Shape" fill="#000000"></path>
                        <path d="M82.1727077,174.508018 L87.4737092,174.508018 L87.4737092,179.491362 L82.1727077,179.491362 L82.1727077,179.491362 L82.1727077,174.508018 L82.1727077,174.508018 L82.1727077,174.508018 Z" id="Shape" fill="#000000"></path>
                        <path d="M218.439628,205.287496 L213.45045,205.287496 L213.45045,200.304152 L218.439628,200.304152 L218.439628,205.287496 L218.439628,205.287496 Z" id="Shape" fill="#000000"></path>
                        <path d="M164.182319,200.304152 L158.881317,200.304152 L158.881317,195.02767 L158.881317,195.02767 L164.182319,195.02767 L164.182319,195.02767 L164.182319,200.304152 L164.182319,200.304152 L164.182319,200.304152 Z" id="Shape" fill="#000000"></path>
                        <path d="M49.431228,71.9097559 L49.431228,66.6332739 L49.431228,66.6332739 L55.0440531,66.6332739 L55.0440531,66.6332739 L55.0440531,71.9097559 L49.431228,71.9097559 L49.431228,71.9097559 L49.431228,71.9097559 Z" id="Shape" fill="#000000"></path>
                        <path d="M175.096145,56.6665856 L180.70897,56.6665856 L180.70897,61.9430676 L180.70897,61.9430676 L175.096145,61.9430676 L175.096145,56.6665856 L175.096145,56.6665856 L175.096145,56.6665856 Z" id="Shape" fill="#000000"></path>
                        <path d="M158.569494,46.4067594 L164.182319,46.4067594 L164.182319,51.6832415 L164.182319,51.6832415 L158.569494,51.6832415 L158.569494,46.4067594 L158.569494,46.4067594 L158.569494,46.4067594 Z" id="Shape" fill="#000000"></path>
                        <path d="M136.741841,25.8871071 L136.741841,20.610625 L142.354666,20.610625 L142.354666,20.610625 L142.354666,25.8871071 C140.1719,25.5939692 138.300959,25.5939692 136.741841,25.8871071 L136.741841,25.8871071 L136.741841,25.8871071 Z" id="Shape" fill="#000000"></path>
                        <path d="M158.569494,20.610625 L158.569494,15.6272809 L163.870495,15.6272809 L163.870495,20.610625 L158.569494,20.610625 L158.569494,20.610625 L158.569494,20.610625 Z" id="Shape" fill="#000000"></path>
                        <path d="M142.354666,20.610625 L142.354666,15.6272809 L147.655667,15.6272809 L147.655667,20.610625 L147.655667,20.610625 L142.354666,20.610625 L142.354666,20.610625 L142.354666,20.610625 Z" id="Shape" fill="#000000"></path>
                        <path d="M196.923798,133.468713 L202.536624,133.468713 L202.536624,138.745195 L202.536624,138.745195 L196.923798,138.745195 L196.923798,133.468713 L196.923798,133.468713 L196.923798,133.468713 Z" id="Shape" fill="#000000"></path>
                        <path d="M207.837625,102.689234 L207.837625,97.7058903 L213.138627,97.7058903 L213.138627,102.689234 L213.138627,102.689234 L207.837625,102.689234 L207.837625,102.689234 L207.837625,102.689234 Z" id="Shape" fill="#000000"></path>
                        <path d="M207.837625,184.767844 L213.45045,184.767844 L213.45045,190.044326 L207.837625,190.044326 L207.837625,184.767844 L207.837625,184.767844 Z" id="Shape" fill="#FFFFFF"></path>
                        <path d="M141.731018,110.31082 L141.731018,127.312817 C141.731018,131.12361 139.548253,133.175575 135.494546,133.175575 L99.9466538,133.175575 C95.8929468,133.175575 93.7101815,131.12361 93.7101815,127.019679 L93.7101815,93.6019598 C93.7101815,89.7911673 95.8929468,88.0323399 99.6348302,88.0323399 L135.494546,88.0323399 C139.548253,88.0323399 141.731018,90.0843051 141.731018,93.8950977 L141.731018,110.31082 L141.731018,110.31082 Z M108.365891,107.086303 L107.742244,107.086303 C107.742244,109.431406 107.430421,112.069647 107.742244,114.41475 C108.054068,116.759853 109.613186,117.932405 112.107775,118.225543 C114.914187,118.518681 117.096953,117.639267 117.7206,115.001026 C118.344247,112.362785 118.032424,109.724544 118.344247,107.086303 L117.408776,107.086303 L117.408776,109.724544 L117.408776,112.655923 C117.096953,115.587302 115.849658,117.052991 113.043246,117.052991 C110.548657,117.052991 108.989539,115.587302 108.677715,112.362785 C108.365891,110.603957 108.365891,108.84513 108.365891,107.086303 L108.365891,107.086303 Z M132.064486,107.086303 C128.634427,105.913751 127.387132,108.84513 125.828014,109.431406 C122.397954,106.500027 122.397954,106.500027 120.215189,107.379441 C126.763485,108.84513 124.892543,113.828474 125.828014,117.932405 C126.451661,113.535336 124.892543,108.551992 132.064486,107.086303 L132.064486,107.086303 Z M105.247655,106.793165 C100.882125,106.206889 97.7638885,111.190233 99.9466538,117.932405 C100.258477,113.242199 99.011183,108.551992 105.247655,106.793165 L105.247655,106.793165 Z M135.80637,107.086303 L135.182722,107.086303 L135.182722,117.639267 L135.80637,117.639267 L135.80637,107.086303 L135.80637,107.086303 Z" id="Shape" fill="#000000"></path>
                        <path d="M98.3875357,82.1695821 L98.3875357,56.3734477 L103.688537,56.3734477 L103.688537,61.3567919 L109.301362,61.3567919 L109.301362,76.8931001 L114.914187,76.8931001 L114.914187,81.8764442 L120.215189,81.8764442 L120.215189,76.8931001 L114.914187,76.8931001 L114.914187,71.616618 L125.828014,71.616618 L125.828014,61.3567919 L109.613186,61.3567919 L109.613186,56.3734477 L114.914187,56.3734477 L114.914187,46.1136215 L109.613186,46.1136215 L109.613186,46.1136215 L109.613186,41.1302774 L131.129015,41.1302774 L131.129015,51.3901036 L125.828014,51.3901036 L125.828014,46.4067594 L120.527012,46.4067594 L120.527012,51.3901036 L125.828014,51.3901036 L125.828014,56.3734477 L131.129015,56.3734477 L131.129015,66.6332739 L142.042842,66.6332739 L142.042842,86.2735126 C138.612782,85.6872368 135.182722,85.100961 131.440839,84.5146852 C131.440839,83.9284094 131.129015,83.0489958 131.129015,82.1695821 L125.828014,82.1695821 C125.828014,83.0489958 125.828014,83.9284094 125.51619,84.8078231 L109.301362,84.8078231 C109.301362,83.9284094 108.989539,83.0489958 108.989539,81.8764442 C105.871303,82.1695821 102.129419,82.1695821 98.3875357,82.1695821 L98.3875357,82.1695821 Z" id="Shape" fill="#000000"></path>
                        <path d="M175.096145,133.468713 L175.096145,138.452057 L164.182319,138.452057 L164.182319,133.468713 L142.354666,133.468713 C144.225607,130.830472 144.225607,130.830472 144.849255,123.208887 L153.268492,123.208887 L153.268492,117.932405 L158.569494,117.932405 L158.569494,128.192231 L163.870495,128.192231 L163.870495,123.208887 L169.48332,123.208887 L169.48332,133.468713 L175.096145,133.468713 L175.096145,133.468713 Z" id="Shape" fill="#000000"></path>
                        <path d="M87.4737092,82.1695821 L98.3875357,82.1695821 L98.3875357,85.100961 C90.903769,86.2735126 90.2801217,91.5499946 90.5919453,97.4127524 L81.8608841,97.4127524 L81.8608841,102.396097 L76.248059,102.396097 L76.248059,92.4294083 L76.248059,92.4294083 L81.5490605,92.4294083 L81.5490605,87.4460641 L87.1618856,87.4460641 C87.4737092,85.3940989 87.4737092,83.9284094 87.4737092,82.1695821 L87.4737092,82.1695821 Z" id="Shape" fill="#000000"></path>
                        <path d="M49.431228,118.225543 L55.0440531,118.225543 L55.0440531,112.949061 L60.6568782,112.949061 L60.6568782,112.949061 L60.6568782,118.225543 L71.5707048,118.225543 L71.5707048,118.225543 L71.5707048,123.208887 L60.6568782,123.208887 L60.6568782,128.485369 L55.0440531,128.485369 L55.0440531,123.502025 L49.431228,123.502025 L49.431228,118.225543 L49.431228,118.225543 Z" id="Shape" fill="#000000"></path>
                        <path d="M152.956669,82.1695821 L158.25767,82.1695821 L158.25767,87.1529262 L152.956669,87.1529262 L152.956669,92.1362704 L147.655667,92.1362704 L147.655667,66.6332739 L152.956669,66.6332739 L152.956669,82.1695821 L152.956669,82.1695821 Z" id="Shape" fill="#000000"></path>
                        <path d="M87.7855328,123.502025 C87.7855328,122.036335 87.4737092,120.277508 87.4737092,118.518681 L82.1727077,118.518681 L82.1727077,108.258854 L87.4737092,108.258854 L87.4737092,103.27551 L90.5919453,103.27551 L90.5919453,123.502025 C89.6564745,123.208887 88.7210036,123.208887 87.7855328,123.502025 C87.7855328,123.208887 87.7855328,123.502025 87.7855328,123.502025 L87.7855328,123.502025 Z" id="Shape" fill="#000000"></path>
                        <path d="M164.182319,56.3734477 L164.182319,61.3567919 L169.48332,61.3567919 L169.48332,71.616618 L164.182319,71.616618 L164.182319,71.616618 L164.182319,66.6332739 L158.881317,66.6332739 L158.881317,56.3734477 C160.440435,56.6665856 162.311377,56.6665856 164.182319,56.3734477 L164.182319,56.3734477 L164.182319,56.3734477 Z" id="Shape" fill="#000000"></path>
                        <path d="M158.569494,107.965716 L147.655667,107.965716 L147.655667,102.982372 C146.720196,102.982372 145.784725,102.689234 144.537431,102.689234 L144.537431,97.9990282 L152.956669,97.9990282 L152.956669,102.689234 L158.569494,102.689234 L158.569494,107.965716 L158.569494,107.965716 Z" id="Shape" fill="#000000"></path>
                        <path d="M136.741841,35.8537954 L142.354666,35.8537954 L142.354666,51.0969657 L136.741841,51.0969657 L136.741841,35.8537954 L136.741841,35.8537954 Z" id="Shape" fill="#000000"></path>
                        <path d="M109.613186,159.264847 L104.000361,159.264847 L104.000361,149.005021 L109.613186,149.005021 L109.613186,159.264847 L109.613186,159.264847 Z" id="Shape" fill="#000000"></path>
                        <path d="M153.268492,46.1136215 L153.268492,56.3734477 L147.967491,56.3734477 L147.967491,46.4067594 C149.526609,46.4067594 151.397551,46.4067594 153.268492,46.1136215 L153.268492,46.1136215 L153.268492,46.1136215 Z" id="Shape" fill="#000000"></path>
                        <path d="M71.2588811,107.965716 L76.5598826,107.965716 L76.5598826,118.225543 L71.2588811,118.225543 L71.2588811,118.225543 L71.2588811,107.965716 L71.2588811,107.965716 L71.2588811,107.965716 Z" id="Shape" fill="#000000"></path>
                        <path d="M93.0865343,138.745195 L87.4737092,138.745195 L87.4737092,128.485369 L90.2801217,128.485369 C92.1510634,131.709886 93.7101815,134.934402 93.0865343,138.745195 L93.0865343,138.745195 Z" id="Shape" fill="#000000"></path>
                        <path d="M104.000361,149.005021 L98.3875357,149.005021 L98.3875357,143.728539 L104.000361,143.728539 L104.000361,149.005021 L104.000361,149.005021 Z" id="Shape" fill="#000000"></path>
                        <path d="M54.7322295,97.7058903 L54.7322295,92.4294083 L60.033231,92.4294083 L60.033231,97.7058903 L54.7322295,97.7058903 L54.7322295,97.7058903 Z" id="Shape" fill="#000000"></path>
                        <path d="M76.8717062,92.4294083 L71.2588811,92.4294083 L71.2588811,92.4294083 L71.2588811,87.4460641 L76.5598826,87.4460641 C76.5598826,89.2048915 76.5598826,90.9637188 76.8717062,92.4294083 L76.8717062,92.4294083 L76.8717062,92.4294083 Z" id="Shape" fill="#000000"></path>
                        <path d="M55.0440531,92.4294083 L49.431228,92.4294083 L49.431228,87.4460641 L55.0440531,87.4460641 L55.0440531,92.4294083 L55.0440531,92.4294083 Z" id="Shape" fill="#000000"></path>
                        <path d="M164.182319,71.9097559 L164.182319,76.8931001 L158.881317,76.8931001 L158.881317,71.9097559 L164.182319,71.9097559 L164.182319,71.9097559 L164.182319,71.9097559 Z" id="Shape" fill="#000000"></path>
                        <path d="M142.042842,56.6665856 L142.042842,61.3567919 L136.741841,61.3567919 L136.741841,56.6665856 L142.042842,56.6665856 L142.042842,56.6665856 Z" id="Shape" fill="#000000"></path>
                        <path d="M109.301362,46.1136215 L109.301362,51.0969657 L104.000361,51.0969657 L104.000361,46.1136215 C105.871303,46.4067594 107.742244,46.4067594 109.301362,46.1136215 L109.301362,46.1136215 L109.301362,46.1136215 Z" id="Shape" fill="#000000"></path>
                        <path d="M142.042842,36.1469332 L142.042842,31.1635891 L147.655667,31.1635891 L147.655667,36.1469332 L142.042842,36.1469332 L142.042842,36.1469332 Z" id="Shape" fill="#000000"></path>
                        <path d="M109.301362,30.8704512 L114.914187,30.8704512 L114.914187,35.8537954 L109.301362,35.8537954 L109.301362,30.8704512 L109.301362,30.8704512 Z" id="Shape" fill="#000000"></path>
                        <path d="M120.215189,138.745195 L125.51619,138.745195 L125.51619,143.728539 L120.215189,143.728539 L120.215189,143.728539 C120.215189,141.969712 120.527012,140.504022 120.215189,138.745195 L120.215189,138.745195 L120.215189,138.745195 Z" id="Shape" fill="#000000"></path>
                        <path d="M98.6993594,143.728539 L93.0865343,143.728539 L93.0865343,138.452057 L98.6993594,138.452057 L98.6993594,143.728539 L98.6993594,143.728539 Z" id="Shape" fill="#000000"></path>
                        <path d="M87.7855328,128.485369 L82.1727077,128.485369 L82.1727077,123.502025 L87.7855328,123.502025 L87.7855328,123.502025 L87.7855328,128.485369 L87.7855328,128.485369 Z" id="Shape" fill="#000000"></path>
                        <path d="M71.2588811,92.4294083 L71.2588811,97.4127524 L65.9578797,97.4127524 L65.9578797,92.4294083 L71.2588811,92.4294083 L71.2588811,92.4294083 L71.2588811,92.4294083 Z" id="Shape" fill="#000000"></path>
                        <path d="M164.182319,92.4294083 L164.182319,97.4127524 L158.881317,97.4127524 L158.881317,92.4294083 L164.182319,92.4294083 L164.182319,92.4294083 L164.182319,92.4294083 Z" id="Shape" fill="#000000"></path>
                        <path d="M65.9578797,107.965716 L65.9578797,102.982372 L71.2588811,102.982372 L71.2588811,107.965716 L71.2588811,107.965716 L65.9578797,107.965716 L65.9578797,107.965716 L65.9578797,107.965716 Z" id="Shape" fill="#000000"></path>
                        <path d="M60.3450546,112.949061 L60.3450546,107.672579 L65.9578797,107.672579 L65.9578797,107.672579 L65.9578797,112.949061 L60.3450546,112.949061 L60.3450546,112.949061 L60.3450546,112.949061 Z" id="Shape" fill="#000000"></path>
                        <path d="M147.655667,112.949061 L153.268492,112.949061 L153.268492,118.225543 L147.655667,118.225543 L147.655667,112.949061 L147.655667,112.949061 Z" id="Shape" fill="#000000"></path>
                        <path d="M104.000361,135.813816 L109.301362,135.813816 L109.301362,138.452057 L104.000361,138.452057 L104.000361,135.813816 L104.000361,135.813816 Z" id="Shape" fill="#000000"></path>
                        <path d="M120.527012,138.745195 L115.226011,138.745195 C115.226011,137.865781 115.226011,136.986368 114.914187,135.813816 L120.527012,135.813816 C120.215189,136.69323 120.215189,137.865781 120.527012,138.745195 C120.215189,138.745195 120.527012,138.745195 120.527012,138.745195 L120.527012,138.745195 Z" id="Shape" fill="#000000"></path>
                        <path d="M147.655667,107.965716 L147.655667,113.242199 L144.537431,113.242199 L144.537431,108.258854 C145.784725,107.965716 146.720196,107.965716 147.655667,107.965716 L147.655667,107.965716 Z" id="Shape" fill="#000000"></path>
                        <path d="M82.1727077,56.6665856 L76.5598826,56.6665856 L76.5598826,51.3901036 L82.1727077,51.3901036 L82.1727077,56.6665856 L82.1727077,56.6665856 Z" id="Shape" fill="#000000"></path>
                        <path d="M87.7855328,46.4067594 L87.7855328,51.6832415 L82.1727077,51.6832415 L82.1727077,46.4067594 L87.7855328,46.4067594 L87.7855328,46.4067594 Z" id="Shape" fill="#000000"></path>
                        <path d="M76.8717062,51.3901036 L71.2588811,51.3901036 L71.2588811,46.4067594 L76.8717062,46.4067594 L76.8717062,51.3901036 L76.8717062,51.3901036 Z" id="Shape" fill="#000000"></path>
                        <path d="M87.4737092,77.186238 L87.4737092,71.9097559 L92.7747107,71.9097559 L92.7747107,77.186238 L87.4737092,77.186238 L87.4737092,77.186238 Z" id="Shape" fill="#000000"></path>
                        <path d="M87.4737092,66.9264118 L87.4737092,61.6499297 L92.7747107,61.6499297 L92.7747107,66.9264118 L87.4737092,66.9264118 L87.4737092,66.9264118 Z" id="Shape" fill="#000000"></path>
                        <path d="M87.7855328,61.6499297 L82.1727077,61.6499297 L82.1727077,56.3734477 L87.7855328,56.3734477 L87.7855328,61.6499297 L87.7855328,61.6499297 Z" id="Shape" fill="#000000"></path>
                        <path d="M158.569494,149.005021 L158.569494,154.281503 L153.268492,154.281503 L153.268492,159.264847 L142.354666,159.264847 L142.354666,154.281503 L147.655667,154.281503 L147.655667,139.038333 L152.956669,139.038333 L152.956669,149.005021 L158.569494,149.005021 L158.569494,149.005021 Z" id="Shape" fill="#000000"></path>
                        <path d="M158.569494,153.988365 L164.182319,153.988365 L164.182319,159.264847 L158.569494,159.264847 L158.569494,153.988365 L158.569494,153.988365 Z" id="Shape" fill="#000000"></path>
                        <path d="M185.698148,169.524674 L185.698148,174.21488 L180.70897,174.21488 L180.70897,169.524674 L185.698148,169.524674 L185.698148,169.524674 Z" id="Shape" fill="#000000"></path>
                        <path d="M191.310973,138.745195 L196.923798,138.745195 L196.923798,144.021677 L191.310973,144.021677 L191.310973,138.745195 L191.310973,138.745195 Z" id="Shape" fill="#000000"></path>
                        <path d="M55.0440531,128.485369 L55.0440531,133.761851 L49.431228,133.761851 L49.431228,128.485369 L55.0440531,128.485369 L55.0440531,128.485369 Z" id="Shape" fill="#000000"></path>
                        <path d="M32.9045763,123.208887 L38.5174014,123.208887 L38.5174014,128.485369 L32.9045763,128.485369 L32.9045763,123.208887 L32.9045763,123.208887 Z" id="Shape" fill="#000000"></path>
                        <path d="M27.6035749,41.1302774 L27.6035749,26.180245 L43.8184029,26.180245 L43.8184029,41.1302774 L27.6035749,41.1302774 L27.6035749,41.1302774 Z" id="Shape" fill="#000000"></path>
                        <path d="M207.525801,41.1302774 L191.622797,41.1302774 L191.622797,26.180245 L207.525801,26.180245 L207.525801,41.1302774 L207.525801,41.1302774 Z" id="Shape" fill="#000000"></path>
                        <path d="M27.6035749,195.02767 L27.6035749,180.077638 L43.8184029,180.077638 L43.8184029,195.02767 L27.6035749,195.02767 L27.6035749,195.02767 Z" id="Shape" fill="#000000"></path>
                        <path d="M186.009972,123.208887 L180.397147,123.208887 L180.397147,117.932405 L186.009972,117.932405 L186.009972,123.208887 L186.009972,123.208887 Z" id="Shape" fill="#000000"></path>
                        <path d="M180.397147,123.208887 L180.397147,133.468713 L174.784322,133.468713 L174.784322,123.208887 L180.397147,123.208887 L180.397147,123.208887 Z" id="Shape" fill="#000000"></path>
                        <path d="M33.2164,87.4460641 L27.6035749,87.4460641 L27.6035749,77.186238 L33.2164,77.186238 L33.2164,87.4460641 L33.2164,87.4460641 Z" id="Shape" fill="#000000"></path>
                        <path id="Shape" fill="#FFFFFF"></path>
                    </g>
                </g>
                <rect id="Rectangle-29" fill="#000000" x="249" y="184" width="6" height="7"></rect>
                <g id="Group-4" transform="translate(0.738614, 21.447608)" fill="#000000">
                    <path d="M14.6837539,34.1795817 L19.1421857,34.1795817 L19.1421857,29.9383197 L42.2211265,29.9383197 L42.2211265,34.1795817 L37.7626947,34.1795817 L37.7626947,38.4208436 L42.2211265,38.4208436 L42.2211265,34.1795817 L46.6795582,34.1795817 L46.6795582,60.3756114 L42.2211265,60.3756114 L42.2211265,51.8930875 L37.5004341,51.8930875 L37.5004341,60.3756114 C35.9268699,60.3756114 34.3533058,60.6250974 32.7797416,60.6250974 L32.7797416,64.8663594 L28.0590492,64.8663594 L28.0590492,60.8745834 L23.6006174,60.8745834 L23.6006174,65.1158454 L18.879925,65.1158454 L18.879925,65.1158454 L18.879925,60.8745834 L14.1592325,60.8745834 L14.1592325,65.1158454 L14.1592325,65.1158454 L9.4385401,65.1158454 L9.4385401,65.1158454 L9.4385401,56.3838355 L4.71784766,56.3838355 L4.71784766,60.6250974 L0.259415911,60.6250974 L0.259415911,60.6250974 L0.259415911,51.6436015 L4.98010835,51.6436015 L4.98010835,47.6518255 L18.879925,47.6518255 L18.879925,51.8930875 L23.3383567,51.8930875 L23.3383567,56.1343495 L32.2552202,56.1343495 L32.2552202,51.8930875 L27.7967885,51.8930875 L27.7967885,47.4023395 L23.3383567,47.4023395 L23.3383567,42.9115916 L9.70080079,42.9115916 L9.70080079,38.6703296 L14.1592325,38.6703296 C14.6837539,36.9239276 14.6837539,35.6764977 14.6837539,34.1795817 L14.6837539,34.1795817 L14.6837539,34.1795817 Z M33.304263,42.9115916 L33.304263,47.1528535 L42.2211265,47.1528535 L42.2211265,42.9115916 L33.304263,42.9115916 L33.304263,42.9115916 Z M33.0420023,34.4290677 L24.1251388,34.4290677 L24.1251388,38.4208436 L33.0420023,38.4208436 L33.0420023,34.4290677 L33.0420023,34.4290677 Z" id="Shape-Copy-38" transform="translate(23.469487, 47.527083) scale(-1, 1) translate(-23.469487, -47.527083) "></path>
                    <path d="M257.274893,71.1035093 L261.733325,71.1035093 L261.733325,66.8622474 L266.191757,66.8622474 L266.191757,70.8540233 L270.912449,70.8540233 L270.912449,66.6127614 L275.370881,66.6127614 L275.370881,62.3714994 L298.449822,62.3714994 L298.449822,66.6127614 L302.908253,66.6127614 L302.908253,71.1035093 L307.628946,71.1035093 L307.628946,71.1035093 L307.628946,79.8355192 L293.729129,79.8355192 L293.729129,75.3447713 L289.270698,75.3447713 L289.270698,70.8540233 L293.729129,70.8540233 L293.729129,66.6127614 L284.812266,66.6127614 L284.812266,75.3447713 L280.091573,75.3447713 L280.091573,84.0767812 L275.633142,84.0767812 L275.633142,97.0500531 L266.454017,97.0500531 L266.454017,92.5593051 L270.912449,92.5593051 L270.912449,88.3180432 L266.454017,88.3180432 L266.454017,83.8272952 L271.17471,83.8272952 L271.17471,79.5860332 L275.633142,79.5860332 L275.633142,75.3447713 L266.454017,75.3447713 L266.454017,79.5860332 L261.733325,79.5860332 L261.733325,83.8272952 L257.274893,83.8272952 C257.537154,79.5860332 257.537154,75.3447713 257.274893,71.1035093 L257.274893,71.1035093 L257.274893,71.1035093 Z" id="Shape-Copy-3" transform="translate(282.451920, 79.710776) scale(-1, 1) translate(-282.451920, -79.710776) "></path>
                    <path d="M20.7157498,37.4228996 L20.7157498,28.6908897 L15.9950574,28.6908897 L15.9950574,19.9588798 L15.9950574,19.9588798 L25.1741816,19.9588798 L25.1741816,11.2268699 L20.7157498,11.2268699 L20.7157498,6.98560793 L34.6155665,6.98560793 L34.6155665,2.49485998 L34.6155665,2.49485998 L39.3362589,2.49485998 L39.3362589,2.49485998 L39.3362589,6.98560793 L48.5153831,6.98560793 L48.5153831,6.98560793 L48.5153831,11.2268699 L52.9738148,11.2268699 L52.9738148,15.7176178 L57.6945073,15.7176178 L57.6945073,15.7176178 L57.6945073,20.2083658 L57.6945073,20.2083658 L52.9738148,20.2083658 L52.9738148,24.6991138 L48.5153831,24.6991138 L48.5153831,28.9403757 L48.5153831,28.9403757 L30.1571347,28.9403757 L30.1571347,33.1816377 L34.3533058,33.1816377 L34.3533058,37.6723856 L29.894874,37.6723856 L29.894874,46.4043956 L20.7157498,46.4043956 L20.7157498,42.1631336 L20.7157498,42.1631336 L25.1741816,42.1631336 L25.1741816,37.6723856 C23.3383567,37.4228996 22.0270533,37.4228996 20.7157498,37.4228996 L20.7157498,37.4228996 L20.7157498,37.4228996 Z M43.5324299,11.4763559 L29.894874,11.4763559 L29.894874,24.2001418 L43.5324299,24.2001418 L43.5324299,11.4763559 L43.5324299,11.4763559 Z" id="Shape-Copy-25" transform="translate(36.844782, 24.449628) scale(-1, 1) translate(-36.844782, -24.449628) "></path>
                    <path d="M-8.78857793,102.663488 L-8.78857793,98.1727401 L-8.78857793,98.1727401 L0.390546257,98.1727401 L0.390546257,93.6819921 L-8.78857793,93.6819921 L-8.78857793,93.6819921 L-8.78857793,89.1912441 L-8.78857793,89.1912441 L-4.06788549,89.1912441 L-4.06788549,84.7004962 L-4.06788549,84.7004962 L0.652806948,84.7004962 L0.652806948,88.9417581 L5.1112387,88.9417581 L5.1112387,84.7004962 L0.652806948,84.7004962 L0.652806948,75.9684863 L5.37349939,75.9684863 L5.37349939,80.4592342 L9.83193114,80.4592342 L9.83193114,84.7004962 L19.0110553,84.7004962 L19.0110553,75.9684863 L37.3693037,75.9684863 L37.3693037,89.1912441 L37.3693037,89.1912441 L32.6486113,89.1912441 L32.6486113,80.4592342 L28.1901795,80.4592342 L28.1901795,88.9417581 L32.6486113,88.9417581 L32.6486113,93.4325061 L27.9279188,93.4325061 L27.9279188,97.6737681 L27.9279188,97.6737681 L23.2072264,97.6737681 L23.2072264,97.6737681 L23.2072264,88.9417581 L18.4865339,88.9417581 L18.4865339,97.6737681 L18.4865339,97.6737681 L9.30740976,97.6737681 L9.30740976,93.4325061 L13.7658415,93.4325061 L13.7658415,89.1912441 L9.30740976,89.1912441 L9.30740976,93.4325061 L4.84897801,93.4325061 L4.84897801,102.164516 C0.128285566,102.663488 -4.33014618,102.663488 -8.78857793,102.663488 L-8.78857793,102.663488 L-8.78857793,102.663488 Z" id="Shape-Copy-23" transform="translate(14.290363, 89.315987) scale(-1, 1) rotate(90.000000) translate(-14.290363, -89.315987) "></path>
                    <path d="M57.4322466,171.39688 L57.4322466,175.638142 L48.2531224,175.638142 L48.2531224,175.638142 L48.2531224,166.906132 L39.0739982,166.906132 L39.0739982,162.66487 L34.6155665,162.66487 L34.6155665,166.906132 L29.894874,166.906132 L29.894874,171.39688 L25.1741816,171.39688 L25.1741816,166.906132 L20.4534891,166.906132 L20.4534891,162.66487 L15.9950574,162.66487 L15.9950574,158.423608 L20.7157498,158.423608 L20.7157498,153.932861 L25.1741816,153.932861 L25.1741816,149.691599 L29.6326133,149.691599 L29.6326133,149.691599 L29.6326133,153.932861 L34.3533058,153.932861 L34.3533058,149.691599 L34.3533058,149.691599 L39.0739982,149.691599 L39.0739982,149.691599 L39.0739982,153.932861 L43.5324299,153.932861 L43.5324299,162.66487 L52.7115541,162.66487 L52.7115541,162.66487 L52.7115541,171.39688 L57.4322466,171.39688 L57.4322466,171.39688 L57.4322466,171.39688 Z" id="Shape-Copy-39" transform="translate(36.713652, 162.664870) scale(-1, 1) rotate(2700.000000) translate(-36.713652, -162.664870) "></path>
                    <path d="M262.520107,170.398936 L262.520107,161.666926 L280.878355,161.666926 L280.878355,157.176178 L285.599048,157.176178 L285.599048,165.908188 L294.778172,165.908188 L294.778172,170.398936 L299.498864,170.398936 L299.498864,174.889684 L290.31974,174.889684 L290.31974,179.130946 L299.498864,179.130946 L299.498864,183.621694 L276.682184,183.621694 L276.682184,179.130946 L280.878355,179.130946 L280.878355,174.889684 L276.419924,174.889684 L276.419924,170.648422 L280.878355,170.648422 L280.878355,166.40716 L276.419924,166.40716 L276.419924,170.648422 L271.699231,170.648422 L271.699231,166.40716 L266.978539,166.40716 C266.978539,167.65459 266.978539,168.90202 266.978539,170.398936 L262.520107,170.398936 Z" id="Shape-Copy-6" transform="translate(281.009486, 170.398936) scale(-1, 1) translate(-281.009486, -170.398936) "></path>
                    <path d="M287.959394,68.1096773 L283.500962,68.1096773 L283.500962,55.1364055 L287.959394,55.1364055 L287.959394,59.1281814 L292.680087,59.1281814 L292.680087,46.1549096 L292.680087,46.1549096 L301.859211,46.1549096 L301.859211,37.4228996 L301.859211,37.4228996 L311.038335,37.4228996 L311.038335,41.9136476 L306.579903,41.9136476 L306.579903,46.1549096 L315.496767,46.1549096 L315.496767,50.3961715 L315.496767,50.3961715 L306.317642,50.3961715 L306.317642,59.1281814 L301.59695,59.1281814 L301.59695,50.3961715 L297.138518,50.3961715 L297.138518,58.8786954 L301.59695,58.8786954 L301.59695,63.3694434 L301.59695,63.3694434 L296.876258,63.3694434 L296.876258,67.8601913 L296.876258,67.8601913 L292.155565,67.8601913 L292.155565,67.8601913 L292.155565,63.6189294 L287.434873,63.6189294 C287.697133,65.3653314 287.697133,66.6127614 287.959394,68.1096773 L287.959394,68.1096773 L287.959394,68.1096773 Z" id="Shape" transform="translate(299.498864, 52.766288) scale(-1, 1) translate(-299.498864, -52.766288) "></path>
                    <path d="M7.34045457,144.452393 L2.88202282,144.452393 L2.88202282,131.479121 L7.34045457,131.479121 L7.34045457,135.470897 L12.061147,135.470897 L12.061147,122.497625 L12.061147,122.497625 L21.2402712,122.497625 L21.2402712,113.765615 L21.2402712,113.765615 L30.4193954,113.765615 L30.4193954,118.256363 L25.9609636,118.256363 L25.9609636,122.497625 L34.8778271,122.497625 L34.8778271,126.738887 L34.8778271,126.738887 L25.698703,126.738887 L25.698703,135.470897 L20.9780105,135.470897 L20.9780105,126.738887 L16.5195788,126.738887 L16.5195788,135.221411 L20.9780105,135.221411 L20.9780105,139.712159 L20.9780105,139.712159 L16.2573181,139.712159 L16.2573181,144.202907 L16.2573181,144.202907 L11.5366256,144.202907 L11.5366256,144.202907 L11.5366256,139.961645 L6.81593319,139.961645 C7.07819388,141.708047 7.07819388,142.955477 7.34045457,144.452393 L7.34045457,144.452393 L7.34045457,144.452393 Z" id="Shape-Copy-49" transform="translate(18.879925, 129.109004) scale(-1, 1) translate(-18.879925, -129.109004) "></path>
                    <path d="M266.454017,156.926692 L266.454017,148.194683 L257.274893,148.194683 L257.274893,139.462673 L261.733325,139.462673 L261.733325,139.462673 L261.733325,143.703935 L266.454017,143.703935 L266.454017,139.462673 L266.454017,139.462673 L280.353834,139.462673 L280.353834,139.462673 L280.353834,143.953421 L289.532958,143.953421 L289.532958,148.194683 L284.812266,148.194683 L284.812266,152.685431 L280.091573,152.685431 L280.091573,157.176178 L275.633142,157.176178 L275.633142,148.444169 L271.17471,148.444169 L271.17471,157.176178 C269.601146,156.926692 268.027582,156.926692 266.454017,156.926692 L266.454017,156.926692 L266.454017,156.926692 Z" id="Shape" transform="translate(273.403926, 148.319426) scale(-1, 1) translate(-273.403926, -148.319426) "></path>
                    <path d="M264.880453,132.477065 L264.880453,123.745055 L255.701329,123.745055 L255.701329,115.013045 L260.159761,115.013045 L260.159761,115.013045 L260.159761,119.254307 L264.880453,119.254307 L264.880453,115.013045 L264.880453,115.013045 L278.78027,115.013045 L278.78027,115.013045 L278.78027,119.503793 L287.959394,119.503793 L287.959394,123.745055 L283.238702,123.745055 L283.238702,128.235803 L278.518009,128.235803 L278.518009,132.726551 L274.059577,132.726551 L274.059577,123.994541 L269.601146,123.994541 L269.601146,132.726551 C268.027582,132.477065 266.454017,132.477065 264.880453,132.477065 L264.880453,132.477065 L264.880453,132.477065 Z" id="Shape-Copy-36" transform="translate(271.830362, 123.869798) scale(-1, 1) rotate(90.000000) translate(-271.830362, -123.869798) "></path>
                    <path d="M38.2872161,132.227579 L38.2872161,123.495569 L29.1080919,123.495569 L29.1080919,114.763559 L33.5665237,114.763559 L33.5665237,114.763559 L33.5665237,119.004821 L38.2872161,119.004821 L38.2872161,114.763559 L38.2872161,114.763559 L52.1870328,114.763559 L52.1870328,114.763559 L52.1870328,119.254307 L61.3661569,119.254307 L61.3661569,123.495569 L56.6454645,123.495569 L56.6454645,127.986317 L51.9247721,127.986317 L51.9247721,132.477065 L47.4663403,132.477065 L47.4663403,123.745055 L43.0079086,123.745055 L43.0079086,132.477065 C41.4343444,132.227579 39.8607803,132.227579 38.2872161,132.227579 L38.2872161,132.227579 L38.2872161,132.227579 Z" id="Shape-Copy-34" transform="translate(45.237124, 123.620312) scale(-1, 1) translate(-45.237124, -123.620312) "></path>
                    <path d="M295.302693,84.3262672 L295.302693,88.8170151 L295.302693,88.8170151 L290.582001,88.8170151 L290.582001,93.3077631 L286.123569,93.3077631 L286.123569,97.5490251 L290.582001,97.5490251 L290.582001,106.281035 L285.861309,106.281035 L285.861309,106.281035 L285.861309,102.039773 L281.140616,102.039773 L281.140616,106.281035 L281.140616,106.281035 L267.240799,106.281035 L267.240799,101.790287 L262.520107,101.790287 L262.520107,97.5490251 L271.961492,97.5490251 L271.961492,101.540801 L276.419924,101.540801 L276.419924,97.2995391 L280.878355,97.2995391 L280.878355,88.5675292 L285.599048,88.5675292 L285.599048,79.8355192 L290.31974,79.8355192 L290.31974,84.3262672 C292.417826,84.3262672 293.729129,84.3262672 295.302693,84.3262672 L295.302693,84.3262672 L295.302693,84.3262672 Z" id="Shape" transform="translate(278.911400, 93.058277) scale(-1, 1) translate(-278.911400, -93.058277) "></path>
                    <path d="M277.993488,44.4085076 L269.076624,44.4085076 L269.076624,53.1405175 L273.535056,53.1405175 L273.535056,48.8992555 L277.993488,48.8992555 L277.993488,53.1405175 L282.45192,53.1405175 L282.45192,57.3817794 L264.355932,57.3817794 L264.355932,53.1405175 L259.8975,53.1405175 L259.8975,48.8992555 L264.093671,48.8992555 L264.093671,44.4085076 L259.8975,44.4085076 L259.8975,39.9177596 C265.929496,40.1672456 271.961492,40.1672456 277.993488,39.9177596 L277.993488,44.4085076 Z" id="Shape" transform="translate(271.174710, 48.649770) scale(-1, 1) translate(-271.174710, -48.649770) "></path>
                    <path d="M57.6945073,93.8067351 L57.6945073,98.2974831 L57.6945073,98.2974831 L48.7776438,98.2974831 L48.7776438,107.029493 L53.2360755,107.029493 L53.2360755,102.788231 L57.6945073,102.788231 L57.6945073,102.788231 L57.6945073,107.029493 L62.152939,107.029493 L62.152939,111.270755 L44.0569513,111.270755 L44.0569513,107.029493 L39.5985196,107.029493 L39.5985196,102.788231 L43.7946906,102.788231 L43.7946906,98.2974831 L39.5985196,98.2974831 L39.5985196,93.8067351 C45.6305155,94.0562211 51.6625114,94.0562211 57.6945073,93.8067351 C57.6945073,94.0562211 57.6945073,93.8067351 57.6945073,93.8067351 L57.6945073,93.8067351 Z" id="Shape-Copy-31" transform="translate(50.875729, 102.538745) scale(-1, 1) translate(-50.875729, -102.538745) "></path>
                    <path d="M9.70080079,144.452393 L18.879925,144.452393 L18.879925,135.720383 L23.3383567,135.720383 L23.3383567,161.666926 L14.4214932,161.666926 L14.4214932,157.425664 L14.4214932,157.425664 L18.879925,157.425664 L18.879925,152.934917 L14.4214932,152.934917 L14.4214932,152.934917 L14.4214932,148.444169 L9.70080079,148.444169 L9.70080079,144.452393 L9.70080079,144.452393 L9.70080079,144.452393 Z" id="Shape" transform="translate(16.519579, 148.693655) scale(-1, 1) rotate(90.000000) translate(-16.519579, -148.693655) "></path>
                    <path d="M39.5985196,73.5983693 L48.7776438,73.5983693 L48.7776438,64.8663594 L53.2360755,64.8663594 L53.2360755,90.8129031 L44.319212,90.8129031 L44.319212,86.5716412 L44.319212,86.5716412 L48.7776438,86.5716412 L48.7776438,82.0808932 L44.319212,82.0808932 L44.319212,82.0808932 L44.319212,77.5901453 L39.5985196,77.5901453 L39.5985196,73.5983693 L39.5985196,73.5983693 L39.5985196,73.5983693 Z" id="Shape-Copy-32" transform="translate(46.417298, 77.839631) scale(-1, 1) translate(-46.417298, -77.839631) "></path>
                    <path d="M26.485485,91.0623891 L35.6646092,91.0623891 L35.6646092,82.3303792 L40.123041,82.3303792 L40.123041,108.276923 L31.2061775,108.276923 L31.2061775,104.035661 L31.2061775,104.035661 L35.6646092,104.035661 L35.6646092,99.544913 L31.2061775,99.544913 L31.2061775,99.544913 L31.2061775,95.0541651 L26.485485,95.0541651 L26.485485,91.0623891 L26.485485,91.0623891 L26.485485,91.0623891 Z" id="Shape-Copy-13" transform="translate(33.304263, 95.303651) scale(-1, 1) translate(-33.304263, -95.303651) "></path>
                    <path d="M307.104425,153.433889 L302.645993,153.433889 L302.645993,162.165898 L293.466869,162.165898 L293.466869,149.192627 L288.746176,149.192627 L288.746176,149.192627 L288.746176,144.701879 L288.746176,144.701879 L297.9253,144.701879 L297.9253,148.943141 L302.383732,148.943141 L302.383732,144.951365 L306.842164,144.951365 C307.104425,147.945197 307.104425,150.689543 307.104425,153.433889 L307.104425,153.433889 L307.104425,153.433889 Z" id="Shape" transform="translate(297.925300, 153.433889) scale(-1, 1) translate(-297.925300, -153.433889) "></path>
                    <path d="M314.972245,133.475009 L310.513814,133.475009 L310.513814,142.207019 L301.334689,142.207019 L301.334689,129.233747 L296.613997,129.233747 L296.613997,129.233747 L296.613997,124.742999 L296.613997,124.742999 L305.793121,124.742999 L305.793121,128.984261 L310.251553,128.984261 L310.251553,124.992485 L314.709985,124.992485 C314.972245,127.986317 314.972245,130.730663 314.972245,133.475009 L314.972245,133.475009 L314.972245,133.475009 Z" id="Shape-Copy-10" transform="translate(305.793121, 133.475009) scale(-1, 1) translate(-305.793121, -133.475009) "></path>
                    <path d="M311.300596,148.943141 L315.759027,148.943141 L315.759027,157.67515 L311.300596,157.67515 L311.300596,166.656646 L306.579903,166.656646 L306.579903,162.165898 L301.859211,162.165898 L301.859211,157.924636 L306.317642,157.924636 L306.317642,149.192627 L301.859211,149.192627 L301.859211,144.951365 C305.2686,144.701879 308.153467,144.701879 311.300596,144.701879 L311.300596,148.943141 Z" id="Shape" transform="translate(308.809119, 155.679263) scale(-1, 1) translate(-308.809119, -155.679263) "></path>
                    <path d="M307.104425,113.266643 L307.104425,87.3200992 L311.562856,87.3200992 L311.562856,91.5613611 L316.283549,91.5613611 L316.283549,100.293371 L311.562856,100.293371 C311.300596,104.784119 311.300596,109.025381 311.562856,113.266643 L307.104425,113.266643 Z" id="Shape" transform="translate(311.693987, 100.293371) scale(-1, 1) translate(-311.693987, -100.293371) "></path>
                    <path d="M259.8975,34.9280397 L259.8975,12.9732719 L264.355932,12.9732719 L264.355932,17.2145338 L269.076624,17.2145338 L269.076624,30.4372917 L273.797317,30.4372917 L273.797317,34.6785537 L278.255749,34.6785537 L278.255749,30.4372917 L273.797317,30.4372917 L273.797317,25.9465438 L282.976441,25.9465438 L282.976441,17.2145338 L269.338885,17.2145338 L269.338885,12.9732719 L273.797317,12.9732719 L273.797317,4.24126196 L269.338885,4.24126196 L269.338885,4.24126196 L269.338885,0 L287.434873,0 L287.434873,8.73200992 L282.976441,8.73200992 L282.976441,4.49074796 L278.518009,4.49074796 L278.518009,8.73200992 L282.976441,8.73200992 L282.976441,12.9732719 L287.434873,12.9732719 L287.434873,21.7052818 L296.613997,21.7052818 L296.613997,38.4208436 C293.729129,37.9218716 290.844262,37.4228996 287.697133,36.9239276 C287.697133,36.4249557 287.434873,35.6764977 287.434873,34.9280397 L282.976441,34.9280397 C282.976441,35.6764977 282.976441,36.4249557 282.71418,37.1734136 L269.076624,37.1734136 C269.076624,36.4249557 268.814364,35.6764977 268.814364,34.6785537 C266.191757,34.9280397 263.044628,34.9280397 259.8975,34.9280397 L259.8975,34.9280397 Z" id="Shape-Copy-21" transform="translate(278.255749, 19.210422) scale(-1, 1) translate(-278.255749, -19.210422) "></path>
                    <path d="M308.940249,127.237859 L299.761125,127.237859 L299.761125,122.996597 C293.466869,122.996597 283.500962,122.996597 283.500962,122.996597 L283.500962,114.264587 L290.582001,114.264587 L290.582001,109.773839 L295.040433,109.773839 L295.040433,118.505849 L299.498864,118.505849 L299.498864,114.264587 L304.219557,114.264587 L304.219557,122.996597 L308.940249,122.996597 L308.940249,127.237859 Z" id="Shape" transform="translate(296.220606, 118.505849) scale(-1, 1) translate(-296.220606, -118.505849) "></path>
                    <path d="M315.496767,30.9362637 L315.496767,35.4270117 L311.038335,35.4270117 L311.038335,39.6682736 L301.859211,39.6682736 L301.859211,35.4270117 L306.317642,35.4270117 L306.317642,22.4537398 L310.776074,22.4537398 L310.776074,30.9362637 L315.496767,30.9362637 L315.496767,30.9362637 Z" id="Shape" transform="translate(308.677989, 31.061007) scale(-1, 1) translate(-308.677989, -31.061007) "></path>
                </g>
                <g id="Group-2" transform="translate(87.284642, 201.572386)" fill="#000000">
                    <path d="M4.71784766,33.1816377 L0.259415911,33.1816377 L0.259415911,20.2083658 L4.71784766,20.2083658 L4.71784766,24.2001418 L9.4385401,24.2001418 L9.4385401,11.2268699 L9.4385401,11.2268699 L18.6176643,11.2268699 L18.6176643,2.49485998 L18.6176643,2.49485998 L27.7967885,2.49485998 L27.7967885,6.98560793 L23.3383567,6.98560793 L23.3383567,11.2268699 L32.2552202,11.2268699 L32.2552202,15.4681319 L32.2552202,15.4681319 L23.076096,15.4681319 L23.076096,24.2001418 L18.3554036,24.2001418 L18.3554036,15.4681319 L13.8969719,15.4681319 L13.8969719,23.9506558 L18.3554036,23.9506558 L18.3554036,28.4414037 L18.3554036,28.4414037 L13.6347112,28.4414037 L13.6347112,32.9321517 L13.6347112,32.9321517 L8.91401872,32.9321517 L8.91401872,32.9321517 L8.91401872,28.6908897 L4.19332628,28.6908897 C4.45558697,30.4372917 4.45558697,31.6847217 4.71784766,33.1816377 L4.71784766,33.1816377 L4.71784766,33.1816377 Z" id="Shape-Copy-50" transform="translate(16.257318, 17.838249) scale(-1, 1) translate(-16.257318, -17.838249) "></path>
                    <path d="M55.0719004,7.48457993 L55.0719004,11.9753279 L55.0719004,11.9753279 L46.1550369,11.9753279 L46.1550369,20.7073378 L50.6134686,20.7073378 L50.6134686,16.4660758 L55.0719004,16.4660758 L55.0719004,16.4660758 L55.0719004,20.7073378 L59.5303321,20.7073378 L59.5303321,24.9485998 L41.4343444,24.9485998 L41.4343444,20.7073378 L36.9759127,20.7073378 L36.9759127,16.4660758 L41.1720837,16.4660758 L41.1720837,11.9753279 L36.9759127,11.9753279 L36.9759127,7.48457993 C43.0079086,7.73406593 49.0399045,7.73406593 55.0719004,7.48457993 C55.0719004,7.73406593 55.0719004,7.48457993 55.0719004,7.48457993 L55.0719004,7.48457993 Z" id="Shape-Copy-9" transform="translate(48.253122, 16.216590) scale(-1, 1) translate(-48.253122, -16.216590) "></path>
                    <path d="M42.2211265,11.2268699 L37.7626947,11.2268699 L37.7626947,19.9588798 L28.5835706,19.9588798 L28.5835706,6.98560793 L23.8628781,6.98560793 L23.8628781,6.98560793 L23.8628781,2.49485998 L23.8628781,2.49485998 L33.0420023,2.49485998 L33.0420023,6.73612194 L37.5004341,6.73612194 L37.5004341,2.74434597 L41.9588658,2.74434597 C42.2211265,5.73817794 42.2211265,8.48252392 42.2211265,11.2268699 L42.2211265,11.2268699 L42.2211265,11.2268699 Z" id="Shape-Copy" transform="translate(33.042002, 11.226870) scale(-1, 1) translate(-33.042002, -11.226870) "></path>
                    <path d="M9.4385401,21.9547678 L9.4385401,26.1960297 L13.8969719,26.1960297 L13.8969719,30.4372917 L-4.46127653,30.4372917 L-4.46127653,21.9547678 L9.4385401,21.9547678 Z" id="Shape" transform="translate(4.717848, 26.196030) rotate(90.000000) translate(-4.717848, -26.196030) "></path>
                    <path d="M40.909823,26.9444877 L40.909823,31.1857497 L45.3682548,31.1857497 L45.3682548,35.4270117 L27.0100064,35.4270117 L27.0100064,26.9444877 L40.909823,26.9444877 Z" id="Shape-Copy-7" transform="translate(36.189131, 31.185750) scale(-1, 1) translate(-36.189131, -31.185750) "></path>
                    <path d="M74.4791915,7.48457993 L74.4791915,11.7258419 L78.9376233,11.7258419 L78.9376233,15.9671038 L60.5793749,15.9671038 L60.5793749,7.48457993 L74.4791915,7.48457993 Z" id="Shape-Copy-4" transform="translate(69.758499, 11.725842) scale(-1, 1) translate(-69.758499, -11.725842) "></path>
                    <path d="M60.5793749,8.73200992 L60.5793749,0 L65.0378066,0 L65.0378066,8.73200992 L65.0378066,8.73200992 C63.7265032,8.48252392 62.152939,8.48252392 60.5793749,8.73200992 L60.5793749,8.73200992 L60.5793749,8.73200992 Z" id="Shape-Copy-24" transform="translate(62.808591, 4.366005) scale(-1, 1) translate(-62.808591, -4.366005) "></path>
                    <path d="M27.0100064,35.9259837 L27.0100064,40.4167316 L22.5515747,40.4167316 L22.5515747,44.6579936 L13.3724505,44.6579936 L13.3724505,40.4167316 L17.8308822,40.4167316 L17.8308822,27.4434597 L22.289314,27.4434597 L22.289314,35.9259837 L27.0100064,35.9259837 L27.0100064,35.9259837 Z" id="Shape-Copy-5" transform="translate(20.191228, 36.050727) scale(-1, 1) translate(-20.191228, -36.050727) "></path>
                    <path d="M13.8969719,45.9054236 L13.8969719,50.3961715 L9.4385401,50.3961715 L9.4385401,54.6374335 L0.259415911,54.6374335 L0.259415911,50.3961715 L4.71784766,50.3961715 L4.71784766,37.4228996 L9.17627941,37.4228996 L9.17627941,45.9054236 L13.8969719,45.9054236 L13.8969719,45.9054236 Z" id="Shape-Copy-2" transform="translate(7.078194, 46.030167) scale(-1, 1) rotate(180.000000) translate(-7.078194, -46.030167) "></path>
                    <rect id="Rectangle-30" x="0.259415911" y="52.3920595" width="5.24521382" height="4.98971995"></rect>
                </g>
            </g>
        </g>
    </g>
</svg>