<?xml version="1.0" encoding="UTF-8" standalone="no"?>
<svg width="492px" height="353px" viewBox="0 0 492 353" version="1.1" xmlns="http://www.w3.org/2000/svg" xmlns:xlink="http://www.w3.org/1999/xlink">
    <!-- Generator: Sketch 3.8.1 (29687) - http://www.bohemiancoding.com/sketch -->
    <title>正面纹样</title>
    <desc>Created with Sketch.</desc>
    <defs></defs>
    <g id="Page-1" stroke="none" stroke-width="1" fill="none" fill-rule="evenodd">
        <g id="banner3" transform="translate(-474.000000, -335.000000)">
            <g id="正面纹样" transform="translate(436.000000, 335.000000)">
                <text id="语义API" font-family=".PingFangSC-Regular, .PingFang SC" font-size="113.385688" font-weight="normal" letter-spacing="22" fill="#000000">
                    <tspan x="34.4337878" y="255.777778">语义AP</tspan>
                    <tspan x="496.493172" y="255.777778">I</tspan>
                </text>
                <path d="M184.485263,26.833358 C181.110537,26.833358 178.86072,29.0694712 178.86072,32.4236409 L178.86072,76.0278477 C178.86072,100.625093 169.861449,110.687602 149.613092,110.687602 C128.239825,110.687602 120.365464,100.625093 120.365464,76.0278477 L120.365464,32.4236409 C120.365464,29.0694712 118.115647,26.833358 114.74092,26.833358 C111.366194,26.833358 109.116377,29.0694712 109.116377,32.4236409 L109.116377,76.0278477 C109.116377,87.2084135 109.116377,120.750111 149.613092,120.750111 C190.109807,120.750111 190.109807,87.2084135 190.109807,76.0278477 L190.109807,32.4236409 C190.109807,29.0694712 186.735081,26.833358 184.485263,26.833358 L184.485263,26.833358 Z M316.099588,26.833358 C312.724862,26.833358 310.475044,29.0694712 310.475044,32.4236409 L310.475044,116.277885 C310.475044,119.632054 312.724862,121.868168 316.099588,121.868168 C319.474314,121.868168 321.724132,119.632054 321.724132,116.277885 L321.724132,32.4236409 C321.724132,29.0694712 319.474314,26.833358 316.099588,26.833358 L316.099588,26.833358 Z M316.099588,0 C312.724862,0 309.350135,3.35416975 309.350135,6.7083395 C309.350135,10.0625093 312.724862,13.416679 316.099588,13.416679 C319.474314,13.416679 322.849041,10.0625093 322.849041,6.7083395 C322.849041,3.35416975 320.599223,0 316.099588,0 L316.099588,0 Z M508.458986,26.833358 C505.084259,26.833358 502.834442,29.0694712 502.834442,32.4236409 L502.834442,116.277885 C502.834442,119.632054 505.084259,121.868168 508.458986,121.868168 C511.833712,121.868168 514.083529,119.632054 514.083529,116.277885 L514.083529,32.4236409 C514.083529,29.0694712 510.708803,26.833358 508.458986,26.833358 L508.458986,26.833358 Z M508.458986,13.416679 C511.833712,13.416679 515.208438,10.0625093 515.208438,6.7083395 C515.208438,3.35416975 511.833712,0 508.458986,0 C505.084259,0 501.709533,3.35416975 501.709533,6.7083395 C501.709533,10.0625093 503.959351,13.416679 508.458986,13.416679 L508.458986,13.416679 Z M364.470665,107.333432 C361.095938,107.333432 357.721212,110.687602 357.721212,114.041772 C357.721212,117.395941 361.095938,120.750111 364.470665,120.750111 C367.845391,120.750111 371.220117,117.395941 371.220117,114.041772 C371.220117,109.569545 367.845391,107.333432 364.470665,107.333432 L364.470665,107.333432 Z M465.712453,26.833358 L449.96373,26.833358 L449.96373,26.833358 C449.96373,26.833358 449.96373,26.833358 448.838821,26.833358 C422.96592,26.833358 401.592654,48.0764331 401.592654,73.7917345 C401.592654,99.507036 422.96592,120.750111 448.838821,120.750111 L465.712453,120.750111 C469.087179,120.750111 471.336997,118.513998 471.336997,115.159828 L471.336997,32.4236409 C471.336997,29.0694712 469.087179,26.833358 465.712453,26.833358 L465.712453,26.833358 Z M460.087909,109.569545 L448.838821,109.569545 C428.590464,109.569545 411.716832,92.7986965 411.716832,72.673678 C411.716832,52.5486594 428.590464,35.7778107 448.838821,35.7778107 L449.96373,35.7778107 L449.96373,35.7778107 L460.087909,35.7778107 L460.087909,109.569545 L460.087909,109.569545 Z M285.727052,26.833358 C267.728511,26.833358 251.979789,38.0139239 244.105427,54.7847726 C236.231066,39.1319804 220.482344,26.833358 202.483803,26.833358 C199.109077,26.833358 196.85926,29.0694712 196.85926,32.4236409 C196.85926,35.7778107 199.109077,38.0139239 202.483803,38.0139239 C222.732161,38.0139239 238.480884,59.2569989 238.480884,77.1459043 L238.480884,77.1459043 L238.480884,77.1459043 L238.480884,116.277885 C238.480884,119.632054 240.730701,121.868168 244.105427,121.868168 C247.480154,121.868168 249.729971,119.632054 249.729971,116.277885 L249.729971,77.1459043 L249.729971,77.1459043 L249.729971,77.1459043 C249.729971,58.1389424 265.478694,38.0139239 285.727052,38.0139239 C289.101778,38.0139239 291.351595,35.7778107 291.351595,32.4236409 C291.351595,29.0694712 289.101778,26.833358 285.727052,26.833358 L285.727052,26.833358 Z M94.4925626,26.833358 C69.74457,26.833358 48.3713036,50.3125463 48.3713036,76.0278477 L48.3713036,76.0278477 L48.3713036,76.0278477 L48.3713036,115.159828 C48.3713036,118.513998 50.6211211,120.750111 53.9958474,120.750111 C57.3705736,120.750111 59.6203911,118.513998 59.6203911,115.159828 L59.6203911,76.0278477 L59.6203911,76.0278477 L59.6203911,76.0278477 C59.6203911,57.0208858 75.3691138,36.8958673 95.6174714,36.8958673 C98.9921977,36.8958673 101.242015,34.6597541 101.242015,31.3055843 C100.117106,29.0694712 97.8672889,26.833358 94.4925626,26.833358 L94.4925626,26.833358 Z" id="Shape" fill="#050C18"></path>
                <text id="让世界更懂你" font-family=".PingFangSC-Thin, .PingFang SC" font-size="82.4623185" font-weight="300" letter-spacing="-0.220504224" fill="#000000">
                    <tspan x="42.0446994" y="343.511847">让世界更懂你</tspan>
                </text>
            </g>
        </g>
    </g>
</svg>