<?xml version="1.0" encoding="utf-8"?>
<!-- Generator: Adobe Illustrator 16.0.0, SVG Export Plug-In . SVG Version: 6.00 Build 0)  -->
<!DOCTYPE svg PUBLIC "-//W3C//DTD SVG 1.1//EN" "http://www.w3.org/Graphics/SVG/1.1/DTD/svg11.dtd">
<svg version="1.1" id="图层_1" xmlns="http://www.w3.org/2000/svg" xmlns:xlink="http://www.w3.org/1999/xlink" x="0px" y="0px"
	 width="50px" height="50px" viewBox="0 0 50 50" enable-background="new 0 0 50 50" xml:space="preserve">
<g>
	<g>
		<path fill="#0A8CBE" d="M48.284,26.717H1.715C0.768,26.717,0,25.948,0,25.001c0-0.947,0.768-1.715,1.715-1.715h46.569
			c0.946,0,1.716,0.768,1.716,1.715C50,25.948,49.23,26.717,48.284,26.717z"/>
	</g>
	<g>
		<path fill="#0A8CBE" d="M25,50c-0.948,0-1.715-0.77-1.715-1.716V1.715C23.285,0.768,24.052,0,25,0
			c0.947,0,1.716,0.768,1.716,1.715v46.569C26.716,49.23,25.947,50,25,50z"/>
	</g>
</g>
</svg>
