<?xml version="1.0" encoding="utf-8"?>
<!-- Generator: Adobe Illustrator 16.0.0, SVG Export Plug-In . SVG Version: 6.00 Build 0)  -->
<!DOCTYPE svg PUBLIC "-//W3C//DTD SVG 1.1//EN" "http://www.w3.org/Graphics/SVG/1.1/DTD/svg11.dtd">
<svg version="1.1" id="图层_1" xmlns="http://www.w3.org/2000/svg" xmlns:xlink="http://www.w3.org/1999/xlink" x="0px" y="0px"
	 width="131.264px" height="20px" viewBox="0 1 131.264 20" enable-background="new 0 1 131.264 20" xml:space="preserve">
<g>
	<g>
		<path fill="#00ABFF" d="M26.428,8.68c2.343-1.593,4.171-3.632,5.484-6.117l0.984,0.211c-0.047,0.047-0.118,0.165-0.211,0.352
			c-0.095,0.141-0.165,0.258-0.211,0.352c1.171,1.031,2.602,2.345,4.289,3.938L35.99,8.117c-1.032-1.125-2.345-2.414-3.938-3.867
			c-1.313,1.969-2.978,3.727-4.992,5.273c-0.047-0.046-0.118-0.141-0.211-0.281C26.709,9.008,26.569,8.82,26.428,8.68z M28.397,8.82
			h6.961c0,1.172-0.047,2.367-0.141,3.586c-0.095,1.453-0.914,2.156-2.461,2.109c-0.657,0.047-1.266,0.07-1.828,0.07
			c0-0.141-0.024-0.305-0.07-0.492c-0.047-0.234-0.095-0.397-0.141-0.492c0.187,0,0.492,0,0.914,0
			c0.468,0.047,0.819,0.07,1.055,0.07c0.984,0.047,1.522-0.422,1.617-1.406c0.046-0.234,0.07-0.656,0.07-1.266
			c0.046-0.608,0.07-1.055,0.07-1.336h-5.133v7.102c-0.047,0.844,0.468,1.241,1.547,1.195h2.602c1.078,0,1.71-0.306,1.898-0.914
			c0.141-0.562,0.257-1.241,0.352-2.039c0.327,0.188,0.656,0.306,0.984,0.352c-0.047,0.657-0.211,1.336-0.492,2.039
			c-0.235,0.984-1.079,1.477-2.531,1.477h-3.023c-1.547,0.046-2.297-0.633-2.25-2.039V8.82z M37.819,4.531h0.914v10.828h-0.914
			V4.531z M41.545,2.703h0.984v14.484c0,1.219-0.657,1.852-1.969,1.898c-0.703,0.046-1.431,0.07-2.18,0.07
			c-0.047-0.376-0.118-0.703-0.211-0.984c0.703,0,1.452,0,2.25,0c0.749,0,1.125-0.352,1.125-1.055V2.703z"/>
		<path fill="#00ABFF" d="M54.201,18.734c-3-0.047-5.203-0.68-6.609-1.898c-0.61,0.797-1.454,1.663-2.531,2.602
			c-0.047-0.047-0.095-0.095-0.141-0.141c-0.235-0.281-0.422-0.469-0.562-0.562c1.312-1.079,2.155-1.944,2.531-2.602
			c-0.798-0.984-1.477-2.296-2.039-3.938l0.844-0.352c0.468,1.406,1.055,2.556,1.758,3.445c0.515-0.984,0.914-2.577,1.195-4.781
			H44.99V9.453l3.656-4.359H44.85V4.25h4.852v0.914l-3.797,4.5h3.656v0.844c-0.329,2.531-0.821,4.384-1.477,5.555
			c1.171,1.172,3.257,1.758,6.258,1.758c0.984,0.046,3.351,0.07,7.102,0.07c-0.141,0.187-0.258,0.492-0.352,0.914
			C58.232,18.805,55.935,18.78,54.201,18.734z M50.897,4.32h3.656V2.633h0.914V4.32h4.289v2.602h1.617v0.773h-1.617v2.672h-4.289
			v1.828h4.711v0.773h-4.711v1.828h5.273v0.773h-5.273v1.617h-0.914V15.57h-4.5v-0.773h4.5v-1.828h-3.938v-0.773h3.938v-1.828
			h-3.656V9.594h3.656V7.695h-4.57V6.922h4.57V5.094h-3.656V4.32z M58.842,5.094h-3.375v1.828h3.375V5.094z M55.467,7.695v1.898
			h3.375V7.695H55.467z"/>
		<path fill="#00ABFF" d="M65.451,8.75v8.648c0.187-0.141,0.468-0.327,0.844-0.562c0.656-0.422,1.148-0.749,1.476-0.984
			c0,0.328,0.047,0.68,0.141,1.055c-0.843,0.422-1.711,0.938-2.601,1.547c-0.281,0.234-0.54,0.445-0.773,0.633l-0.633-0.844
			c0.422-0.376,0.608-0.773,0.562-1.195V9.594h-1.969V8.75H65.451z M65.944,6.5c-0.235-0.281-0.587-0.656-1.055-1.125
			c-0.235-0.327-0.773-0.914-1.617-1.758l0.773-0.633c0.187,0.188,0.492,0.517,0.914,0.984c0.234,0.235,0.819,0.868,1.758,1.898
			L65.944,6.5z M67.631,7.133h8.578v0.844h-8.578V7.133z M68.123,4.461V3.547h10.406v13.781c0.047,1.312-0.586,1.944-1.898,1.898
			c-0.797,0-1.688,0-2.672,0c0-0.281-0.047-0.609-0.141-0.984c0.562,0.046,1.383,0.07,2.461,0.07
			c0.891,0.046,1.312-0.352,1.266-1.195V4.461H68.123z M68.685,10.438h6.188v5.273h-6.188V10.438z M69.67,11.352v3.516h4.289v-3.516
			H69.67z"/>
		<path fill="#00ABFF" d="M90.623,2.703h0.914v2.25h4.078v9.141h1.688v0.914H80.709v-0.914h1.758V4.953h4.078v-2.25h0.914v2.25
			h3.164V2.703z M86.545,15.922l0.633,0.844c-0.516,0.235-1.289,0.587-2.32,1.055c-1.547,0.703-2.719,1.241-3.516,1.617
			c0-0.047-0.023-0.117-0.07-0.211c-0.094-0.141-0.234-0.376-0.422-0.703c0.234-0.095,0.562-0.235,0.984-0.422
			C83.943,17.258,85.513,16.531,86.545,15.922z M83.381,5.867v3.656h3.164V5.867H83.381z M83.381,10.367v3.727h3.164v-3.727H83.381z
			 M87.459,5.867v3.656h3.164V5.867H87.459z M87.459,10.367v3.727h3.164v-3.727H87.459z M96.599,19.367
			c-1.922-0.984-3.867-1.828-5.836-2.531l0.562-0.844c0.234,0.095,0.562,0.235,0.984,0.422c1.969,0.798,3.562,1.477,4.781,2.039
			L96.599,19.367z M94.701,5.867h-3.164v3.656h3.164V5.867z M91.537,10.367v3.727h3.164v-3.727H91.537z"/>
		<path fill="#00ABFF" d="M100.326,8.539c-0.234-0.234-0.469-0.468-0.703-0.703c1.875-1.406,3.469-3.14,4.781-5.203l0.914,0.281
			c-0.328,0.562-0.703,1.102-1.125,1.617h8.648v0.914c-1.688,1.453-3.211,2.556-4.57,3.305c1.688,0.75,4.055,1.29,7.102,1.617
			c-0.188,0.328-0.328,0.633-0.422,0.914c-3.516-0.562-6.094-1.219-7.734-1.969c-1.781,0.891-4.523,1.642-8.227,2.25
			c-0.047-0.141-0.211-0.422-0.492-0.844c3.422-0.562,5.977-1.219,7.664-1.969c-1.172-0.703-2.25-1.593-3.234-2.672
			C102.177,6.969,101.31,7.79,100.326,8.539z M103.842,14.375l0.703,0.703c-1.641,1.22-3.281,2.297-4.922,3.234
			c-0.047-0.047-0.164-0.165-0.352-0.352c-0.141-0.188-0.258-0.328-0.352-0.422C100.513,16.742,102.154,15.688,103.842,14.375z
			 M106.654,10.789h0.984v1.758h6.82v0.844h-6.82v3.727c0.094,1.312-0.562,1.969-1.969,1.969c-0.281,0.046-0.938,0.07-1.969,0.07
			c-0.047-0.422-0.117-0.75-0.211-0.984c0.469,0,1.055,0,1.758,0c0.984,0.046,1.453-0.376,1.406-1.266v-3.516h-7.102v-0.844h7.102
			V10.789z M111.576,5.375h-8.016c0,0.047-0.023,0.07-0.07,0.07c1.266,1.266,2.508,2.204,3.727,2.812
			C108.529,7.649,109.982,6.688,111.576,5.375z M109.467,15.148l0.633-0.703c0.891,0.517,2.133,1.242,3.727,2.18
			c0.609,0.376,1.055,0.633,1.336,0.773l-0.633,0.773C113.123,17.282,111.435,16.273,109.467,15.148z"/>
		<path fill="#00ABFF" d="M118.677,3.547h12.586v15.82h-0.914v-1.477h-10.688v1.477h-0.984V3.547z M119.662,4.391v3.656h10.688
			V4.391H119.662z M119.662,8.961v3.586h10.688V8.961H119.662z M119.662,13.391v3.797h10.688v-3.797H119.662z"/>
	</g>
	<g>
		<g>
			<path fill="#00ABFF" d="M19,12H1c-0.552,0-1-0.447-1-1s0.448-1,1-1h18c0.552,0,1,0.447,1,1S19.552,12,19,12z"/>
		</g>
		<g>
			<path fill="#00ABFF" d="M10,21c-0.552,0-1-0.447-1-1V2c0-0.553,0.448-1,1-1s1,0.447,1,1v18C11,20.553,10.552,21,10,21z"/>
		</g>
	</g>
</g>
</svg>
