<?xml version="1.0" encoding="utf-8"?>
<!-- Generator: Adobe Illustrator 16.0.0, SVG Export Plug-In . SVG Version: 6.00 Build 0)  -->
<!DOCTYPE svg PUBLIC "-//W3C//DTD SVG 1.1//EN" "http://www.w3.org/Graphics/SVG/1.1/DTD/svg11.dtd">
<svg version="1.1" id="图层_1" xmlns="http://www.w3.org/2000/svg" xmlns:xlink="http://www.w3.org/1999/xlink" x="0px" y="0px"
	 width="70px" height="69.998px" viewBox="-0.286 -0.286 70 69.998" enable-background="new -0.286 -0.286 70 69.998"
	 xml:space="preserve">
<g>
	<g>
		<path fill="#2EA7E0" d="M66.918,69.711H2.51c-1.544,0-2.796-1.253-2.796-2.796V2.511c0-1.544,1.252-2.796,2.796-2.796h52.103
			c1.543,0,2.796,1.251,2.796,2.796s-1.253,2.796-2.796,2.796H5.307v58.812h58.814V28.857c0-1.546,1.252-2.796,2.797-2.796
			c1.543,0,2.796,1.25,2.796,2.796v38.058C69.714,68.458,68.461,69.711,66.918,69.711z"/>
	</g>
	<g>
		<path fill="#2EA7E0" d="M29.376,55.808h-7.625c-1.543,0-2.796-1.253-2.796-2.796V16.413c0-1.544,1.253-2.796,2.796-2.796h7.625
			c11.632,0,21.097,9.464,21.097,21.096C50.473,46.344,41.008,55.808,29.376,55.808z M24.547,50.216h4.829
			c8.55,0,15.505-6.955,15.505-15.503c0-8.55-6.955-15.504-15.505-15.504h-4.829V50.216z"/>
	</g>
</g>
</svg>
