<?xml version="1.0" encoding="utf-8"?>
<!-- Generator: Adobe Illustrator 16.0.0, SVG Export Plug-In . SVG Version: 6.00 Build 0)  -->
<!DOCTYPE svg PUBLIC "-//W3C//DTD SVG 1.1//EN" "http://www.w3.org/Graphics/SVG/1.1/DTD/svg11.dtd">
<svg version="1.1" id="图层_1" xmlns="http://www.w3.org/2000/svg" xmlns:xlink="http://www.w3.org/1999/xlink" x="0px" y="0px"
	 width="70px" height="69.998px" viewBox="-0.286 -0.286 70 69.998" enable-background="new -0.286 -0.286 70 69.998"
	 xml:space="preserve">
<g>
	<g>
		<path fill="#B5B5B6" d="M66.918,69.713H2.51c-1.543,0-2.796-1.253-2.796-2.796V2.509c0-1.544,1.252-2.796,2.796-2.796h52.103
			c1.543,0,2.796,1.251,2.796,2.796s-1.253,2.796-2.796,2.796H5.307v58.816h58.814V28.856c0-1.545,1.252-2.796,2.797-2.796
			c1.543,0,2.796,1.25,2.796,2.796v38.061C69.714,68.46,68.461,69.713,66.918,69.713z"/>
	</g>
	<g>
		<path fill="#B5B5B6" d="M29.376,55.809h-7.625c-1.543,0-2.796-1.253-2.796-2.796V16.412c0-1.544,1.252-2.796,2.796-2.796h7.625
			c11.632,0,21.097,9.465,21.097,21.097C50.473,46.345,41.008,55.809,29.376,55.809z M24.547,50.217h4.829
			c8.55,0,15.505-6.956,15.505-15.504c0-8.551-6.955-15.505-15.505-15.505h-4.829V50.217z"/>
	</g>
</g>
</svg>
