<?xml version="1.0" standalone="no"?><!DOCTYPE svg PUBLIC "-//W3C//DTD SVG 1.1//EN" "http://www.w3.org/Graphics/SVG/1.1/DTD/svg11.dtd"><svg width="64" height="64" viewBox="0 0 64 64" version="1.1" xmlns="http://www.w3.org/2000/svg" xmlns:xlink="http://www.w3.org/1999/xlink"><defs><style type="text/css"><![CDATA[
@font-face { font-family: ifont; src: url("//at.alicdn.com/t/font_1442373896_4754455.eot?#iefix") format("embedded-opentype"), url("//at.alicdn.com/t/font_1442373896_4754455.woff") format("woff"), url("//at.alicdn.com/t/font_1442373896_4754455.ttf") format("truetype"), url("//at.alicdn.com/t/font_1442373896_4754455.svg#ifont") format("svg"); }

]]></style></defs><g class="transform-group"><g transform="scale(0.0625, 0.0625)"><path d="M512.125355 953.697841c-57.366545 0-113.289206-10.886955-166.217672-32.357965-54.809303-22.233374-103.972003-54.891168-146.125055-97.064686-42.165332-42.151006-74.821079-91.316775-97.052406-146.123009-21.468964-52.927443-32.354895-108.847034-32.354895-166.208463 0-57.361429 10.885931-113.283066 32.354895-166.212556 22.231327-54.809303 54.886051-103.978143 97.057523-146.141428 42.148959-42.164309 91.311659-74.818009 146.120962-97.048313 52.927443-21.467941 108.851127-32.352849 166.216649-32.352849 57.364499 0 113.290229 10.884908 166.223812 32.351825 54.812373 22.230304 103.984283 54.882981 146.147568 97.05036 42.161239 42.162262 74.809823 91.331102 97.037057 146.140405 21.464871 52.92949 32.347732 108.851127 32.347732 166.211533s-10.883885 113.281019-32.347732 166.207439c-22.228257 54.806233-54.875818 103.97098-97.039103 146.128125-42.160215 42.171472-91.332125 74.828242-146.144498 97.06264C625.416608 942.810886 569.490877 953.697841 512.125355 953.697841zM512.125355 111.119797c-107.063411 0-207.707622 41.697681-283.392372 117.411083-75.724659 75.709309-117.424386 176.358637-117.424386 283.411815 0 107.052155 41.700751 207.694319 117.41927 283.389302 75.691913 75.729775 176.335101 117.433596 283.398512 117.433596s207.718879-41.703821 283.425118-117.429503c75.707262-75.697029 117.399827-176.340217 117.399827-283.393395 0-107.053178-41.692564-207.703529-117.398804-283.409768C719.845257 152.817478 619.188766 111.119797 512.125355 111.119797zM491.653091 661.430334l40.932248 0 0 54.368258-40.932248 0 0-54.368258ZM533.063223 607.064123l-40.932248 0 0-13.57825c0-93.117794 62.977333-125.679397 65.657372-127.019928 18.202571-9.163707 70.231551-42.977837 70.231551-76.833923 0-45.349861-34.648125-74.653257-88.271416-74.653257-34.364669 0-58.988486 5.040806-73.186859 14.983249-10.402931 7.283894-15.041578 17.307178-15.041578 32.497135l-40.932248 0c0-28.713972 10.934027-50.928926 32.496112-66.026786 21.511943-15.063067 53.131081-22.384823 96.66355-22.384823 37.854143 0 70.227458 11.237949 93.620237 32.500205 22.946618 20.85498 35.582403 50.362015 35.582403 83.084277 0 28.9084-16.194844 57.0616-48.1353 83.679841-21.240767 17.700127-42.373063 28.576849-44.564985 29.686113-2.284019 1.219781-43.188638 24.041556-43.188638 90.488921L533.061177 607.064123z" fill="#bfbfbf"></path></g></g></svg>