<?xml version="1.0" encoding="utf-8"?>
<!-- Generator: Adobe Illustrator 16.0.0, SVG Export Plug-In . SVG Version: 6.00 Build 0)  -->
<!DOCTYPE svg PUBLIC "-//W3C//DTD SVG 1.1//EN" "http://www.w3.org/Graphics/SVG/1.1/DTD/svg11.dtd">
<svg version="1.1" id="图层_1" xmlns="http://www.w3.org/2000/svg" xmlns:xlink="http://www.w3.org/1999/xlink" x="0px" y="0px"
	 width="15.65px" height="17px" viewBox="0 0 15.65 17" enable-background="new 0 0 15.65 17" xml:space="preserve">
<g>
	<g>
		<g>
			<path fill="#EEEEEE" d="M14.303,17H0.5C0.224,17,0,16.776,0,16.5V1.348c0-0.276,0.224-0.5,0.5-0.5h9.244
				c0.276,0,0.5,0.224,0.5,0.5s-0.224,0.5-0.5,0.5H1V16h12.803V5.916c0-0.276,0.224-0.5,0.5-0.5s0.5,0.224,0.5,0.5V16.5
				C14.803,16.776,14.579,17,14.303,17z"/>
		</g>
		<g>
			<path fill="#EEEEEE" d="M6.729,6.896H2.765c-0.276,0-0.5-0.224-0.5-0.5s0.224-0.5,0.5-0.5h3.964c0.276,0,0.5,0.224,0.5,0.5
				S7.005,6.896,6.729,6.896z"/>
		</g>
		<g>
			<path fill="#EEEEEE" d="M11.4,10.844H2.765c-0.276,0-0.5-0.224-0.5-0.5s0.224-0.5,0.5-0.5H11.4c0.276,0,0.5,0.224,0.5,0.5
				S11.677,10.844,11.4,10.844z"/>
		</g>
		<g>
			<path fill="#EEEEEE" d="M9.258,6.895c-0.128,0-0.256-0.049-0.354-0.146c-0.195-0.195-0.195-0.512,0-0.707l5.893-5.895
				c0.195-0.195,0.512-0.195,0.707,0s0.195,0.512,0,0.707L9.611,6.748C9.514,6.846,9.386,6.895,9.258,6.895z"/>
		</g>
	</g>
</g>
</svg>
