<?xml version="1.0" encoding="utf-8"?>
<!-- Generator: Adobe Illustrator 17.0.0, SVG Export Plug-In . SVG Version: 6.00 Build 0)  -->
<!DOCTYPE svg PUBLIC "-//W3C//DTD SVG 1.1//EN" "http://www.w3.org/Graphics/SVG/1.1/DTD/svg11.dtd">
<svg version="1.1" id="图层_1" xmlns="http://www.w3.org/2000/svg" xmlns:xlink="http://www.w3.org/1999/xlink" x="0px" y="0px"
	 width="40px" height="40px" viewBox="0 0 40 40" enable-background="new 0 0 40 40" xml:space="preserve">
<rect opacity="0" fill="#00A0E9" fill-opacity="0" width="40" height="40"/>
<g>
	<g>
		<g>
			<path fill="#C9CACA" d="M33.214,27.252H6.786c-0.625,0-1.132-0.507-1.132-1.132V8.408c0-0.625,0.507-1.132,1.132-1.132h26.428
				c0.626,0,1.132,0.507,1.132,1.132V26.12C34.346,26.746,33.839,27.252,33.214,27.252z M7.918,24.988h24.163V9.54H7.918V24.988z"/>
		</g>
		<g>
			<path fill="#C9CACA" d="M38.868,32.284H1.132C0.507,32.284,0,31.778,0,31.152V3.375C0,2.75,0.507,2.242,1.132,2.242h37.736
				C39.493,2.242,40,2.75,40,3.375v27.777C40,31.778,39.493,32.284,38.868,32.284z M2.264,30.02h35.471V4.507H2.264V30.02z"/>
		</g>
	</g>
	<g>
		<g>
			<path fill="#C9CACA" d="M34.606,40H5.395c-0.625,0-1.132-0.507-1.132-1.132c0-0.626,0.507-1.132,1.132-1.132h29.211
				c0.626,0,1.132,0.507,1.132,1.132S35.231,40,34.606,40z"/>
		</g>
	</g>
	<g>
		<g>
			<path fill="#C9CACA" d="M28.236,40H11.764c-0.625,0-1.132-0.507-1.132-1.132v-7.379c0-0.626,0.507-1.132,1.132-1.132h16.472
				c0.626,0,1.132,0.507,1.132,1.132v7.379C29.368,39.493,28.862,40,28.236,40z M12.896,37.736h14.208v-5.114H12.896V37.736z"/>
		</g>
	</g>
</g>
</svg>
