<?xml version="1.0" encoding="utf-8"?>
<!-- Generator: Adobe Illustrator 16.0.0, SVG Export Plug-In . SVG Version: 6.00 Build 0)  -->
<!DOCTYPE svg PUBLIC "-//W3C//DTD SVG 1.1//EN" "http://www.w3.org/Graphics/SVG/1.1/DTD/svg11.dtd">
<svg version="1.1" id="图层_1" xmlns="http://www.w3.org/2000/svg" xmlns:xlink="http://www.w3.org/1999/xlink" x="0px" y="0px"
	 width="23.253px" height="25px" viewBox="0 0 23.253 25" enable-background="new 0 0 23.253 25" xml:space="preserve">
<g>
	<g>
		<g>
			<path fill="#00ABFF" d="M6.953,22.901c-1.75,0-3.498-0.665-4.83-1.996c-2.662-2.664-2.662-7,0-9.664l7.542-7.542
				c0.214-0.214,0.56-0.214,0.774,0c0.214,0.215,0.214,0.561,0,0.774l-7.542,7.542c-2.235,2.237-2.235,5.878,0,8.115
				c2.237,2.236,5.876,2.235,8.113,0l9.799-9.799c1.631-1.631,1.631-4.283,0-5.914c-0.789-0.79-1.84-1.224-2.957-1.224h-0.001
				c-1.118,0-2.167,0.434-2.957,1.224l-9.353,9.351c-0.214,0.215-0.561,0.215-0.774,0c-0.214-0.213-0.214-0.559,0-0.773l9.354-9.351
				c0.995-0.997,2.32-1.546,3.73-1.546h0.001c1.409,0,2.734,0.549,3.731,1.546c2.058,2.058,2.058,5.404,0,7.462l-9.799,9.799
				C10.454,22.236,8.703,22.901,6.953,22.901z"/>
		</g>
	</g>
	<g>
		<g>
			<path fill="#00ABFF" d="M7.401,19.349c-0.954,0-1.907-0.362-2.633-1.088c-1.453-1.451-1.453-3.812-0.001-5.266
				c0.214-0.214,0.561-0.214,0.774,0c0.214,0.215,0.214,0.561,0,0.773c-1.024,1.025-1.024,2.693,0,3.719
				c1.026,1.024,2.693,1.024,3.717,0c0.214-0.215,0.561-0.215,0.774,0c0.214,0.213,0.214,0.561,0,0.773
				C9.308,18.986,8.355,19.349,7.401,19.349z"/>
		</g>
		<g>
			<path fill="#00ABFF" d="M9.646,18.422c-0.141,0-0.28-0.054-0.388-0.161c-0.214-0.213-0.214-0.561,0-0.773l7.56-7.56
				c0.214-0.214,0.561-0.214,0.773,0c0.215,0.214,0.215,0.561,0,0.774l-7.559,7.559C9.926,18.368,9.786,18.422,9.646,18.422z"/>
		</g>
	</g>
</g>
</svg>
