<?xml version="1.0" encoding="utf-8"?>
<!-- Generator: Adobe Illustrator 16.0.0, SVG Export Plug-In . SVG Version: 6.00 Build 0)  -->
<!DOCTYPE svg PUBLIC "-//W3C//DTD SVG 1.1//EN" "http://www.w3.org/Graphics/SVG/1.1/DTD/svg11.dtd">
<svg version="1.1" id="图层_1" xmlns="http://www.w3.org/2000/svg" xmlns:xlink="http://www.w3.org/1999/xlink" x="0px" y="0px"
	 width="21px" height="22.842px" viewBox="0 0 21 22.842" enable-background="new 0 0 21 22.842" xml:space="preserve">
<g>
	<g>
		<path fill="#00ABFF" d="M8.834,18.59c-2.36,0-4.579-0.919-6.249-2.588c-3.445-3.444-3.445-9.05,0-12.495
			c1.67-1.669,3.889-2.588,6.249-2.588c2.36,0,4.58,0.919,6.248,2.588c1.669,1.668,2.589,3.887,2.589,6.247
			c0,2.361-0.92,4.58-2.589,6.248C13.414,17.671,11.194,18.59,8.834,18.59z M8.834,1.874c-2.105,0-4.084,0.82-5.574,2.309
			c-3.073,3.072-3.073,8.073,0,11.145c1.489,1.489,3.469,2.309,5.574,2.309s4.084-0.819,5.573-2.309
			c1.489-1.488,2.309-3.467,2.309-5.573c0-2.105-0.819-4.084-2.309-5.572C12.919,2.694,10.939,1.874,8.834,1.874z"/>
	</g>
	<g>
		<path fill="#00ABFF" d="M20.524,21.923c-0.122,0-0.244-0.047-0.338-0.141l-5.779-5.78c-0.187-0.187-0.187-0.488,0-0.675
			s0.489-0.187,0.675,0l5.78,5.78c0.187,0.187,0.187,0.488,0,0.675C20.769,21.876,20.646,21.923,20.524,21.923z"/>
	</g>
</g>
</svg>
