<?xml version="1.0" encoding="utf-8"?>
<!-- Generator: Adobe Illustrator 16.0.0, SVG Export Plug-In . SVG Version: 6.00 Build 0)  -->
<!DOCTYPE svg PUBLIC "-//W3C//DTD SVG 1.1//EN" "http://www.w3.org/Graphics/SVG/1.1/DTD/svg11.dtd">
<svg version="1.1" id="图层_1" xmlns="http://www.w3.org/2000/svg" xmlns:xlink="http://www.w3.org/1999/xlink" x="0px" y="0px"
	 width="21px" height="22.842px" viewBox="0 0 21 22.842" enable-background="new 0 0 21 22.842" xml:space="preserve">
<g>
	<g>
		<path fill="#00ABFF" d="M19.341,22.842H0.5c-0.276,0-0.5-0.224-0.5-0.5V1.658c0-0.276,0.224-0.5,0.5-0.5h12.619
			c0.276,0,0.5,0.224,0.5,0.5s-0.224,0.5-0.5,0.5H1v19.684h17.841V7.894c0-0.276,0.224-0.5,0.5-0.5s0.5,0.224,0.5,0.5v14.448
			C19.841,22.618,19.617,22.842,19.341,22.842z"/>
	</g>
	<g>
		<path fill="#00ABFF" d="M9.003,9.049H3.592c-0.276,0-0.5-0.224-0.5-0.5s0.224-0.5,0.5-0.5h5.411c0.276,0,0.5,0.224,0.5,0.5
			S9.279,9.049,9.003,9.049z"/>
	</g>
	<g>
		<path fill="#00ABFF" d="M15.381,14.438H3.592c-0.276,0-0.5-0.224-0.5-0.5s0.224-0.5,0.5-0.5h11.789c0.276,0,0.5,0.224,0.5,0.5
			S15.657,14.438,15.381,14.438z"/>
	</g>
	<g>
		<path fill="#00ABFF" d="M12.454,9.047c-0.128,0-0.256-0.049-0.354-0.146c-0.195-0.195-0.195-0.512,0-0.707l8.046-8.047
			c0.195-0.195,0.512-0.195,0.707,0s0.195,0.512,0,0.707L12.808,8.9C12.71,8.998,12.582,9.047,12.454,9.047z"/>
	</g>
</g>
</svg>
