<?xml version="1.0" encoding="utf-8"?>
<!-- Generator: Adobe Illustrator 16.0.0, SVG Export Plug-In . SVG Version: 6.00 Build 0)  -->
<!DOCTYPE svg PUBLIC "-//W3C//DTD SVG 1.1//EN" "http://www.w3.org/Graphics/SVG/1.1/DTD/svg11.dtd">
<svg version="1.1" id="图层_1" xmlns="http://www.w3.org/2000/svg" xmlns:xlink="http://www.w3.org/1999/xlink" x="0px" y="0px"
	 width="70px" height="69.998px" viewBox="0 0 70 69.998" enable-background="new 0 0 70 69.998" xml:space="preserve">
<g>
	<g>
		<path fill="#2EA7E0" d="M34.714,47.123c-6.842,0-12.408-5.565-12.408-12.409c0-6.84,5.566-12.406,12.408-12.406
			c6.841,0,12.407,5.565,12.407,12.406C47.121,41.558,41.555,47.123,34.714,47.123z M34.714,25.28c-5.203,0-9.437,4.232-9.437,9.434
			c0,5.204,4.233,9.438,9.437,9.438c5.202,0,9.437-4.232,9.437-9.438C44.15,29.512,39.916,25.28,34.714,25.28z"/>
	</g>
	<g>
		<path fill="#2EA7E0" d="M40.415,69.713H29.017c-0.739,0-1.366-0.544-1.472-1.274l-1.19-8.314
			c-1.291-0.423-2.532-0.934-3.706-1.525l-6.712,5.034c-0.591,0.442-1.421,0.386-1.942-0.138l-8.058-8.062
			c-0.523-0.522-0.581-1.351-0.138-1.94l5.032-6.716c-0.593-1.178-1.103-2.42-1.521-3.703l-8.32-1.188
			c-0.732-0.104-1.276-0.73-1.276-1.472V29.017c0-0.739,0.544-1.366,1.276-1.47l8.316-1.189c0.42-1.283,0.931-2.524,1.525-3.707
			l-5.033-6.713c-0.443-0.592-0.386-1.419,0.138-1.942l8.057-8.059c0.523-0.523,1.354-0.581,1.941-0.139l6.715,5.033
			c1.179-0.594,2.42-1.104,3.705-1.525l1.19-8.317c0.105-0.732,0.732-1.275,1.472-1.275h11.395c0.739,0,1.366,0.543,1.472,1.275
			l1.19,8.317c1.284,0.421,2.524,0.931,3.704,1.525l6.714-5.035c0.591-0.443,1.418-0.387,1.942,0.138l8.062,8.061
			c0.522,0.523,0.581,1.35,0.138,1.942l-5.035,6.711c0.596,1.178,1.105,2.419,1.524,3.709l8.315,1.187
			c0.731,0.104,1.275,0.73,1.275,1.471l-0.002,11.396c0,0.738-0.544,1.365-1.275,1.472l-8.313,1.188
			c-0.419,1.287-0.931,2.527-1.524,3.705l5.035,6.711c0.443,0.592,0.385,1.419-0.138,1.941l-8.062,8.062
			c-0.521,0.523-1.353,0.582-1.94,0.138l-6.716-5.032c-1.174,0.594-2.414,1.104-3.704,1.525l-1.187,8.314
			C41.782,69.169,41.154,69.713,40.415,69.713z M30.305,66.741h8.822l1.137-7.971c0.084-0.58,0.498-1.057,1.06-1.219
			c1.735-0.503,3.375-1.178,4.872-2.009c0.514-0.283,1.145-0.242,1.611,0.11l6.438,4.824l6.237-6.238l-4.828-6.434
			c-0.352-0.468-0.395-1.1-0.109-1.611c0.834-1.504,1.51-3.144,2.006-4.873c0.162-0.562,0.639-0.978,1.219-1.061l7.972-1.14
			l0.002-8.819l-7.974-1.138c-0.58-0.083-1.057-0.497-1.219-1.06c-0.498-1.732-1.172-3.372-2.006-4.875
			c-0.284-0.512-0.24-1.144,0.109-1.612l4.828-6.434l-6.238-6.239l-6.438,4.826c-0.468,0.351-1.099,0.394-1.609,0.112
			c-1.51-0.835-3.149-1.51-4.874-2.008c-0.562-0.162-0.978-0.639-1.06-1.217l-1.142-7.975h-8.818l-1.141,7.975
			c-0.083,0.578-0.497,1.055-1.06,1.217c-1.726,0.499-3.366,1.174-4.876,2.008c-0.512,0.282-1.143,0.239-1.609-0.112l-6.436-4.824
			l-6.234,6.236l4.823,6.434c0.351,0.467,0.395,1.096,0.113,1.608c-0.836,1.519-1.512,3.161-2.01,4.881
			c-0.163,0.561-0.639,0.975-1.218,1.058l-7.973,1.14v8.82l7.976,1.137c0.579,0.083,1.056,0.497,1.218,1.06
			c0.499,1.728,1.174,3.367,2.006,4.877c0.282,0.512,0.238,1.142-0.112,1.607l-4.823,6.438l6.234,6.238l6.435-4.828
			c0.47-0.351,1.101-0.394,1.612-0.109c1.497,0.83,3.138,1.506,4.876,2.01c0.561,0.163,0.975,0.639,1.058,1.217L30.305,66.741z"/>
	</g>
</g>
</svg>
