<?xml version="1.0" encoding="utf-8"?>
<!-- Generator: Adobe Illustrator 16.0.0, SVG Export Plug-In . SVG Version: 6.00 Build 0)  -->
<!DOCTYPE svg PUBLIC "-//W3C//DTD SVG 1.1//EN" "http://www.w3.org/Graphics/SVG/1.1/DTD/svg11.dtd">
<svg version="1.1" id="图层_1" xmlns="http://www.w3.org/2000/svg" xmlns:xlink="http://www.w3.org/1999/xlink" x="0px" y="0px"
	 width="104.437px" height="22px" viewBox="0 0 104.437 22" enable-background="new 0 0 104.437 22" xml:space="preserve">
<g>
	<g>
		<g>
			<path fill="#00ABFF" d="M40.594,3.358h0.984v5.344h7.312v0.984h-7.312v8.156h8.719v0.984H33.562v-0.984h7.031V3.358z"/>
		</g>
		<g>
			<path fill="#00ABFF" d="M51.844,12.71c-0.141-0.422-0.281-0.797-0.422-1.125c1.592-2.344,2.857-5.133,3.797-8.367l1.055,0.211
				c-0.469,1.312-0.939,2.578-1.406,3.797v12.656h-0.984V9.265C53.225,10.577,52.547,11.726,51.844,12.71z M58.453,12.569
				c0.094-0.281,0.234-0.727,0.422-1.336c0.141-0.516,0.256-0.89,0.352-1.125h-2.953V9.265h3.164
				c0.281-0.938,0.537-1.828,0.773-2.672h-3.023V5.679h3.234c0.234-0.844,0.422-1.663,0.562-2.461l1.055,0.141
				c-0.188,0.75-0.398,1.523-0.633,2.32h6.328v0.914h-6.539c-0.096,0.517-0.307,1.242-0.633,2.18
				c-0.047,0.235-0.096,0.398-0.141,0.492h8.016v0.844H60.21c-0.236,0.891-0.492,1.758-0.773,2.602h7.875v0.984l-4.078,4.148
				c0.797,0.327,1.617,0.749,2.461,1.266l-0.703,0.844c-1.547-0.984-3.492-2.132-5.836-3.445c-0.703-0.374-1.242-0.679-1.617-0.914
				l0.562-0.703c1.359,0.751,2.787,1.571,4.289,2.461l3.797-3.797h-7.734V12.569z"/>
		</g>
		<g>
			<path fill="#00ABFF" d="M73.64,6.944l0.773-0.492c0.234,0.235,0.537,0.587,0.914,1.055c0.281,0.328,0.492,0.587,0.633,0.773
				l-0.773,0.492h4.57c0.562-0.797,1.1-1.593,1.617-2.391l0.914,0.562c-0.047,0.047-0.117,0.141-0.211,0.281
				c-0.518,0.657-0.939,1.172-1.266,1.547h5.484v0.914H69.492V8.772h5.625C74.648,8.116,74.156,7.507,73.64,6.944z M76.945,3.288
				l0.914-0.352C78,3.124,78.185,3.429,78.421,3.851c0.234,0.376,0.396,0.68,0.492,0.914L78.14,5.116h7.312V5.96H70.406V5.116h7.523
				c-0.141-0.327-0.377-0.773-0.703-1.336C77.085,3.546,76.99,3.383,76.945,3.288z M71.671,11.585h12.375v8.227h-0.984v-1.055
				H72.656v1.125h-0.984V11.585z M72.656,12.429v2.461h10.406v-2.461H72.656z M72.656,15.663v2.25h10.406v-2.25H72.656z"/>
		</g>
		<g>
			<path fill="#00ABFF" d="M91.71,3.147h0.914V5.96h2.391v0.773h-2.391v2.812h2.742v0.773h-7.945V9.546h1.406V4.765h0.844v4.781
				h2.039V3.147z M88.265,16.085l-0.773-0.422c0.562-0.984,1.078-2.155,1.547-3.516l0.844,0.281
				C89.505,13.601,88.968,14.819,88.265,16.085z M88.195,19.952c-0.188-0.281-0.398-0.54-0.633-0.773
				c3.188-1.313,5.367-3.468,6.539-6.469l0.773,0.352C93.562,16.25,91.333,18.546,88.195,19.952z M91.148,11.093h0.914v4.359h-0.914
				V11.093z M99.445,9.897h0.914v1.266c0,2.391-0.281,4.126-0.844,5.203l0.562-0.633c1.688,1.22,3.164,2.296,4.43,3.234
				l-0.633,0.703c-0.469-0.376-1.361-1.032-2.672-1.969c-0.75-0.562-1.312-0.984-1.688-1.266c-0.609,1.313-2.205,2.483-4.781,3.516
				c-0.141-0.281-0.352-0.562-0.633-0.844c2.344-0.844,3.797-1.758,4.359-2.742c0.703-0.89,1.029-2.625,0.984-5.203V9.897z
				 M96.14,7.577h2.602l0.562-2.672h-3.938V4.062h9.07v0.844h-4.219l-0.562,2.672h4.008v8.719h-0.914V8.351h-5.695v7.945H96.14
				V7.577z"/>
		</g>
	</g>
	<g>
		<path fill="#00ABFF" d="M20.929,12h-20c-0.552,0-1-0.447-1-1c0-0.552,0.448-1,1-1h20c0.552,0,1,0.448,1,1
			C21.929,11.553,21.481,12,20.929,12z"/>
	</g>
	<g>
		<path fill="#00ABFF" d="M10.929,22c-0.552,0-1-0.447-1-1V1c0-0.552,0.448-1,1-1s1,0.448,1,1v20C11.929,21.553,11.481,22,10.929,22
			z"/>
	</g>
</g>
</svg>
