<?xml version="1.0" encoding="utf-8"?>
<!-- Generator: Adobe Illustrator 16.0.0, SVG Export Plug-In . SVG Version: 6.00 Build 0)  -->
<!DOCTYPE svg PUBLIC "-//W3C//DTD SVG 1.1//EN" "http://www.w3.org/Graphics/SVG/1.1/DTD/svg11.dtd">
<svg version="1.1" id="图层_1" xmlns="http://www.w3.org/2000/svg" xmlns:xlink="http://www.w3.org/1999/xlink" x="0px" y="0px"
	 width="48px" height="44.311px" viewBox="0 0 48 44.311" enable-background="new 0 0 48 44.311" xml:space="preserve">
<g>
	<g transform="scale(0.1953125, 0.1953125)">
		<path fill="#D7D8DA" d="M236.306,0h-9.43v18.905h-28.36V0H47.25v18.905H18.885V0h-9.43C4.235,0,0,4.24,0,9.45v207.971
			c0,5.2,4.235,9.45,9.455,9.45h9.43v-9.45H47.25v9.45h151.265v-9.45h28.36v9.45h9.43c5.22,0,9.455-4.25,9.455-9.45V9.45
			C245.761,4.24,241.526,0,236.306,0z M47.25,189.065H18.885v-28.36H47.25V189.065z M47.25,132.345H18.885V103.98H47.25V132.345z
			 M47.25,75.63H18.885V47.26H47.25V75.63z M166.25,119.63l-61.475,35.86c-1,0.5-2.1,0.74-3.18,0.74c-1.31,0-2.58-0.355-3.73-1.03
			c-2.08-1.265-3.345-3.52-3.345-5.91v-71.7c0-2.41,1.265-4.655,3.345-5.92c2.095-1.27,4.73-1.37,6.9-0.28l61.47,35.85
			c2.39,1.18,3.91,3.565,3.91,6.195C170.145,116.06,168.625,118.445,166.25,119.63z M226.876,189.065h-28.36v-28.36h28.36V189.065z
			 M226.876,132.345h-28.36V103.98h28.36V132.345z M226.876,75.63h-28.36V47.26h28.36V75.63z"/>
	</g>
</g>
</svg>
